<svg id="DevSurfacesOpt2" xmlns="http://www.w3.org/2000/svg" viewBox="0 0 482.09 198.43"><defs><style>.Surface-visible{fill:#3f82c4;opacity:0.5;}.Surface-underlying,.cls-10{fill:#e66526;}.Surface-underlying,.cls-9{opacity:0.25;}.Dashed-gray-line,.Solid-gray-line,.cls-1,.cls-12,.cls-13,.cls-2,.cls-3,.cls-4,.cls-5,.cls-6,.cls-7,.cls-8{fill:none;}.Dashed-gray-line,.Solid-gray-line{stroke:#b2b2b2;}.Dashed-gray-line,.Solid-gray-line,.cls-12,.cls-2,.cls-3,.cls-4,.cls-6,.cls-7,.cls-8{stroke-linecap:round;}.Dashed-gray-line,.Solid-gray-line,.cls-2,.cls-3,.cls-4,.cls-6,.cls-7,.cls-8{stroke-linejoin:round;}.Dashed-gray-line,.Solid-gray-line,.cls-13{stroke-width:0.25px;}.Dashed-gray-line{stroke-dasharray:3 3;}.cls-1,.cls-12,.cls-13,.cls-5{stroke:#3f82c4;stroke-miterlimit:10;}.cls-2,.cls-6{stroke:#c91517;}.cls-2,.cls-3,.cls-4,.cls-5,.cls-6,.cls-7,.cls-8{stroke-width:0.5px;}.cls-3,.cls-7{stroke:#037534;}.cls-3,.cls-4,.cls-6{opacity:0.4;}.cls-4,.cls-8{stroke:#2a4d9c;}.cls-5{stroke-dasharray:2 2;}.cls-11{fill:#b2b2b2;}.cls-14{font-size:9px;fill:#1d1d1b;font-family:TimesNewRomanPS-ItalicMT, Times New Roman;font-style:italic;}</style></defs><title>DevelopabbleFromCurve2</title><path class="Surface-visible" d="M141.7,109.57l17-7.59a13.18,13.18,0,0,0,2.05-1.13A11.71,11.71,0,0,0,164,97.59a11.69,11.69,0,0,0,1.09-2.07,12.38,12.38,0,0,0,.95-4.28,21,21,0,0,0,0-2.38,18.43,18.43,0,0,0-.4-2.47c-.16-.72-.35-1.42-.58-2.12a22.71,22.71,0,0,0-.83-2.12,27.84,27.84,0,0,0-2.33-4.21A30.6,30.6,0,0,0,159,74.37a37.8,37.8,0,0,0-3.46-3.24,37.07,37.07,0,0,0-7.87-4.9,34.66,34.66,0,0,0-8.88-2.66,31.93,31.93,0,0,0-9.26-.07,37.3,37.3,0,0,0-4.58,1,39.28,39.28,0,0,0-4.32,1.6,43.94,43.94,0,0,0-3.93,2c-1,.56-2.81,1.7-3.74,2.34s-2.59,1.82-3.6,2.56c-1.18.87-2.34,1.77-3.51,2.66-1,.79-2,1.58-3,2.38L99.56,80.6l-3,2.33L93.48,85.3,87.36,90c-1.87,1.42-4.49,3.4-6.41,4.77-1.25.89-2.13,1.5-3.42,2.34s-2.31,1.47-3.5,2.14c-.56.32-1.13.62-1.7.92s-1,.54-1.57.8-1.23.57-1.85.84l-1.61.65c-.61.23-1.21.46-1.83.66s-1.49.47-2.24.66c-.58.16-1.17.29-1.76.43s-1.28.26-1.92.36-1.39.2-2.09.27-1.15.1-1.73.12a30.6,30.6,0,0,1-3.83,0,28.42,28.42,0,0,1-4-.58c-.74-.16-1.47-.33-2.19-.55l-1.53-.51c-.67-.24-1.31-.51-2-.81s-1.23-.57-1.82-.89-.95-.56-1.41-.86-1.1-.74-1.63-1.14-1.13-.92-1.67-1.41-.86-.8-1.26-1.23c-.24-.26-.48-.53-.71-.8s-.57-.66-.84-1a9.94,9.94,0,0,1-.62-.83,7.57,7.57,0,0,1-.44-.66c-.3-.46-.61-.92-.88-1.4-.37-.64-.78-1.46-1.09-2.13s-.46-1.07-.66-1.62-.39-1.11-.55-1.68a24.39,24.39,0,0,1-.74-4c-.07-.56-.11-1.11-.13-1.68,0-.72,0-1.71,0-2.43,0-.56.08-1.06.14-1.62s.16-1.21.26-1.81.3-1.47.5-2.2.32-1.16.52-1.74.4-1.14.63-1.69c.29-.71.59-1.41.94-2.09.24-.49.51-1,.79-1.42s.54-.9.84-1.33c.45-.69.94-1.35,1.45-2,.35-.46.72-.9,1.11-1.33s.77-.83,1.17-1.23c.59-.6,1.2-1.17,1.82-1.73L29.33,44.6c-1.34,1.17-2.86,2.65-4.08,3.93a54.64,54.64,0,0,0-3.71,4.33,56.69,56.69,0,0,0-3.26,4.73,48.1,48.1,0,0,0-2.74,5A54,54,0,0,0,13.39,68a52.52,52.52,0,0,0-1.55,5.52,48.51,48.51,0,0,0-.9,5.63,44.12,44.12,0,0,0-.25,5.63,48.57,48.57,0,0,0,.45,5.78,42.67,42.67,0,0,0,1.18,5.61,38.72,38.72,0,0,0,1.92,5.35,43,43,0,0,0,2.58,5,47.61,47.61,0,0,0,3.28,4.7A45.17,45.17,0,0,0,24,115.39a42.08,42.08,0,0,0,4.4,3.62,41.24,41.24,0,0,0,4.86,3,43.77,43.77,0,0,0,5.19,2.3,49,49,0,0,0,5.46,1.63,48.45,48.45,0,0,0,5.64,1,50,50,0,0,0,5.74.26,52,52,0,0,0,5.72-.42,48.68,48.68,0,0,0,5.64-1,54.68,54.68,0,0,0,5.48-1.62c1.78-.64,3.53-1.35,5.24-2.15s3.81-1.9,5.4-2.82c.86-.5,1.71-1,2.55-1.55s1.67-1.07,2.49-1.62c2.76-1.85,6.12-4.3,8.81-6.25l4.61-3.38c.76-.56,1.53-1.11,2.29-1.68l2.42-1.78c1.38-1,2.77-2,4.14-3.07,1.64-1.23,3.27-2.47,4.92-3.69l2.58-1.88c.64-.46,2-1.38,2.63-1.82,1.28-.85,1.4-.9,2.73-1.67a3.79,3.79,0,0,0,.34-.2l.17-.1.26-.14.64-.3.77-.36.53-.23.1,0s0,0,0,0h0l.08,0,.3-.12.42-.14.86-.25.43-.11.18,0a0,0,0,0,1,0,0h0l.18,0a6.67,6.67,0,0,1,.88-.13l.65-.06.36,0h.89c.35,0,.69,0,1,.09a9.55,9.55,0,0,1,1.07.18l.84.2.95.28.56.22.31.12a4.42,4.42,0,0,1,.63.27c.39.2.78.41,1.16.63s.64.37,1,.58a17.19,17.19,0,0,1,1.46,1.08c.32.26.61.53.92.79l.46.43.74.81a3.63,3.63,0,0,1,.41.47l.29.38a13.56,13.56,0,0,1,1,1.53l.36.66.25.47a6,6,0,0,1,.26.58c.12.31.25.63.36,1s.16.47.22.71l.12.45a8.25,8.25,0,0,1,.27,1.7c0,.38.05.76.05,1.14a7.33,7.33,0,0,1-.11,1.14,8.48,8.48,0,0,1-.29,1.1c0,.14-.09.29-.15.42a6,6,0,0,1-.31.62,6.09,6.09,0,0,1-.61,1,8.76,8.76,0,0,1-.75.85,8.86,8.86,0,0,1-1.86,1.32"/><path class="Surface-underlying" d="M141.7,109.58l17-7.6a10.7,10.7,0,0,1-1.55.58,15,15,0,0,1-1.61.38,15.47,15.47,0,0,1-1.65.2c-.55,0-1.1,0-1.66,0s-1.1,0-1.65-.1-1.1-.14-1.64-.23a23.26,23.26,0,0,1-3.21-.83,24.19,24.19,0,0,1-2.53-1c-.83-.38-1.64-.78-2.43-1.24s-1.55-.94-2.3-1.47-1.46-1.07-2.16-1.65a33.33,33.33,0,0,1-3.89-3.81,36.43,36.43,0,0,1-3.28-4.35c-.6-.91-1-1.62-1.55-2.58s-.9-1.67-1.37-2.68-.85-1.82-1.22-2.75l-.57-1.44L124,77.67c-.62-1.75-1.31-4-1.81-5.74q-.4-1.46-.78-2.91c-.15-.53-.29-1.07-.42-1.61s-.2-.88-.3-1.32c-.3-1.41-.62-2.81-.9-4.23-.15-.8-.3-1.59-.44-2.4-.1-.62-.21-1.24-.3-1.86-.13-.79-.23-1.57-.33-2.36s-.16-1.29-.23-1.94c0-.5-.09-1-.14-1.5,0-.29,0-.58-.07-.87,0-.64-.08-1.29-.12-1.94-.07-1.44-.09-2.88-.07-4.33s.09-2.89.21-4.33.31-2.86.57-4.28a23.61,23.61,0,0,1,.63-2.74,5.08,5.08,0,0,1,.17-.51,2.85,2.85,0,0,1,.12-.31,2.39,2.39,0,0,1,.3-.57l-15-16.19a2.38,2.38,0,0,0-.69.76,8.42,8.42,0,0,0-.74,1.43,28.8,28.8,0,0,0-1.47,4.79,64.19,64.19,0,0,0-1.23,7.55c-.28,2.61-.43,5-.49,7.64q0,1.88,0,3.75c0,1.31.07,2.6.14,3.9.14,2.65.35,5,.67,7.63.15,1.26.32,2.52.52,3.77s.4,2.54.63,3.8.47,2.49.73,3.73c.21,1,.59,2.79.81,3.77.13.58.27,1.15.42,1.72s.31,1.25.47,1.87c.33,1.28.67,2.55,1,3.82.46,1.58,1.15,3.8,1.7,5.35.31.89.65,1.76,1,2.64s.68,1.74,1,2.6.77,1.71,1.17,2.56.83,1.67,1.28,2.5.9,1.64,1.39,2.44,1,1.57,1.54,2.35a38.54,38.54,0,0,0,2.38,3.17c.8,1,1.78,2.07,2.67,3a35.29,35.29,0,0,0,3,2.65,33.32,33.32,0,0,0,3.24,2.3c.59.36,1.19.7,1.8,1s1.13.57,1.72.82a20.74,20.74,0,0,0,3.77,1.22,17.16,17.16,0,0,0,2.13.34,12.16,12.16,0,0,0,1.81,0,11.69,11.69,0,0,0,1.19-.08c.28,0,.55-.1.82-.16a7.54,7.54,0,0,0,.82-.2,10,10,0,0,0,1-.4"/><path class="Dashed-gray-line" d="M105.86,75.65c.46,1.58,1.15,3.8,1.7,5.36.31.88.65,1.75,1,2.63s.68,1.74,1,2.6.77,1.71,1.17,2.56.83,1.67,1.28,2.5.9,1.64,1.39,2.44,1,1.58,1.54,2.35"/><path class="Dashed-gray-line" d="M129.17,88.49c-.6-.91-1-1.62-1.55-2.58s-.9-1.67-1.37-2.68-.85-1.82-1.22-2.75L124.46,79,124,77.66c-.62-1.75-1.31-4-1.81-5.74q-.4-1.45-.78-2.91c-.15-.53-.29-1.07-.42-1.61s-.2-.88-.3-1.31"/><path class="Dashed-gray-line" d="M158.73,102a12,12,0,0,1-1.55.57,15,15,0,0,1-1.61.38,15.47,15.47,0,0,1-1.65.2c-.55,0-1.1.05-1.66,0s-1.1,0-1.65-.1-1.1-.14-1.64-.23a23.26,23.26,0,0,1-3.21-.83"/><path class="Solid-gray-line" d="M38,58.53c-.62.56-1.23,1.13-1.82,1.73-.4.4-.78.82-1.17,1.23s-.76.87-1.11,1.33c-.51.65-1,1.31-1.45,2-.3.43-.57.88-.84,1.33s-.55.93-.79,1.42c-.35.68-.65,1.38-.94,2.09-.23.55-.44,1.12-.63,1.69s-.37,1.15-.52,1.74-.36,1.46-.5,2.2-.18,1.2-.26,1.81-.12,1.06-.14,1.62c0,.72,0,1.71,0,2.43,0,.57.06,1.12.13,1.68a24.39,24.39,0,0,0,.74,4c.16.57.35,1.13.55,1.68s.42,1.09.66,1.62.72,1.49,1.09,2.13c.27.48.58.94.88,1.4a7.57,7.57,0,0,0,.44.66,9.94,9.94,0,0,0,.62.83c.27.34.55.67.84,1s.47.54.71.8c.4.43.83.84,1.26,1.23s1.09,1,1.67,1.41,1.07.78,1.63,1.14.93.59,1.41.86,1.2.61,1.82.89,1.29.57,2,.81l1.53.51c.72.22,1.45.39,2.19.55a28.42,28.42,0,0,0,4,.58,30.6,30.6,0,0,0,3.83,0c.58,0,1.15-.06,1.73-.12s1.39-.16,2.09-.27,1.28-.22,1.92-.36,1.18-.27,1.76-.43c.75-.19,1.5-.42,2.24-.66s1.22-.43,1.83-.66l1.61-.65c.62-.27,1.24-.55,1.85-.84s1-.52,1.57-.8,1.14-.6,1.7-.92c1.19-.67,2.35-1.4,3.5-2.14S79.7,95.67,81,94.78c1.92-1.37,4.54-3.35,6.41-4.77l6.12-4.71,3.06-2.37,3-2.33L102.85,78c1-.8,2-1.59,3-2.38"/><line class="Solid-gray-line" x1="120.04" y1="31.91" x2="105.05" y2="15.72"/><path class="Solid-gray-line" d="M105.05,15.72a2.49,2.49,0,0,0-.69.76,8.42,8.42,0,0,0-.74,1.43,28.8,28.8,0,0,0-1.47,4.79,64.19,64.19,0,0,0-1.23,7.55c-.28,2.61-.43,5-.49,7.64q0,1.88,0,3.75c0,1.31.07,2.61.14,3.91.14,2.64.35,5,.67,7.62.15,1.26.32,2.52.52,3.77s.4,2.54.63,3.8.47,2.49.73,3.73c.21,1,.59,2.8.81,3.77.13.58.27,1.15.42,1.72s.31,1.25.47,1.87c.33,1.28.67,2.55,1,3.82"/><line class="Solid-gray-line" x1="29.33" y1="44.6" x2="37.96" y2="58.53"/><line class="Solid-gray-line" x1="158.73" y1="101.98" x2="141.7" y2="109.57"/><path class="Solid-gray-line" d="M141.3,109.75l.4-.19"/><path class="Solid-gray-line" d="M120.65,66.08a39.28,39.28,0,0,1,4.32-1.6,37.3,37.3,0,0,1,4.58-1,31.93,31.93,0,0,1,9.26.07,35.63,35.63,0,0,1,16.75,7.56A37.8,37.8,0,0,1,159,74.37a30.6,30.6,0,0,1,2.83,3.57,27.84,27.84,0,0,1,2.33,4.21,22.71,22.71,0,0,1,.83,2.12c.23.7.42,1.4.58,2.12a18.43,18.43,0,0,1,.4,2.47,21,21,0,0,1,0,2.38,12.38,12.38,0,0,1-.95,4.28A11.69,11.69,0,0,1,164,97.59a11.71,11.71,0,0,1-3.22,3.26,13.18,13.18,0,0,1-2.05,1.13"/><path class="Solid-gray-line" d="M105.87,75.64c1.17-.89,2.33-1.79,3.51-2.66,1-.74,2.57-1.86,3.6-2.56s2.76-1.78,3.74-2.34a43.94,43.94,0,0,1,3.93-2"/><path class="Solid-gray-line" d="M115,96.09a38.69,38.69,0,0,0,2.38,3.18c.8,1,1.78,2.06,2.67,2.94a35.29,35.29,0,0,0,3,2.65,33.32,33.32,0,0,0,3.24,2.3c.59.37,1.19.7,1.8,1s1.13.58,1.72.82a20.74,20.74,0,0,0,3.77,1.22,17.16,17.16,0,0,0,2.13.34,12.16,12.16,0,0,0,1.81,0,11.69,11.69,0,0,0,1.19-.08c.28,0,.55-.1.82-.16a5.77,5.77,0,0,0,.82-.2,10,10,0,0,0,1-.4"/><path class="Solid-gray-line" d="M125.73,89.18l0,.15"/><path class="Solid-gray-line" d="M120.64,66.09c-.3-1.42-.62-2.82-.9-4.24-.15-.79-.3-1.59-.44-2.39-.1-.63-.21-1.25-.3-1.87-.13-.79-.23-1.57-.33-2.36-.09-.64-.16-1.29-.23-1.94s-.09-1-.14-1.5c0-.29,0-.58-.07-.87,0-.64-.08-1.29-.12-1.94-.07-1.44-.09-2.88-.07-4.33s.09-2.88.21-4.32.31-2.87.57-4.29a23,23,0,0,1,.63-2.73,4.51,4.51,0,0,1,.17-.52,2.85,2.85,0,0,1,.12-.31,2.59,2.59,0,0,1,.3-.57"/><path class="Solid-gray-line" d="M145.76,102a24.19,24.19,0,0,1-2.53-1c-.83-.38-1.64-.78-2.43-1.24s-1.55-.94-2.3-1.46-1.46-1.08-2.16-1.66a33.33,33.33,0,0,1-3.89-3.81,35.64,35.64,0,0,1-3.28-4.35"/><path class="Solid-gray-line" d="M129.19,88.49a6.67,6.67,0,0,0-.88.13l-.18,0h0a0,0,0,0,0,0,0l-.18,0-.43.11-.86.25-.42.14-.3.12-.08,0h0"/><path class="Solid-gray-line" d="M145.73,102a8.25,8.25,0,0,0-.27-1.7l-.12-.45c-.06-.24-.14-.48-.22-.71s-.24-.64-.36-1a6,6,0,0,0-.26-.58l-.25-.47-.36-.66a13.56,13.56,0,0,0-1-1.53l-.29-.38a3.63,3.63,0,0,0-.41-.47l-.74-.81-.46-.43c-.31-.26-.6-.53-.92-.79A17.19,17.19,0,0,0,138.59,91c-.31-.21-.63-.4-1-.58s-.77-.43-1.16-.63a4.42,4.42,0,0,0-.63-.27l-.31-.12-.56-.22-.95-.28-.84-.2a9.55,9.55,0,0,0-1.07-.18c-.34,0-.68-.07-1-.09h-.89l-.36,0-.65.06"/><path class="Solid-gray-line" d="M141.7,109.56a8.86,8.86,0,0,0,1.86-1.32,8.76,8.76,0,0,0,.75-.85,6.09,6.09,0,0,0,.61-1,6,6,0,0,0,.31-.62c.06-.13.1-.28.15-.42a8.48,8.48,0,0,0,.29-1.1,7.33,7.33,0,0,0,.11-1.14c0-.38,0-.76-.05-1.14"/><path class="Solid-gray-line" d="M115,96.08c-1.65,1.22-3.28,2.46-4.92,3.69-1.37,1-2.76,2-4.14,3.07l-2.42,1.78c-.76.57-1.53,1.12-2.29,1.68l-4.61,3.38c-2.69,1.95-6,4.4-8.81,6.25q-1.23.82-2.49,1.62c-.84.52-1.69,1-2.55,1.55-1.59.92-3.74,2.05-5.4,2.82s-3.46,1.51-5.24,2.15a54.68,54.68,0,0,1-5.48,1.62,48.68,48.68,0,0,1-5.64,1,52,52,0,0,1-5.72.42,50,50,0,0,1-5.74-.26,48.45,48.45,0,0,1-5.64-1,49,49,0,0,1-5.46-1.63,43.77,43.77,0,0,1-5.19-2.3,41.24,41.24,0,0,1-4.86-3,42.08,42.08,0,0,1-4.4-3.62,45.17,45.17,0,0,1-3.88-4.18,47.61,47.61,0,0,1-3.28-4.7,43,43,0,0,1-2.58-5,38.72,38.72,0,0,1-1.92-5.35,42.67,42.67,0,0,1-1.18-5.61,48.57,48.57,0,0,1-.45-5.78,44.12,44.12,0,0,1,.25-5.63,48.51,48.51,0,0,1,.9-5.63A52.52,52.52,0,0,1,13.39,68a54,54,0,0,1,2.15-5.36,48.1,48.1,0,0,1,2.74-5,56.69,56.69,0,0,1,3.26-4.73,54.64,54.64,0,0,1,3.71-4.33c1.22-1.28,2.74-2.76,4.08-3.93"/><path class="Solid-gray-line" d="M125.75,89.35h0s0,0,0,0l-.1,0-.53.23-.77.36-.64.3-.26.14-.17.1a3.79,3.79,0,0,1-.34.2c-1.33.77-1.45.82-2.73,1.67-.65.44-2,1.36-2.63,1.82L115,96.08"/><polyline class="cls-1" points="37.96 58.53 37.68 58.81 37.27 59.16 36.78 59.63 36 60.38 35.43 60.99 34.79 61.68 34.05 62.58 33.66 63.05 32.84 64.17 32.62 64.49 32.45 64.75 31.65 65.99 30.91 67.3 30.78 67.54 30.12 68.97 30.04 69.13 29.97 69.32 29.4 70.76 29 71.98 28.86 72.42 28.57 73.53 28.42 74.11 28.29 74.8 28.09 75.81 27.98 76.68 27.87 77.53 27.82 78.26 27.76 79.24 27.76 80.39 27.76 80.96 27.85 82.25 27.87 82.66 27.92 83 28.1 84.34 28.41 85.89 28.43 86 28.45 86.09 28.74 87.17 28.88 87.62 28.89 87.66 29.45 89.2 30.01 90.45 30.13 90.73 30.3 91.05 30.91 92.2 31.49 93.14 31.79 93.62 32.35 94.41 32.75 94.97 33.28 95.61 33.8 96.25 34.49 96.98 34.93 97.46 35.79 98.26 36.15 98.59 36.46 98.84 37.43 99.64 37.64 99.78 38.78 100.6 39.69 101.16 40.21 101.47 41.51 102.15 41.71 102.25 42.9 102.77 43.26 102.93 43.75 103.11 44.86 103.52 45.58 103.74 46.49 104.01 47.47 104.25 48.15 104.41 49.41 104.63 49.83 104.7 51.39 104.89 51.54 104.91 52.39 104.96 53.27 105.01 54.67 105.01 55.04 105.01 55.59 104.98 56.8 104.92 57.74 104.82 58.56 104.73 59.92 104.52 60.3 104.46 60.57 104.41 61.74 104.16 61.99 104.11 62.04 104.1 63.42 103.75 63.8 103.65 64.47 103.44 65.53 103.11 66.17 102.89 67.23 102.5 68.28 102.07 68.77 101.88 68.92 101.82 69.22 101.68 70.61 101.06 71.29 100.72 72.25 100.23 73.06 99.79 73.88 99.35 74.81 98.81 75.51 98.4 76.77 97.6 77.09 97.41 77.42 97.19 78.69 96.36 79.79 95.59 80.09 95.38 80.27 95.27 81.1 94.68 81.85 94.14 82.06 93.98 82.38 93.74 83.02 93.27 83.45 92.97 83.97 92.57 84.69 92.03 85.04 91.77 86.18 90.9 86.66 90.54 86.8 90.43 87.63 89.8 88.32 89.27 88.52 89.12 88.74 88.95 89.99 87.99 90.68 87.46 91.21 87.05 91.7 86.67 92.11 86.36 92.54 86.03 93.44 85.32 94.35 84.64 95.2 83.97 96.15 83.24 97 82.57 97.96 81.84 98.85 81.14 99.31 80.79 99.79 80.42 100.6 79.77 101.65 78.97 102.03 78.66 102.39 78.36 103.56 77.47 104.17 76.97 104.81 76.48 105.55 75.91 105.75 75.74 105.93 75.59 106.7 75.01 107.64 74.29 107.68 74.26 108.62 73.54 109.41 72.95 109.89 72.61 111.11 71.7 111.61 71.37 112.36 70.85 112.64 70.65 112.82 70.52 113.56 70.03 114.52 69.4 115.16 69.02 115.83 68.6 116.21 68.36 116.94 67.95 117.92 67.41 118.09 67.33 118.46 67.15 119.63 66.54 120.56 66.12 121.36 65.76 122.52 65.33 123.12 65.09 124.23 64.72 124.87 64.5 126.13 64.17 126.66 64.03 127.83 63.8 128.47 63.66 128.72 63.62 130.28 63.39 131.16 63.31 132.11 63.23 132.66 63.22 133.96 63.18 134.18 63.19 135.22 63.22 135.81 63.24 137.23 63.37 137.64 63.4 138.21 63.48 139.47 63.67 140.33 63.85 141.3 64.05 142.6 64.39 143.12 64.52 144.74 65.05 144.92 65.1 145.94 65.49 146.58 65.74 146.67 65.78 148.09 66.41 148.37 66.54 148.72 66.72 150.03 67.39 151.02 67.97 151.65 68.33 152.44 68.85 153.21 69.35 154.09 70 154.7 70.44 155.16 70.82 156.13 71.6 157.24 72.6 157.49 72.82 158.67 73.99 158.77 74.09 158.84 74.18 159.68 75.1 159.96 75.41 160.92 76.63 161.03 76.76 161.14 76.92 162 78.15 162.66 79.21 162.88 79.56 163.11 79.98 163.65 80.99 164.06 81.86 164.32 82.43 164.58 83.1 164.88 83.88 165.13 84.65 165.34 85.31 165.47 85.87 165.68 86.73 165.76 87.19 165.92 88.14 166.02 89.2 166.04 89.51 166.06 90.66 166.06 90.85 166.05 91.01 165.98 92.14 165.82 93.15 165.78 93.38 165.49 94.47 165.46 94.57 165.42 94.68 165.04 95.7 164.94 95.89 164.52 96.76 164.08 97.47 163.9 97.76 163.66 98.07 163.2 98.68 162.75 99.17 162.42 99.53 161.98 99.91 161.55 100.29 161.15 100.58 160.61 100.97 160.26 101.18 159.6 101.57 159.31 101.71 158.53 102.08 157.55 102.44 157.41 102.49 157.28 102.52 156.23 102.81 156.21 102.82 155.97 102.86 154.99 103.03 153.91 103.13 153.7 103.15 152.72 103.18 152.38 103.18 151.51 103.14 151.03 103.12 150.3 103.03 149.67 102.96 149.07 102.86 148.29 102.71 147.85 102.61 146.9 102.37 146.63 102.29 145.52 101.94 144.8 101.67 144.21 101.44 144.12 101.41 143 100.91 142.72 100.79 141.81 100.32 141.33 100.08 140.65 99.68 139.97 99.29 139.52 98.99 138.64 98.41 138.42 98.25 137.44 97.54 137.34 97.46 136.31 96.63 136.05 96.42 135.61 96.03 134.8 95.3 133.94 94.45 133.61 94.12 132.79 93.22 132.46 92.86 131.68 91.94 131.34 91.53 130.64 90.61 130.28 90.13 130.12 89.89 129.69 89.27 129.39 88.84 129.28 88.68 128.7 87.77 128.31 87.15 128.06 86.69 127.51 85.71 127.43 85.58 127.36 85.45 126.57 83.94 125.89 82.47 125.82 82.33 125.79 82.26 125.34 81.22 125.03 80.52 124.88 80.13 124.64 79.48 124.34 78.75 124.04 77.92 123.69 76.93 123.62 76.69 123.29 75.73 123.07 75.08 122.76 74.01 122.49 73.2 122.28 72.44 122.01 71.43 121.98 71.36 121.96 71.3 121.85 70.87 121.45 69.39 121.4 69.18 121.34 68.91 121.12 68.09 120.95 67.46 120.85 67 120.73 66.41 120.6 65.89 120.5 65.48 120.17 63.88 120.1 63.61 119.94 62.81 119.71 61.7 119.68 61.54 119.65 61.31 119.48 60.44 119.35 59.81 119.28 59.34 119.17 58.64 119.05 57.95 118.85 56.63 118.78 56.11 118.75 55.84 118.55 54.32 118.4 52.82 118.37 52.55 118.28 51.54 118.22 50.84 118.15 49.55 118.12 49.17 118.11 48.86 118.05 47.55 118.04 47.08 118.03 45.99 118.03 45.97 118.03 45.92 118.03 44.88 118.03 44.5 118.05 43.81 118.08 43.06 118.09 42.74 118.15 41.69 118.15 41.66 118.24 40.41 118.31 39.74 118.36 39.2 118.41 38.81 118.5 38.07 118.62 37.21 118.64 37.05 118.65 37.02 118.77 36.27 118.81 36.07 118.91 35.53 118.97 35.2 119.06 34.79 119.14 34.43 119.2 34.22 119.32 33.75 119.35 33.65 119.49 33.16 119.54 33.01 119.65 32.68 119.78 32.38 119.81 32.3 119.91 32.11 119.96 32.02 120.04 31.91"/><line class="cls-2" x1="73.64" y1="99.48" x2="76.53" y2="107.52"/><line class="cls-2" x1="106.05" y1="75.51" x2="109.55" y2="83.54"/><line class="cls-2" x1="145.69" y1="65.4" x2="141.68" y2="74.9"/><line class="cls-2" x1="164.64" y1="96.5" x2="156.96" y2="100.29"/><line class="cls-2" x1="135.11" y1="95.58" x2="129.51" y2="98.41"/><line class="cls-2" x1="119.29" y1="59.4" x2="112.51" y2="58.79"/><line class="cls-2" x1="120.04" y1="31.91" x2="114.06" y2="25.45"/><line class="cls-2" x1="37.96" y1="58.53" x2="34.63" y2="53.16"/><line class="cls-2" x1="34.47" y1="96.97" x2="29.99" y2="103.71"/><line class="cls-3" x1="34.47" y1="96.97" x2="28.19" y2="99.85"/><line class="cls-3" x1="37.96" y1="58.53" x2="31.72" y2="53.16"/><line class="cls-3" x1="120.04" y1="31.91" x2="126.51" y2="25.94"/><line class="cls-3" x1="119.29" y1="59.4" x2="125.81" y2="56.68"/><line class="cls-3" x1="135.11" y1="95.58" x2="139.2" y2="88.81"/><line class="cls-3" x1="164.64" y1="96.5" x2="158.11" y2="89.22"/><line class="cls-3" x1="145.69" y1="65.4" x2="145.26" y2="68.73"/><line class="cls-3" x1="106.05" y1="75.51" x2="111.85" y2="78.39"/><line class="cls-3" x1="73.64" y1="99.48" x2="77.72" y2="103.18"/><line class="cls-4" x1="34.47" y1="96.97" x2="41.03" y2="103.94"/><line class="cls-4" x1="37.96" y1="58.53" x2="30.46" y2="65.41"/><line class="cls-4" x1="120.04" y1="31.91" x2="120.84" y2="30.75"/><line class="cls-4" x1="119.29" y1="59.4" x2="117.85" y2="50.52"/><line class="cls-4" x1="135.11" y1="95.58" x2="128.39" y2="89.33"/><line class="cls-4" x1="164.64" y1="96.5" x2="161.65" y2="102.62"/><line class="cls-4" x1="145.69" y1="65.4" x2="155.82" y2="69.28"/><line class="cls-4" x1="106.05" y1="75.51" x2="113.77" y2="69.61"/><line class="cls-4" x1="73.64" y1="99.48" x2="82.17" y2="94.89"/><path class="Surface-visible" d="M301.86,133.81a24.24,24.24,0,0,1-.95-2.24c-.4-1-.48-1.24-.84-2.29-.26-.77-.51-1.55-.75-2.32s-.46-1.56-.68-2.34a32,32,0,0,0-9.17,0,32.73,32.73,0,0,0-8.8,2.58,42.09,42.09,0,0,0-4,2c-.65.38-1.28.77-1.92,1.17s-1.27.8-1.89,1.23c-1.08.74-2.58,1.81-3.63,2.59s-2.54,1.92-3.53,2.69q-1.87,1.45-3.73,2.93c-1.1.87-2.2,1.73-3.31,2.58l-1.81,1.41L255,145.21l-3.47,2.67c-3,2.29-4.87,3.76-7.88,6-.59.44-1.18.88-1.78,1.31l-1.4,1c-.73.51-1.45,1-2.19,1.5-.39.27-.79.52-1.19.77-1.57,1-2.73,1.72-4.38,2.59-.53.27-1.05.55-1.58.81-.74.36-1.79.84-2.56,1.16-.55.23-1.12.45-1.68.66s-1.4.51-2.11.72-1.56.47-2.35.65l-.8.19-.91.19c-.87.18-1.74.3-2.62.4-.69.09-1.29.14-2,.18a30.59,30.59,0,0,1-4.69-.08c-.66-.06-1.31-.13-2-.24l-1.09-.2L207,165.2l-1.15-.31-.85-.28-.8-.27c-.35-.13-.7-.26-1-.41l-1.33-.59c-.36-.17-.71-.34-1.06-.53-.54-.28-1-.6-1.56-.92a23.61,23.61,0,0,1-3.63-2.81c-.53-.49-.87-.83-1.35-1.36s-1.25-1.43-1.73-2.08c-.18-.25-.36-.52-.53-.78l-.47-.73c-.19-.29-.37-.58-.54-.89s-.44-.82-.65-1.23c-.33-.67-.64-1.35-.91-2s-.44-1.2-.62-1.81a25.42,25.42,0,0,1-.84-4.41c-.07-.7-.1-1.41-.11-2.12a24.12,24.12,0,0,1,.06-2.55c0-.31.07-.62.1-.93s.09-.69.14-1c.13-.86.31-1.71.52-2.56a28.83,28.83,0,0,1,1.31-4c.32-.76.65-1.51,1-2.24.29-.54.61-1.06.93-1.58s.8-1.25,1.24-1.85,1-1.31,1.51-1.93.9-1,1.37-1.48q1-1,2-1.89l-15.32-13.18a47.62,47.62,0,0,0-4.12,4,41.89,41.89,0,0,0-6.47,9.63,45.47,45.47,0,0,0-2.12,5.4,40.34,40.34,0,0,0-1.37,5.72,41.82,41.82,0,0,0-.53,5.8,40.14,40.14,0,0,0,1.41,11.38,39.61,39.61,0,0,0,8.3,15.18,42.25,42.25,0,0,0,4.09,4.05,40,40,0,0,0,4.65,3.45,42.42,42.42,0,0,0,5.09,2.77,43.74,43.74,0,0,0,5.41,2.08,42.38,42.38,0,0,0,5.65,1.4,52.56,52.56,0,0,0,5.75.75,53.42,53.42,0,0,0,5.8.08,55.89,55.89,0,0,0,5.78-.52c1.92-.27,3.81-.64,5.7-1.09s3.78-1,5.64-1.62,3.66-1.32,5.45-2.09,3.51-1.59,5.23-2.47,3.36-1.8,5-2.79,3.54-2.19,5.07-3.21,3.22-2.2,4.75-3.3c1.06-.76,3.7-2.69,4.74-3.46q2.24-1.65,4.45-3.33c1.49-1.12,3-2.22,4.48-3.35l4.48-3.37c1.56-1.19,3.11-2.4,4.68-3.59l2.45-1.82c.83-.61,1.66-1.2,2.49-1.79,1.5-1,2.39-1.64,4-2.57.67-.41,1.35-.81,2-1.18l1-.5c.37-.19.74-.37,1.12-.54s.7-.28,1.06-.42.75-.29,1.14-.42,1-.32,1.47-.45l.47-.11.33-.06.38-.09.55-.09c.47-.07.94-.12,1.41-.16.28,0,.55,0,.83,0,.51,0,1,0,1.52.07"/><path class="Surface-visible" d="M284.58,140.36c-.5-1.3-.73-1.92-1.17-3.24-.35-1.09-.7-2.19-1-3.29s-.61-2.22-.91-3.33c-.4-1.51-.49-1.81-.82-3.34s-.62-2.82-.9-4.24-.52-2.83-.75-4.26-.41-2.91-.55-4.29-.26-2.88-.33-4.32a64,64,0,0,1,.14-8.65c.13-1.44.31-2.87.56-4.29a24.39,24.39,0,0,1,.66-2.81c.05-.16.1-.32.16-.48a2.52,2.52,0,0,1,.12-.29,2.42,2.42,0,0,1,.29-.55l16.32-15.06a1.23,1.23,0,0,0-.12.26c-.05.13-.09.26-.13.39-.12.39-.22.78-.31,1.18-.13.57-.23,1.14-.33,1.71-.13.74-.24,1.48-.34,2.22-.12.9-.22,1.8-.31,2.71s-.19,2.11-.26,3.17-.1,1.89-.13,2.84-.05,2-.06,3.07q0,3,.18,5.9t.53,5.89c.26,2.11.51,3.76.89,5.85.44,2.48.64,3.32,1.19,5.78.11.46.21.91.31,1.37s.22,1,.35,1.46c.26,1,.53,1.93.8,2.9.22.78.44,1.56.68,2.34s.49,1.55.75,2.32c.36,1.05.44,1.25.84,2.29a24.24,24.24,0,0,0,.95,2.24h0c-.5-.05-1-.07-1.52-.07-.28,0-.55,0-.83,0-.47,0-.94.09-1.41.16l-.55.09-.38.09-.33.06-.47.11q-.74.19-1.47.45c-.39.13-.76.28-1.14.42s-.71.27-1.06.42-.75.35-1.12.54l-1,.5c-.69.37-1.37.77-2,1.18-1.57.93-2.46,1.53-4,2.57"/><path class="Surface-visible" d="M325.74,148.08c-.1-.48-.2-1-.32-1.42s-.27-.95-.43-1.42a26.45,26.45,0,0,0-1.18-2.86,29.52,29.52,0,0,0-5.66-7.85c-.75-.74-1.53-1.45-2.33-2.12s-1.67-1.33-2.55-1.94-1.79-1.18-2.73-1.71a30.59,30.59,0,0,0-2.85-1.46c-1-.44-1.95-.83-3-1.18s-2-.65-3-.9-2-.45-3.06-.6c.22.78.44,1.56.68,2.34s.49,1.55.75,2.32c.36,1.05.44,1.25.84,2.29a24.24,24.24,0,0,0,.95,2.24h0a6,6,0,0,1,.74.11l.74.15a8,8,0,0,1,1.42.44h0l.06,0a1.85,1.85,0,0,1,.29.13l.35.18.34.19.34.19.07,0,.26.17.32.24a5.68,5.68,0,0,1,.6.5h0l-.05-.06,0,0v0h0s0,0,0,0l0,0,.05,0,.07.08.14.15.28.31h0l0,0,.07.08.08.11.15.23c.1.16.19.32.28.48h0v0l0,.11,0,.13c0,.09.07.18.1.27l.07.18h0a.28.28,0,0,1,0-.09v-.06s0,0,0,0,0,0,0,0,0,0,0,.06,0,.07,0,.1,0,.08,0,.12l0,.08a.42.42,0,0,1,0,.1v0h0l-.06-.18v0c0,.13,0,.25,0,.38h0a.71.71,0,0,1,0,.14c0,.05,0,.09,0,.14a.77.77,0,0,1-.07.26c-.05.09-.1.18-.14.27h0l0,0h0l-.11.19h0l-.11.1,0,0h0l0,0-.06,0-.11.06h0a0,0,0,0,0,0,0h0l-.42.2-.09,0h0l0,0a.2.2,0,0,1,.08,0l.17-.07-.16,0h-.43v0l-.5-.16-.1,0h0l.2.11,0,0h0l-.07,0-.09-.05-.17-.09h0l-.13,0-.09,0h.05l-.14-.09v0h0l0,0-.06,0-.13-.08h0s0,0,0,0h0a6.59,6.59,0,0,1-1.35-1.23c-.2-.23-.41-.45-.59-.7l-.51-.76c-.17-.25-.35-.5-.5-.76l-.19-.35c-.08-.16-.17-.3-.25-.45-.29-.54-.55-1.09-.81-1.64-.51-.05-1-.07-1.52-.07-.28,0-.55,0-.83,0-.47,0-.94.09-1.41.16l-.55.09-.38.09-.33.06-.47.11q-.74.19-1.47.45c-.39.13-.76.28-1.14.42s-.71.27-1.06.42-.75.35-1.12.54l-1,.5c-.69.37-1.37.77-2,1.18-1.57.93-2.46,1.53-4,2.57h0c.45,1.17.68,1.77,1.21,2.92.44,1,.88,1.91,1.38,2.85s1.06,1.94,1.57,2.75,1.3,2,1.78,2.62c.63.87,1.31,1.69,2,2.49s1.43,1.57,2.21,2.31a33.34,33.34,0,0,0,4.93,3.85,24.15,24.15,0,0,0,2.9,1.62,25,25,0,0,0,3,1.24,22.23,22.23,0,0,0,6,1.21,21.06,21.06,0,0,0,3.37-.11,15.87,15.87,0,0,0,3.11-.76,12.49,12.49,0,0,0,5-3.37,12,12,0,0,0,1.65-2.41,13.33,13.33,0,0,0,1.06-2.84,13.77,13.77,0,0,0,.35-3.2A16,16,0,0,0,325.74,148.08Zm-16.84-8.9c0,.06-.07.12-.1.19l0-.07a.56.56,0,0,0,.05-.08l0,0v0h0Z"/><path class="Dashed-gray-line" d="M309.42,136.87h-.09"/><path class="Dashed-gray-line" d="M309.28,136.87H308.2"/><path class="Dashed-gray-line" d="M310,138.2l-.22-.08"/><path class="Dashed-gray-line" d="M309.32,137.88l.77.3"/><path class="Dashed-gray-line" d="M309.63,138.64l2.05,1.27"/><path class="Dashed-gray-line" d="M311.39,139.85l-2-1"/><path class="Dashed-gray-line" d="M311,140.59l-2-1.4"/><path class="Dashed-gray-line" d="M309.48,139.8l.42.48"/><path class="Dashed-gray-line" d="M308.93,139.16l.5.58"/><path class="Dashed-gray-line" d="M312.28,143c-.62-.66-1.25-1.31-1.87-1.95"/><path class="Dashed-gray-line" d="M310.37,141l-.71-.73"/><path class="Dashed-gray-line" d="M309.4,140.67c.77,1.1,1.53,2.19,2.32,3.28"/><path class="Dashed-gray-line" d="M310.37,142.25c-.57-.73-1.14-1.46-1.72-2.18"/><path class="Dashed-gray-line" d="M308.49,140.15c.64,1.36,1.27,2.72,1.92,4.07"/><path class="Dashed-gray-line" d="M309.46,143.78c.32,1.1.64,2.2,1,3.3"/><path class="Dashed-gray-line" d="M310.36,147c-.45-1.15-.91-2.3-1.37-3.44"/><path class="Dashed-gray-line" d="M308.57,144.77c-.15-.72-.31-1.44-.47-2.16"/><path class="Dashed-gray-line" d="M308.1,142.61l-.54-2.33"/><path class="Dashed-gray-line" d="M307.43,140.31c-.06.86-.11,1.73-.16,2.6"/><path class="Dashed-gray-line" d="M307.27,142.91c-.06,1-.11,2-.15,3"/><path class="Dashed-gray-line" d="M307.06,142.54c0-.58,0-1.16,0-1.75"/><path class="Dashed-gray-line" d="M306.83,141c-.33,1.3-.65,2.6-.95,3.9"/><path class="Dashed-gray-line" d="M305.74,145.2c.23-1.61.43-3.23.62-4.85"/><path class="Dashed-gray-line" d="M304.65,143.88c.31-.86.59-1.72.88-2.59"/><path class="Dashed-gray-line" d="M306,140.77c-.44,1-.87,2.06-1.28,3.11"/><path class="Dashed-gray-line" d="M305.54,141.25c.17-.51.34-1,.5-1.52"/><path class="Dashed-gray-line" d="M284.58,140.36c-.5-1.3-.73-1.92-1.17-3.24-.35-1.09-.7-2.19-1-3.29s-.61-2.22-.91-3.33c-.4-1.51-.49-1.81-.82-3.34"/><path class="Dashed-gray-line" d="M298.64,124.62c.22.78.44,1.56.68,2.34s.49,1.55.75,2.32c.36,1.05.44,1.25.84,2.29a24.24,24.24,0,0,0,.95,2.24"/><path class="Dashed-gray-line" d="M311.07,141.63l1.23,1.4"/><path class="Dashed-gray-line" d="M311.71,144l-1.34-1.71"/><path class="Dashed-gray-line" d="M310.72,144.88c-.49-.93-1-1.86-1.48-2.78"/><path class="Dashed-gray-line" d="M309.21,142.05c-.29-.54-.58-1.08-.88-1.62"/><path class="Dashed-gray-line" d="M308.43,140.15c.21.75.42,1.5.64,2.25"/><path class="Dashed-gray-line" d="M308.51,142.43c-.28-.69-.56-1.37-.85-2.05"/><path class="Dashed-gray-line" d="M307.84,140.29c.23,1.49.48,3,.75,4.46"/><path class="Dashed-gray-line" d="M307.1,145.9c0-1.1,0-2.2,0-3.3"/><path class="Solid-gray-line" d="M198,119.6q-1,.91-2,1.89c-.47.48-.93,1-1.37,1.48s-1,1.27-1.51,1.93-.86,1.21-1.24,1.85-.64,1-.93,1.58c-.38.73-.71,1.48-1,2.24a28.83,28.83,0,0,0-1.31,4c-.21.85-.39,1.7-.52,2.56-.05.35-.09.69-.14,1s-.07.62-.1.93a24.12,24.12,0,0,0-.06,2.55c0,.71,0,1.42.11,2.12a25.42,25.42,0,0,0,.84,4.41c.18.61.39,1.22.62,1.81s.58,1.38.91,2c.21.41.42.83.65,1.23s.35.6.54.89l.47.73c.17.26.35.53.53.78.48.65,1.19,1.48,1.73,2.08s.82.87,1.35,1.36a23.61,23.61,0,0,0,3.63,2.81c.51.32,1,.64,1.56.92.35.19.7.36,1.06.53l1.33.59c.34.15.69.28,1,.41l.8.27.85.28,1.15.31,1.41.31,1.09.2c.66.11,1.31.18,2,.24a30.59,30.59,0,0,0,4.69.08c.69,0,1.29-.09,2-.18.88-.1,1.75-.22,2.62-.4l.91-.19.8-.19c.79-.18,1.57-.41,2.35-.65s1.41-.45,2.11-.72,1.13-.43,1.68-.66c.77-.32,1.82-.8,2.56-1.16.53-.26,1.05-.54,1.58-.81,1.65-.87,2.81-1.59,4.38-2.59.4-.25.8-.5,1.19-.77.74-.49,1.46-1,2.19-1.5l1.4-1c.6-.43,1.19-.87,1.78-1.31,3-2.25,4.91-3.72,7.88-6l3.47-2.67,1.83-1.41,1.81-1.41c1.11-.85,2.21-1.71,3.31-2.58s2.48-2,3.73-2.93c1-.77,2.52-1.94,3.53-2.69s2.55-1.85,3.63-2.59c.62-.43,1.25-.83,1.89-1.23s1.27-.79,1.92-1.17a42.09,42.09,0,0,1,4-2"/><line class="Solid-gray-line" x1="280.06" y1="92.98" x2="296.38" y2="77.92"/><path class="Solid-gray-line" d="M296.38,77.92a1.23,1.23,0,0,0-.12.26c-.05.13-.09.26-.13.39-.12.39-.22.78-.31,1.18-.13.57-.23,1.14-.33,1.71-.13.74-.24,1.48-.34,2.22-.12.9-.22,1.8-.31,2.71s-.19,2.11-.26,3.17-.1,1.89-.13,2.84-.05,2-.06,3.07q0,3,.18,5.9t.53,5.89c.26,2.11.51,3.76.89,5.85.44,2.48.64,3.32,1.19,5.78.11.46.21.91.31,1.37s.22,1,.35,1.46c.26,1,.53,1.93.8,2.9"/><line class="Solid-gray-line" x1="182.66" y1="106.42" x2="197.98" y2="119.6"/><path class="Solid-gray-line" d="M308.71,137.63l.16.07"/><path class="Solid-gray-line" d="M308.79,138.11l.22.14"/><path class="Solid-gray-line" d="M308.88,138.83l.13.12"/><path class="Solid-gray-line" d="M304.76,134.51h0"/><path class="Solid-gray-line" d="M307.44,136.2h0"/><path class="Solid-gray-line" d="M308.76,138.09s0,0,0,0v.06a.28.28,0,0,0,0,.09"/><path class="Solid-gray-line" d="M308.88,138.83h0"/><path class="Solid-gray-line" d="M308.17,140.15a0,0,0,0,1,0,0h0"/><path class="Solid-gray-line" d="M280.66,127.16c-.3-1.41-.62-2.82-.9-4.24s-.52-2.83-.75-4.26-.41-2.91-.55-4.29-.26-2.88-.33-4.32a64,64,0,0,1,.14-8.65c.13-1.44.31-2.87.56-4.29a24.39,24.39,0,0,1,.66-2.81c.05-.16.1-.32.16-.48a2.52,2.52,0,0,1,.12-.29,2.42,2.42,0,0,1,.29-.55"/><path class="Solid-gray-line" d="M298.64,124.62c1,.15,2.05.36,3.06.6s2,.55,3,.9,2,.74,3,1.18a30.59,30.59,0,0,1,2.85,1.46q1.41.8,2.73,1.71c.88.61,1.73,1.25,2.55,1.94s1.58,1.38,2.33,2.12a29.52,29.52,0,0,1,5.66,7.85,26.45,26.45,0,0,1,1.18,2.86c.16.47.3.94.43,1.42s.22.94.32,1.42a16,16,0,0,1,.33,3.45,12.77,12.77,0,0,1-1.4,6,12.07,12.07,0,0,1-6.65,5.78,15.87,15.87,0,0,1-3.11.76,21.06,21.06,0,0,1-3.37.11,22.23,22.23,0,0,1-6-1.21,25,25,0,0,1-3-1.24,24.15,24.15,0,0,1-2.9-1.62,33.34,33.34,0,0,1-4.93-3.85c-.78-.74-1.5-1.51-2.21-2.31s-1.39-1.62-2-2.49c-.48-.66-1.34-1.93-1.78-2.62s-1.12-1.91-1.57-2.75-.94-1.89-1.38-2.85c-.53-1.15-.76-1.75-1.21-2.92"/><path class="Solid-gray-line" d="M280.67,127.16a32.73,32.73,0,0,1,8.8-2.58,32,32,0,0,1,9.17,0"/><path class="Solid-gray-line" d="M306.08,139.72l.13.08.06,0,0,0h0"/><path class="Solid-gray-line" d="M301.86,133.81c.26.55.52,1.1.81,1.64.08.15.17.29.25.45l.19.35c.15.26.33.51.5.76l.51.76c.18.25.39.47.59.7a6.59,6.59,0,0,0,1.35,1.23"/><path class="Solid-gray-line" d="M284.58,140.35c-.83.59-1.66,1.18-2.49,1.79L279.64,144c-1.57,1.19-3.12,2.4-4.68,3.59l-4.48,3.37c-1.49,1.13-3,2.23-4.48,3.35s-3,2.23-4.45,3.33c-1,.77-3.68,2.7-4.74,3.46-1.53,1.1-3.19,2.26-4.75,3.3s-3.5,2.27-5.07,3.21-3.3,1.91-5,2.79-3.45,1.72-5.23,2.47-3.6,1.47-5.45,2.09-3.74,1.16-5.64,1.62-3.78.82-5.7,1.09a55.89,55.89,0,0,1-5.78.52,53.42,53.42,0,0,1-5.8-.08,52.56,52.56,0,0,1-5.75-.75,42.38,42.38,0,0,1-5.65-1.4,43.74,43.74,0,0,1-5.41-2.08,42.42,42.42,0,0,1-5.09-2.77,40,40,0,0,1-4.65-3.45,42.25,42.25,0,0,1-4.09-4.05,37,37,0,0,1-3.48-4.6,38.81,38.81,0,0,1-4.82-10.58A40.14,40.14,0,0,1,168.05,137a41.82,41.82,0,0,1,.53-5.8,40.34,40.34,0,0,1,1.37-5.72,45.47,45.47,0,0,1,2.12-5.4,41.89,41.89,0,0,1,6.47-9.63,47.62,47.62,0,0,1,4.12-4"/><path class="Solid-gray-line" d="M301.86,133.81c-.5-.05-1-.07-1.52-.07-.28,0-.55,0-.83,0-.47,0-.94.09-1.41.16l-.55.09-.38.09-.33.06-.47.11q-.74.19-1.47.45c-.39.13-.76.28-1.14.42s-.71.27-1.06.42-.75.35-1.12.54l-1,.5c-.69.37-1.37.77-2,1.18-1.57.93-2.46,1.53-4,2.57"/><path class="Solid-gray-line" d="M304.76,134.51a7,7,0,0,0-1.42-.43l-.74-.16a6,6,0,0,0-.74-.11"/><path class="Solid-gray-line" d="M307.4,136.16a5.68,5.68,0,0,0-.6-.5l-.32-.23-.26-.18-.07,0-.34-.19-.34-.19-.35-.18a1.85,1.85,0,0,0-.29-.13l-.06,0h0"/><path class="Solid-gray-line" d="M308.67,139.67l0,0"/><path class="Solid-gray-line" d="M308.4,140l.11-.1"/><path class="Solid-gray-line" d="M306.07,139.73h0s0,0,0,0"/><path class="Solid-gray-line" d="M307.31,136s0,0,0,0h0v0l0,0,.06.07"/><path class="Solid-gray-line" d="M307.87,136.64l-.28-.31-.14-.15-.07-.08-.05,0,0,0"/><path class="Solid-gray-line" d="M308.48,137.55c-.09-.16-.18-.32-.28-.48l-.15-.23-.08-.11-.07-.08,0,0"/><path class="Solid-gray-line" d="M308.87,138.61h0v0a.42.42,0,0,0,0-.1s0-.09,0-.14-.07-.17-.1-.26-.06-.18-.1-.27l0-.13,0-.11v0h0"/><path class="Solid-gray-line" d="M308.85,138.84l0-.38,0-.18s0-.07,0-.1,0,0,0-.06,0,0,0,0"/><path class="Solid-gray-line" d="M308.92,139.14h0v0l0,0a.56.56,0,0,1-.05.08"/><path class="Solid-gray-line" d="M308.8,139.37a.77.77,0,0,0,.07-.26c0-.05,0-.09,0-.14a.71.71,0,0,0,0-.14"/><path class="Solid-gray-line" d="M308.53,139.87l.37-.69"/><path class="Solid-gray-line" d="M308.43,140h0l0,0-.06,0-.11.06"/><path class="Solid-gray-line" d="M308,140.22l-.17.07a.2.2,0,0,0-.08,0l0,0h0"/><path class="Solid-gray-line" d="M307.75,140.34l.42-.2"/><path class="Solid-gray-line" d="M307.83,140.24l.56-.08"/><path class="Solid-gray-line" d="M307.4,140.26h.43"/><path class="Solid-gray-line" d="M307,140.22l-.2-.11"/><path class="Solid-gray-line" d="M306.4,140h0l.09,0,.13,0,.25.08.5.16"/><path class="Solid-gray-line" d="M306.34,139.87l.34.2.17.09.09.05.07,0h0"/><polyline class="cls-1" points="280.67 127.16 280.62 126.96 280.52 126.55 280.18 124.95 280.12 124.68 279.95 123.89 279.73 122.77 279.7 122.61 279.66 122.39 279.49 121.52 279.37 120.89 279.3 120.41 279.19 119.72 279.06 119.02 278.87 117.7 278.8 117.19 278.76 116.91 278.56 115.39 278.42 113.89 278.38 113.63 278.3 112.61 278.23 111.92 278.16 110.62 278.14 110.24 278.12 109.93 278.07 108.63 278.06 108.16 278.05 107.06 278.05 107.04 278.05 106.99 278.05 105.96 278.05 105.57 278.07 104.88 278.09 104.14 278.11 103.81 278.17 102.77 278.17 102.73 278.26 101.48 278.32 100.81 278.38 100.27 278.43 99.88 278.51 99.14 278.64 98.28 278.66 98.13 278.67 98.09 278.79 97.34 278.82 97.14 278.93 96.61 278.99 96.28 279.08 95.86 279.16 95.5 279.21 95.29 279.33 94.82 279.36 94.72 279.51 94.24 279.56 94.08 279.67 93.75 279.8 93.45 279.83 93.37 279.93 93.18 279.98 93.09 280.06 92.98"/><polyline class="cls-5" points="284.58 140.36 284.35 139.82 284.06 139 283.71 138 283.64 137.76 283.31 136.8 283.08 136.15 282.78 135.09 282.51 134.27 282.3 133.52 282.02 132.51 282 132.43 281.98 132.37 281.86 131.94 281.47 130.46 281.42 130.25 281.36 129.98 281.14 129.16 280.96 128.53 280.87 128.07 280.75 127.48 280.67 127.16"/><polyline class="Estilo-gráfico-4" points="280.67 127.16 281.38 126.84 282.54 126.4 283.13 126.16 284.25 125.79 284.89 125.58 286.15 125.24 286.68 125.1 287.85 124.87 288.49 124.73 288.74 124.7 290.29 124.46 291.18 124.39 292.12 124.31 292.68 124.29 293.98 124.26 294.2 124.26 295.24 124.3 295.83 124.31 297.25 124.44 297.66 124.47 298.22 124.56 299.49 124.74 300.35 124.92 301.31 125.12 302.62 125.46 303.13 125.6 304.75 126.12 304.93 126.18 305.95 126.56 306.6 126.82 306.69 126.85 308.1 127.48 308.39 127.61 308.74 127.79 310.05 128.47 311.04 129.04 311.66 129.41 312.46 129.93 313.22 130.42 314.11 131.07 314.72 131.51 315.18 131.89 316.15 132.67 317.26 133.67 317.51 133.89 318.69 135.07 318.79 135.17 318.86 135.25 319.7 136.17 319.97 136.49 320.94 137.7 321.05 137.84 321.16 138 322.02 139.22 322.68 140.28 322.9 140.64 323.12 141.06 323.67 142.07 324.07 142.94 324.34 143.51 324.6 144.17 324.9 144.95 325.15 145.73 325.35 146.39 325.49 146.95 325.7 147.81 325.78 148.27 325.93 149.21 326.03 150.28 326.06 150.58 326.08 151.73 326.08 151.92 326.07 152.08 325.99 153.21 325.84 154.22 325.8 154.46 325.5 155.55 325.48 155.64 325.44 155.75 325.05 156.77 324.96 156.96 324.53 157.83 324.1 158.54 323.92 158.83 323.68 159.15 323.22 159.75 322.77 160.24 322.43 160.6 322 160.98 321.57 161.37 321.17 161.66 320.63 162.05 320.28 162.26 319.62 162.64 319.33 162.78 318.55 163.15 317.56 163.51 317.43 163.56 317.3 163.6 316.25 163.88 316.23 163.89 315.99 163.93 315.01 164.1 313.93 164.21 313.72 164.23 312.74 164.25 312.4 164.26 311.53 164.22 311.05 164.19 310.31 164.11 309.69 164.04 309.09 163.93 308.31 163.79 307.87 163.68 306.92 163.44 306.65 163.36 305.53 163.01 304.81 162.74 304.23 162.52 304.14 162.48 303.01 161.98 302.73 161.86 301.82 161.4 301.35 161.15 300.66 160.75 299.99 160.36 299.53 160.06 298.66 159.49 298.44 159.33 297.46 158.61 297.36 158.54 296.32 157.7 296.06 157.49 295.62 157.1 294.82 156.38 293.96 155.53 293.62 155.19 292.81 154.29 292.47 153.94 291.7 153.01 291.35 152.6 290.66 151.68 290.3 151.21 290.13 150.96 289.71 150.34 289.41 149.91 289.29 149.75 288.72 148.84 288.33 148.23 288.07 147.77 287.52 146.78 287.45 146.65 287.38 146.52 286.59 145.02 285.91 143.54 285.84 143.41 285.8 143.33 285.35 142.3 285.05 141.6 284.9 141.2 284.66 140.56 284.58 140.36"/><polyline class="cls-1" points="197.98 119.6 197.7 119.88 197.29 120.23 196.79 120.7 196.01 121.45 195.45 122.07 194.81 122.75 194.07 123.65 193.68 124.13 192.86 125.25 192.63 125.56 192.47 125.82 191.67 127.06 190.93 128.38 190.8 128.61 190.13 130.05 190.06 130.21 189.98 130.4 189.42 131.84 189.02 133.06 188.87 133.5 188.59 134.6 188.44 135.18 188.31 135.87 188.11 136.89 188 137.75 187.89 138.6 187.84 139.34 187.78 140.32 187.78 141.47 187.78 142.03 187.86 143.32 187.89 143.73 187.94 144.07 188.11 145.41 188.42 146.97 188.44 147.07 188.47 147.16 188.76 148.24 188.89 148.69 188.91 148.74 189.47 150.27 190.03 151.53 190.15 151.8 190.32 152.12 190.93 153.28 191.51 154.22 191.8 154.69 192.36 155.48 192.77 156.04 193.29 156.69 193.82 157.32 194.5 158.06 194.95 158.53 195.81 159.33 196.16 159.66 196.48 159.92 197.45 160.71 197.66 160.86 198.8 161.67 199.7 162.23 200.22 162.54 201.53 163.22 201.73 163.32 202.92 163.85 203.28 164.01 203.77 164.19 204.88 164.59 205.6 164.81 206.5 165.09 207.49 165.32 208.17 165.48 209.43 165.7 209.85 165.78 211.41 165.96 211.55 165.98 212.41 166.03 213.29 166.08 214.69 166.08 215.06 166.08 215.6 166.06 216.82 165.99 217.76 165.89 218.58 165.81 219.94 165.59 220.32 165.53 220.59 165.48 221.76 165.23 222 165.18 222.06 165.17 223.44 164.82 223.82 164.72 224.49 164.52 225.55 164.19 226.18 163.96 227.25 163.58 228.3 163.15 228.79 162.95 228.94 162.89 229.24 162.75 230.63 162.13 231.31 161.79 232.27 161.31 233.08 160.86 233.9 160.42 234.82 159.88 235.52 159.47 236.78 158.68 237.11 158.48 237.44 158.26 238.71 157.43 239.81 156.66 240.11 156.46 240.28 156.34 241.11 155.75 241.87 155.21 242.08 155.05 242.4 154.81 243.04 154.35 243.46 154.04 243.98 153.65 244.7 153.1 245.06 152.84 246.2 151.98 246.68 151.61 246.82 151.51 247.65 150.87 248.34 150.35 248.53 150.2 248.75 150.02 250.01 149.06 250.69 148.53 251.23 148.12 251.72 147.74 252.13 147.43 252.56 147.1 253.46 146.4 254.36 145.71 255.22 145.04 256.17 144.31 257.02 143.64 257.98 142.92 258.87 142.22 259.32 141.87 259.8 141.5 260.62 140.84 261.66 140.04 262.05 139.73 262.41 139.44 263.57 138.54 264.19 138.04 264.83 137.55 265.56 136.99 265.77 136.82 265.95 136.67 266.71 136.09 267.66 135.37 267.7 135.33 268.64 134.62 269.42 134.03 269.91 133.69 271.13 132.78 271.62 132.44 272.38 131.92 272.66 131.72 272.83 131.59 273.58 131.1 274.53 130.48 275.18 130.09 275.85 129.67 276.23 129.44 276.96 129.03 277.94 128.48 278.11 128.4 278.47 128.22 279.65 127.61 280.58 127.19 280.67 127.16"/><line class="cls-6" x1="194.49" y1="158.04" x2="190.01" y2="164.78"/><line class="cls-6" x1="197.98" y1="119.6" x2="194.65" y2="114.23"/><line class="cls-6" x1="280.06" y1="92.98" x2="274.08" y2="86.52"/><line class="cls-6" x1="279.31" y1="120.47" x2="272.53" y2="119.87"/><line class="cls-6" x1="295.13" y1="156.65" x2="289.52" y2="159.48"/><line class="cls-6" x1="324.66" y1="157.57" x2="316.98" y2="161.37"/><line class="cls-6" x1="305.71" y1="126.47" x2="301.7" y2="135.97"/><line class="cls-6" x1="266.06" y1="136.58" x2="269.56" y2="144.61"/><line class="cls-6" x1="233.66" y1="160.55" x2="236.55" y2="168.59"/><line class="cls-7" x1="194.49" y1="158.04" x2="188.2" y2="160.92"/><line class="cls-7" x1="197.98" y1="119.6" x2="191.74" y2="114.23"/><line class="cls-7" x1="280.06" y1="92.98" x2="286.52" y2="87.02"/><line class="cls-7" x1="279.31" y1="120.47" x2="285.82" y2="117.75"/><line class="cls-7" x1="295.13" y1="156.65" x2="299.22" y2="149.88"/><line class="cls-7" x1="324.66" y1="157.57" x2="318.13" y2="150.29"/><line class="cls-7" x1="305.71" y1="126.47" x2="305.28" y2="129.8"/><line class="cls-7" x1="266.06" y1="136.58" x2="271.87" y2="139.47"/><line class="cls-7" x1="233.66" y1="160.55" x2="237.74" y2="164.26"/><line class="cls-4" x1="194.49" y1="158.04" x2="201.05" y2="165.01"/><line class="cls-4" x1="197.98" y1="119.6" x2="190.48" y2="126.48"/><line class="cls-4" x1="280.06" y1="92.98" x2="280.86" y2="91.83"/><line class="cls-8" x1="279.31" y1="120.47" x2="277.87" y2="111.59"/><line class="cls-4" x1="295.13" y1="156.65" x2="288.41" y2="150.41"/><line class="cls-4" x1="324.66" y1="157.57" x2="321.67" y2="163.7"/><line class="cls-4" x1="305.71" y1="126.47" x2="315.84" y2="130.35"/><line class="cls-4" x1="266.06" y1="136.58" x2="273.78" y2="130.68"/><line class="cls-4" x1="233.66" y1="160.55" x2="242.19" y2="155.97"/><path class="Surface-underlying" d="M411.42,60.07l2.72-2.17a2.89,2.89,0,0,1,1.27-.55.19.19,0,0,0,.1,0c.11.51.23,1,.34,1.52q-.8.38-1.56.78c-1.05.53-1.8.92-2.8,1.52h0a7.45,7.45,0,0,1-.07-1.06"/><path class="Surface-underlying" d="M414.59,26.36v-.05h0l.2-.69h0a2.88,2.88,0,0,1,.13-.31l0-.07,0,0h0c0-.09.08-.18.13-.27l.12-.18,1.94-2.79c-.38-8.91-6.32-4.27-5.72,1.79,0,.28.08.56.11.85.4,4.2-2.38,9.16-1.21,13.63.15.55.5,1,.64,1.55v0a3.12,3.12,0,0,1,0,1c-.53,6.32.47,12.92.36,19.29h0l2.72-2.17a2.89,2.89,0,0,1,1.27-.55.19.19,0,0,0,.1,0,2.21,2.21,0,0,0-.05-.25l-.12-.55-.09-.43c0-.19-.09-.39-.13-.59-.31-1.52-.58-3-.83-4.57-.05-.35-.11-.69-.16-1-.1-.65-.18-1.29-.26-1.94s-.19-1.56-.26-2.34c0-.17,0-.34-.05-.51-.05-.49-.09-1-.13-1.47-.06-.85-.1-1.69-.14-2.54,0-.21,0-.42,0-.63,0-.67,0-1.35,0-2s0-1.37,0-2c0-.94.09-1.89.16-2.83,0-.31.05-.62.08-.93v-.12l.06-.5c0-.29.05-.58.08-.87h0c.09-.68.19-1.37.3-2.05v0c0-.12,0-.25.07-.38.11-.64.16-.88.32-1.52,0-.13.06-.27.1-.4s.07-.26.1-.39"/><g class="cls-9"><polygon class="cls-10" points="458.06 72.38 458.06 72.37 458.06 72.37 458.06 72.38"/><path class="cls-10" d="M415.65,57.94c.07.3.13.6.2.9v0l0,0c-.51.23-1,.47-1.52.72-1.05.53-1.8.92-2.8,1.52h0c3.36,22.09,22.57,51.83,49.28,41.05,10.57-4.26,12.68-17.83,8.92-27.87A40,40,0,0,0,454,55c-3-1.89-13.39-8.59-17-6.8l-1.25.63v0c-4.46,2-10.53.45-15.26,4.19v0a25.14,25.14,0,0,1-2,2l-.85.64h0c-.45.34-.85.75-1.3,1.09a2.66,2.66,0,0,1-.45.29l-.14.07a1.43,1.43,0,0,1-.27.09c.05.21.09.42.14.62m9,23.74h0Zm36.25,4.8h0L460.54,88l-.47.87a9.48,9.48,0,0,1-.7,1.29h0l-.75,1.2-.6.57a10.44,10.44,0,0,1-1.23,1.15h0l-1.1.88h-.18l-.12.09a12.57,12.57,0,0,1-2.16,1,9.63,9.63,0,0,1-1.76.52h0c-.36.08-.73.16-1.1.22s-.61.06-.91.09a17.52,17.52,0,0,1-2.29.06h0a21.81,21.81,0,0,1-4.52-.68h0c-.59-.15-1-.27-1.45-.42h-.21l-.92-.41-1.66-.62-.44-.28h0c-.35-.17-.7-.33-1-.52s-.68-.37-1-.57c-.79-.47-1.57-1-2.31-1.49s-1.32-1-1.95-1.51h0l-1.47-1.21.09,0c-.71-.66-1.4-1.34-2-2.06h0l-.75-.85a33.55,33.55,0,0,1-2.7-3.58h0l-.54-.81h0l-.55-.81,0,0c-.33-.55-.65-1.12-1-1.69-.22-.4-.44-.82-.65-1.23,0-.1-.09-.19-.14-.29l-.33-.69c-.27-.56-.52-1.11-.77-1.68-.42-.93-.78-1.89-1.15-2.85-.17-.45-.34-.9-.5-1.35-.35-1-.67-2-1-2.94-.15-.47-.29-.94-.43-1.42s-.36-1.23-.53-1.86l-.22-.82c-.17-.62-.33-1.24-.5-1.86s-.29-1.13-.42-1.7l-.18-.78,1-.4h0c.93-.37,1.53-.6,2.48-.91a26.6,26.6,0,0,1,2.91-.79h0c.43-.1.85-.19,1.28-.27s.8-.14,1.21-.2a26.72,26.72,0,0,1,3.35-.29c.76,0,1.52,0,2.28,0a33.57,33.57,0,0,1,10.79,2.28c.36.13.71.28,1.07.42s.79.34,1.18.53c.67.32,1.32.67,2,1h0l1.28.71c-.13-.09,1,.63,1,.65l.11.07c.92.6,1.8,1.25,2.66,1.93.6.48,1.18,1,1.75,1.49a29.31,29.31,0,0,1,2.71,2.75,22.27,22.27,0,0,1,1.43,1.78c.55.76,1.08,1.52,1.56,2.33l.22.38h0c.33.59.66,1.17,1,1.75h0l0,.09L459.9,76l-.74-1.53a21.48,21.48,0,0,1,1.11,2.82l0,.08a16,16,0,0,1,.54,2,14.63,14.63,0,0,1,.36,2.45h0l.12,1.66-.1.69a13.6,13.6,0,0,1-.32,2.28Z"/><polygon class="cls-11" points="458.06 72.38 458.06 72.37 458.06 72.37 458.06 72.38"/><path class="Surface-underlying" d="M415.65,57.94c.07.3.13.6.2.9v0l0,0c-.51.23-1,.47-1.52.72-1.05.53-1.8.92-2.8,1.52h0c3.36,22.09,22.57,51.83,49.28,41.05,10.57-4.26,12.68-17.83,8.92-27.87A40,40,0,0,0,454,55c-3-1.89-13.39-8.59-17-6.8l-1.25.63v0c-4.46,2-10.53.45-15.26,4.19v0a25.14,25.14,0,0,1-2,2l-.85.64h0c-.45.34-.85.75-1.3,1.09a2.66,2.66,0,0,1-.45.29l-.14.07a1.43,1.43,0,0,1-.27.09c.05.21.09.42.14.62m9,23.74h0Zm36.25,4.8h0L460.54,88l-.47.87a9.48,9.48,0,0,1-.7,1.29h0l-.75,1.2-.6.57a10.44,10.44,0,0,1-1.23,1.15h0l-1.1.88h-.18l-.12.09a12.57,12.57,0,0,1-2.16,1,9.63,9.63,0,0,1-1.76.52h0c-.36.08-.73.16-1.1.22s-.61.06-.91.09a17.52,17.52,0,0,1-2.29.06h0a21.81,21.81,0,0,1-4.52-.68h0c-.59-.15-1-.27-1.45-.42h-.21l-.92-.41-1.66-.62-.44-.28h0c-.35-.17-.7-.33-1-.52s-.68-.37-1-.57c-.79-.47-1.57-1-2.31-1.49s-1.32-1-1.95-1.51h0l-1.47-1.21.09,0c-.71-.66-1.4-1.34-2-2.06h0l-.75-.85a33.55,33.55,0,0,1-2.7-3.58h0l-.54-.81h0l-.55-.81,0,0c-.33-.55-.65-1.12-1-1.69-.22-.4-.44-.82-.65-1.23,0-.1-.09-.19-.14-.29l-.33-.69c-.27-.56-.52-1.11-.77-1.68-.42-.93-.78-1.89-1.15-2.85-.17-.45-.34-.9-.5-1.35-.35-1-.67-2-1-2.94-.15-.47-.29-.94-.43-1.42s-.36-1.23-.53-1.86l-.22-.82c-.17-.62-.33-1.24-.5-1.86s-.29-1.13-.42-1.7l-.18-.78,1-.4h0c.93-.37,1.53-.6,2.48-.91a26.6,26.6,0,0,1,2.91-.79h0c.43-.1.85-.19,1.28-.27s.8-.14,1.21-.2a26.72,26.72,0,0,1,3.35-.29c.76,0,1.52,0,2.28,0a33.57,33.57,0,0,1,10.79,2.28c.36.13.71.28,1.07.42s.79.34,1.18.53c.67.32,1.32.67,2,1h0l1.28.71c-.13-.09,1,.63,1,.65l.11.07c.92.6,1.8,1.25,2.66,1.93.6.48,1.18,1,1.75,1.49a29.31,29.31,0,0,1,2.71,2.75,22.27,22.27,0,0,1,1.43,1.78c.55.76,1.08,1.52,1.56,2.33l.22.38h0c.33.59.66,1.17,1,1.75h0l0,.09L459.9,76l-.74-1.53a21.48,21.48,0,0,1,1.11,2.82l0,.08a16,16,0,0,1,.54,2,14.63,14.63,0,0,1,.36,2.45h0l.12,1.66-.1.69a13.6,13.6,0,0,1-.32,2.28Z"/></g><path class="Surface-underlying" d="M411.42,60.07l-10.85,8.69-.25.2c1-.75,2.09-1.49,3.14-2.23l2-1.5.82-.64c.86-.61,1.71-1.22,2.59-1.79l.95-.61.48-.29,1.24-.76h0a7.45,7.45,0,0,1-.07-1.06l-11,8.88-.07.06"/><path class="Surface-visible" d="M377.31,86.75l-1.51,1.09h0c-.94.66-1.88,1.31-2.85,1.94l-.46.3-1.85,1.16-.57.34c-1,.57-1.6.9-2.59,1.43s-1.5.76-2.42,1.19-1.52.66-2.54,1h0c-1.06.41-1.56.59-2.65.92s-1.64.48-2.71.72-1.52.34-2.55.49a32.47,32.47,0,0,1-3.26.35c-.88,0-1.75.06-2.63,0a30.33,30.33,0,0,1-3.16-.24c-.95-.12-1.88-.31-2.81-.52a19.72,19.72,0,0,1-2.63-.74,21.16,21.16,0,0,1-2.33-.9,22.89,22.89,0,0,1-3-1.55c-.66-.41-1.31-.84-1.93-1.31a28,28,0,0,1-2.42-2.06,24.63,24.63,0,0,1-1.83-2q-.39-.45-.75-.93c-.39-.51-.56-.79-.91-1.33a19.53,19.53,0,0,1-1.22-2.08,23.89,23.89,0,0,1-1.29-2.93,21.77,21.77,0,0,1-.72-2.42,20.44,20.44,0,0,1-.4-2.07c-.05-.37-.1-.74-.14-1.12A19.8,19.8,0,0,1,323,73a19.8,19.8,0,0,1,.18-3.27c.1-.84.19-1.43.36-2.26a28.31,28.31,0,0,1,1-3.71l0-.07c.23-.64.49-1.27.76-1.9a20.32,20.32,0,0,1,1.32-2.64l.32-.52a22.34,22.34,0,0,1,1.35-2,31.16,31.16,0,0,1,2.84-3.45L314.29,68.69c-6.45,6.88,3.87,24.08,8.89,28.87,7.38,7,18.54,10.26,28.72,9.13,10-1.12,19.45-6.15,27-12.88,5.46-4.87,8.85-14.26,14.66-18.3.43-.29.9-.48,1.32-.77,1.44-1,2.42-3.13,3.88-4.23.5-.53,1-1,1.52-1.53l-4.23,3.4-1.85,1.44-.44.34h0l-2,1.56-.5.39h0l-.26.2h0l-1.52,1.18-.18.14L387.49,79l-1.86,1.44-2.46,1.89-1.87,1.43-2.09,1.57-.1.07-1.49,1.11-.34.25"/><path class="Solid-gray-line" d="M414.59,26.4v0h0l.2-.69h0c0-.1.08-.2.13-.3l0-.07,0-.06h0c0-.09.08-.17.13-.26l.12-.18,1.94-2.8c-.38-8.9-6.32-4.26-5.72,1.79,0,.29.08.57.11.86.4,4.2-2.38,9.16-1.21,13.63.15.55.5,1,.64,1.55h0a3.19,3.19,0,0,1,0,1c-.53,6.32.47,12.92.36,19.29h0L414.14,58a2.89,2.89,0,0,1,1.27-.55l.1,0a2.21,2.21,0,0,0-.05-.25l-.12-.55-.09-.43c0-.2-.09-.39-.13-.59-.31-1.52-.58-3-.83-4.57-.05-.35-.11-.7-.16-1-.1-.65-.18-1.3-.26-1.94s-.19-1.56-.26-2.34c0-.17,0-.34-.05-.51-.05-.49-.09-1-.13-1.47-.06-.85-.1-1.7-.14-2.55,0-.2,0-.41,0-.62,0-.67,0-1.35,0-2s0-1.37,0-2.05c0-.95.09-1.89.16-2.83,0-.31.05-.62.08-.93v-.13l.06-.49c0-.29.05-.58.08-.87h0c.09-.69.19-1.37.3-2.05v0c0-.13,0-.25.07-.38.11-.64.16-.88.32-1.52,0-.13.06-.27.1-.41s.07-.26.1-.39"/><polygon class="cls-11" points="458.06 72.42 458.06 72.42 458.06 72.42 458.06 72.42"/><path class="Solid-gray-line" d="M469.68,74.37A40.11,40.11,0,0,0,454,55.08c-3-1.89-13.39-8.59-17-6.79l-1.25.63h0c-4.46,2-10.53.46-15.26,4.2h0a23.61,23.61,0,0,1-2,2l-.85.65v0c-.45.35-.85.75-1.3,1.1a2.66,2.66,0,0,1-.45.29l-.14.07-.27.09c.11.51.23,1,.34,1.52v0l0,0c-.51.23-1,.47-1.52.72-1.05.52-1.8.92-2.8,1.52h0c3.36,22.09,22.57,51.82,49.28,41.05C471.33,98,473.44,84.4,469.68,74.37Zm-45,7.36h0Zm36.25,4.8h0L460.54,88l-.47.87a9.48,9.48,0,0,1-.7,1.29h0l-.75,1.2L458,92a10.44,10.44,0,0,1-1.23,1.15h0l-1.1.88h-.18l-.12.09a13.36,13.36,0,0,1-2.16,1,9.61,9.61,0,0,1-1.76.51h0c-.36.08-.73.16-1.1.21s-.61.07-.91.1a17.52,17.52,0,0,1-2.29.06h0a21.67,21.67,0,0,1-2.4-.24c-.72-.11-1.42-.27-2.12-.44h0c-.59-.15-1-.27-1.45-.42h-.21L440,94.5l-1.66-.62-.44-.29h0l-1-.52c-.34-.18-.68-.37-1-.57-.79-.47-1.57-.95-2.31-1.49s-1.32-1-1.95-1.51h0l-1.47-1.22h.09a28.46,28.46,0,0,1-2-2.07h0l-.75-.85a32.69,32.69,0,0,1-2.7-3.59h0l-.54-.81h0c-.19-.27-.37-.54-.55-.82l0,0c-.33-.55-.65-1.12-1-1.69-.22-.41-.44-.82-.65-1.23,0-.1-.09-.19-.14-.29l-.33-.69c-.27-.56-.52-1.12-.77-1.68-.42-.94-.78-1.89-1.15-2.85-.17-.45-.34-.9-.5-1.36-.35-1-.67-2-1-2.94-.15-.47-.29-.94-.43-1.41s-.36-1.24-.53-1.86c-.07-.27-.15-.55-.22-.83-.17-.61-.33-1.23-.5-1.85s-.29-1.13-.42-1.7l-.18-.78,1-.4h0c.93-.37,1.53-.6,2.48-.92a26.56,26.56,0,0,1,2.91-.78h0l1.28-.26c.4-.08.8-.14,1.21-.2a26.72,26.72,0,0,1,3.35-.29c.76,0,1.52,0,2.28,0a33.56,33.56,0,0,1,10.79,2.27l1.07.43c.39.17.79.34,1.18.53.67.32,1.32.67,2,1h0l1.28.71c-.13-.09,1,.63,1,.64l.11.08c.92.6,1.8,1.25,2.66,1.93.6.48,1.18,1,1.75,1.49a29.31,29.31,0,0,1,2.71,2.75,20.62,20.62,0,0,1,1.43,1.78c.55.76,1.08,1.52,1.56,2.33l.22.38h0l1,1.75h0l0,.09c.28.59.57,1.17.85,1.76l-.74-1.53a22.05,22.05,0,0,1,1.11,2.82l0,.09a16,16,0,0,1,.54,2,14.33,14.33,0,0,1,.36,2.45h0l.12,1.65-.1.69a13.72,13.72,0,0,1-.32,2.29Z"/><polygon class="Solid-gray-line" points="458.06 72.42 458.06 72.42 458.06 72.42 458.06 72.42"/><path class="Solid-gray-line" d="M469.68,74.37A40.11,40.11,0,0,0,454,55.08c-3-1.89-13.39-8.59-17-6.79l-1.25.63h0c-4.46,2-10.53.46-15.26,4.2h0a23.61,23.61,0,0,1-2,2l-.85.65v0c-.45.35-.85.75-1.3,1.1a2.66,2.66,0,0,1-.45.29l-.14.07-.27.09c.11.51.23,1,.34,1.52v0l0,0c-.51.23-1,.47-1.52.72-1.05.52-1.8.92-2.8,1.52h0c3.36,22.09,22.57,51.82,49.28,41.05C471.33,98,473.44,84.4,469.68,74.37Zm-45,7.36h0Zm36.25,4.8h0L460.54,88l-.47.87a9.48,9.48,0,0,1-.7,1.29h0l-.75,1.2L458,92a10.44,10.44,0,0,1-1.23,1.15h0l-1.1.88h-.18l-.12.09a13.36,13.36,0,0,1-2.16,1,9.61,9.61,0,0,1-1.76.51h0c-.36.08-.73.16-1.1.21s-.61.07-.91.1a17.52,17.52,0,0,1-2.29.06h0a21.67,21.67,0,0,1-2.4-.24c-.72-.11-1.42-.27-2.12-.44h0c-.59-.15-1-.27-1.45-.42h-.21L440,94.5l-1.66-.62-.44-.29h0l-1-.52c-.34-.18-.68-.37-1-.57-.79-.47-1.57-.95-2.31-1.49s-1.32-1-1.95-1.51h0l-1.47-1.22h.09a28.46,28.46,0,0,1-2-2.07h0l-.75-.85a32.69,32.69,0,0,1-2.7-3.59h0l-.54-.81h0c-.19-.27-.37-.54-.55-.82l0,0c-.33-.55-.65-1.12-1-1.69-.22-.41-.44-.82-.65-1.23,0-.1-.09-.19-.14-.29l-.33-.69c-.27-.56-.52-1.12-.77-1.68-.42-.94-.78-1.89-1.15-2.85-.17-.45-.34-.9-.5-1.36-.35-1-.67-2-1-2.94-.15-.47-.29-.94-.43-1.41s-.36-1.24-.53-1.86c-.07-.27-.15-.55-.22-.83-.17-.61-.33-1.23-.5-1.85s-.29-1.13-.42-1.7l-.18-.78,1-.4h0c.93-.37,1.53-.6,2.48-.92a26.56,26.56,0,0,1,2.91-.78h0l1.28-.26c.4-.08.8-.14,1.21-.2a26.72,26.72,0,0,1,3.35-.29c.76,0,1.52,0,2.28,0a33.56,33.56,0,0,1,10.79,2.27l1.07.43c.39.17.79.34,1.18.53.67.32,1.32.67,2,1h0l1.28.71c-.13-.09,1,.63,1,.64l.11.08c.92.6,1.8,1.25,2.66,1.93.6.48,1.18,1,1.75,1.49a29.31,29.31,0,0,1,2.71,2.75,20.62,20.62,0,0,1,1.43,1.78c.55.76,1.08,1.52,1.56,2.33l.22.38h0l1,1.75h0l0,.09c.28.59.57,1.17.85,1.76l-.74-1.53a22.05,22.05,0,0,1,1.11,2.82l0,.09a16,16,0,0,1,.54,2,14.33,14.33,0,0,1,.36,2.45h0l.12,1.65-.1.69a13.72,13.72,0,0,1-.32,2.29Z"/><path class="Solid-gray-line" d="M411.42,60.12,400.57,68.8l-.25.21,3.14-2.24,2-1.49.82-.64c.86-.61,1.71-1.22,2.59-1.8l.95-.6.48-.3,1.24-.75h0a7.55,7.55,0,0,1-.07-1.06l-11,8.88-.07,0"/><path class="Solid-gray-line" d="M377.31,86.8l-1.51,1.09h0c-.94.66-1.88,1.31-2.85,1.94l-.46.29c-.62.4-1.23.79-1.85,1.17l-.57.34c-1,.57-1.6.9-2.59,1.43s-1.5.76-2.42,1.18-1.52.67-2.54,1.06h0c-1.06.41-1.56.59-2.65.92s-1.64.48-2.71.72-1.52.34-2.55.49a32.45,32.45,0,0,1-3.26.34c-.88,0-1.75.07-2.63,0-1.06,0-2.11-.12-3.16-.25a26.68,26.68,0,0,1-2.81-.51,19.75,19.75,0,0,1-2.63-.75,19.28,19.28,0,0,1-2.33-.89,22.89,22.89,0,0,1-3-1.55c-.66-.41-1.31-.84-1.93-1.31a26.43,26.43,0,0,1-2.42-2.07,23,23,0,0,1-1.83-2q-.39-.45-.75-.93c-.39-.51-.56-.79-.91-1.33a19.53,19.53,0,0,1-1.22-2.08,23.89,23.89,0,0,1-1.29-2.93,23.12,23.12,0,0,1-.72-2.42,20.44,20.44,0,0,1-.4-2.07c-.05-.37-.1-.75-.14-1.12a19.8,19.8,0,0,1-.13-2.55,20,20,0,0,1,.18-3.28c.1-.83.19-1.43.36-2.25a27.89,27.89,0,0,1,1-3.71l0-.07c.23-.64.49-1.28.76-1.9a19.71,19.71,0,0,1,1.32-2.64l.32-.52a22.34,22.34,0,0,1,1.35-2,30.26,30.26,0,0,1,2.84-3.45L314.29,68.74c-6.45,6.87,3.87,24.08,8.89,28.86,7.38,7,18.54,10.27,28.72,9.14,10-1.12,19.45-6.15,27-12.88,5.46-4.87,8.85-14.27,14.66-18.3.43-.29.9-.48,1.32-.77,1.44-1,2.42-3.13,3.88-4.24.5-.52,1-1,1.52-1.53l-4.23,3.41-1.85,1.44-.44.34h0l-2,1.57-.5.39h0l-.26.2h0l-1.52,1.17-.18.14-1.82,1.4-1.86,1.44-2.46,1.88c-.62.48-1.24,1-1.87,1.43l-2.09,1.58-.1.07-1.49,1.1-.34.25"/><polyline class="cls-12" points="415.45 57.3 415.33 56.73 415.26 56.46 415.1 55.66 414.87 54.55 414.84 54.39 414.81 54.16 414.64 53.29 414.51 52.66 414.44 52.19 414.33 51.49 414.21 50.8 414.01 49.48 413.94 48.97 413.91 48.69 413.71 47.17 413.56 45.67 413.53 45.41 413.44 44.39 413.38 43.7 413.31 42.4 413.28 42.02 413.27 41.71 413.21 40.41 413.2 39.94 413.19 38.84 413.19 38.83 413.19 38.77 413.19 37.74 413.19 37.35 413.21 36.66 413.24 35.92 413.25 35.6 413.31 34.55 413.31 34.52 413.4 33.27 413.47 32.6 413.52 32.06 413.57 31.67 413.66 30.93 413.78 30.07 413.81 29.91 413.81 29.88 413.93 29.13 413.97 28.93 414.07 28.39 414.13 28.06 414.23 27.65 414.3 27.29 414.36 27.08 414.48 26.61 414.51 26.51 414.65 26.03 414.7 25.87 414.81 25.54 414.94 25.24 414.97 25.16 415.07 24.97 415.12 24.88 415.2 24.77"/><polyline class="cls-13" points="415.81 58.9 415.76 58.73 415.66 58.33 415.55 57.8 415.45 57.3"/><polyline class="Estilo-gráfico-4" points="415.82 58.92 416.52 58.61 417.68 58.17 418.27 57.93 419.39 57.56 420.03 57.35 421.29 57.02 421.82 56.88 422.99 56.64 423.63 56.51 423.87 56.47 425.43 56.24 426.32 56.16 427.26 56.08 427.81 56.06 429.11 56.03 429.33 56.04 430.38 56.07 430.96 56.09 432.38 56.21 432.79 56.25 433.36 56.33 434.62 56.52 435.48 56.69 436.45 56.89 437.75 57.24 438.26 57.37 439.88 57.89 440.06 57.95 441.08 58.34 441.73 58.59 441.82 58.62 443.23 59.26 443.52 59.39 443.86 59.56 445.18 60.24 446.17 60.81 446.79 61.18 447.59 61.7 448.35 62.19 449.23 62.84 449.84 63.28 450.31 63.66 451.27 64.44 452.38 65.44 452.63 65.66 453.81 66.84 453.91 66.94 453.98 67.02 454.82 67.94 455.1 68.25 456.06 69.47 456.17 69.61 456.28 69.77 457.14 70.99 457.8 72.05 458.02 72.4 458.24 72.82 458.79 73.83 459.19 74.7 459.46 75.27 459.72 75.93 460.02 76.71 460.26 77.49 460.47 78.15 460.61 78.71 460.82 79.57 460.89 80.03 461.05 80.97 461.15 82.04 461.18 82.34 461.2 83.49 461.2 83.68 461.19 83.84 461.11 84.97 460.96 85.98 460.92 86.22 460.62 87.3 460.6 87.4 460.56 87.51 460.17 88.53 460.08 88.72 459.65 89.59 459.22 90.3 459.04 90.59 458.8 90.9 458.34 91.51 457.89 91.99 457.55 92.36 457.12 92.74 456.69 93.12 456.29 93.41 455.75 93.8 455.4 94.01 454.74 94.4 454.45 94.53 453.67 94.9 452.69 95.27 452.55 95.32 452.42 95.35 451.37 95.64 451.35 95.64 451.11 95.69 450.13 95.86 449.05 95.96 448.84 95.98 447.86 96 447.52 96.01 446.66 95.97 446.18 95.95 445.44 95.86 444.81 95.79 444.22 95.68 443.44 95.54 443 95.43 442.05 95.2 441.78 95.11 440.66 94.77 439.94 94.49 439.36 94.27 439.27 94.24 438.14 93.74 437.86 93.61 436.96 93.15 436.48 92.91 435.8 92.51 435.12 92.11 434.67 91.82 433.79 91.24 433.57 91.08 432.6 90.37 432.49 90.29 431.46 89.46 431.2 89.25 430.76 88.86 429.95 88.13 429.1 87.28 428.76 86.95 427.94 86.05 427.61 85.69 426.83 84.77 426.49 84.36 425.8 83.44 425.44 82.97 425.27 82.72 424.85 82.1 424.55 81.67 424.43 81.51 423.86 80.6 423.47 79.99 423.21 79.53 422.66 78.54 422.59 78.42 422.52 78.29 421.73 76.78 421.05 75.31 420.98 75.17 420.94 75.1 420.49 74.06 420.19 73.36 420.04 72.96 419.8 72.32 419.49 71.58 419.2 70.76 418.85 69.77 418.78 69.53 418.45 68.57 418.23 67.92 417.92 66.85 417.65 66.04 417.44 65.29 417.17 64.28 417.14 64.2 417.12 64.14 417.01 63.71 416.61 62.23 416.56 62.02 416.5 61.76 416.28 60.93 416.11 60.3 416.01 59.84 415.89 59.25 415.81 58.9"/><polyline class="cls-1" points="333.17 51.38 332.89 51.66 332.47 52.01 331.98 52.48 331.2 53.23 330.63 53.84 330 54.53 329.26 55.43 328.87 55.9 328.05 57.02 327.82 57.34 327.66 57.59 326.86 58.83 326.12 60.15 325.99 60.39 325.32 61.82 325.25 61.98 325.18 62.17 324.61 63.6 324.21 64.83 324.07 65.27 323.78 66.37 323.63 66.95 323.5 67.64 323.3 68.66 323.19 69.52 323.08 70.37 323.03 71.1 322.97 72.08 322.97 73.23 322.97 73.8 323.06 75.09 323.08 75.5 323.13 75.84 323.31 77.18 323.62 78.73 323.64 78.83 323.66 78.92 323.95 80 324.09 80.45 324.1 80.5 324.66 82.03 325.22 83.29 325.34 83.56 325.51 83.88 326.12 85.03 326.7 85.97 326.99 86.45 327.55 87.24 327.95 87.8 328.48 88.44 329.01 89.08 329.69 89.81 330.14 90.29 331 91.09 331.35 91.42 331.67 91.67 332.63 92.46 332.84 92.61 333.98 93.42 334.89 93.98 335.41 94.3 336.71 94.97 336.91 95.08 338.1 95.6 338.46 95.76 338.95 95.94 340.06 96.35 340.78 96.57 341.69 96.84 342.67 97.07 343.35 97.23 344.61 97.45 345.03 97.53 346.59 97.71 346.73 97.73 347.59 97.78 348.47 97.83 349.87 97.83 350.23 97.83 350.78 97.81 352 97.74 352.94 97.64 353.75 97.56 355.12 97.35 355.5 97.29 355.76 97.23 356.94 96.98 357.18 96.94 357.23 96.92 358.61 96.57 358.99 96.47 359.66 96.27 360.72 95.94 361.35 95.71 362.42 95.33 363.47 94.9 363.96 94.7 364.11 94.64 364.41 94.51 365.8 93.89 366.48 93.54 367.44 93.06 368.25 92.61 369.07 92.17 369.99 91.64 370.69 91.23 371.95 90.43 372.27 90.23 372.6 90.02 373.88 89.19 374.97 88.42 375.28 88.21 375.45 88.1 376.28 87.51 377.04 86.97 377.24 86.81 377.56 86.57 378.2 86.11 378.63 85.8 379.15 85.41 379.86 84.86 380.22 84.6 381.36 83.73 381.84 83.37 381.98 83.27 382.81 82.63 383.5 82.11 383.69 81.96 383.92 81.78 385.17 80.82 385.85 80.29 386.39 79.88 386.88 79.5 387.28 79.19 387.71 78.86 388.62 78.16 389.52 77.47 390.38 76.8 391.32 76.08 392.18 75.41 393.13 74.68 394.02 73.98 394.48 73.63 394.96 73.26 395.77 72.61 396.82 71.81 397.2 71.5 397.56 71.2 398.73 70.31 399.34 69.81 399.98 69.32 400.71 68.75 400.92 68.58 401.1 68.44 401.86 67.85 402.81 67.13 402.85 67.1 403.79 66.39 404.57 65.79 405.06 65.46 406.28 64.55 406.77 64.21 407.53 63.69 407.8 63.49 407.98 63.36 408.73 62.87 409.68 62.25 410.33 61.87 411 61.44 411.37 61.21 412.1 60.8 413.08 60.25 413.25 60.17 413.62 59.99 414.79 59.38 415.72 58.97 415.82 58.92"/><line class="cls-6" x1="329.68" y1="89.8" x2="325.2" y2="96.53"/><line class="cls-6" x1="333.17" y1="51.38" x2="329.84" y2="46.01"/><line class="cls-6" x1="415.2" y1="24.77" x2="409.22" y2="18.32"/><line class="cls-6" x1="414.45" y1="52.25" x2="407.67" y2="51.64"/><line class="cls-2" x1="430.27" y1="88.41" x2="424.66" y2="91.24"/><line class="cls-6" x1="459.78" y1="89.33" x2="452.1" y2="93.12"/><line class="cls-6" x1="440.84" y1="58.25" x2="436.83" y2="67.74"/><line class="cls-6" x1="401.22" y1="68.35" x2="404.71" y2="76.37"/><line class="cls-6" x1="368.83" y1="92.31" x2="371.72" y2="100.34"/><line class="cls-3" x1="329.68" y1="89.8" x2="323.4" y2="92.67"/><line class="cls-3" x1="333.17" y1="51.38" x2="326.93" y2="46.01"/><line class="cls-3" x1="415.2" y1="24.77" x2="421.66" y2="18.81"/><line class="cls-3" x1="414.45" y1="52.25" x2="420.96" y2="49.53"/><line class="cls-7" x1="430.27" y1="88.41" x2="434.35" y2="81.64"/><line class="cls-3" x1="459.78" y1="89.33" x2="453.25" y2="82.05"/><line class="cls-3" x1="440.84" y1="58.25" x2="440.41" y2="61.58"/><line class="cls-3" x1="401.22" y1="68.35" x2="407.01" y2="71.23"/><line class="cls-3" x1="368.83" y1="92.31" x2="372.91" y2="96.01"/><line class="cls-8" x1="329.68" y1="89.8" x2="336.24" y2="96.76"/><line class="cls-8" x1="333.17" y1="51.38" x2="325.67" y2="58.25"/><line class="cls-8" x1="415.2" y1="24.77" x2="416.32" y2="23.17"/><line class="cls-8" x1="414.45" y1="52.25" x2="413.01" y2="43.37"/><line class="cls-8" x1="430.27" y1="88.41" x2="423.55" y2="82.17"/><line class="cls-8" x1="459.78" y1="89.33" x2="456.79" y2="95.45"/><line class="cls-8" x1="440.84" y1="58.25" x2="450.96" y2="62.12"/><line class="cls-8" x1="401.22" y1="68.35" x2="408.93" y2="62.45"/><line class="cls-8" x1="368.83" y1="92.31" x2="377.35" y2="87.72"/><text class="cls-14" transform="translate(76.92 137.42)">(a)</text><text class="cls-14" transform="translate(246.58 186.42)">(b)</text><text class="cls-14" transform="translate(387.09 137.42)">(c)</text></svg>