<svg xmlns="http://www.w3.org/2000/svg" width="170.07mm" height="70mm" viewBox="0 0 482.087 198.425">
  <defs>
    <style>
      .Surface-visible {
        fill: #0460aa;
        opacity: 0.5;
      }

      .Surface-underlying, .cls-10 {
        fill: #e66526;
      }

      .Surface-underlying, .cls-9 {
        opacity: 0.15;
      }

      .Dashed-gray-line, .Solid-gray-line, .cls-1, .cls-2, .cls-5, .cls-7 {
        fill: none;
      }

      .Dashed-gray-line, .Solid-gray-line {
        stroke: #b2b2b2;
        stroke-width: 0.25px;
      }

      .Dashed-gray-line, .Solid-gray-line, .cls-2, .cls-5, .cls-7 {
        stroke-linecap: round;
        stroke-linejoin: round;
      }

      .Dashed-gray-line {
        stroke-dasharray: 3 3;
      }

      .cls-1 {
        stroke: #1d1d1b;
        stroke-miterlimit: 10;
      }

      .cls-2 {
        stroke: #c91517;
      }

      .cls-2, .cls-5, .cls-7 {
        stroke-width: 0.5px;
      }

      .cls-3 {
        fill: #c91517;
      }

      .cls-4 {
        opacity: 0.4;
      }

      .cls-5 {
        stroke: #037534;
      }

      .cls-6 {
        fill: #037534;
      }

      .cls-7 {
        stroke: #2a4d9c;
      }

      .cls-8 {
        fill: #2a4d9c;
      }

      .cls-11 {
        fill: #b2b2b2;
      }

      .cls-12 {
        fill: #1d1d1b;
      }
    </style>
  </defs>
  <title>DevelopableFromCurve</title>
  <g id="DevSurfaces">
    <g id="Visible-ZAxis">
      <g>
        <path class="Surface-visible" d="M142.64,109.568l17.032-7.593a12.843,12.843,0,0,0,2.044-1.129,11.8,11.8,0,0,0,1.771-1.469,12.266,12.266,0,0,0,1.451-1.787,11.62,11.62,0,0,0,1.094-2.072,12.365,12.365,0,0,0,.943-4.281,20.66,20.66,0,0,0-.046-2.374,18.171,18.171,0,0,0-.4-2.478,20.254,20.254,0,0,0-.579-2.11c-.244-.724-.52-1.432-.828-2.13a27.921,27.921,0,0,0-2.335-4.209,29.951,29.951,0,0,0-2.831-3.569,37.382,37.382,0,0,0-3.46-3.234,36.415,36.415,0,0,0-7.867-4.9,37.154,37.154,0,0,0-4.385-1.641,35.792,35.792,0,0,0-4.5-1.014,31.948,31.948,0,0,0-9.263-.078,37.215,37.215,0,0,0-4.574.988,38.836,38.836,0,0,0-4.324,1.6,41.9,41.9,0,0,0-3.93,2c-.978.563-2.8,1.7-3.74,2.337-1.031.7-2.591,1.818-3.593,2.558-1.183.874-2.348,1.77-3.513,2.667-1.015.783-2.02,1.578-3.025,2.373q-1.641,1.3-3.292,2.582c-1,.781-2.011,1.555-3.015,2.335S95.441,84.512,94.42,85.3q-3.06,2.353-6.121,4.707c-1.869,1.43-4.493,3.407-6.409,4.775-1.254.894-2.129,1.5-3.424,2.335-1.15.743-2.3,1.474-3.5,2.147-.562.317-1.131.621-1.7.921-.519.273-1.041.54-1.569.795q-.915.44-1.848.84c-.533.227-1.071.439-1.611.647-.6.234-1.212.461-1.829.663-.741.244-1.486.467-2.24.667-.583.154-1.171.289-1.76.42-.637.142-1.276.267-1.921.366-.7.108-1.392.2-2.092.27-.573.059-1.147.1-1.722.121a31.782,31.782,0,0,1-3.83-.05,27.5,27.5,0,0,1-4-.582c-.736-.156-1.466-.328-2.185-.553-.437-.136-1.1-.357-1.527-.508-.67-.234-1.319-.511-1.963-.8-.616-.282-1.229-.57-1.822-.9-.483-.267-.95-.558-1.413-.857-.557-.36-1.1-.738-1.626-1.142-.577-.444-1.13-.915-1.669-1.4-.434-.394-.858-.8-1.257-1.228-.245-.264-.483-.534-.719-.8-.284-.328-.564-.658-.836-1-.217-.27-.426-.545-.624-.829-.151-.217-.3-.438-.438-.661-.3-.464-.6-.923-.88-1.4-.367-.64-.775-1.463-1.084-2.133-.245-.531-.465-1.069-.665-1.618s-.386-1.109-.544-1.676a24.6,24.6,0,0,1-.749-3.989q-.1-.838-.122-1.68c-.022-.726-.028-1.711,0-2.437.024-.562.08-1.061.148-1.619.073-.606.151-1.211.26-1.812.134-.739.3-1.469.491-2.2q.231-.879.522-1.74c.193-.573.4-1.137.634-1.7.29-.7.592-1.4.934-2.084.245-.488.517-.958.8-1.425.271-.448.54-.895.832-1.33.458-.683.946-1.343,1.449-1.993q.533-.689,1.119-1.33c.382-.417.767-.831,1.164-1.234.59-.6,1.2-1.167,1.826-1.73L30.266,44.6c-1.336,1.163-2.861,2.644-4.08,3.929a54.9,54.9,0,0,0-3.712,4.332,56.509,56.509,0,0,0-3.254,4.723,49.071,49.071,0,0,0-2.739,5.047,56.643,56.643,0,0,0-2.153,5.354,52.417,52.417,0,0,0-1.546,5.527,48.81,48.81,0,0,0-.9,5.622,44.38,44.38,0,0,0-.252,5.636,47.334,47.334,0,0,0,.452,5.777,43.19,43.19,0,0,0,1.176,5.616,40.4,40.4,0,0,0,1.922,5.346,42.422,42.422,0,0,0,2.582,5,46.217,46.217,0,0,0,3.282,4.7,45.969,45.969,0,0,0,3.881,4.183,41.9,41.9,0,0,0,4.4,3.618,40.156,40.156,0,0,0,4.853,3,43.3,43.3,0,0,0,5.191,2.3,47.947,47.947,0,0,0,5.457,1.637,47.079,47.079,0,0,0,11.384,1.2,51.679,51.679,0,0,0,5.724-.414,49.046,49.046,0,0,0,5.64-1.044,52.414,52.414,0,0,0,5.475-1.624c1.78-.638,3.527-1.341,5.24-2.142,1.662-.778,3.814-1.9,5.4-2.823.861-.5,1.709-1.027,2.554-1.555s1.67-1.062,2.492-1.615c2.756-1.855,6.118-4.3,8.8-6.254q2.31-1.681,4.613-3.373,1.145-.838,2.29-1.678c.806-.594,1.609-1.192,2.415-1.786,1.385-1.019,2.771-2.035,4.146-3.067,1.639-1.231,3.268-2.473,4.916-3.691.317-.234,2.266-1.649,2.587-1.879.636-.457,1.976-1.386,2.628-1.82,1.278-.849,1.4-.9,2.728-1.669.115-.066.231-.132.345-.2.054-.034.108-.069.163-.1.084-.049.172-.091.26-.134.214-.1.429-.205.644-.306q.381-.18.764-.356c.176-.08.351-.162.529-.236.035-.014.07-.029.107-.04.007,0,.024-.012.034-.007s0,.008,0,.011-.009.005-.008.012h0a.133.133,0,0,0,.035-.013l.079-.033c.1-.041.2-.079.3-.116.14-.051.281-.1.423-.142.283-.09.568-.173.855-.252.143-.039.286-.078.431-.112a.819.819,0,0,1,.178-.031.033.033,0,0,1,.026.01s.007,0,.012,0l.036-.008c.06-.016.12-.031.18-.043a8.212,8.212,0,0,1,.882-.126q.321-.034.644-.061c.121-.01.242-.022.363-.027.058,0,.114.012.171.012.24,0,.48,0,.719.01.345.016.689.046,1.032.085.361.041.716.105,1.071.181.28.06.557.13.833.2.321.084.639.172.952.28.192.066.379.139.565.219.1.043.2.085.307.119a4.481,4.481,0,0,1,.633.271c.391.2.772.411,1.153.626.323.183.64.374.949.578a17.653,17.653,0,0,1,1.468,1.086c.313.255.61.529.919.789a5.973,5.973,0,0,1,.453.433c.255.263.5.532.749.8.14.155.283.307.409.474.093.125.187.25.283.373a13.065,13.065,0,0,1,1.02,1.532c.126.218.247.439.366.662.084.157.169.313.248.472.095.189.177.383.256.579q.192.47.364.947a6.933,6.933,0,0,1,.218.71c.037.152.078.3.122.452a8.71,8.71,0,0,1,.27,1.7,10.088,10.088,0,0,1,.045,1.14,7.342,7.342,0,0,1-.107,1.137,7.893,7.893,0,0,1-.293,1.1c-.046.142-.089.285-.146.424a5.959,5.959,0,0,1-.308.62,6.56,6.56,0,0,1-.61.965,8.739,8.739,0,0,1-.757.853,8.863,8.863,0,0,1-1.858,1.317"/>
        <path class="Surface-underlying" d="M142.64,109.577l17.032-7.593a12.123,12.123,0,0,1-1.554.576,16.56,16.56,0,0,1-1.613.38,13.59,13.59,0,0,1-1.646.2c-.552.034-1.1.049-1.657.041s-1.1-.044-1.655-.1-1.1-.134-1.64-.233a23.661,23.661,0,0,1-3.21-.827,24.243,24.243,0,0,1-2.532-1c-.827-.379-1.64-.781-2.428-1.237s-1.549-.947-2.295-1.467-1.464-1.075-2.164-1.656a33.332,33.332,0,0,1-3.888-3.812,35.313,35.313,0,0,1-3.279-4.346c-.606-.913-1.023-1.62-1.553-2.579-.54-.978-.9-1.67-1.373-2.681-.428-.908-.845-1.82-1.218-2.754-.192-.479-.377-.96-.563-1.441-.177-.455-.35-.912-.513-1.372-.622-1.75-1.316-3.955-1.814-5.744-.269-.967-.526-1.938-.783-2.908-.142-.537-.283-1.074-.415-1.613-.106-.437-.2-.875-.3-1.314-.3-1.411-.625-2.817-.9-4.233q-.234-1.2-.438-2.4c-.106-.622-.212-1.243-.309-1.867-.122-.785-.225-1.573-.33-2.36-.085-.644-.157-1.288-.221-1.934q-.075-.752-.144-1.5c-.027-.29-.053-.579-.074-.87-.046-.647-.08-1.294-.113-1.942-.075-1.443-.1-2.885-.077-4.33s.095-2.885.219-4.326.306-2.865.56-4.286a24.158,24.158,0,0,1,.633-2.733c.052-.174.105-.348.168-.519.038-.1.081-.207.124-.309a2.689,2.689,0,0,1,.3-.568L105.987,15.734a2.476,2.476,0,0,0-.69.756,8.764,8.764,0,0,0-.74,1.426,29.056,29.056,0,0,0-1.471,4.79,63.738,63.738,0,0,0-1.23,7.554c-.278,2.612-.429,5.014-.482,7.639q-.037,1.878-.007,3.755c.023,1.3.073,2.6.143,3.9.143,2.644.354,5,.668,7.627q.225,1.892.519,3.772.294,1.9.631,3.8c.222,1.249.474,2.491.733,3.732.2.982.583,2.792.8,3.77.131.576.273,1.148.419,1.72q.238.933.478,1.865c.33,1.279.669,2.555,1.039,3.823.461,1.578,1.151,3.8,1.7,5.354.312.883.645,1.759.978,2.634s.679,1.744,1.055,2.6.763,1.71,1.167,2.555.832,1.677,1.276,2.5.9,1.641,1.393,2.439,1.009,1.577,1.535,2.352c.745,1.1,1.535,2.156,2.385,3.175.8.957,1.784,2.062,2.665,2.944a36.422,36.422,0,0,0,2.957,2.652,33.291,33.291,0,0,0,3.236,2.3c.587.367,1.19.7,1.8,1.016.564.289,1.13.571,1.714.818a21.459,21.459,0,0,0,3.775,1.222,16.855,16.855,0,0,0,2.131.331,13.022,13.022,0,0,0,1.81.048c.4-.013.794-.031,1.189-.083.276-.036.546-.1.817-.156a8.313,8.313,0,0,0,.823-.2,10.146,10.146,0,0,0,1.026-.4"/>
        <path class="Dashed-gray-line" d="M106.8,75.651c.461,1.578,1.151,3.8,1.7,5.354.312.883.645,1.758.978,2.633s.679,1.745,1.055,2.6.763,1.711,1.167,2.556.832,1.677,1.276,2.5.9,1.641,1.393,2.439,1.009,1.577,1.535,2.352"/>
        <path class="Dashed-gray-line" d="M130.111,88.492c-.606-.913-1.023-1.62-1.553-2.58-.54-.977-.9-1.669-1.373-2.68-.428-.908-.845-1.821-1.218-2.754-.192-.479-.377-.961-.563-1.441-.177-.456-.35-.912-.513-1.372-.622-1.75-1.316-3.955-1.814-5.744-.269-.967-.526-1.938-.783-2.908-.142-.537-.283-1.074-.415-1.613-.106-.437-.2-.875-.3-1.314"/>
        <path class="Dashed-gray-line" d="M159.672,101.975a12.123,12.123,0,0,1-1.554.576,16.269,16.269,0,0,1-1.613.379,13.8,13.8,0,0,1-1.646.2c-.552.034-1.1.049-1.657.041s-1.1-.044-1.655-.1-1.1-.134-1.64-.233a23.661,23.661,0,0,1-3.21-.827"/>
        <path class="Solid-gray-line" d="M38.9,58.529c-.622.563-1.236,1.133-1.826,1.73-.4.4-.782.817-1.164,1.234s-.764.871-1.119,1.33c-.5.65-.991,1.31-1.449,1.993-.292.435-.561.882-.832,1.33-.282.467-.554.937-.8,1.425-.342.682-.644,1.379-.934,2.084-.229.559-.441,1.123-.634,1.7s-.368,1.154-.522,1.74c-.191.726-.357,1.456-.491,2.2-.109.6-.187,1.206-.26,1.812-.068.558-.124,1.057-.148,1.619-.031.726-.025,1.711,0,2.437q.026.843.122,1.68a24.6,24.6,0,0,0,.749,3.989c.158.567.343,1.123.544,1.676s.42,1.087.665,1.618c.309.67.717,1.493,1.084,2.133.276.48.581.939.88,1.4.143.223.287.444.438.661.2.284.407.559.624.829.272.337.552.667.836,1,.236.271.474.541.719.8.4.43.823.834,1.257,1.228.539.49,1.092.961,1.669,1.4.526.4,1.069.782,1.626,1.142.463.3.93.59,1.413.857.593.329,1.206.617,1.822.9.644.294,1.293.571,1.963.8.431.151,1.09.372,1.527.508.719.225,1.449.4,2.185.553a27.5,27.5,0,0,0,4,.582,31.782,31.782,0,0,0,3.83.05c.575-.024,1.149-.062,1.722-.121.7-.072,1.4-.162,2.092-.27.645-.1,1.284-.224,1.921-.366.589-.131,1.177-.266,1.76-.42.754-.2,1.5-.423,2.24-.667.617-.2,1.224-.429,1.829-.663.54-.208,1.078-.42,1.611-.647q.934-.4,1.848-.84c.528-.255,1.05-.522,1.569-.795.571-.3,1.14-.6,1.7-.921,1.194-.673,2.349-1.4,3.5-2.147,1.3-.835,2.17-1.441,3.424-2.335,1.916-1.368,4.54-3.345,6.409-4.775Q91.366,87.66,94.42,85.3q1.532-1.179,3.059-2.365c1-.78,2.012-1.554,3.015-2.335q1.65-1.284,3.292-2.582c1-.8,2.01-1.59,3.025-2.373"/>
        <line class="Solid-gray-line" x1="120.98" y1="31.909" x2="105.987" y2="15.725"/>
        <path class="Solid-gray-line" d="M105.987,15.725a2.484,2.484,0,0,0-.69.755,8.815,8.815,0,0,0-.74,1.427,29.056,29.056,0,0,0-1.471,4.79,63.738,63.738,0,0,0-1.23,7.554c-.278,2.611-.429,5.014-.482,7.639q-.037,1.878-.007,3.755c.023,1.3.073,2.6.143,3.9.143,2.644.354,5,.668,7.627q.225,1.892.519,3.772.294,1.9.631,3.8c.222,1.249.474,2.491.733,3.732.2.982.583,2.792.8,3.77.131.576.273,1.148.419,1.72q.238.933.478,1.865c.33,1.279.669,2.555,1.039,3.823"/>
        <line class="Solid-gray-line" x1="30.266" y1="44.602" x2="38.903" y2="58.529"/>
        <line class="Solid-gray-line" x1="159.672" y1="101.975" x2="142.64" y2="109.568"/>
        <path class="Solid-gray-line" d="M142.237,109.748c.134-.06.268-.122.4-.189"/>
        <path class="Solid-gray-line" d="M121.587,66.083a38.836,38.836,0,0,1,4.324-1.6,37.215,37.215,0,0,1,4.574-.988,31.948,31.948,0,0,1,9.263.078,35.792,35.792,0,0,1,4.5,1.014,37.154,37.154,0,0,1,4.385,1.641,36.415,36.415,0,0,1,7.867,4.9,37.382,37.382,0,0,1,3.46,3.234,29.951,29.951,0,0,1,2.831,3.569,27.921,27.921,0,0,1,2.335,4.209c.308.7.584,1.406.828,2.13a20.254,20.254,0,0,1,.579,2.11,18.171,18.171,0,0,1,.4,2.478,20.66,20.66,0,0,1,.046,2.374,12.365,12.365,0,0,1-.943,4.281,11.62,11.62,0,0,1-1.094,2.072,12.266,12.266,0,0,1-1.451,1.787,11.8,11.8,0,0,1-1.771,1.469,12.843,12.843,0,0,1-2.044,1.129"/>
        <path class="Solid-gray-line" d="M106.811,75.643c1.165-.9,2.33-1.793,3.513-2.667,1-.74,2.562-1.859,3.593-2.558.935-.633,2.762-1.774,3.74-2.337a41.9,41.9,0,0,1,3.93-2"/>
        <path class="Solid-gray-line" d="M115.9,96.09c.745,1.1,1.535,2.156,2.385,3.175.8.957,1.784,2.062,2.665,2.944a36.422,36.422,0,0,0,2.957,2.652,33.291,33.291,0,0,0,3.236,2.3c.587.366,1.19.7,1.8,1.016.564.289,1.13.571,1.714.818a21.459,21.459,0,0,0,3.775,1.222,16.855,16.855,0,0,0,2.131.331,13.022,13.022,0,0,0,1.81.048c.4-.014.794-.031,1.189-.083.276-.037.546-.1.817-.156a8.313,8.313,0,0,0,.823-.2,10.146,10.146,0,0,0,1.026-.4"/>
        <path class="Solid-gray-line" d="M126.673,89.177l.033.155"/>
        <path class="Solid-gray-line" d="M121.582,66.086c-.3-1.411-.625-2.817-.9-4.233q-.234-1.2-.438-2.4c-.106-.622-.212-1.244-.309-1.867-.122-.785-.225-1.573-.33-2.36-.085-.644-.157-1.289-.221-1.934q-.075-.752-.144-1.5c-.027-.29-.053-.579-.074-.87-.046-.647-.08-1.294-.113-1.942-.075-1.443-.1-2.885-.077-4.33s.095-2.886.219-4.326.306-2.865.56-4.286a24.225,24.225,0,0,1,.633-2.734c.052-.173.105-.347.168-.518.038-.1.081-.207.124-.309a2.721,2.721,0,0,1,.3-.569"/>
        <path class="Solid-gray-line" d="M146.7,102.009a24.466,24.466,0,0,1-2.532-1c-.827-.379-1.64-.781-2.428-1.237s-1.549-.947-2.295-1.467-1.464-1.075-2.164-1.657a33.244,33.244,0,0,1-3.888-3.811,35.313,35.313,0,0,1-3.279-4.346"/>
        <path class="Solid-gray-line" d="M130.133,88.49a8.212,8.212,0,0,0-.882.126c-.06.012-.12.027-.18.043l-.036.008s-.008,0-.012,0a.033.033,0,0,0-.026-.01.819.819,0,0,0-.178.031c-.145.034-.288.073-.431.112-.287.079-.572.162-.855.252-.142.044-.283.091-.423.142-.1.037-.2.075-.3.116l-.079.033a.133.133,0,0,1-.035.013"/>
        <path class="Solid-gray-line" d="M146.67,102a8.71,8.71,0,0,0-.27-1.7c-.044-.15-.085-.3-.122-.452a6.933,6.933,0,0,0-.218-.71q-.173-.478-.364-.947c-.079-.2-.161-.39-.256-.579-.079-.159-.164-.315-.248-.472-.119-.223-.24-.444-.366-.662a13.065,13.065,0,0,0-1.02-1.532c-.1-.123-.19-.248-.283-.373-.126-.167-.269-.319-.409-.474-.246-.272-.494-.541-.749-.8a5.973,5.973,0,0,0-.453-.433c-.309-.26-.606-.534-.919-.789a17.653,17.653,0,0,0-1.468-1.086c-.309-.2-.626-.4-.949-.578-.381-.215-.762-.428-1.153-.626a4.481,4.481,0,0,0-.633-.271c-.1-.034-.206-.076-.307-.119-.186-.08-.373-.153-.565-.219-.313-.108-.631-.2-.952-.28-.276-.073-.553-.143-.833-.2-.355-.076-.71-.14-1.071-.181-.343-.039-.687-.069-1.032-.085-.239-.011-.479-.007-.719-.01-.057,0-.113-.014-.171-.012-.121,0-.242.017-.363.027q-.322.027-.644.061"/>
        <path class="Solid-gray-line" d="M142.636,109.559a8.863,8.863,0,0,0,1.858-1.317,8.739,8.739,0,0,0,.757-.853,6.56,6.56,0,0,0,.61-.965,5.959,5.959,0,0,0,.308-.62c.057-.139.1-.282.146-.424a7.893,7.893,0,0,0,.293-1.1,7.342,7.342,0,0,0,.107-1.137,10.088,10.088,0,0,0-.045-1.14"/>
        <path class="Solid-gray-line" d="M115.916,96.081c-1.648,1.218-3.277,2.46-4.916,3.691-1.375,1.032-2.761,2.048-4.146,3.067-.806.594-1.609,1.192-2.415,1.786q-1.144.842-2.29,1.678-2.306,1.688-4.613,3.373c-2.685,1.954-6.047,4.4-8.8,6.254q-1.233.829-2.492,1.615c-.845.528-1.693,1.052-2.554,1.555-1.585.925-3.737,2.045-5.4,2.823-1.713.8-3.46,1.5-5.24,2.142a52.414,52.414,0,0,1-5.475,1.624,49.046,49.046,0,0,1-5.64,1.044,51.679,51.679,0,0,1-5.724.414,47.079,47.079,0,0,1-11.384-1.2,47.947,47.947,0,0,1-5.457-1.637,43.3,43.3,0,0,1-5.191-2.3,40.156,40.156,0,0,1-4.853-3,41.9,41.9,0,0,1-4.4-3.618,45.969,45.969,0,0,1-3.881-4.183,46.217,46.217,0,0,1-3.282-4.7,42.422,42.422,0,0,1-2.582-5,40.4,40.4,0,0,1-1.922-5.346,43.19,43.19,0,0,1-1.176-5.616,47.334,47.334,0,0,1-.452-5.777,44.38,44.38,0,0,1,.252-5.636,48.81,48.81,0,0,1,.9-5.622,52.417,52.417,0,0,1,1.546-5.527,56.643,56.643,0,0,1,2.153-5.354,49.071,49.071,0,0,1,2.739-5.047,56.509,56.509,0,0,1,3.254-4.723,54.9,54.9,0,0,1,3.712-4.332c1.219-1.285,2.744-2.766,4.08-3.929"/>
        <path class="Solid-gray-line" d="M126.692,89.353c0-.007.005-.008.008-.012s.011-.007,0-.011-.027,0-.034.007c-.037.011-.072.026-.107.04-.178.074-.353.156-.529.236q-.382.175-.764.356c-.215.1-.43.2-.644.306-.088.043-.176.085-.26.134-.055.033-.109.068-.163.1-.114.07-.23.136-.345.2-1.329.765-1.45.82-2.728,1.669-.652.434-1.992,1.363-2.628,1.82-.321.23-2.27,1.645-2.587,1.879"/>
        <polyline class="cls-1" points="38.903 58.529 38.621 58.806 38.208 59.159 37.717 59.631 36.936 60.381 36.368 60.994 35.732 61.68 34.992 62.578 34.603 63.052 33.784 64.174 33.553 64.489 33.388 64.747 32.59 65.988 31.851 67.303 31.723 67.541 31.055 68.974 30.981 69.132 30.906 69.323 30.338 70.762 29.939 71.985 29.796 72.424 29.509 73.531 29.36 74.11 29.227 74.797 29.03 75.814 28.919 76.676 28.81 77.528 28.763 78.262 28.7 79.244 28.7 80.395 28.7 80.957 28.785 82.249 28.812 82.658 28.858 83.001 29.034 84.34 29.345 85.891 29.366 85.997 29.39 86.086 29.682 87.165 29.816 87.621 29.831 87.663 30.393 89.198 30.951 90.454 31.073 90.728 31.24 91.046 31.851 92.204 32.429 93.142 32.723 93.619 33.285 94.407 33.688 94.97 34.215 95.613 34.739 96.252 35.426 96.984 35.872 97.459 36.732 98.26 37.084 98.588 37.399 98.845 38.368 99.635 38.578 99.785 39.719 100.598 40.624 101.158 41.145 101.471 42.451 102.146 42.65 102.249 43.84 102.774 44.202 102.933 44.689 103.113 45.796 103.521 46.522 103.74 47.427 104.013 48.411 104.246 49.088 104.407 50.348 104.63 50.773 104.704 52.328 104.887 52.476 104.905 53.331 104.956 54.213 105.006 55.612 105.009 55.978 105.01 56.524 104.981 57.742 104.919 58.684 104.82 59.499 104.735 60.861 104.521 61.244 104.461 61.507 104.406 62.683 104.16 62.926 104.11 62.981 104.098 64.356 103.746 64.741 103.647 65.407 103.442 66.473 103.114 67.104 102.888 68.172 102.504 69.222 102.072 69.71 101.877 69.859 101.818 70.162 101.681 71.547 101.058 72.228 100.717 73.19 100.235 74.001 99.786 74.823 99.347 75.744 98.81 76.445 98.401 77.706 97.602 78.03 97.405 78.359 97.19 79.633 96.356 80.73 95.588 81.034 95.383 81.207 95.267 82.036 94.676 82.793 94.136 83.001 93.98 83.318 93.741 83.962 93.274 84.386 92.967 84.906 92.573 85.624 92.03 85.98 91.769 87.123 90.903 87.602 90.539 87.738 90.433 88.568 89.801 89.26 89.274 89.455 89.122 89.677 88.95 90.931 87.987 91.616 87.457 92.15 87.045 92.639 86.668 93.047 86.355 93.476 86.025 94.384 85.323 95.285 84.635 96.143 83.967 97.091 83.24 97.942 82.568 98.898 81.844 99.787 81.142 100.244 80.792 100.724 80.425 101.54 79.768 102.584 78.969 102.967 78.658 103.332 78.362 104.497 77.469 105.11 76.967 105.748 76.478 106.484 75.914 106.692 75.743 106.872 75.595 107.635 75.012 108.578 74.292 108.622 74.256 109.562 73.544 110.345 72.951 110.831 72.615 112.05 71.702 112.545 71.366 113.304 70.851 113.577 70.65 113.756 70.519 114.5 70.03 115.454 69.402 116.103 69.021 116.771 68.599 117.147 68.362 117.878 67.955 118.861 67.408 119.031 67.325 119.395 67.149 120.568 66.538 121.502 66.121 122.301 65.763 123.461 65.326 124.055 65.087 125.168 64.717 125.808 64.505 127.071 64.171 127.603 64.03 128.772 63.797 129.412 63.66 129.657 63.623 131.214 63.391 132.104 63.313 133.045 63.231 133.599 63.217 134.899 63.182 135.117 63.19 136.162 63.224 136.751 63.241 138.169 63.366 138.578 63.402 139.146 63.485 140.409 63.67 141.266 63.846 142.236 64.045 143.544 64.389 144.054 64.524 145.677 65.046 145.855 65.103 146.875 65.492 147.522 65.742 147.612 65.777 149.025 66.411 149.312 66.541 149.658 66.718 150.972 67.394 151.962 67.97 152.585 68.333 153.384 68.854 154.143 69.35 155.03 69.997 155.641 70.442 156.103 70.816 157.072 71.601 158.181 72.597 158.43 72.82 159.609 73.994 159.709 74.093 159.783 74.176 160.618 75.098 160.896 75.411 161.859 76.629 161.967 76.764 162.08 76.925 162.942 78.151 163.596 79.206 163.818 79.564 164.044 79.982 164.592 80.994 164.994 81.861 165.26 82.434 165.519 83.097 165.822 83.876 166.067 84.653 166.276 85.312 166.412 85.874 166.62 86.735 166.697 87.193 166.856 88.136 166.955 89.205 166.983 89.509 167 90.655 167.002 90.846 166.992 91.007 166.916 92.14 166.761 93.149 166.72 93.384 166.425 94.472 166.398 94.569 166.358 94.677 165.976 95.696 165.884 95.885 165.456 96.761 165.019 97.47 164.843 97.757 164.604 98.071 164.141 98.68 163.691 99.165 163.354 99.527 162.922 99.91 162.489 100.293 162.089 100.583 161.55 100.975 161.198 101.183 160.543 101.57 160.252 101.707 159.473 102.076 158.486 102.439 158.347 102.49 158.222 102.524 157.171 102.812 157.147 102.816 156.909 102.86 155.928 103.03 154.849 103.133 154.641 103.153 153.66 103.176 153.32 103.183 152.454 103.142 151.974 103.12 151.236 103.035 150.608 102.963 150.013 102.855 149.229 102.713 148.789 102.605 147.842 102.371 147.57 102.286 146.455 101.939 145.737 101.667 145.147 101.444 145.058 101.41 143.935 100.911 143.655 100.786 142.746 100.322 142.27 100.078 141.586 99.68 140.909 99.286 140.456 98.989 139.578 98.414 139.361 98.254 138.383 97.537 138.28 97.462 137.245 96.628 136.986 96.419 136.545 96.025 135.739 95.304 134.884 94.454 134.546 94.118 133.73 93.22 133.396 92.862 132.618 91.937 132.274 91.528 131.579 90.609 131.22 90.134 131.056 89.891 130.634 89.267 130.333 88.842 130.216 88.677 129.641 87.766 129.254 87.154 128.996 86.693 128.445 85.708 128.369 85.58 128.301 85.451 127.507 83.942 126.831 82.47 126.763 82.334 126.726 82.26 126.275 81.223 125.97 80.523 125.822 80.126 125.582 79.483 125.275 78.745 124.982 77.922 124.629 76.927 124.557 76.686 124.228 75.726 124.006 75.076 123.703 74.012 123.432 73.199 123.224 72.444 122.945 71.434 122.92 71.356 122.901 71.298 122.786 70.868 122.389 69.386 122.343 69.18 122.282 68.911 122.058 68.09 121.885 67.457 121.791 66.995 121.671 66.407 121.542 65.888 121.441 65.48 121.105 63.882 121.037 63.609 120.874 62.813 120.647 61.701 120.622 61.538 120.586 61.312 120.415 60.442 120.292 59.815 120.22 59.34 120.113 58.642 119.984 57.95 119.792 56.632 119.716 56.114 119.687 55.835 119.483 54.319 119.337 52.821 119.305 52.555 119.217 51.541 119.156 50.841 119.085 49.545 119.058 49.168 119.044 48.859 118.989 47.555 118.982 47.082 118.967 45.988 118.967 45.968 118.968 45.919 118.972 44.884 118.973 44.496 118.993 43.806 119.014 43.062 119.032 42.738 119.088 41.691 119.091 41.657 119.182 40.409 119.247 39.74 119.299 39.199 119.346 38.808 119.436 38.066 119.56 37.209 119.582 37.053 119.588 37.017 119.712 36.268 119.745 36.066 119.848 35.531 119.911 35.202 120.003 34.787 120.082 34.429 120.136 34.216 120.255 33.748 120.285 33.647 120.427 33.162 120.48 33.008 120.593 32.681 120.718 32.379 120.751 32.3 120.853 32.108 120.901 32.016 120.98 31.909"/>
        <g>
          <line class="cls-2" x1="74.58" y1="99.478" x2="77.29" y2="107.011"/>
          <polygon class="cls-3" points="74.805 106.144 75.034 105.699 77.224 106.83 78.193 104.563 78.653 104.76 77.473 107.521 74.805 106.144"/>
        </g>
        <g>
          <line class="cls-2" x1="106.986" y1="75.508" x2="110.267" y2="83.04"/>
          <polygon class="cls-3" points="107.731 82.338 107.931 81.879 110.19 82.864 111.008 80.538 111.48 80.705 110.484 83.537 107.731 82.338"/>
        </g>
        <g>
          <line class="cls-2" x1="146.63" y1="65.399" x2="142.83" y2="74.396"/>
          <polygon class="cls-3" points="141.591 72.074 142.061 71.902 142.904 74.219 145.153 73.208 145.358 73.665 142.618 74.895 141.591 72.074"/>
        </g>
        <g>
          <line class="cls-2" x1="165.584" y1="96.499" x2="158.389" y2="100.054"/>
          <polygon class="cls-3" points="158.968 97.487 159.436 97.664 158.561 99.968 160.923 100.673 160.78 101.153 157.902 100.294 158.968 97.487"/>
        </g>
        <g>
          <line class="cls-2" x1="136.052" y1="95.577" x2="130.929" y2="98.164"/>
          <polygon class="cls-3" points="131.486 95.592 131.956 95.765 131.1 98.077 133.469 98.762 133.329 99.242 130.445 98.408 131.486 95.592"/>
        </g>
        <g>
          <line class="cls-2" x1="120.233" y1="59.399" x2="113.988" y2="58.843"/>
          <polygon class="cls-3" points="115.82 56.953 116.127 57.348 114.18 58.859 115.829 60.692 115.457 61.026 113.448 58.794 115.82 56.953"/>
        </g>
        <g>
          <line class="cls-2" x1="120.98" y1="31.909" x2="115.365" y2="25.849"/>
          <polygon class="cls-3" points="117.991 25.674 117.954 26.173 115.496 25.989 115.492 28.455 114.991 28.453 114.997 25.451 117.991 25.674"/>
        </g>
        <g>
          <line class="cls-2" x1="38.903" y1="58.529" x2="35.857" y2="53.618"/>
          <polygon class="cls-3" points="38.468 53.949 38.337 54.432 35.959 53.781 35.484 56.201 34.993 56.104 35.572 53.157 38.468 53.949"/>
        </g>
        <g>
          <line class="cls-2" x1="35.411" y1="96.967" x2="31.228" y2="103.257"/>
          <polygon class="cls-3" points="30.443 100.745 30.936 100.664 31.334 103.097 33.732 102.523 33.848 103.01 30.927 103.709 30.443 100.745"/>
        </g>
        <g class="cls-4">
          <g>
            <line class="cls-5" x1="35.411" y1="96.967" x2="29.619" y2="99.621"/>
            <polygon class="cls-6" points="30.274 97.072 30.736 97.263 29.794 99.541 32.135 100.314 31.977 100.789 29.126 99.846 30.274 97.072"/>
          </g>
        </g>
        <g class="cls-4">
          <g>
            <line class="cls-5" x1="38.903" y1="58.529" x2="33.068" y2="53.512"/>
            <polygon class="cls-6" points="35.657 53.042 35.677 53.542 33.214 53.637 33.489 56.087 32.991 56.143 32.657 53.158 35.657 53.042"/>
          </g>
        </g>
        <g class="cls-4">
          <g>
            <line class="cls-5" x1="120.98" y1="31.909" x2="127.047" y2="26.31"/>
            <polygon class="cls-6" points="127.216 28.936 126.717 28.898 126.906 26.44 124.441 26.432 124.443 25.931 127.446 25.942 127.216 28.936"/>
          </g>
        </g>
        <g class="cls-4">
          <g>
            <line class="cls-5" x1="120.233" y1="59.399" x2="126.244" y2="56.885"/>
            <polygon class="cls-6" points="125.504 59.411 125.049 59.205 126.067 56.96 123.753 56.108 123.927 55.638 126.745 56.677 125.504 59.411"/>
          </g>
        </g>
        <g class="cls-4">
          <g>
            <line class="cls-5" x1="136.052" y1="95.577" x2="139.859" y2="89.274"/>
            <polygon class="cls-6" points="140.753 91.749 140.263 91.852 139.76 89.439 137.39 90.117 137.252 89.635 140.14 88.81 140.753 91.749"/>
          </g>
        </g>
        <g class="cls-4">
          <g>
            <line class="cls-5" x1="165.584" y1="96.499" x2="159.412" y2="89.625"/>
            <polygon class="cls-6" points="162.041 89.491 161.996 89.99 159.541 89.767 159.498 92.232 158.998 92.223 159.05 89.221 162.041 89.491"/>
          </g>
        </g>
        <g class="cls-4">
          <g>
            <line class="cls-5" x1="146.63" y1="65.399" x2="146.271" y2="68.193"/>
            <polygon class="cls-6" points="144.454 66.289 144.86 65.998 146.295 68.003 148.19 66.426 148.51 66.811 146.201 68.731 144.454 66.289"/>
          </g>
        </g>
        <g class="cls-4">
          <g>
            <line class="cls-5" x1="106.986" y1="75.508" x2="112.302" y2="78.153"/>
            <polygon class="cls-6" points="109.907 79.245 109.765 78.766 112.13 78.068 111.261 75.76 111.729 75.584 112.787 78.395 109.907 79.245"/>
          </g>
        </g>
        <g class="cls-4">
          <g>
            <line class="cls-5" x1="74.58" y1="99.478" x2="78.261" y2="102.82"/>
            <polygon class="cls-6" points="75.66 103.22 75.653 102.72 78.118 102.691 77.91 100.235 78.408 100.193 78.662 103.185 75.66 103.22"/>
          </g>
        </g>
        <g class="cls-4">
          <g>
            <line class="cls-7" x1="35.411" y1="96.967" x2="41.601" y2="103.541"/>
            <polygon class="cls-8" points="38.976 103.737 39.009 103.237 41.469 103.402 41.453 100.936 41.954 100.934 41.972 103.937 38.976 103.737"/>
          </g>
        </g>
        <g class="cls-4">
          <g>
            <line class="cls-7" x1="38.903" y1="58.529" x2="31.799" y2="65.041"/>
            <polygon class="cls-8" points="31.639 62.414 32.137 62.453 31.94 64.911 34.406 64.928 34.402 65.429 31.399 65.407 31.639 62.414"/>
          </g>
        </g>
        <g class="cls-4">
          <polygon class="cls-8" points="122.207 33.728 121.712 33.799 121.364 31.358 118.955 31.884 118.848 31.395 121.782 30.755 122.207 33.728"/>
        </g>
        <g class="cls-4">
          <g>
            <line class="cls-7" x1="120.233" y1="59.399" x2="118.877" y2="51.055"/>
            <polygon class="cls-8" points="121.161 52.362 120.854 52.758 118.908 51.244 117.541 53.296 117.125 53.018 118.79 50.52 121.161 52.362"/>
          </g>
        </g>
        <g class="cls-4">
          <g>
            <line class="cls-7" x1="136.052" y1="95.577" x2="129.731" y2="89.703"/>
            <polygon class="cls-8" points="132.337 89.333 132.337 89.834 129.872 89.834 130.052 92.293 129.553 92.329 129.334 89.334 132.337 89.333"/>
          </g>
        </g>
        <g class="cls-4">
          <g>
            <line class="cls-7" x1="165.584" y1="96.499" x2="162.831" y2="102.134"/>
            <polygon class="cls-8" points="161.72 99.748 162.199 99.602 162.914 101.962 165.216 101.076 165.395 101.543 162.592 102.621 161.72 99.748"/>
          </g>
        </g>
        <g class="cls-4">
          <g>
            <line class="cls-7" x1="146.63" y1="65.399" x2="156.255" y2="69.083"/>
            <polygon class="cls-8" points="153.977 70.4 153.789 69.936 156.075 69.014 154.989 66.801 155.438 66.581 156.761 69.277 153.977 70.4"/>
          </g>
        </g>
        <g class="cls-4">
          <g>
            <line class="cls-7" x1="106.986" y1="75.508" x2="114.276" y2="69.94"/>
            <polygon class="cls-8" points="114.2 72.57 113.707 72.486 114.123 70.057 111.669 69.819 111.718 69.321 114.707 69.611 114.2 72.57"/>
          </g>
        </g>
        <g class="cls-4">
          <g>
            <line class="cls-7" x1="74.58" y1="99.478" x2="82.632" y2="95.149"/>
            <polygon class="cls-8" points="82.14 97.735 81.667 97.574 82.463 95.241 80.077 94.617 80.204 94.133 83.109 94.893 82.14 97.735"/>
          </g>
        </g>
      </g>
      <g>
        <path class="Surface-visible" d="M302.8,133.811c-.475-1.008-.543-1.208-.948-2.245s-.482-1.236-.841-2.288c-.263-.769-.508-1.543-.749-2.319s-.465-1.557-.682-2.34a31.9,31.9,0,0,0-9.168-.036,37.256,37.256,0,0,0-4.492.978,38.807,38.807,0,0,0-4.311,1.595,41.847,41.847,0,0,0-4.015,2.047c-.65.376-1.287.771-1.924,1.169s-1.266.8-1.886,1.224c-1.084.74-2.583,1.816-3.637,2.6-1.01.75-2.535,1.916-3.529,2.687-1.249.968-2.486,1.952-3.727,2.931q-1.645,1.3-3.3,2.579c-.605.469-1.212.935-1.816,1.4s-1.216.945-1.825,1.416q-1.733,1.338-3.47,2.672c-2.971,2.29-4.874,3.761-7.879,6.007-.59.441-1.186.876-1.782,1.31-.465.34-.931.678-1.4,1.009-.725.507-1.452,1.013-2.189,1.5-.391.262-.789.511-1.186.764-1.57,1-2.738,1.718-4.388,2.587-.522.275-1.042.554-1.572.813-.745.364-1.794.844-2.56,1.163-.557.233-1.122.446-1.685.664-.694.268-1.4.5-2.109.719-.777.239-1.555.465-2.347.65-.267.063-.534.122-.8.182-.3.069-.607.137-.913.2-.869.173-1.744.294-2.622.4-.686.084-1.292.139-1.982.173a30.689,30.689,0,0,1-4.687-.076c-.658-.061-1.313-.133-1.965-.241-.366-.06-.729-.131-1.092-.205-.471-.1-.941-.2-1.408-.309-.387-.093-.771-.195-1.151-.312-.285-.088-.568-.184-.85-.279s-.537-.176-.8-.27q-.525-.185-1.036-.4c-.449-.19-.891-.391-1.332-.6-.358-.168-.714-.339-1.064-.523-.537-.281-1.051-.6-1.561-.923a24.271,24.271,0,0,1-3.629-2.811,17.832,17.832,0,0,1-1.348-1.36c-.54-.6-1.247-1.423-1.727-2.078-.186-.255-.362-.517-.534-.782-.155-.241-.312-.482-.468-.723-.188-.293-.37-.589-.542-.892-.23-.406-.442-.82-.648-1.238-.331-.669-.642-1.344-.909-2.042-.229-.6-.437-1.2-.617-1.815a24.393,24.393,0,0,1-.84-4.405c-.077-.706-.107-1.413-.117-2.122a24.192,24.192,0,0,1,.065-2.554c.028-.309.066-.617.1-.925.041-.348.084-.695.135-1.041.127-.865.306-1.715.517-2.563a27.817,27.817,0,0,1,1.317-3.967c.314-.76.644-1.509,1.029-2.236.287-.541.6-1.063.923-1.585.389-.636.806-1.251,1.245-1.853.481-.661.974-1.311,1.512-1.928.442-.507.9-1,1.369-1.479.636-.654,1.3-1.277,1.979-1.887l-15.326-13.178a47.225,47.225,0,0,0-4.115,4.037,41.454,41.454,0,0,0-3.566,4.585,40.7,40.7,0,0,0-2.9,5.045,45.615,45.615,0,0,0-2.125,5.4,40.5,40.5,0,0,0-1.364,5.718,41.047,41.047,0,0,0-.534,5.8,40.391,40.391,0,0,0,1.412,11.371,37.2,37.2,0,0,0,2.017,5.5,37.583,37.583,0,0,0,2.8,5.087,38.013,38.013,0,0,0,3.485,4.6,42.615,42.615,0,0,0,4.094,4.047,41.029,41.029,0,0,0,4.644,3.449,42.627,42.627,0,0,0,5.088,2.768,47.3,47.3,0,0,0,11.062,3.485,52.436,52.436,0,0,0,5.748.744,53.793,53.793,0,0,0,5.8.084,56.256,56.256,0,0,0,5.783-.521c1.919-.269,3.81-.64,5.693-1.091,1.907-.458,3.786-.993,5.645-1.619s3.658-1.321,5.45-2.087c1.775-.758,3.511-1.591,5.224-2.478,1.695-.878,3.36-1.8,5-2.783,1.573-.945,3.537-2.192,5.063-3.21,1.567-1.045,3.227-2.2,4.756-3.3,1.057-.76,3.695-2.689,4.741-3.463q2.234-1.655,4.452-3.326c1.489-1.121,2.991-2.226,4.478-3.349s2.986-2.248,4.475-3.377c1.568-1.188,3.117-2.4,4.687-3.584q1.219-.918,2.45-1.821t2.491-1.787c1.5-1.043,2.383-1.642,3.95-2.578.675-.4,1.35-.806,2.046-1.174.329-.174.661-.341,1-.5.372-.183.745-.364,1.123-.533.347-.155.7-.288,1.056-.423.381-.144.759-.295,1.144-.426.487-.165.977-.316,1.475-.446.154-.039.309-.076.465-.106.111-.023.223-.042.334-.065l.38-.083q.274-.057.55-.1c.467-.07.934-.122,1.4-.159.279-.022.558-.013.837-.014a15.108,15.108,0,0,1,1.519.067"/>
        <path class="Surface-visible" d="M285.518,140.358c-.5-1.3-.729-1.917-1.164-3.242-.359-1.091-.7-2.186-1.024-3.29s-.612-2.213-.908-3.322c-.4-1.511-.489-1.818-.821-3.345-.307-1.411-.626-2.818-.9-4.234s-.521-2.837-.745-4.263c-.215-1.376-.411-2.908-.554-4.293q-.221-2.155-.33-4.318a63.856,63.856,0,0,1,.142-8.649c.124-1.44.307-2.867.561-4.29a24.278,24.278,0,0,1,.657-2.814c.049-.159.1-.318.157-.474.038-.1.08-.2.122-.3a2.625,2.625,0,0,1,.29-.543l16.322-15.065a1.527,1.527,0,0,0-.121.259c-.051.13-.093.263-.133.4-.117.387-.218.778-.306,1.174-.125.567-.232,1.138-.333,1.71-.129.738-.237,1.478-.336,2.22q-.181,1.353-.313,2.711c-.1,1.056-.188,2.112-.255,3.17-.06.947-.1,1.894-.131,2.842-.035,1.022-.057,2.045-.059,3.068q-.006,2.957.176,5.906t.533,5.886c.255,2.107.511,3.755.886,5.844.446,2.489.639,3.321,1.2,5.786.1.457.2.914.3,1.37q.164.735.356,1.462c.255.968.527,1.931.8,2.9.217.783.441,1.563.682,2.34s.486,1.55.749,2.319c.359,1.052.436,1.253.841,2.288s.473,1.237.948,2.245h0a15.108,15.108,0,0,0-1.519-.067c-.279,0-.558-.008-.837.014-.47.037-.937.089-1.4.159q-.276.04-.55.1l-.38.083c-.111.023-.223.042-.334.065-.156.03-.311.067-.465.106-.5.13-.988.281-1.475.446-.385.131-.763.282-1.144.426-.354.135-.709.268-1.056.423-.378.169-.751.35-1.123.533-.334.164-.666.331-1,.5-.7.368-1.371.771-2.046,1.174-1.567.936-2.454,1.535-3.95,2.578"/>
        <path class="Surface-visible" d="M326.675,148.075c-.1-.473-.2-.943-.318-1.41s-.266-.955-.427-1.424a24.9,24.9,0,0,0-1.183-2.864,28.119,28.119,0,0,0-3.584-5.567,28.5,28.5,0,0,0-2.074-2.28q-1.124-1.11-2.334-2.122c-.819-.685-1.668-1.327-2.545-1.936s-1.8-1.18-2.731-1.713-1.87-1.025-2.847-1.462-1.958-.827-2.963-1.178-2-.647-3.03-.895-2.031-.451-3.062-.605c.217.783.441,1.563.682,2.34s.486,1.55.749,2.319c.359,1.052.436,1.253.841,2.288s.473,1.237.948,2.245h0a7.424,7.424,0,0,1,.741.106q.366.072.731.158a7.491,7.491,0,0,1,1.426.438l.006.006s.011.009.008,0l-.017-.016c0-.009.01,0,.016,0a.26.26,0,0,1,.053.014,2.464,2.464,0,0,1,.291.134c.116.059.232.12.347.181l.345.187c.115.063.23.124.342.192.023.014.044.031.066.044.09.053.177.111.262.171.107.075.212.152.317.231a5.989,5.989,0,0,1,.6.5l.008.009-.048-.057-.029-.038-.014-.019-.01-.014s-.006,0,0-.006.016.013.02.016l.055.057.071.076c.048.051.1.1.142.154l.281.309,0-.017c.01,0,.022.023.026.028.022.025.043.051.063.077s.057.073.084.111c.054.074.1.151.154.229a5.3,5.3,0,0,1,.271.482l.018-.008,0,.007.008.023.039.1.05.133c.033.089.065.178.1.266.023.063.045.125.068.187l0-.008c0-.027-.007-.055-.009-.083s0-.028,0-.042l0-.021s0-.021.007-.017.009.016.011.025a.513.513,0,0,1,.013.066c0,.031.01.062.014.093s.01.083.014.125l.027.076c.012.035.024.07.033.106a.093.093,0,0,1,0,.023v.006l-.06-.186,0,.038c.013.125.026.25.037.375l.023-.006h0c.017.014.008.121.007.136,0,.046-.009.091-.016.137a.967.967,0,0,1-.071.263l-.141.269.031-.005c0,.007-.015.034-.017.038l-.036.008c-.034.064-.069.128-.1.193l-.028.009c-.033.033-.067.065-.1.1l.025.029c0,.006,0,0-.008,0l-.021.012-.028.015-.058.031-.116.062v0l-.012.007-.006,0s-.008,0-.006,0l0-.009c-.139.07-.277.14-.419.205l-.087.032c0-.007,0-.006.009-.009l.027-.017.04-.022.082-.038a1.713,1.713,0,0,1,.168-.065l-.154.041h-.014l-.039,0-.054,0c-.035,0-.071,0-.107,0a1.933,1.933,0,0,1-.215-.009l0,.034c-.167-.054-.335-.106-.5-.159l-.1-.031h0a1.474,1.474,0,0,1,.2.113l.028.024c0,.011-.011,0-.017,0a.574.574,0,0,1-.071-.033l-.087-.046c-.058-.031-.115-.063-.172-.095l-.034-.011c-.042-.014-.084-.027-.125-.042s-.063-.021-.094-.033l-.022-.01s-.007,0-.006-.005l.082-.012-.146-.083-.009.016c0-.006,0-.005-.007-.007l-.022-.016-.031-.021-.062-.043-.124-.085-.007.017-.015-.01s-.016-.006-.014-.011l.01-.014a6.66,6.66,0,0,1-1.344-1.23,6.234,6.234,0,0,1-.587-.7c-.17-.253-.342-.5-.513-.755s-.347-.5-.5-.765c-.069-.115-.13-.235-.192-.354-.079-.151-.163-.3-.245-.448-.293-.535-.554-1.085-.814-1.636a15,15,0,0,0-1.514-.067c-.279,0-.558-.008-.837.014-.47.037-.937.089-1.4.159q-.276.04-.55.1l-.38.083c-.111.023-.223.042-.334.064-.156.031-.311.067-.465.107-.5.13-.988.281-1.475.446-.385.131-.763.282-1.144.426-.354.135-.709.268-1.056.423-.378.169-.751.349-1.123.533-.334.164-.666.331-1,.5-.7.368-1.371.771-2.046,1.174-1.567.936-2.454,1.535-3.95,2.578l-.006,0c.453,1.175.685,1.775,1.208,2.921.438.961.887,1.916,1.383,2.849.448.843,1.063,1.946,1.573,2.753.438.692,1.3,1.958,1.781,2.62.63.867,1.306,1.692,2.017,2.492s1.433,1.57,2.207,2.3a32.769,32.769,0,0,0,4.932,3.857,25.141,25.141,0,0,0,2.9,1.618,24.738,24.738,0,0,0,2.983,1.24,22.3,22.3,0,0,0,5.974,1.206,20.253,20.253,0,0,0,3.376-.106,15.352,15.352,0,0,0,3.1-.759,12.445,12.445,0,0,0,4.991-3.377,12.106,12.106,0,0,0,1.658-2.409,12.678,12.678,0,0,0,1.4-6.034A16.319,16.319,0,0,0,326.675,148.075Zm-16.836-8.9c-.032.064-.067.127-.1.19l.025-.063c.014-.027.029-.054.044-.081l.023-.04.011-.02.009-.015,0,0Z"/>
        <path class="Dashed-gray-line" d="M310.355,136.868h-.088"/>
        <path class="Dashed-gray-line" d="M310.221,136.867c-.36,0-.721,0-1.081,0"/>
        <path class="Dashed-gray-line" d="M310.967,138.2l-.219-.073"/>
        <path class="Dashed-gray-line" d="M310.257,137.875q.386.155.773.305"/>
        <path class="Dashed-gray-line" d="M310.569,138.641q1.022.639,2.052,1.265"/>
        <path class="Dashed-gray-line" d="M312.332,139.852q-.976-.492-1.961-.968"/>
        <path class="Dashed-gray-line" d="M311.924,140.592c-.649-.474-1.3-.941-1.957-1.407"/>
        <path class="Dashed-gray-line" d="M310.423,139.8l.415.48"/>
        <path class="Dashed-gray-line" d="M309.87,139.162l.5.576"/>
        <path class="Dashed-gray-line" d="M313.22,143.03q-.932-.984-1.876-1.955"/>
        <path class="Dashed-gray-line" d="M311.312,141.042l-.718-.735"/>
        <path class="Dashed-gray-line" d="M310.342,140.672q1.143,1.645,2.313,3.274"/>
        <path class="Dashed-gray-line" d="M311.312,142.246q-.857-1.09-1.72-2.176"/>
        <path class="Dashed-gray-line" d="M309.432,140.15c.633,1.36,1.269,2.718,1.92,4.069"/>
        <path class="Dashed-gray-line" d="M310.4,143.776c.319,1.1.644,2.2.984,3.3"/>
        <path class="Dashed-gray-line" d="M311.294,147.028c-.443-1.152-.9-2.3-1.368-3.439"/>
        <path class="Dashed-gray-line" d="M309.512,144.771q-.231-1.083-.476-2.162"/>
        <path class="Dashed-gray-line" d="M309.035,142.606q-.262-1.163-.533-2.323"/>
        <path class="Dashed-gray-line" d="M308.366,140.306q-.082,1.3-.157,2.6"/>
        <path class="Dashed-gray-line" d="M308.209,142.911c-.056.991-.108,1.983-.147,2.976"/>
        <path class="Dashed-gray-line" d="M308,142.545q-.018-.877-.043-1.754"/>
        <path class="Dashed-gray-line" d="M307.77,141.017c-.332,1.3-.655,2.6-.952,3.907"/>
        <path class="Dashed-gray-line" d="M306.682,145.2c.23-1.614.425-3.231.613-4.85"/>
        <path class="Dashed-gray-line" d="M305.594,143.883c.3-.861.59-1.727.875-2.594"/>
        <path class="Dashed-gray-line" d="M306.9,140.766c-.434,1.034-.865,2.069-1.278,3.111"/>
        <path class="Dashed-gray-line" d="M306.483,141.248q.25-.759.5-1.52"/>
        <path class="Dashed-gray-line" d="M285.518,140.358c-.5-1.3-.729-1.917-1.164-3.242-.359-1.091-.7-2.186-1.024-3.29s-.612-2.213-.908-3.322c-.4-1.511-.489-1.818-.821-3.345"/>
        <path class="Dashed-gray-line" d="M299.577,124.619c.217.783.441,1.563.682,2.34s.486,1.55.749,2.319c.359,1.052.436,1.253.841,2.288s.473,1.237.948,2.245"/>
        <path class="Dashed-gray-line" d="M312.013,141.634q.611.7,1.228,1.394"/>
        <path class="Dashed-gray-line" d="M312.645,143.962c-.44-.574-.886-1.145-1.332-1.715"/>
        <path class="Dashed-gray-line" d="M311.654,144.875q-.726-1.392-1.476-2.772"/>
        <path class="Dashed-gray-line" d="M310.151,142.053q-.438-.811-.883-1.62"/>
        <path class="Dashed-gray-line" d="M309.369,140.149q.315,1.128.636,2.255"/>
        <path class="Dashed-gray-line" d="M309.451,142.428q-.423-1.026-.85-2.052"/>
        <path class="Dashed-gray-line" d="M308.777,140.295c.236,1.489.482,2.976.75,4.459"/>
        <path class="Dashed-gray-line" d="M308.038,145.9c0-1.1-.017-2.2-.039-3.295"/>
        <path class="Solid-gray-line" d="M198.92,119.6c-.679.61-1.343,1.233-1.979,1.887-.469.482-.927.972-1.369,1.479-.538.617-1.031,1.267-1.512,1.928-.439.6-.856,1.217-1.245,1.853-.319.522-.636,1.044-.923,1.585-.385.727-.715,1.476-1.029,2.236a27.817,27.817,0,0,0-1.317,3.967c-.211.848-.39,1.7-.517,2.563-.051.346-.094.693-.135,1.041-.037.308-.075.616-.1.925a24.192,24.192,0,0,0-.065,2.554c.01.709.04,1.416.117,2.122a24.393,24.393,0,0,0,.84,4.405c.18.614.388,1.218.617,1.815.267.7.578,1.373.909,2.042.206.418.418.832.648,1.238.172.3.354.6.542.892.156.241.313.482.468.723.172.265.348.527.534.782.48.655,1.187,1.475,1.727,2.078a17.832,17.832,0,0,0,1.348,1.36,24.271,24.271,0,0,0,3.629,2.811c.51.325,1.024.642,1.561.923.35.184.706.355,1.064.523.441.207.883.408,1.332.6q.511.218,1.036.4c.266.094.535.18.8.27s.565.191.85.279c.38.117.764.219,1.151.312.467.112.937.213,1.408.309.363.074.726.145,1.092.205.652.108,1.307.18,1.965.241a30.689,30.689,0,0,0,4.687.076c.69-.034,1.3-.089,1.982-.173.878-.108,1.753-.229,2.622-.4.306-.06.609-.128.913-.2.267-.06.534-.119.8-.182.792-.185,1.57-.411,2.347-.65.71-.218,1.415-.451,2.109-.719.563-.218,1.128-.431,1.685-.664.766-.319,1.815-.8,2.56-1.163.53-.259,1.05-.538,1.572-.813,1.65-.869,2.818-1.583,4.388-2.587.4-.253.8-.5,1.186-.764.737-.491,1.464-1,2.189-1.5.472-.331.938-.669,1.4-1.009.6-.434,1.192-.869,1.782-1.31,3.005-2.246,4.908-3.717,7.879-6.007q1.734-1.336,3.47-2.672.913-.706,1.825-1.416c.6-.469,1.211-.935,1.816-1.4q1.657-1.282,3.3-2.579c1.241-.979,2.478-1.963,3.727-2.931.994-.771,2.519-1.937,3.529-2.687,1.054-.783,2.553-1.859,3.637-2.6.62-.423,1.25-.827,1.886-1.224s1.274-.793,1.924-1.169a41.847,41.847,0,0,1,4.015-2.047"/>
        <line class="Solid-gray-line" x1="280.997" y1="92.983" x2="297.319" y2="77.918"/>
        <path class="Solid-gray-line" d="M297.319,77.918a1.527,1.527,0,0,0-.121.259c-.051.13-.093.263-.133.4-.117.387-.218.778-.306,1.174-.125.567-.232,1.138-.333,1.71-.129.738-.237,1.478-.336,2.22q-.181,1.353-.313,2.711c-.1,1.056-.188,2.112-.255,3.17-.06.947-.1,1.894-.131,2.842-.035,1.022-.057,2.045-.059,3.068q-.006,2.957.176,5.906t.533,5.886c.255,2.107.511,3.755.886,5.844.446,2.489.639,3.321,1.2,5.786.1.457.2.914.3,1.37q.164.735.356,1.462c.255.968.527,1.931.8,2.9"/>
        <line class="Solid-gray-line" x1="183.594" y1="106.425" x2="198.92" y2="119.603"/>
        <path class="Solid-gray-line" d="M309.65,137.632l.164.066"/>
        <path class="Solid-gray-line" d="M309.727,138.113l.226.142"/>
        <path class="Solid-gray-line" d="M309.817,138.834l.134.112"/>
        <path class="Solid-gray-line" d="M305.7,134.512l.007.007s.011.009.008,0"/>
        <path class="Solid-gray-line" d="M308.375,136.2s0,0,0,0l0-.006"/>
        <path class="Solid-gray-line" d="M309.694,138.092c-.007,0-.007.013-.007.017l0,.021c0,.014,0,.028,0,.042s0,.056.009.083"/>
        <path class="Solid-gray-line" d="M309.817,138.834h0"/>
        <path class="Solid-gray-line" d="M309.11,140.145s0,0,.006,0l.006,0,.012-.007"/>
        <path class="Solid-gray-line" d="M281.6,127.159c-.307-1.411-.626-2.818-.9-4.234s-.521-2.837-.745-4.263c-.215-1.376-.411-2.908-.554-4.293q-.221-2.155-.33-4.318a63.856,63.856,0,0,1,.142-8.649c.124-1.44.307-2.867.561-4.29a24.278,24.278,0,0,1,.657-2.814c.049-.159.1-.318.157-.474.038-.1.08-.2.122-.3a2.625,2.625,0,0,1,.29-.543"/>
        <path class="Solid-gray-line" d="M299.577,124.619c1.031.154,2.049.36,3.062.605s2.033.547,3.03.895,1.991.743,2.963,1.178,1.919.933,2.847,1.462,1.847,1.1,2.731,1.713,1.726,1.251,2.545,1.936,1.585,1.382,2.334,2.122a28.5,28.5,0,0,1,2.074,2.28,28.029,28.029,0,0,1,3.584,5.567,24.9,24.9,0,0,1,1.183,2.864q.242.7.427,1.424c.119.467.223.937.318,1.41a16.319,16.319,0,0,1,.333,3.457,12.678,12.678,0,0,1-1.4,6.034,12.106,12.106,0,0,1-1.658,2.409,12.445,12.445,0,0,1-4.991,3.377,15.352,15.352,0,0,1-3.1.759,20.253,20.253,0,0,1-3.376.106,22.31,22.31,0,0,1-5.974-1.206,24.738,24.738,0,0,1-2.983-1.24,25.225,25.225,0,0,1-2.9-1.618,32.769,32.769,0,0,1-4.932-3.857c-.774-.733-1.5-1.506-2.207-2.3s-1.387-1.626-2.017-2.492c-.482-.663-1.343-1.929-1.781-2.621-.51-.807-1.125-1.91-1.573-2.753-.5-.933-.945-1.888-1.383-2.849-.523-1.146-.755-1.746-1.208-2.921"/>
        <path class="Solid-gray-line" d="M281.606,127.156a38.807,38.807,0,0,1,4.311-1.595,37.256,37.256,0,0,1,4.492-.978,31.9,31.9,0,0,1,9.168.036"/>
        <path class="Solid-gray-line" d="M307.02,139.717l.124.085.062.043.031.021.022.016s.01,0,.007.007"/>
        <path class="Solid-gray-line" d="M302.8,133.811c.26.551.521,1.1.814,1.636.082.149.166.3.245.448.062.119.123.239.192.355.155.263.329.512.5.764s.343.5.513.755a6.342,6.342,0,0,0,.587.7,6.66,6.66,0,0,0,1.344,1.23"/>
        <path class="Solid-gray-line" d="M285.524,140.354q-1.259.877-2.491,1.787t-2.45,1.821c-1.57,1.184-3.119,2.4-4.687,3.584q-2.234,1.694-4.475,3.377c-1.487,1.123-2.989,2.228-4.478,3.349s-2.963,2.223-4.452,3.326c-1.046.774-3.684,2.7-4.741,3.463-1.529,1.1-3.189,2.257-4.756,3.3-1.526,1.018-3.49,2.265-5.063,3.21-1.636.982-3.3,1.905-5,2.783-1.713.887-3.449,1.72-5.224,2.478-1.792.766-3.6,1.464-5.45,2.087s-3.738,1.161-5.645,1.619c-1.883.451-3.774.822-5.693,1.091a56.256,56.256,0,0,1-5.783.521,53.793,53.793,0,0,1-5.8-.084,52.436,52.436,0,0,1-5.748-.744,47.3,47.3,0,0,1-11.062-3.485,42.627,42.627,0,0,1-5.088-2.768,41.029,41.029,0,0,1-4.644-3.449,42.615,42.615,0,0,1-4.094-4.047,38.013,38.013,0,0,1-3.485-4.6,37.583,37.583,0,0,1-2.8-5.087,37.2,37.2,0,0,1-2.017-5.5,40.391,40.391,0,0,1-1.412-11.371,41.047,41.047,0,0,1,.534-5.8,40.5,40.5,0,0,1,1.364-5.718,45.615,45.615,0,0,1,2.125-5.4,40.7,40.7,0,0,1,2.9-5.045,41.454,41.454,0,0,1,3.566-4.585,47.225,47.225,0,0,1,4.115-4.037"/>
        <path class="Solid-gray-line" d="M302.8,133.811a15.108,15.108,0,0,0-1.519-.067c-.279,0-.558-.008-.837.014-.47.037-.937.089-1.4.159q-.276.04-.55.1l-.38.083c-.111.023-.223.042-.334.065-.156.03-.311.067-.465.106-.5.13-.988.281-1.475.446-.385.131-.763.282-1.144.426-.354.135-.709.268-1.056.423-.378.169-.751.35-1.123.533-.334.164-.666.331-1,.5-.7.368-1.371.771-2.046,1.174-1.567.936-2.454,1.535-3.95,2.578"/>
        <path class="Solid-gray-line" d="M305.7,134.514a7.436,7.436,0,0,0-1.429-.439q-.365-.085-.731-.158a7.424,7.424,0,0,0-.741-.106"/>
        <path class="Solid-gray-line" d="M308.339,136.156a5.989,5.989,0,0,0-.6-.5c-.105-.079-.21-.156-.317-.231-.085-.06-.172-.118-.262-.171-.022-.013-.043-.03-.066-.044-.112-.068-.227-.129-.342-.192s-.229-.125-.345-.187-.231-.122-.347-.181a2.636,2.636,0,0,0-.291-.134.26.26,0,0,0-.053-.014c-.006,0-.013,0-.016,0"/>
        <path class="Solid-gray-line" d="M309.61,139.672s.021-.031.017-.038"/>
        <path class="Solid-gray-line" d="M309.341,139.978c.036-.03.07-.063.1-.1"/>
        <path class="Solid-gray-line" d="M307.013,139.734l-.015-.01s-.016-.006-.014-.011"/>
        <path class="Solid-gray-line" d="M308.244,136.031s0,0,0,.006l.01.014.014.019.029.038c.02.024.04.049.061.073"/>
        <path class="Solid-gray-line" d="M308.813,136.643l-.281-.309c-.047-.051-.094-.1-.142-.154l-.071-.076-.055-.057s-.012-.017-.02-.016"/>
        <path class="Solid-gray-line" d="M309.414,137.553a5.3,5.3,0,0,0-.271-.482c-.05-.078-.1-.154-.154-.229-.027-.038-.055-.074-.084-.111s-.041-.052-.063-.077c0,0-.016-.027-.026-.028"/>
        <path class="Solid-gray-line" d="M309.809,138.612v-.006a.093.093,0,0,0,0-.023c-.009-.036-.021-.071-.033-.106s-.031-.089-.047-.134q-.047-.133-.1-.267c-.033-.088-.065-.177-.1-.266l-.05-.133-.039-.1-.008-.023,0-.007"/>
        <path class="Solid-gray-line" d="M309.791,138.839c-.011-.125-.024-.25-.037-.375-.007-.063-.014-.125-.022-.188,0-.031-.009-.062-.014-.093a.513.513,0,0,0-.013-.066c0-.009,0-.018-.011-.025"/>
        <path class="Solid-gray-line" d="M309.855,139.144l0,0-.009.015-.011.02-.023.04c-.015.027-.03.054-.044.081"/>
        <path class="Solid-gray-line" d="M309.737,139.372a.971.971,0,0,0,.071-.265,1.249,1.249,0,0,0,.016-.137c0-.014.01-.122-.007-.136"/>
        <path class="Solid-gray-line" d="M309.472,139.873c.119-.234.248-.462.367-.7"/>
        <path class="Solid-gray-line" d="M309.366,140.007c0,.006,0,0-.008,0l-.021.012-.028.015-.058.031-.116.062"/>
        <path class="Solid-gray-line" d="M308.926,140.222a1.713,1.713,0,0,0-.168.065l-.082.038-.04.022-.027.017s-.012,0-.009.009"/>
        <path class="Solid-gray-line" d="M308.687,140.341c.142-.065.28-.135.419-.205"/>
        <path class="Solid-gray-line" d="M308.77,140.243c.1-.013.465-.061.564-.082"/>
        <path class="Solid-gray-line" d="M308.344,140.263a1.9,1.9,0,0,0,.214.009c.036,0,.072,0,.107,0l.054,0,.039,0h.014"/>
        <path class="Solid-gray-line" d="M307.939,140.22a1.474,1.474,0,0,0-.2-.113"/>
        <path class="Solid-gray-line" d="M307.339,139.968c0,.005,0,0,.006.005l.022.01c.031.012.062.023.094.033l.125.042.251.08c.168.053.336.1.5.159"/>
        <path class="Solid-gray-line" d="M307.275,139.873c.114.066.229.131.344.2l.173.1.087.046a.574.574,0,0,0,.071.033c.006,0,.022.012.017,0"/>
        <polyline class="cls-1" points="198.92 119.603 198.638 119.879 198.226 120.232 197.734 120.704 196.953 121.454 196.385 122.067 195.749 122.754 195.01 123.652 194.62 124.125 193.801 125.247 193.571 125.563 193.405 125.821 192.607 127.062 191.869 128.377 191.74 128.614 191.072 130.047 190.998 130.206 190.923 130.396 190.355 131.836 189.956 133.059 189.813 133.498 189.527 134.605 189.377 135.184 189.244 135.87 189.047 136.888 188.937 137.749 188.827 138.601 188.78 139.335 188.717 140.318 188.717 141.468 188.718 142.03 188.803 143.323 188.829 143.731 188.875 144.075 189.052 145.413 189.362 146.965 189.383 147.07 189.407 147.159 189.699 148.238 189.833 148.694 189.848 148.736 190.411 150.272 190.968 151.528 191.09 151.802 191.258 152.119 191.868 153.277 192.446 154.216 192.741 154.693 193.302 155.48 193.705 156.044 194.232 156.686 194.756 157.325 195.443 158.057 195.89 158.532 196.749 159.334 197.101 159.661 197.416 159.918 198.385 160.709 198.595 160.858 199.736 161.671 200.641 162.231 201.163 162.545 202.468 163.22 202.667 163.323 203.857 163.847 204.219 164.007 204.706 164.186 205.813 164.595 206.54 164.814 207.444 165.086 208.428 165.32 209.105 165.481 210.366 165.703 210.79 165.778 212.345 165.961 212.493 165.978 213.348 166.03 214.23 166.08 215.629 166.082 215.995 166.083 216.541 166.055 217.759 165.992 218.701 165.894 219.517 165.808 220.878 165.595 221.262 165.534 221.524 165.479 222.7 165.233 222.944 165.183 222.998 165.172 224.374 164.819 224.758 164.72 225.424 164.516 226.49 164.188 227.121 163.961 228.19 163.578 229.24 163.146 229.727 162.951 229.876 162.891 230.179 162.755 231.564 162.132 232.245 161.79 233.207 161.309 234.018 160.86 234.84 160.421 235.761 159.883 236.462 159.475 237.723 158.676 238.048 158.478 238.377 158.263 239.65 157.43 240.747 156.662 241.051 156.457 241.224 156.341 242.053 155.75 242.81 155.21 243.018 155.053 243.336 154.815 243.979 154.348 244.403 154.041 244.923 153.647 245.641 153.103 245.997 152.842 247.14 151.976 247.619 151.613 247.755 151.507 248.585 150.874 249.277 150.347 249.472 150.196 249.694 150.024 250.948 149.061 251.633 148.53 252.167 148.119 252.657 147.742 253.064 147.429 253.494 147.099 254.401 146.397 255.302 145.709 256.16 145.04 257.108 144.314 257.959 143.642 258.915 142.918 259.804 142.215 260.261 141.866 260.742 141.498 261.557 140.842 262.602 140.042 262.984 139.732 263.349 139.436 264.514 138.543 265.127 138.041 265.765 137.552 266.501 136.987 266.709 136.816 266.89 136.668 267.653 136.085 268.595 135.365 268.639 135.329 269.579 134.618 270.362 134.025 270.848 133.688 272.067 132.775 272.563 132.439 273.321 131.924 273.594 131.724 273.774 131.593 274.517 131.103 275.471 130.476 276.12 130.095 276.788 129.673 277.164 129.435 277.896 129.028 278.878 128.481 279.048 128.398 279.412 128.222 280.585 127.612 281.519 127.194 282.318 126.837 283.478 126.4 284.072 126.16 285.186 125.791 285.825 125.578 287.088 125.244 287.62 125.104 288.789 124.87 289.429 124.733 289.674 124.697 291.231 124.464 292.121 124.387 293.062 124.305 293.617 124.29 294.916 124.256 295.135 124.263 296.18 124.297 296.769 124.314 298.186 124.439 298.595 124.475 299.163 124.558 300.426 124.744 301.283 124.92 302.254 125.119 303.561 125.463 304.071 125.597 305.694 126.119 305.872 126.177 306.892 126.565 307.539 126.816 307.629 126.85 309.042 127.485 309.329 127.614 309.675 127.792 310.989 128.468 311.979 129.043 312.602 129.406 313.401 129.928 314.161 130.424 315.048 131.07 315.658 131.515 316.12 131.89 317.089 132.674 318.198 133.671 318.447 133.894 319.626 135.068 319.726 135.167 319.801 135.25 320.635 136.171 320.913 136.485 321.877 137.702 321.984 137.838 322.097 137.999 322.959 139.225 323.613 140.28 323.835 140.637 324.062 141.056 324.609 142.067 325.011 142.935 325.277 143.508 325.536 144.171 325.839 144.95 326.085 145.726 326.293 146.386 326.429 146.948 326.638 147.808 326.715 148.267 326.873 149.21 326.972 150.278 327 150.582 327.017 151.728 327.019 151.919 327.009 152.081 326.933 153.214 326.779 154.222 326.737 154.458 326.442 155.546 326.415 155.643 326.375 155.751 325.993 156.77 325.901 156.958 325.473 157.834 325.036 158.544 324.86 158.83 324.621 159.145 324.158 159.754 323.708 160.238 323.372 160.6 322.939 160.983 322.506 161.366 322.106 161.657 321.567 162.048 321.215 162.257 320.56 162.643 320.269 162.781 319.491 163.149 318.503 163.513 318.364 163.564 318.239 163.598 317.188 163.885 317.165 163.89 316.926 163.934 315.945 164.104 314.866 164.207 314.658 164.227 313.677 164.249 313.338 164.257 312.471 164.216 311.991 164.193 311.253 164.109 310.625 164.036 310.03 163.929 309.246 163.787 308.806 163.678 307.859 163.445 307.587 163.36 306.472 163.012 305.754 162.741 305.164 162.517 305.075 162.483 303.952 161.984 303.672 161.86 302.764 161.395 302.287 161.151 301.603 160.753 300.926 160.36 300.473 160.063 299.596 159.488 299.378 159.328 298.4 158.611 298.297 158.536 297.263 157.702 297.003 157.493 296.563 157.099 295.757 156.377 294.901 155.528 294.563 155.192 293.747 154.293 293.413 153.935 292.635 153.011 292.291 152.602 291.596 151.682 291.237 151.208 291.073 150.964 290.651 150.34 290.35 149.915 290.233 149.75 289.658 148.84 289.271 148.228 289.014 147.767 288.462 146.781 288.386 146.654 288.318 146.524 287.525 145.016 286.848 143.543 286.78 143.407 286.743 143.333 286.292 142.297 285.987 141.596 285.839 141.199 285.6 140.556 285.292 139.819 285 138.995 284.646 138.001 284.575 137.76 284.246 136.8 284.023 136.15 283.72 135.085 283.449 134.272 283.241 133.518 282.962 132.507 282.937 132.429 282.918 132.371 282.803 131.942 282.406 130.46 282.36 130.253 282.299 129.984 282.075 129.163 281.902 128.531 281.808 128.069 281.688 127.48 281.559 126.962 281.458 126.553 281.123 124.955 281.054 124.683 280.891 123.886 280.665 122.774 280.639 122.612 280.603 122.385 280.433 121.516 280.31 120.888 280.237 120.413 280.13 119.716 280.002 119.024 279.809 117.705 279.733 117.187 279.704 116.908 279.501 115.392 279.354 113.894 279.322 113.628 279.234 112.614 279.173 111.915 279.102 110.618 279.075 110.242 279.062 109.933 279.006 108.629 278.999 108.155 278.984 107.061 278.985 107.042 278.985 106.993 278.989 105.957 278.99 105.57 279.01 104.88 279.031 104.136 279.049 103.812 279.106 102.765 279.108 102.73 279.2 101.482 279.264 100.814 279.316 100.273 279.363 99.881 279.453 99.139 279.578 98.282 279.6 98.126 279.605 98.091 279.729 97.342 279.763 97.139 279.865 96.605 279.928 96.276 280.02 95.861 280.099 95.502 280.153 95.29 280.272 94.822 280.302 94.721 280.444 94.236 280.498 94.082 280.61 93.754 280.735 93.453 280.769 93.373 280.87 93.181 280.918 93.089 280.997 92.983"/>
        <g class="cls-4">
          <g>
            <line class="cls-2" x1="195.428" y1="158.04" x2="191.245" y2="164.331"/>
            <polygon class="cls-3" points="190.46 161.819 190.954 161.738 191.351 164.171 193.749 163.596 193.865 164.083 190.945 164.782 190.46 161.819"/>
          </g>
        </g>
        <g class="cls-4">
          <g>
            <line class="cls-2" x1="198.92" y1="119.603" x2="195.875" y2="114.692"/>
            <polygon class="cls-3" points="198.486 115.022 198.354 115.505 195.976 114.855 195.501 117.274 195.01 117.177 195.589 114.231 198.486 115.022"/>
          </g>
        </g>
        <g class="cls-4">
          <g>
            <line class="cls-2" x1="280.997" y1="92.983" x2="275.382" y2="86.922"/>
            <polygon class="cls-3" points="278.008 86.748 277.972 87.247 275.513 87.063 275.509 89.528 275.009 89.527 275.014 86.524 278.008 86.748"/>
          </g>
        </g>
        <g class="cls-4">
          <g>
            <line class="cls-2" x1="280.25" y1="120.473" x2="274.006" y2="119.916"/>
            <polygon class="cls-3" points="275.837 118.026 276.145 118.421 274.197 119.933 275.847 121.765 275.474 122.1 273.466 119.868 275.837 118.026"/>
          </g>
        </g>
        <g>
          <line class="cls-2" x1="296.07" y1="156.651" x2="290.946" y2="159.238"/>
          <polygon class="cls-3" points="291.503 156.666 291.973 156.839 291.117 159.151 293.486 159.835 293.347 160.316 290.462 159.482 291.503 156.666"/>
        </g>
        <g class="cls-4">
          <g>
            <line class="cls-2" x1="325.601" y1="157.572" x2="318.406" y2="161.127"/>
            <polygon class="cls-3" points="318.985 158.56 319.453 158.737 318.578 161.042 320.94 161.747 320.797 162.226 317.92 161.367 318.985 158.56"/>
          </g>
        </g>
        <g class="cls-4">
          <g>
            <line class="cls-2" x1="306.647" y1="126.473" x2="302.847" y2="135.469"/>
            <polygon class="cls-3" points="301.608 133.147 302.078 132.975 302.921 135.292 305.17 134.282 305.375 134.738 302.636 135.968 301.608 133.147"/>
          </g>
        </g>
        <g class="cls-4">
          <g>
            <line class="cls-2" x1="267.003" y1="136.581" x2="270.285" y2="144.113"/>
            <polygon class="cls-3" points="267.748 143.411 267.948 142.952 270.208 143.938 271.025 141.612 271.497 141.778 270.501 144.611 267.748 143.411"/>
          </g>
        </g>
        <g class="cls-4">
          <g>
            <line class="cls-2" x1="234.597" y1="160.551" x2="237.307" y2="168.084"/>
            <polygon class="cls-3" points="234.822 167.218 235.051 166.773 237.242 167.904 238.21 165.636 238.67 165.833 237.49 168.595 234.822 167.218"/>
          </g>
        </g>
        <g>
          <line class="cls-5" x1="195.428" y1="158.04" x2="189.637" y2="160.694"/>
          <polygon class="cls-6" points="190.291 158.145 190.753 158.336 189.811 160.614 192.152 161.388 191.994 161.863 189.143 160.92 190.291 158.145"/>
        </g>
        <g>
          <line class="cls-5" x1="198.92" y1="119.603" x2="193.085" y2="114.586"/>
          <polygon class="cls-6" points="195.675 114.115 195.694 114.615 193.231 114.711 193.506 117.161 193.008 117.216 192.674 114.232 195.675 114.115"/>
        </g>
        <g class="cls-4">
          <g>
            <line class="cls-5" x1="280.997" y1="92.983" x2="287.064" y2="87.383"/>
            <polygon class="cls-6" points="287.234 90.01 286.735 89.972 286.923 87.514 284.458 87.505 284.46 87.005 287.463 87.016 287.234 90.01"/>
          </g>
        </g>
        <g class="cls-4">
          <g>
            <line class="cls-5" x1="280.25" y1="120.473" x2="286.261" y2="117.959"/>
            <polygon class="cls-6" points="285.522 120.485 285.066 120.279 286.084 118.034 283.771 117.181 283.944 116.712 286.762 117.75 285.522 120.485"/>
          </g>
        </g>
        <g class="cls-4">
          <g>
            <line class="cls-5" x1="296.07" y1="156.651" x2="299.876" y2="150.348"/>
            <polygon class="cls-6" points="300.77 152.823 300.28 152.926 299.777 150.512 297.407 151.19 297.27 150.709 300.157 149.884 300.77 152.823"/>
          </g>
        </g>
        <g>
          <line class="cls-5" x1="325.601" y1="157.572" x2="319.43" y2="150.698"/>
          <polygon class="cls-6" points="322.058 150.565 322.013 151.063 319.558 150.84 319.515 153.306 319.015 153.297 319.068 150.294 322.058 150.565"/>
        </g>
        <g>
          <line class="cls-5" x1="306.647" y1="126.473" x2="306.288" y2="129.267"/>
          <polygon class="cls-6" points="304.471 127.363 304.878 127.071 306.312 129.076 308.207 127.499 308.527 127.884 306.218 129.805 304.471 127.363"/>
        </g>
        <g>
          <line class="cls-5" x1="267.003" y1="136.581" x2="272.319" y2="139.226"/>
          <polygon class="cls-6" points="269.925 140.319 269.782 139.839 272.147 139.141 271.278 136.834 271.746 136.658 272.804 139.468 269.925 140.319"/>
        </g>
        <g>
          <line class="cls-5" x1="234.597" y1="160.551" x2="238.278" y2="163.893"/>
          <polygon class="cls-6" points="235.677 164.294 235.67 163.794 238.136 163.765 237.927 161.308 238.426 161.266 238.679 164.258 235.677 164.294"/>
        </g>
        <g class="cls-4">
          <g>
            <line class="cls-7" x1="195.428" y1="158.04" x2="201.618" y2="164.615"/>
            <polygon class="cls-8" points="198.993 164.81 199.026 164.311 201.486 164.476 201.471 162.01 201.971 162.007 201.989 165.01 198.993 164.81"/>
          </g>
        </g>
        <g class="cls-4">
          <g>
            <line class="cls-7" x1="198.92" y1="119.603" x2="191.816" y2="126.114"/>
            <polygon class="cls-8" points="191.656 123.487 192.155 123.527 191.957 125.984 194.423 126.002 194.419 126.502 191.416 126.48 191.656 123.487"/>
          </g>
        </g>
        <polygon class="cls-8" points="282.224 94.801 281.729 94.872 281.381 92.432 278.972 92.957 278.866 92.468 281.8 91.829 282.224 94.801"/>
        <g>
          <line class="cls-7" x1="280.25" y1="120.473" x2="278.894" y2="112.129"/>
          <polygon class="cls-8" points="281.178 113.436 280.872 113.831 278.925 112.318 277.558 114.37 277.142 114.092 278.808 111.593 281.178 113.436"/>
        </g>
        <g class="cls-4">
          <g>
            <line class="cls-7" x1="296.07" y1="156.651" x2="289.748" y2="150.777"/>
            <polygon class="cls-8" points="292.354 150.407 292.354 150.907 289.889 150.907 290.069 153.366 289.57 153.402 289.351 150.408 292.354 150.407"/>
          </g>
        </g>
        <g class="cls-4">
          <g>
            <line class="cls-7" x1="325.601" y1="157.572" x2="322.848" y2="163.208"/>
            <polygon class="cls-8" points="321.738 160.822 322.216 160.676 322.932 163.035 325.233 162.149 325.412 162.617 322.609 163.695 321.738 160.822"/>
          </g>
        </g>
        <g class="cls-4">
          <g>
            <line class="cls-7" x1="306.647" y1="126.473" x2="316.272" y2="130.156"/>
            <polygon class="cls-8" points="313.994 131.474 313.806 131.01 316.093 130.088 315.006 127.875 315.455 127.655 316.778 130.35 313.994 131.474"/>
          </g>
        </g>
        <g class="cls-4">
          <g>
            <line class="cls-7" x1="267.003" y1="136.581" x2="274.293" y2="131.013"/>
            <polygon class="cls-8" points="274.218 133.644 273.724 133.56 274.141 131.13 271.686 130.892 271.735 130.394 274.724 130.684 274.218 133.644"/>
          </g>
        </g>
        <g class="cls-4">
          <g>
            <line class="cls-7" x1="234.597" y1="160.551" x2="242.649" y2="156.223"/>
            <polygon class="cls-8" points="242.158 158.809 241.684 158.648 242.48 156.314 240.094 155.691 240.221 155.207 243.127 155.967 242.158 158.809"/>
          </g>
        </g>
      </g>
      <g>
        <path class="Surface-underlying" d="M412.361,60.072l2.713-2.172a2.938,2.938,0,0,1,1.272-.545.945.945,0,0,0,.107-.032q.167.761.331,1.519-.786.374-1.557.78c-1.048.524-1.794.918-2.8,1.519l0,0a6.335,6.335,0,0,1-.067-1.066"/>
        <path class="Surface-underlying" d="M415.529,26.356l.013-.045,0-.014.2-.686.014,0c.038-.1.08-.2.123-.306l.03-.071.023-.053,0-.01a2.69,2.69,0,0,1,.13-.264,1.7,1.7,0,0,1,.119-.184l1.939-2.792c-.377-8.9-6.316-4.262-5.724,1.791.028.285.085.566.112.851.405,4.2-2.378,9.16-1.2,13.629.145.55.492,1,.632,1.556l0,.013a3.066,3.066,0,0,1,.044,1.015c-.534,6.317.471,12.916.362,19.287l.007-.006,2.713-2.172a2.938,2.938,0,0,1,1.272-.545.945.945,0,0,0,.107-.032c-.018-.085-.037-.17-.056-.255l-.12-.55c-.03-.141-.061-.283-.091-.424q-.063-.3-.125-.594c-.314-1.518-.58-3.043-.83-4.573-.056-.345-.111-.691-.162-1.038-.1-.646-.181-1.293-.264-1.94-.1-.778-.185-1.558-.261-2.338L414.5,45.1c-.046-.488-.089-.977-.123-1.467q-.09-1.272-.142-2.547c-.008-.208-.016-.416-.022-.624-.02-.674-.028-1.347-.028-2.022s.007-1.365.03-2.048q.048-1.419.159-2.833.037-.465.081-.928l.012-.126q.024-.247.051-.5c.028-.29.056-.58.082-.871l.021,0c.087-.686.187-1.369.306-2.05l0-.018c.022-.128.045-.256.068-.384.117-.64.168-.883.319-1.516.033-.136.066-.273.1-.409s.07-.26.108-.389"/>
        <g class="cls-9">
          <g>
            <polygon class="cls-10" points="459.003 72.376 458.999 72.369 459 72.371 459.003 72.376"/>
            <path class="cls-10" d="M470.623,74.32a40.043,40.043,0,0,0-15.709-19.285c-2.966-1.888-13.381-8.59-16.972-6.791l-1.253.627,0,.016c-4.462,1.953-10.528.453-15.259,4.2l-.014.01a24.68,24.68,0,0,1-1.95,2.05l-.848.649-.013-.017c-.45.345-.847.749-1.3,1.093a2.988,2.988,0,0,1-.448.291c-.048.024-.1.046-.144.067a2.326,2.326,0,0,1-.265.095q.167.759.331,1.519l.009.04-.044.018c-.512.23-1.019.472-1.522.722-1.048.524-1.794.918-2.8,1.519l0,0c3.355,22.083,22.572,51.821,49.278,41.045C472.264,97.927,474.378,84.356,470.623,74.32Zm-45.036,7.364,0,0,.007.011Zm36.251,4.8,0,.006h0v0q-.177.731-.353,1.46l-.474.873a9.54,9.54,0,0,1-.7,1.287l-.008.014-.008.012h0l-.751,1.2-.607.569a10.718,10.718,0,0,1-1.225,1.148h0l-1.1.878-.183.012c-.042.026-.079.058-.121.083a12.007,12.007,0,0,1-2.155,1.03,9.873,9.873,0,0,1-1.757.52l-.012,0c-.367.082-.733.164-1.106.216-.3.041-.6.069-.9.092a17.943,17.943,0,0,1-2.295.061h-.024a22.277,22.277,0,0,1-2.4-.235c-.714-.111-1.417-.267-2.118-.441l-.016,0c-.581-.144-.992-.266-1.449-.42l-.193.012-.013,0-.916-.408q-.832-.31-1.664-.621l-.438-.283h0l-.034-.016c-.348-.167-.7-.333-1.038-.514s-.68-.376-1.013-.575c-.787-.469-1.563-.951-2.3-1.491-.665-.483-1.318-.981-1.951-1.506l0,0-.007-.006h0l-1.467-1.218.086-.018c-.707-.66-1.4-1.34-2.043-2.062l0,0q-.379-.42-.75-.848a33.384,33.384,0,0,1-2.7-3.589l.006.01-.009-.015,0,0,0,0q-.27-.4-.535-.806l-.006,0-.546-.811.032-.022c-.334-.556-.646-1.122-.957-1.691q-.334-.614-.651-1.235c-.048-.1-.1-.191-.142-.287-.113-.23-.224-.46-.334-.692-.263-.556-.522-1.114-.771-1.677-.415-.938-.78-1.894-1.147-2.851-.173-.45-.342-.9-.5-1.356-.343-.974-.663-1.954-.97-2.94q-.221-.7-.431-1.411-.274-.927-.525-1.861c-.075-.276-.15-.552-.223-.828q-.249-.927-.494-1.855c-.148-.564-.291-1.129-.42-1.7q-.093-.392-.181-.784c.321-.14.645-.271.97-.4l.011,0c.926-.373,1.528-.607,2.478-.917a26.631,26.631,0,0,1,2.9-.788l.014,0c.425-.093.849-.186,1.277-.266.4-.075.8-.139,1.208-.2a27.5,27.5,0,0,1,3.354-.293c.759-.02,1.517-.023,2.276.008a33.7,33.7,0,0,1,10.793,2.277q.535.209,1.066.428c.4.166.793.34,1.183.526.67.32,1.323.668,1.972,1.027l.009.005L447.6,61c-.134-.089.983.629.976.647l.115.076c.915.6,1.8,1.246,2.655,1.927.6.478,1.181.98,1.75,1.5a27.867,27.867,0,0,1,2.707,2.748,20.707,20.707,0,0,1,1.432,1.779c.549.757,1.08,1.523,1.56,2.328q.114.191.224.383l0-.007q.5.87,1,1.742l0,.007-.034.089c.286.587.574,1.174.857,1.762l-.748-1.53a21.84,21.84,0,0,1,1.117,2.822l.028.087a15.217,15.217,0,0,1,.535,2.026,14.018,14.018,0,0,1,.365,2.454v0h0q.058.828.116,1.658l-.1.688a13.389,13.389,0,0,1-.321,2.285Z"/>
          </g>
          <g>
            <polygon class="cls-11" points="459.003 72.376 458.999 72.369 459 72.371 459.003 72.376"/>
            <path class="Surface-underlying" d="M470.623,74.32a40.043,40.043,0,0,0-15.709-19.285c-2.966-1.888-13.381-8.59-16.972-6.791l-1.253.627,0,.016c-4.462,1.953-10.528.453-15.259,4.2l-.014.01a24.68,24.68,0,0,1-1.95,2.05l-.848.649-.013-.017c-.45.345-.847.749-1.3,1.093a2.988,2.988,0,0,1-.448.291c-.048.024-.1.046-.144.067a2.326,2.326,0,0,1-.265.095q.167.759.331,1.519l.009.04-.044.018c-.512.23-1.019.472-1.522.722-1.048.524-1.794.918-2.8,1.519l0,0c3.355,22.083,22.572,51.821,49.278,41.045C472.264,97.927,474.378,84.356,470.623,74.32Zm-45.036,7.364,0,0,.007.011Zm36.251,4.8,0,.006h0v0q-.177.731-.353,1.46l-.474.873a9.54,9.54,0,0,1-.7,1.287l-.008.014-.008.012h0l-.751,1.2-.607.569a10.718,10.718,0,0,1-1.225,1.148h0l-1.1.878-.183.012c-.042.026-.079.058-.121.083a12.007,12.007,0,0,1-2.155,1.03,9.873,9.873,0,0,1-1.757.52l-.012,0c-.367.082-.733.164-1.106.216-.3.041-.6.069-.9.092a17.943,17.943,0,0,1-2.295.061h-.024a22.277,22.277,0,0,1-2.4-.235c-.714-.111-1.417-.267-2.118-.441l-.016,0c-.581-.144-.992-.266-1.449-.42l-.193.012-.013,0-.916-.408q-.832-.31-1.664-.621l-.438-.283h0l-.034-.016c-.348-.167-.7-.333-1.038-.514s-.68-.376-1.013-.575c-.787-.469-1.563-.951-2.3-1.491-.665-.483-1.318-.981-1.951-1.506l0,0-.007-.006h0l-1.467-1.218.086-.018c-.707-.66-1.4-1.34-2.043-2.062l0,0q-.379-.42-.75-.848a33.384,33.384,0,0,1-2.7-3.589l.006.01-.009-.015,0,0,0,0q-.27-.4-.535-.806l-.006,0-.546-.811.032-.022c-.334-.556-.646-1.122-.957-1.691q-.334-.614-.651-1.235c-.048-.1-.1-.191-.142-.287-.113-.23-.224-.46-.334-.692-.263-.556-.522-1.114-.771-1.677-.415-.938-.78-1.894-1.147-2.851-.173-.45-.342-.9-.5-1.356-.343-.974-.663-1.954-.97-2.94q-.221-.7-.431-1.411-.274-.927-.525-1.861c-.075-.276-.15-.552-.223-.828q-.249-.927-.494-1.855c-.148-.564-.291-1.129-.42-1.7q-.093-.392-.181-.784c.321-.14.645-.271.97-.4l.011,0c.926-.373,1.528-.607,2.478-.917a26.631,26.631,0,0,1,2.9-.788l.014,0c.425-.093.849-.186,1.277-.266.4-.075.8-.139,1.208-.2a27.5,27.5,0,0,1,3.354-.293c.759-.02,1.517-.023,2.276.008a33.7,33.7,0,0,1,10.793,2.277q.535.209,1.066.428c.4.166.793.34,1.183.526.67.32,1.323.668,1.972,1.027l.009.005L447.6,61c-.134-.089.983.629.976.647l.115.076c.915.6,1.8,1.246,2.655,1.927.6.478,1.181.98,1.75,1.5a27.867,27.867,0,0,1,2.707,2.748,20.707,20.707,0,0,1,1.432,1.779c.549.757,1.08,1.523,1.56,2.328q.114.191.224.383l0-.007q.5.87,1,1.742l0,.007-.034.089c.286.587.574,1.174.857,1.762l-.748-1.53a21.84,21.84,0,0,1,1.117,2.822l.028.087a15.217,15.217,0,0,1,.535,2.026,14.018,14.018,0,0,1,.365,2.454v0h0q.058.828.116,1.658l-.1.688a13.389,13.389,0,0,1-.321,2.285Z"/>
          </g>
        </g>
        <path class="Surface-underlying" d="M412.361,60.072l-10.849,8.685-.254.2,3.136-2.232,1.956-1.494.819-.643c.855-.611,1.713-1.218,2.592-1.793.314-.206.631-.406.949-.6q.237-.148.476-.3c.412-.255.824-.508,1.24-.756l0,0a6.335,6.335,0,0,1-.067-1.066l-11,8.885-.068.053"/>
        <path class="Surface-visible" d="M378.248,86.752l-1.508,1.085,0,0c-.938.663-1.882,1.316-2.848,1.939l-.466.3c-.613.393-1.227.785-1.849,1.163-.189.114-.377.227-.567.339-.97.573-1.595.905-2.591,1.43-.9.474-1.495.765-2.418,1.186-1,.455-1.522.665-2.545,1.06l-.022.009c-1.06.41-1.561.586-2.649.917-1.05.319-1.642.476-2.712.719-1.015.231-1.521.34-2.552.492a32.785,32.785,0,0,1-3.265.344c-.875.043-1.75.065-2.627.044-1.058-.024-2.108-.114-3.158-.243-.948-.118-1.88-.305-2.811-.512a20.915,20.915,0,0,1-2.634-.749,19.9,19.9,0,0,1-2.322-.895,22.442,22.442,0,0,1-2.993-1.552c-.661-.41-1.306-.839-1.929-1.306a27.572,27.572,0,0,1-2.422-2.067,24.948,24.948,0,0,1-1.829-1.991c-.258-.305-.511-.613-.753-.932-.388-.513-.553-.79-.9-1.328a18.721,18.721,0,0,1-1.22-2.084,23.741,23.741,0,0,1-1.291-2.931,22.345,22.345,0,0,1-.725-2.415q-.245-1.029-.4-2.075c-.054-.372-.1-.745-.142-1.118a22.014,22.014,0,0,1-.134-2.554,20.239,20.239,0,0,1,.184-3.273c.1-.835.186-1.428.356-2.253a28.784,28.784,0,0,1,1.024-3.713l.024-.068c.227-.644.483-1.275.753-1.9a20.25,20.25,0,0,1,1.323-2.638c.1-.175.21-.348.315-.522.478-.792.805-1.279,1.35-2.027a31.129,31.129,0,0,1,2.847-3.451l-16.916,15.5c-6.441,6.878,3.877,24.08,8.9,28.869,7.376,7.037,18.539,10.268,28.713,9.133,10.024-1.117,19.451-6.147,27.02-12.881,5.466-4.864,8.849-14.261,14.668-18.293.422-.292.9-.488,1.319-.778,1.434-.984,2.418-3.127,3.874-4.232.5-.522,1.021-1.008,1.522-1.529l-4.226,3.405-1.849,1.442-.44.339.008-.006s-2.244,1.732-2.03,1.567c.072-.055-.5.386-.5.387l.008,0-.255.2,0,0q-.76.589-1.524,1.178l-.181.139-1.816,1.4-1.862,1.436q-1.226.945-2.455,1.887-.936.717-1.874,1.43-1.042.791-2.093,1.573l-.092.07q-.745.558-1.5,1.109l-.34.248"/>
        <path class="Solid-gray-line" d="M415.529,26.4l.013-.044,0-.014.2-.687.014.005c.038-.1.08-.205.123-.306l.03-.071.023-.053,0-.01a2.805,2.805,0,0,1,.13-.264,1.7,1.7,0,0,1,.119-.184l1.939-2.792c-.377-8.9-6.316-4.262-5.724,1.791.028.285.085.566.112.851.405,4.2-2.378,9.16-1.2,13.629.145.551.492,1,.632,1.556l0,.013a3.066,3.066,0,0,1,.044,1.015c-.534,6.317.471,12.916.362,19.287l.007-.006,2.713-2.172a2.938,2.938,0,0,1,1.272-.545.945.945,0,0,0,.107-.032c-.018-.085-.037-.17-.056-.255l-.12-.55c-.03-.141-.061-.283-.091-.424q-.063-.3-.125-.594c-.314-1.518-.58-3.043-.83-4.572-.056-.346-.111-.692-.162-1.039-.1-.646-.181-1.293-.264-1.94-.1-.778-.185-1.558-.261-2.338l-.048-.511c-.046-.488-.089-.977-.123-1.467q-.09-1.272-.142-2.547c-.008-.208-.016-.416-.022-.624-.02-.673-.028-1.347-.028-2.022s.007-1.365.03-2.048q.048-1.419.159-2.833c.025-.309.052-.619.081-.928l.012-.126q.024-.248.051-.495c.028-.29.056-.58.082-.871l.021,0c.087-.686.187-1.369.306-2.05l0-.018c.022-.128.045-.256.068-.384.117-.64.168-.883.319-1.516.033-.136.066-.273.1-.409s.07-.26.108-.389"/>
        <g>
          <g>
            <polygon class="cls-11" points="459.003 72.424 458.999 72.417 459 72.419 459.003 72.424"/>
            <path class="Solid-gray-line" d="M470.623,74.368a40.043,40.043,0,0,0-15.709-19.285c-2.966-1.888-13.381-8.59-16.972-6.791l-1.253.627,0,.016c-4.462,1.953-10.528.453-15.259,4.2l-.014.01a24.68,24.68,0,0,1-1.95,2.05l-.848.649-.013-.017c-.45.345-.847.749-1.3,1.093a2.988,2.988,0,0,1-.448.291c-.048.024-.1.046-.144.067a2.326,2.326,0,0,1-.265.095q.167.761.331,1.519l.009.04-.044.018c-.512.23-1.019.472-1.522.722-1.048.524-1.794.919-2.8,1.519l0,0c3.355,22.083,22.572,51.821,49.278,41.045C472.264,97.975,474.378,84.4,470.623,74.368Zm-45.036,7.365,0,0,.007.011Zm36.251,4.794,0,.006h0v0q-.177.731-.353,1.46l-.474.873a9.54,9.54,0,0,1-.7,1.287l-.008.014-.008.012h0q-.375.6-.751,1.2l-.607.569A10.718,10.718,0,0,1,457.71,93.1h0l-1.1.878-.183.012c-.042.026-.079.058-.121.083a11.939,11.939,0,0,1-2.155,1.03,9.873,9.873,0,0,1-1.757.52l-.012,0c-.367.082-.733.164-1.106.216-.3.041-.6.069-.9.092a17.943,17.943,0,0,1-2.295.061h-.024a22.277,22.277,0,0,1-2.4-.235c-.714-.111-1.417-.267-2.118-.441l-.016,0c-.581-.144-.992-.266-1.449-.42l-.193.012-.013,0-.916-.408q-.832-.31-1.664-.621l-.438-.283h0l-.034-.016c-.348-.167-.7-.333-1.038-.514s-.68-.376-1.013-.575c-.787-.469-1.563-.951-2.3-1.491-.665-.483-1.318-.98-1.951-1.506l0,0-.007-.006h0l-1.467-1.218.086-.018c-.707-.66-1.4-1.34-2.043-2.062l0,0q-.379-.42-.75-.848a33.384,33.384,0,0,1-2.7-3.589l.006.01-.009-.014,0,0,0,0q-.27-.4-.535-.807l-.006,0-.546-.811.032-.022c-.334-.555-.646-1.122-.957-1.691q-.334-.614-.651-1.235c-.048-.1-.1-.191-.142-.287-.113-.23-.224-.46-.334-.692-.263-.556-.522-1.114-.771-1.677-.415-.938-.78-1.894-1.147-2.85-.173-.451-.342-.9-.5-1.357-.343-.974-.663-1.954-.97-2.939q-.221-.7-.431-1.412-.274-.927-.525-1.861c-.075-.276-.15-.552-.223-.828q-.249-.927-.494-1.855c-.148-.564-.291-1.129-.42-1.7q-.093-.392-.181-.784c.321-.14.645-.27.97-.4l.011-.005c.926-.373,1.528-.607,2.478-.917a26.631,26.631,0,0,1,2.9-.788l.014,0c.425-.094.849-.187,1.277-.267.4-.075.8-.139,1.208-.2a27.5,27.5,0,0,1,3.354-.293c.759-.02,1.517-.023,2.276.008a33.7,33.7,0,0,1,10.793,2.277q.535.209,1.066.428c.4.166.793.34,1.183.526.67.32,1.323.668,1.972,1.027l.009.005,1.283.707c-.134-.089.983.629.976.647l.115.076c.915.6,1.8,1.246,2.655,1.927.6.478,1.181.98,1.75,1.495A27.867,27.867,0,0,1,455.8,67.94a20.707,20.707,0,0,1,1.432,1.779c.549.757,1.08,1.523,1.56,2.328q.114.191.224.383l0-.007q.5.87,1,1.742l0,.007-.034.089c.286.587.574,1.174.857,1.762l-.748-1.53a21.84,21.84,0,0,1,1.117,2.822l.028.087a15.217,15.217,0,0,1,.535,2.026,14.018,14.018,0,0,1,.365,2.454v0h0q.058.828.116,1.658l-.1.688a13.389,13.389,0,0,1-.321,2.285Z"/>
          </g>
          <g>
            <polygon class="Solid-gray-line" points="459.003 72.424 458.999 72.417 459 72.419 459.003 72.424"/>
            <path class="Solid-gray-line" d="M470.623,74.368a40.043,40.043,0,0,0-15.709-19.285c-2.966-1.888-13.381-8.59-16.972-6.791l-1.253.627,0,.016c-4.462,1.953-10.528.453-15.259,4.2l-.014.01a24.68,24.68,0,0,1-1.95,2.05l-.848.649-.013-.017c-.45.345-.847.749-1.3,1.093a2.988,2.988,0,0,1-.448.291c-.048.024-.1.046-.144.067a2.326,2.326,0,0,1-.265.095q.167.761.331,1.519l.009.04-.044.018c-.512.23-1.019.472-1.522.722-1.048.524-1.794.919-2.8,1.519l0,0c3.355,22.083,22.572,51.821,49.278,41.045C472.264,97.975,474.378,84.4,470.623,74.368Zm-45.036,7.365,0,0,.007.011Zm36.251,4.794,0,.006h0v0q-.177.731-.353,1.46l-.474.873a9.54,9.54,0,0,1-.7,1.287l-.008.014-.008.012h0q-.375.6-.751,1.2l-.607.569A10.718,10.718,0,0,1,457.71,93.1h0l-1.1.878-.183.012c-.042.026-.079.058-.121.083a11.939,11.939,0,0,1-2.155,1.03,9.873,9.873,0,0,1-1.757.52l-.012,0c-.367.082-.733.164-1.106.216-.3.041-.6.069-.9.092a17.943,17.943,0,0,1-2.295.061h-.024a22.277,22.277,0,0,1-2.4-.235c-.714-.111-1.417-.267-2.118-.441l-.016,0c-.581-.144-.992-.266-1.449-.42l-.193.012-.013,0-.916-.408q-.832-.31-1.664-.621l-.438-.283h0l-.034-.016c-.348-.167-.7-.333-1.038-.514s-.68-.376-1.013-.575c-.787-.469-1.563-.951-2.3-1.491-.665-.483-1.318-.98-1.951-1.506l0,0-.007-.006h0l-1.467-1.218.086-.018c-.707-.66-1.4-1.34-2.043-2.062l0,0q-.379-.42-.75-.848a33.384,33.384,0,0,1-2.7-3.589l.006.01-.009-.014,0,0,0,0q-.27-.4-.535-.807l-.006,0-.546-.811.032-.022c-.334-.555-.646-1.122-.957-1.691q-.334-.614-.651-1.235c-.048-.1-.1-.191-.142-.287-.113-.23-.224-.46-.334-.692-.263-.556-.522-1.114-.771-1.677-.415-.938-.78-1.894-1.147-2.85-.173-.451-.342-.9-.5-1.357-.343-.974-.663-1.954-.97-2.939q-.221-.7-.431-1.412-.274-.927-.525-1.861c-.075-.276-.15-.552-.223-.828q-.249-.927-.494-1.855c-.148-.564-.291-1.129-.42-1.7q-.093-.392-.181-.784c.321-.14.645-.27.97-.4l.011-.005c.926-.373,1.528-.607,2.478-.917a26.631,26.631,0,0,1,2.9-.788l.014,0c.425-.094.849-.187,1.277-.267.4-.075.8-.139,1.208-.2a27.5,27.5,0,0,1,3.354-.293c.759-.02,1.517-.023,2.276.008a33.7,33.7,0,0,1,10.793,2.277q.535.209,1.066.428c.4.166.793.34,1.183.526.67.32,1.323.668,1.972,1.027l.009.005,1.283.707c-.134-.089.983.629.976.647l.115.076c.915.6,1.8,1.246,2.655,1.927.6.478,1.181.98,1.75,1.495A27.867,27.867,0,0,1,455.8,67.94a20.707,20.707,0,0,1,1.432,1.779c.549.757,1.08,1.523,1.56,2.328q.114.191.224.383l0-.007q.5.87,1,1.742l0,.007-.034.089c.286.587.574,1.174.857,1.762l-.748-1.53a21.84,21.84,0,0,1,1.117,2.822l.028.087a15.217,15.217,0,0,1,.535,2.026,14.018,14.018,0,0,1,.365,2.454v0h0q.058.828.116,1.658l-.1.688a13.389,13.389,0,0,1-.321,2.285Z"/>
          </g>
        </g>
        <path class="Solid-gray-line" d="M412.361,60.12l-10.849,8.685-.254.2,3.136-2.233,1.956-1.493.819-.644c.855-.611,1.713-1.218,2.592-1.793q.471-.307.949-.6.237-.149.476-.3c.412-.255.824-.508,1.24-.756l0,0a6.354,6.354,0,0,1-.067-1.067l-11,8.885-.068.053"/>
        <path class="Solid-gray-line" d="M378.248,86.8l-1.508,1.085,0,0c-.938.663-1.882,1.316-2.848,1.939l-.466.3c-.613.393-1.227.785-1.849,1.163-.189.114-.377.227-.567.339-.97.573-1.595.905-2.591,1.43-.9.474-1.495.766-2.418,1.186-1,.455-1.522.665-2.545,1.06l-.022.009c-1.06.41-1.561.586-2.649.917-1.05.319-1.642.476-2.712.719-1.015.231-1.521.34-2.552.492a32.785,32.785,0,0,1-3.265.344c-.875.043-1.75.065-2.627.044-1.058-.024-2.108-.114-3.158-.243-.948-.118-1.88-.3-2.811-.512a20.915,20.915,0,0,1-2.634-.749,19.9,19.9,0,0,1-2.322-.895,22.442,22.442,0,0,1-2.993-1.552c-.661-.41-1.306-.839-1.929-1.306a27.572,27.572,0,0,1-2.422-2.067,24.948,24.948,0,0,1-1.829-1.991c-.258-.305-.511-.613-.753-.932-.388-.513-.553-.79-.9-1.328a18.721,18.721,0,0,1-1.22-2.084,23.741,23.741,0,0,1-1.291-2.931,22.345,22.345,0,0,1-.725-2.415c-.163-.686-.294-1.376-.4-2.075-.054-.372-.1-.745-.142-1.118a22.014,22.014,0,0,1-.134-2.554,20.239,20.239,0,0,1,.184-3.273c.1-.835.186-1.428.356-2.253a28.784,28.784,0,0,1,1.024-3.713l.024-.068c.227-.644.483-1.275.753-1.9a20.25,20.25,0,0,1,1.323-2.638c.1-.175.21-.348.315-.522.478-.792.805-1.279,1.35-2.027a31.222,31.222,0,0,1,2.847-3.451L315.225,68.735c-6.441,6.878,3.877,24.08,8.9,28.869,7.376,7.037,18.539,10.268,28.713,9.133,10.024-1.117,19.451-6.147,27.02-12.881,5.466-4.864,8.849-14.261,14.668-18.293.422-.292.9-.488,1.319-.778,1.434-.984,2.418-3.127,3.874-4.232.5-.522,1.021-1.008,1.522-1.529q-2.112,1.7-4.226,3.405l-1.849,1.442-.44.339.008-.006s-2.244,1.732-2.03,1.567c.072-.055-.5.386-.5.387l.008,0-.255.2,0,0q-.76.59-1.524,1.178l-.181.139-1.816,1.4-1.862,1.436q-1.226.945-2.455,1.887-.936.717-1.874,1.43-1.042.79-2.093,1.573l-.092.07q-.745.558-1.5,1.109l-.34.248"/>
        <polyline class="cls-1" points="334.107 51.379 333.825 51.655 333.413 52.008 332.921 52.48 332.141 53.23 331.574 53.842 330.938 54.528 330.199 55.426 329.809 55.899 328.991 57.02 328.76 57.336 328.594 57.594 327.797 58.834 327.059 60.148 326.931 60.386 326.263 61.818 326.189 61.976 326.114 62.167 325.546 63.605 325.148 64.828 325.005 65.266 324.718 66.373 324.569 66.952 324.436 67.638 324.239 68.655 324.129 69.516 324.019 70.368 323.972 71.101 323.909 72.083 323.91 73.233 323.91 73.795 323.995 75.086 324.022 75.495 324.067 75.838 324.244 77.176 324.554 78.726 324.575 78.832 324.599 78.921 324.891 79.999 325.024 80.455 325.04 80.497 325.602 82.032 326.159 83.287 326.281 83.561 326.448 83.878 327.058 85.035 327.637 85.974 327.931 86.45 328.492 87.237 328.894 87.801 329.421 88.443 329.945 89.081 330.632 89.813 331.078 90.288 331.937 91.089 332.289 91.416 332.604 91.673 333.572 92.463 333.782 92.612 334.923 93.425 335.827 93.985 336.348 94.298 337.653 94.973 337.852 95.076 339.041 95.6 339.403 95.759 339.89 95.939 340.997 96.347 341.722 96.566 342.627 96.838 343.61 97.072 344.286 97.233 345.546 97.455 345.97 97.53 347.525 97.712 347.672 97.73 348.528 97.781 349.409 97.831 350.807 97.834 351.173 97.835 351.719 97.806 352.936 97.744 353.877 97.645 354.693 97.56 356.054 97.346 356.436 97.286 356.699 97.231 357.874 96.985 358.118 96.935 358.172 96.924 359.547 96.571 359.931 96.473 360.597 96.268 361.663 95.94 362.293 95.714 363.361 95.331 364.41 94.899 364.898 94.704 365.046 94.645 365.35 94.508 366.733 93.886 367.414 93.544 368.376 93.063 369.186 92.614 370.007 92.175 370.928 91.638 371.629 91.23 372.89 90.431 373.214 90.234 373.542 90.019 374.815 89.186 375.911 88.418 376.216 88.213 376.388 88.097 377.217 87.507 377.974 86.967 378.181 86.811 378.499 86.572 379.142 86.106 379.566 85.799 380.085 85.405 380.803 84.861 381.159 84.601 382.301 83.735 382.78 83.372 382.916 83.266 383.746 82.634 384.437 82.107 384.632 81.956 384.854 81.784 386.107 80.821 386.792 80.291 387.326 79.88 387.815 79.503 388.222 79.19 388.651 78.86 389.558 78.159 390.459 77.471 391.316 76.803 392.264 76.077 393.115 75.406 394.07 74.682 394.959 73.98 395.415 73.63 395.896 73.263 396.711 72.607 397.755 71.808 398.137 71.498 398.502 71.201 399.666 70.309 400.279 69.807 400.916 69.319 401.652 68.754 401.86 68.583 402.04 68.435 402.803 67.853 403.745 67.133 403.789 67.097 404.728 66.386 405.511 65.793 405.997 65.457 407.215 64.545 407.71 64.209 408.468 63.694 408.741 63.494 408.921 63.362 409.664 62.873 410.617 62.246 411.266 61.866 411.934 61.444 412.309 61.206 413.04 60.799 414.022 60.253 414.193 60.17 414.556 59.994 415.728 59.384 416.662 58.966 417.46 58.609 418.62 58.172 419.214 57.933 420.327 57.564 420.966 57.352 422.228 57.018 422.76 56.877 423.928 56.644 424.568 56.507 424.813 56.47 426.369 56.238 427.258 56.16 428.199 56.079 428.753 56.064 430.052 56.03 430.27 56.037 431.315 56.071 431.903 56.088 433.32 56.213 433.729 56.249 434.297 56.332 435.559 56.517 436.416 56.693 437.385 56.892 438.692 57.236 439.202 57.37 440.824 57.892 441.002 57.949 442.021 58.338 442.669 58.588 442.758 58.623 444.17 59.257 444.457 59.386 444.803 59.564 446.117 60.239 447.105 60.815 447.728 61.177 448.527 61.699 449.286 62.194 450.173 62.84 450.783 63.285 451.245 63.659 452.213 64.444 453.322 65.439 453.57 65.662 454.749 66.836 454.848 66.935 454.923 67.017 455.757 67.939 456.035 68.252 456.998 69.469 457.105 69.605 457.218 69.765 458.08 70.991 458.734 72.045 458.955 72.402 459.182 72.821 459.729 73.832 460.131 74.699 460.397 75.271 460.655 75.934 460.959 76.712 461.204 77.489 461.412 78.148 461.548 78.709 461.756 79.57 461.833 80.028 461.992 80.97 462.091 82.038 462.119 82.342 462.135 83.487 462.138 83.679 462.127 83.84 462.052 84.972 461.897 85.98 461.856 86.215 461.561 87.303 461.535 87.4 461.494 87.508 461.112 88.526 461.02 88.715 460.593 89.59 460.156 90.3 459.98 90.586 459.741 90.9 459.278 91.509 458.829 91.993 458.492 92.355 458.06 92.738 457.627 93.12 457.228 93.411 456.689 93.802 456.337 94.01 455.682 94.397 455.392 94.534 454.613 94.902 453.626 95.266 453.488 95.317 453.362 95.351 452.312 95.638 452.288 95.642 452.05 95.687 451.07 95.856 449.991 95.96 449.783 95.98 448.803 96.002 448.464 96.009 447.597 95.969 447.118 95.946 446.38 95.861 445.753 95.789 445.158 95.681 444.374 95.539 443.935 95.431 442.988 95.198 442.716 95.113 441.602 94.765 440.884 94.494 440.294 94.271 440.205 94.237 439.083 93.738 438.803 93.614 437.895 93.149 437.419 92.906 436.735 92.508 436.059 92.114 435.606 91.817 434.729 91.243 434.511 91.083 433.534 90.366 433.431 90.292 432.397 89.458 432.138 89.249 431.698 88.855 430.892 88.134 430.037 87.285 429.699 86.949 428.883 86.051 428.55 85.693 427.772 84.769 427.428 84.36 426.734 83.441 426.375 82.967 426.211 82.724 425.789 82.1 425.488 81.675 425.371 81.511 424.797 80.601 424.41 79.989 424.152 79.528 423.601 78.543 423.525 78.416 423.457 78.286 422.664 76.779 421.988 75.307 421.92 75.171 421.883 75.097 421.432 74.061 421.128 73.361 420.98 72.964 420.74 72.321 420.433 71.584 420.141 70.761 419.787 69.767 419.716 69.527 419.387 68.567 419.165 67.917 418.862 66.854 418.591 66.041 418.383 65.287 418.104 64.277 418.079 64.199 418.06 64.141 417.945 63.711 417.549 62.23 417.502 62.024 417.442 61.755 417.217 60.934 417.045 60.302 416.951 59.84 416.831 59.252 416.702 58.734 416.601 58.326 416.266 56.729 416.197 56.456 416.035 55.66 415.808 54.549 415.782 54.386 415.746 54.16 415.576 53.291 415.453 52.664 415.381 52.189 415.274 51.492 415.145 50.8 414.953 49.483 414.877 48.965 414.848 48.686 414.645 47.171 414.498 45.673 414.466 45.408 414.378 44.394 414.317 43.695 414.246 42.399 414.219 42.023 414.206 41.714 414.15 40.411 414.144 39.938 414.129 38.844 414.129 38.825 414.13 38.775 414.133 37.741 414.134 37.353 414.154 36.664 414.175 35.92 414.193 35.596 414.25 34.55 414.253 34.515 414.344 33.268 414.408 32.6 414.46 32.059 414.508 31.668 414.597 30.927 414.721 30.07 414.744 29.914 414.749 29.878 414.873 29.13 414.906 28.928 415.009 28.393 415.072 28.064 415.164 27.65 415.243 27.291 415.297 27.079 415.416 26.611 415.446 26.51 415.588 26.026 415.641 25.871 415.754 25.544 415.879 25.243 415.912 25.164 416.013 24.972 416.062 24.88 416.14 24.773"/>
        <g class="cls-4">
          <g>
            <line class="cls-2" x1="330.617" y1="89.796" x2="326.436" y2="96.083"/>
            <polygon class="cls-3" points="325.651 93.571 326.145 93.49 326.542 95.923 328.94 95.349 329.056 95.836 326.136 96.534 325.651 93.571"/>
          </g>
        </g>
        <g class="cls-4">
          <g>
            <line class="cls-2" x1="334.107" y1="51.379" x2="331.063" y2="46.471"/>
            <polygon class="cls-3" points="333.674 46.801 333.543 47.284 331.165 46.634 330.69 49.053 330.199 48.957 330.778 46.01 333.674 46.801"/>
          </g>
        </g>
        <g class="cls-4">
          <g>
            <line class="cls-2" x1="416.14" y1="24.773" x2="410.529" y2="18.716"/>
            <polygon class="cls-3" points="413.155 18.542 413.118 19.041 410.66 18.856 410.655 21.322 410.155 21.321 410.161 18.318 413.155 18.542"/>
          </g>
        </g>
        <g class="cls-4">
          <g>
            <line class="cls-2" x1="415.393" y1="52.249" x2="409.153" y2="51.692"/>
            <polygon class="cls-3" points="410.985 49.803 411.292 50.198 409.344 51.709 410.994 53.541 410.622 53.876 408.613 51.644 410.985 49.803"/>
          </g>
        </g>
        <g>
          <line class="cls-2" x1="431.205" y1="88.407" x2="426.084" y2="90.993"/>
          <polygon class="cls-3" points="426.641 88.421 427.111 88.594 426.255 90.906 428.624 91.59 428.485 92.071 425.6 91.237 426.641 88.421"/>
        </g>
        <g class="cls-4">
          <g>
            <line class="cls-2" x1="460.72" y1="89.328" x2="453.529" y2="92.881"/>
            <polygon class="cls-3" points="454.109 90.314 454.577 90.491 453.701 92.796 456.064 93.501 455.92 93.98 453.043 93.121 454.109 90.314"/>
          </g>
        </g>
        <g class="cls-4">
          <g>
            <line class="cls-2" x1="441.777" y1="58.246" x2="437.979" y2="67.237"/>
            <polygon class="cls-3" points="436.74 64.915 437.21 64.743 438.053 67.06 440.302 66.049 440.507 66.506 437.767 67.736 436.74 64.915"/>
          </g>
        </g>
        <g class="cls-4">
          <g>
            <line class="cls-2" x1="402.154" y1="68.348" x2="405.433" y2="75.876"/>
            <polygon class="cls-3" points="402.897 75.174 403.096 74.715 405.356 75.701 406.174 73.375 406.646 73.541 405.649 76.374 402.897 75.174"/>
          </g>
        </g>
        <g class="cls-4">
          <g>
            <line class="cls-2" x1="369.765" y1="92.306" x2="372.473" y2="99.834"/>
            <polygon class="cls-3" points="369.988 98.968 370.217 98.523 372.408 99.654 373.376 97.386 373.836 97.583 372.657 100.345 369.988 98.968"/>
          </g>
        </g>
        <g class="cls-4">
          <g>
            <line class="cls-5" x1="330.617" y1="89.796" x2="324.829" y2="92.449"/>
            <polygon class="cls-6" points="325.483 89.9 325.945 90.09 325.003 92.368 327.344 93.142 327.187 93.617 324.335 92.674 325.483 89.9"/>
          </g>
        </g>
        <g class="cls-4">
          <g>
            <line class="cls-5" x1="334.107" y1="51.379" x2="328.275" y2="46.365"/>
            <polygon class="cls-6" points="330.865 45.895 330.885 46.395 328.421 46.49 328.696 48.94 328.199 48.995 327.864 46.011 330.865 45.895"/>
          </g>
        </g>
        <g class="cls-4">
          <g>
            <line class="cls-5" x1="416.14" y1="24.773" x2="422.204" y2="19.177"/>
            <polygon class="cls-6" points="422.373 21.803 421.874 21.766 422.063 19.307 419.597 19.299 419.6 18.798 422.603 18.81 422.373 21.803"/>
          </g>
        </g>
        <g class="cls-4">
          <g>
            <line class="cls-5" x1="415.393" y1="52.249" x2="421.401" y2="49.736"/>
            <polygon class="cls-6" points="420.662 52.262 420.206 52.056 421.225 49.811 418.911 48.959 419.084 48.489 421.902 49.528 420.662 52.262"/>
          </g>
        </g>
        <g>
          <line class="cls-5" x1="431.205" y1="88.407" x2="435.009" y2="82.108"/>
          <polygon class="cls-6" points="435.903 84.583 435.413 84.686 434.91 82.272 432.54 82.95 432.403 82.469 435.29 81.644 435.903 84.583"/>
        </g>
        <g class="cls-4">
          <g>
            <line class="cls-5" x1="460.72" y1="89.328" x2="454.552" y2="82.458"/>
            <polygon class="cls-6" points="457.181 82.325 457.136 82.823 454.681 82.6 454.638 85.066 454.138 85.057 454.191 82.054 457.181 82.325"/>
          </g>
        </g>
        <g class="cls-4">
          <g>
            <line class="cls-5" x1="441.777" y1="58.246" x2="441.417" y2="61.038"/>
            <polygon class="cls-6" points="439.601 59.134 440.007 58.842 441.441 60.847 443.337 59.27 443.657 59.655 441.348 61.575 439.601 59.134"/>
          </g>
        </g>
        <g class="cls-4">
          <g>
            <line class="cls-5" x1="402.154" y1="68.348" x2="407.466" y2="70.992"/>
            <polygon class="cls-6" points="405.072 72.085 404.93 71.605 407.294 70.907 406.425 68.599 406.894 68.423 407.952 71.234 405.072 72.085"/>
          </g>
        </g>
        <g class="cls-4">
          <g>
            <line class="cls-5" x1="369.765" y1="92.306" x2="373.444" y2="95.646"/>
            <polygon class="cls-6" points="370.842 96.046 370.836 95.546 373.301 95.517 373.093 93.061 373.591 93.019 373.845 96.011 370.842 96.046"/>
          </g>
        </g>
        <g>
          <line class="cls-7" x1="330.617" y1="89.796" x2="336.803" y2="96.367"/>
          <polygon class="cls-8" points="334.179 96.563 334.212 96.063 336.671 96.228 336.656 93.762 337.156 93.759 337.175 96.762 334.179 96.563"/>
        </g>
        <g>
          <line class="cls-7" x1="334.107" y1="51.379" x2="327.007" y2="57.887"/>
          <polygon class="cls-8" points="326.847 55.26 327.345 55.3 327.148 57.757 329.614 57.774 329.61 58.275 326.607 58.253 326.847 55.26"/>
        </g>
        <g>
          <line class="cls-7" x1="416.14" y1="24.773" x2="416.948" y2="23.611"/>
          <polygon class="cls-8" points="417.682 26.138 417.187 26.209 416.839 23.768 414.43 24.294 414.324 23.805 417.258 23.166 417.682 26.138"/>
        </g>
        <g>
          <line class="cls-7" x1="415.393" y1="52.249" x2="414.038" y2="43.909"/>
          <polygon class="cls-8" points="416.323 45.216 416.016 45.612 414.07 44.098 412.702 46.15 412.286 45.872 413.952 43.374 416.323 45.216"/>
        </g>
        <g>
          <line class="cls-7" x1="431.205" y1="88.407" x2="424.887" y2="82.537"/>
          <polygon class="cls-8" points="427.492 82.167 427.493 82.667 425.028 82.667 425.208 85.126 424.709 85.162 424.49 82.167 427.492 82.167"/>
        </g>
        <g>
          <line class="cls-7" x1="460.72" y1="89.328" x2="457.969" y2="94.961"/>
          <polygon class="cls-8" points="456.859 92.575 457.337 92.429 458.053 94.788 460.354 93.902 460.533 94.37 457.73 95.448 456.859 92.575"/>
        </g>
        <g>
          <line class="cls-7" x1="441.777" y1="58.246" x2="451.396" y2="61.927"/>
          <polygon class="cls-8" points="449.118 63.244 448.93 62.781 451.217 61.859 450.13 59.645 450.579 59.425 451.902 62.121 449.118 63.244"/>
        </g>
        <g>
          <line class="cls-7" x1="402.154" y1="68.348" x2="409.439" y2="62.784"/>
          <polygon class="cls-8" points="409.364 65.414 408.871 65.33 409.287 62.9 406.833 62.663 406.882 62.165 409.871 62.455 409.364 65.414"/>
        </g>
        <g>
          <line class="cls-7" x1="369.765" y1="92.306" x2="377.812" y2="87.98"/>
          <polygon class="cls-8" points="377.321 90.566 376.847 90.404 377.643 88.071 375.258 87.448 375.385 86.964 378.29 87.724 377.321 90.566"/>
        </g>
      </g>
    </g>
    <g id="Annotations-3" data-name="Annotations">
      <g>
        <path class="cls-12" d="M92.716,142.147l-.2.094a13.7,13.7,0,0,1-1-2.35,5.668,5.668,0,0,1-.234-1.6,6.576,6.576,0,0,1,.873-3.381,12.211,12.211,0,0,1,3.475-3.563l.14.2a7.66,7.66,0,0,0-1.769,1.8,12.261,12.261,0,0,0-1.946,6.2A6.623,6.623,0,0,0,92.716,142.147Z"/>
        <path class="cls-12" d="M100.087,134.372l-1.143,3.972-.129.533a.572.572,0,0,0-.017.129.246.246,0,0,0,.058.164.148.148,0,0,0,.117.053.367.367,0,0,0,.2-.094,3.389,3.389,0,0,0,.609-.7l.2.141a3.688,3.688,0,0,1-.832.929,1.363,1.363,0,0,1-.791.319.513.513,0,0,1-.378-.126.5.5,0,0,1-.126-.366,3,3,0,0,1,.129-.756l.123-.44a5.742,5.742,0,0,1-1.412,1.4,1.722,1.722,0,0,1-.908.287.949.949,0,0,1-.738-.355,1.428,1.428,0,0,1-.311-.975,4.144,4.144,0,0,1,.56-1.966,4.831,4.831,0,0,1,1.421-1.655,2.191,2.191,0,0,1,1.271-.492.93.93,0,0,1,.595.187,1.175,1.175,0,0,1,.36.621l.211-.668Zm-2.086.3a1.275,1.275,0,0,0-.8.352A4.287,4.287,0,0,0,96.14,136.5a4.191,4.191,0,0,0-.465,1.77.931.931,0,0,0,.2.63.592.592,0,0,0,.457.231q.639,0,1.388-.943a4.089,4.089,0,0,0,1-2.572,1.089,1.089,0,0,0-.193-.721A.661.661,0,0,0,98,134.676Z"/>
        <path class="cls-12" d="M102.2,131.454l.2-.112a13.005,13.005,0,0,1,1,2.344,5.538,5.538,0,0,1,.24,1.606,6.554,6.554,0,0,1-.873,3.38,12.273,12.273,0,0,1-3.474,3.569l-.141-.182a7.78,7.78,0,0,0,1.77-1.8,12.294,12.294,0,0,0,1.945-6.2A6.637,6.637,0,0,0,102.2,131.454Z"/>
      </g>
      <g>
        <path class="cls-12" d="M262.373,191.057l-.2.093a13.536,13.536,0,0,1-1-2.349,5.64,5.64,0,0,1-.235-1.606,6.581,6.581,0,0,1,.873-3.381,12.209,12.209,0,0,1,3.475-3.562l.141.2a7.627,7.627,0,0,0-1.77,1.8,11,11,0,0,0-1.4,3,10.873,10.873,0,0,0-.545,3.2A6.624,6.624,0,0,0,262.373,191.057Z"/>
        <path class="cls-12" d="M267.576,180.252l-1.154,4.049a4.084,4.084,0,0,1,.981-.8,1.886,1.886,0,0,1,.876-.217,1.4,1.4,0,0,1,1.055.428,1.608,1.608,0,0,1,.41,1.16,3.73,3.73,0,0,1-.539,1.878,4.158,4.158,0,0,1-1.354,1.456,2.965,2.965,0,0,1-1.605.522,3.146,3.146,0,0,1-1.817-.663l1.782-6.134a5.538,5.538,0,0,0,.2-.832.276.276,0,0,0-.094-.229.64.64,0,0,0-.4-.1,2.49,2.49,0,0,0-.375.041v-.223Zm-2.268,7.875a2.207,2.207,0,0,0,1.032.322,1.906,1.906,0,0,0,1.069-.378,2.994,2.994,0,0,0,.961-1.274,4.349,4.349,0,0,0,.407-1.811,1.236,1.236,0,0,0-.267-.843.808.808,0,0,0-.629-.305,1.654,1.654,0,0,0-1.067.436,2.4,2.4,0,0,0-.744,1.216Z"/>
        <path class="cls-12" d="M271.859,180.363l.2-.111a13.005,13.005,0,0,1,1,2.344,5.5,5.5,0,0,1,.241,1.6,6.556,6.556,0,0,1-.873,3.381,12.264,12.264,0,0,1-3.475,3.568l-.141-.181a7.78,7.78,0,0,0,1.77-1.8,12.294,12.294,0,0,0,1.945-6.2A6.62,6.62,0,0,0,271.859,180.363Z"/>
      </g>
      <g>
        <path class="cls-12" d="M402.967,142.147l-.2.094a13.542,13.542,0,0,1-1-2.35,5.669,5.669,0,0,1-.235-1.6,6.577,6.577,0,0,1,.874-3.381,12.206,12.206,0,0,1,3.474-3.563l.141.2a7.646,7.646,0,0,0-1.77,1.8,12.273,12.273,0,0,0-1.945,6.2A6.637,6.637,0,0,0,402.967,142.147Z"/>
        <path class="cls-12" d="M409.342,138.4a4.437,4.437,0,0,1-1.23,1.075,2.673,2.673,0,0,1-1.313.343,1.747,1.747,0,0,1-1.3-.469,1.709,1.709,0,0,1-.466-1.26,3.488,3.488,0,0,1,.5-1.763,4.068,4.068,0,0,1,1.348-1.409,3.068,3.068,0,0,1,1.661-.542,1.453,1.453,0,0,1,.955.266.825.825,0,0,1,.317.654.921.921,0,0,1-.223.621.506.506,0,0,1-.4.2.416.416,0,0,1-.3-.117.393.393,0,0,1-.12-.293.463.463,0,0,1,.044-.2.84.84,0,0,1,.181-.226.893.893,0,0,0,.167-.19.269.269,0,0,0,.03-.123.246.246,0,0,0-.112-.206.839.839,0,0,0-.48-.117,1.933,1.933,0,0,0-1.137.405,3.293,3.293,0,0,0-.961,1.148,3.814,3.814,0,0,0-.48,1.805,1.3,1.3,0,0,0,.34.946,1.233,1.233,0,0,0,.925.349,1.956,1.956,0,0,0,.894-.226,3.832,3.832,0,0,0,.993-.817Z"/>
        <path class="cls-12" d="M411.78,131.454l.2-.112a13.005,13.005,0,0,1,1,2.344,5.538,5.538,0,0,1,.24,1.606,6.554,6.554,0,0,1-.873,3.38,12.278,12.278,0,0,1-3.475,3.569l-.14-.182a7.8,7.8,0,0,0,1.769-1.8,12.282,12.282,0,0,0,1.946-6.2A6.637,6.637,0,0,0,411.78,131.454Z"/>
      </g>
    </g>
  </g>
</svg>
