<svg xmlns="http://www.w3.org/2000/svg" xmlns:xlink="http://www.w3.org/1999/xlink" viewBox="0 0 482.09 198.43">
  <defs>
    <style>
      .cls-1, .cls-10, .cls-14 {
        fill: none;
      }

      .cls-2, .cls-3 {
        fill: #fff;
      }

      .cls-2 {
        stroke: #2a4d9c;
      }

      .cls-10, .cls-14, .cls-2, .cls-3 {
        stroke-miterlimit: 10;
      }

      .cls-3 {
        stroke: #c91517;
      }

      .cls-4 {
        clip-path: url(#clip-path);
      }

      .cls-5 {
        opacity: 0.41;
        fill: url(#Degradado_sin_nombre_105);
      }

      .cls-6 {
        fill: #3f82c4;
      }

      .cls-7 {
        fill: #c91517;
      }

      .cls-8 {
        fill: #2a4d9c;
      }

      .cls-11, .cls-12, .cls-13, .cls-9 {
        fill: #1d1d1b;
      }

      .cls-10, .cls-14 {
        stroke: #000;
      }

      .cls-10 {
        stroke-width: 0.4px;
      }

      .cls-11, .cls-13 {
        font-size: 12px;
      }

      .cls-11, .cls-12 {
        font-family: TimesNewRomanPS-ItalicMT, Times New Roman;
        font-style: italic;
      }

      .cls-12 {
        font-size: 9px;
      }

      .cls-13 {
        font-family: TimesNewRomanPS-BoldMT, Times New Roman;
        font-weight: 700;
      }

      .cls-14 {
        stroke-width: 0.25px;
      }
    </style>
    <clipPath id="clip-path">
      <polygon class="cls-1" points="366.31 84.03 353.85 48.1 329.68 65.9 331.26 96.18 366.31 84.03"/>
    </clipPath>
    <radialGradient id="Degradado_sin_nombre_105" data-name="Degradado sin nombre 105" cx="287.02" cy="193.81" r="34.6" gradientTransform="matrix(0.9, 0.44, -0.44, 0.9, 192.85, -214.98)" gradientUnits="userSpaceOnUse">
      <stop offset="0" stop-color="#c1962b"/>
      <stop offset="0.17" stop-color="#c1962b" stop-opacity="0.98"/>
      <stop offset="0.3" stop-color="#c1962b" stop-opacity="0.94"/>
      <stop offset="0.41" stop-color="#c1962b" stop-opacity="0.85"/>
      <stop offset="0.51" stop-color="#c1962b" stop-opacity="0.74"/>
      <stop offset="0.54" stop-color="#c1962b" stop-opacity="0.7"/>
      <stop offset="0.61" stop-color="#c7a03f" stop-opacity="0.63"/>
      <stop offset="0.73" stop-color="#d6ba74" stop-opacity="0.46"/>
      <stop offset="0.9" stop-color="#efe4c9" stop-opacity="0.18"/>
      <stop offset="1" stop-color="#fff" stop-opacity="0"/>
    </radialGradient>
    <symbol id="Red_dot" data-name="Red dot" viewBox="0 0 5.2 5.2">
      <circle class="cls-3" cx="2.6" cy="2.6" r="2.1"/>
    </symbol>
    <symbol id="Blue_Point" data-name="Blue Point" viewBox="0 0 5.2 5.2">
      <circle class="cls-2" cx="2.6" cy="2.6" r="2.1"/>
    </symbol>
  </defs>
  <title>Diagram-PieceWiseGeodesic</title>
  <g id="Diagram_Piecewise_Geodesic" data-name="Diagram Piecewise  Geodesic">
    <g id="Angle">
      <g class="cls-4">
        <circle class="cls-5" cx="366.51" cy="84.67" r="34.6"/>
      </g>
    </g>
    <g id="PerpGs_copia" data-name="PerpGs copia">
      <g>
        <polygon class="cls-6" points="75.58 159.94 42.63 65.71 76.52 159.6 75.58 159.94"/>
        <polygon class="cls-6" points="166.03 136.43 150.34 37.85 167.02 136.27 166.03 136.43"/>
        <polygon class="cls-6" points="212.49 131.01 206.36 31.38 213.49 130.95 212.49 131.01"/>
        <polygon class="cls-6" points="259.25 130.23 263.37 30.5 260.25 130.27 259.25 130.23"/>
        <polygon class="cls-6" points="305.85 134.24 319.93 35.42 306.84 134.38 305.85 134.24"/>
        <polygon class="cls-6" points="351.84 142.76 375.16 45.7 352.82 142.99 351.84 142.76"/>
        <polygon class="cls-6" points="396.86 155.46 428.77 60.87 397.81 155.77 396.86 155.46"/>
        <polygon class="cls-6" points="120.28 146.17 95.69 49.42 121.25 145.92 120.28 146.17"/>
      </g>
    </g>
    <g id="StartV">
      <g>
        <path class="cls-7" d="M366.31,84l-79-35.62a.49.49,0,1,1,.4-.9h0Z"/>
        <polygon class="cls-7" points="292.27 45.63 292.58 46.58 287.9 48.12 289.79 52.68 288.86 53.06 286.57 47.51 292.27 45.63"/>
      </g>
    </g>
    <g id="NewG">
      <g>
        <path class="cls-8" d="M107,93.33A234,234,0,0,0,83.33,92c-4-.1-7.9.15-11.84.27-3.94.3-7.88.53-11.8,1a163.68,163.68,0,0,0-23.24,4.43,112.84,112.84,0,0,0-22.08,8.27h0a.56.56,0,1,1-.51-1h0a114.21,114.21,0,0,1,22.36-8.2A164.48,164.48,0,0,1,59.6,92.57c3.93-.5,7.9-.7,11.85-1,4-.09,7.92-.31,11.89-.19a234.83,234.83,0,0,1,23.71,1.47.23.23,0,0,1,.21.25.24.24,0,0,1-.25.21Z"/>
        <polygon class="cls-8" points="17.33 101.06 17.93 101.63 14.22 105.59 19.61 104.94 19.71 105.76 12.07 106.69 17.33 101.06"/>
      </g>
      <g>
        <path class="cls-9" d="M366.21,84.24A196.56,196.56,0,0,0,335,73.46a311,311,0,0,0-32.42-6.52,412.52,412.52,0,0,0-66-4.24,356.11,356.11,0,0,0-65.71,6.79,236.87,236.87,0,0,0-31.84,8.73A152.3,152.3,0,0,0,109.29,92.3h0a.56.56,0,0,1-.77-.18.56.56,0,0,1,.18-.78h0a153.29,153.29,0,0,1,30-14.11,236.78,236.78,0,0,1,32-8.69,358.23,358.23,0,0,1,65.89-6.64,412.59,412.59,0,0,1,66.07,4.41,309,309,0,0,1,32.46,6.61A197.66,197.66,0,0,1,366.4,83.82a.23.23,0,0,1,.12.31A.24.24,0,0,1,366.21,84.24Z"/>
        <polygon class="cls-9" points="111.8 87.06 112.45 87.57 109.08 91.83 114.39 90.73 114.56 91.54 107.02 93.1 111.8 87.06"/>
      </g>
      <g>
        <path class="cls-8" d="M366.29,83.8l6.35-.28,3.17-.14H379c2.11,0,4.23,0,6.35,0l6.34.3a205.55,205.55,0,0,1,49.88,9.17,172.2,172.2,0,0,1,23.68,9.27.56.56,0,1,1-.49,1h0a170.07,170.07,0,0,0-23.47-9.37,205.94,205.94,0,0,0-49.63-9.45L385.32,84c-2.11-.07-4.22,0-6.33-.08l-3.17,0-3.17.11-6.33.24h0a.22.22,0,0,1-.24-.22A.23.23,0,0,1,366.29,83.8Z"/>
        <polygon class="cls-8" points="459.41 102.95 459.49 102.13 464.89 102.69 461.12 98.79 461.71 98.21 467.07 103.75 459.41 102.95"/>
      </g>
    </g>
    <g id="MainG">
      <path class="cls-9" d="M76,159.49a527.34,527.34,0,0,1,87.74-23.08,462.73,462.73,0,0,1,180.51,4.32,529,529,0,0,1,86.52,27.2,527.5,527.5,0,0,0-86.65-26.59,487,487,0,0,0-89.93-10.79,478.58,478.58,0,0,0-90.31,6.7,525.63,525.63,0,0,0-87.68,22.8Z"/>
    </g>
    <g id="StartPt-Dots">
      <use width="5.2" height="5.2" transform="translate(363.71 81.43)" xlink:href="#Red_dot"/>
    </g>
    <g id="RefPt-Dots">
      <use width="5.2" height="5.2" transform="translate(311.95 71.96)" xlink:href="#Blue_Point"/>
      <use width="5.2" height="5.2" transform="translate(206.38 68.2)" xlink:href="#Blue_Point"/>
      <use width="5.2" height="5.2" transform="translate(154.15 74.24)" xlink:href="#Blue_Point"/>
      <use width="5.2" height="5.2" transform="translate(103.01 85.07)" xlink:href="#Blue_Point"/>
      <use width="5.2" height="5.2" transform="translate(53.26 100.34)" xlink:href="#Blue_Point"/>
      <use width="5.2" height="5.2" transform="translate(413.63 95.86)" xlink:href="#Blue_Point"/>
      <use id="Blue_Point-15" data-name="Blue Point" width="5.2" height="5.2" transform="translate(259.34 67.38)" xlink:href="#Blue_Point"/>
    </g>
    <g id="Arrows">
      <g>
        <line class="cls-10" x1="253.83" y1="128.53" x2="255.92" y2="71.11"/>
        <path d="M253.84,128.37a3,3,0,0,0-1.79-.7,5.38,5.38,0,0,1,1.73,2.29,5.7,5.7,0,0,1,1.9-2.15A3.06,3.06,0,0,0,253.84,128.37Z"/>
        <path d="M255.91,71.27a3,3,0,0,1-1.84.57,5.55,5.55,0,0,0,1.9-2.15A5.78,5.78,0,0,0,257.7,72,3,3,0,0,1,255.91,71.27Z"/>
      </g>
      <g>
        <line class="cls-10" x1="256.17" y1="63.99" x2="256.02" y2="68.26"/>
        <path d="M256.17,64.15a3,3,0,0,0,1.79.7,5.41,5.41,0,0,1-1.73-2.28,5.78,5.78,0,0,1-1.9,2.15A3.09,3.09,0,0,0,256.17,64.15Z"/>
        <path d="M256,68.1a2.91,2.91,0,0,1,1.84-.56,5.41,5.41,0,0,0-1.9,2.15,5.84,5.84,0,0,0-1.74-2.29A3.16,3.16,0,0,1,256,68.1Z"/>
      </g>
    </g>
    <g id="Text">
      <text class="cls-11" transform="translate(244.56 98.46)">w</text>
      <text class="cls-11" transform="translate(247.04 69.98)">ε</text>
      <text class="cls-11" transform="translate(282.33 72.47)">g</text>
      <text class="cls-12" transform="translate(288.33 75.46) scale(0.58)">+</text>
      <text class="cls-11" transform="translate(281.57 141.12)">g</text>
      <text class="cls-11" transform="translate(368.69 93.33)">p</text>
      <text class="cls-12" transform="translate(374.69 96.33) scale(0.58)">i</text>
      <text class="cls-11" transform="translate(322.49 90.12)">θ</text>
      <text class="cls-13" transform="translate(297.66 47.51)">v</text>
      <text class="cls-12" transform="translate(303.66 50.51) scale(0.58)">i</text>
      <text class="cls-11" transform="translate(417.85 108.24)">p</text>
      <text class="cls-12" transform="translate(423.85 111.24) scale(0.58)">0</text>
      <text class="cls-11" transform="translate(63.35 110.46)">p</text>
      <text class="cls-12" transform="translate(69.35 113.46) scale(0.58)">N</text>
      <g>
        <path class="cls-14" d="M333.57,95.25A34.59,34.59,0,0,1,355.08,52"/>
        <rect x="332.76" y="95.12" width="1.63" height="0.25" transform="matrix(0.97, -0.26, 0.26, 0.97, -13.26, 88.43)"/>
        <rect x="354.95" y="51.21" width="0.25" height="1.63" transform="translate(6.9 138.96) rotate(-22.36)"/>
      </g>
    </g>
  </g>
</svg>
