<svg xmlns="http://www.w3.org/2000/svg" xmlns:xlink="http://www.w3.org/1999/xlink" width="170.07mm" height="70mm" viewBox="0 0 482.087 198.425">
  <defs>
    <style>
      .cls-1, .cls-10, .cls-12, .cls-13 {
        fill: none;
      }

      .cls-2, .cls-3 {
        fill: #fff;
      }

      .cls-2 {
        stroke: #2a4d9c;
      }

      .cls-10, .cls-12, .cls-13, .cls-2, .cls-3 {
        stroke-miterlimit: 10;
      }

      .cls-3 {
        stroke: #c91517;
      }

      .cls-4 {
        clip-path: url(#clip-path);
      }

      .cls-5 {
        opacity: 0.41;
        fill: url(#Degradado_sin_nombre_105);
      }

      .cls-6 {
        fill: #3f82c4;
      }

      .cls-7 {
        opacity: 0.61;
      }

      .cls-8 {
        fill: #b2b2b2;
      }

      .cls-9 {
        fill: #c91517;
      }

      .cls-10, .cls-12, .cls-13 {
        stroke: #000;
      }

      .cls-11 {
        fill: #1d1d1b;
      }

      .cls-12 {
        stroke-width: 0.4px;
      }

      .cls-13 {
        stroke-width: 0.25px;
      }
    </style>
    <clipPath id="clip-path">
      <polygon class="cls-1" points="261.475 70.311 234.586 43.422 220.612 69.982 235.244 96.542 261.475 70.311"/>
    </clipPath>
    <radialGradient id="Degradado_sin_nombre_105" data-name="Degradado sin nombre 105" cx="261.937" cy="70.803" r="34.599" gradientUnits="userSpaceOnUse">
      <stop offset="0" stop-color="#c1962b"/>
      <stop offset="0.174" stop-color="#c1962b" stop-opacity="0.985"/>
      <stop offset="0.3" stop-color="#c1962b" stop-opacity="0.937"/>
      <stop offset="0.41" stop-color="#c1962b" stop-opacity="0.855"/>
      <stop offset="0.511" stop-color="#c1962b" stop-opacity="0.74"/>
      <stop offset="0.54" stop-color="#c1962b" stop-opacity="0.7"/>
      <stop offset="0.609" stop-color="#c7a03f" stop-opacity="0.634"/>
      <stop offset="0.735" stop-color="#d6ba74" stop-opacity="0.458"/>
      <stop offset="0.904" stop-color="#efe4c9" stop-opacity="0.177"/>
      <stop offset="1" stop-color="#fff" stop-opacity="0"/>
    </radialGradient>
    <symbol id="Blue_Point" data-name="Blue Point" viewBox="0 0 5.201 5.201">
      <circle class="cls-2" cx="2.601" cy="2.601" r="2.101"/>
    </symbol>
    <symbol id="Red_dot" data-name="Red dot" viewBox="0 0 5.201 5.201">
      <circle class="cls-3" cx="2.601" cy="2.601" r="2.101"/>
    </symbol>
  </defs>
  <title>Diagram-BestFitGeodesic</title>
  <g id="Diagram_Best_Fit_Geodesic" data-name="Diagram Best Fit Geodesic">
    <g id="Angle">
      <g class="cls-4">
        <circle class="cls-5" cx="261.937" cy="70.803" r="34.599"/>
      </g>
    </g>
    <g id="PerpGs">
      <g>
        <polygon class="cls-6" points="75.576 159.938 42.633 65.708 76.518 159.603 75.576 159.938"/>
        <polygon class="cls-6" points="166.03 136.432 150.344 37.85 167.017 136.27 166.03 136.432"/>
        <polygon class="cls-6" points="212.488 131.012 206.362 31.378 213.486 130.946 212.488 131.012"/>
        <polygon class="cls-6" points="259.252 130.233 263.368 30.495 260.252 130.269 259.252 130.233"/>
        <polygon class="cls-6" points="305.852 134.244 319.932 35.419 306.842 134.38 305.852 134.244"/>
        <polygon class="cls-6" points="351.844 142.759 375.159 45.697 352.818 142.988 351.844 142.759"/>
        <polygon class="cls-6" points="396.863 155.456 428.769 60.869 397.813 155.77 396.863 155.456"/>
        <polygon class="cls-6" points="120.28 146.169 95.69 49.423 121.248 145.918 120.28 146.169"/>
      </g>
    </g>
    <g id="RefPts" class="cls-7">
      <g>
        <path class="cls-8" d="M105.615,80.736A20.827,20.827,0,0,1,106.2,84.2a36.387,36.387,0,0,1,0,6.933,20.631,20.631,0,0,1-.586,3.466,20.73,20.73,0,0,1-.585-3.466,33.8,33.8,0,0,1-.164-3.466,34.385,34.385,0,0,1,.166-3.467A21.036,21.036,0,0,1,105.615,80.736Z"/>
        <path class="cls-8" d="M202.053,70.8a20.9,20.9,0,0,1,3.466-.583,34.648,34.648,0,0,1,3.466-.167,34.087,34.087,0,0,1,3.466.165,20.73,20.73,0,0,1,3.466.585,20.628,20.628,0,0,1-3.466.585,34.087,34.087,0,0,1-3.466.165,34.648,34.648,0,0,1-3.466-.167A20.793,20.793,0,0,1,202.053,70.8Z"/>
        <path class="cls-8" d="M55.859,96.009a20.827,20.827,0,0,1,.583,3.466,34.386,34.386,0,0,1,.167,3.467,34.052,34.052,0,0,1-.164,3.465,20.626,20.626,0,0,1-.586,3.467,20.725,20.725,0,0,1-.585-3.467,33.766,33.766,0,0,1-.164-3.465,34.681,34.681,0,0,1,.166-3.467A21.036,21.036,0,0,1,55.859,96.009Z"/>
        <path class="cls-8" d="M48.927,102.942a20.827,20.827,0,0,1,3.466-.583,34.381,34.381,0,0,1,3.466-.167,33.772,33.772,0,0,1,3.466.164,20.6,20.6,0,0,1,3.466.586,20.7,20.7,0,0,1-3.466.585,36.486,36.486,0,0,1-6.932,0A21.036,21.036,0,0,1,48.927,102.942Z"/>
        <path class="cls-8" d="M149.817,76.84a20.793,20.793,0,0,1,3.466-.583,36.376,36.376,0,0,1,6.932,0,20.733,20.733,0,0,1,3.466.586,20.73,20.73,0,0,1-3.466.585,33.8,33.8,0,0,1-3.466.164,34.351,34.351,0,0,1-3.466-.166A21,21,0,0,1,149.817,76.84Z"/>
        <path class="cls-8" d="M156.749,69.908a21,21,0,0,1,.583,3.466,34.647,34.647,0,0,1,.166,3.466,33.8,33.8,0,0,1-.164,3.466,20.73,20.73,0,0,1-.585,3.466,20.631,20.631,0,0,1-.586-3.466,36.376,36.376,0,0,1,0-6.932A20.793,20.793,0,0,1,156.749,69.908Z"/>
        <path class="cls-8" d="M208.985,63.871a21.018,21.018,0,0,1,.583,3.466,34.365,34.365,0,0,1,.166,3.466,33.786,33.786,0,0,1-.164,3.466,20.713,20.713,0,0,1-.585,3.466,20.614,20.614,0,0,1-.586-3.466,36.376,36.376,0,0,1,0-6.932A20.81,20.81,0,0,1,208.985,63.871Z"/>
        <path class="cls-8" d="M307.623,74.564a21,21,0,0,1,3.466-.583,34.351,34.351,0,0,1,3.466-.166,33.8,33.8,0,0,1,3.466.164,20.73,20.73,0,0,1,3.466.585,20.631,20.631,0,0,1-3.466.586,36.376,36.376,0,0,1-6.932,0A20.793,20.793,0,0,1,307.623,74.564Z"/>
        <path class="cls-8" d="M314.555,67.632a21.036,21.036,0,0,1,.583,3.466,34.675,34.675,0,0,1,.166,3.466,33.772,33.772,0,0,1-.164,3.466,20.7,20.7,0,0,1-.585,3.466,20.6,20.6,0,0,1-.586-3.466,36.376,36.376,0,0,1,0-6.932A20.827,20.827,0,0,1,314.555,67.632Z"/>
        <path class="cls-8" d="M359.191,84.163a20.793,20.793,0,0,1,3.466-.583,36.376,36.376,0,0,1,6.932,0,20.733,20.733,0,0,1,3.466.586,20.73,20.73,0,0,1-3.466.585,34.087,34.087,0,0,1-3.466.165,34.648,34.648,0,0,1-3.466-.167A21,21,0,0,1,359.191,84.163Z"/>
        <path class="cls-8" d="M409.4,98.372a21,21,0,0,1,3.466-.583,34.648,34.648,0,0,1,3.466-.167,34.087,34.087,0,0,1,3.466.165,20.73,20.73,0,0,1,3.466.585,20.733,20.733,0,0,1-3.466.586,36.376,36.376,0,0,1-6.932,0A20.9,20.9,0,0,1,409.4,98.372Z"/>
        <path class="cls-8" d="M366.123,77.231a20.9,20.9,0,0,1,.583,3.466,34.648,34.648,0,0,1,.167,3.466,34.087,34.087,0,0,1-.165,3.466,20.713,20.713,0,0,1-.585,3.466,20.611,20.611,0,0,1-.585-3.466,36.267,36.267,0,0,1,0-6.932A20.793,20.793,0,0,1,366.123,77.231Z"/>
        <path class="cls-8" d="M98.683,87.669a20.827,20.827,0,0,1,3.466-.583,36.376,36.376,0,0,1,6.932,0,20.6,20.6,0,0,1,3.466.586,20.7,20.7,0,0,1-3.466.585,34.058,34.058,0,0,1-3.466.164,34.675,34.675,0,0,1-3.466-.166A21.036,21.036,0,0,1,98.683,87.669Z"/>
        <path class="cls-8" d="M416.328,91.44a20.914,20.914,0,0,1,.583,3.466,34.677,34.677,0,0,1,.167,3.466,34.059,34.059,0,0,1-.165,3.466,20.7,20.7,0,0,1-.585,3.466,20.594,20.594,0,0,1-.585-3.466,36.267,36.267,0,0,1,0-6.932A20.81,20.81,0,0,1,416.328,91.44Z"/>
      </g>
    </g>
    <g id="StartV-2" data-name="StartV">
      <g>
        <path class="cls-9" d="M261.937,69.982l-102.444-4.51a.495.495,0,1,1,.044-.989h0Z"/>
        <polygon class="cls-9" points="163.026 61.055 163.672 61.819 159.901 64.996 163.344 68.525 162.627 69.224 158.434 64.924 163.026 61.055"/>
      </g>
    </g>
    <g id="NewG-2" data-name="NewG">
      <g>
        <path class="cls-10" d="M444.48,107.034C386.014,86.12,324.274,73.028,261.937,69.982,186.2,66.282,109.589,77.41,37.65,100.154"/>
        <path d="M444.082,106.953a7.377,7.377,0,0,0-2.976,3.782,13.627,13.627,0,0,1,6.724-2.493,14.374,14.374,0,0,1-3.767-6.1A7.639,7.639,0,0,0,444.082,106.953Z"/>
        <path d="M38.055,100.1a7.374,7.374,0,0,1,2.818,3.9,13.624,13.624,0,0,0-6.615-2.766,14.38,14.38,0,0,0,4.013-5.943A7.638,7.638,0,0,1,38.055,100.1Z"/>
      </g>
    </g>
    <g id="MainG-2" data-name="MainG">
      <path class="cls-11" d="M75.948,159.492a526.29,526.29,0,0,1,87.744-23.083A462.521,462.521,0,0,1,344.2,140.732a527.85,527.85,0,0,1,86.521,27.2,527.462,527.462,0,0,0-86.653-26.593,486.881,486.881,0,0,0-89.924-10.786,478.013,478.013,0,0,0-90.306,6.7,525.513,525.513,0,0,0-87.689,22.8Z"/>
    </g>
    <g id="StartPt-2" data-name="StartPt">
      <path class="cls-9" d="M261.937,63.05a33.143,33.143,0,0,1,.649,6.932c-.011,1.155-.039,2.311-.142,3.466a23.652,23.652,0,0,1-.507,3.466,23.518,23.518,0,0,1-.507-3.466c-.1-1.155-.131-2.311-.143-3.466A33.144,33.144,0,0,1,261.937,63.05Z"/>
      <path class="cls-9" d="M255.005,69.982a33.138,33.138,0,0,1,6.932-.65c1.155.012,2.311.039,3.466.143a23.518,23.518,0,0,1,3.466.507,23.518,23.518,0,0,1-3.466.507c-1.155.1-2.311.131-3.466.143A33.138,33.138,0,0,1,255.005,69.982Z"/>
    </g>
    <g id="ReftPts-Dots">
      <use width="5.201" height="5.201" transform="translate(53.259 100.341)" xlink:href="#Blue_Point"/>
      <use width="5.201" height="5.201" transform="translate(103.015 85.068)" xlink:href="#Blue_Point"/>
      <use width="5.201" height="5.201" transform="translate(154.148 74.239)" xlink:href="#Blue_Point"/>
      <use width="5.201" height="5.201" transform="translate(206.384 68.202)" xlink:href="#Blue_Point"/>
      <use width="5.201" height="5.201" transform="translate(311.899 72.023)" xlink:href="#Blue_Point"/>
      <use width="5.201" height="5.201" transform="translate(363.522 81.562)" xlink:href="#Blue_Point"/>
      <use width="5.201" height="5.201" transform="translate(413.727 95.772)" xlink:href="#Blue_Point"/>
    </g>
    <g id="StartPt-Dots-2" data-name="StartPt-Dots">
      <use width="5.201" height="5.201" transform="translate(259.336 67.381)" xlink:href="#Red_dot"/>
    </g>
    <g id="Arrows-2" data-name="Arrows">
      <g>
        <line class="cls-12" x1="60.195" y1="99.89" x2="58.485" y2="95.074"/>
        <path d="M60.142,99.738a2.95,2.95,0,0,0-1.926.012,5.443,5.443,0,0,1,2.456,1.482,5.74,5.74,0,0,1,.971-2.7A3.042,3.042,0,0,0,60.142,99.738Z"/>
        <path d="M58.539,95.226a2.954,2.954,0,0,1-1.5,1.206,5.459,5.459,0,0,0,.97-2.7,5.75,5.75,0,0,0,2.456,1.483A3.055,3.055,0,0,1,58.539,95.226Z"/>
      </g>
      <g>
        <line class="cls-12" x1="264.195" y1="128.896" x2="266.276" y2="71.473"/>
        <path d="M264.2,128.735a2.952,2.952,0,0,0-1.794-.7,5.439,5.439,0,0,1,1.736,2.283,5.765,5.765,0,0,1,1.9-2.152A3.052,3.052,0,0,0,264.2,128.735Z"/>
        <path d="M266.271,71.634a2.951,2.951,0,0,1-1.84.567,5.458,5.458,0,0,0,1.9-2.151,5.766,5.766,0,0,0,1.736,2.283A3.056,3.056,0,0,1,266.271,71.634Z"/>
      </g>
      <g>
        <path class="cls-13" d="M236.922,94.693a36.381,36.381,0,0,1,.48-48.278"/>
        <rect x="236.112" y="94.561" width="1.625" height="0.25" transform="matrix(0.786, -0.618, 0.618, 0.786, -7.893, 166.543)"/>
        <rect x="237.282" y="45.607" width="0.25" height="1.625" transform="translate(51.138 200.76) rotate(-50.708)"/>
      </g>
    </g>
    <g id="Text-2" data-name="Text">
      <path class="cls-11" d="M271.635,100.493l.4,4.4a15.578,15.578,0,0,0,1.629-2.244,2.155,2.155,0,0,0,.357-.891.446.446,0,0,0-.058-.229.535.535,0,0,0-.185-.155.68.68,0,0,1-.225-.211.444.444,0,0,1-.065-.231.406.406,0,0,1,.135-.308.486.486,0,0,1,.346-.126.536.536,0,0,1,.407.179.672.672,0,0,1,.167.477,1.776,1.776,0,0,1-.088.569,6.7,6.7,0,0,1-.686,1.3,21.425,21.425,0,0,1-1.28,1.772q-.659.817-.981,1.146H271.3l-.381-4.055-2.42,4.055h-.258a32.4,32.4,0,0,0-.252-3.95,1.368,1.368,0,0,0-.293-.791.637.637,0,0,0-.445-.134,3.313,3.313,0,0,0-.434.035v-.211l1.682-.393a11.226,11.226,0,0,1,.457,3.006c.024.512.043.834.059.967l2.408-3.973Z"/>
      <path class="cls-11" d="M66.677,98.766q-1.067-.258-1.066-1.066a1.231,1.231,0,0,1,.554-1.014,2.4,2.4,0,0,1,1.473-.416,2.149,2.149,0,0,1,1.3.34.935.935,0,0,1,.463.732.464.464,0,0,1-.129.334.441.441,0,0,1-.334.135.419.419,0,0,1-.34-.149.533.533,0,0,1-.123-.349,1.233,1.233,0,0,1,.012-.141q.006-.059.006-.1a.528.528,0,0,0-.164-.366.706.706,0,0,0-.533-.173,1.476,1.476,0,0,0-1,.392,1.284,1.284,0,0,0-.446,1.008q0,.768.7.768a2.1,2.1,0,0,0,.4-.053,1.561,1.561,0,0,1,.281-.041c.187,0,.281.072.281.217,0,.125-.078.187-.234.187a1.74,1.74,0,0,1-.258-.035,2.621,2.621,0,0,0-.41-.041,1.2,1.2,0,0,0-.964.457,1.631,1.631,0,0,0-.378,1.072.974.974,0,0,0,.273.7,1,1,0,0,0,.758.284.99.99,0,0,0,.979-.785,1.277,1.277,0,0,1,.217-.44.411.411,0,0,1,.322-.123.394.394,0,0,1,.305.129.445.445,0,0,1,.117.31q0,.423-.6.8a2.72,2.72,0,0,1-1.465.375,2.048,2.048,0,0,1-1.388-.4,1.256,1.256,0,0,1-.451-.979,1.448,1.448,0,0,1,.465-1.054A2.056,2.056,0,0,1,66.677,98.766Z"/>
      <g>
        <path class="cls-11" d="M297.5,76.3l-.17.61h-.978a1.793,1.793,0,0,1,.111.592,1.832,1.832,0,0,1-.656,1.377,2.84,2.84,0,0,1-1.817.667,2.681,2.681,0,0,0-.931.446.256.256,0,0,0-.117.193.287.287,0,0,0,.1.214,1.4,1.4,0,0,0,.533.2l1.137.264a2.752,2.752,0,0,1,1.248.527,1,1,0,0,1,.3.715,1.292,1.292,0,0,1-.355.879,2.326,2.326,0,0,1-1.037.624,5.152,5.152,0,0,1-2.833.053,1.779,1.779,0,0,1-.855-.466.908.908,0,0,1-.258-.6,1.012,1.012,0,0,1,.167-.525,1.474,1.474,0,0,1,.419-.448q.158-.111.9-.527a.6.6,0,0,1-.269-.463.768.768,0,0,1,.237-.5,2.954,2.954,0,0,1,1-.581A1.777,1.777,0,0,1,292.354,79a1.344,1.344,0,0,1-.378-.925,1.965,1.965,0,0,1,.729-1.489,2.8,2.8,0,0,1,1.942-.656,2.451,2.451,0,0,1,.721.088,1.942,1.942,0,0,1,.545.275Zm-4.84,4.94a1.748,1.748,0,0,0-.717.556,1.147,1.147,0,0,0-.244.668.76.76,0,0,0,.352.639,2.511,2.511,0,0,0,1.476.363,3.29,3.29,0,0,0,1.433-.284q.6-.284.6-.735a.6.6,0,0,0-.22-.434,1.858,1.858,0,0,0-.852-.334Q294.132,81.6,292.655,81.235Zm2.807-4.02a1.017,1.017,0,0,0-.261-.738.9.9,0,0,0-.682-.269,1.269,1.269,0,0,0-1.093.665A2.512,2.512,0,0,0,293,78.258a1.024,1.024,0,0,0,.276.739.891.891,0,0,0,.667.287,1.173,1.173,0,0,0,.6-.17,1.5,1.5,0,0,0,.489-.469,2.445,2.445,0,0,0,.317-.762A3.118,3.118,0,0,0,295.462,77.215Z"/>
        <path class="cls-11" d="M299,83.871V82.592h-1.274v-.21H299V81.109h.21v1.273h1.279v.21h-1.279v1.279Z"/>
      </g>
      <path class="cls-11" d="M267.032,137.769l-.17.609h-.979a1.77,1.77,0,0,1,.112.592,1.83,1.83,0,0,1-.657,1.377,2.841,2.841,0,0,1-1.816.668,2.688,2.688,0,0,0-.932.445.256.256,0,0,0-.117.193.284.284,0,0,0,.106.214,1.379,1.379,0,0,0,.533.2l1.137.264a2.774,2.774,0,0,1,1.248.527,1,1,0,0,1,.3.715,1.292,1.292,0,0,1-.354.879,2.326,2.326,0,0,1-1.037.624,5.152,5.152,0,0,1-2.833.053,1.778,1.778,0,0,1-.856-.466.906.906,0,0,1-.257-.6,1,1,0,0,1,.167-.525,1.482,1.482,0,0,1,.418-.448q.159-.111.9-.527a.594.594,0,0,1-.27-.463.771.771,0,0,1,.238-.5,2.956,2.956,0,0,1,1-.58,1.789,1.789,0,0,1-1.023-.539,1.346,1.346,0,0,1-.378-.926,1.959,1.959,0,0,1,.73-1.488,2.79,2.79,0,0,1,1.942-.657,2.49,2.49,0,0,1,.721.088,1.959,1.959,0,0,1,.545.276Zm-4.84,4.939a1.747,1.747,0,0,0-.718.557,1.148,1.148,0,0,0-.243.668.757.757,0,0,0,.352.638,2.509,2.509,0,0,0,1.476.364,3.293,3.293,0,0,0,1.433-.285q.594-.283.594-.735a.6.6,0,0,0-.219-.434,1.863,1.863,0,0,0-.853-.334Q263.669,143.078,262.192,142.708Zm2.807-4.02a1.017,1.017,0,0,0-.261-.738.907.907,0,0,0-.683-.269,1.272,1.272,0,0,0-1.093.665,2.511,2.511,0,0,0-.43,1.385,1.027,1.027,0,0,0,.275.739.893.893,0,0,0,.668.287,1.179,1.179,0,0,0,.6-.17,1.5,1.5,0,0,0,.489-.469,2.445,2.445,0,0,0,.316-.762A3.137,3.137,0,0,0,265,138.688Z"/>
      <g>
        <path class="cls-11" d="M269.535,59.121l-.4,1.348a4.969,4.969,0,0,1,1.14-1.049,1.971,1.971,0,0,1,1.022-.3,1.154,1.154,0,0,1,.891.413,1.554,1.554,0,0,1,.369,1.075,4.26,4.26,0,0,1-1.049,2.622,3.057,3.057,0,0,1-2.443,1.333,1.89,1.89,0,0,1-.519-.064,2.264,2.264,0,0,1-.507-.229l-.428,1.512a2.764,2.764,0,0,0-.128.58.359.359,0,0,0,.067.22.432.432,0,0,0,.22.141,2.348,2.348,0,0,0,.6.049l-.053.217h-2.759l.058-.217a1.263,1.263,0,0,0,.736-.187,2.15,2.15,0,0,0,.4-.908l1.482-5.133a3.355,3.355,0,0,0,.135-.6.326.326,0,0,0-.091-.246.388.388,0,0,0-.278-.088,3.891,3.891,0,0,0-.475.041V59.42Zm-1.365,4.688a1.209,1.209,0,0,0,.978.433,1.3,1.3,0,0,0,.622-.17,2.34,2.34,0,0,0,.618-.5,4.046,4.046,0,0,0,.542-.77,5.892,5.892,0,0,0,.43-1.028,3.816,3.816,0,0,0,.191-1.172,1.074,1.074,0,0,0-.214-.718.645.645,0,0,0-.5-.249,1.7,1.7,0,0,0-1.251.726,4.593,4.593,0,0,0-.9,1.7Z"/>
        <path class="cls-11" d="M274.088,65.1l-.508,1.8a1.367,1.367,0,0,0-.051.218.09.09,0,0,0,.025.067.074.074,0,0,0,.057.025.158.158,0,0,0,.092-.041,1.542,1.542,0,0,0,.3-.328l.09.059a1.806,1.806,0,0,1-.41.449.553.553,0,0,1-.333.135.24.24,0,0,1-.172-.063.207.207,0,0,1-.067-.157,1.351,1.351,0,0,1,.064-.315L273.5,65.8a1.862,1.862,0,0,0,.081-.353.121.121,0,0,0-.039-.093.161.161,0,0,0-.109-.036,1.888,1.888,0,0,0-.233.029v-.1Zm-.033-1.017a.256.256,0,0,1,.256.256.255.255,0,0,1-.437.181.243.243,0,0,1-.076-.181.254.254,0,0,1,.257-.256Z"/>
      </g>
      <g>
        <path class="cls-11" d="M186.666,61.248,184.82,57a4.175,4.175,0,0,0-.521-.972.693.693,0,0,0-.4-.2v-.217h2.912v.217a.533.533,0,0,0-.374.1.4.4,0,0,0-.141.3,2.623,2.623,0,0,0,.258.815l.9,2.056.721-1.775a3.425,3.425,0,0,0,.31-1.078.373.373,0,0,0-.132-.3.763.763,0,0,0-.465-.126v-.217h1.793v.217a.73.73,0,0,0-.422.193,3.549,3.549,0,0,0-.492.932l-1.829,4.3Z"/>
        <path class="cls-11" d="M191,61.762l-.508,1.8a1.288,1.288,0,0,0-.05.218.088.088,0,0,0,.024.066.077.077,0,0,0,.058.026.165.165,0,0,0,.091-.041,1.516,1.516,0,0,0,.3-.328l.09.059a1.819,1.819,0,0,1-.41.448.549.549,0,0,1-.333.136.242.242,0,0,1-.172-.063.206.206,0,0,1-.066-.157,1.331,1.331,0,0,1,.063-.316l.334-1.147a1.865,1.865,0,0,0,.081-.354.12.12,0,0,0-.039-.092.154.154,0,0,0-.109-.036,1.838,1.838,0,0,0-.233.028v-.1Zm-.033-1.017a.256.256,0,0,1,0,.512.257.257,0,0,1-.183-.438A.252.252,0,0,1,190.963,60.745Z"/>
      </g>
      <g>
        <path class="cls-11" d="M420.071,101.115l-.4,1.348a4.969,4.969,0,0,1,1.14-1.049,1.974,1.974,0,0,1,1.022-.3,1.154,1.154,0,0,1,.891.413,1.554,1.554,0,0,1,.369,1.075,4.265,4.265,0,0,1-1.049,2.623,3.059,3.059,0,0,1-2.443,1.333,1.893,1.893,0,0,1-.519-.065,2.3,2.3,0,0,1-.507-.228l-.427,1.511a2.8,2.8,0,0,0-.129.58.357.357,0,0,0,.067.22.426.426,0,0,0,.22.141,2.333,2.333,0,0,0,.6.05l-.052.216h-2.76l.058-.216a1.269,1.269,0,0,0,.736-.188,2.15,2.15,0,0,0,.4-.908l1.483-5.133a3.426,3.426,0,0,0,.134-.6.327.327,0,0,0-.091-.247.388.388,0,0,0-.278-.087,3.671,3.671,0,0,0-.474.041v-.229Zm-1.365,4.688a1.21,1.21,0,0,0,.979.433,1.3,1.3,0,0,0,.621-.17,2.325,2.325,0,0,0,.618-.5,4.046,4.046,0,0,0,.542-.77,5.816,5.816,0,0,0,.43-1.028,3.816,3.816,0,0,0,.191-1.172,1.069,1.069,0,0,0-.214-.718.645.645,0,0,0-.5-.249,1.7,1.7,0,0,0-1.251.727,4.581,4.581,0,0,0-.9,1.7Z"/>
        <path class="cls-11" d="M425.23,105.869a.685.685,0,0,1,.553.275,1.354,1.354,0,0,1,.224.865,3.424,3.424,0,0,1-.166,1.035,2.907,2.907,0,0,1-.469.915,1.6,1.6,0,0,1-.5.441.787.787,0,0,1-.356.077.693.693,0,0,1-.557-.275,1.365,1.365,0,0,1-.225-.868,3.3,3.3,0,0,1,.226-1.179,2.586,2.586,0,0,1,.674-1.05A.892.892,0,0,1,425.23,105.869Zm0,.133a.494.494,0,0,0-.3.117,1.273,1.273,0,0,0-.316.485,6.319,6.319,0,0,0-.311.951,5.445,5.445,0,0,0-.192,1.3.591.591,0,0,0,.115.4.358.358,0,0,0,.28.132.372.372,0,0,0,.265-.1,2.17,2.17,0,0,0,.5-.945,6.268,6.268,0,0,0,.341-1.778.634.634,0,0,0-.115-.419A.347.347,0,0,0,425.233,106Z"/>
      </g>
      <g>
        <path class="cls-11" d="M49.241,106.039l-.4,1.347a4.992,4.992,0,0,1,1.14-1.049,1.973,1.973,0,0,1,1.022-.3,1.151,1.151,0,0,1,.891.413,1.551,1.551,0,0,1,.369,1.075,4.264,4.264,0,0,1-1.049,2.622,3.057,3.057,0,0,1-2.443,1.333,1.888,1.888,0,0,1-.519-.065,2.3,2.3,0,0,1-.507-.228l-.428,1.512a2.834,2.834,0,0,0-.128.58.354.354,0,0,0,.067.219.426.426,0,0,0,.22.141,2.333,2.333,0,0,0,.6.05l-.053.217H45.263l.058-.217a1.262,1.262,0,0,0,.736-.188,2.15,2.15,0,0,0,.4-.908l1.482-5.133a3.371,3.371,0,0,0,.135-.6.323.323,0,0,0-.091-.246.383.383,0,0,0-.278-.088,3.891,3.891,0,0,0-.475.041v-.229Zm-1.365,4.687a1.21,1.21,0,0,0,.978.434,1.311,1.311,0,0,0,.622-.17,2.364,2.364,0,0,0,.618-.5,4.086,4.086,0,0,0,.542-.771,5.859,5.859,0,0,0,.43-1.028,3.811,3.811,0,0,0,.191-1.172,1.071,1.071,0,0,0-.214-.718.645.645,0,0,0-.5-.249,1.705,1.705,0,0,0-1.251.727,4.589,4.589,0,0,0-.9,1.7Z"/>
        <path class="cls-11" d="M54.091,110.864l1.073,2.724.582-2.034a1.526,1.526,0,0,0,.071-.39.179.179,0,0,0-.066-.148.4.4,0,0,0-.248-.055c-.021,0-.042,0-.065,0l.029-.095h1.117l-.031.095a.644.644,0,0,0-.259.036.422.422,0,0,0-.179.138,1.585,1.585,0,0,0-.167.421l-.817,2.864h-.092l-1.156-2.931-.617,2.165a1.53,1.53,0,0,0-.07.376.178.178,0,0,0,.064.148.648.648,0,0,0,.3.068l-.026.094H52.44l.037-.094a.877.877,0,0,0,.274-.036.356.356,0,0,0,.156-.121,1.706,1.706,0,0,0,.166-.435l.69-2.416a.588.588,0,0,0-.214-.212.9.9,0,0,0-.355-.065l.029-.095Z"/>
      </g>
      <path class="cls-11" d="M225.012,75.524q1.629,0,1.629,2.233a8.086,8.086,0,0,1-.659,2.985,6.937,6.937,0,0,1-1.506,2.446,2.523,2.523,0,0,1-1.743.809,1.417,1.417,0,0,1-1.192-.624,2.549,2.549,0,0,1-.46-1.556,7.275,7.275,0,0,1,.263-1.652,10.834,10.834,0,0,1,.791-2.13,5.863,5.863,0,0,1,1.322-1.793A2.36,2.36,0,0,1,225.012,75.524Zm-2.584,4.319a9.247,9.247,0,0,0-.539,2.578,1.738,1.738,0,0,0,.24.958.8.8,0,0,0,.715.372,1.087,1.087,0,0,0,.739-.314,4.43,4.43,0,0,0,.808-1.274,16.067,16.067,0,0,0,.873-2.32Zm2.947-.334a7.911,7.911,0,0,0,.393-2.4q0-1.335-.756-1.336-.661,0-1.3,1a11.357,11.357,0,0,0-1.171,2.739Z"/>
    </g>
  </g>
  <g id="CuttyPTwithGeodesics">
    <line class="cls-1" x1="67.542" y1="97.185" x2="69.727" y2="36.903"/>
  </g>
</svg>
