<svg xmlns="http://www.w3.org/2000/svg" xmlns:xlink="http://www.w3.org/1999/xlink" viewBox="0 0 482.09 198.43">
  <defs>
    <clipPath id="clip-path">
      <polygon points="261.48 70.31 234.59 43.42 220.61 69.98 235.24 96.54 261.48 70.31" style="fill: none"/>
    </clipPath>
    <radialGradient id="Degradado_sin_nombre_105" data-name="Degradado sin nombre 105" cx="261.94" cy="70.8" r="34.6" gradientUnits="userSpaceOnUse">
      <stop offset="0" stop-color="#c1962b"/>
      <stop offset="0.17" stop-color="#c1962b" stop-opacity="0.98"/>
      <stop offset="0.3" stop-color="#c1962b" stop-opacity="0.94"/>
      <stop offset="0.41" stop-color="#c1962b" stop-opacity="0.85"/>
      <stop offset="0.51" stop-color="#c1962b" stop-opacity="0.74"/>
      <stop offset="0.54" stop-color="#c1962b" stop-opacity="0.7"/>
      <stop offset="0.61" stop-color="#c7a03f" stop-opacity="0.63"/>
      <stop offset="0.73" stop-color="#d6ba74" stop-opacity="0.46"/>
      <stop offset="0.9" stop-color="#efe4c9" stop-opacity="0.18"/>
      <stop offset="1" stop-color="#fff" stop-opacity="0"/>
    </radialGradient>
    <symbol id="Blue_Point" data-name="Blue Point" viewBox="0 0 5.2 5.2">
      <circle cx="2.6" cy="2.6" r="2.1" style="fill: #fff;stroke: #2a4d9c;stroke-miterlimit: 10"/>
    </symbol>
    <symbol id="Red_dot" data-name="Red dot" viewBox="0 0 5.2 5.2">
      <circle cx="2.6" cy="2.6" r="2.1" style="fill: #fff;stroke: #c91517;stroke-miterlimit: 10"/>
    </symbol>
  </defs>
  <title>Diagram-BestFitGeodesic</title>
  <g id="Diagram_Best_Fit_Geodesic" data-name="Diagram Best Fit Geodesic">
    <g id="Angle">
      <g style="clip-path: url(#clip-path)">
        <circle cx="261.94" cy="70.8" r="34.6" style="opacity: 0.41000000000000003;fill: url(#Degradado_sin_nombre_105)"/>
      </g>
    </g>
    <g id="PerpGs">
      <g>
        <polygon points="75.58 159.94 42.63 65.71 76.52 159.6 75.58 159.94" style="fill: #3f82c4"/>
        <polygon points="166.03 136.43 150.34 37.85 167.02 136.27 166.03 136.43" style="fill: #3f82c4"/>
        <polygon points="212.49 131.01 206.36 31.38 213.49 130.95 212.49 131.01" style="fill: #3f82c4"/>
        <polygon points="259.25 130.23 263.37 30.5 260.25 130.27 259.25 130.23" style="fill: #3f82c4"/>
        <polygon points="305.85 134.24 319.93 35.42 306.84 134.38 305.85 134.24" style="fill: #3f82c4"/>
        <polygon points="351.84 142.76 375.16 45.7 352.82 142.99 351.84 142.76" style="fill: #3f82c4"/>
        <polygon points="396.86 155.46 428.77 60.87 397.81 155.77 396.86 155.46" style="fill: #3f82c4"/>
        <polygon points="120.28 146.17 95.69 49.42 121.25 145.92 120.28 146.17" style="fill: #3f82c4"/>
      </g>
    </g>
    <g id="StartV-2" data-name="StartV">
      <g>
        <path d="M261.94,70,159.49,65.47a.5.5,0,0,1,0-1h0Z" style="fill: #c91517"/>
        <polygon points="163.03 61.05 163.67 61.82 159.9 65 163.34 68.53 162.63 69.22 158.43 64.92 163.03 61.05" style="fill: #c91517"/>
      </g>
    </g>
    <g id="NewG-2" data-name="NewG">
      <g>
        <path d="M444.48,107C386,86.12,324.27,73,261.94,70c-75.74-3.7-152.35,7.43-224.29,30.17" style="fill: none;stroke: #000;stroke-miterlimit: 10"/>
        <path d="M444.08,107a7.33,7.33,0,0,0-3,3.79,13.58,13.58,0,0,1,6.72-2.5,14.38,14.38,0,0,1-3.77-6.1A7.68,7.68,0,0,0,444.08,107Z"/>
        <path d="M38.05,100.1a7.38,7.38,0,0,1,2.82,3.9,13.55,13.55,0,0,0-6.61-2.76,14.42,14.42,0,0,0,4-5.95A7.6,7.6,0,0,1,38.05,100.1Z"/>
      </g>
    </g>
    <g id="MainG-2" data-name="MainG">
      <path d="M76,159.49a527.34,527.34,0,0,1,87.74-23.08,462.73,462.73,0,0,1,180.51,4.32,529,529,0,0,1,86.52,27.2,527.5,527.5,0,0,0-86.65-26.59,487,487,0,0,0-89.93-10.79,478.58,478.58,0,0,0-90.31,6.7,525.63,525.63,0,0,0-87.68,22.8Z" style="fill: #1d1d1b"/>
    </g>
    <g id="ReftPts-Dots">
      <use width="5.2" height="5.2" transform="translate(53.26 100.34)" xlink:href="#Blue_Point"/>
      <use width="5.2" height="5.2" transform="translate(103.01 85.07)" xlink:href="#Blue_Point"/>
      <use width="5.2" height="5.2" transform="translate(154.15 74.24)" xlink:href="#Blue_Point"/>
      <use width="5.2" height="5.2" transform="translate(206.38 68.2)" xlink:href="#Blue_Point"/>
      <use width="5.2" height="5.2" transform="translate(311.9 72.02)" xlink:href="#Blue_Point"/>
      <use width="5.2" height="5.2" transform="translate(363.52 81.56)" xlink:href="#Blue_Point"/>
      <use width="5.2" height="5.2" transform="translate(413.73 95.77)" xlink:href="#Blue_Point"/>
    </g>
    <g id="StartPt-Dots-2" data-name="StartPt-Dots">
      <use width="5.2" height="5.2" transform="translate(259.34 67.38)" xlink:href="#Red_dot"/>
    </g>
    <g id="Arrows-2" data-name="Arrows">
      <g>
        <line x1="60.2" y1="99.89" x2="58.48" y2="95.07" style="fill: none;stroke: #000;stroke-miterlimit: 10;stroke-width: 0.4px"/>
        <path d="M60.14,99.74a2.88,2.88,0,0,0-1.92,0,5.44,5.44,0,0,1,2.45,1.48,5.76,5.76,0,0,1,1-2.7A3.09,3.09,0,0,0,60.14,99.74Z"/>
        <path d="M58.54,95.23a3,3,0,0,1-1.5,1.2,5.55,5.55,0,0,0,1-2.7,5.72,5.72,0,0,0,2.45,1.48A3.08,3.08,0,0,1,58.54,95.23Z"/>
      </g>
      <g>
        <line x1="264.19" y1="128.9" x2="266.28" y2="71.47" style="fill: none;stroke: #000;stroke-miterlimit: 10;stroke-width: 0.4px"/>
        <path d="M264.2,128.73a2.91,2.91,0,0,0-1.79-.69,5.35,5.35,0,0,1,1.73,2.28,5.78,5.78,0,0,1,1.9-2.15A3.06,3.06,0,0,0,264.2,128.73Z"/>
        <path d="M266.27,71.63a2.88,2.88,0,0,1-1.84.57,5.41,5.41,0,0,0,1.9-2.15,5.78,5.78,0,0,0,1.73,2.28A3,3,0,0,1,266.27,71.63Z"/>
      </g>
      <g>
        <path d="M236.92,94.69a36.38,36.38,0,0,1,.48-48.27" style="fill: none;stroke: #000;stroke-miterlimit: 10;stroke-width: 0.25px"/>
        <rect x="236.11" y="94.56" width="1.62" height="0.25" transform="matrix(0.79, -0.62, 0.62, 0.79, -7.89, 166.54)"/>
        <rect x="237.28" y="45.61" width="0.25" height="1.62" transform="translate(51.14 200.76) rotate(-50.71)"/>
      </g>
    </g>
    <g id="Text-2" data-name="Text">
      <text transform="translate(266.61 105.8)" style="font-size: 12px;fill: #1d1d1b;font-family: TimesNewRomanPS-ItalicMT, Times New Roman;font-style: italic">w</text>
      <text transform="translate(64.7 101.57)" style="font-size: 12px;fill: #1d1d1b;font-family: TimesNewRomanPS-ItalicMT, Times New Roman;font-style: italic">ε</text>
      <text transform="translate(291.24 81.23)" style="font-size: 12px;fill: #1d1d1b;font-family: TimesNewRomanPS-ItalicMT, Times New Roman;font-style: italic">g</text>
      <text transform="translate(297.24 84.23) scale(0.58)" style="font-size: 9px;fill: #1d1d1b;font-family: TimesNewRomanPS-ItalicMT, Times New Roman;font-style: italic">+</text>
      <text transform="translate(260.78 142.71)" style="font-size: 12px;fill: #1d1d1b;font-family: TimesNewRomanPS-ItalicMT, Times New Roman;font-style: italic">g</text>
      <text transform="translate(266.88 64.42)" style="font-size: 12px;fill: #1d1d1b;font-family: TimesNewRomanPS-ItalicMT, Times New Roman;font-style: italic">p</text>
      <text transform="translate(272.88 67.42) scale(0.58)" style="font-size: 9px;fill: #1d1d1b;font-family: TimesNewRomanPS-ItalicMT, Times New Roman;font-style: italic">i</text>
      <text transform="translate(183.79 61.08)" style="font-size: 12px;fill: #1d1d1b;font-family: TimesNewRomanPS-BoldMT, Times New Roman;font-weight: 700">v</text>
      <text transform="translate(189.79 64.08) scale(0.58)" style="font-size: 9px;fill: #1d1d1b;font-family: TimesNewRomanPS-ItalicMT, Times New Roman;font-style: italic">i</text>
      <text transform="translate(417.42 106.42)" style="font-size: 12px;fill: #1d1d1b;font-family: TimesNewRomanPS-ItalicMT, Times New Roman;font-style: italic">p</text>
      <text transform="translate(423.42 109.41) scale(0.58)" style="font-size: 9px;fill: #1d1d1b;font-family: TimesNewRomanPS-ItalicMT, Times New Roman;font-style: italic">0</text>
      <text transform="translate(46.59 111.34)" style="font-size: 12px;fill: #1d1d1b;font-family: TimesNewRomanPS-ItalicMT, Times New Roman;font-style: italic">p</text>
      <text transform="translate(52.59 114.34) scale(0.58)" style="font-size: 9px;fill: #1d1d1b;font-family: TimesNewRomanPS-ItalicMT, Times New Roman;font-style: italic">N</text>
      <text transform="translate(220.55 83.86)" style="font-size: 12px;fill: #1d1d1b;font-family: TimesNewRomanPS-ItalicMT, Times New Roman;font-style: italic">θ</text>
    </g>
  </g>
  <g id="CuttyPTwithGeodesics">
    <line x1="67.54" y1="97.19" x2="69.73" y2="36.9" style="fill: none"/>
  </g>
</svg>
