<svg xmlns="http://www.w3.org/2000/svg" xmlns:xlink="http://www.w3.org/1999/xlink" width="170.07mm" height="70mm" viewBox="0 0 482.087 198.425">
  <defs>
    <style>
      .cls-1, .cls-12, .cls-13 {
        fill: none;
      }

      .cls-2, .cls-3 {
        fill: #fff;
      }

      .cls-2 {
        stroke: #2a4d9c;
      }

      .cls-12, .cls-13, .cls-2, .cls-3 {
        stroke-miterlimit: 10;
      }

      .cls-3 {
        stroke: #c91517;
      }

      .cls-4 {
        clip-path: url(#clip-path);
      }

      .cls-5 {
        opacity: 0.41;
        fill: url(#Degradado_sin_nombre_105);
      }

      .cls-6 {
        fill: #3f82c4;
      }

      .cls-7 {
        opacity: 0.61;
      }

      .cls-8 {
        fill: #b2b2b2;
      }

      .cls-9 {
        fill: #c91517;
      }

      .cls-10 {
        fill: #2a4d9c;
      }

      .cls-11 {
        fill: #1d1d1b;
      }

      .cls-12, .cls-13 {
        stroke: #000;
      }

      .cls-12 {
        stroke-width: 0.4px;
      }

      .cls-13 {
        stroke-width: 0.25px;
      }
    </style>
    <clipPath id="clip-path">
      <polygon class="cls-1" points="366.306 84.03 353.849 48.101 329.684 65.899 331.257 96.182 366.306 84.03"/>
    </clipPath>
    <radialGradient id="Degradado_sin_nombre_105" data-name="Degradado sin nombre 105" cx="-5.186" cy="282.365" r="34.599" gradientTransform="matrix(0.9, 0.436, -0.436, 0.9, 494.41, -167.115)" gradientUnits="userSpaceOnUse">
      <stop offset="0" stop-color="#c1962b"/>
      <stop offset="0.174" stop-color="#c1962b" stop-opacity="0.985"/>
      <stop offset="0.3" stop-color="#c1962b" stop-opacity="0.937"/>
      <stop offset="0.41" stop-color="#c1962b" stop-opacity="0.855"/>
      <stop offset="0.511" stop-color="#c1962b" stop-opacity="0.74"/>
      <stop offset="0.54" stop-color="#c1962b" stop-opacity="0.7"/>
      <stop offset="0.609" stop-color="#c7a03f" stop-opacity="0.634"/>
      <stop offset="0.735" stop-color="#d6ba74" stop-opacity="0.458"/>
      <stop offset="0.904" stop-color="#efe4c9" stop-opacity="0.177"/>
      <stop offset="1" stop-color="#fff" stop-opacity="0"/>
    </radialGradient>
    <symbol id="Red_dot" data-name="Red dot" viewBox="0 0 5.201 5.201">
      <circle class="cls-3" cx="2.601" cy="2.601" r="2.101"/>
    </symbol>
    <symbol id="Blue_Point" data-name="Blue Point" viewBox="0 0 5.201 5.201">
      <circle class="cls-2" cx="2.601" cy="2.601" r="2.101"/>
    </symbol>
  </defs>
  <title>Diagram-PieceWiseGeodesic</title>
  <g id="Diagram_Piecewise_Geodesic" data-name="Diagram Piecewise  Geodesic">
    <g id="Angle">
      <g class="cls-4">
        <circle class="cls-5" cx="366.507" cy="84.674" r="34.599"/>
      </g>
    </g>
    <g id="PerpGs">
      <g>
        <polygon class="cls-6" points="75.576 159.938 42.633 65.708 76.518 159.603 75.576 159.938"/>
        <polygon class="cls-6" points="166.03 136.432 150.344 37.85 167.017 136.27 166.03 136.432"/>
        <polygon class="cls-6" points="212.488 131.012 206.362 31.378 213.486 130.946 212.488 131.012"/>
        <polygon class="cls-6" points="259.252 130.233 263.368 30.495 260.252 130.269 259.252 130.233"/>
        <polygon class="cls-6" points="305.852 134.244 319.932 35.419 306.842 134.38 305.852 134.244"/>
        <polygon class="cls-6" points="351.844 142.759 375.159 45.697 352.818 142.988 351.844 142.759"/>
        <polygon class="cls-6" points="396.863 155.456 428.769 60.869 397.813 155.77 396.863 155.456"/>
        <polygon class="cls-6" points="120.28 146.169 95.69 49.423 121.248 145.918 120.28 146.169"/>
      </g>
    </g>
    <g id="RefPts" class="cls-7">
      <g>
        <path class="cls-8" d="M105.615,80.736A20.827,20.827,0,0,1,106.2,84.2a36.387,36.387,0,0,1,0,6.933,20.631,20.631,0,0,1-.586,3.466,20.73,20.73,0,0,1-.585-3.466,33.8,33.8,0,0,1-.164-3.466,34.385,34.385,0,0,1,.166-3.467A21.036,21.036,0,0,1,105.615,80.736Z"/>
        <path class="cls-8" d="M202.053,70.8a20.9,20.9,0,0,1,3.466-.583,34.648,34.648,0,0,1,3.466-.167,34.087,34.087,0,0,1,3.466.165,20.73,20.73,0,0,1,3.466.585,20.628,20.628,0,0,1-3.466.585,34.087,34.087,0,0,1-3.466.165,34.648,34.648,0,0,1-3.466-.167A20.793,20.793,0,0,1,202.053,70.8Z"/>
        <path class="cls-8" d="M55.859,96.009a20.827,20.827,0,0,1,.583,3.466,34.386,34.386,0,0,1,.167,3.467,34.052,34.052,0,0,1-.164,3.465,20.626,20.626,0,0,1-.586,3.467,20.725,20.725,0,0,1-.585-3.467,33.766,33.766,0,0,1-.164-3.465,34.681,34.681,0,0,1,.166-3.467A21.036,21.036,0,0,1,55.859,96.009Z"/>
        <path class="cls-8" d="M48.927,102.942a20.827,20.827,0,0,1,3.466-.583,34.381,34.381,0,0,1,3.466-.167,33.772,33.772,0,0,1,3.466.164,20.6,20.6,0,0,1,3.466.586,20.7,20.7,0,0,1-3.466.585,36.486,36.486,0,0,1-6.932,0A21.036,21.036,0,0,1,48.927,102.942Z"/>
        <path class="cls-8" d="M149.817,76.84a20.793,20.793,0,0,1,3.466-.583,36.376,36.376,0,0,1,6.932,0,20.733,20.733,0,0,1,3.466.586,20.73,20.73,0,0,1-3.466.585,33.8,33.8,0,0,1-3.466.164,34.351,34.351,0,0,1-3.466-.166A21,21,0,0,1,149.817,76.84Z"/>
        <path class="cls-8" d="M156.749,69.908a21,21,0,0,1,.583,3.466,34.647,34.647,0,0,1,.166,3.466,33.8,33.8,0,0,1-.164,3.466,20.73,20.73,0,0,1-.585,3.466,20.631,20.631,0,0,1-.586-3.466,36.376,36.376,0,0,1,0-6.932A20.793,20.793,0,0,1,156.749,69.908Z"/>
        <path class="cls-8" d="M208.985,63.871a21.018,21.018,0,0,1,.583,3.466,34.365,34.365,0,0,1,.166,3.466,33.786,33.786,0,0,1-.164,3.466,20.713,20.713,0,0,1-.585,3.466,20.614,20.614,0,0,1-.586-3.466,36.376,36.376,0,0,1,0-6.932A20.81,20.81,0,0,1,208.985,63.871Z"/>
        <path class="cls-8" d="M307.623,74.564a21,21,0,0,1,3.466-.583,34.351,34.351,0,0,1,3.466-.166,33.8,33.8,0,0,1,3.466.164,20.73,20.73,0,0,1,3.466.585,20.631,20.631,0,0,1-3.466.586,36.376,36.376,0,0,1-6.932,0A20.793,20.793,0,0,1,307.623,74.564Z"/>
        <path class="cls-8" d="M314.555,67.632a21.036,21.036,0,0,1,.583,3.466,34.675,34.675,0,0,1,.166,3.466,33.772,33.772,0,0,1-.164,3.466,20.7,20.7,0,0,1-.585,3.466,20.6,20.6,0,0,1-.586-3.466,36.376,36.376,0,0,1,0-6.932A20.827,20.827,0,0,1,314.555,67.632Z"/>
        <path class="cls-8" d="M359.191,84.163a20.793,20.793,0,0,1,3.466-.583,36.376,36.376,0,0,1,6.932,0,20.733,20.733,0,0,1,3.466.586,20.73,20.73,0,0,1-3.466.585,34.087,34.087,0,0,1-3.466.165,34.648,34.648,0,0,1-3.466-.167A21,21,0,0,1,359.191,84.163Z"/>
        <path class="cls-8" d="M409.4,98.372a21,21,0,0,1,3.466-.583,34.663,34.663,0,0,1,3.466-.167,34.073,34.073,0,0,1,3.466.165,20.713,20.713,0,0,1,3.466.585,20.716,20.716,0,0,1-3.466.586,36.376,36.376,0,0,1-6.932,0A20.9,20.9,0,0,1,409.4,98.372Z"/>
        <path class="cls-8" d="M366.123,77.231a20.9,20.9,0,0,1,.583,3.466,34.648,34.648,0,0,1,.167,3.466,34.087,34.087,0,0,1-.165,3.466,20.713,20.713,0,0,1-.585,3.466,20.611,20.611,0,0,1-.585-3.466,36.267,36.267,0,0,1,0-6.932A20.793,20.793,0,0,1,366.123,77.231Z"/>
        <path class="cls-8" d="M98.683,87.669a20.827,20.827,0,0,1,3.466-.583,36.376,36.376,0,0,1,6.932,0,20.6,20.6,0,0,1,3.466.586,20.7,20.7,0,0,1-3.466.585,34.058,34.058,0,0,1-3.466.164,34.675,34.675,0,0,1-3.466-.166A21.036,21.036,0,0,1,98.683,87.669Z"/>
        <path class="cls-8" d="M416.328,91.44a20.914,20.914,0,0,1,.583,3.466,34.677,34.677,0,0,1,.167,3.466,34.059,34.059,0,0,1-.165,3.466,20.7,20.7,0,0,1-.585,3.466,20.594,20.594,0,0,1-.585-3.466,36.267,36.267,0,0,1,0-6.932A20.81,20.81,0,0,1,416.328,91.44Z"/>
      </g>
    </g>
    <g id="StartV">
      <g>
        <path class="cls-9" d="M366.306,84.03l-78.96-35.616a.494.494,0,1,1,.406-.9l0,0Z"/>
        <polygon class="cls-9" points="292.267 45.626 292.582 46.576 287.901 48.124 289.787 52.68 288.861 53.062 286.566 47.512 292.267 45.626"/>
      </g>
    </g>
    <g id="NewG">
      <g>
        <path class="cls-10" d="M107,93.327a235.72,235.72,0,0,0-23.665-1.3c-3.952-.093-7.9.148-11.846.268-3.937.3-7.882.533-11.8,1.058a162.706,162.706,0,0,0-23.237,4.425,113.224,113.224,0,0,0-22.085,8.267l-.009,0a.556.556,0,1,1-.508-.99l0,0a114.187,114.187,0,0,1,22.354-8.2A163.514,163.514,0,0,1,59.6,92.571c3.936-.5,7.9-.7,11.851-.981,3.963-.094,7.924-.308,11.887-.188a236.055,236.055,0,0,1,23.713,1.465.232.232,0,0,1-.045.461Z"/>
        <polygon class="cls-10" points="17.326 101.06 17.931 101.627 14.225 105.589 19.611 104.936 19.711 105.758 12.066 106.685 17.326 101.06"/>
      </g>
      <g>
        <path class="cls-11" d="M366.209,84.24a196.253,196.253,0,0,0-31.223-10.78,308.613,308.613,0,0,0-32.42-6.519A412.072,412.072,0,0,0,236.6,62.7a356.88,356.88,0,0,0-65.706,6.789,237.284,237.284,0,0,0-31.843,8.728A152.306,152.306,0,0,0,109.288,92.3l0,0a.562.562,0,0,1-.6-.952h0A153.457,153.457,0,0,1,138.7,77.235a238.3,238.3,0,0,1,32-8.685,357.708,357.708,0,0,1,65.885-6.644,412.823,412.823,0,0,1,66.071,4.414,309.012,309.012,0,0,1,32.465,6.612A196.8,196.8,0,0,1,366.4,83.819a.232.232,0,1,1-.194.421Z"/>
        <polygon class="cls-11" points="111.798 87.057 112.447 87.571 109.084 91.826 114.395 90.728 114.563 91.539 107.024 93.097 111.798 87.057"/>
      </g>
      <g>
        <path class="cls-10" d="M366.291,83.8l6.345-.28,3.173-.135,3.176.008c2.117.015,4.236-.014,6.352.039l6.346.3a206.237,206.237,0,0,1,49.88,9.17,171.406,171.406,0,0,1,23.678,9.276.557.557,0,1,1-.487,1h0l-.007,0a170.562,170.562,0,0,0-23.47-9.367,205.429,205.429,0,0,0-49.63-9.451l-6.325-.337c-2.11-.066-4.222-.051-6.334-.08l-3.167-.028-3.165.114-6.332.239h-.011a.231.231,0,0,1-.019-.462Z"/>
        <polygon class="cls-10" points="459.407 102.951 459.493 102.127 464.889 102.688 461.116 98.79 461.711 98.214 467.066 103.748 459.407 102.951"/>
      </g>
    </g>
    <g id="MainG">
      <path class="cls-11" d="M75.948,159.492a526.29,526.29,0,0,1,87.744-23.083A462.521,462.521,0,0,1,344.2,140.732a527.85,527.85,0,0,1,86.521,27.2,527.462,527.462,0,0,0-86.653-26.593,486.881,486.881,0,0,0-89.924-10.786,478.013,478.013,0,0,0-90.306,6.7,525.513,525.513,0,0,0-87.689,22.8Z"/>
    </g>
    <g id="StartPt">
      <path class="cls-9" d="M261.937,63.05a33.076,33.076,0,0,1,.649,6.932c-.011,1.155-.039,2.311-.142,3.466a23.652,23.652,0,0,1-.507,3.466,23.518,23.518,0,0,1-.507-3.466c-.1-1.155-.131-2.311-.143-3.466A33.144,33.144,0,0,1,261.937,63.05Z"/>
      <path class="cls-9" d="M255.005,69.982a33.138,33.138,0,0,1,6.932-.65c1.155.012,2.311.039,3.466.143a23.518,23.518,0,0,1,3.466.507,23.518,23.518,0,0,1-3.466.507c-1.155.1-2.311.131-3.466.143A33.138,33.138,0,0,1,255.005,69.982Z"/>
    </g>
    <g id="StartPt-Dots">
      <use width="5.201" height="5.201" transform="translate(363.705 81.429)" xlink:href="#Red_dot"/>
    </g>
    <g id="RefPt-Dots">
      <use width="5.201" height="5.201" transform="translate(311.954 71.964)" xlink:href="#Blue_Point"/>
      <use width="5.201" height="5.201" transform="translate(206.384 68.202)" xlink:href="#Blue_Point"/>
      <use width="5.201" height="5.201" transform="translate(154.148 74.239)" xlink:href="#Blue_Point"/>
      <use width="5.201" height="5.201" transform="translate(103.015 85.068)" xlink:href="#Blue_Point"/>
      <use width="5.201" height="5.201" transform="translate(53.259 100.341)" xlink:href="#Blue_Point"/>
      <use width="5.201" height="5.201" transform="translate(413.632 95.856)" xlink:href="#Blue_Point"/>
      <use id="Blue_Point-15" data-name="Blue Point" width="5.201" height="5.201" transform="translate(259.336 67.381)" xlink:href="#Blue_Point"/>
    </g>
    <g id="Arrows">
      <g>
        <line class="cls-12" x1="253.835" y1="128.534" x2="255.917" y2="71.111"/>
        <path d="M253.841,128.373a2.952,2.952,0,0,0-1.794-.7,5.439,5.439,0,0,1,1.736,2.283,5.759,5.759,0,0,1,1.9-2.152A3.053,3.053,0,0,0,253.841,128.373Z"/>
        <path d="M255.911,71.272a2.951,2.951,0,0,1-1.84.567,5.451,5.451,0,0,0,1.9-2.151,5.759,5.759,0,0,0,1.737,2.283A3.05,3.05,0,0,1,255.911,71.272Z"/>
      </g>
      <g>
        <line class="cls-12" x1="256.175" y1="63.991" x2="256.02" y2="68.265"/>
        <path d="M256.169,64.152a2.947,2.947,0,0,0,1.794.7,5.455,5.455,0,0,1-1.737-2.283,5.745,5.745,0,0,1-1.9,2.151A3.059,3.059,0,0,0,256.169,64.152Z"/>
        <path d="M256.026,68.1a2.949,2.949,0,0,1,1.839-.568,5.454,5.454,0,0,0-1.9,2.152,5.743,5.743,0,0,0-1.736-2.283A3.052,3.052,0,0,1,256.026,68.1Z"/>
      </g>
    </g>
    <g id="Text">
      <path class="cls-11" d="M249.592,93.154l.4,4.394a15.578,15.578,0,0,0,1.629-2.244,2.153,2.153,0,0,0,.357-.89.443.443,0,0,0-.058-.229.535.535,0,0,0-.185-.155.681.681,0,0,1-.225-.211.447.447,0,0,1-.065-.232.4.4,0,0,1,.135-.307.486.486,0,0,1,.346-.126.534.534,0,0,1,.407.179.672.672,0,0,1,.167.477,1.8,1.8,0,0,1-.088.568,6.669,6.669,0,0,1-.686,1.3,21.51,21.51,0,0,1-1.28,1.773q-.659.817-.981,1.145h-.217l-.381-4.055-2.42,4.055h-.258a32.382,32.382,0,0,0-.252-3.949,1.368,1.368,0,0,0-.293-.791.637.637,0,0,0-.445-.135,3.5,3.5,0,0,0-.434.035v-.211l1.682-.392a11.267,11.267,0,0,1,.457,3.006c.023.511.043.834.059.966l2.408-3.972Z"/>
      <path class="cls-11" d="M249.011,67.175q-1.066-.258-1.067-1.066A1.235,1.235,0,0,1,248.5,65.1a2.4,2.4,0,0,1,1.474-.416,2.148,2.148,0,0,1,1.294.34.937.937,0,0,1,.463.732.463.463,0,0,1-.129.334.441.441,0,0,1-.334.135.417.417,0,0,1-.339-.149.533.533,0,0,1-.123-.349,1.153,1.153,0,0,1,.011-.14c0-.04.006-.073.006-.1a.528.528,0,0,0-.164-.366.7.7,0,0,0-.533-.173,1.479,1.479,0,0,0-1,.392,1.283,1.283,0,0,0-.445,1.008q0,.768.7.768a2.1,2.1,0,0,0,.4-.053,1.573,1.573,0,0,1,.281-.041c.188,0,.282.072.282.217,0,.125-.079.187-.235.187a1.611,1.611,0,0,1-.258-.035,2.609,2.609,0,0,0-.41-.041,1.2,1.2,0,0,0-.964.457,1.631,1.631,0,0,0-.378,1.072.974.974,0,0,0,.273.7,1,1,0,0,0,.759.284.99.99,0,0,0,.978-.785,1.3,1.3,0,0,1,.217-.44.412.412,0,0,1,.322-.123.393.393,0,0,1,.3.129.447.447,0,0,1,.117.311q0,.422-.6.8a2.725,2.725,0,0,1-1.465.375,2.053,2.053,0,0,1-1.389-.4,1.255,1.255,0,0,1-.451-.978,1.446,1.446,0,0,1,.466-1.055A2.052,2.052,0,0,1,249.011,67.175Z"/>
      <g>
        <path class="cls-11" d="M288.581,67.527l-.17.609h-.979a1.77,1.77,0,0,1,.112.592,1.829,1.829,0,0,1-.656,1.377,2.846,2.846,0,0,1-1.817.668,2.7,2.7,0,0,0-.932.445.258.258,0,0,0-.117.194.283.283,0,0,0,.106.213,1.391,1.391,0,0,0,.533.2l1.137.263a2.762,2.762,0,0,1,1.248.528,1,1,0,0,1,.3.715,1.3,1.3,0,0,1-.355.879,2.344,2.344,0,0,1-1.037.624,4.8,4.8,0,0,1-1.509.225,4.727,4.727,0,0,1-1.324-.173,1.775,1.775,0,0,1-.856-.466.911.911,0,0,1-.257-.6,1,1,0,0,1,.167-.524,1.477,1.477,0,0,1,.419-.449q.157-.111.9-.527a.592.592,0,0,1-.269-.463.772.772,0,0,1,.237-.5,2.956,2.956,0,0,1,1-.58,1.789,1.789,0,0,1-1.023-.539,1.344,1.344,0,0,1-.378-.926,1.963,1.963,0,0,1,.73-1.488,2.792,2.792,0,0,1,1.942-.656,2.494,2.494,0,0,1,.721.087,1.959,1.959,0,0,1,.545.276Zm-4.84,4.939a1.753,1.753,0,0,0-.718.557,1.148,1.148,0,0,0-.243.668.758.758,0,0,0,.352.639,2.511,2.511,0,0,0,1.476.363,3.308,3.308,0,0,0,1.433-.284q.594-.285.6-.736a.6.6,0,0,0-.22-.433,1.851,1.851,0,0,0-.853-.334Q285.218,72.836,283.741,72.466Zm2.807-4.019a1.018,1.018,0,0,0-.261-.739.909.909,0,0,0-.683-.269,1.271,1.271,0,0,0-1.092.665,2.505,2.505,0,0,0-.431,1.386,1.023,1.023,0,0,0,.275.738.894.894,0,0,0,.668.287,1.179,1.179,0,0,0,.6-.17,1.486,1.486,0,0,0,.489-.469,2.449,2.449,0,0,0,.316-.761A3.092,3.092,0,0,0,286.548,68.447Z"/>
        <path class="cls-11" d="M290.089,75.1V73.824h-1.274v-.21h1.274V72.34h.21v1.274h1.279v.21H290.3V75.1Z"/>
      </g>
      <path class="cls-11" d="M287.817,136.184l-.17.609h-.978a1.8,1.8,0,0,1,.111.592,1.829,1.829,0,0,1-.656,1.377,2.841,2.841,0,0,1-1.817.668,2.7,2.7,0,0,0-.931.445.258.258,0,0,0-.117.194.288.288,0,0,0,.1.214,1.4,1.4,0,0,0,.533.2l1.137.264a2.752,2.752,0,0,1,1.248.527,1,1,0,0,1,.3.715,1.292,1.292,0,0,1-.355.879,2.344,2.344,0,0,1-1.037.624,5.177,5.177,0,0,1-2.833.053,1.787,1.787,0,0,1-.855-.466.912.912,0,0,1-.258-.6,1.006,1.006,0,0,1,.167-.524,1.474,1.474,0,0,1,.419-.448c.105-.075.4-.25.9-.528a.593.593,0,0,1-.269-.463.772.772,0,0,1,.237-.5,2.956,2.956,0,0,1,1-.58,1.786,1.786,0,0,1-1.022-.539,1.344,1.344,0,0,1-.378-.926,1.965,1.965,0,0,1,.729-1.488,2.8,2.8,0,0,1,1.943-.656,2.444,2.444,0,0,1,.72.088,1.916,1.916,0,0,1,.545.275Zm-4.84,4.94a1.748,1.748,0,0,0-.717.556,1.145,1.145,0,0,0-.244.668.76.76,0,0,0,.352.639,2.513,2.513,0,0,0,1.477.363,3.3,3.3,0,0,0,1.432-.284q.6-.285.6-.735a.593.593,0,0,0-.22-.434,1.842,1.842,0,0,0-.852-.334Q284.454,141.493,282.977,141.124Zm2.807-4.02a1.014,1.014,0,0,0-.261-.738.905.905,0,0,0-.682-.27,1.271,1.271,0,0,0-1.093.665,2.516,2.516,0,0,0-.431,1.386,1.02,1.02,0,0,0,.276.738.888.888,0,0,0,.668.287,1.163,1.163,0,0,0,.6-.17,1.474,1.474,0,0,0,.489-.468,2.455,2.455,0,0,0,.317-.762A3.128,3.128,0,0,0,285.784,137.1Z"/>
      <g>
        <path class="cls-11" d="M371.344,88.032l-.4,1.347a4.961,4.961,0,0,1,1.14-1.048,1.967,1.967,0,0,1,1.022-.3,1.151,1.151,0,0,1,.891.413,1.553,1.553,0,0,1,.369,1.075,4.259,4.259,0,0,1-1.049,2.622,3.055,3.055,0,0,1-2.443,1.333,1.9,1.9,0,0,1-.519-.064,2.284,2.284,0,0,1-.506-.229l-.428,1.512a2.791,2.791,0,0,0-.129.58.359.359,0,0,0,.067.22.431.431,0,0,0,.22.14,2.348,2.348,0,0,0,.6.05l-.053.217h-2.76l.059-.217a1.269,1.269,0,0,0,.735-.187,2.15,2.15,0,0,0,.4-.909l1.483-5.132a3.393,3.393,0,0,0,.135-.6.33.33,0,0,0-.091-.246.388.388,0,0,0-.279-.088,3.862,3.862,0,0,0-.474.041v-.228Zm-1.366,4.687a1.213,1.213,0,0,0,.979.434,1.311,1.311,0,0,0,.621-.17,2.325,2.325,0,0,0,.618-.5,4.086,4.086,0,0,0,.542-.771,5.858,5.858,0,0,0,.431-1.028,3.8,3.8,0,0,0,.19-1.172,1.068,1.068,0,0,0-.214-.717.64.64,0,0,0-.5-.25,1.705,1.705,0,0,0-1.251.727,4.6,4.6,0,0,0-.9,1.7Z"/>
        <path class="cls-11" d="M375.9,94.013l-.507,1.8a1.233,1.233,0,0,0-.051.218.092.092,0,0,0,.024.066.077.077,0,0,0,.058.026.17.17,0,0,0,.092-.041,1.541,1.541,0,0,0,.294-.328l.09.059a1.819,1.819,0,0,1-.41.448.547.547,0,0,1-.333.136.242.242,0,0,1-.172-.063.206.206,0,0,1-.066-.157,1.331,1.331,0,0,1,.063-.316l.334-1.147a1.865,1.865,0,0,0,.081-.354.117.117,0,0,0-.039-.092.154.154,0,0,0-.109-.036,1.829,1.829,0,0,0-.232.028v-.1ZM375.863,93a.256.256,0,0,1,.181.437.251.251,0,0,1-.181.075.248.248,0,0,1-.181-.075.25.25,0,0,1-.076-.181.254.254,0,0,1,.074-.182A.248.248,0,0,1,375.863,93Z"/>
      </g>
      <path class="cls-11" d="M326.947,81.791q1.629,0,1.629,2.233a8.086,8.086,0,0,1-.659,2.985,6.966,6.966,0,0,1-1.506,2.447,2.527,2.527,0,0,1-1.743.808,1.42,1.42,0,0,1-1.193-.624,2.554,2.554,0,0,1-.46-1.556,7.287,7.287,0,0,1,.264-1.652,10.834,10.834,0,0,1,.791-2.13,5.877,5.877,0,0,1,1.321-1.793A2.364,2.364,0,0,1,326.947,81.791Zm-2.584,4.319a9.247,9.247,0,0,0-.539,2.578,1.738,1.738,0,0,0,.24.958.8.8,0,0,0,.715.372,1.081,1.081,0,0,0,.738-.313,4.436,4.436,0,0,0,.809-1.275,16.022,16.022,0,0,0,.873-2.32Zm2.947-.334a7.909,7.909,0,0,0,.393-2.4q0-1.336-.756-1.336-.662,0-1.3,1a11.394,11.394,0,0,0-1.172,2.739Z"/>
      <g>
        <path class="cls-11" d="M300.536,47.678,298.69,43.43a4.167,4.167,0,0,0-.521-.973.693.693,0,0,0-.4-.2v-.217h2.912v.217a.532.532,0,0,0-.375.1.4.4,0,0,0-.14.3,2.623,2.623,0,0,0,.258.815l.9,2.056.721-1.775a3.425,3.425,0,0,0,.31-1.078.373.373,0,0,0-.132-.3.763.763,0,0,0-.465-.126v-.217h1.793v.217a.73.73,0,0,0-.422.193,3.571,3.571,0,0,0-.493.932l-1.828,4.3Z"/>
        <path class="cls-11" d="M304.866,48.192l-.508,1.8a1.342,1.342,0,0,0-.051.218.089.089,0,0,0,.025.066.071.071,0,0,0,.057.026.158.158,0,0,0,.092-.041,1.516,1.516,0,0,0,.3-.328l.09.059a1.824,1.824,0,0,1-.41.449.553.553,0,0,1-.333.135.242.242,0,0,1-.172-.063.206.206,0,0,1-.066-.157,1.335,1.335,0,0,1,.063-.315l.334-1.148a1.879,1.879,0,0,0,.081-.353.121.121,0,0,0-.039-.093.154.154,0,0,0-.109-.036,1.72,1.72,0,0,0-.233.029v-.1Zm-.033-1.017a.254.254,0,0,1,.256.256.256.256,0,0,1-.256.256.248.248,0,0,1-.181-.075.245.245,0,0,1-.076-.181.253.253,0,0,1,.257-.256Z"/>
      </g>
      <g>
        <path class="cls-11" d="M420.506,102.938l-.4,1.348a4.969,4.969,0,0,1,1.14-1.049,1.977,1.977,0,0,1,1.023-.3,1.153,1.153,0,0,1,.89.413,1.553,1.553,0,0,1,.369,1.075,4.254,4.254,0,0,1-1.049,2.622,3.055,3.055,0,0,1-2.443,1.333,1.887,1.887,0,0,1-.518-.064,2.225,2.225,0,0,1-.507-.229l-.428,1.512a2.791,2.791,0,0,0-.129.58.366.366,0,0,0,.067.22.443.443,0,0,0,.22.141,2.363,2.363,0,0,0,.6.049l-.053.217h-2.76l.059-.217a1.262,1.262,0,0,0,.735-.187,2.144,2.144,0,0,0,.4-.908l1.483-5.133a3.374,3.374,0,0,0,.135-.6.33.33,0,0,0-.091-.246.389.389,0,0,0-.278-.088,3.86,3.86,0,0,0-.475.041v-.228Zm-1.366,4.687a1.21,1.21,0,0,0,.979.434,1.311,1.311,0,0,0,.621-.17,2.325,2.325,0,0,0,.618-.5,4.046,4.046,0,0,0,.542-.77,5.87,5.87,0,0,0,.431-1.029,3.8,3.8,0,0,0,.19-1.171,1.069,1.069,0,0,0-.214-.718.642.642,0,0,0-.5-.249,1.707,1.707,0,0,0-1.251.726,4.607,4.607,0,0,0-.905,1.7Z"/>
        <path class="cls-11" d="M425.665,107.692a.689.689,0,0,1,.553.274,1.364,1.364,0,0,1,.223.866,3.4,3.4,0,0,1-.166,1.035,2.866,2.866,0,0,1-.469.915,1.608,1.608,0,0,1-.5.441.808.808,0,0,1-.357.076.689.689,0,0,1-.556-.274,1.361,1.361,0,0,1-.225-.868,3.3,3.3,0,0,1,.225-1.179,2.6,2.6,0,0,1,.674-1.05A.888.888,0,0,1,425.665,107.692Zm0,.133a.5.5,0,0,0-.3.117,1.262,1.262,0,0,0-.315.485,6.27,6.27,0,0,0-.312.951,5.43,5.43,0,0,0-.191,1.3.594.594,0,0,0,.115.4.356.356,0,0,0,.279.132.377.377,0,0,0,.266-.1,2.2,2.2,0,0,0,.5-.945,6.309,6.309,0,0,0,.341-1.779.635.635,0,0,0-.116-.419A.349.349,0,0,0,425.668,107.825Z"/>
      </g>
      <g>
        <path class="cls-11" d="M66.008,105.157l-.4,1.347a4.96,4.96,0,0,1,1.139-1.048,1.968,1.968,0,0,1,1.023-.3,1.152,1.152,0,0,1,.891.413,1.553,1.553,0,0,1,.369,1.075,4.264,4.264,0,0,1-1.049,2.622,3.057,3.057,0,0,1-2.443,1.333,1.89,1.89,0,0,1-.519-.064,2.31,2.31,0,0,1-.507-.229l-.428,1.512a2.791,2.791,0,0,0-.129.58.36.36,0,0,0,.068.22.431.431,0,0,0,.22.14,2.333,2.333,0,0,0,.6.05l-.053.217H62.03l.058-.217a1.273,1.273,0,0,0,.736-.187,2.163,2.163,0,0,0,.4-.909l1.482-5.132a3.393,3.393,0,0,0,.135-.6.326.326,0,0,0-.091-.246.383.383,0,0,0-.278-.088,3.875,3.875,0,0,0-.475.041v-.228Zm-1.365,4.687a1.21,1.21,0,0,0,.978.434,1.311,1.311,0,0,0,.622-.17,2.356,2.356,0,0,0,.618-.5,4.086,4.086,0,0,0,.542-.771,5.859,5.859,0,0,0,.43-1.028,3.806,3.806,0,0,0,.191-1.172,1.073,1.073,0,0,0-.214-.717.643.643,0,0,0-.5-.25,1.705,1.705,0,0,0-1.251.727,4.589,4.589,0,0,0-.905,1.7Z"/>
        <path class="cls-11" d="M70.858,109.982l1.073,2.724.582-2.034a1.526,1.526,0,0,0,.071-.39.179.179,0,0,0-.066-.148.41.41,0,0,0-.248-.054l-.065,0,.029-.095h1.117l-.031.095a.641.641,0,0,0-.259.036.422.422,0,0,0-.179.138,1.58,1.58,0,0,0-.167.421l-.817,2.864h-.092l-1.156-2.931-.617,2.165a1.538,1.538,0,0,0-.07.376.178.178,0,0,0,.064.148.635.635,0,0,0,.3.068l-.026.095H69.207l.036-.095a.88.88,0,0,0,.275-.036.362.362,0,0,0,.156-.12,1.734,1.734,0,0,0,.166-.436l.69-2.416a.577.577,0,0,0-.214-.211.9.9,0,0,0-.355-.066l.029-.095Z"/>
      </g>
      <g>
        <path class="cls-13" d="M333.569,95.252a34.59,34.59,0,0,1,21.507-43.234"/>
        <rect x="332.762" y="95.121" width="1.625" height="0.25" transform="translate(-13.265 88.47) rotate(-14.817)"/>
        <rect x="354.952" y="51.212" width="0.25" height="1.625" transform="translate(6.902 138.975) rotate(-22.357)"/>
      </g>
    </g>
  </g>
</svg>
