<svg xmlns="http://www.w3.org/2000/svg" viewBox="0 0 482.09 198.43"><title>DevelopableFromCurve</title><g id="DevSurfaces"><g id="Visible-ZAxis"><path d="M142.64,109.57l17-7.59a13.18,13.18,0,0,0,2.05-1.13,13,13,0,0,0,1.77-1.47,12.47,12.47,0,0,0,1.45-1.79A11.69,11.69,0,0,0,166,95.52a12.14,12.14,0,0,0,.94-4.28,18.88,18.88,0,0,0,0-2.38,18.43,18.43,0,0,0-.4-2.47c-.16-.72-.35-1.42-.58-2.12a22.71,22.71,0,0,0-.83-2.12,27.84,27.84,0,0,0-2.33-4.21A30.6,30.6,0,0,0,160,74.37a37.8,37.8,0,0,0-3.46-3.24,36.86,36.86,0,0,0-3.77-2.69,34.49,34.49,0,0,0-13-4.87,31.93,31.93,0,0,0-9.26-.07,37.3,37.3,0,0,0-4.58,1,39.28,39.28,0,0,0-4.32,1.6,42.63,42.63,0,0,0-3.93,2c-1,.56-2.81,1.7-3.74,2.34s-2.59,1.82-3.6,2.56c-1.18.87-2.34,1.77-3.51,2.66-1,.79-2,1.58-3,2.38l-3.3,2.58-3,2.33L94.42,85.3,88.3,90c-1.87,1.42-4.49,3.4-6.41,4.77-1.25.89-2.13,1.5-3.42,2.34s-2.31,1.47-3.5,2.14c-.56.32-1.13.62-1.71.92s-1,.54-1.56.8-1.23.57-1.85.84l-1.61.65c-.61.23-1.22.46-1.83.66s-1.49.47-2.24.66c-.59.16-1.17.29-1.76.43s-1.28.26-1.92.36-1.4.2-2.1.27-1.14.1-1.72.12a30.6,30.6,0,0,1-3.83,0,28.56,28.56,0,0,1-4-.58c-.73-.16-1.46-.33-2.18-.55l-1.53-.51c-.67-.24-1.32-.51-2-.81s-1.23-.57-1.82-.89-1-.56-1.41-.86-1.1-.74-1.63-1.14-1.13-.92-1.67-1.41-.86-.8-1.26-1.23l-.72-.8c-.28-.33-.56-.66-.83-1s-.43-.54-.63-.83-.29-.43-.43-.66c-.3-.46-.61-.92-.88-1.4-.37-.64-.78-1.46-1.09-2.13s-.46-1.07-.66-1.62-.39-1.11-.55-1.68a25.52,25.52,0,0,1-.75-4c-.06-.56-.1-1.11-.12-1.68,0-.72,0-1.71,0-2.43,0-.56.08-1.06.14-1.62s.15-1.21.26-1.81.3-1.47.49-2.2.33-1.16.53-1.74.4-1.14.63-1.69c.29-.71.59-1.41.93-2.09.25-.49.52-1,.8-1.42s.54-.9.83-1.33c.46-.69.95-1.35,1.45-2,.36-.46.73-.9,1.12-1.33s.77-.83,1.17-1.23c.59-.6,1.2-1.17,1.82-1.73L30.27,44.6c-1.34,1.17-2.87,2.65-4.08,3.93a54.76,54.76,0,0,0-3.72,4.33q-1.74,2.28-3.25,4.73a48.1,48.1,0,0,0-2.74,5A54,54,0,0,0,14.33,68a52.52,52.52,0,0,0-1.55,5.52,48.51,48.51,0,0,0-.9,5.63,44.12,44.12,0,0,0-.25,5.63,45.09,45.09,0,0,0,1.62,11.39,40.12,40.12,0,0,0,1.93,5.35,41.46,41.46,0,0,0,2.58,5,46,46,0,0,0,3.28,4.7,45.17,45.17,0,0,0,3.88,4.18,41.07,41.07,0,0,0,4.4,3.62,40.43,40.43,0,0,0,4.86,3,43.77,43.77,0,0,0,5.19,2.3,46.06,46.06,0,0,0,11.1,2.58,49.91,49.91,0,0,0,5.74.26,52,52,0,0,0,5.72-.42,48.68,48.68,0,0,0,5.64-1,54.68,54.68,0,0,0,5.48-1.62c1.78-.64,3.52-1.35,5.24-2.15s3.81-1.9,5.4-2.82c.86-.5,1.71-1,2.55-1.55s1.67-1.07,2.49-1.62c2.76-1.85,6.12-4.3,8.81-6.25l4.61-3.38c.76-.56,1.53-1.11,2.29-1.68l2.41-1.78c1.39-1,2.78-2,4.15-3.07,1.64-1.23,3.27-2.47,4.92-3.69l2.58-1.88c.64-.46,2-1.38,2.63-1.82,1.28-.85,1.4-.9,2.73-1.67l.34-.2.17-.1.26-.14.64-.3.76-.36.53-.23.11,0s0,0,0,0,0,0,0,0h0l.08,0,.3-.12.42-.14.86-.25.43-.11.18,0a0,0,0,0,1,0,0h0l.18,0a6.67,6.67,0,0,1,.88-.13l.65-.06.36,0H132c.35,0,.69,0,1,.09a9.55,9.55,0,0,1,1.07.18l.84.2.95.28.56.22a2,2,0,0,0,.31.12,4.42,4.42,0,0,1,.63.27c.39.2.78.41,1.16.63s.64.37.95.58A17.19,17.19,0,0,1,141,92.07c.32.26.61.53.92.79l.46.43.74.81a4.6,4.6,0,0,1,.41.47l.29.38a13.56,13.56,0,0,1,1,1.53l.36.66.25.47a6,6,0,0,1,.26.58c.12.31.25.63.36,1s.16.47.22.71l.12.45a9,9,0,0,1,.27,1.7c0,.38.05.76.05,1.14a8.79,8.79,0,0,1-.11,1.14,7.17,7.17,0,0,1-.3,1.1,3,3,0,0,1-.14.42,6,6,0,0,1-.31.62,6.09,6.09,0,0,1-.61,1,7.68,7.68,0,0,1-.76.85,8.55,8.55,0,0,1-1.85,1.32" fill="#3f82c4" opacity="0.5"/><path d="M142.64,109.58l17-7.6a10.7,10.7,0,0,1-1.55.58,14.67,14.67,0,0,1-1.62.38,15,15,0,0,1-1.64.2c-.55,0-1.1,0-1.66,0s-1.1,0-1.65-.1-1.1-.14-1.64-.23a23.26,23.26,0,0,1-3.21-.83,25.26,25.26,0,0,1-2.54-1c-.82-.38-1.63-.78-2.42-1.24s-1.55-.94-2.3-1.47-1.46-1.07-2.16-1.65a33.33,33.33,0,0,1-3.89-3.81,35.39,35.39,0,0,1-3.28-4.35c-.61-.91-1-1.62-1.55-2.58s-.9-1.67-1.38-2.68-.84-1.82-1.21-2.75l-.57-1.44c-.17-.46-.35-.92-.51-1.38-.62-1.75-1.32-4-1.81-5.74-.27-1-.53-1.94-.79-2.91-.14-.53-.28-1.07-.41-1.61s-.2-.88-.3-1.32c-.3-1.41-.62-2.81-.9-4.23-.15-.8-.3-1.59-.44-2.4-.1-.62-.21-1.24-.31-1.86-.12-.79-.22-1.57-.33-2.36s-.15-1.29-.22-1.94c0-.5-.1-1-.14-1.5,0-.29,0-.58-.07-.87,0-.64-.08-1.29-.12-1.94-.07-1.44-.09-2.88-.08-4.33s.1-2.89.22-4.33.31-2.86.56-4.28a25.91,25.91,0,0,1,.64-2.74c0-.17.1-.34.16-.51s.09-.21.13-.31a2.39,2.39,0,0,1,.3-.57L106,15.73a2.38,2.38,0,0,0-.69.76,8.42,8.42,0,0,0-.74,1.43,28.8,28.8,0,0,0-1.47,4.79,62.18,62.18,0,0,0-1.23,7.55c-.28,2.61-.43,5-.49,7.64q0,1.88,0,3.75c0,1.31.07,2.6.14,3.9.14,2.65.35,5,.67,7.63.15,1.26.32,2.52.52,3.77s.4,2.54.63,3.8.47,2.49.73,3.73c.21,1,.58,2.79.81,3.77.13.58.27,1.15.41,1.72l.48,1.87c.33,1.28.67,2.55,1,3.82.46,1.58,1.15,3.8,1.7,5.35.31.89.64,1.76,1,2.64s.68,1.74,1,2.6.77,1.71,1.17,2.56.83,1.67,1.28,2.5.9,1.64,1.39,2.44,1,1.57,1.53,2.35c.75,1.1,1.54,2.15,2.39,3.17s1.78,2.07,2.66,3a37.08,37.08,0,0,0,3,2.65,33.32,33.32,0,0,0,3.24,2.3c.58.36,1.19.7,1.8,1s1.13.57,1.72.82a20.74,20.74,0,0,0,3.77,1.22,17.16,17.16,0,0,0,2.13.34,12.16,12.16,0,0,0,1.81,0,11.69,11.69,0,0,0,1.19-.08c.28,0,.55-.1.82-.16a8.15,8.15,0,0,0,.82-.2,10,10,0,0,0,1-.4" fill="#e66526" opacity="0.25"/><path d="M106.8,75.65c.46,1.58,1.15,3.8,1.7,5.36.31.88.64,1.75,1,2.63s.68,1.74,1,2.6.77,1.71,1.17,2.56.83,1.67,1.28,2.5.9,1.64,1.39,2.44,1,1.58,1.53,2.35" fill="none" stroke="#b2b2b2" stroke-linecap="round" stroke-linejoin="round" stroke-width="0.25" stroke-dasharray="3 3"/><path d="M130.11,88.49c-.61-.91-1-1.62-1.55-2.58s-.9-1.67-1.38-2.68-.84-1.82-1.21-2.75L125.4,79c-.17-.46-.35-.92-.51-1.38-.62-1.75-1.32-4-1.81-5.74-.27-1-.53-1.94-.79-2.91-.14-.53-.28-1.07-.41-1.61s-.2-.88-.3-1.31" fill="none" stroke="#b2b2b2" stroke-linecap="round" stroke-linejoin="round" stroke-width="0.25" stroke-dasharray="3 3"/><path d="M159.67,102a12,12,0,0,1-1.55.57,14.67,14.67,0,0,1-1.62.38,15,15,0,0,1-1.64.2c-.55,0-1.1.05-1.66,0s-1.1,0-1.65-.1-1.1-.14-1.64-.23a23.26,23.26,0,0,1-3.21-.83" fill="none" stroke="#b2b2b2" stroke-linecap="round" stroke-linejoin="round" stroke-width="0.25" stroke-dasharray="3 3"/><path d="M38.9,58.53c-.62.56-1.23,1.13-1.82,1.73-.4.4-.78.82-1.17,1.23s-.76.87-1.12,1.33c-.5.65-1,1.31-1.45,2-.29.43-.56.88-.83,1.33s-.55.93-.8,1.42c-.34.68-.64,1.38-.93,2.09-.23.55-.44,1.12-.63,1.69s-.37,1.15-.53,1.74-.35,1.46-.49,2.2-.18,1.2-.26,1.81-.12,1.06-.14,1.62c0,.72,0,1.71,0,2.43,0,.57.06,1.12.12,1.68a25.52,25.52,0,0,0,.75,4c.16.57.35,1.13.55,1.68s.42,1.09.66,1.62.72,1.49,1.09,2.13c.27.48.58.94.88,1.4.14.23.28.45.43.66s.41.56.63.83.55.67.83,1l.72.8c.4.43.83.84,1.26,1.23s1.09,1,1.67,1.41,1.07.78,1.63,1.14.92.59,1.41.86,1.2.61,1.82.89,1.29.57,2,.81l1.53.51c.72.22,1.45.39,2.18.55a28.56,28.56,0,0,0,4,.58,30.6,30.6,0,0,0,3.83,0c.58,0,1.15-.06,1.72-.12s1.4-.16,2.1-.27,1.28-.22,1.92-.36,1.17-.27,1.76-.43c.75-.19,1.5-.42,2.24-.66s1.22-.43,1.83-.66l1.61-.65c.62-.27,1.24-.55,1.85-.84s1-.52,1.56-.8,1.15-.6,1.71-.92c1.19-.67,2.35-1.4,3.5-2.14s2.17-1.45,3.42-2.34c1.92-1.37,4.54-3.35,6.41-4.77l6.12-4.71,3.06-2.37,3-2.33,3.3-2.58c1-.8,2-1.59,3-2.38" fill="none" stroke="#b2b2b2" stroke-linecap="round" stroke-linejoin="round" stroke-width="0.25"/><line x1="120.98" y1="31.91" x2="105.99" y2="15.72" fill="none" stroke="#b2b2b2" stroke-linecap="round" stroke-linejoin="round" stroke-width="0.25"/><path d="M106,15.72a2.49,2.49,0,0,0-.69.76,8.42,8.42,0,0,0-.74,1.43,28.8,28.8,0,0,0-1.47,4.79,62.18,62.18,0,0,0-1.23,7.55c-.28,2.61-.43,5-.49,7.64q0,1.88,0,3.75c0,1.31.07,2.61.14,3.91.14,2.64.35,5,.67,7.62.15,1.26.32,2.52.52,3.77s.4,2.54.63,3.8.47,2.49.73,3.73c.21,1,.58,2.8.81,3.77.13.58.27,1.15.41,1.72l.48,1.87c.33,1.28.67,2.55,1,3.82" fill="none" stroke="#b2b2b2" stroke-linecap="round" stroke-linejoin="round" stroke-width="0.25"/><line x1="30.27" y1="44.6" x2="38.9" y2="58.53" fill="none" stroke="#b2b2b2" stroke-linecap="round" stroke-linejoin="round" stroke-width="0.25"/><line x1="159.67" y1="101.98" x2="142.64" y2="109.57" fill="none" stroke="#b2b2b2" stroke-linecap="round" stroke-linejoin="round" stroke-width="0.25"/><path d="M142.24,109.75l.4-.19" fill="none" stroke="#b2b2b2" stroke-linecap="round" stroke-linejoin="round" stroke-width="0.25"/><path d="M121.59,66.08a39.28,39.28,0,0,1,4.32-1.6,37.3,37.3,0,0,1,4.58-1,31.93,31.93,0,0,1,9.26.07,34.33,34.33,0,0,1,13,4.87,36.86,36.86,0,0,1,3.77,2.69A37.8,37.8,0,0,1,160,74.37a30.6,30.6,0,0,1,2.83,3.57,27.84,27.84,0,0,1,2.33,4.21,22.71,22.71,0,0,1,.83,2.12c.23.7.42,1.4.58,2.12a18.43,18.43,0,0,1,.4,2.47,18.88,18.88,0,0,1,0,2.38,12.14,12.14,0,0,1-.94,4.28,11.69,11.69,0,0,1-1.09,2.07,12.47,12.47,0,0,1-1.45,1.79,13,13,0,0,1-1.77,1.47,13.18,13.18,0,0,1-2.05,1.13" fill="none" stroke="#b2b2b2" stroke-linecap="round" stroke-linejoin="round" stroke-width="0.25"/><path d="M106.81,75.64c1.17-.89,2.33-1.79,3.51-2.66,1-.74,2.57-1.86,3.6-2.56s2.76-1.78,3.74-2.34a42.63,42.63,0,0,1,3.93-2" fill="none" stroke="#b2b2b2" stroke-linecap="round" stroke-linejoin="round" stroke-width="0.25"/><path d="M115.9,96.09c.75,1.1,1.54,2.16,2.39,3.18s1.78,2.06,2.66,2.94a37.08,37.08,0,0,0,3,2.65,33.32,33.32,0,0,0,3.24,2.3c.58.37,1.19.7,1.8,1s1.13.58,1.72.82a20.74,20.74,0,0,0,3.77,1.22,17.16,17.16,0,0,0,2.13.34,12.16,12.16,0,0,0,1.81,0,11.69,11.69,0,0,0,1.19-.08c.28,0,.55-.1.82-.16a6.12,6.12,0,0,0,.82-.2,10,10,0,0,0,1-.4" fill="none" stroke="#b2b2b2" stroke-linecap="round" stroke-linejoin="round" stroke-width="0.25"/><path d="M126.67,89.18l0,.15" fill="none" stroke="#b2b2b2" stroke-linecap="round" stroke-linejoin="round" stroke-width="0.25"/><path d="M121.58,66.09c-.3-1.42-.62-2.82-.9-4.24-.15-.79-.3-1.59-.44-2.39-.1-.63-.21-1.25-.31-1.87-.12-.79-.22-1.57-.33-2.36-.08-.64-.15-1.29-.22-1.94s-.1-1-.14-1.5c0-.29,0-.58-.07-.87,0-.64-.08-1.29-.12-1.94-.07-1.44-.09-2.88-.08-4.33s.1-2.88.22-4.32.31-2.87.56-4.29a25.17,25.17,0,0,1,.64-2.73c0-.18.1-.35.16-.52s.09-.21.13-.31a2.59,2.59,0,0,1,.3-.57" fill="none" stroke="#b2b2b2" stroke-linecap="round" stroke-linejoin="round" stroke-width="0.25"/><path d="M146.7,102a25.26,25.26,0,0,1-2.54-1c-.82-.38-1.63-.78-2.42-1.24s-1.55-.94-2.3-1.46-1.46-1.08-2.16-1.66a33.33,33.33,0,0,1-3.89-3.81,34.65,34.65,0,0,1-3.28-4.35" fill="none" stroke="#b2b2b2" stroke-linecap="round" stroke-linejoin="round" stroke-width="0.25"/><path d="M130.13,88.49a6.67,6.67,0,0,0-.88.13l-.18,0h0a0,0,0,0,0,0,0l-.18,0-.43.11-.86.25-.42.14-.3.12-.08,0h0" fill="none" stroke="#b2b2b2" stroke-linecap="round" stroke-linejoin="round" stroke-width="0.25"/><path d="M146.67,102a9,9,0,0,0-.27-1.7l-.12-.45c-.06-.24-.14-.48-.22-.71s-.24-.64-.36-1a6,6,0,0,0-.26-.58l-.25-.47-.36-.66a13.56,13.56,0,0,0-1-1.53l-.29-.38a4.6,4.6,0,0,0-.41-.47l-.74-.81-.46-.43c-.31-.26-.6-.53-.92-.79A17.19,17.19,0,0,0,139.53,91c-.31-.21-.63-.4-.95-.58s-.77-.43-1.16-.63a4.42,4.42,0,0,0-.63-.27,2,2,0,0,1-.31-.12l-.56-.22-.95-.28-.84-.2a9.55,9.55,0,0,0-1.07-.18c-.34,0-.68-.07-1-.09h-.89l-.36,0-.65.06" fill="none" stroke="#b2b2b2" stroke-linecap="round" stroke-linejoin="round" stroke-width="0.25"/><path d="M142.64,109.56a8.55,8.55,0,0,0,1.85-1.32,7.68,7.68,0,0,0,.76-.85,6.09,6.09,0,0,0,.61-1,6,6,0,0,0,.31-.62,3,3,0,0,0,.14-.42,7.17,7.17,0,0,0,.3-1.1,8.79,8.79,0,0,0,.11-1.14c0-.38,0-.76-.05-1.14" fill="none" stroke="#b2b2b2" stroke-linecap="round" stroke-linejoin="round" stroke-width="0.25"/><path d="M115.92,96.08c-1.65,1.22-3.28,2.46-4.92,3.69-1.37,1-2.76,2-4.15,3.07l-2.41,1.78c-.76.57-1.53,1.12-2.29,1.68l-4.61,3.38c-2.69,1.95-6.05,4.4-8.81,6.25q-1.23.82-2.49,1.62c-.84.52-1.69,1-2.55,1.55-1.59.92-3.74,2.05-5.4,2.82s-3.46,1.51-5.24,2.15a54.68,54.68,0,0,1-5.48,1.62,48.68,48.68,0,0,1-5.64,1,52,52,0,0,1-5.72.42,49.91,49.91,0,0,1-5.74-.26,46.06,46.06,0,0,1-11.1-2.58,43.77,43.77,0,0,1-5.19-2.3,40.43,40.43,0,0,1-4.86-3,41.07,41.07,0,0,1-4.4-3.62A45.17,45.17,0,0,1,21,111.21a46,46,0,0,1-3.28-4.7,41.46,41.46,0,0,1-2.58-5,40.12,40.12,0,0,1-1.93-5.35,46.25,46.25,0,0,1-1.37-17,48.51,48.51,0,0,1,.9-5.63A52.52,52.52,0,0,1,14.33,68a54,54,0,0,1,2.15-5.36,48.1,48.1,0,0,1,2.74-5q1.52-2.45,3.25-4.73a54.76,54.76,0,0,1,3.72-4.33c1.21-1.28,2.74-2.76,4.08-3.93" fill="none" stroke="#b2b2b2" stroke-linecap="round" stroke-linejoin="round" stroke-width="0.25"/><path d="M126.69,89.35h0s0,0,0,0,0,0,0,0l-.11,0-.53.23-.76.36-.64.3-.26.14-.17.1-.34.2c-1.33.77-1.45.82-2.73,1.67-.65.44-2,1.36-2.63,1.82l-2.58,1.88" fill="none" stroke="#b2b2b2" stroke-linecap="round" stroke-linejoin="round" stroke-width="0.25"/><polyline points="38.9 58.53 38.62 58.81 38.21 59.16 37.72 59.63 36.94 60.38 36.37 60.99 35.73 61.68 34.99 62.58 34.6 63.05 33.78 64.17 33.55 64.49 33.39 64.75 32.59 65.99 31.85 67.3 31.72 67.54 31.05 68.97 30.98 69.13 30.91 69.32 30.34 70.76 29.94 71.98 29.8 72.42 29.51 73.53 29.36 74.11 29.23 74.8 29.03 75.81 28.92 76.68 28.81 77.53 28.76 78.26 28.7 79.24 28.7 80.39 28.7 80.96 28.79 82.25 28.81 82.66 28.86 83 29.03 84.34 29.34 85.89 29.37 86 29.39 86.09 29.68 87.17 29.82 87.62 29.83 87.66 30.39 89.2 30.95 90.45 31.07 90.73 31.24 91.05 31.85 92.2 32.43 93.14 32.72 93.62 33.28 94.41 33.69 94.97 34.22 95.61 34.74 96.25 35.43 96.98 35.87 97.46 36.73 98.26 37.08 98.59 37.4 98.84 38.37 99.64 38.58 99.78 39.72 100.6 40.62 101.16 41.15 101.47 42.45 102.15 42.65 102.25 43.84 102.77 44.2 102.93 44.69 103.11 45.8 103.52 46.52 103.74 47.43 104.01 48.41 104.25 49.09 104.41 50.35 104.63 50.77 104.7 52.33 104.89 52.48 104.91 53.33 104.96 54.21 105.01 55.61 105.01 55.98 105.01 56.52 104.98 57.74 104.92 58.68 104.82 59.5 104.73 60.86 104.52 61.24 104.46 61.51 104.41 62.68 104.16 62.93 104.11 62.98 104.1 64.36 103.75 64.74 103.65 65.41 103.44 66.47 103.11 67.1 102.89 68.17 102.5 69.22 102.07 69.71 101.88 69.86 101.82 70.16 101.68 71.55 101.06 72.23 100.72 73.19 100.23 74 99.79 74.82 99.35 75.74 98.81 76.44 98.4 77.71 97.6 78.03 97.41 78.36 97.19 79.63 96.36 80.73 95.59 81.03 95.38 81.21 95.27 82.04 94.68 82.79 94.14 83 93.98 83.32 93.74 83.96 93.27 84.39 92.97 84.91 92.57 85.62 92.03 85.98 91.77 87.12 90.9 87.6 90.54 87.74 90.43 88.57 89.8 89.26 89.27 89.45 89.12 89.68 88.95 90.93 87.99 91.62 87.46 92.15 87.05 92.64 86.67 93.05 86.36 93.48 86.03 94.38 85.32 95.28 84.64 96.14 83.97 97.09 83.24 97.94 82.57 98.9 81.84 99.79 81.14 100.24 80.79 100.72 80.42 101.54 79.77 102.58 78.97 102.97 78.66 103.33 78.36 104.5 77.47 105.11 76.97 105.75 76.48 106.48 75.91 106.69 75.74 106.87 75.59 107.64 75.01 108.58 74.29 108.62 74.26 109.56 73.54 110.34 72.95 110.83 72.61 112.05 71.7 112.55 71.37 113.3 70.85 113.58 70.65 113.76 70.52 114.5 70.03 115.45 69.4 116.1 69.02 116.77 68.6 117.15 68.36 117.88 67.95 118.86 67.41 119.03 67.33 119.39 67.15 120.57 66.54 121.5 66.12 122.3 65.76 123.46 65.33 124.06 65.09 125.17 64.72 125.81 64.5 127.07 64.17 127.6 64.03 128.77 63.8 129.41 63.66 129.66 63.62 131.21 63.39 132.1 63.31 133.04 63.23 133.6 63.22 134.9 63.18 135.12 63.19 136.16 63.22 136.75 63.24 138.17 63.37 138.58 63.4 139.15 63.48 140.41 63.67 141.27 63.85 142.24 64.05 143.54 64.39 144.05 64.52 145.68 65.05 145.85 65.1 146.88 65.49 147.52 65.74 147.61 65.78 149.03 66.41 149.31 66.54 149.66 66.72 150.97 67.39 151.96 67.97 152.59 68.33 153.38 68.85 154.14 69.35 155.03 70 155.64 70.44 156.1 70.82 157.07 71.6 158.18 72.6 158.43 72.82 159.61 73.99 159.71 74.09 159.78 74.18 160.62 75.1 160.9 75.41 161.86 76.63 161.97 76.76 162.08 76.92 162.94 78.15 163.6 79.21 163.82 79.56 164.04 79.98 164.59 80.99 164.99 81.86 165.26 82.43 165.52 83.1 165.82 83.88 166.07 84.65 166.28 85.31 166.41 85.87 166.62 86.73 166.7 87.19 166.86 88.14 166.96 89.2 166.98 89.51 167 90.66 167 90.85 166.99 91.01 166.92 92.14 166.76 93.15 166.72 93.38 166.43 94.47 166.4 94.57 166.36 94.68 165.98 95.7 165.88 95.89 165.46 96.76 165.02 97.47 164.84 97.76 164.6 98.07 164.14 98.68 163.69 99.17 163.35 99.53 162.92 99.91 162.49 100.29 162.09 100.58 161.55 100.97 161.2 101.18 160.54 101.57 160.25 101.71 159.47 102.08 158.49 102.44 158.35 102.49 158.22 102.52 157.17 102.81 157.15 102.82 156.91 102.86 155.93 103.03 154.85 103.13 154.64 103.15 153.66 103.18 153.32 103.18 152.45 103.14 151.97 103.12 151.24 103.03 150.61 102.96 150.01 102.86 149.23 102.71 148.79 102.61 147.84 102.37 147.57 102.29 146.46 101.94 145.74 101.67 145.15 101.44 145.06 101.41 143.94 100.91 143.66 100.79 142.75 100.32 142.27 100.08 141.59 99.68 140.91 99.29 140.46 98.99 139.58 98.41 139.36 98.25 138.38 97.54 138.28 97.46 137.25 96.63 136.99 96.42 136.54 96.03 135.74 95.3 134.88 94.45 134.55 94.12 133.73 93.22 133.4 92.86 132.62 91.94 132.27 91.53 131.58 90.61 131.22 90.13 131.06 89.89 130.63 89.27 130.33 88.84 130.22 88.68 129.64 87.77 129.25 87.15 129 86.69 128.44 85.71 128.37 85.58 128.3 85.45 127.51 83.94 126.83 82.47 126.76 82.33 126.73 82.26 126.28 81.22 125.97 80.52 125.82 80.13 125.58 79.48 125.28 78.75 124.98 77.92 124.63 76.93 124.56 76.69 124.23 75.73 124.01 75.08 123.7 74.01 123.43 73.2 123.22 72.44 122.94 71.43 122.92 71.36 122.9 71.3 122.79 70.87 122.39 69.39 122.34 69.18 122.28 68.91 122.06 68.09 121.89 67.46 121.79 67 121.67 66.41 121.54 65.89 121.44 65.48 121.11 63.88 121.04 63.61 120.87 62.81 120.65 61.7 120.62 61.54 120.59 61.31 120.42 60.44 120.29 59.81 120.22 59.34 120.11 58.64 119.98 57.95 119.79 56.63 119.72 56.11 119.69 55.84 119.48 54.32 119.34 52.82 119.31 52.55 119.22 51.54 119.16 50.84 119.08 49.55 119.06 49.17 119.04 48.86 118.99 47.55 118.98 47.08 118.97 45.99 118.97 45.97 118.97 45.92 118.97 44.88 118.97 44.5 118.99 43.81 119.01 43.06 119.03 42.74 119.09 41.69 119.09 41.66 119.18 40.41 119.25 39.74 119.3 39.2 119.35 38.81 119.44 38.07 119.56 37.21 119.58 37.05 119.59 37.02 119.71 36.27 119.75 36.07 119.85 35.53 119.91 35.2 120 34.79 120.08 34.43 120.14 34.22 120.25 33.75 120.28 33.65 120.43 33.16 120.48 33.01 120.59 32.68 120.72 32.38 120.75 32.3 120.85 32.11 120.9 32.02 120.98 31.91" fill="none" stroke="#1d1d1b" stroke-miterlimit="10"/><line x1="74.58" y1="99.48" x2="77.47" y2="107.52" fill="none"/><line x1="74.58" y1="99.48" x2="77.29" y2="107.01" fill="none" stroke="#c91517" stroke-linecap="round" stroke-linejoin="round" stroke-width="0.5"/><polygon points="74.81 106.14 75.03 105.7 77.22 106.83 78.19 104.56 78.65 104.76 77.47 107.52 74.81 106.14" fill="#c91517"/><line x1="106.99" y1="75.51" x2="110.48" y2="83.54" fill="none"/><line x1="106.99" y1="75.51" x2="110.27" y2="83.04" fill="none" stroke="#c91517" stroke-linecap="round" stroke-linejoin="round" stroke-width="0.5"/><polygon points="107.73 82.34 107.93 81.88 110.19 82.86 111.01 80.54 111.48 80.7 110.48 83.54 107.73 82.34" fill="#c91517"/><line x1="146.63" y1="65.4" x2="142.62" y2="74.9" fill="none"/><line x1="146.63" y1="65.4" x2="142.83" y2="74.4" fill="none" stroke="#c91517" stroke-linecap="round" stroke-linejoin="round" stroke-width="0.5"/><polygon points="141.59 72.07 142.06 71.9 142.9 74.22 145.15 73.21 145.36 73.67 142.62 74.89 141.59 72.07" fill="#c91517"/><line x1="165.58" y1="96.5" x2="157.9" y2="100.29" fill="none"/><line x1="165.58" y1="96.5" x2="158.39" y2="100.05" fill="none" stroke="#c91517" stroke-linecap="round" stroke-linejoin="round" stroke-width="0.5"/><polygon points="158.97 97.49 159.44 97.66 158.56 99.97 160.92 100.67 160.78 101.15 157.9 100.29 158.97 97.49" fill="#c91517"/><line x1="136.05" y1="95.58" x2="130.44" y2="98.41" fill="none"/><line x1="136.05" y1="95.58" x2="130.93" y2="98.16" fill="none" stroke="#c91517" stroke-linecap="round" stroke-linejoin="round" stroke-width="0.5"/><polygon points="131.49 95.59 131.96 95.77 131.1 98.08 133.47 98.76 133.33 99.24 130.44 98.41 131.49 95.59" fill="#c91517"/><line x1="120.23" y1="59.4" x2="113.45" y2="58.79" fill="none"/><line x1="120.23" y1="59.4" x2="113.99" y2="58.84" fill="none" stroke="#c91517" stroke-linecap="round" stroke-linejoin="round" stroke-width="0.5"/><polygon points="115.82 56.95 116.13 57.35 114.18 58.86 115.83 60.69 115.46 61.03 113.45 58.79 115.82 56.95" fill="#c91517"/><line x1="120.98" y1="31.91" x2="115" y2="25.45" fill="none"/><line x1="120.98" y1="31.91" x2="115.37" y2="25.85" fill="none" stroke="#c91517" stroke-linecap="round" stroke-linejoin="round" stroke-width="0.5"/><polygon points="117.99 25.67 117.95 26.17 115.5 25.99 115.49 28.45 114.99 28.45 115 25.45 117.99 25.67" fill="#c91517"/><line x1="38.9" y1="58.53" x2="35.57" y2="53.16" fill="none"/><line x1="38.9" y1="58.53" x2="35.86" y2="53.62" fill="none" stroke="#c91517" stroke-linecap="round" stroke-linejoin="round" stroke-width="0.5"/><polygon points="38.47 53.95 38.34 54.43 35.96 53.78 35.48 56.2 34.99 56.1 35.57 53.16 38.47 53.95" fill="#c91517"/><line x1="35.41" y1="96.97" x2="30.93" y2="103.71" fill="none"/><line x1="35.41" y1="96.97" x2="31.23" y2="103.26" fill="none" stroke="#c91517" stroke-linecap="round" stroke-linejoin="round" stroke-width="0.5"/><polygon points="30.44 100.75 30.94 100.66 31.33 103.1 33.73 102.52 33.85 103.01 30.93 103.71 30.44 100.75" fill="#c91517"/><g opacity="0.4"><line x1="35.41" y1="96.97" x2="29.13" y2="99.85" fill="none"/><line x1="35.41" y1="96.97" x2="29.62" y2="99.62" fill="none" stroke="#037534" stroke-linecap="round" stroke-linejoin="round" stroke-width="0.5"/><polygon points="30.27 97.07 30.74 97.26 29.79 99.54 32.13 100.31 31.98 100.79 29.13 99.85 30.27 97.07" fill="#037534"/></g><g opacity="0.4"><line x1="38.9" y1="58.53" x2="32.66" y2="53.16" fill="none"/><line x1="38.9" y1="58.53" x2="33.07" y2="53.51" fill="none" stroke="#037534" stroke-linecap="round" stroke-linejoin="round" stroke-width="0.5"/><polygon points="35.66 53.04 35.68 53.54 33.21 53.64 33.49 56.09 32.99 56.14 32.66 53.16 35.66 53.04" fill="#037534"/></g><g opacity="0.4"><line x1="120.98" y1="31.91" x2="127.45" y2="25.94" fill="none"/><line x1="120.98" y1="31.91" x2="127.05" y2="26.31" fill="none" stroke="#037534" stroke-linecap="round" stroke-linejoin="round" stroke-width="0.5"/><polygon points="127.22 28.94 126.72 28.9 126.91 26.44 124.44 26.43 124.44 25.93 127.45 25.94 127.22 28.94" fill="#037534"/></g><g opacity="0.4"><line x1="120.23" y1="59.4" x2="126.74" y2="56.68" fill="none"/><line x1="120.23" y1="59.4" x2="126.24" y2="56.89" fill="none" stroke="#037534" stroke-linecap="round" stroke-linejoin="round" stroke-width="0.5"/><polygon points="125.5 59.41 125.05 59.2 126.07 56.96 123.75 56.11 123.93 55.64 126.75 56.68 125.5 59.41" fill="#037534"/></g><g opacity="0.4"><line x1="136.05" y1="95.58" x2="140.14" y2="88.81" fill="none"/><line x1="136.05" y1="95.58" x2="139.86" y2="89.27" fill="none" stroke="#037534" stroke-linecap="round" stroke-linejoin="round" stroke-width="0.5"/><polygon points="140.75 91.75 140.26 91.85 139.76 89.44 137.39 90.12 137.25 89.64 140.14 88.81 140.75 91.75" fill="#037534"/></g><g opacity="0.4"><line x1="165.58" y1="96.5" x2="159.05" y2="89.22" fill="none"/><line x1="165.58" y1="96.5" x2="159.41" y2="89.62" fill="none" stroke="#037534" stroke-linecap="round" stroke-linejoin="round" stroke-width="0.5"/><polygon points="162.04 89.49 162 89.99 159.54 89.77 159.5 92.23 159 92.22 159.05 89.22 162.04 89.49" fill="#037534"/></g><g opacity="0.4"><line x1="146.63" y1="65.4" x2="146.2" y2="68.73" fill="none"/><line x1="146.63" y1="65.4" x2="146.27" y2="68.19" fill="none" stroke="#037534" stroke-linecap="round" stroke-linejoin="round" stroke-width="0.5"/><polygon points="144.45 66.29 144.86 66 146.29 68 148.19 66.43 148.51 66.81 146.2 68.73 144.45 66.29" fill="#037534"/></g><g opacity="0.4"><line x1="106.99" y1="75.51" x2="112.79" y2="78.39" fill="none"/><line x1="106.99" y1="75.51" x2="112.3" y2="78.15" fill="none" stroke="#037534" stroke-linecap="round" stroke-linejoin="round" stroke-width="0.5"/><polygon points="109.91 79.25 109.77 78.77 112.13 78.07 111.26 75.76 111.73 75.58 112.79 78.39 109.91 79.25" fill="#037534"/></g><g opacity="0.4"><line x1="74.58" y1="99.48" x2="78.66" y2="103.18" fill="none"/><line x1="74.58" y1="99.48" x2="78.26" y2="102.82" fill="none" stroke="#037534" stroke-linecap="round" stroke-linejoin="round" stroke-width="0.5"/><polygon points="75.66 103.22 75.65 102.72 78.12 102.69 77.91 100.23 78.41 100.19 78.66 103.19 75.66 103.22" fill="#037534"/></g><g opacity="0.4"><line x1="35.41" y1="96.97" x2="41.97" y2="103.94" fill="none"/><line x1="35.41" y1="96.97" x2="41.6" y2="103.54" fill="none" stroke="#2a4d9c" stroke-linecap="round" stroke-linejoin="round" stroke-width="0.5"/><polygon points="38.98 103.74 39.01 103.24 41.47 103.4 41.45 100.94 41.95 100.93 41.97 103.94 38.98 103.74" fill="#2a4d9c"/></g><g opacity="0.4"><line x1="38.9" y1="58.53" x2="31.4" y2="65.41" fill="none"/><line x1="38.9" y1="58.53" x2="31.8" y2="65.04" fill="none" stroke="#2a4d9c" stroke-linecap="round" stroke-linejoin="round" stroke-width="0.5"/><polygon points="31.64 62.41 32.14 62.45 31.94 64.91 34.41 64.93 34.4 65.43 31.4 65.41 31.64 62.41" fill="#2a4d9c"/></g><g opacity="0.4"><line x1="120.98" y1="31.91" x2="121.78" y2="30.75" fill="none"/><polygon points="122.21 33.73 121.71 33.8 121.36 31.36 118.95 31.88 118.85 31.39 121.78 30.75 122.21 33.73" fill="#2a4d9c"/></g><g opacity="0.4"><line x1="120.23" y1="59.4" x2="118.79" y2="50.52" fill="none"/><line x1="120.23" y1="59.4" x2="118.88" y2="51.06" fill="none" stroke="#2a4d9c" stroke-linecap="round" stroke-linejoin="round" stroke-width="0.5"/><polygon points="121.16 52.36 120.85 52.76 118.91 51.24 117.54 53.3 117.13 53.02 118.79 50.52 121.16 52.36" fill="#2a4d9c"/></g><g opacity="0.4"><line x1="136.05" y1="95.58" x2="129.33" y2="89.33" fill="none"/><line x1="136.05" y1="95.58" x2="129.73" y2="89.7" fill="none" stroke="#2a4d9c" stroke-linecap="round" stroke-linejoin="round" stroke-width="0.5"/><polygon points="132.34 89.33 132.34 89.83 129.87 89.83 130.05 92.29 129.55 92.33 129.33 89.33 132.34 89.33" fill="#2a4d9c"/></g><g opacity="0.4"><line x1="165.58" y1="96.5" x2="162.59" y2="102.62" fill="none"/><line x1="165.58" y1="96.5" x2="162.83" y2="102.13" fill="none" stroke="#2a4d9c" stroke-linecap="round" stroke-linejoin="round" stroke-width="0.5"/><polygon points="161.72 99.75 162.2 99.6 162.91 101.96 165.22 101.08 165.4 101.54 162.59 102.62 161.72 99.75" fill="#2a4d9c"/></g><g opacity="0.4"><line x1="146.63" y1="65.4" x2="156.76" y2="69.28" fill="none"/><line x1="146.63" y1="65.4" x2="156.25" y2="69.08" fill="none" stroke="#2a4d9c" stroke-linecap="round" stroke-linejoin="round" stroke-width="0.5"/><polygon points="153.98 70.4 153.79 69.94 156.07 69.01 154.99 66.8 155.44 66.58 156.76 69.28 153.98 70.4" fill="#2a4d9c"/></g><g opacity="0.4"><line x1="106.99" y1="75.51" x2="114.71" y2="69.61" fill="none"/><line x1="106.99" y1="75.51" x2="114.28" y2="69.94" fill="none" stroke="#2a4d9c" stroke-linecap="round" stroke-linejoin="round" stroke-width="0.5"/><polygon points="114.2 72.57 113.71 72.49 114.12 70.06 111.67 69.82 111.72 69.32 114.71 69.61 114.2 72.57" fill="#2a4d9c"/></g><g opacity="0.4"><line x1="74.58" y1="99.48" x2="83.11" y2="94.89" fill="none"/><line x1="74.58" y1="99.48" x2="82.63" y2="95.15" fill="none" stroke="#2a4d9c" stroke-linecap="round" stroke-linejoin="round" stroke-width="0.5"/><polygon points="82.14 97.73 81.67 97.57 82.46 95.24 80.08 94.62 80.2 94.13 83.11 94.89 82.14 97.73" fill="#2a4d9c"/></g><path d="M302.8,133.81a24.24,24.24,0,0,1-.95-2.24c-.41-1-.48-1.24-.84-2.29-.27-.77-.51-1.55-.75-2.32s-.47-1.56-.68-2.34a32,32,0,0,0-9.17,0,37.78,37.78,0,0,0-4.49,1,38.38,38.38,0,0,0-4.31,1.6,42.09,42.09,0,0,0-4,2q-1,.57-1.92,1.17c-.64.4-1.27.8-1.89,1.23-1.08.74-2.58,1.81-3.64,2.59s-2.53,1.92-3.52,2.69q-1.87,1.45-3.73,2.93c-1.1.87-2.2,1.73-3.31,2.58l-1.81,1.41-1.83,1.41-3.47,2.67c-3,2.29-4.87,3.76-7.88,6-.59.44-1.18.88-1.78,1.31l-1.4,1c-.73.51-1.45,1-2.19,1.5-.39.27-.79.52-1.19.77-1.57,1-2.73,1.72-4.39,2.59-.52.27-1,.55-1.57.81-.74.36-1.79.84-2.56,1.16-.55.23-1.12.45-1.68.66s-1.4.51-2.11.72-1.56.47-2.35.65l-.8.19-.91.19c-.87.18-1.75.3-2.62.4-.69.09-1.3.14-2,.18a30.48,30.48,0,0,1-4.68-.08c-.66-.06-1.32-.13-2-.24l-1.09-.2-1.41-.31-1.15-.31-.85-.28-.8-.27c-.35-.13-.7-.26-1-.41l-1.33-.59c-.36-.17-.71-.34-1.06-.53-.54-.28-1-.6-1.56-.92a23.61,23.61,0,0,1-3.63-2.81c-.53-.49-.87-.83-1.35-1.36s-1.25-1.43-1.73-2.08c-.19-.25-.36-.52-.53-.78s-.32-.48-.47-.73-.37-.58-.54-.89-.45-.82-.65-1.23c-.33-.67-.64-1.35-.91-2s-.44-1.2-.62-1.81a25.42,25.42,0,0,1-.84-4.41c-.07-.7-.1-1.41-.11-2.12a21.71,21.71,0,0,1,.06-2.55c0-.31.07-.62.1-.93s.09-.69.14-1a25.24,25.24,0,0,1,.52-2.56,27.54,27.54,0,0,1,1.31-4c.32-.76.65-1.51,1-2.24.29-.54.61-1.06.92-1.58s.81-1.25,1.25-1.85,1-1.31,1.51-1.93.9-1,1.37-1.48q1-1,2-1.89l-15.33-13.18a49,49,0,0,0-4.11,4,41.77,41.77,0,0,0-3.57,4.59,40.62,40.62,0,0,0-2.9,5,47.3,47.3,0,0,0-2.13,5.4,41.72,41.72,0,0,0-1.36,5.72,40.43,40.43,0,0,0,.88,17.18,37.94,37.94,0,0,0,2,5.49,38.67,38.67,0,0,0,2.8,5.09,38.11,38.11,0,0,0,3.49,4.6,42.25,42.25,0,0,0,4.09,4.05,39.13,39.13,0,0,0,4.65,3.45,42.42,42.42,0,0,0,5.09,2.77,43.74,43.74,0,0,0,5.41,2.08,42,42,0,0,0,5.65,1.4,52.56,52.56,0,0,0,5.75.75,53.42,53.42,0,0,0,5.8.08,55.89,55.89,0,0,0,5.78-.52c1.92-.27,3.81-.64,5.7-1.09s3.78-1,5.64-1.62,3.66-1.32,5.45-2.09,3.51-1.59,5.23-2.47,3.36-1.8,5-2.79,3.54-2.19,5.06-3.21,3.23-2.2,4.76-3.3c1.06-.76,3.69-2.69,4.74-3.46q2.24-1.65,4.45-3.33c1.49-1.12,3-2.22,4.48-3.35l4.48-3.37c1.56-1.19,3.11-2.4,4.68-3.59l2.45-1.82c.83-.61,1.66-1.2,2.49-1.79,1.5-1,2.39-1.64,4-2.57.68-.41,1.35-.81,2-1.18l1-.5c.38-.19.75-.37,1.13-.54l1.05-.42c.38-.14.76-.29,1.15-.42s1-.32,1.47-.45l.47-.11.33-.06.38-.09.55-.09c.47-.07.94-.12,1.41-.16.28,0,.55,0,.83,0,.51,0,1,0,1.52.07" fill="#3f82c4" opacity="0.5"/><path d="M285.52,140.36c-.5-1.3-.73-1.92-1.17-3.24-.35-1.09-.7-2.19-1-3.29s-.61-2.22-.91-3.33c-.4-1.51-.49-1.81-.82-3.34s-.63-2.82-.9-4.24-.52-2.83-.75-4.26-.41-2.91-.55-4.29-.26-2.88-.33-4.32a64,64,0,0,1,.14-8.65c.12-1.44.31-2.87.56-4.29a24.39,24.39,0,0,1,.66-2.81c.05-.16.1-.32.16-.48a2.52,2.52,0,0,1,.12-.29A2.42,2.42,0,0,1,281,93l16.32-15.06a1.23,1.23,0,0,0-.12.26c-.05.13-.1.26-.14.39-.11.39-.21.78-.3,1.18-.13.57-.23,1.14-.33,1.71-.13.74-.24,1.48-.34,2.22-.12.9-.23,1.8-.31,2.71s-.19,2.11-.26,3.17-.1,1.89-.13,2.84-.06,2-.06,3.07q0,3,.18,5.9c.12,2,.29,3.93.53,5.89s.51,3.76.89,5.85c.44,2.48.64,3.32,1.19,5.78.11.46.21.91.31,1.37s.22,1,.35,1.46c.26,1,.53,1.93.8,2.9.21.78.44,1.56.68,2.34s.48,1.55.75,2.32c.36,1.05.43,1.25.84,2.29a24.24,24.24,0,0,0,.95,2.24h0c-.5-.05-1-.07-1.52-.07-.28,0-.55,0-.83,0-.47,0-.94.09-1.41.16l-.55.09-.38.09-.33.06-.47.11q-.74.19-1.47.45c-.39.13-.77.28-1.15.42l-1.05.42c-.38.17-.75.35-1.13.54l-1,.5c-.7.37-1.37.77-2,1.18-1.56.93-2.45,1.53-4,2.57" fill="#3f82c4" opacity="0.5"/><path d="M326.68,148.08c-.1-.48-.2-1-.32-1.42s-.27-.95-.43-1.42a26.45,26.45,0,0,0-1.18-2.86,29.52,29.52,0,0,0-5.66-7.85c-.75-.74-1.53-1.45-2.33-2.12s-1.67-1.33-2.55-1.94-1.8-1.18-2.73-1.71a30.59,30.59,0,0,0-2.85-1.46c-1-.44-2-.83-3-1.18s-2-.65-3-.9-2-.45-3.06-.6c.21.78.44,1.56.68,2.34s.48,1.55.75,2.32c.36,1.05.43,1.25.84,2.29a24.24,24.24,0,0,0,.95,2.24h0a6,6,0,0,1,.74.11l.73.15a8.14,8.14,0,0,1,1.43.44h0l.06,0a1.85,1.85,0,0,1,.29.13l.34.18.35.19.34.19.07,0,.26.17.32.24a5.68,5.68,0,0,1,.6.5h0l-.05-.06,0,0v0h0a0,0,0,0,1,0,0l.06,0,.07.08.14.15.28.31h0l0,0a.27.27,0,0,0,.07.08.76.76,0,0,0,.08.11l.15.23q.15.24.27.48h0v0l0,.11,0,.13.1.27.07.18h0v-.17a0,0,0,0,1,0,0s0,0,0,.06,0,.07,0,.1,0,.08,0,.12l0,.08,0,.1v0h0l-.06-.18v0c0,.13,0,.25,0,.38h0a.33.33,0,0,1,0,.14.66.66,0,0,1,0,.14,1.11,1.11,0,0,1-.07.26c-.05.09-.1.18-.14.27h0l0,0h0a1.74,1.74,0,0,1-.1.19h0a.47.47,0,0,1-.1.1l0,0h0l0,0-.06,0-.11.06h0s0,0,0,0h0l-.42.2-.09,0h0l0,0a.2.2,0,0,1,.08,0l.17-.07-.16,0h-.43v0l-.5-.16-.1,0h0l.2.11,0,0h0l-.07,0-.09-.05-.17-.09h0l-.13,0-.09,0h.05l-.15-.09v0h0l0,0-.07,0-.12-.08h0a6.81,6.81,0,0,1-1.34-1.23,7.8,7.8,0,0,1-.59-.7l-.51-.76c-.17-.25-.35-.5-.5-.76l-.19-.35c-.08-.16-.17-.3-.25-.45-.29-.54-.55-1.09-.81-1.64-.51-.05-1-.07-1.52-.07-.28,0-.56,0-.83,0-.47,0-.94.09-1.41.16l-.55.09-.38.09-.33.06-.47.11q-.74.19-1.47.45c-.39.13-.77.28-1.15.42l-1.05.42c-.38.17-.75.35-1.13.54l-1,.5c-.7.37-1.37.77-2,1.18-1.56.93-2.45,1.53-4,2.57h0c.45,1.17.68,1.77,1.21,2.92.43,1,.88,1.91,1.38,2.85s1.06,1.94,1.57,2.75,1.3,2,1.78,2.62c.63.87,1.31,1.69,2,2.49s1.43,1.57,2.21,2.31a33.34,33.34,0,0,0,4.93,3.85,24.15,24.15,0,0,0,2.9,1.62,25,25,0,0,0,3,1.24,22.23,22.23,0,0,0,6,1.21,21.1,21.1,0,0,0,3.37-.11,15.87,15.87,0,0,0,3.11-.76,12.49,12.49,0,0,0,5-3.37,12,12,0,0,0,1.65-2.41,13.33,13.33,0,0,0,1.06-2.84,13.77,13.77,0,0,0,.35-3.2A16.67,16.67,0,0,0,326.68,148.08Zm-16.84-8.9c0,.06-.07.12-.1.19l0-.07a.56.56,0,0,0,.05-.08l0,0v0h0Z" fill="#3f82c4" opacity="0.5"/><path d="M310.35,136.87h-.08" fill="none" stroke="#b2b2b2" stroke-linecap="round" stroke-linejoin="round" stroke-width="0.25" stroke-dasharray="3 3"/><path d="M310.22,136.87h-1.08" fill="none" stroke="#b2b2b2" stroke-linecap="round" stroke-linejoin="round" stroke-width="0.25" stroke-dasharray="3 3"/><path d="M311,138.2l-.22-.08" fill="none" stroke="#b2b2b2" stroke-linecap="round" stroke-linejoin="round" stroke-width="0.25" stroke-dasharray="3 3"/><path d="M310.26,137.88l.77.3" fill="none" stroke="#b2b2b2" stroke-linecap="round" stroke-linejoin="round" stroke-width="0.25" stroke-dasharray="3 3"/><path d="M310.57,138.64l2.05,1.27" fill="none" stroke="#b2b2b2" stroke-linecap="round" stroke-linejoin="round" stroke-width="0.25" stroke-dasharray="3 3"/><path d="M312.33,139.85l-2-1" fill="none" stroke="#b2b2b2" stroke-linecap="round" stroke-linejoin="round" stroke-width="0.25" stroke-dasharray="3 3"/><path d="M311.92,140.59l-1.95-1.4" fill="none" stroke="#b2b2b2" stroke-linecap="round" stroke-linejoin="round" stroke-width="0.25" stroke-dasharray="3 3"/><path d="M310.42,139.8l.42.48" fill="none" stroke="#b2b2b2" stroke-linecap="round" stroke-linejoin="round" stroke-width="0.25" stroke-dasharray="3 3"/><path d="M309.87,139.16l.5.58" fill="none" stroke="#b2b2b2" stroke-linecap="round" stroke-linejoin="round" stroke-width="0.25" stroke-dasharray="3 3"/><path d="M313.22,143c-.62-.66-1.25-1.31-1.88-1.95" fill="none" stroke="#b2b2b2" stroke-linecap="round" stroke-linejoin="round" stroke-width="0.25" stroke-dasharray="3 3"/><path d="M311.31,141l-.72-.73" fill="none" stroke="#b2b2b2" stroke-linecap="round" stroke-linejoin="round" stroke-width="0.25" stroke-dasharray="3 3"/><path d="M310.34,140.67c.76,1.1,1.53,2.19,2.31,3.28" fill="none" stroke="#b2b2b2" stroke-linecap="round" stroke-linejoin="round" stroke-width="0.25" stroke-dasharray="3 3"/><path d="M311.31,142.25c-.57-.73-1.14-1.46-1.72-2.18" fill="none" stroke="#b2b2b2" stroke-linecap="round" stroke-linejoin="round" stroke-width="0.25" stroke-dasharray="3 3"/><path d="M309.43,140.15c.63,1.36,1.27,2.72,1.92,4.07" fill="none" stroke="#b2b2b2" stroke-linecap="round" stroke-linejoin="round" stroke-width="0.25" stroke-dasharray="3 3"/><path d="M310.4,143.78c.32,1.1.64,2.2,1,3.3" fill="none" stroke="#b2b2b2" stroke-linecap="round" stroke-linejoin="round" stroke-width="0.25" stroke-dasharray="3 3"/><path d="M311.29,147c-.44-1.15-.9-2.3-1.36-3.44" fill="none" stroke="#b2b2b2" stroke-linecap="round" stroke-linejoin="round" stroke-width="0.25" stroke-dasharray="3 3"/><path d="M309.51,144.77c-.15-.72-.31-1.44-.47-2.16" fill="none" stroke="#b2b2b2" stroke-linecap="round" stroke-linejoin="round" stroke-width="0.25" stroke-dasharray="3 3"/><path d="M309,142.61c-.17-.78-.35-1.55-.53-2.33" fill="none" stroke="#b2b2b2" stroke-linecap="round" stroke-linejoin="round" stroke-width="0.25" stroke-dasharray="3 3"/><path d="M308.37,140.31c-.06.86-.11,1.73-.16,2.6" fill="none" stroke="#b2b2b2" stroke-linecap="round" stroke-linejoin="round" stroke-width="0.25" stroke-dasharray="3 3"/><path d="M308.21,142.91c-.06,1-.11,2-.15,3" fill="none" stroke="#b2b2b2" stroke-linecap="round" stroke-linejoin="round" stroke-width="0.25" stroke-dasharray="3 3"/><path d="M308,142.54c0-.58,0-1.16,0-1.75" fill="none" stroke="#b2b2b2" stroke-linecap="round" stroke-linejoin="round" stroke-width="0.25" stroke-dasharray="3 3"/><path d="M307.77,141c-.33,1.3-.66,2.6-.95,3.9" fill="none" stroke="#b2b2b2" stroke-linecap="round" stroke-linejoin="round" stroke-width="0.25" stroke-dasharray="3 3"/><path d="M306.68,145.2c.23-1.61.43-3.23.61-4.85" fill="none" stroke="#b2b2b2" stroke-linecap="round" stroke-linejoin="round" stroke-width="0.25" stroke-dasharray="3 3"/><path d="M305.59,143.88c.3-.86.59-1.72.88-2.59" fill="none" stroke="#b2b2b2" stroke-linecap="round" stroke-linejoin="round" stroke-width="0.25" stroke-dasharray="3 3"/><path d="M306.9,140.77c-.44,1-.87,2.06-1.28,3.11" fill="none" stroke="#b2b2b2" stroke-linecap="round" stroke-linejoin="round" stroke-width="0.25" stroke-dasharray="3 3"/><path d="M306.48,141.25c.17-.51.33-1,.5-1.52" fill="none" stroke="#b2b2b2" stroke-linecap="round" stroke-linejoin="round" stroke-width="0.25" stroke-dasharray="3 3"/><path d="M285.52,140.36c-.5-1.3-.73-1.92-1.17-3.24-.35-1.09-.7-2.19-1-3.29s-.61-2.22-.91-3.33c-.4-1.51-.49-1.81-.82-3.34" fill="none" stroke="#b2b2b2" stroke-linecap="round" stroke-linejoin="round" stroke-width="0.25" stroke-dasharray="3 3"/><path d="M299.58,124.62c.21.78.44,1.56.68,2.34s.48,1.55.75,2.32c.36,1.05.43,1.25.84,2.29a24.24,24.24,0,0,0,.95,2.24" fill="none" stroke="#b2b2b2" stroke-linecap="round" stroke-linejoin="round" stroke-width="0.25" stroke-dasharray="3 3"/><path d="M312,141.63l1.23,1.4" fill="none" stroke="#b2b2b2" stroke-linecap="round" stroke-linejoin="round" stroke-width="0.25" stroke-dasharray="3 3"/><path d="M312.65,144l-1.34-1.71" fill="none" stroke="#b2b2b2" stroke-linecap="round" stroke-linejoin="round" stroke-width="0.25" stroke-dasharray="3 3"/><path d="M311.65,144.88c-.48-.93-1-1.86-1.47-2.78" fill="none" stroke="#b2b2b2" stroke-linecap="round" stroke-linejoin="round" stroke-width="0.25" stroke-dasharray="3 3"/><path d="M310.15,142.05l-.88-1.62" fill="none" stroke="#b2b2b2" stroke-linecap="round" stroke-linejoin="round" stroke-width="0.25" stroke-dasharray="3 3"/><path d="M309.37,140.15l.63,2.25" fill="none" stroke="#b2b2b2" stroke-linecap="round" stroke-linejoin="round" stroke-width="0.25" stroke-dasharray="3 3"/><path d="M309.45,142.43c-.28-.69-.56-1.37-.85-2.05" fill="none" stroke="#b2b2b2" stroke-linecap="round" stroke-linejoin="round" stroke-width="0.25" stroke-dasharray="3 3"/><path d="M308.78,140.29c.23,1.49.48,3,.75,4.46" fill="none" stroke="#b2b2b2" stroke-linecap="round" stroke-linejoin="round" stroke-width="0.25" stroke-dasharray="3 3"/><path d="M308,145.9c0-1.1,0-2.2,0-3.3" fill="none" stroke="#b2b2b2" stroke-linecap="round" stroke-linejoin="round" stroke-width="0.25" stroke-dasharray="3 3"/><path d="M198.92,119.6q-1,.91-2,1.89c-.47.48-.93,1-1.37,1.48s-1,1.27-1.51,1.93-.86,1.21-1.25,1.85-.63,1-.92,1.58c-.38.73-.71,1.48-1,2.24a27.54,27.54,0,0,0-1.31,4,25.24,25.24,0,0,0-.52,2.56c-.05.35-.09.69-.14,1s-.07.62-.1.93a21.71,21.71,0,0,0-.06,2.55c0,.71,0,1.42.11,2.12a25.42,25.42,0,0,0,.84,4.41c.18.61.39,1.22.62,1.81s.58,1.38.91,2c.2.41.42.83.65,1.23s.35.6.54.89.31.49.47.73.34.53.53.78c.48.65,1.19,1.48,1.73,2.08s.82.87,1.35,1.36a23.61,23.61,0,0,0,3.63,2.81c.51.32,1,.64,1.56.92.35.19.7.36,1.06.53l1.33.59c.34.15.69.28,1,.41l.8.27.85.28,1.15.31,1.41.31,1.09.2c.65.11,1.31.18,2,.24a30.48,30.48,0,0,0,4.68.08c.69,0,1.3-.09,2-.18.87-.1,1.75-.22,2.62-.4l.91-.19.8-.19c.79-.18,1.57-.41,2.35-.65s1.41-.45,2.11-.72,1.13-.43,1.68-.66c.77-.32,1.82-.8,2.56-1.16.53-.26,1.05-.54,1.57-.81,1.66-.87,2.82-1.59,4.39-2.59.4-.25.8-.5,1.19-.77.74-.49,1.46-1,2.19-1.5l1.4-1c.6-.43,1.19-.87,1.78-1.31,3-2.25,4.91-3.72,7.88-6l3.47-2.67,1.83-1.41,1.81-1.41c1.11-.85,2.21-1.71,3.31-2.58s2.48-2,3.73-2.93c1-.77,2.51-1.94,3.52-2.69s2.56-1.85,3.64-2.59c.62-.43,1.25-.83,1.89-1.23s1.27-.79,1.92-1.17a42.09,42.09,0,0,1,4-2" fill="none" stroke="#b2b2b2" stroke-linecap="round" stroke-linejoin="round" stroke-width="0.25"/><line x1="281" y1="92.98" x2="297.32" y2="77.92" fill="none" stroke="#b2b2b2" stroke-linecap="round" stroke-linejoin="round" stroke-width="0.25"/><path d="M297.32,77.92a1.23,1.23,0,0,0-.12.26c-.05.13-.1.26-.14.39-.11.39-.21.78-.3,1.18-.13.57-.23,1.14-.33,1.71-.13.74-.24,1.48-.34,2.22-.12.9-.23,1.8-.31,2.71s-.19,2.11-.26,3.17-.1,1.89-.13,2.84-.06,2-.06,3.07q0,3,.18,5.9c.12,2,.29,3.93.53,5.89s.51,3.76.89,5.85c.44,2.48.64,3.32,1.19,5.78.11.46.21.91.31,1.37s.22,1,.35,1.46c.26,1,.53,1.93.8,2.9" fill="none" stroke="#b2b2b2" stroke-linecap="round" stroke-linejoin="round" stroke-width="0.25"/><line x1="183.59" y1="106.42" x2="198.92" y2="119.6" fill="none" stroke="#b2b2b2" stroke-linecap="round" stroke-linejoin="round" stroke-width="0.25"/><path d="M309.65,137.63l.16.07" fill="none" stroke="#b2b2b2" stroke-linecap="round" stroke-linejoin="round" stroke-width="0.25"/><path d="M309.73,138.11l.22.14" fill="none" stroke="#b2b2b2" stroke-linecap="round" stroke-linejoin="round" stroke-width="0.25"/><path d="M309.82,138.83l.13.12" fill="none" stroke="#b2b2b2" stroke-linecap="round" stroke-linejoin="round" stroke-width="0.25"/><path d="M305.7,134.51h0" fill="none" stroke="#b2b2b2" stroke-linecap="round" stroke-linejoin="round" stroke-width="0.25"/><path d="M308.38,136.2h0" fill="none" stroke="#b2b2b2" stroke-linecap="round" stroke-linejoin="round" stroke-width="0.25"/><path d="M309.69,138.09v.08a.28.28,0,0,0,0,.09" fill="none" stroke="#b2b2b2" stroke-linecap="round" stroke-linejoin="round" stroke-width="0.25"/><path d="M309.82,138.83h0" fill="none" stroke="#b2b2b2" stroke-linecap="round" stroke-linejoin="round" stroke-width="0.25"/><path d="M309.11,140.15s0,0,0,0h0" fill="none" stroke="#b2b2b2" stroke-linecap="round" stroke-linejoin="round" stroke-width="0.25"/><path d="M281.6,127.16c-.31-1.41-.63-2.82-.9-4.24s-.52-2.83-.75-4.26-.41-2.91-.55-4.29-.26-2.88-.33-4.32a64,64,0,0,1,.14-8.65c.12-1.44.31-2.87.56-4.29a24.39,24.39,0,0,1,.66-2.81c.05-.16.1-.32.16-.48a2.52,2.52,0,0,1,.12-.29A2.42,2.42,0,0,1,281,93" fill="none" stroke="#b2b2b2" stroke-linecap="round" stroke-linejoin="round" stroke-width="0.25"/><path d="M299.58,124.62c1,.15,2.05.36,3.06.6s2,.55,3,.9,2,.74,3,1.18a30.59,30.59,0,0,1,2.85,1.46c.93.53,1.85,1.1,2.73,1.71s1.73,1.25,2.55,1.94,1.58,1.38,2.33,2.12a29.52,29.52,0,0,1,5.66,7.85,26.45,26.45,0,0,1,1.18,2.86c.16.47.3.94.43,1.42s.22.94.32,1.42a16.67,16.67,0,0,1,.33,3.45,13.77,13.77,0,0,1-.35,3.2,13.33,13.33,0,0,1-1.06,2.84A12,12,0,0,1,324,160a12.49,12.49,0,0,1-5,3.37,15.87,15.87,0,0,1-3.11.76,21.1,21.1,0,0,1-3.37.11,22.23,22.23,0,0,1-6-1.21,25,25,0,0,1-3-1.24,24.15,24.15,0,0,1-2.9-1.62,33.34,33.34,0,0,1-4.93-3.85c-.78-.74-1.5-1.51-2.21-2.31s-1.39-1.62-2-2.49c-.48-.66-1.34-1.93-1.78-2.62s-1.12-1.91-1.57-2.75-.95-1.89-1.38-2.85c-.53-1.15-.76-1.75-1.21-2.92" fill="none" stroke="#b2b2b2" stroke-linecap="round" stroke-linejoin="round" stroke-width="0.25"/><path d="M281.61,127.16a38.38,38.38,0,0,1,4.31-1.6,37.78,37.78,0,0,1,4.49-1,32,32,0,0,1,9.17,0" fill="none" stroke="#b2b2b2" stroke-linecap="round" stroke-linejoin="round" stroke-width="0.25"/><path d="M307,139.72l.12.08.07,0,0,0h0" fill="none" stroke="#b2b2b2" stroke-linecap="round" stroke-linejoin="round" stroke-width="0.25"/><path d="M302.8,133.81c.26.55.52,1.1.81,1.64.08.15.17.29.25.45l.19.35c.15.26.33.51.5.76l.51.76a7.8,7.8,0,0,0,.59.7A6.81,6.81,0,0,0,307,139.7" fill="none" stroke="#b2b2b2" stroke-linecap="round" stroke-linejoin="round" stroke-width="0.25"/><path d="M285.52,140.35c-.83.59-1.66,1.18-2.49,1.79L280.58,144c-1.57,1.19-3.12,2.4-4.68,3.59l-4.48,3.37c-1.49,1.13-3,2.23-4.48,3.35s-3,2.23-4.45,3.33c-1.05.77-3.68,2.7-4.74,3.46-1.53,1.1-3.19,2.26-4.76,3.3s-3.49,2.27-5.06,3.21-3.3,1.91-5,2.79-3.45,1.72-5.23,2.47-3.6,1.47-5.45,2.09-3.74,1.16-5.64,1.62-3.78.82-5.7,1.09a55.89,55.89,0,0,1-5.78.52,53.42,53.42,0,0,1-5.8-.08,52.56,52.56,0,0,1-5.75-.75,42,42,0,0,1-5.65-1.4,43.74,43.74,0,0,1-5.41-2.08,42.42,42.42,0,0,1-5.09-2.77,39.13,39.13,0,0,1-4.65-3.45,42.25,42.25,0,0,1-4.09-4.05,38.11,38.11,0,0,1-3.49-4.6,38.67,38.67,0,0,1-2.8-5.09,37.94,37.94,0,0,1-2-5.49,40.43,40.43,0,0,1-.88-17.18,41.72,41.72,0,0,1,1.36-5.72,47.3,47.3,0,0,1,2.13-5.4,40.62,40.62,0,0,1,2.9-5,41.77,41.77,0,0,1,3.57-4.59,49,49,0,0,1,4.11-4" fill="none" stroke="#b2b2b2" stroke-linecap="round" stroke-linejoin="round" stroke-width="0.25"/><path d="M302.8,133.81c-.5-.05-1-.07-1.52-.07-.28,0-.55,0-.83,0-.47,0-.94.09-1.41.16l-.55.09-.38.09-.33.06-.47.11q-.74.19-1.47.45c-.39.13-.77.28-1.15.42l-1.05.42c-.38.17-.75.35-1.13.54l-1,.5c-.7.37-1.37.77-2,1.18-1.56.93-2.45,1.53-4,2.57" fill="none" stroke="#b2b2b2" stroke-linecap="round" stroke-linejoin="round" stroke-width="0.25"/><path d="M305.7,134.51a7.34,7.34,0,0,0-1.43-.43l-.73-.16a6,6,0,0,0-.74-.11" fill="none" stroke="#b2b2b2" stroke-linecap="round" stroke-linejoin="round" stroke-width="0.25"/><path d="M308.34,136.16a5.68,5.68,0,0,0-.6-.5l-.32-.23-.26-.18-.07,0-.34-.19-.35-.19-.34-.18a1.85,1.85,0,0,0-.29-.13l-.06,0h0" fill="none" stroke="#b2b2b2" stroke-linecap="round" stroke-linejoin="round" stroke-width="0.25"/><path d="M309.61,139.67l0,0" fill="none" stroke="#b2b2b2" stroke-linecap="round" stroke-linejoin="round" stroke-width="0.25"/><path d="M309.34,140a.47.47,0,0,0,.1-.1" fill="none" stroke="#b2b2b2" stroke-linecap="round" stroke-linejoin="round" stroke-width="0.25"/><path d="M307,139.73h0" fill="none" stroke="#b2b2b2" stroke-linecap="round" stroke-linejoin="round" stroke-width="0.25"/><path d="M308.24,136h0v0l0,0,.06.07" fill="none" stroke="#b2b2b2" stroke-linecap="round" stroke-linejoin="round" stroke-width="0.25"/><path d="M308.81,136.64l-.28-.31-.14-.15-.07-.08-.06,0a0,0,0,0,0,0,0" fill="none" stroke="#b2b2b2" stroke-linecap="round" stroke-linejoin="round" stroke-width="0.25"/><path d="M309.41,137.55q-.12-.24-.27-.48l-.15-.23a.76.76,0,0,1-.08-.11.27.27,0,0,1-.07-.08l0,0" fill="none" stroke="#b2b2b2" stroke-linecap="round" stroke-linejoin="round" stroke-width="0.25"/><path d="M309.81,138.61h0v0l0-.1s0-.09,0-.14a2.77,2.77,0,0,1-.1-.26l-.1-.27,0-.13,0-.11v0h0" fill="none" stroke="#b2b2b2" stroke-linecap="round" stroke-linejoin="round" stroke-width="0.25"/><path d="M309.79,138.84c0-.13,0-.25,0-.38a1.1,1.1,0,0,0,0-.18s0-.07,0-.1,0,0,0-.06a0,0,0,0,0,0,0" fill="none" stroke="#b2b2b2" stroke-linecap="round" stroke-linejoin="round" stroke-width="0.25"/><path d="M309.85,139.14h0v0l0,0a.56.56,0,0,1-.05.08" fill="none" stroke="#b2b2b2" stroke-linecap="round" stroke-linejoin="round" stroke-width="0.25"/><path d="M309.74,139.37a1.11,1.11,0,0,0,.07-.26.66.66,0,0,0,0-.14.33.33,0,0,0,0-.14" fill="none" stroke="#b2b2b2" stroke-linecap="round" stroke-linejoin="round" stroke-width="0.25"/><path d="M309.47,139.87l.37-.69" fill="none" stroke="#b2b2b2" stroke-linecap="round" stroke-linejoin="round" stroke-width="0.25"/><path d="M309.37,140h0l0,0-.06,0-.11.06" fill="none" stroke="#b2b2b2" stroke-linecap="round" stroke-linejoin="round" stroke-width="0.25"/><path d="M308.93,140.22l-.17.07a.2.2,0,0,0-.08,0l0,0h0" fill="none" stroke="#b2b2b2" stroke-linecap="round" stroke-linejoin="round" stroke-width="0.25"/><path d="M308.69,140.34l.42-.2" fill="none" stroke="#b2b2b2" stroke-linecap="round" stroke-linejoin="round" stroke-width="0.25"/><path d="M308.77,140.24l.56-.08" fill="none" stroke="#b2b2b2" stroke-linecap="round" stroke-linejoin="round" stroke-width="0.25"/><path d="M308.34,140.26h.43" fill="none" stroke="#b2b2b2" stroke-linecap="round" stroke-linejoin="round" stroke-width="0.25"/><path d="M307.94,140.22l-.2-.11" fill="none" stroke="#b2b2b2" stroke-linecap="round" stroke-linejoin="round" stroke-width="0.25"/><path d="M307.34,140h0l.09,0,.13,0,.25.08.5.16" fill="none" stroke="#b2b2b2" stroke-linecap="round" stroke-linejoin="round" stroke-width="0.25"/><path d="M307.27,139.87l.35.2.17.09.09.05.07,0h0" fill="none" stroke="#b2b2b2" stroke-linecap="round" stroke-linejoin="round" stroke-width="0.25"/><polyline points="198.92 119.6 198.64 119.88 198.23 120.23 197.73 120.7 196.95 121.45 196.38 122.07 195.75 122.75 195.01 123.65 194.62 124.13 193.8 125.25 193.57 125.56 193.41 125.82 192.61 127.06 191.87 128.38 191.74 128.61 191.07 130.05 191 130.21 190.92 130.4 190.35 131.84 189.96 133.06 189.81 133.5 189.53 134.6 189.38 135.18 189.24 135.87 189.05 136.89 188.94 137.75 188.83 138.6 188.78 139.34 188.72 140.32 188.72 141.47 188.72 142.03 188.8 143.32 188.83 143.73 188.88 144.07 189.05 145.41 189.36 146.97 189.38 147.07 189.41 147.16 189.7 148.24 189.83 148.69 189.85 148.74 190.41 150.27 190.97 151.53 191.09 151.8 191.26 152.12 191.87 153.28 192.45 154.22 192.74 154.69 193.3 155.48 193.71 156.04 194.23 156.69 194.76 157.32 195.44 158.06 195.89 158.53 196.75 159.33 197.1 159.66 197.42 159.92 198.38 160.71 198.59 160.86 199.74 161.67 200.64 162.23 201.16 162.54 202.47 163.22 202.67 163.32 203.86 163.85 204.22 164.01 204.71 164.19 205.81 164.59 206.54 164.81 207.44 165.09 208.43 165.32 209.1 165.48 210.37 165.7 210.79 165.78 212.34 165.96 212.49 165.98 213.35 166.03 214.23 166.08 215.63 166.08 216 166.08 216.54 166.06 217.76 165.99 218.7 165.89 219.52 165.81 220.88 165.59 221.26 165.53 221.52 165.48 222.7 165.23 222.94 165.18 223 165.17 224.37 164.82 224.76 164.72 225.42 164.52 226.49 164.19 227.12 163.96 228.19 163.58 229.24 163.15 229.73 162.95 229.88 162.89 230.18 162.75 231.56 162.13 232.25 161.79 233.21 161.31 234.02 160.86 234.84 160.42 235.76 159.88 236.46 159.47 237.72 158.68 238.05 158.48 238.38 158.26 239.65 157.43 240.75 156.66 241.05 156.46 241.22 156.34 242.05 155.75 242.81 155.21 243.02 155.05 243.34 154.81 243.98 154.35 244.4 154.04 244.92 153.65 245.64 153.1 246 152.84 247.14 151.98 247.62 151.61 247.75 151.51 248.59 150.87 249.28 150.35 249.47 150.2 249.69 150.02 250.95 149.06 251.63 148.53 252.17 148.12 252.66 147.74 253.06 147.43 253.49 147.1 254.4 146.4 255.3 145.71 256.16 145.04 257.11 144.31 257.96 143.64 258.92 142.92 259.8 142.22 260.26 141.87 260.74 141.5 261.56 140.84 262.6 140.04 262.98 139.73 263.35 139.44 264.51 138.54 265.13 138.04 265.76 137.55 266.5 136.99 266.71 136.82 266.89 136.67 267.65 136.09 268.6 135.37 268.64 135.33 269.58 134.62 270.36 134.03 270.85 133.69 272.07 132.78 272.56 132.44 273.32 131.92 273.59 131.72 273.77 131.59 274.52 131.1 275.47 130.48 276.12 130.09 276.79 129.67 277.16 129.44 277.9 129.03 278.88 128.48 279.05 128.4 279.41 128.22 280.58 127.61 281.52 127.19 282.32 126.84 283.48 126.4 284.07 126.16 285.19 125.79 285.82 125.58 287.09 125.24 287.62 125.1 288.79 124.87 289.43 124.73 289.67 124.7 291.23 124.46 292.12 124.39 293.06 124.31 293.62 124.29 294.92 124.26 295.13 124.26 296.18 124.3 296.77 124.31 298.19 124.44 298.6 124.47 299.16 124.56 300.43 124.74 301.28 124.92 302.25 125.12 303.56 125.46 304.07 125.6 305.69 126.12 305.87 126.18 306.89 126.56 307.54 126.82 307.63 126.85 309.04 127.48 309.33 127.61 309.68 127.79 310.99 128.47 311.98 129.04 312.6 129.41 313.4 129.93 314.16 130.42 315.05 131.07 315.66 131.51 316.12 131.89 317.09 132.67 318.2 133.67 318.45 133.89 319.63 135.07 319.73 135.17 319.8 135.25 320.63 136.17 320.91 136.49 321.88 137.7 321.98 137.84 322.1 138 322.96 139.22 323.61 140.28 323.83 140.64 324.06 141.06 324.61 142.07 325.01 142.94 325.28 143.51 325.54 144.17 325.84 144.95 326.08 145.73 326.29 146.39 326.43 146.95 326.64 147.81 326.71 148.27 326.87 149.21 326.97 150.28 327 150.58 327.02 151.73 327.02 151.92 327.01 152.08 326.93 153.21 326.78 154.22 326.74 154.46 326.44 155.55 326.42 155.64 326.38 155.75 325.99 156.77 325.9 156.96 325.47 157.83 325.04 158.54 324.86 158.83 324.62 159.15 324.16 159.75 323.71 160.24 323.37 160.6 322.94 160.98 322.51 161.37 322.11 161.66 321.57 162.05 321.21 162.26 320.56 162.64 320.27 162.78 319.49 163.15 318.5 163.51 318.36 163.56 318.24 163.6 317.19 163.88 317.17 163.89 316.93 163.93 315.94 164.1 314.87 164.21 314.66 164.23 313.68 164.25 313.34 164.26 312.47 164.22 311.99 164.19 311.25 164.11 310.63 164.04 310.03 163.93 309.25 163.79 308.81 163.68 307.86 163.44 307.59 163.36 306.47 163.01 305.75 162.74 305.16 162.52 305.07 162.48 303.95 161.98 303.67 161.86 302.76 161.4 302.29 161.15 301.6 160.75 300.93 160.36 300.47 160.06 299.6 159.49 299.38 159.33 298.4 158.61 298.3 158.54 297.26 157.7 297 157.49 296.56 157.1 295.76 156.38 294.9 155.53 294.56 155.19 293.75 154.29 293.41 153.94 292.63 153.01 292.29 152.6 291.6 151.68 291.24 151.21 291.07 150.96 290.65 150.34 290.35 149.91 290.23 149.75 289.66 148.84 289.27 148.23 289.01 147.77 288.46 146.78 288.39 146.65 288.32 146.52 287.52 145.02 286.85 143.54 286.78 143.41 286.74 143.33 286.29 142.3 285.99 141.6 285.84 141.2 285.6 140.56 285.29 139.82 285 139 284.65 138 284.57 137.76 284.25 136.8 284.02 136.15 283.72 135.09 283.45 134.27 283.24 133.52 282.96 132.51 282.94 132.43 282.92 132.37 282.8 131.94 282.41 130.46 282.36 130.25 282.3 129.98 282.07 129.16 281.9 128.53 281.81 128.07 281.69 127.48 281.56 126.96 281.46 126.55 281.12 124.95 281.05 124.68 280.89 123.89 280.67 122.77 280.64 122.61 280.6 122.39 280.43 121.52 280.31 120.89 280.24 120.41 280.13 119.72 280 119.02 279.81 117.7 279.73 117.19 279.7 116.91 279.5 115.39 279.35 113.89 279.32 113.63 279.23 112.61 279.17 111.92 279.1 110.62 279.07 110.24 279.06 109.93 279.01 108.63 279 108.16 278.98 107.06 278.99 107.04 278.99 106.99 278.99 105.96 278.99 105.57 279.01 104.88 279.03 104.14 279.05 103.81 279.11 102.77 279.11 102.73 279.2 101.48 279.26 100.81 279.32 100.27 279.36 99.88 279.45 99.14 279.58 98.28 279.6 98.13 279.61 98.09 279.73 97.34 279.76 97.14 279.87 96.61 279.93 96.28 280.02 95.86 280.1 95.5 280.15 95.29 280.27 94.82 280.3 94.72 280.44 94.24 280.5 94.08 280.61 93.75 280.74 93.45 280.77 93.37 280.87 93.18 280.92 93.09 281 92.98" fill="none" stroke="#1d1d1b" stroke-miterlimit="10"/><g opacity="0.4"><line x1="195.43" y1="158.04" x2="191.25" y2="164.33" fill="none" stroke="#c91517" stroke-linecap="round" stroke-linejoin="round" stroke-width="0.5"/><polygon points="190.46 161.82 190.95 161.74 191.35 164.17 193.75 163.6 193.87 164.08 190.94 164.78 190.46 161.82" fill="#c91517"/></g><g opacity="0.4"><line x1="198.92" y1="119.6" x2="195.87" y2="114.69" fill="none" stroke="#c91517" stroke-linecap="round" stroke-linejoin="round" stroke-width="0.5"/><polygon points="198.49 115.02 198.35 115.5 195.98 114.86 195.5 117.27 195.01 117.18 195.59 114.23 198.49 115.02" fill="#c91517"/></g><g opacity="0.4"><line x1="281" y1="92.98" x2="275.38" y2="86.92" fill="none" stroke="#c91517" stroke-linecap="round" stroke-linejoin="round" stroke-width="0.5"/><polygon points="278.01 86.75 277.97 87.25 275.51 87.06 275.51 89.53 275.01 89.53 275.01 86.52 278.01 86.75" fill="#c91517"/></g><g opacity="0.4"><line x1="280.25" y1="120.47" x2="274.01" y2="119.92" fill="none" stroke="#c91517" stroke-linecap="round" stroke-linejoin="round" stroke-width="0.5"/><polygon points="275.84 118.03 276.14 118.42 274.2 119.93 275.85 121.77 275.47 122.1 273.47 119.87 275.84 118.03" fill="#c91517"/></g><line x1="296.07" y1="156.65" x2="290.95" y2="159.24" fill="none" stroke="#c91517" stroke-linecap="round" stroke-linejoin="round" stroke-width="0.5"/><polygon points="291.5 156.67 291.97 156.84 291.12 159.15 293.49 159.84 293.35 160.32 290.46 159.48 291.5 156.67" fill="#c91517"/><g opacity="0.4"><line x1="325.6" y1="157.57" x2="318.41" y2="161.13" fill="none" stroke="#c91517" stroke-linecap="round" stroke-linejoin="round" stroke-width="0.5"/><polygon points="318.99 158.56 319.45 158.74 318.58 161.04 320.94 161.75 320.8 162.23 317.92 161.37 318.99 158.56" fill="#c91517"/></g><g opacity="0.4"><line x1="306.65" y1="126.47" x2="302.85" y2="135.47" fill="none" stroke="#c91517" stroke-linecap="round" stroke-linejoin="round" stroke-width="0.5"/><polygon points="301.61 133.15 302.08 132.97 302.92 135.29 305.17 134.28 305.38 134.74 302.64 135.97 301.61 133.15" fill="#c91517"/></g><g opacity="0.4"><line x1="267" y1="136.58" x2="270.28" y2="144.11" fill="none" stroke="#c91517" stroke-linecap="round" stroke-linejoin="round" stroke-width="0.5"/><polygon points="267.75 143.41 267.95 142.95 270.21 143.94 271.02 141.61 271.5 141.78 270.5 144.61 267.75 143.41" fill="#c91517"/></g><g opacity="0.4"><line x1="234.6" y1="160.55" x2="237.31" y2="168.08" fill="none" stroke="#c91517" stroke-linecap="round" stroke-linejoin="round" stroke-width="0.5"/><polygon points="234.82 167.22 235.05 166.77 237.24 167.9 238.21 165.64 238.67 165.83 237.49 168.59 234.82 167.22" fill="#c91517"/></g><line x1="195.43" y1="158.04" x2="189.64" y2="160.69" fill="none" stroke="#037534" stroke-linecap="round" stroke-linejoin="round" stroke-width="0.5"/><polygon points="190.29 158.15 190.75 158.34 189.81 160.61 192.15 161.39 191.99 161.86 189.14 160.92 190.29 158.15" fill="#037534"/><line x1="198.92" y1="119.6" x2="193.09" y2="114.59" fill="none" stroke="#037534" stroke-linecap="round" stroke-linejoin="round" stroke-width="0.5"/><polygon points="195.68 114.11 195.69 114.61 193.23 114.71 193.51 117.16 193.01 117.22 192.67 114.23 195.68 114.11" fill="#037534"/><g opacity="0.4"><line x1="281" y1="92.98" x2="287.06" y2="87.38" fill="none" stroke="#037534" stroke-linecap="round" stroke-linejoin="round" stroke-width="0.5"/><polygon points="287.23 90.01 286.74 89.97 286.92 87.51 284.46 87.5 284.46 87 287.46 87.02 287.23 90.01" fill="#037534"/></g><g opacity="0.4"><line x1="280.25" y1="120.47" x2="286.26" y2="117.96" fill="none" stroke="#037534" stroke-linecap="round" stroke-linejoin="round" stroke-width="0.5"/><polygon points="285.52 120.48 285.07 120.28 286.08 118.03 283.77 117.18 283.94 116.71 286.76 117.75 285.52 120.48" fill="#037534"/></g><g opacity="0.4"><line x1="296.07" y1="156.65" x2="299.88" y2="150.35" fill="none" stroke="#037534" stroke-linecap="round" stroke-linejoin="round" stroke-width="0.5"/><polygon points="300.77 152.82 300.28 152.93 299.78 150.51 297.41 151.19 297.27 150.71 300.16 149.88 300.77 152.82" fill="#037534"/></g><line x1="325.6" y1="157.57" x2="319.43" y2="150.7" fill="none" stroke="#037534" stroke-linecap="round" stroke-linejoin="round" stroke-width="0.5"/><polygon points="322.06 150.56 322.01 151.06 319.56 150.84 319.51 153.31 319.01 153.3 319.07 150.29 322.06 150.56" fill="#037534"/><line x1="306.65" y1="126.47" x2="306.29" y2="129.27" fill="none" stroke="#037534" stroke-linecap="round" stroke-linejoin="round" stroke-width="0.5"/><polygon points="304.47 127.36 304.88 127.07 306.31 129.08 308.21 127.5 308.53 127.88 306.22 129.81 304.47 127.36" fill="#037534"/><line x1="267" y1="136.58" x2="272.32" y2="139.23" fill="none" stroke="#037534" stroke-linecap="round" stroke-linejoin="round" stroke-width="0.5"/><polygon points="269.93 140.32 269.78 139.84 272.15 139.14 271.28 136.83 271.75 136.66 272.8 139.47 269.93 140.32" fill="#037534"/><line x1="234.6" y1="160.55" x2="238.28" y2="163.89" fill="none" stroke="#037534" stroke-linecap="round" stroke-linejoin="round" stroke-width="0.5"/><polygon points="235.68 164.29 235.67 163.79 238.14 163.76 237.93 161.31 238.43 161.27 238.68 164.26 235.68 164.29" fill="#037534"/><g opacity="0.4"><line x1="195.43" y1="158.04" x2="201.62" y2="164.61" fill="none" stroke="#2a4d9c" stroke-linecap="round" stroke-linejoin="round" stroke-width="0.5"/><polygon points="198.99 164.81 199.03 164.31 201.49 164.48 201.47 162.01 201.97 162.01 201.99 165.01 198.99 164.81" fill="#2a4d9c"/></g><g opacity="0.4"><line x1="198.92" y1="119.6" x2="191.82" y2="126.11" fill="none" stroke="#2a4d9c" stroke-linecap="round" stroke-linejoin="round" stroke-width="0.5"/><polygon points="191.66 123.49 192.16 123.53 191.96 125.98 194.42 126 194.42 126.5 191.42 126.48 191.66 123.49" fill="#2a4d9c"/></g><polygon points="282.22 94.8 281.73 94.87 281.38 92.43 278.97 92.96 278.87 92.47 281.8 91.83 282.22 94.8" fill="#2a4d9c"/><line x1="280.25" y1="120.47" x2="278.89" y2="112.13" fill="none" stroke="#2a4d9c" stroke-linecap="round" stroke-linejoin="round" stroke-width="0.5"/><polygon points="281.18 113.44 280.87 113.83 278.93 112.32 277.56 114.37 277.14 114.09 278.81 111.59 281.18 113.44" fill="#2a4d9c"/><g opacity="0.4"><line x1="296.07" y1="156.65" x2="289.75" y2="150.78" fill="none" stroke="#2a4d9c" stroke-linecap="round" stroke-linejoin="round" stroke-width="0.5"/><polygon points="292.35 150.41 292.35 150.91 289.89 150.91 290.07 153.37 289.57 153.4 289.35 150.41 292.35 150.41" fill="#2a4d9c"/></g><g opacity="0.4"><line x1="325.6" y1="157.57" x2="322.85" y2="163.21" fill="none" stroke="#2a4d9c" stroke-linecap="round" stroke-linejoin="round" stroke-width="0.5"/><polygon points="321.74 160.82 322.22 160.68 322.93 163.03 325.23 162.15 325.41 162.62 322.61 163.69 321.74 160.82" fill="#2a4d9c"/></g><g opacity="0.4"><line x1="306.65" y1="126.47" x2="316.27" y2="130.16" fill="none" stroke="#2a4d9c" stroke-linecap="round" stroke-linejoin="round" stroke-width="0.5"/><polygon points="313.99 131.47 313.81 131.01 316.09 130.09 315.01 127.88 315.45 127.66 316.78 130.35 313.99 131.47" fill="#2a4d9c"/></g><g opacity="0.4"><line x1="267" y1="136.58" x2="274.29" y2="131.01" fill="none" stroke="#2a4d9c" stroke-linecap="round" stroke-linejoin="round" stroke-width="0.5"/><polygon points="274.22 133.64 273.72 133.56 274.14 131.13 271.69 130.89 271.74 130.39 274.72 130.68 274.22 133.64" fill="#2a4d9c"/></g><g opacity="0.4"><line x1="234.6" y1="160.55" x2="242.65" y2="156.22" fill="none" stroke="#2a4d9c" stroke-linecap="round" stroke-linejoin="round" stroke-width="0.5"/><polygon points="242.16 158.81 241.68 158.65 242.48 156.31 240.09 155.69 240.22 155.21 243.13 155.97 242.16 158.81" fill="#2a4d9c"/></g><path d="M412.36,60.07l2.71-2.17a3,3,0,0,1,1.28-.55.19.19,0,0,0,.1,0l.33,1.52c-.52.25-1,.51-1.55.78-1.05.53-1.8.92-2.8,1.52h0a7.45,7.45,0,0,1-.07-1.06" fill="#e66526" opacity="0.25"/><path d="M415.53,26.36v-.05h0l.2-.69h0l.12-.31,0-.07,0,0h0c0-.09.08-.18.13-.27l.12-.18,1.94-2.79c-.38-8.91-6.32-4.27-5.72,1.79,0,.28.08.56.11.85.4,4.2-2.38,9.16-1.21,13.63.15.55.5,1,.63,1.55v0a3.12,3.12,0,0,1,0,1c-.53,6.32.47,12.92.36,19.29h0l2.71-2.17a3,3,0,0,1,1.28-.55.19.19,0,0,0,.1,0c0-.08,0-.17-.05-.25l-.12-.55-.09-.43c-.05-.19-.09-.39-.13-.59-.31-1.52-.58-3-.83-4.57-.06-.35-.11-.69-.16-1-.1-.65-.18-1.29-.27-1.94s-.18-1.56-.26-2.34c0-.17,0-.34,0-.51-.05-.49-.09-1-.13-1.47-.06-.85-.1-1.69-.14-2.54,0-.21,0-.42,0-.63,0-.67,0-1.35,0-2s0-1.37,0-2c0-.94.09-1.89.16-2.83,0-.31.05-.62.08-.93v-.12c0-.17,0-.34.05-.5l.09-.87h0c.08-.68.18-1.37.3-2.05v0c0-.12,0-.25.07-.38.11-.64.16-.88.31-1.52,0-.13.07-.27.11-.4s.07-.26.1-.39" fill="#e66526" opacity="0.25"/><g opacity="0.25"><polygon points="459 72.38 459 72.37 459 72.37 459 72.38" fill="#e66526"/><path d="M470.62,74.32A40,40,0,0,0,454.91,55c-3-1.89-13.38-8.59-17-6.8l-1.25.63v0c-4.46,2-10.53.45-15.26,4.19v0a25.14,25.14,0,0,1-1.95,2l-.85.64h0c-.45.34-.85.75-1.3,1.09a2.66,2.66,0,0,1-.45.29l-.14.07a1.43,1.43,0,0,1-.27.09l.33,1.52v0l0,0c-.51.23-1,.47-1.52.72-1.05.53-1.8.92-2.8,1.52h0C415.78,83.23,435,113,461.7,102.19,472.26,97.93,474.38,84.36,470.62,74.32Zm-45,7.36h0Zm36.25,4.8h0L461.48,88l-.47.87a9.48,9.48,0,0,1-.7,1.29h0l-.75,1.2-.61.57a9.6,9.6,0,0,1-1.22,1.15h0l-1.1.88h-.18l-.12.09a12.57,12.57,0,0,1-2.16,1,9.63,9.63,0,0,1-1.76.52h0c-.37.08-.73.16-1.11.22s-.6.06-.9.09a17.52,17.52,0,0,1-2.29.06h0a21.81,21.81,0,0,1-4.52-.68h0c-.58-.15-1-.27-1.45-.42h-.2l-.92-.41-1.66-.62-.44-.28h0c-.35-.17-.7-.33-1-.52s-.68-.37-1-.57c-.79-.47-1.57-1-2.31-1.49s-1.32-1-1.95-1.51h0L431,88.22l.09,0c-.71-.66-1.4-1.34-2.05-2.06h0l-.75-.85a33.55,33.55,0,0,1-2.7-3.58h0l-.53-.81h0l-.54-.81,0,0c-.33-.55-.65-1.12-1-1.69-.22-.4-.44-.82-.65-1.23l-.14-.29-.33-.69c-.27-.56-.53-1.11-.78-1.68-.41-.93-.77-1.89-1.14-2.85-.18-.45-.34-.9-.5-1.35-.35-1-.67-2-1-2.94-.15-.47-.29-.94-.43-1.42s-.36-1.23-.53-1.86c-.08-.27-.15-.55-.22-.82-.17-.62-.33-1.24-.5-1.86s-.29-1.13-.42-1.7l-.18-.78,1-.4h0c.93-.37,1.53-.6,2.48-.91a26.6,26.6,0,0,1,2.91-.79h0c.42-.1.85-.19,1.28-.27s.8-.14,1.21-.2A26.72,26.72,0,0,1,429,56c.76,0,1.52,0,2.28,0a33.62,33.62,0,0,1,10.79,2.28c.36.13.71.28,1.06.42s.8.34,1.19.53c.67.32,1.32.67,2,1h0l1.28.71c-.13-.09,1,.63,1,.65l.11.07c.92.6,1.8,1.25,2.66,1.93.6.48,1.18,1,1.75,1.49a28,28,0,0,1,2.7,2.75,20.36,20.36,0,0,1,1.44,1.78c.55.76,1.08,1.52,1.56,2.33l.22.38h0c.33.59.66,1.17,1,1.75h0l0,.09.85,1.77-.75-1.53a21.51,21.51,0,0,1,1.12,2.82l0,.08a16,16,0,0,1,.54,2,14.63,14.63,0,0,1,.36,2.45h0l.12,1.66-.1.69a13.6,13.6,0,0,1-.32,2.28Z" fill="#e66526"/><polygon points="459 72.38 459 72.37 459 72.37 459 72.38" fill="#b2b2b2"/><path d="M470.62,74.32A40,40,0,0,0,454.91,55c-3-1.89-13.38-8.59-17-6.8l-1.25.63v0c-4.46,2-10.53.45-15.26,4.19v0a25.14,25.14,0,0,1-1.95,2l-.85.64h0c-.45.34-.85.75-1.3,1.09a2.66,2.66,0,0,1-.45.29l-.14.07a1.43,1.43,0,0,1-.27.09l.33,1.52v0l0,0c-.51.23-1,.47-1.52.72-1.05.53-1.8.92-2.8,1.52h0C415.78,83.23,435,113,461.7,102.19,472.26,97.93,474.38,84.36,470.62,74.32Zm-45,7.36h0Zm36.25,4.8h0L461.48,88l-.47.87a9.48,9.48,0,0,1-.7,1.29h0l-.75,1.2-.61.57a9.6,9.6,0,0,1-1.22,1.15h0l-1.1.88h-.18l-.12.09a12.57,12.57,0,0,1-2.16,1,9.63,9.63,0,0,1-1.76.52h0c-.37.08-.73.16-1.11.22s-.6.06-.9.09a17.52,17.52,0,0,1-2.29.06h0a21.81,21.81,0,0,1-4.52-.68h0c-.58-.15-1-.27-1.45-.42h-.2l-.92-.41-1.66-.62-.44-.28h0c-.35-.17-.7-.33-1-.52s-.68-.37-1-.57c-.79-.47-1.57-1-2.31-1.49s-1.32-1-1.95-1.51h0L431,88.22l.09,0c-.71-.66-1.4-1.34-2.05-2.06h0l-.75-.85a33.55,33.55,0,0,1-2.7-3.58h0l-.53-.81h0l-.54-.81,0,0c-.33-.55-.65-1.12-1-1.69-.22-.4-.44-.82-.65-1.23l-.14-.29-.33-.69c-.27-.56-.53-1.11-.78-1.68-.41-.93-.77-1.89-1.14-2.85-.18-.45-.34-.9-.5-1.35-.35-1-.67-2-1-2.94-.15-.47-.29-.94-.43-1.42s-.36-1.23-.53-1.86c-.08-.27-.15-.55-.22-.82-.17-.62-.33-1.24-.5-1.86s-.29-1.13-.42-1.7l-.18-.78,1-.4h0c.93-.37,1.53-.6,2.48-.91a26.6,26.6,0,0,1,2.91-.79h0c.42-.1.85-.19,1.28-.27s.8-.14,1.21-.2A26.72,26.72,0,0,1,429,56c.76,0,1.52,0,2.28,0a33.62,33.62,0,0,1,10.79,2.28c.36.13.71.28,1.06.42s.8.34,1.19.53c.67.32,1.32.67,2,1h0l1.28.71c-.13-.09,1,.63,1,.65l.11.07c.92.6,1.8,1.25,2.66,1.93.6.48,1.18,1,1.75,1.49a28,28,0,0,1,2.7,2.75,20.36,20.36,0,0,1,1.44,1.78c.55.76,1.08,1.52,1.56,2.33l.22.38h0c.33.59.66,1.17,1,1.75h0l0,.09.85,1.77-.75-1.53a21.51,21.51,0,0,1,1.12,2.82l0,.08a16,16,0,0,1,.54,2,14.63,14.63,0,0,1,.36,2.45h0l.12,1.66-.1.69a13.6,13.6,0,0,1-.32,2.28Z" fill="#e66526" opacity="0.25"/><polygon points="459 72.38 459 72.37 459 72.37 459 72.38" fill="none"/><path d="M470.62,74.32A40,40,0,0,0,454.91,55c-3-1.89-13.38-8.59-17-6.8l-1.25.63v0c-4.46,2-10.53.45-15.26,4.19v0a25.14,25.14,0,0,1-1.95,2l-.85.64h0c-.45.34-.85.75-1.3,1.09a2.66,2.66,0,0,1-.45.29l-.14.07a1.43,1.43,0,0,1-.27.09l.33,1.52v0l0,0c-.51.23-1,.47-1.52.72-1.05.53-1.8.92-2.8,1.52h0C415.78,83.23,435,113,461.7,102.19,472.26,97.93,474.38,84.36,470.62,74.32Zm-45,7.36h0Zm36.25,4.8h0L461.48,88l-.47.87a9.48,9.48,0,0,1-.7,1.29h0l-.75,1.2-.61.57a9.6,9.6,0,0,1-1.22,1.15h0l-1.1.88h-.18l-.12.09a12.57,12.57,0,0,1-2.16,1,9.63,9.63,0,0,1-1.76.52h0c-.37.08-.73.16-1.11.22s-.6.06-.9.09a17.52,17.52,0,0,1-2.29.06h0a21.81,21.81,0,0,1-4.52-.68h0c-.58-.15-1-.27-1.45-.42h-.2l-.92-.41-1.66-.62-.44-.28h0c-.35-.17-.7-.33-1-.52s-.68-.37-1-.57c-.79-.47-1.57-1-2.31-1.49s-1.32-1-1.95-1.51h0L431,88.22l.09,0c-.71-.66-1.4-1.34-2.05-2.06h0l-.75-.85a33.55,33.55,0,0,1-2.7-3.58h0l-.53-.81h0l-.54-.81,0,0c-.33-.55-.65-1.12-1-1.69-.22-.4-.44-.82-.65-1.23l-.14-.29-.33-.69c-.27-.56-.53-1.11-.78-1.68-.41-.93-.77-1.89-1.14-2.85-.18-.45-.34-.9-.5-1.35-.35-1-.67-2-1-2.94-.15-.47-.29-.94-.43-1.42s-.36-1.23-.53-1.86c-.08-.27-.15-.55-.22-.82-.17-.62-.33-1.24-.5-1.86s-.29-1.13-.42-1.7l-.18-.78,1-.4h0c.93-.37,1.53-.6,2.48-.91a26.6,26.6,0,0,1,2.91-.79h0c.42-.1.85-.19,1.28-.27s.8-.14,1.21-.2A26.72,26.72,0,0,1,429,56c.76,0,1.52,0,2.28,0a33.62,33.62,0,0,1,10.79,2.28c.36.13.71.28,1.06.42s.8.34,1.19.53c.67.32,1.32.67,2,1h0l1.28.71c-.13-.09,1,.63,1,.65l.11.07c.92.6,1.8,1.25,2.66,1.93.6.48,1.18,1,1.75,1.49a28,28,0,0,1,2.7,2.75,20.36,20.36,0,0,1,1.44,1.78c.55.76,1.08,1.52,1.56,2.33l.22.38h0c.33.59.66,1.17,1,1.75h0l0,.09.85,1.77-.75-1.53a21.51,21.51,0,0,1,1.12,2.82l0,.08a16,16,0,0,1,.54,2,14.63,14.63,0,0,1,.36,2.45h0l.12,1.66-.1.69a13.6,13.6,0,0,1-.32,2.28Z" fill="none"/></g><path d="M412.36,60.07l-10.85,8.69-.25.2,3.13-2.23,2-1.5.82-.64c.85-.61,1.71-1.22,2.59-1.79l.95-.61.48-.29,1.24-.76h0a7.45,7.45,0,0,1-.07-1.06l-11,8.88-.06.06" fill="#e66526" opacity="0.25"/><path d="M378.25,86.75l-1.51,1.09h0c-.94.66-1.88,1.31-2.85,1.94l-.47.3c-.61.39-1.22.78-1.85,1.16l-.56.34c-1,.57-1.6.9-2.59,1.43s-1.5.76-2.42,1.19-1.52.66-2.55,1h0c-1.06.41-1.56.59-2.65.92s-1.64.48-2.71.72-1.52.34-2.55.49a32.35,32.35,0,0,1-3.27.35c-.87,0-1.75.06-2.62,0a30.33,30.33,0,0,1-3.16-.24c-1-.12-1.88-.31-2.81-.52a20.29,20.29,0,0,1-2.64-.74,21.8,21.8,0,0,1-2.32-.9,22.89,22.89,0,0,1-3-1.55c-.66-.41-1.31-.84-1.93-1.31a28,28,0,0,1-2.42-2.06,24.63,24.63,0,0,1-1.83-2q-.39-.45-.75-.93c-.39-.51-.56-.79-.91-1.33a18,18,0,0,1-1.22-2.08,23.89,23.89,0,0,1-1.29-2.93,19.83,19.83,0,0,1-.72-2.42,20.44,20.44,0,0,1-.4-2.07c-.05-.37-.1-.74-.14-1.12A19.8,19.8,0,0,1,324,73a19.8,19.8,0,0,1,.18-3.27,21.68,21.68,0,0,1,.36-2.26,28.31,28.31,0,0,1,1-3.71l0-.07c.23-.64.49-1.27.76-1.9a20.32,20.32,0,0,1,1.32-2.64l.31-.52c.48-.79.81-1.28,1.35-2a32.42,32.42,0,0,1,2.85-3.45L315.23,68.69c-6.45,6.88,3.87,24.08,8.89,28.87,7.38,7,18.54,10.26,28.72,9.13,10-1.12,19.45-6.15,27-12.88,5.47-4.87,8.85-14.26,14.67-18.3.42-.29.9-.48,1.32-.77,1.44-1,2.42-3.13,3.88-4.23.5-.53,1-1,1.52-1.53L397,72.38l-1.85,1.44-.44.34h0l-2,1.56-.5.39h0l-.26.2h0l-1.52,1.18-.18.14L388.43,79l-1.86,1.44-2.46,1.89-1.87,1.43c-.7.52-1.4,1-2.09,1.57l-.1.07-1.49,1.11-.34.25" fill="#3f82c4" opacity="0.5"/><path d="M415.53,26.4v0h0l.2-.69h0l.12-.3,0-.07,0-.06h0c0-.09.08-.17.13-.26l.12-.18,1.94-2.8c-.38-8.9-6.32-4.26-5.72,1.79,0,.29.08.57.11.86.4,4.2-2.38,9.16-1.21,13.63.15.55.5,1,.63,1.55h0a3.19,3.19,0,0,1,0,1c-.53,6.32.47,12.92.36,19.29h0L415.07,58a3,3,0,0,1,1.28-.55l.1,0c0-.08,0-.17-.05-.25l-.12-.55-.09-.43c-.05-.2-.09-.39-.13-.59-.31-1.52-.58-3-.83-4.57-.06-.35-.11-.7-.16-1-.1-.65-.18-1.3-.27-1.94s-.18-1.56-.26-2.34c0-.17,0-.34,0-.51-.05-.49-.09-1-.13-1.47-.06-.85-.1-1.7-.14-2.55,0-.2,0-.41,0-.62,0-.67,0-1.35,0-2s0-1.37,0-2.05c0-.95.09-1.89.16-2.83,0-.31.05-.62.08-.93v-.13c0-.16,0-.33.05-.49l.09-.87h0c.08-.69.18-1.37.3-2.05v0c0-.13,0-.25.07-.38.11-.64.16-.88.31-1.52,0-.13.07-.27.11-.41s.07-.26.1-.39" fill="none" stroke="#b2b2b2" stroke-linecap="round" stroke-linejoin="round" stroke-width="0.25"/><polygon points="459 72.42 459 72.42 459 72.42 459 72.42" fill="none"/><path d="M470.62,74.37a40.07,40.07,0,0,0-15.71-19.29c-3-1.89-13.38-8.59-17-6.79l-1.25.63h0c-4.46,2-10.53.46-15.26,4.2h0a23.61,23.61,0,0,1-1.95,2l-.85.65v0c-.45.35-.85.75-1.3,1.1a2.66,2.66,0,0,1-.45.29l-.14.07-.27.09.33,1.52v0l0,0c-.51.23-1,.47-1.52.72-1.05.52-1.8.92-2.8,1.52h0C415.78,83.28,435,113,461.7,102.24,472.26,98,474.38,84.4,470.62,74.37Zm-45,7.36h0Zm36.25,4.8h0L461.48,88l-.47.87a9.48,9.48,0,0,1-.7,1.29h0l-.75,1.2-.61.57a9.6,9.6,0,0,1-1.22,1.15h0l-1.1.88h-.18l-.12.09a13.36,13.36,0,0,1-2.16,1,9.61,9.61,0,0,1-1.76.51h0c-.37.08-.73.16-1.11.21s-.6.07-.9.1a17.52,17.52,0,0,1-2.29.06h0a21.67,21.67,0,0,1-2.4-.24c-.72-.11-1.42-.27-2.12-.44h0c-.58-.15-1-.27-1.45-.42h-.2l-.92-.41-1.66-.62-.44-.29h0l-1-.52c-.34-.18-.68-.37-1-.57-.79-.47-1.57-.95-2.31-1.49s-1.32-1-1.95-1.51h0L431,88.26h.09c-.71-.66-1.4-1.34-2.05-2.07h0l-.75-.85a32.69,32.69,0,0,1-2.7-3.59h0l-.53-.81h0l-.54-.82,0,0c-.33-.55-.65-1.12-1-1.69-.22-.41-.44-.82-.65-1.23l-.14-.29-.33-.69q-.41-.84-.78-1.68c-.41-.94-.77-1.89-1.14-2.85-.18-.45-.34-.9-.5-1.36-.35-1-.67-2-1-2.94-.15-.47-.29-.94-.43-1.41s-.36-1.24-.53-1.86c-.08-.27-.15-.55-.22-.83-.17-.61-.33-1.23-.5-1.85s-.29-1.13-.42-1.7l-.18-.78,1-.4h0c.93-.37,1.53-.6,2.48-.92a26.56,26.56,0,0,1,2.91-.78h0l1.28-.26c.4-.08.8-.14,1.21-.2a26.72,26.72,0,0,1,3.35-.29c.76,0,1.52,0,2.28,0a33.61,33.61,0,0,1,10.79,2.27l1.06.43c.4.17.8.34,1.19.53.67.32,1.32.67,2,1h0l1.28.71,1,.64.11.08c.92.6,1.8,1.25,2.66,1.93.6.48,1.18,1,1.75,1.49a28,28,0,0,1,2.7,2.75,19,19,0,0,1,1.44,1.78c.55.76,1.08,1.52,1.56,2.33l.22.38h0l1,1.75h0l0,.09c.28.59.57,1.17.85,1.76l-.75-1.53a22.08,22.08,0,0,1,1.12,2.82l0,.09a16,16,0,0,1,.54,2,14.33,14.33,0,0,1,.36,2.45h0l.12,1.65-.1.69a13.72,13.72,0,0,1-.32,2.29Z" fill="none"/><polygon points="459 72.42 459 72.42 459 72.42 459 72.42" fill="#b2b2b2"/><path d="M470.62,74.37a40.07,40.07,0,0,0-15.71-19.29c-3-1.89-13.38-8.59-17-6.79l-1.25.63h0c-4.46,2-10.53.46-15.26,4.2h0a23.61,23.61,0,0,1-1.95,2l-.85.65v0c-.45.35-.85.75-1.3,1.1a2.66,2.66,0,0,1-.45.29l-.14.07-.27.09.33,1.52v0l0,0c-.51.23-1,.47-1.52.72-1.05.52-1.8.92-2.8,1.52h0C415.78,83.28,435,113,461.7,102.24,472.26,98,474.38,84.4,470.62,74.37Zm-45,7.36h0Zm36.25,4.8h0L461.48,88l-.47.87a9.48,9.48,0,0,1-.7,1.29h0l-.75,1.2-.61.57a9.6,9.6,0,0,1-1.22,1.15h0l-1.1.88h-.18l-.12.09a13.36,13.36,0,0,1-2.16,1,9.61,9.61,0,0,1-1.76.51h0c-.37.08-.73.16-1.11.21s-.6.07-.9.1a17.52,17.52,0,0,1-2.29.06h0a21.67,21.67,0,0,1-2.4-.24c-.72-.11-1.42-.27-2.12-.44h0c-.58-.15-1-.27-1.45-.42h-.2l-.92-.41-1.66-.62-.44-.29h0l-1-.52c-.34-.18-.68-.37-1-.57-.79-.47-1.57-.95-2.31-1.49s-1.32-1-1.95-1.51h0L431,88.26h.09c-.71-.66-1.4-1.34-2.05-2.07h0l-.75-.85a32.69,32.69,0,0,1-2.7-3.59h0l-.53-.81h0l-.54-.82,0,0c-.33-.55-.65-1.12-1-1.69-.22-.41-.44-.82-.65-1.23l-.14-.29-.33-.69q-.41-.84-.78-1.68c-.41-.94-.77-1.89-1.14-2.85-.18-.45-.34-.9-.5-1.36-.35-1-.67-2-1-2.94-.15-.47-.29-.94-.43-1.41s-.36-1.24-.53-1.86c-.08-.27-.15-.55-.22-.83-.17-.61-.33-1.23-.5-1.85s-.29-1.13-.42-1.7l-.18-.78,1-.4h0c.93-.37,1.53-.6,2.48-.92a26.56,26.56,0,0,1,2.91-.78h0l1.28-.26c.4-.08.8-.14,1.21-.2a26.72,26.72,0,0,1,3.35-.29c.76,0,1.52,0,2.28,0a33.61,33.61,0,0,1,10.79,2.27l1.06.43c.4.17.8.34,1.19.53.67.32,1.32.67,2,1h0l1.28.71,1,.64.11.08c.92.6,1.8,1.25,2.66,1.93.6.48,1.18,1,1.75,1.49a28,28,0,0,1,2.7,2.75,19,19,0,0,1,1.44,1.78c.55.76,1.08,1.52,1.56,2.33l.22.38h0l1,1.75h0l0,.09c.28.59.57,1.17.85,1.76l-.75-1.53a22.08,22.08,0,0,1,1.12,2.82l0,.09a16,16,0,0,1,.54,2,14.33,14.33,0,0,1,.36,2.45h0l.12,1.65-.1.69a13.72,13.72,0,0,1-.32,2.29Z" fill="none" stroke="#b2b2b2" stroke-linecap="round" stroke-linejoin="round" stroke-width="0.25"/><polygon points="459 72.42 459 72.42 459 72.42 459 72.42" fill="none" stroke="#b2b2b2" stroke-linecap="round" stroke-linejoin="round" stroke-width="0.25"/><path d="M470.62,74.37a40.07,40.07,0,0,0-15.71-19.29c-3-1.89-13.38-8.59-17-6.79l-1.25.63h0c-4.46,2-10.53.46-15.26,4.2h0a23.61,23.61,0,0,1-1.95,2l-.85.65v0c-.45.35-.85.75-1.3,1.1a2.66,2.66,0,0,1-.45.29l-.14.07-.27.09.33,1.52v0l0,0c-.51.23-1,.47-1.52.72-1.05.52-1.8.92-2.8,1.52h0C415.78,83.28,435,113,461.7,102.24,472.26,98,474.38,84.4,470.62,74.37Zm-45,7.36h0Zm36.25,4.8h0L461.48,88l-.47.87a9.48,9.48,0,0,1-.7,1.29h0l-.75,1.2-.61.57a9.6,9.6,0,0,1-1.22,1.15h0l-1.1.88h-.18l-.12.09a13.36,13.36,0,0,1-2.16,1,9.61,9.61,0,0,1-1.76.51h0c-.37.08-.73.16-1.11.21s-.6.07-.9.1a17.52,17.52,0,0,1-2.29.06h0a21.67,21.67,0,0,1-2.4-.24c-.72-.11-1.42-.27-2.12-.44h0c-.58-.15-1-.27-1.45-.42h-.2l-.92-.41-1.66-.62-.44-.29h0l-1-.52c-.34-.18-.68-.37-1-.57-.79-.47-1.57-.95-2.31-1.49s-1.32-1-1.95-1.51h0L431,88.26h.09c-.71-.66-1.4-1.34-2.05-2.07h0l-.75-.85a32.69,32.69,0,0,1-2.7-3.59h0l-.53-.81h0l-.54-.82,0,0c-.33-.55-.65-1.12-1-1.69-.22-.41-.44-.82-.65-1.23l-.14-.29-.33-.69q-.41-.84-.78-1.68c-.41-.94-.77-1.89-1.14-2.85-.18-.45-.34-.9-.5-1.36-.35-1-.67-2-1-2.94-.15-.47-.29-.94-.43-1.41s-.36-1.24-.53-1.86c-.08-.27-.15-.55-.22-.83-.17-.61-.33-1.23-.5-1.85s-.29-1.13-.42-1.7l-.18-.78,1-.4h0c.93-.37,1.53-.6,2.48-.92a26.56,26.56,0,0,1,2.91-.78h0l1.28-.26c.4-.08.8-.14,1.21-.2a26.72,26.72,0,0,1,3.35-.29c.76,0,1.52,0,2.28,0a33.61,33.61,0,0,1,10.79,2.27l1.06.43c.4.17.8.34,1.19.53.67.32,1.32.67,2,1h0l1.28.71,1,.64.11.08c.92.6,1.8,1.25,2.66,1.93.6.48,1.18,1,1.75,1.49a28,28,0,0,1,2.7,2.75,19,19,0,0,1,1.44,1.78c.55.76,1.08,1.52,1.56,2.33l.22.38h0l1,1.75h0l0,.09c.28.59.57,1.17.85,1.76l-.75-1.53a22.08,22.08,0,0,1,1.12,2.82l0,.09a16,16,0,0,1,.54,2,14.33,14.33,0,0,1,.36,2.45h0l.12,1.65-.1.69a13.72,13.72,0,0,1-.32,2.29Z" fill="none" stroke="#b2b2b2" stroke-linecap="round" stroke-linejoin="round" stroke-width="0.25"/><path d="M412.36,60.12,401.51,68.8l-.25.21,3.13-2.24c.66-.49,1.31-1,2-1.49l.82-.64c.85-.61,1.71-1.22,2.59-1.8l.95-.6.48-.3,1.24-.75h0a7.55,7.55,0,0,1-.07-1.06l-11,8.88-.06,0" fill="none" stroke="#b2b2b2" stroke-linecap="round" stroke-linejoin="round" stroke-width="0.25"/><path d="M378.25,86.8l-1.51,1.09h0c-.94.66-1.88,1.31-2.85,1.94l-.47.29c-.61.4-1.22.79-1.85,1.17l-.56.34c-1,.57-1.6.9-2.59,1.43s-1.5.76-2.42,1.18-1.52.67-2.55,1.06h0c-1.06.41-1.56.59-2.65.92s-1.64.48-2.71.72-1.52.34-2.55.49a32.34,32.34,0,0,1-3.27.34c-.87,0-1.75.07-2.62,0-1.06,0-2.11-.12-3.16-.25a26.68,26.68,0,0,1-2.81-.51,20.33,20.33,0,0,1-2.64-.75,19.79,19.79,0,0,1-2.32-.89,22.89,22.89,0,0,1-3-1.55c-.66-.41-1.31-.84-1.93-1.31a26.43,26.43,0,0,1-2.42-2.07,23,23,0,0,1-1.83-2q-.39-.45-.75-.93c-.39-.51-.56-.79-.91-1.33a18,18,0,0,1-1.22-2.08,23.89,23.89,0,0,1-1.29-2.93,20.94,20.94,0,0,1-.72-2.42,20.44,20.44,0,0,1-.4-2.07c-.05-.37-.1-.75-.14-1.12a19.8,19.8,0,0,1-.13-2.55,20,20,0,0,1,.18-3.28,21.49,21.49,0,0,1,.36-2.25,27.89,27.89,0,0,1,1-3.71l0-.07c.23-.64.49-1.28.76-1.9a19.71,19.71,0,0,1,1.32-2.64l.31-.52c.48-.79.81-1.28,1.35-2a31.45,31.45,0,0,1,2.85-3.45L315.23,68.74c-6.45,6.87,3.87,24.08,8.89,28.86,7.38,7,18.54,10.27,28.72,9.14,10-1.12,19.45-6.15,27-12.88,5.47-4.87,8.85-14.27,14.67-18.3.42-.29.9-.48,1.32-.77,1.44-1,2.42-3.13,3.88-4.24.5-.52,1-1,1.52-1.53L397,72.43l-1.85,1.44-.44.34h0l-2,1.57-.5.39h0l-.26.2h0l-1.52,1.17-.18.14-1.82,1.4-1.86,1.44-2.46,1.88c-.62.48-1.24,1-1.87,1.43l-2.09,1.58-.1.07-1.49,1.1-.34.25" fill="none" stroke="#b2b2b2" stroke-linecap="round" stroke-linejoin="round" stroke-width="0.25"/><polyline points="334.11 51.38 333.82 51.66 333.41 52.01 332.92 52.48 332.14 53.23 331.57 53.84 330.94 54.53 330.2 55.43 329.81 55.9 328.99 57.02 328.76 57.34 328.59 57.59 327.8 58.83 327.06 60.15 326.93 60.39 326.26 61.82 326.19 61.98 326.11 62.17 325.55 63.6 325.15 64.83 325 65.27 324.72 66.37 324.57 66.95 324.44 67.64 324.24 68.66 324.13 69.52 324.02 70.37 323.97 71.1 323.91 72.08 323.91 73.23 323.91 73.8 324 75.09 324.02 75.5 324.07 75.84 324.24 77.18 324.55 78.73 324.57 78.83 324.6 78.92 324.89 80 325.02 80.45 325.04 80.5 325.6 82.03 326.16 83.29 326.28 83.56 326.45 83.88 327.06 85.03 327.64 85.97 327.93 86.45 328.49 87.24 328.89 87.8 329.42 88.44 329.94 89.08 330.63 89.81 331.08 90.29 331.94 91.09 332.29 91.42 332.6 91.67 333.57 92.46 333.78 92.61 334.92 93.42 335.83 93.98 336.35 94.3 337.65 94.97 337.85 95.08 339.04 95.6 339.4 95.76 339.89 95.94 341 96.35 341.72 96.57 342.63 96.84 343.61 97.07 344.29 97.23 345.55 97.45 345.97 97.53 347.52 97.71 347.67 97.73 348.53 97.78 349.41 97.83 350.81 97.83 351.17 97.83 351.72 97.81 352.94 97.74 353.88 97.64 354.69 97.56 356.05 97.35 356.44 97.29 356.7 97.23 357.87 96.98 358.12 96.94 358.17 96.92 359.55 96.57 359.93 96.47 360.6 96.27 361.66 95.94 362.29 95.71 363.36 95.33 364.41 94.9 364.9 94.7 365.05 94.64 365.35 94.51 366.73 93.89 367.41 93.54 368.38 93.06 369.19 92.61 370.01 92.17 370.93 91.64 371.63 91.23 372.89 90.43 373.21 90.23 373.54 90.02 374.81 89.19 375.91 88.42 376.22 88.21 376.39 88.1 377.22 87.51 377.97 86.97 378.18 86.81 378.5 86.57 379.14 86.11 379.57 85.8 380.08 85.41 380.8 84.86 381.16 84.6 382.3 83.73 382.78 83.37 382.92 83.27 383.75 82.63 384.44 82.11 384.63 81.96 384.85 81.78 386.11 80.82 386.79 80.29 387.33 79.88 387.81 79.5 388.22 79.19 388.65 78.86 389.56 78.16 390.46 77.47 391.32 76.8 392.26 76.08 393.12 75.41 394.07 74.68 394.96 73.98 395.42 73.63 395.9 73.26 396.71 72.61 397.75 71.81 398.14 71.5 398.5 71.2 399.67 70.31 400.28 69.81 400.92 69.32 401.65 68.75 401.86 68.58 402.04 68.44 402.8 67.85 403.75 67.13 403.79 67.1 404.73 66.39 405.51 65.79 406 65.46 407.21 64.55 407.71 64.21 408.47 63.69 408.74 63.49 408.92 63.36 409.66 62.87 410.62 62.25 411.27 61.87 411.93 61.44 412.31 61.21 413.04 60.8 414.02 60.25 414.19 60.17 414.56 59.99 415.73 59.38 416.66 58.97 417.46 58.61 418.62 58.17 419.21 57.93 420.33 57.56 420.97 57.35 422.23 57.02 422.76 56.88 423.93 56.64 424.57 56.51 424.81 56.47 426.37 56.24 427.26 56.16 428.2 56.08 428.75 56.06 430.05 56.03 430.27 56.04 431.31 56.07 431.9 56.09 433.32 56.21 433.73 56.25 434.3 56.33 435.56 56.52 436.42 56.69 437.38 56.89 438.69 57.24 439.2 57.37 440.82 57.89 441 57.95 442.02 58.34 442.67 58.59 442.76 58.62 444.17 59.26 444.46 59.39 444.8 59.56 446.12 60.24 447.11 60.81 447.73 61.18 448.53 61.7 449.29 62.19 450.17 62.84 450.78 63.28 451.25 63.66 452.21 64.44 453.32 65.44 453.57 65.66 454.75 66.84 454.85 66.94 454.92 67.02 455.76 67.94 456.04 68.25 457 69.47 457.11 69.61 457.22 69.77 458.08 70.99 458.73 72.05 458.95 72.4 459.18 72.82 459.73 73.83 460.13 74.7 460.4 75.27 460.65 75.93 460.96 76.71 461.2 77.49 461.41 78.15 461.55 78.71 461.76 79.57 461.83 80.03 461.99 80.97 462.09 82.04 462.12 82.34 462.13 83.49 462.14 83.68 462.13 83.84 462.05 84.97 461.9 85.98 461.86 86.22 461.56 87.3 461.54 87.4 461.49 87.51 461.11 88.53 461.02 88.72 460.59 89.59 460.16 90.3 459.98 90.59 459.74 90.9 459.28 91.51 458.83 91.99 458.49 92.36 458.06 92.74 457.63 93.12 457.23 93.41 456.69 93.8 456.34 94.01 455.68 94.4 455.39 94.53 454.61 94.9 453.63 95.27 453.49 95.32 453.36 95.35 452.31 95.64 452.29 95.64 452.05 95.69 451.07 95.86 449.99 95.96 449.78 95.98 448.8 96 448.46 96.01 447.6 95.97 447.12 95.95 446.38 95.86 445.75 95.79 445.16 95.68 444.37 95.54 443.94 95.43 442.99 95.2 442.72 95.11 441.6 94.77 440.88 94.49 440.29 94.27 440.2 94.24 439.08 93.74 438.8 93.61 437.89 93.15 437.42 92.91 436.74 92.51 436.06 92.11 435.61 91.82 434.73 91.24 434.51 91.08 433.53 90.37 433.43 90.29 432.4 89.46 432.14 89.25 431.7 88.86 430.89 88.13 430.04 87.28 429.7 86.95 428.88 86.05 428.55 85.69 427.77 84.77 427.43 84.36 426.73 83.44 426.38 82.97 426.21 82.72 425.79 82.1 425.49 81.67 425.37 81.51 424.8 80.6 424.41 79.99 424.15 79.53 423.6 78.54 423.52 78.42 423.46 78.29 422.66 76.78 421.99 75.31 421.92 75.17 421.88 75.1 421.43 74.06 421.13 73.36 420.98 72.96 420.74 72.32 420.43 71.58 420.14 70.76 419.79 69.77 419.72 69.53 419.39 68.57 419.17 67.92 418.86 66.85 418.59 66.04 418.38 65.29 418.1 64.28 418.08 64.2 418.06 64.14 417.94 63.71 417.55 62.23 417.5 62.02 417.44 61.76 417.22 60.93 417.05 60.3 416.95 59.84 416.83 59.25 416.7 58.73 416.6 58.33 416.27 56.73 416.2 56.46 416.04 55.66 415.81 54.55 415.78 54.39 415.75 54.16 415.58 53.29 415.45 52.66 415.38 52.19 415.27 51.49 415.14 50.8 414.95 49.48 414.88 48.97 414.85 48.69 414.64 47.17 414.5 45.67 414.47 45.41 414.38 44.39 414.32 43.7 414.25 42.4 414.22 42.02 414.21 41.71 414.15 40.41 414.14 39.94 414.13 38.84 414.13 38.83 414.13 38.77 414.13 37.74 414.13 37.35 414.15 36.66 414.18 35.92 414.19 35.6 414.25 34.55 414.25 34.52 414.34 33.27 414.41 32.6 414.46 32.06 414.51 31.67 414.6 30.93 414.72 30.07 414.74 29.91 414.75 29.88 414.87 29.13 414.91 28.93 415.01 28.39 415.07 28.06 415.16 27.65 415.24 27.29 415.3 27.08 415.42 26.61 415.45 26.51 415.59 26.03 415.64 25.87 415.75 25.54 415.88 25.24 415.91 25.16 416.01 24.97 416.06 24.88 416.14 24.77" fill="none" stroke="#1d1d1b" stroke-miterlimit="10"/><g opacity="0.4"><line x1="330.62" y1="89.8" x2="326.14" y2="96.53" fill="none"/><line x1="330.62" y1="89.8" x2="326.44" y2="96.08" fill="none" stroke="#c91517" stroke-linecap="round" stroke-linejoin="round" stroke-width="0.5"/><polygon points="325.65 93.57 326.14 93.49 326.54 95.92 328.94 95.35 329.06 95.84 326.14 96.53 325.65 93.57" fill="#c91517"/></g><g opacity="0.4"><line x1="334.11" y1="51.38" x2="330.78" y2="46.01" fill="none"/><line x1="334.11" y1="51.38" x2="331.06" y2="46.47" fill="none" stroke="#c91517" stroke-linecap="round" stroke-linejoin="round" stroke-width="0.5"/><polygon points="333.67 46.8 333.54 47.28 331.17 46.63 330.69 49.05 330.2 48.96 330.78 46.01 333.67 46.8" fill="#c91517"/></g><g opacity="0.4"><line x1="416.14" y1="24.77" x2="410.16" y2="18.32" fill="none"/><line x1="416.14" y1="24.77" x2="410.53" y2="18.72" fill="none" stroke="#c91517" stroke-linecap="round" stroke-linejoin="round" stroke-width="0.5"/><polygon points="413.15 18.54 413.12 19.04 410.66 18.86 410.65 21.32 410.15 21.32 410.16 18.32 413.15 18.54" fill="#c91517"/></g><g opacity="0.4"><line x1="415.39" y1="52.25" x2="408.61" y2="51.64" fill="none"/><line x1="415.39" y1="52.25" x2="409.15" y2="51.69" fill="none" stroke="#c91517" stroke-linecap="round" stroke-linejoin="round" stroke-width="0.5"/><polygon points="410.99 49.8 411.29 50.2 409.34 51.71 410.99 53.54 410.62 53.88 408.61 51.64 410.99 49.8" fill="#c91517"/></g><line x1="431.2" y1="88.41" x2="425.6" y2="91.24" fill="none"/><line x1="431.2" y1="88.41" x2="426.08" y2="90.99" fill="none" stroke="#c91517" stroke-linecap="round" stroke-linejoin="round" stroke-width="0.5"/><polygon points="426.64 88.42 427.11 88.59 426.25 90.91 428.62 91.59 428.49 92.07 425.6 91.24 426.64 88.42" fill="#c91517"/><g opacity="0.4"><line x1="460.72" y1="89.33" x2="453.04" y2="93.12" fill="none"/><line x1="460.72" y1="89.33" x2="453.53" y2="92.88" fill="none" stroke="#c91517" stroke-linecap="round" stroke-linejoin="round" stroke-width="0.5"/><polygon points="454.11 90.31 454.58 90.49 453.7 92.8 456.06 93.5 455.92 93.98 453.04 93.12 454.11 90.31" fill="#c91517"/></g><g opacity="0.4"><line x1="441.78" y1="58.25" x2="437.77" y2="67.74" fill="none"/><line x1="441.78" y1="58.25" x2="437.98" y2="67.24" fill="none" stroke="#c91517" stroke-linecap="round" stroke-linejoin="round" stroke-width="0.5"/><polygon points="436.74 64.92 437.21 64.74 438.05 67.06 440.3 66.05 440.51 66.51 437.77 67.74 436.74 64.92" fill="#c91517"/></g><g opacity="0.4"><line x1="402.15" y1="68.35" x2="405.65" y2="76.37" fill="none"/><line x1="402.15" y1="68.35" x2="405.43" y2="75.88" fill="none" stroke="#c91517" stroke-linecap="round" stroke-linejoin="round" stroke-width="0.5"/><polygon points="402.9 75.17 403.1 74.72 405.36 75.7 406.17 73.38 406.65 73.54 405.65 76.37 402.9 75.17" fill="#c91517"/></g><g opacity="0.4"><line x1="369.76" y1="92.31" x2="372.66" y2="100.34" fill="none"/><line x1="369.76" y1="92.31" x2="372.47" y2="99.83" fill="none" stroke="#c91517" stroke-linecap="round" stroke-linejoin="round" stroke-width="0.5"/><polygon points="369.99 98.97 370.22 98.52 372.41 99.65 373.38 97.39 373.84 97.58 372.66 100.34 369.99 98.97" fill="#c91517"/></g><g opacity="0.4"><line x1="330.62" y1="89.8" x2="324.34" y2="92.67" fill="none"/><line x1="330.62" y1="89.8" x2="324.83" y2="92.45" fill="none" stroke="#037534" stroke-linecap="round" stroke-linejoin="round" stroke-width="0.5"/><polygon points="325.48 89.9 325.94 90.09 325 92.37 327.34 93.14 327.19 93.62 324.33 92.67 325.48 89.9" fill="#037534"/></g><g opacity="0.4"><line x1="334.11" y1="51.38" x2="327.86" y2="46.01" fill="none"/><line x1="334.11" y1="51.38" x2="328.28" y2="46.36" fill="none" stroke="#037534" stroke-linecap="round" stroke-linejoin="round" stroke-width="0.5"/><polygon points="330.87 45.9 330.88 46.4 328.42 46.49 328.7 48.94 328.2 48.99 327.86 46.01 330.87 45.9" fill="#037534"/></g><g opacity="0.4"><line x1="416.14" y1="24.77" x2="422.6" y2="18.81" fill="none"/><line x1="416.14" y1="24.77" x2="422.2" y2="19.18" fill="none" stroke="#037534" stroke-linecap="round" stroke-linejoin="round" stroke-width="0.5"/><polygon points="422.37 21.8 421.87 21.77 422.06 19.31 419.6 19.3 419.6 18.8 422.6 18.81 422.37 21.8" fill="#037534"/></g><g opacity="0.4"><line x1="415.39" y1="52.25" x2="421.9" y2="49.53" fill="none"/><line x1="415.39" y1="52.25" x2="421.4" y2="49.74" fill="none" stroke="#037534" stroke-linecap="round" stroke-linejoin="round" stroke-width="0.5"/><polygon points="420.66 52.26 420.21 52.06 421.23 49.81 418.91 48.96 419.08 48.49 421.9 49.53 420.66 52.26" fill="#037534"/></g><line x1="431.2" y1="88.41" x2="435.29" y2="81.64" fill="none"/><line x1="431.2" y1="88.41" x2="435.01" y2="82.11" fill="none" stroke="#037534" stroke-linecap="round" stroke-linejoin="round" stroke-width="0.5"/><polygon points="435.9 84.58 435.41 84.69 434.91 82.27 432.54 82.95 432.4 82.47 435.29 81.64 435.9 84.58" fill="#037534"/><g opacity="0.4"><line x1="460.72" y1="89.33" x2="454.19" y2="82.05" fill="none"/><line x1="460.72" y1="89.33" x2="454.55" y2="82.46" fill="none" stroke="#037534" stroke-linecap="round" stroke-linejoin="round" stroke-width="0.5"/><polygon points="457.18 82.33 457.14 82.82 454.68 82.6 454.64 85.07 454.14 85.06 454.19 82.05 457.18 82.33" fill="#037534"/></g><g opacity="0.4"><line x1="441.78" y1="58.25" x2="441.35" y2="61.58" fill="none"/><line x1="441.78" y1="58.25" x2="441.42" y2="61.04" fill="none" stroke="#037534" stroke-linecap="round" stroke-linejoin="round" stroke-width="0.5"/><polygon points="439.6 59.13 440.01 58.84 441.44 60.85 443.34 59.27 443.66 59.66 441.35 61.58 439.6 59.13" fill="#037534"/></g><g opacity="0.4"><line x1="402.15" y1="68.35" x2="407.95" y2="71.23" fill="none"/><line x1="402.15" y1="68.35" x2="407.47" y2="70.99" fill="none" stroke="#037534" stroke-linecap="round" stroke-linejoin="round" stroke-width="0.5"/><polygon points="405.07 72.08 404.93 71.61 407.29 70.91 406.43 68.6 406.89 68.42 407.95 71.23 405.07 72.08" fill="#037534"/></g><g opacity="0.4"><line x1="369.76" y1="92.31" x2="373.85" y2="96.01" fill="none"/><line x1="369.76" y1="92.31" x2="373.44" y2="95.65" fill="none" stroke="#037534" stroke-linecap="round" stroke-linejoin="round" stroke-width="0.5"/><polygon points="370.84 96.05 370.84 95.55 373.3 95.52 373.09 93.06 373.59 93.02 373.85 96.01 370.84 96.05" fill="#037534"/></g><line x1="330.62" y1="89.8" x2="337.17" y2="96.76" fill="none"/><line x1="330.62" y1="89.8" x2="336.8" y2="96.37" fill="none" stroke="#2a4d9c" stroke-linecap="round" stroke-linejoin="round" stroke-width="0.5"/><polygon points="334.18 96.56 334.21 96.06 336.67 96.23 336.66 93.76 337.16 93.76 337.18 96.76 334.18 96.56" fill="#2a4d9c"/><line x1="334.11" y1="51.38" x2="326.61" y2="58.25" fill="none"/><line x1="334.11" y1="51.38" x2="327.01" y2="57.89" fill="none" stroke="#2a4d9c" stroke-linecap="round" stroke-linejoin="round" stroke-width="0.5"/><polygon points="326.85 55.26 327.35 55.3 327.15 57.76 329.61 57.77 329.61 58.27 326.61 58.25 326.85 55.26" fill="#2a4d9c"/><line x1="416.14" y1="24.77" x2="417.26" y2="23.17" fill="none"/><line x1="416.14" y1="24.77" x2="416.95" y2="23.61" fill="none" stroke="#2a4d9c" stroke-linecap="round" stroke-linejoin="round" stroke-width="0.5"/><polygon points="417.68 26.14 417.19 26.21 416.84 23.77 414.43 24.29 414.32 23.8 417.26 23.17 417.68 26.14" fill="#2a4d9c"/><line x1="415.39" y1="52.25" x2="413.95" y2="43.37" fill="none"/><line x1="415.39" y1="52.25" x2="414.04" y2="43.91" fill="none" stroke="#2a4d9c" stroke-linecap="round" stroke-linejoin="round" stroke-width="0.5"/><polygon points="416.32 45.22 416.02 45.61 414.07 44.1 412.7 46.15 412.29 45.87 413.95 43.37 416.32 45.22" fill="#2a4d9c"/><line x1="431.2" y1="88.41" x2="424.49" y2="82.17" fill="none"/><line x1="431.2" y1="88.41" x2="424.89" y2="82.54" fill="none" stroke="#2a4d9c" stroke-linecap="round" stroke-linejoin="round" stroke-width="0.5"/><polygon points="427.49 82.17 427.49 82.67 425.03 82.67 425.21 85.13 424.71 85.16 424.49 82.17 427.49 82.17" fill="#2a4d9c"/><line x1="460.72" y1="89.33" x2="457.73" y2="95.45" fill="none"/><line x1="460.72" y1="89.33" x2="457.97" y2="94.96" fill="none" stroke="#2a4d9c" stroke-linecap="round" stroke-linejoin="round" stroke-width="0.5"/><polygon points="456.86 92.58 457.34 92.43 458.05 94.79 460.35 93.9 460.53 94.37 457.73 95.45 456.86 92.58" fill="#2a4d9c"/><line x1="441.78" y1="58.25" x2="451.9" y2="62.12" fill="none"/><line x1="441.78" y1="58.25" x2="451.4" y2="61.93" fill="none" stroke="#2a4d9c" stroke-linecap="round" stroke-linejoin="round" stroke-width="0.5"/><polygon points="449.12 63.24 448.93 62.78 451.22 61.86 450.13 59.65 450.58 59.42 451.9 62.12 449.12 63.24" fill="#2a4d9c"/><line x1="402.15" y1="68.35" x2="409.87" y2="62.45" fill="none"/><line x1="402.15" y1="68.35" x2="409.44" y2="62.78" fill="none" stroke="#2a4d9c" stroke-linecap="round" stroke-linejoin="round" stroke-width="0.5"/><polygon points="409.36 65.41 408.87 65.33 409.29 62.9 406.83 62.66 406.88 62.16 409.87 62.45 409.36 65.41" fill="#2a4d9c"/><line x1="369.76" y1="92.31" x2="378.29" y2="87.72" fill="none"/><line x1="369.76" y1="92.31" x2="377.81" y2="87.98" fill="none" stroke="#2a4d9c" stroke-linecap="round" stroke-linejoin="round" stroke-width="0.5"/><polygon points="377.32 90.57 376.85 90.4 377.64 88.07 375.26 87.45 375.38 86.96 378.29 87.72 377.32 90.57" fill="#2a4d9c"/></g><g id="Annotations"><text transform="translate(77.86 137.42)" font-size="9" fill="#1d1d1b" font-family="TimesNewRomanPS-ItalicMT, Times New Roman" font-style="italic">(a)</text><text transform="translate(247.52 186.42)" font-size="9" fill="#1d1d1b" font-family="TimesNewRomanPS-ItalicMT, Times New Roman" font-style="italic">(b)</text><text transform="translate(388.03 137.42)" font-size="9" fill="#1d1d1b" font-family="TimesNewRomanPS-ItalicMT, Times New Roman" font-style="italic">(c)</text></g></g></svg>