<svg xmlns="http://www.w3.org/2000/svg" viewBox="0 0 482.087 198.425"><title>DevelopableFromCurve2</title><path d="M141.7,109.568l17.032-7.593a12.8,12.8,0,0,0,2.044-1.129,11.8,11.8,0,0,0,1.771-1.469A12.2,12.2,0,0,0,164,97.59a11.556,11.556,0,0,0,1.094-2.072,12.32,12.32,0,0,0,.943-4.281,20.66,20.66,0,0,0-.046-2.374,18.171,18.171,0,0,0-.4-2.478,20.254,20.254,0,0,0-.579-2.11c-.243-.724-.52-1.432-.828-2.13a27.921,27.921,0,0,0-2.335-4.209,29.85,29.85,0,0,0-2.831-3.569,37.382,37.382,0,0,0-3.46-3.234,36.415,36.415,0,0,0-7.867-4.9,37.206,37.206,0,0,0-4.384-1.641,35.847,35.847,0,0,0-4.5-1.014,31.948,31.948,0,0,0-9.263-.078,37.215,37.215,0,0,0-4.574.988,38.836,38.836,0,0,0-4.324,1.6,41.9,41.9,0,0,0-3.93,2c-.978.563-2.805,1.7-3.74,2.337-1.031.7-2.591,1.818-3.593,2.558-1.183.874-2.348,1.77-3.513,2.667-1.015.783-2.02,1.578-3.025,2.373q-1.641,1.3-3.292,2.582c-1,.781-2.011,1.555-3.015,2.335S94.5,84.512,93.481,85.3q-3.06,2.353-6.121,4.707c-1.869,1.43-4.493,3.407-6.409,4.775-1.254.894-2.129,1.5-3.423,2.335-1.151.743-2.306,1.474-3.5,2.147-.562.317-1.131.621-1.7.921-.519.273-1.04.54-1.569.795q-.915.44-1.848.84c-.532.227-1.071.439-1.61.647-.606.234-1.213.461-1.83.663-.741.244-1.486.467-2.24.667-.583.154-1.171.289-1.759.42-.637.142-1.277.267-1.922.366q-1.043.162-2.092.27c-.573.059-1.147.1-1.722.121a31.782,31.782,0,0,1-3.83-.05,27.5,27.5,0,0,1-4-.582c-.736-.156-1.466-.328-2.185-.553-.436-.136-1.1-.357-1.527-.508-.669-.234-1.318-.511-1.962-.8-.617-.282-1.229-.57-1.823-.9-.483-.267-.95-.558-1.413-.857-.557-.36-1.1-.738-1.625-1.142-.578-.444-1.131-.915-1.67-1.4-.434-.394-.857-.8-1.257-1.228-.245-.264-.483-.534-.719-.8-.284-.328-.564-.658-.836-1-.217-.27-.426-.545-.624-.829-.151-.217-.3-.438-.438-.661-.3-.464-.6-.923-.88-1.4-.367-.64-.775-1.463-1.084-2.133-.244-.531-.465-1.069-.665-1.618s-.386-1.109-.544-1.676a24.6,24.6,0,0,1-.749-3.989q-.1-.838-.122-1.68c-.022-.726-.028-1.711,0-2.437.024-.562.08-1.061.148-1.619.074-.606.151-1.211.26-1.812.134-.739.3-1.469.491-2.2q.231-.879.522-1.74c.193-.573.4-1.137.634-1.7.29-.7.593-1.4.934-2.084.245-.488.517-.958.8-1.425.271-.448.54-.895.832-1.33.459-.683.946-1.343,1.449-1.993q.533-.689,1.119-1.33c.382-.417.767-.831,1.164-1.234.59-.6,1.2-1.167,1.826-1.73L29.327,44.6c-1.336,1.163-2.861,2.644-4.079,3.929a54.7,54.7,0,0,0-3.713,4.332,56.26,56.26,0,0,0-3.253,4.723,48.888,48.888,0,0,0-2.74,5.047,56.643,56.643,0,0,0-2.153,5.354,52.417,52.417,0,0,0-1.546,5.527,48.81,48.81,0,0,0-.9,5.622,44.38,44.38,0,0,0-.252,5.636,47.735,47.735,0,0,0,.452,5.777,43.193,43.193,0,0,0,1.177,5.616,40.249,40.249,0,0,0,1.921,5.346,42.573,42.573,0,0,0,2.582,5,46.377,46.377,0,0,0,3.282,4.7,45.969,45.969,0,0,0,3.881,4.183,41.9,41.9,0,0,0,4.4,3.618,40.156,40.156,0,0,0,4.853,3,43.3,43.3,0,0,0,5.191,2.3,48.008,48.008,0,0,0,5.457,1.637,47.079,47.079,0,0,0,11.384,1.2,51.661,51.661,0,0,0,5.724-.414,49.006,49.006,0,0,0,5.64-1.044,52.5,52.5,0,0,0,5.476-1.624c1.779-.638,3.526-1.341,5.239-2.142,1.662-.778,3.814-1.9,5.4-2.823.861-.5,1.709-1.027,2.555-1.555s1.67-1.062,2.491-1.615c2.756-1.855,6.119-4.3,8.8-6.254q2.31-1.681,4.613-3.373,1.145-.838,2.29-1.678c.806-.594,1.609-1.192,2.415-1.786,1.385-1.019,2.772-2.035,4.146-3.067,1.639-1.231,3.268-2.473,4.916-3.691.317-.234,2.266-1.649,2.587-1.879.636-.457,1.976-1.386,2.628-1.82,1.278-.849,1.4-.9,2.728-1.669.116-.066.231-.132.345-.2.055-.034.108-.069.163-.1.085-.049.172-.091.26-.134.214-.1.429-.205.644-.306q.381-.18.764-.356c.176-.08.351-.162.529-.236.035-.014.07-.029.107-.04.007,0,.024-.012.034-.007s0,.008,0,.011-.01.005-.009.012h0a.133.133,0,0,0,.035-.013l.08-.033c.1-.041.2-.079.3-.116.14-.051.281-.1.423-.142.283-.09.568-.173.855-.252.143-.039.286-.078.431-.112a.819.819,0,0,1,.178-.031.033.033,0,0,1,.026.01s.007,0,.012,0l.036-.008c.06-.016.12-.031.18-.043a8.248,8.248,0,0,1,.882-.126c.215-.023.429-.043.644-.061.121-.01.242-.022.363-.027.058,0,.114.012.171.012.24,0,.48,0,.72.01.345.016.688.046,1.031.085.361.041.717.105,1.071.181.28.06.557.13.833.2.321.084.639.172.953.28.191.066.378.139.564.219.1.043.2.085.308.119a4.519,4.519,0,0,1,.632.271c.391.2.773.411,1.153.626.323.183.64.374.949.578a17.653,17.653,0,0,1,1.468,1.086c.313.255.61.529.919.789a5.973,5.973,0,0,1,.453.433c.255.263.5.532.749.8.14.155.283.307.409.474.093.125.187.25.283.373a13.065,13.065,0,0,1,1.02,1.532c.126.218.247.439.366.662.084.157.169.313.248.472.095.189.177.383.256.579q.192.47.364.947a6.933,6.933,0,0,1,.218.71c.037.152.078.3.122.452a8.636,8.636,0,0,1,.27,1.7,10.328,10.328,0,0,1,.046,1.14,7.468,7.468,0,0,1-.108,1.137,7.893,7.893,0,0,1-.293,1.1c-.046.142-.089.285-.145.424a5.966,5.966,0,0,1-.309.62,6.56,6.56,0,0,1-.61.965,8.739,8.739,0,0,1-.757.853,8.863,8.863,0,0,1-1.858,1.317" style="fill:#3f82c4;opacity:0.5"/><path d="M141.7,109.577l17.032-7.593a12.123,12.123,0,0,1-1.554.576,16.56,16.56,0,0,1-1.613.38,13.6,13.6,0,0,1-1.645.2c-.553.034-1.1.049-1.658.041s-1.1-.044-1.654-.1-1.1-.134-1.641-.233a23.661,23.661,0,0,1-3.21-.827,24.243,24.243,0,0,1-2.532-1c-.827-.379-1.639-.781-2.428-1.237s-1.549-.947-2.3-1.467-1.464-1.075-2.164-1.656a33.332,33.332,0,0,1-3.888-3.812,35.313,35.313,0,0,1-3.279-4.346c-.606-.913-1.023-1.62-1.553-2.579-.54-.978-.9-1.67-1.373-2.681-.428-.908-.845-1.82-1.218-2.754-.192-.479-.376-.96-.563-1.441q-.266-.683-.513-1.372c-.622-1.75-1.316-3.955-1.814-5.744-.269-.967-.526-1.938-.783-2.908-.142-.537-.283-1.074-.415-1.613-.106-.437-.2-.875-.3-1.314-.3-1.411-.625-2.817-.9-4.233q-.234-1.2-.438-2.4c-.106-.622-.212-1.243-.309-1.867-.122-.785-.225-1.573-.329-2.36-.086-.644-.158-1.288-.222-1.934q-.075-.752-.144-1.5c-.027-.29-.053-.579-.074-.87-.045-.647-.079-1.294-.113-1.942-.074-1.443-.095-2.885-.077-4.33s.095-2.885.219-4.326.306-2.865.56-4.286a24.376,24.376,0,0,1,.633-2.733c.052-.174.105-.348.168-.519.038-.1.081-.207.124-.309a2.689,2.689,0,0,1,.3-.568L105.048,15.734a2.476,2.476,0,0,0-.69.756,8.764,8.764,0,0,0-.74,1.426,29.056,29.056,0,0,0-1.471,4.79,63.738,63.738,0,0,0-1.23,7.554c-.278,2.612-.429,5.014-.482,7.639q-.038,1.878-.006,3.755c.022,1.3.072,2.6.143,3.9.142,2.644.353,5,.667,7.627q.226,1.892.519,3.772.3,1.9.631,3.8c.223,1.249.474,2.491.734,3.732.2.982.582,2.792.8,3.77.13.576.272,1.148.418,1.72q.239.933.478,1.865c.33,1.279.67,2.555,1.04,3.823.46,1.578,1.15,3.8,1.7,5.354.312.883.645,1.759.978,2.634s.68,1.744,1.055,2.6.763,1.71,1.167,2.555.832,1.677,1.276,2.5.9,1.641,1.393,2.439,1.009,1.577,1.535,2.352c.745,1.1,1.535,2.156,2.385,3.175.8.957,1.784,2.062,2.665,2.944a36.591,36.591,0,0,0,2.957,2.652,33.291,33.291,0,0,0,3.236,2.3c.587.367,1.19.7,1.805,1.016.564.289,1.13.571,1.714.818a21.459,21.459,0,0,0,3.775,1.222,16.855,16.855,0,0,0,2.131.331,13.022,13.022,0,0,0,1.81.048c.4-.013.794-.031,1.189-.083.276-.036.546-.1.817-.156a8.313,8.313,0,0,0,.823-.2,10.146,10.146,0,0,0,1.026-.4" style="fill:#e66526;opacity:0.15"/><path d="M105.863,75.651c.46,1.578,1.15,3.8,1.7,5.354.312.883.645,1.758.978,2.633s.68,1.745,1.055,2.6.763,1.711,1.167,2.556.832,1.677,1.276,2.5.9,1.641,1.393,2.439,1.009,1.577,1.535,2.352" style="fill:none;stroke:#b2b2b2;stroke-linecap:round;stroke-linejoin:round;stroke-width:0.25px;stroke-dasharray:3,3"/><path d="M129.172,88.492c-.606-.913-1.023-1.62-1.553-2.58-.54-.977-.9-1.669-1.373-2.68-.428-.908-.845-1.821-1.218-2.754-.192-.479-.376-.961-.563-1.441-.177-.456-.349-.912-.513-1.372-.622-1.75-1.316-3.955-1.814-5.744-.269-.967-.526-1.938-.783-2.908-.142-.537-.283-1.074-.415-1.613-.106-.437-.2-.875-.3-1.314" style="fill:none;stroke:#b2b2b2;stroke-linecap:round;stroke-linejoin:round;stroke-width:0.25px;stroke-dasharray:3,3"/><path d="M158.733,101.975a12.123,12.123,0,0,1-1.554.576,16.269,16.269,0,0,1-1.613.379,13.8,13.8,0,0,1-1.645.2c-.553.034-1.1.049-1.658.041s-1.1-.044-1.654-.1-1.1-.134-1.641-.233a23.661,23.661,0,0,1-3.21-.827" style="fill:none;stroke:#b2b2b2;stroke-linecap:round;stroke-linejoin:round;stroke-width:0.25px;stroke-dasharray:3,3"/><path d="M37.964,58.529c-.622.563-1.236,1.133-1.826,1.73-.4.4-.782.817-1.164,1.234s-.764.871-1.119,1.33c-.5.65-.99,1.31-1.449,1.993-.292.435-.561.882-.832,1.33-.282.467-.554.937-.8,1.425-.341.682-.644,1.379-.934,2.084-.229.559-.441,1.123-.634,1.7s-.368,1.154-.522,1.74c-.191.726-.357,1.456-.491,2.2-.109.6-.186,1.206-.26,1.812-.068.558-.124,1.057-.148,1.619-.031.726-.025,1.711,0,2.437q.026.843.122,1.68a24.6,24.6,0,0,0,.749,3.989c.158.567.343,1.123.544,1.676s.421,1.087.665,1.618c.309.67.717,1.493,1.084,2.133.276.48.581.939.88,1.4.143.223.287.444.438.661.2.284.407.559.624.829.272.337.552.667.836,1,.236.271.474.541.719.8.4.43.823.834,1.257,1.228.539.49,1.092.961,1.67,1.4.526.4,1.068.782,1.625,1.142.463.3.93.59,1.413.857.594.329,1.206.617,1.823.9.644.294,1.293.571,1.962.8.431.151,1.091.372,1.527.508.719.225,1.449.4,2.185.553a27.5,27.5,0,0,0,4,.582,31.782,31.782,0,0,0,3.83.05c.575-.024,1.149-.062,1.722-.121q1.05-.108,2.092-.27c.645-.1,1.285-.224,1.922-.366.588-.131,1.176-.266,1.759-.42.754-.2,1.5-.423,2.24-.667.617-.2,1.224-.429,1.83-.663.539-.208,1.078-.42,1.61-.647q.934-.4,1.848-.84c.529-.255,1.05-.522,1.569-.795.571-.3,1.14-.6,1.7-.921,1.194-.673,2.349-1.4,3.5-2.147,1.294-.835,2.169-1.441,3.423-2.335,1.916-1.368,4.54-3.345,6.409-4.775q3.068-2.345,6.121-4.707,1.533-1.179,3.059-2.365c1-.78,2.012-1.554,3.015-2.335q1.651-1.284,3.292-2.582c1.005-.8,2.01-1.59,3.025-2.373" style="fill:none;stroke:#b2b2b2;stroke-linecap:round;stroke-linejoin:round;stroke-width:0.25px"/><line x1="120.041" y1="31.909" x2="105.048" y2="15.725" style="fill:none;stroke:#b2b2b2;stroke-linecap:round;stroke-linejoin:round;stroke-width:0.25px"/><path d="M105.048,15.725a2.484,2.484,0,0,0-.69.755,8.815,8.815,0,0,0-.74,1.427,29.056,29.056,0,0,0-1.471,4.79,63.738,63.738,0,0,0-1.23,7.554c-.278,2.611-.429,5.014-.482,7.639q-.038,1.878-.006,3.755c.022,1.3.072,2.6.143,3.9.142,2.644.353,5,.667,7.627q.226,1.892.519,3.772.3,1.9.631,3.8c.223,1.249.474,2.491.734,3.732.2.982.582,2.792.8,3.77.13.576.272,1.148.418,1.72q.239.933.478,1.865c.33,1.279.67,2.555,1.04,3.823" style="fill:none;stroke:#b2b2b2;stroke-linecap:round;stroke-linejoin:round;stroke-width:0.25px"/><line x1="29.327" y1="44.602" x2="37.964" y2="58.529" style="fill:none;stroke:#b2b2b2;stroke-linecap:round;stroke-linejoin:round;stroke-width:0.25px"/><line x1="158.733" y1="101.975" x2="141.701" y2="109.568" style="fill:none;stroke:#b2b2b2;stroke-linecap:round;stroke-linejoin:round;stroke-width:0.25px"/><path d="M141.3,109.748c.135-.06.268-.122.4-.189" style="fill:none;stroke:#b2b2b2;stroke-linecap:round;stroke-linejoin:round;stroke-width:0.25px"/><path d="M120.648,66.083a38.836,38.836,0,0,1,4.324-1.6,37.215,37.215,0,0,1,4.574-.988,31.948,31.948,0,0,1,9.263.078,35.847,35.847,0,0,1,4.5,1.014,37.206,37.206,0,0,1,4.384,1.641,36.415,36.415,0,0,1,7.867,4.9,37.382,37.382,0,0,1,3.46,3.234,29.85,29.85,0,0,1,2.831,3.569,27.921,27.921,0,0,1,2.335,4.209c.308.7.585,1.406.828,2.13a20.254,20.254,0,0,1,.579,2.11,18.171,18.171,0,0,1,.4,2.478,20.66,20.66,0,0,1,.046,2.374,12.32,12.32,0,0,1-.943,4.281A11.556,11.556,0,0,1,164,97.59a12.2,12.2,0,0,1-1.451,1.787,11.8,11.8,0,0,1-1.771,1.469,12.8,12.8,0,0,1-2.044,1.129" style="fill:none;stroke:#b2b2b2;stroke-linecap:round;stroke-linejoin:round;stroke-width:0.25px"/><path d="M105.872,75.643c1.165-.9,2.33-1.793,3.513-2.667,1-.74,2.562-1.859,3.593-2.558.935-.633,2.762-1.774,3.74-2.337a41.9,41.9,0,0,1,3.93-2" style="fill:none;stroke:#b2b2b2;stroke-linecap:round;stroke-linejoin:round;stroke-width:0.25px"/><path d="M114.965,96.09c.745,1.1,1.535,2.156,2.385,3.175.8.957,1.784,2.062,2.665,2.944a36.591,36.591,0,0,0,2.957,2.652,33.291,33.291,0,0,0,3.236,2.3c.587.366,1.19.7,1.805,1.016.564.289,1.13.571,1.714.818a21.459,21.459,0,0,0,3.775,1.222,16.855,16.855,0,0,0,2.131.331,13.022,13.022,0,0,0,1.81.048c.4-.014.794-.031,1.189-.083.276-.037.546-.1.817-.156a8.313,8.313,0,0,0,.823-.2,10.146,10.146,0,0,0,1.026-.4" style="fill:none;stroke:#b2b2b2;stroke-linecap:round;stroke-linejoin:round;stroke-width:0.25px"/><path d="M125.734,89.177l.033.155" style="fill:none;stroke:#b2b2b2;stroke-linecap:round;stroke-linejoin:round;stroke-width:0.25px"/><path d="M120.643,66.086c-.3-1.411-.625-2.817-.9-4.233q-.234-1.2-.438-2.4c-.106-.622-.212-1.244-.309-1.867-.122-.785-.225-1.573-.329-2.36-.086-.644-.158-1.289-.222-1.934q-.075-.752-.144-1.5c-.027-.29-.053-.579-.074-.87-.045-.647-.079-1.294-.113-1.942-.074-1.443-.095-2.885-.077-4.33s.095-2.886.219-4.326.306-2.865.56-4.286a24.444,24.444,0,0,1,.633-2.734c.052-.173.105-.347.168-.518.038-.1.081-.207.124-.309a2.721,2.721,0,0,1,.3-.569" style="fill:none;stroke:#b2b2b2;stroke-linecap:round;stroke-linejoin:round;stroke-width:0.25px"/><path d="M145.758,102.009a24.466,24.466,0,0,1-2.532-1c-.827-.379-1.639-.781-2.428-1.237s-1.549-.947-2.3-1.467-1.464-1.075-2.164-1.657a33.244,33.244,0,0,1-3.888-3.811,35.313,35.313,0,0,1-3.279-4.346" style="fill:none;stroke:#b2b2b2;stroke-linecap:round;stroke-linejoin:round;stroke-width:0.25px"/><path d="M129.194,88.49a8.248,8.248,0,0,0-.882.126c-.06.012-.12.027-.18.043l-.036.008s-.008,0-.012,0a.033.033,0,0,0-.026-.01.819.819,0,0,0-.178.031c-.145.034-.288.073-.431.112-.287.079-.572.162-.855.252-.142.044-.283.091-.423.142-.1.037-.2.075-.3.116l-.08.033a.133.133,0,0,1-.035.013" style="fill:none;stroke:#b2b2b2;stroke-linecap:round;stroke-linejoin:round;stroke-width:0.25px"/><path d="M145.731,102a8.636,8.636,0,0,0-.27-1.7c-.044-.15-.085-.3-.122-.452a6.933,6.933,0,0,0-.218-.71q-.171-.478-.364-.947c-.079-.2-.161-.39-.256-.579-.079-.159-.164-.315-.248-.472-.119-.223-.24-.444-.366-.662a13.065,13.065,0,0,0-1.02-1.532c-.1-.123-.19-.248-.283-.373-.126-.167-.269-.319-.409-.474-.246-.272-.494-.541-.749-.8a5.973,5.973,0,0,0-.453-.433c-.309-.26-.606-.534-.919-.789a17.653,17.653,0,0,0-1.468-1.086c-.309-.2-.626-.4-.949-.578-.38-.215-.762-.428-1.153-.626a4.519,4.519,0,0,0-.632-.271c-.1-.034-.207-.076-.308-.119-.186-.08-.373-.153-.564-.219-.314-.108-.632-.2-.953-.28-.276-.073-.553-.143-.833-.2-.354-.076-.71-.14-1.071-.181-.343-.039-.686-.069-1.031-.085-.24-.011-.48-.007-.72-.01-.057,0-.113-.014-.171-.012-.121,0-.242.017-.363.027-.215.018-.429.038-.644.061" style="fill:none;stroke:#b2b2b2;stroke-linecap:round;stroke-linejoin:round;stroke-width:0.25px"/><path d="M141.7,109.559a8.863,8.863,0,0,0,1.858-1.317,8.739,8.739,0,0,0,.757-.853,6.56,6.56,0,0,0,.61-.965,5.966,5.966,0,0,0,.309-.62c.056-.139.1-.282.145-.424a7.893,7.893,0,0,0,.293-1.1,7.468,7.468,0,0,0,.108-1.137,10.328,10.328,0,0,0-.046-1.14" style="fill:none;stroke:#b2b2b2;stroke-linecap:round;stroke-linejoin:round;stroke-width:0.25px"/><path d="M114.977,96.081c-1.648,1.218-3.277,2.46-4.916,3.691-1.374,1.032-2.761,2.048-4.146,3.067-.806.594-1.609,1.192-2.415,1.786q-1.143.842-2.29,1.678-2.305,1.688-4.613,3.373c-2.684,1.954-6.047,4.4-8.8,6.254q-1.231.829-2.491,1.615c-.846.528-1.694,1.052-2.555,1.555-1.585.925-3.737,2.045-5.4,2.823-1.713.8-3.46,1.5-5.239,2.142a52.5,52.5,0,0,1-5.476,1.624,49.006,49.006,0,0,1-5.64,1.044,51.661,51.661,0,0,1-5.724.414,47.079,47.079,0,0,1-11.384-1.2,48.008,48.008,0,0,1-5.457-1.637,43.3,43.3,0,0,1-5.191-2.3,40.156,40.156,0,0,1-4.853-3,41.9,41.9,0,0,1-4.4-3.618A45.969,45.969,0,0,1,20.1,111.21a46.377,46.377,0,0,1-3.282-4.7,42.573,42.573,0,0,1-2.582-5,40.249,40.249,0,0,1-1.921-5.346,43.193,43.193,0,0,1-1.177-5.616,47.735,47.735,0,0,1-.452-5.777,44.38,44.38,0,0,1,.252-5.636,48.81,48.81,0,0,1,.9-5.622,52.417,52.417,0,0,1,1.546-5.527,56.643,56.643,0,0,1,2.153-5.354,48.888,48.888,0,0,1,2.74-5.047,56.26,56.26,0,0,1,3.253-4.723,54.7,54.7,0,0,1,3.713-4.332c1.218-1.285,2.743-2.766,4.079-3.929" style="fill:none;stroke:#b2b2b2;stroke-linecap:round;stroke-linejoin:round;stroke-width:0.25px"/><path d="M125.753,89.353c0-.007.006-.008.009-.012s.011-.007,0-.011-.027,0-.034.007c-.037.011-.072.026-.107.04-.178.074-.353.156-.529.236q-.383.175-.764.356c-.215.1-.43.2-.644.306-.088.043-.175.085-.26.134-.055.033-.108.068-.163.1-.114.07-.229.136-.345.2-1.329.765-1.45.82-2.728,1.669-.652.434-1.992,1.363-2.628,1.82-.321.23-2.27,1.645-2.587,1.879" style="fill:none;stroke:#b2b2b2;stroke-linecap:round;stroke-linejoin:round;stroke-width:0.25px"/><polyline points="37.964 58.529 37.682 58.806 37.269 59.159 36.778 59.631 35.997 60.381 35.429 60.994 34.793 61.68 34.054 62.578 33.664 63.052 32.845 64.174 32.615 64.489 32.449 64.747 31.651 65.988 30.913 67.303 30.784 67.541 30.116 68.974 30.042 69.132 29.967 69.323 29.399 70.762 29 71.985 28.857 72.424 28.571 73.531 28.421 74.11 28.288 74.797 28.091 75.814 27.98 76.676 27.871 77.528 27.824 78.262 27.761 79.244 27.761 80.395 27.762 80.957 27.846 82.249 27.873 82.658 27.919 83.001 28.096 84.34 28.406 85.891 28.427 85.997 28.451 86.086 28.743 87.165 28.877 87.621 28.892 87.663 29.455 89.198 30.012 90.454 30.134 90.728 30.301 91.046 30.912 92.204 31.49 93.142 31.785 93.619 32.346 94.407 32.749 94.97 33.276 95.613 33.8 96.252 34.487 96.984 34.934 97.459 35.793 98.26 36.145 98.588 36.46 98.845 37.429 99.635 37.639 99.785 38.78 100.598 39.685 101.158 40.207 101.471 41.512 102.146 41.711 102.249 42.901 102.774 43.263 102.933 43.75 103.113 44.857 103.521 45.583 103.74 46.488 104.013 47.472 104.246 48.149 104.407 49.409 104.63 49.834 104.704 51.389 104.887 51.537 104.905 52.392 104.956 53.274 105.006 54.673 105.009 55.039 105.01 55.585 104.981 56.803 104.919 57.745 104.82 58.561 104.735 59.922 104.521 60.305 104.461 60.568 104.406 61.744 104.16 61.988 104.11 62.042 104.098 63.417 103.746 63.802 103.647 64.468 103.442 65.534 103.114 66.165 102.888 67.234 102.504 68.283 102.072 68.771 101.877 68.92 101.818 69.223 101.681 70.608 101.058 71.289 100.717 72.251 100.235 73.062 99.786 73.884 99.347 74.805 98.81 75.506 98.401 76.767 97.602 77.091 97.405 77.421 97.19 78.694 96.356 79.791 95.588 80.095 95.383 80.268 95.267 81.097 94.676 81.854 94.136 82.062 93.98 82.379 93.741 83.023 93.274 83.447 92.967 83.967 92.573 84.685 92.03 85.041 91.769 86.184 90.903 86.663 90.539 86.799 90.433 87.629 89.801 88.321 89.274 88.516 89.122 88.738 88.95 89.992 87.987 90.677 87.457 91.211 87.045 91.701 86.668 92.108 86.355 92.537 86.025 93.445 85.323 94.346 84.635 95.204 83.967 96.152 83.24 97.003 82.568 97.959 81.844 98.848 81.142 99.305 80.792 99.786 80.425 100.601 79.768 101.646 78.969 102.028 78.658 102.393 78.362 103.558 77.469 104.171 76.967 104.809 76.478 105.545 75.914 105.753 75.743 105.933 75.595 106.697 75.012 107.639 74.292 107.683 74.256 108.623 73.544 109.406 72.951 109.892 72.615 111.111 71.702 111.606 71.366 112.365 70.851 112.638 70.65 112.818 70.519 113.561 70.03 114.515 69.402 115.164 69.021 115.832 68.599 116.208 68.362 116.94 67.955 117.922 67.408 118.092 67.325 118.456 67.149 119.629 66.538 120.563 66.121 121.362 65.763 122.522 65.326 123.116 65.087 124.23 64.717 124.869 64.505 126.132 64.171 126.664 64.03 127.833 63.797 128.473 63.66 128.718 63.623 130.275 63.391 131.165 63.313 132.106 63.231 132.66 63.217 133.96 63.182 134.179 63.19 135.224 63.224 135.813 63.241 137.23 63.366 137.639 63.402 138.207 63.485 139.47 63.67 140.327 63.846 141.297 64.045 142.605 64.389 143.115 64.524 144.738 65.046 144.916 65.103 145.936 65.492 146.583 65.742 146.673 65.777 148.086 66.411 148.373 66.541 148.719 66.718 150.033 67.394 151.023 67.97 151.646 68.333 152.445 68.854 153.205 69.35 154.092 69.997 154.702 70.442 155.164 70.816 156.133 71.601 157.242 72.597 157.491 72.82 158.67 73.994 158.77 74.093 158.845 74.176 159.679 75.098 159.957 75.411 160.92 76.629 161.028 76.764 161.141 76.925 162.003 78.151 162.657 79.206 162.879 79.564 163.106 79.982 163.653 80.994 164.055 81.861 164.321 82.434 164.58 83.097 164.883 83.876 165.128 84.653 165.337 85.312 165.473 85.874 165.681 86.735 165.759 87.193 165.917 88.136 166.016 89.205 166.044 89.509 166.061 90.655 166.063 90.846 166.053 91.007 165.977 92.14 165.823 93.149 165.781 93.384 165.486 94.472 165.459 94.569 165.419 94.677 165.037 95.696 164.945 95.885 164.517 96.761 164.08 97.47 163.904 97.757 163.665 98.071 163.202 98.68 162.752 99.165 162.416 99.527 161.983 99.91 161.55 100.293 161.15 100.583 160.611 100.975 160.259 101.183 159.604 101.57 159.313 101.707 158.534 102.076 157.547 102.439 157.408 102.49 157.283 102.524 156.232 102.812 156.208 102.816 155.97 102.86 154.989 103.03 153.91 103.133 153.702 103.153 152.721 103.176 152.382 103.183 151.515 103.142 151.035 103.12 150.297 103.035 149.669 102.963 149.074 102.855 148.29 102.713 147.85 102.605 146.903 102.371 146.631 102.286 145.516 101.939 144.798 101.667 144.208 101.444 144.119 101.41 142.996 100.911 142.716 100.786 141.807 100.322 141.331 100.078 140.647 99.68 139.97 99.286 139.517 98.989 138.64 98.414 138.422 98.254 137.444 97.537 137.341 97.462 136.306 96.628 136.047 96.419 135.607 96.025 134.801 95.304 133.945 94.454 133.607 94.118 132.791 93.22 132.457 92.862 131.679 91.937 131.335 91.528 130.64 90.609 130.281 90.134 130.117 89.891 129.695 89.267 129.394 88.842 129.277 88.677 128.702 87.766 128.315 87.154 128.058 86.693 127.506 85.708 127.43 85.58 127.362 85.451 126.568 83.942 125.892 82.47 125.824 82.334 125.787 82.26 125.336 81.223 125.031 80.523 124.883 80.126 124.644 79.483 124.336 78.745 124.043 77.922 123.69 76.927 123.619 76.686 123.29 75.726 123.067 75.076 122.764 74.012 122.493 73.199 122.285 72.444 122.006 71.434 121.981 71.356 121.962 71.298 121.847 70.868 121.45 69.386 121.404 69.18 121.343 68.911 121.119 68.09 120.946 67.457 120.852 66.995 120.732 66.407 120.603 65.888 120.502 65.48 120.167 63.882 120.098 63.609 119.935 62.813 119.708 61.701 119.683 61.538 119.647 61.312 119.476 60.442 119.354 59.815 119.281 59.34 119.174 58.642 119.045 57.95 118.853 56.632 118.777 56.114 118.748 55.835 118.545 54.319 118.398 52.821 118.366 52.555 118.278 51.541 118.217 50.841 118.146 49.545 118.119 49.168 118.106 48.859 118.05 47.555 118.043 47.082 118.028 45.988 118.029 45.968 118.029 45.919 118.033 44.884 118.034 44.496 118.054 43.806 118.075 43.062 118.093 42.738 118.15 41.691 118.152 41.657 118.244 40.409 118.308 39.74 118.36 39.199 118.407 38.808 118.497 38.066 118.622 37.209 118.644 37.053 118.649 37.017 118.773 36.268 118.807 36.066 118.909 35.531 118.972 35.202 119.064 34.787 119.143 34.429 119.197 34.216 119.316 33.748 119.346 33.647 119.488 33.162 119.541 33.008 119.654 32.681 119.779 32.379 119.812 32.3 119.914 32.108 119.962 32.016 120.041 31.909" style="fill:none;stroke:#3f82c4;stroke-miterlimit:10"/><line x1="73.641" y1="99.478" x2="76.535" y2="107.521" style="fill:none;stroke:#c91517;stroke-linecap:round;stroke-linejoin:round;stroke-width:0.5px"/><line x1="106.047" y1="75.508" x2="109.545" y2="83.537" style="fill:none;stroke:#c91517;stroke-linecap:round;stroke-linejoin:round;stroke-width:0.5px"/><line x1="145.691" y1="65.399" x2="141.68" y2="74.895" style="fill:none;stroke:#c91517;stroke-linecap:round;stroke-linejoin:round;stroke-width:0.5px"/><line x1="164.645" y1="96.499" x2="156.964" y2="100.294" style="fill:none;stroke:#c91517;stroke-linecap:round;stroke-linejoin:round;stroke-width:0.5px"/><line x1="135.114" y1="95.577" x2="129.506" y2="98.409" style="fill:none;stroke:#c91517;stroke-linecap:round;stroke-linejoin:round;stroke-width:0.5px"/><line x1="119.294" y1="59.399" x2="112.509" y2="58.795" style="fill:none;stroke:#c91517;stroke-linecap:round;stroke-linejoin:round;stroke-width:0.5px"/><line x1="120.041" y1="31.909" x2="114.058" y2="25.451" style="fill:none;stroke:#c91517;stroke-linecap:round;stroke-linejoin:round;stroke-width:0.5px"/><line x1="37.964" y1="58.529" x2="34.633" y2="53.158" style="fill:none;stroke:#c91517;stroke-linecap:round;stroke-linejoin:round;stroke-width:0.5px"/><line x1="34.472" y1="96.967" x2="29.989" y2="103.709" style="fill:none;stroke:#c91517;stroke-linecap:round;stroke-linejoin:round;stroke-width:0.5px"/><line x1="34.472" y1="96.967" x2="28.188" y2="99.847" style="fill:none;stroke:#037534;stroke-linecap:round;stroke-linejoin:round;stroke-width:0.5px;opacity:0.4"/><line x1="37.964" y1="58.529" x2="31.718" y2="53.159" style="fill:none;stroke:#037534;stroke-linecap:round;stroke-linejoin:round;stroke-width:0.5px;opacity:0.4"/><line x1="120.041" y1="31.909" x2="126.506" y2="25.942" style="fill:none;stroke:#037534;stroke-linecap:round;stroke-linejoin:round;stroke-width:0.5px;opacity:0.4"/><line x1="119.294" y1="59.399" x2="125.805" y2="56.676" style="fill:none;stroke:#037534;stroke-linecap:round;stroke-linejoin:round;stroke-width:0.5px;opacity:0.4"/><line x1="135.114" y1="95.577" x2="139.2" y2="88.81" style="fill:none;stroke:#037534;stroke-linecap:round;stroke-linejoin:round;stroke-width:0.5px;opacity:0.4"/><line x1="164.645" y1="96.499" x2="158.111" y2="89.221" style="fill:none;stroke:#037534;stroke-linecap:round;stroke-linejoin:round;stroke-width:0.5px;opacity:0.4"/><line x1="145.691" y1="65.399" x2="145.263" y2="68.731" style="fill:none;stroke:#037534;stroke-linecap:round;stroke-linejoin:round;stroke-width:0.5px;opacity:0.4"/><line x1="106.047" y1="75.508" x2="111.848" y2="78.394" style="fill:none;stroke:#037534;stroke-linecap:round;stroke-linejoin:round;stroke-width:0.5px;opacity:0.4"/><line x1="73.641" y1="99.478" x2="77.723" y2="103.184" style="fill:none;stroke:#037534;stroke-linecap:round;stroke-linejoin:round;stroke-width:0.5px;opacity:0.4"/><line x1="34.472" y1="96.967" x2="41.034" y2="103.936" style="fill:none;stroke:#2a4d9c;stroke-linecap:round;stroke-linejoin:round;stroke-width:0.5px;opacity:0.4"/><line x1="37.964" y1="58.529" x2="30.46" y2="65.407" style="fill:none;stroke:#2a4d9c;stroke-linecap:round;stroke-linejoin:round;stroke-width:0.5px;opacity:0.4"/><line x1="120.041" y1="31.909" x2="120.843" y2="30.755" style="fill:none;stroke:#2a4d9c;stroke-linecap:round;stroke-linejoin:round;stroke-width:0.5px;opacity:0.4"/><line x1="119.294" y1="59.399" x2="117.851" y2="50.52" style="fill:none;stroke:#2a4d9c;stroke-linecap:round;stroke-linejoin:round;stroke-width:0.5px;opacity:0.4"/><line x1="135.114" y1="95.577" x2="128.395" y2="89.334" style="fill:none;stroke:#2a4d9c;stroke-linecap:round;stroke-linejoin:round;stroke-width:0.5px;opacity:0.4"/><line x1="164.645" y1="96.499" x2="161.654" y2="102.622" style="fill:none;stroke:#2a4d9c;stroke-linecap:round;stroke-linejoin:round;stroke-width:0.5px;opacity:0.4"/><line x1="145.691" y1="65.399" x2="155.822" y2="69.276" style="fill:none;stroke:#2a4d9c;stroke-linecap:round;stroke-linejoin:round;stroke-width:0.5px;opacity:0.4"/><line x1="106.047" y1="75.508" x2="113.768" y2="69.611" style="fill:none;stroke:#2a4d9c;stroke-linecap:round;stroke-linejoin:round;stroke-width:0.5px;opacity:0.4"/><line x1="73.641" y1="99.478" x2="82.17" y2="94.893" style="fill:none;stroke:#2a4d9c;stroke-linecap:round;stroke-linejoin:round;stroke-width:0.5px;opacity:0.4"/><path d="M301.858,133.811c-.475-1.008-.543-1.208-.948-2.245s-.482-1.236-.841-2.288c-.263-.769-.508-1.543-.749-2.319s-.465-1.557-.682-2.34a31.9,31.9,0,0,0-9.168-.036,37.3,37.3,0,0,0-4.492.978,38.807,38.807,0,0,0-4.311,1.595,41.965,41.965,0,0,0-4.015,2.047c-.65.376-1.287.771-1.924,1.169s-1.266.8-1.886,1.224c-1.084.74-2.582,1.816-3.636,2.6-1.01.75-2.536,1.916-3.53,2.687-1.249.968-2.486,1.952-3.727,2.931q-1.646,1.3-3.305,2.579c-.605.469-1.212.935-1.816,1.4s-1.216.945-1.825,1.416q-1.732,1.338-3.47,2.672c-2.97,2.29-4.874,3.761-7.879,6.007-.59.441-1.186.876-1.782,1.31-.465.34-.931.678-1.4,1.009-.725.507-1.452,1.013-2.189,1.5-.391.262-.789.511-1.186.764-1.57,1-2.738,1.718-4.388,2.587-.522.275-1.042.554-1.572.813-.745.364-1.794.844-2.559,1.163-.558.233-1.123.446-1.686.664-.694.268-1.4.5-2.109.719-.777.239-1.555.465-2.347.65-.267.063-.534.122-.8.182-.3.069-.607.137-.913.2-.869.173-1.743.294-2.622.4-.686.084-1.292.139-1.982.173a30.691,30.691,0,0,1-4.687-.076c-.658-.061-1.313-.133-1.965-.241-.366-.06-.729-.131-1.092-.205-.471-.1-.941-.2-1.408-.309-.387-.093-.771-.195-1.151-.312-.285-.088-.567-.184-.85-.279-.268-.09-.536-.176-.8-.27q-.525-.185-1.036-.4c-.448-.19-.891-.391-1.331-.6-.358-.168-.715-.339-1.065-.523-.537-.281-1.051-.6-1.561-.923a24.271,24.271,0,0,1-3.629-2.811,17.832,17.832,0,0,1-1.348-1.36c-.54-.6-1.247-1.423-1.726-2.078-.187-.255-.363-.517-.534-.782l-.469-.723c-.188-.293-.37-.589-.542-.892-.229-.406-.442-.82-.648-1.238-.331-.669-.642-1.344-.909-2.042-.229-.6-.437-1.2-.617-1.815a24.393,24.393,0,0,1-.84-4.405c-.077-.706-.107-1.413-.117-2.122a24.464,24.464,0,0,1,.065-2.554c.028-.309.066-.617.1-.925.041-.348.084-.695.135-1.041.127-.865.306-1.715.517-2.563a27.817,27.817,0,0,1,1.317-3.967c.314-.76.644-1.509,1.029-2.236.287-.541.6-1.063.923-1.585.389-.636.806-1.251,1.245-1.853.481-.661.974-1.311,1.512-1.928.442-.507.9-1,1.369-1.479.636-.654,1.3-1.277,1.979-1.887l-15.326-13.178a47.225,47.225,0,0,0-4.115,4.037,41.575,41.575,0,0,0-3.566,4.585,40.571,40.571,0,0,0-2.9,5.045,45.443,45.443,0,0,0-2.125,5.4,40.484,40.484,0,0,0-.487,22.893,37.2,37.2,0,0,0,2.017,5.5,37.583,37.583,0,0,0,2.8,5.087,38.013,38.013,0,0,0,3.485,4.6,42.615,42.615,0,0,0,4.094,4.047,41.029,41.029,0,0,0,4.644,3.449,42.627,42.627,0,0,0,5.088,2.768,47.3,47.3,0,0,0,11.062,3.485,52.436,52.436,0,0,0,5.748.744,53.793,53.793,0,0,0,5.805.084,56.256,56.256,0,0,0,5.783-.521c1.919-.269,3.811-.64,5.694-1.091,1.907-.458,3.785-.993,5.644-1.619s3.658-1.321,5.45-2.087c1.775-.758,3.511-1.591,5.224-2.478,1.695-.878,3.36-1.8,5-2.783,1.573-.945,3.538-2.192,5.063-3.21,1.567-1.045,3.227-2.2,4.756-3.3,1.058-.76,3.695-2.689,4.741-3.463q2.233-1.655,4.452-3.326c1.489-1.121,2.991-2.226,4.479-3.349s2.985-2.248,4.474-3.377c1.568-1.188,3.117-2.4,4.687-3.584q1.219-.918,2.45-1.821t2.491-1.787c1.5-1.043,2.383-1.642,3.95-2.578.676-.4,1.35-.806,2.046-1.174.329-.174.661-.341,1-.5.372-.183.745-.364,1.123-.533.347-.155.7-.288,1.057-.423.38-.144.758-.295,1.143-.426.487-.165.978-.316,1.476-.446.153-.039.308-.076.464-.106.111-.023.223-.042.334-.065l.38-.083c.183-.038.366-.071.551-.1.466-.07.933-.122,1.4-.159.279-.022.558-.013.837-.014a15.108,15.108,0,0,1,1.519.067" style="fill:#3f82c4;opacity:0.5"/><path d="M284.579,140.358c-.5-1.3-.729-1.917-1.164-3.242-.359-1.091-.7-2.186-1.024-3.29s-.612-2.213-.908-3.322c-.4-1.511-.489-1.818-.821-3.345-.306-1.411-.626-2.818-.9-4.234s-.521-2.837-.744-4.263c-.216-1.376-.412-2.908-.555-4.293q-.22-2.155-.33-4.318a63.693,63.693,0,0,1,.143-8.649c.123-1.44.306-2.867.561-4.29a24.274,24.274,0,0,1,.656-2.814c.049-.159.1-.318.158-.474.037-.1.079-.2.121-.3a2.625,2.625,0,0,1,.29-.543l16.323-15.065a1.531,1.531,0,0,0-.122.259c-.051.13-.093.263-.133.4-.117.387-.218.778-.306,1.174-.125.567-.232,1.138-.333,1.71-.129.738-.237,1.478-.336,2.22q-.182,1.353-.313,2.711c-.1,1.056-.188,2.112-.255,3.17-.06.947-.1,1.894-.131,2.842-.035,1.022-.057,2.045-.059,3.068q-.006,2.957.176,5.906t.533,5.886c.255,2.107.511,3.755.886,5.844.446,2.489.639,3.321,1.2,5.786.1.457.2.914.3,1.37q.162.735.355,1.462c.255.968.527,1.931.795,2.9.217.783.442,1.563.682,2.34s.486,1.55.749,2.319c.359,1.052.436,1.253.841,2.288s.473,1.237.948,2.245h0a15.108,15.108,0,0,0-1.519-.067c-.279,0-.558-.008-.837.014-.47.037-.937.089-1.4.159-.185.027-.368.06-.551.1l-.38.083c-.111.023-.223.042-.334.065-.156.03-.311.067-.464.106-.5.13-.989.281-1.476.446-.385.131-.763.282-1.143.426-.355.135-.71.268-1.057.423-.378.169-.751.35-1.123.533-.334.164-.666.331-1,.5-.7.368-1.37.771-2.046,1.174-1.567.936-2.454,1.535-3.95,2.578" style="fill:#3f82c4;opacity:0.5"/><path d="M325.736,148.075c-.095-.473-.2-.943-.318-1.41s-.266-.955-.427-1.424a24.9,24.9,0,0,0-1.183-2.864,28.029,28.029,0,0,0-3.584-5.567,28.678,28.678,0,0,0-2.073-2.28q-1.125-1.11-2.335-2.122c-.819-.685-1.668-1.327-2.545-1.936s-1.8-1.18-2.73-1.713-1.871-1.025-2.848-1.462-1.958-.827-2.963-1.178-2-.647-3.03-.895-2.031-.451-3.062-.605c.217.783.442,1.563.682,2.34s.486,1.55.749,2.319c.359,1.052.436,1.253.841,2.288s.473,1.237.948,2.245h0a7.424,7.424,0,0,1,.741.106c.245.048.488.1.731.158a7.47,7.47,0,0,1,1.426.438l.006.006s.011.009.008,0l-.017-.016c0-.009.01,0,.016,0a.23.23,0,0,1,.053.014,2.464,2.464,0,0,1,.291.134c.116.059.232.12.347.181s.231.124.345.187.23.124.342.192c.023.014.044.031.066.044.09.053.177.111.262.171.107.075.212.152.317.231a5.989,5.989,0,0,1,.6.5l.009.009-.049-.057-.029-.038-.014-.019-.01-.014s0,0,0-.006.017.013.02.016l.055.057.072.076.141.154.281.309,0-.017c.01,0,.022.023.026.028.022.025.043.051.063.077s.057.073.084.111c.054.074.1.151.154.229.1.157.19.316.272.482l.017-.008,0,.007.008.023.039.1.05.133c.033.089.066.178.1.266.023.063.045.125.068.187l0-.008a.753.753,0,0,1-.008-.083.3.3,0,0,1,0-.042v-.021s0-.021.007-.017.009.016.011.025a.513.513,0,0,1,.013.066c.006.031.01.062.014.093l.015.125.026.076c.012.035.024.07.033.106a.093.093,0,0,1,0,.023v.006l-.059-.186,0,.038c.014.125.026.25.037.375l.023-.006h0c.017.014.008.121.007.136,0,.046-.008.091-.015.137a1.045,1.045,0,0,1-.071.263c-.048.089-.095.18-.142.269l.031-.005c0,.007-.014.034-.017.038l-.036.008c-.034.064-.069.128-.1.193l-.027.009c-.034.033-.068.065-.1.1l.025.029c0,.006,0,0-.008,0l-.02.012-.029.015-.058.031-.116.062v0l-.012.007-.006,0s-.008,0-.006,0l0-.009c-.139.07-.277.14-.418.205l-.088.032c0-.007,0-.006.009-.009l.027-.017.04-.022.082-.038a1.713,1.713,0,0,1,.168-.065l-.154.041h-.014l-.039,0-.054,0c-.035,0-.071,0-.107,0a1.9,1.9,0,0,1-.214-.009l0,.034c-.167-.054-.335-.106-.5-.159l-.1-.031h0a1.474,1.474,0,0,1,.2.113l.028.024c.006.011-.011,0-.017,0a.574.574,0,0,1-.071-.033l-.087-.046c-.058-.031-.115-.063-.172-.095l-.034-.011-.125-.042c-.031-.01-.063-.021-.094-.033l-.021-.01s-.008,0-.007-.005l.082-.012-.146-.083-.009.016c0-.006,0-.005-.007-.007l-.022-.016-.031-.021-.062-.043-.124-.085-.007.017-.015-.01s-.016-.006-.014-.011l.01-.014a6.66,6.66,0,0,1-1.344-1.23,6.455,6.455,0,0,1-.587-.7q-.255-.38-.513-.755c-.173-.252-.347-.5-.5-.765-.069-.115-.13-.235-.192-.354-.079-.151-.163-.3-.244-.448-.294-.535-.555-1.085-.814-1.636a15.029,15.029,0,0,0-1.515-.067c-.279,0-.558-.008-.837.014-.47.037-.937.089-1.4.159-.185.027-.368.06-.551.1l-.38.083c-.111.023-.223.042-.334.064-.156.031-.311.067-.464.107-.5.13-.989.281-1.476.446-.385.131-.763.282-1.143.426-.355.135-.71.268-1.057.423-.378.169-.751.349-1.123.533-.334.164-.666.331-1,.5-.7.368-1.37.771-2.046,1.174-1.567.936-2.454,1.535-3.95,2.578l-.006,0c.453,1.175.685,1.775,1.208,2.921.439.961.888,1.916,1.384,2.849.447.843,1.062,1.946,1.572,2.753.439.692,1.3,1.958,1.781,2.62.63.867,1.306,1.692,2.017,2.492s1.433,1.57,2.207,2.3a32.769,32.769,0,0,0,4.932,3.857,25.225,25.225,0,0,0,2.9,1.618,24.738,24.738,0,0,0,2.983,1.24,22.31,22.31,0,0,0,5.974,1.206,20.253,20.253,0,0,0,3.376-.106,15.352,15.352,0,0,0,3.1-.759,12.445,12.445,0,0,0,4.991-3.377,12.106,12.106,0,0,0,1.658-2.409,12.678,12.678,0,0,0,1.4-6.034A16.319,16.319,0,0,0,325.736,148.075Zm-16.836-8.9c-.032.064-.067.127-.1.19l.025-.063c.014-.027.029-.054.044-.081l.023-.04.011-.02.009-.015,0,0Z" style="fill:#3f82c4;opacity:0.5"/><path d="M309.416,136.868h-.088" style="fill:none;stroke:#b2b2b2;stroke-linecap:round;stroke-linejoin:round;stroke-width:0.25px;stroke-dasharray:3,3"/><path d="M309.282,136.867c-.36,0-.721,0-1.081,0" style="fill:none;stroke:#b2b2b2;stroke-linecap:round;stroke-linejoin:round;stroke-width:0.25px;stroke-dasharray:3,3"/><path d="M310.028,138.2l-.219-.073" style="fill:none;stroke:#b2b2b2;stroke-linecap:round;stroke-linejoin:round;stroke-width:0.25px;stroke-dasharray:3,3"/><path d="M309.318,137.875q.385.155.773.305" style="fill:none;stroke:#b2b2b2;stroke-linecap:round;stroke-linejoin:round;stroke-width:0.25px;stroke-dasharray:3,3"/><path d="M309.63,138.641q1.023.639,2.052,1.265" style="fill:none;stroke:#b2b2b2;stroke-linecap:round;stroke-linejoin:round;stroke-width:0.25px;stroke-dasharray:3,3"/><path d="M311.393,139.852q-.976-.492-1.961-.968" style="fill:none;stroke:#b2b2b2;stroke-linecap:round;stroke-linejoin:round;stroke-width:0.25px;stroke-dasharray:3,3"/><path d="M310.985,140.592c-.649-.474-1.3-.941-1.956-1.407" style="fill:none;stroke:#b2b2b2;stroke-linecap:round;stroke-linejoin:round;stroke-width:0.25px;stroke-dasharray:3,3"/><path d="M309.484,139.8l.415.48" style="fill:none;stroke:#b2b2b2;stroke-linecap:round;stroke-linejoin:round;stroke-width:0.25px;stroke-dasharray:3,3"/><path d="M308.932,139.162l.5.576" style="fill:none;stroke:#b2b2b2;stroke-linecap:round;stroke-linejoin:round;stroke-width:0.25px;stroke-dasharray:3,3"/><path d="M312.281,143.03q-.93-.984-1.876-1.955" style="fill:none;stroke:#b2b2b2;stroke-linecap:round;stroke-linejoin:round;stroke-width:0.25px;stroke-dasharray:3,3"/><path d="M310.373,141.042l-.718-.735" style="fill:none;stroke:#b2b2b2;stroke-linecap:round;stroke-linejoin:round;stroke-width:0.25px;stroke-dasharray:3,3"/><path d="M309.4,140.672q1.142,1.645,2.312,3.274" style="fill:none;stroke:#b2b2b2;stroke-linecap:round;stroke-linejoin:round;stroke-width:0.25px;stroke-dasharray:3,3"/><path d="M310.373,142.246q-.856-1.09-1.72-2.176" style="fill:none;stroke:#b2b2b2;stroke-linecap:round;stroke-linejoin:round;stroke-width:0.25px;stroke-dasharray:3,3"/><path d="M308.493,140.15c.633,1.36,1.269,2.718,1.92,4.069" style="fill:none;stroke:#b2b2b2;stroke-linecap:round;stroke-linejoin:round;stroke-width:0.25px;stroke-dasharray:3,3"/><path d="M309.46,143.776c.319,1.1.644,2.2.984,3.3" style="fill:none;stroke:#b2b2b2;stroke-linecap:round;stroke-linejoin:round;stroke-width:0.25px;stroke-dasharray:3,3"/><path d="M310.355,147.028c-.442-1.152-.9-2.3-1.368-3.439" style="fill:none;stroke:#b2b2b2;stroke-linecap:round;stroke-linejoin:round;stroke-width:0.25px;stroke-dasharray:3,3"/><path d="M308.573,144.771q-.231-1.083-.476-2.162" style="fill:none;stroke:#b2b2b2;stroke-linecap:round;stroke-linejoin:round;stroke-width:0.25px;stroke-dasharray:3,3"/><path d="M308.1,142.606q-.263-1.163-.532-2.323" style="fill:none;stroke:#b2b2b2;stroke-linecap:round;stroke-linejoin:round;stroke-width:0.25px;stroke-dasharray:3,3"/><path d="M307.427,140.306q-.082,1.3-.157,2.6" style="fill:none;stroke:#b2b2b2;stroke-linecap:round;stroke-linejoin:round;stroke-width:0.25px;stroke-dasharray:3,3"/><path d="M307.27,142.911c-.056.991-.108,1.983-.147,2.976" style="fill:none;stroke:#b2b2b2;stroke-linecap:round;stroke-linejoin:round;stroke-width:0.25px;stroke-dasharray:3,3"/><path d="M307.059,142.545q-.018-.877-.043-1.754" style="fill:none;stroke:#b2b2b2;stroke-linecap:round;stroke-linejoin:round;stroke-width:0.25px;stroke-dasharray:3,3"/><path d="M306.831,141.017c-.331,1.3-.655,2.6-.952,3.907" style="fill:none;stroke:#b2b2b2;stroke-linecap:round;stroke-linejoin:round;stroke-width:0.25px;stroke-dasharray:3,3"/><path d="M305.743,145.2c.231-1.614.425-3.231.613-4.85" style="fill:none;stroke:#b2b2b2;stroke-linecap:round;stroke-linejoin:round;stroke-width:0.25px;stroke-dasharray:3,3"/><path d="M304.655,143.883c.3-.861.59-1.727.876-2.594" style="fill:none;stroke:#b2b2b2;stroke-linecap:round;stroke-linejoin:round;stroke-width:0.25px;stroke-dasharray:3,3"/><path d="M305.957,140.766c-.434,1.034-.865,2.069-1.277,3.111" style="fill:none;stroke:#b2b2b2;stroke-linecap:round;stroke-linejoin:round;stroke-width:0.25px;stroke-dasharray:3,3"/><path d="M305.544,141.248q.251-.759.5-1.52" style="fill:none;stroke:#b2b2b2;stroke-linecap:round;stroke-linejoin:round;stroke-width:0.25px;stroke-dasharray:3,3"/><path d="M284.579,140.358c-.5-1.3-.729-1.917-1.164-3.242-.359-1.091-.7-2.186-1.024-3.29s-.612-2.213-.908-3.322c-.4-1.511-.489-1.818-.821-3.345" style="fill:none;stroke:#b2b2b2;stroke-linecap:round;stroke-linejoin:round;stroke-width:0.25px;stroke-dasharray:3,3"/><path d="M298.638,124.619c.217.783.442,1.563.682,2.34s.486,1.55.749,2.319c.359,1.052.436,1.253.841,2.288s.473,1.237.948,2.245" style="fill:none;stroke:#b2b2b2;stroke-linecap:round;stroke-linejoin:round;stroke-width:0.25px;stroke-dasharray:3,3"/><path d="M311.074,141.634q.61.7,1.228,1.394" style="fill:none;stroke:#b2b2b2;stroke-linecap:round;stroke-linejoin:round;stroke-width:0.25px;stroke-dasharray:3,3"/><path d="M311.706,143.962q-.66-.861-1.332-1.715" style="fill:none;stroke:#b2b2b2;stroke-linecap:round;stroke-linejoin:round;stroke-width:0.25px;stroke-dasharray:3,3"/><path d="M310.715,144.875q-.726-1.392-1.476-2.772" style="fill:none;stroke:#b2b2b2;stroke-linecap:round;stroke-linejoin:round;stroke-width:0.25px;stroke-dasharray:3,3"/><path d="M309.212,142.053q-.438-.811-.882-1.62" style="fill:none;stroke:#b2b2b2;stroke-linecap:round;stroke-linejoin:round;stroke-width:0.25px;stroke-dasharray:3,3"/><path d="M308.43,140.149q.315,1.128.636,2.255" style="fill:none;stroke:#b2b2b2;stroke-linecap:round;stroke-linejoin:round;stroke-width:0.25px;stroke-dasharray:3,3"/><path d="M308.512,142.428q-.423-1.026-.85-2.052" style="fill:none;stroke:#b2b2b2;stroke-linecap:round;stroke-linejoin:round;stroke-width:0.25px;stroke-dasharray:3,3"/><path d="M307.839,140.295c.235,1.489.481,2.976.749,4.459" style="fill:none;stroke:#b2b2b2;stroke-linecap:round;stroke-linejoin:round;stroke-width:0.25px;stroke-dasharray:3,3"/><path d="M307.1,145.9c0-1.1-.017-2.2-.04-3.295" style="fill:none;stroke:#b2b2b2;stroke-linecap:round;stroke-linejoin:round;stroke-width:0.25px;stroke-dasharray:3,3"/><path d="M197.981,119.6c-.679.61-1.343,1.233-1.979,1.887-.469.482-.927.972-1.369,1.479-.538.617-1.031,1.267-1.512,1.928-.439.6-.856,1.217-1.245,1.853-.319.522-.636,1.044-.923,1.585-.385.727-.715,1.476-1.029,2.236a27.817,27.817,0,0,0-1.317,3.967c-.211.848-.39,1.7-.517,2.563-.051.346-.094.693-.135,1.041-.037.308-.075.616-.1.925a24.464,24.464,0,0,0-.065,2.554c.01.709.04,1.416.117,2.122a24.393,24.393,0,0,0,.84,4.405c.18.614.388,1.218.617,1.815.267.7.578,1.373.909,2.042.206.418.419.832.648,1.238.172.3.354.6.542.892l.469.723c.171.265.347.527.534.782.479.655,1.186,1.475,1.726,2.078a17.832,17.832,0,0,0,1.348,1.36,24.271,24.271,0,0,0,3.629,2.811c.51.325,1.024.642,1.561.923.35.184.707.355,1.065.523.44.207.883.408,1.331.6q.512.218,1.036.4c.267.094.535.18.8.27.283.095.565.191.85.279.38.117.764.219,1.151.312.467.112.937.213,1.408.309.363.074.726.145,1.092.205.652.108,1.307.18,1.965.241a30.691,30.691,0,0,0,4.687.076c.69-.034,1.3-.089,1.982-.173.879-.108,1.753-.229,2.622-.4.306-.06.609-.128.913-.2.267-.06.534-.119.8-.182.792-.185,1.57-.411,2.347-.65.711-.218,1.415-.451,2.109-.719.563-.218,1.128-.431,1.686-.664.765-.319,1.814-.8,2.559-1.163.53-.259,1.05-.538,1.572-.813,1.65-.869,2.818-1.583,4.388-2.587.4-.253.8-.5,1.186-.764.737-.491,1.464-1,2.189-1.5.472-.331.938-.669,1.4-1.009.6-.434,1.192-.869,1.782-1.31,3-2.246,4.909-3.717,7.879-6.007q1.734-1.336,3.47-2.672.913-.706,1.825-1.416c.6-.469,1.211-.935,1.816-1.4q1.658-1.282,3.305-2.579c1.241-.979,2.478-1.963,3.727-2.931.994-.771,2.52-1.937,3.53-2.687,1.054-.783,2.552-1.859,3.636-2.6.62-.423,1.25-.827,1.886-1.224s1.274-.793,1.924-1.169a41.965,41.965,0,0,1,4.015-2.047" style="fill:none;stroke:#b2b2b2;stroke-linecap:round;stroke-linejoin:round;stroke-width:0.25px"/><line x1="280.058" y1="92.983" x2="296.381" y2="77.918" style="fill:none;stroke:#b2b2b2;stroke-linecap:round;stroke-linejoin:round;stroke-width:0.25px"/><path d="M296.381,77.918a1.531,1.531,0,0,0-.122.259c-.051.13-.093.263-.133.4-.117.387-.218.778-.306,1.174-.125.567-.232,1.138-.333,1.71-.129.738-.237,1.478-.336,2.22q-.182,1.353-.313,2.711c-.1,1.056-.188,2.112-.255,3.17-.06.947-.1,1.894-.131,2.842-.035,1.022-.057,2.045-.059,3.068q-.006,2.957.176,5.906t.533,5.886c.255,2.107.511,3.755.886,5.844.446,2.489.639,3.321,1.2,5.786.1.457.2.914.3,1.37q.162.735.355,1.462c.255.968.527,1.931.795,2.9" style="fill:none;stroke:#b2b2b2;stroke-linecap:round;stroke-linejoin:round;stroke-width:0.25px"/><line x1="182.655" y1="106.425" x2="197.981" y2="119.603" style="fill:none;stroke:#b2b2b2;stroke-linecap:round;stroke-linejoin:round;stroke-width:0.25px"/><path d="M308.711,137.632l.164.066" style="fill:none;stroke:#b2b2b2;stroke-linecap:round;stroke-linejoin:round;stroke-width:0.25px"/><path d="M308.789,138.113l.225.142" style="fill:none;stroke:#b2b2b2;stroke-linecap:round;stroke-linejoin:round;stroke-width:0.25px"/><path d="M308.878,138.834l.135.112" style="fill:none;stroke:#b2b2b2;stroke-linecap:round;stroke-linejoin:round;stroke-width:0.25px"/><path d="M304.76,134.512l.007.007s.011.009.008,0" style="fill:none;stroke:#b2b2b2;stroke-linecap:round;stroke-linejoin:round;stroke-width:0.25px"/><path d="M307.437,136.2s0,0,0,0l0-.006" style="fill:none;stroke:#b2b2b2;stroke-linecap:round;stroke-linejoin:round;stroke-width:0.25px"/><path d="M308.755,138.092c-.007,0-.007.013-.007.017v.021a.3.3,0,0,0,0,.042.753.753,0,0,0,.008.083" style="fill:none;stroke:#b2b2b2;stroke-linecap:round;stroke-linejoin:round;stroke-width:0.25px"/><path d="M308.878,138.834h0" style="fill:none;stroke:#b2b2b2;stroke-linecap:round;stroke-linejoin:round;stroke-width:0.25px"/><path d="M308.171,140.145s0,0,.006,0l.006,0,.012-.007" style="fill:none;stroke:#b2b2b2;stroke-linecap:round;stroke-linejoin:round;stroke-width:0.25px"/><path d="M280.662,127.159c-.306-1.411-.626-2.818-.9-4.234s-.521-2.837-.744-4.263c-.216-1.376-.412-2.908-.555-4.293q-.22-2.155-.33-4.318a63.693,63.693,0,0,1,.143-8.649c.123-1.44.306-2.867.561-4.29a24.274,24.274,0,0,1,.656-2.814c.049-.159.1-.318.158-.474.037-.1.079-.2.121-.3a2.625,2.625,0,0,1,.29-.543" style="fill:none;stroke:#b2b2b2;stroke-linecap:round;stroke-linejoin:round;stroke-width:0.25px"/><path d="M298.638,124.619c1.031.154,2.049.36,3.062.605s2.033.547,3.03.895,1.991.743,2.963,1.178,1.919.933,2.848,1.462,1.846,1.1,2.73,1.713,1.726,1.251,2.546,1.936,1.584,1.382,2.334,2.122a28.883,28.883,0,0,1,2.074,2.28,28.069,28.069,0,0,1,3.583,5.567,24.9,24.9,0,0,1,1.183,2.864q.241.7.427,1.424c.119.467.223.937.318,1.41a16.319,16.319,0,0,1,.333,3.457,12.678,12.678,0,0,1-1.4,6.034,12.106,12.106,0,0,1-1.658,2.409,12.445,12.445,0,0,1-4.991,3.377,15.352,15.352,0,0,1-3.1.759,20.253,20.253,0,0,1-3.376.106,22.31,22.31,0,0,1-5.974-1.206,24.738,24.738,0,0,1-2.983-1.24,25.225,25.225,0,0,1-2.9-1.618,32.769,32.769,0,0,1-4.932-3.857c-.774-.733-1.5-1.506-2.207-2.3s-1.387-1.626-2.017-2.492c-.482-.663-1.342-1.929-1.781-2.621-.51-.807-1.125-1.91-1.572-2.753-.5-.933-.945-1.888-1.384-2.849-.523-1.146-.755-1.746-1.208-2.921" style="fill:none;stroke:#b2b2b2;stroke-linecap:round;stroke-linejoin:round;stroke-width:0.25px"/><path d="M280.667,127.156a38.807,38.807,0,0,1,4.311-1.595,37.3,37.3,0,0,1,4.492-.978,31.9,31.9,0,0,1,9.168.036" style="fill:none;stroke:#b2b2b2;stroke-linecap:round;stroke-linejoin:round;stroke-width:0.25px"/><path d="M306.081,139.717l.124.085.062.043.031.021.022.016s.01,0,.007.007" style="fill:none;stroke:#b2b2b2;stroke-linecap:round;stroke-linejoin:round;stroke-width:0.25px"/><path d="M301.858,133.811c.26.551.521,1.1.815,1.636.081.149.165.3.244.448.062.119.123.239.192.355.155.263.329.512.5.764s.343.5.513.755a6.455,6.455,0,0,0,.587.7,6.66,6.66,0,0,0,1.344,1.23" style="fill:none;stroke:#b2b2b2;stroke-linecap:round;stroke-linejoin:round;stroke-width:0.25px"/><path d="M284.585,140.354q-1.257.877-2.491,1.787t-2.45,1.821c-1.57,1.184-3.119,2.4-4.687,3.584q-2.233,1.694-4.474,3.377c-1.488,1.123-2.99,2.228-4.479,3.349s-2.963,2.223-4.452,3.326c-1.046.774-3.683,2.7-4.741,3.463-1.529,1.1-3.189,2.257-4.756,3.3-1.525,1.018-3.49,2.265-5.063,3.21-1.636.982-3.3,1.905-5,2.783-1.713.887-3.449,1.72-5.224,2.478-1.792.766-3.6,1.464-5.45,2.087s-3.737,1.161-5.644,1.619c-1.883.451-3.775.822-5.694,1.091a56.256,56.256,0,0,1-5.783.521,53.793,53.793,0,0,1-5.805-.084,52.436,52.436,0,0,1-5.748-.744,47.3,47.3,0,0,1-11.062-3.485,42.627,42.627,0,0,1-5.088-2.768,41.029,41.029,0,0,1-4.644-3.449,42.615,42.615,0,0,1-4.094-4.047,38.013,38.013,0,0,1-3.485-4.6,37.583,37.583,0,0,1-2.8-5.087,37.2,37.2,0,0,1-2.017-5.5,40.354,40.354,0,0,1-1.411-11.371,41.038,41.038,0,0,1,1.9-11.522,45.443,45.443,0,0,1,2.125-5.4,40.571,40.571,0,0,1,2.9-5.045,41.575,41.575,0,0,1,3.566-4.585,47.225,47.225,0,0,1,4.115-4.037" style="fill:none;stroke:#b2b2b2;stroke-linecap:round;stroke-linejoin:round;stroke-width:0.25px"/><path d="M301.863,133.811a15.108,15.108,0,0,0-1.519-.067c-.279,0-.558-.008-.837.014-.47.037-.937.089-1.4.159-.185.027-.368.06-.551.1l-.38.083c-.111.023-.223.042-.334.065-.156.03-.311.067-.464.106-.5.13-.989.281-1.476.446-.385.131-.763.282-1.143.426-.355.135-.71.268-1.057.423-.378.169-.751.35-1.123.533-.334.164-.666.331-1,.5-.7.368-1.37.771-2.046,1.174-1.567.936-2.454,1.535-3.95,2.578" style="fill:none;stroke:#b2b2b2;stroke-linecap:round;stroke-linejoin:round;stroke-width:0.25px"/><path d="M304.764,134.514a7.436,7.436,0,0,0-1.429-.439c-.243-.057-.486-.11-.731-.158a7.424,7.424,0,0,0-.741-.106" style="fill:none;stroke:#b2b2b2;stroke-linecap:round;stroke-linejoin:round;stroke-width:0.25px"/><path d="M307.4,136.156a5.989,5.989,0,0,0-.6-.5c-.1-.079-.21-.156-.317-.231-.085-.06-.172-.118-.261-.171-.023-.013-.044-.03-.067-.044-.111-.068-.227-.129-.342-.192s-.229-.125-.345-.187-.231-.122-.347-.181a2.636,2.636,0,0,0-.291-.134.23.23,0,0,0-.053-.014c-.006,0-.013,0-.016,0" style="fill:none;stroke:#b2b2b2;stroke-linecap:round;stroke-linejoin:round;stroke-width:0.25px"/><path d="M308.671,139.672s.021-.031.017-.038" style="fill:none;stroke:#b2b2b2;stroke-linecap:round;stroke-linejoin:round;stroke-width:0.25px"/><path d="M308.4,139.978c.036-.03.07-.063.1-.1" style="fill:none;stroke:#b2b2b2;stroke-linecap:round;stroke-linejoin:round;stroke-width:0.25px"/><path d="M306.074,139.734l-.015-.01s-.016-.006-.014-.011" style="fill:none;stroke:#b2b2b2;stroke-linecap:round;stroke-linejoin:round;stroke-width:0.25px"/><path d="M307.305,136.031s0,0,0,.006l.01.014.014.019.03.038c.019.024.039.049.06.073" style="fill:none;stroke:#b2b2b2;stroke-linecap:round;stroke-linejoin:round;stroke-width:0.25px"/><path d="M307.874,136.643l-.281-.309-.141-.154-.072-.076-.055-.057s-.012-.017-.02-.016" style="fill:none;stroke:#b2b2b2;stroke-linecap:round;stroke-linejoin:round;stroke-width:0.25px"/><path d="M308.476,137.553c-.082-.166-.174-.325-.272-.482-.049-.078-.1-.154-.154-.229-.027-.038-.055-.074-.083-.111s-.042-.052-.064-.077c0,0-.015-.027-.026-.028" style="fill:none;stroke:#b2b2b2;stroke-linecap:round;stroke-linejoin:round;stroke-width:0.25px"/><path d="M308.87,138.612l0-.006a.189.189,0,0,0,0-.023c-.009-.036-.021-.071-.033-.106s-.031-.089-.047-.134q-.046-.133-.1-.267c-.032-.088-.065-.177-.1-.266l-.05-.133-.038-.1-.009-.023,0-.007" style="fill:none;stroke:#b2b2b2;stroke-linecap:round;stroke-linejoin:round;stroke-width:0.25px"/><path d="M308.852,138.839c-.011-.125-.023-.25-.037-.375-.007-.063-.014-.125-.022-.188,0-.031-.008-.062-.013-.093s-.008-.044-.014-.066,0-.018-.011-.025" style="fill:none;stroke:#b2b2b2;stroke-linecap:round;stroke-linejoin:round;stroke-width:0.25px"/><path d="M308.916,139.144l0,0-.009.015-.011.02-.023.04c-.015.027-.03.054-.044.081" style="fill:none;stroke:#b2b2b2;stroke-linecap:round;stroke-linejoin:round;stroke-width:0.25px"/><path d="M308.8,139.372a1.01,1.01,0,0,0,.072-.265c.007-.045.012-.091.015-.137,0-.014.01-.122-.007-.136" style="fill:none;stroke:#b2b2b2;stroke-linecap:round;stroke-linejoin:round;stroke-width:0.25px"/><path d="M308.533,139.873c.119-.234.249-.462.367-.7" style="fill:none;stroke:#b2b2b2;stroke-linecap:round;stroke-linejoin:round;stroke-width:0.25px"/><path d="M308.427,140.007c0,.006,0,0-.008,0l-.02.012-.029.015-.058.031-.116.062" style="fill:none;stroke:#b2b2b2;stroke-linecap:round;stroke-linejoin:round;stroke-width:0.25px"/><path d="M307.987,140.222a1.713,1.713,0,0,0-.168.065l-.082.038-.04.022-.027.017s-.012,0-.009.009" style="fill:none;stroke:#b2b2b2;stroke-linecap:round;stroke-linejoin:round;stroke-width:0.25px"/><path d="M307.749,140.341c.141-.065.279-.135.418-.205" style="fill:none;stroke:#b2b2b2;stroke-linecap:round;stroke-linejoin:round;stroke-width:0.25px"/><path d="M307.831,140.243c.1-.013.465-.061.564-.082" style="fill:none;stroke:#b2b2b2;stroke-linecap:round;stroke-linejoin:round;stroke-width:0.25px"/><path d="M307.4,140.263a1.9,1.9,0,0,0,.214.009c.036,0,.072,0,.107,0l.054,0,.039,0h.015" style="fill:none;stroke:#b2b2b2;stroke-linecap:round;stroke-linejoin:round;stroke-width:0.25px"/><path d="M307,140.22a1.474,1.474,0,0,0-.2-.113" style="fill:none;stroke:#b2b2b2;stroke-linecap:round;stroke-linejoin:round;stroke-width:0.25px"/><path d="M306.4,139.968c0,.005,0,0,.007.005l.021.01c.031.012.063.023.094.033l.125.042.251.08c.168.053.336.1.5.159" style="fill:none;stroke:#b2b2b2;stroke-linecap:round;stroke-linejoin:round;stroke-width:0.25px"/><path d="M306.336,139.873c.115.066.229.131.344.2l.173.1.087.046a.574.574,0,0,0,.071.033c.006,0,.023.012.017,0" style="fill:none;stroke:#b2b2b2;stroke-linecap:round;stroke-linejoin:round;stroke-width:0.25px"/><polyline points="280.669 127.156 280.62 126.962 280.519 126.553 280.184 124.955 280.115 124.683 279.952 123.886 279.726 122.774 279.7 122.612 279.664 122.385 279.494 121.516 279.371 120.888 279.298 120.413 279.192 119.716 279.063 119.024 278.87 117.705 278.795 117.187 278.765 116.908 278.562 115.392 278.415 113.894 278.383 113.628 278.295 112.614 278.234 111.915 278.163 110.618 278.136 110.242 278.123 109.933 278.067 108.629 278.061 108.155 278.046 107.061 278.046 107.042 278.047 106.993 278.05 105.957 278.051 105.57 278.071 104.88 278.092 104.136 278.11 103.812 278.167 102.765 278.169 102.73 278.261 101.482 278.325 100.814 278.377 100.273 278.425 99.881 278.514 99.139 278.639 98.282 278.661 98.126 278.666 98.091 278.79 97.342 278.824 97.139 278.926 96.605 278.99 96.276 279.081 95.861 279.161 95.502 279.215 95.29 279.334 94.822 279.363 94.721 279.506 94.236 279.559 94.082 279.671 93.754 279.797 93.453 279.83 93.373 279.931 93.181 279.979 93.089 280.058 92.983" style="fill:none;stroke:#3f82c4;stroke-miterlimit:10"/><polyline points="284.578 140.357 284.353 139.819 284.061 138.995 283.707 138.001 283.636 137.76 283.307 136.8 283.084 136.15 282.781 135.085 282.511 134.272 282.302 133.518 282.023 132.507 281.998 132.429 281.979 132.371 281.864 131.942 281.468 130.46 281.421 130.253 281.36 129.984 281.136 129.163 280.963 128.531 280.869 128.069 280.749 127.48 280.669 127.156" style="fill:none;stroke:#3f82c4;stroke-miterlimit:10;stroke-width:0.5px;stroke-dasharray:2,2"/><polyline points="280.667 127.155 281.379 126.837 282.539 126.4 283.133 126.16 284.247 125.791 284.886 125.578 286.15 125.244 286.681 125.104 287.85 124.87 288.491 124.733 288.735 124.697 290.292 124.464 291.182 124.387 292.123 124.305 292.678 124.29 293.977 124.256 294.196 124.263 295.241 124.297 295.83 124.314 297.247 124.439 297.656 124.475 298.224 124.558 299.487 124.744 300.345 124.92 301.315 125.119 302.622 125.463 303.132 125.597 304.755 126.119 304.933 126.177 305.953 126.565 306.601 126.816 306.691 126.85 308.103 127.485 308.391 127.614 308.736 127.792 310.05 128.468 311.04 129.043 311.663 129.406 312.462 129.928 313.222 130.424 314.109 131.07 314.72 131.515 315.182 131.89 316.15 132.674 317.259 133.671 317.508 133.894 318.688 135.068 318.787 135.167 318.862 135.25 319.696 136.171 319.974 136.485 320.938 137.702 321.045 137.838 321.158 137.999 322.02 139.225 322.675 140.28 322.896 140.637 323.123 141.056 323.67 142.067 324.073 142.935 324.339 143.508 324.597 144.171 324.9 144.95 325.146 145.726 325.354 146.386 325.49 146.948 325.699 147.808 325.776 148.267 325.934 149.21 326.033 150.278 326.061 150.582 326.078 151.728 326.081 151.919 326.07 152.081 325.994 153.214 325.84 154.222 325.798 154.458 325.503 155.546 325.477 155.643 325.436 155.751 325.054 156.77 324.962 156.958 324.534 157.834 324.097 158.544 323.921 158.83 323.682 159.145 323.219 159.754 322.769 160.238 322.433 160.6 322 160.983 321.567 161.366 321.167 161.657 320.628 162.048 320.276 162.257 319.621 162.643 319.331 162.781 318.552 163.149 317.564 163.513 317.426 163.564 317.3 163.598 316.249 163.885 316.226 163.89 315.988 163.934 315.007 164.104 313.927 164.207 313.719 164.227 312.738 164.249 312.399 164.257 311.532 164.216 311.052 164.193 310.315 164.109 309.686 164.036 309.091 163.929 308.307 163.787 307.868 163.678 306.921 163.445 306.648 163.36 305.533 163.012 304.815 162.741 304.225 162.517 304.136 162.483 303.013 161.984 302.733 161.86 301.825 161.395 301.348 161.151 300.664 160.753 299.987 160.36 299.534 160.063 298.657 159.488 298.439 159.328 297.462 158.611 297.359 158.536 296.324 157.702 296.064 157.493 295.624 157.099 294.818 156.377 293.962 155.528 293.624 155.192 292.808 154.293 292.474 153.935 291.696 153.011 291.352 152.602 290.657 151.682 290.299 151.208 290.134 150.964 289.712 150.34 289.411 149.915 289.294 149.75 288.719 148.84 288.333 148.228 288.075 147.767 287.523 146.781 287.447 146.654 287.379 146.524 286.586 145.016 285.909 143.543 285.841 143.407 285.804 143.333 285.353 142.297 285.048 141.596 284.9 141.199 284.661 140.556 284.578 140.357" style="fill:none;stroke:#3f82c4;stroke-miterlimit:10"/><polyline points="197.981 119.603 197.699 119.879 197.287 120.232 196.795 120.704 196.015 121.454 195.447 122.067 194.811 122.754 194.071 123.652 193.681 124.125 192.862 125.247 192.632 125.563 192.466 125.821 191.668 127.062 190.93 128.377 190.801 128.614 190.133 130.047 190.059 130.206 189.984 130.396 189.416 131.836 189.017 133.059 188.874 133.498 188.588 134.605 188.438 135.184 188.305 135.87 188.108 136.888 187.998 137.749 187.888 138.601 187.841 139.335 187.778 140.318 187.778 141.468 187.779 142.03 187.864 143.323 187.89 143.731 187.936 144.075 188.113 145.413 188.423 146.965 188.445 147.07 188.469 147.159 188.761 148.238 188.894 148.694 188.909 148.736 189.472 150.272 190.029 151.528 190.151 151.802 190.319 152.119 190.929 153.277 191.508 154.216 191.802 154.693 192.364 155.48 192.766 156.044 193.293 156.686 193.817 157.325 194.504 158.057 194.951 158.532 195.81 159.334 196.162 159.661 196.477 159.918 197.446 160.709 197.656 160.858 198.797 161.671 199.702 162.231 200.224 162.545 201.529 163.22 201.728 163.323 202.918 163.847 203.28 164.007 203.767 164.186 204.875 164.595 205.601 164.814 206.505 165.086 207.489 165.32 208.166 165.481 209.427 165.703 209.851 165.778 211.407 165.961 211.554 165.978 212.41 166.03 213.291 166.08 214.69 166.082 215.056 166.083 215.603 166.055 216.82 165.992 217.762 165.894 218.578 165.808 219.94 165.595 220.323 165.534 220.586 165.479 221.761 165.233 222.005 165.183 222.059 165.172 223.435 164.819 223.819 164.72 224.485 164.516 225.552 164.188 226.182 163.961 227.251 163.578 228.301 163.146 228.788 162.951 228.937 162.891 229.241 162.755 230.625 162.132 231.306 161.79 232.268 161.309 233.079 160.86 233.901 160.421 234.822 159.883 235.523 159.475 236.784 158.676 237.109 158.478 237.438 158.263 238.711 157.43 239.808 156.662 240.113 156.457 240.285 156.341 241.114 155.75 241.871 155.21 242.079 155.053 242.397 154.815 243.04 154.348 243.464 154.041 243.984 153.647 244.702 153.103 245.058 152.842 246.201 151.976 246.68 151.613 246.816 151.507 247.646 150.874 248.338 150.347 248.534 150.196 248.755 150.024 250.009 149.061 250.694 148.53 251.228 148.119 251.718 147.742 252.125 147.429 252.555 147.099 253.462 146.397 254.363 145.709 255.221 145.04 256.169 144.314 257.02 143.642 257.977 142.918 258.865 142.215 259.322 141.866 259.803 141.498 260.618 140.842 261.663 140.042 262.045 139.732 262.41 139.436 263.575 138.543 264.188 138.041 264.826 137.552 265.563 136.987 265.77 136.816 265.951 136.668 266.714 136.085 267.657 135.365 267.7 135.329 268.64 134.618 269.423 134.025 269.909 133.688 271.128 132.775 271.624 132.439 272.382 131.924 272.656 131.724 272.835 131.593 273.578 131.103 274.532 130.476 275.181 130.095 275.849 129.673 276.225 129.435 276.957 129.028 277.939 128.481 278.109 128.398 278.473 128.222 279.646 127.612 280.58 127.194 280.667 127.155" style="fill:none;stroke:#3f82c4;stroke-miterlimit:10"/><line x1="194.489" y1="158.04" x2="190.006" y2="164.782" style="fill:none;stroke:#c91517;stroke-linecap:round;stroke-linejoin:round;stroke-width:0.5px;opacity:0.4"/><line x1="197.981" y1="119.603" x2="194.65" y2="114.231" style="fill:none;stroke:#c91517;stroke-linecap:round;stroke-linejoin:round;stroke-width:0.5px;opacity:0.4"/><line x1="280.058" y1="92.983" x2="274.075" y2="86.524" style="fill:none;stroke:#c91517;stroke-linecap:round;stroke-linejoin:round;stroke-width:0.5px;opacity:0.4"/><line x1="279.311" y1="120.473" x2="272.527" y2="119.868" style="fill:none;stroke:#c91517;stroke-linecap:round;stroke-linejoin:round;stroke-width:0.5px;opacity:0.4"/><line x1="295.131" y1="156.651" x2="289.523" y2="159.482" style="fill:none;stroke:#c91517;stroke-linecap:round;stroke-linejoin:round;stroke-width:0.5px;opacity:0.4"/><line x1="324.662" y1="157.572" x2="316.981" y2="161.368" style="fill:none;stroke:#c91517;stroke-linecap:round;stroke-linejoin:round;stroke-width:0.5px;opacity:0.4"/><line x1="305.708" y1="126.473" x2="301.697" y2="135.969" style="fill:none;stroke:#c91517;stroke-linecap:round;stroke-linejoin:round;stroke-width:0.5px;opacity:0.4"/><line x1="266.065" y1="136.581" x2="269.562" y2="144.611" style="fill:none;stroke:#c91517;stroke-linecap:round;stroke-linejoin:round;stroke-width:0.5px;opacity:0.4"/><line x1="233.658" y1="160.551" x2="236.552" y2="168.594" style="fill:none;stroke:#c91517;stroke-linecap:round;stroke-linejoin:round;stroke-width:0.5px;opacity:0.4"/><line x1="194.489" y1="158.04" x2="188.205" y2="160.92" style="fill:none;stroke:#037534;stroke-linecap:round;stroke-linejoin:round;stroke-width:0.5px"/><line x1="197.981" y1="119.603" x2="191.735" y2="114.232" style="fill:none;stroke:#037534;stroke-linecap:round;stroke-linejoin:round;stroke-width:0.5px"/><line x1="280.058" y1="92.983" x2="286.524" y2="87.016" style="fill:none;stroke:#037534;stroke-linecap:round;stroke-linejoin:round;stroke-width:0.5px"/><line x1="279.311" y1="120.473" x2="285.823" y2="117.75" style="fill:none;stroke:#037534;stroke-linecap:round;stroke-linejoin:round;stroke-width:0.5px"/><line x1="295.131" y1="156.651" x2="299.218" y2="149.883" style="fill:none;stroke:#037534;stroke-linecap:round;stroke-linejoin:round;stroke-width:0.5px"/><line x1="324.662" y1="157.572" x2="318.128" y2="150.294" style="fill:none;stroke:#037534;stroke-linecap:round;stroke-linejoin:round;stroke-width:0.5px"/><line x1="305.708" y1="126.473" x2="305.28" y2="129.805" style="fill:none;stroke:#037534;stroke-linecap:round;stroke-linejoin:round;stroke-width:0.5px"/><line x1="266.065" y1="136.581" x2="271.866" y2="139.468" style="fill:none;stroke:#037534;stroke-linecap:round;stroke-linejoin:round;stroke-width:0.5px"/><line x1="233.658" y1="160.551" x2="237.741" y2="164.258" style="fill:none;stroke:#037534;stroke-linecap:round;stroke-linejoin:round;stroke-width:0.5px"/><line x1="194.489" y1="158.04" x2="201.051" y2="165.01" style="fill:none;stroke:#2a4d9c;stroke-linecap:round;stroke-linejoin:round;stroke-width:0.5px;opacity:0.4"/><line x1="197.981" y1="119.603" x2="190.478" y2="126.481" style="fill:none;stroke:#2a4d9c;stroke-linecap:round;stroke-linejoin:round;stroke-width:0.5px;opacity:0.4"/><line x1="280.058" y1="92.983" x2="280.86" y2="91.829" style="fill:none;stroke:#2a4d9c;stroke-linecap:round;stroke-linejoin:round;stroke-width:0.5px;opacity:0.4"/><line x1="279.311" y1="120.473" x2="277.868" y2="111.593" style="fill:none;stroke:#2a4d9c;stroke-linecap:round;stroke-linejoin:round;stroke-width:0.5px"/><line x1="295.131" y1="156.651" x2="288.412" y2="150.408" style="fill:none;stroke:#2a4d9c;stroke-linecap:round;stroke-linejoin:round;stroke-width:0.5px;opacity:0.4"/><line x1="324.662" y1="157.572" x2="321.671" y2="163.695" style="fill:none;stroke:#2a4d9c;stroke-linecap:round;stroke-linejoin:round;stroke-width:0.5px;opacity:0.4"/><line x1="305.708" y1="126.473" x2="315.84" y2="130.35" style="fill:none;stroke:#2a4d9c;stroke-linecap:round;stroke-linejoin:round;stroke-width:0.5px;opacity:0.4"/><line x1="266.065" y1="136.581" x2="273.785" y2="130.684" style="fill:none;stroke:#2a4d9c;stroke-linecap:round;stroke-linejoin:round;stroke-width:0.5px;opacity:0.4"/><line x1="233.658" y1="160.551" x2="242.187" y2="155.966" style="fill:none;stroke:#2a4d9c;stroke-linecap:round;stroke-linejoin:round;stroke-width:0.5px;opacity:0.4"/><path d="M411.422,60.072l2.714-2.172a2.928,2.928,0,0,1,1.272-.545.993.993,0,0,0,.106-.032q.166.761.331,1.519-.786.374-1.557.78c-1.048.524-1.794.918-2.8,1.519l0,0a6.335,6.335,0,0,1-.067-1.066" style="fill:#e66526;opacity:0.15"/><path d="M414.59,26.356l.013-.045,0-.014.2-.686.014,0c.038-.1.081-.2.123-.306l.031-.071.022-.053,0-.01a2.69,2.69,0,0,1,.13-.264,1.7,1.7,0,0,1,.119-.184l1.939-2.792c-.377-8.9-6.316-4.262-5.724,1.791.028.285.085.566.112.851.4,4.2-2.378,9.16-1.2,13.629.145.55.492,1,.632,1.556l0,.013a3.066,3.066,0,0,1,.044,1.015c-.534,6.317.471,12.916.362,19.287l.007-.006,2.714-2.172a2.929,2.929,0,0,1,1.271-.545.945.945,0,0,0,.107-.032c-.018-.085-.037-.17-.056-.255q-.06-.275-.119-.55c-.031-.141-.061-.283-.092-.424-.042-.2-.083-.4-.125-.594-.314-1.518-.58-3.043-.83-4.573-.056-.345-.111-.691-.162-1.038-.095-.646-.181-1.293-.264-1.94-.1-.778-.185-1.558-.26-2.338-.017-.17-.033-.341-.049-.511-.046-.488-.089-.977-.123-1.467q-.09-1.272-.142-2.547-.012-.312-.022-.624c-.02-.674-.028-1.347-.028-2.022s.008-1.365.03-2.048q.048-1.419.16-2.833.036-.465.08-.928l.012-.126q.024-.247.051-.5.043-.435.082-.871l.021,0c.088-.686.187-1.369.307-2.05l0-.018c.022-.128.045-.256.068-.384.117-.64.168-.883.319-1.516.033-.136.066-.273.1-.409s.071-.26.108-.389" style="fill:#e66526;opacity:0.15"/><g style="opacity:0.15"><polygon points="458.064 72.376 458.06 72.369 458.061 72.371 458.064 72.376" style="fill:#e66526"/><path d="M415.65,57.944c.065.3.131.6.2.9l.009.04-.044.018c-.512.23-1.019.472-1.522.722-1.048.524-1.794.918-2.8,1.519l0,0c3.355,22.083,22.572,51.821,49.278,41.045,10.565-4.263,12.679-17.834,8.924-27.87a40.043,40.043,0,0,0-15.709-19.285c-2.966-1.888-13.381-8.59-16.972-6.791l-1.253.627,0,.016c-4.462,1.953-10.528.453-15.259,4.2l-.014.01a24.68,24.68,0,0,1-1.95,2.05l-.848.649-.013-.017c-.449.345-.846.749-1.3,1.093a2.938,2.938,0,0,1-.448.291c-.048.024-.1.046-.144.067a2.326,2.326,0,0,1-.265.095c.045.207.091.414.136.621m9,23.74,0,0,.007.011Zm36.251,4.8,0,.006h0v0q-.177.731-.353,1.46l-.474.873a9.43,9.43,0,0,1-.7,1.287l-.008.014-.007.012h0l-.75,1.2L458,91.9a10.718,10.718,0,0,1-1.225,1.148h0l-1.1.878-.184.012c-.042.026-.079.058-.121.083a12.007,12.007,0,0,1-2.155,1.03,9.887,9.887,0,0,1-1.756.52l-.013,0c-.367.082-.733.164-1.106.216-.3.041-.6.069-.9.092a17.943,17.943,0,0,1-2.3.061h-.024a22.277,22.277,0,0,1-2.4-.235c-.714-.111-1.417-.267-2.117-.441l-.017,0c-.58-.144-.992-.266-1.449-.42l-.193.012-.013,0L440,94.449q-.832-.31-1.664-.621l-.438-.283h0l-.034-.016c-.348-.167-.7-.333-1.038-.514s-.68-.376-1.013-.575c-.787-.469-1.563-.951-2.305-1.491-.665-.483-1.318-.981-1.951-1.506l0,0-.007-.006h0l-1.467-1.218.086-.018c-.707-.66-1.395-1.34-2.043-2.062l0,0q-.379-.42-.75-.848a33.384,33.384,0,0,1-2.7-3.589l.007.01-.01-.015,0,0,0,0c-.18-.267-.359-.536-.534-.806l-.007,0-.546-.811.032-.022c-.334-.556-.646-1.122-.957-1.691q-.335-.614-.651-1.235c-.048-.1-.095-.191-.142-.287-.113-.23-.224-.46-.333-.692-.264-.556-.523-1.114-.772-1.677-.415-.938-.78-1.894-1.147-2.851q-.26-.675-.5-1.356c-.343-.974-.663-1.954-.97-2.94q-.22-.7-.43-1.411c-.184-.618-.357-1.239-.526-1.861q-.113-.414-.223-.828-.249-.927-.494-1.855c-.148-.564-.291-1.129-.42-1.7q-.093-.392-.181-.784c.321-.14.645-.271.97-.4l.011,0c.927-.373,1.528-.607,2.478-.917a26.631,26.631,0,0,1,2.9-.788l.014,0c.425-.093.849-.186,1.277-.266.4-.075.8-.139,1.208-.2a27.5,27.5,0,0,1,3.354-.293c.759-.02,1.517-.023,2.277.008a33.694,33.694,0,0,1,10.792,2.277q.535.209,1.066.428c.4.166.794.34,1.183.526.67.32,1.323.668,1.972,1.027l.009.005,1.283.707c-.134-.089.984.629.976.647l.115.076c.915.6,1.8,1.246,2.655,1.927.6.478,1.181.98,1.75,1.5a27.756,27.756,0,0,1,2.707,2.748,20.707,20.707,0,0,1,1.432,1.779c.549.757,1.081,1.523,1.56,2.328q.114.191.225.383l0-.007q.5.87,1,1.742l0,.007-.035.089c.286.587.574,1.174.858,1.762l-.749-1.53a21.84,21.84,0,0,1,1.117,2.822l.029.087a15.367,15.367,0,0,1,.534,2.026,13.924,13.924,0,0,1,.365,2.454v0h0l.117,1.658-.1.688a13.389,13.389,0,0,1-.321,2.285Z" style="fill:#e66526"/><polygon points="458.064 72.376 458.06 72.369 458.061 72.371 458.064 72.376" style="fill:#b2b2b2"/><path d="M415.65,57.944c.065.3.131.6.2.9l.009.04-.044.018c-.512.23-1.019.472-1.522.722-1.048.524-1.794.918-2.8,1.519l0,0c3.355,22.083,22.572,51.821,49.278,41.045,10.565-4.263,12.679-17.834,8.924-27.87a40.043,40.043,0,0,0-15.709-19.285c-2.966-1.888-13.381-8.59-16.972-6.791l-1.253.627,0,.016c-4.462,1.953-10.528.453-15.259,4.2l-.014.01a24.68,24.68,0,0,1-1.95,2.05l-.848.649-.013-.017c-.449.345-.846.749-1.3,1.093a2.938,2.938,0,0,1-.448.291c-.048.024-.1.046-.144.067a2.326,2.326,0,0,1-.265.095c.045.207.091.414.136.621m9,23.74,0,0,.007.011Zm36.251,4.8,0,.006h0v0q-.177.731-.353,1.46l-.474.873a9.43,9.43,0,0,1-.7,1.287l-.008.014-.007.012h0l-.75,1.2L458,91.9a10.718,10.718,0,0,1-1.225,1.148h0l-1.1.878-.184.012c-.042.026-.079.058-.121.083a12.007,12.007,0,0,1-2.155,1.03,9.887,9.887,0,0,1-1.756.52l-.013,0c-.367.082-.733.164-1.106.216-.3.041-.6.069-.9.092a17.943,17.943,0,0,1-2.3.061h-.024a22.277,22.277,0,0,1-2.4-.235c-.714-.111-1.417-.267-2.117-.441l-.017,0c-.58-.144-.992-.266-1.449-.42l-.193.012-.013,0L440,94.449q-.832-.31-1.664-.621l-.438-.283h0l-.034-.016c-.348-.167-.7-.333-1.038-.514s-.68-.376-1.013-.575c-.787-.469-1.563-.951-2.305-1.491-.665-.483-1.318-.981-1.951-1.506l0,0-.007-.006h0l-1.467-1.218.086-.018c-.707-.66-1.395-1.34-2.043-2.062l0,0q-.379-.42-.75-.848a33.384,33.384,0,0,1-2.7-3.589l.007.01-.01-.015,0,0,0,0c-.18-.267-.359-.536-.534-.806l-.007,0-.546-.811.032-.022c-.334-.556-.646-1.122-.957-1.691q-.335-.614-.651-1.235c-.048-.1-.095-.191-.142-.287-.113-.23-.224-.46-.333-.692-.264-.556-.523-1.114-.772-1.677-.415-.938-.78-1.894-1.147-2.851q-.26-.675-.5-1.356c-.343-.974-.663-1.954-.97-2.94q-.22-.7-.43-1.411c-.184-.618-.357-1.239-.526-1.861q-.113-.414-.223-.828-.249-.927-.494-1.855c-.148-.564-.291-1.129-.42-1.7q-.093-.392-.181-.784c.321-.14.645-.271.97-.4l.011,0c.927-.373,1.528-.607,2.478-.917a26.631,26.631,0,0,1,2.9-.788l.014,0c.425-.093.849-.186,1.277-.266.4-.075.8-.139,1.208-.2a27.5,27.5,0,0,1,3.354-.293c.759-.02,1.517-.023,2.277.008a33.694,33.694,0,0,1,10.792,2.277q.535.209,1.066.428c.4.166.794.34,1.183.526.67.32,1.323.668,1.972,1.027l.009.005,1.283.707c-.134-.089.984.629.976.647l.115.076c.915.6,1.8,1.246,2.655,1.927.6.478,1.181.98,1.75,1.5a27.756,27.756,0,0,1,2.707,2.748,20.707,20.707,0,0,1,1.432,1.779c.549.757,1.081,1.523,1.56,2.328q.114.191.225.383l0-.007q.5.87,1,1.742l0,.007-.035.089c.286.587.574,1.174.858,1.762l-.749-1.53a21.84,21.84,0,0,1,1.117,2.822l.029.087a15.367,15.367,0,0,1,.534,2.026,13.924,13.924,0,0,1,.365,2.454v0h0l.117,1.658-.1.688a13.389,13.389,0,0,1-.321,2.285Z" style="fill:#e66526;opacity:0.15"/></g><path d="M411.422,60.072l-10.849,8.685-.254.2,3.136-2.232,1.957-1.494.818-.643c.855-.611,1.713-1.218,2.592-1.793.314-.206.631-.406.949-.6q.237-.148.476-.3.618-.382,1.24-.756l0,0a6.335,6.335,0,0,1-.067-1.066l-11,8.885-.068.053" style="fill:#e66526;opacity:0.15"/><path d="M377.309,86.752,375.8,87.837l0,0c-.938.663-1.882,1.316-2.847,1.939l-.467.3c-.613.393-1.227.785-1.849,1.163q-.282.171-.567.339c-.97.573-1.6.905-2.591,1.43-.9.474-1.494.765-2.418,1.186-1,.455-1.522.665-2.544,1.06l-.023.009c-1.06.41-1.561.586-2.649.917-1.049.319-1.642.476-2.712.719-1.015.231-1.521.34-2.552.492a32.765,32.765,0,0,1-3.264.344c-.876.043-1.751.065-2.628.044-1.058-.024-2.108-.114-3.158-.243-.948-.118-1.88-.305-2.811-.512a20.915,20.915,0,0,1-2.634-.749,19.9,19.9,0,0,1-2.322-.895,22.442,22.442,0,0,1-2.993-1.552c-.661-.41-1.306-.839-1.929-1.306a27.414,27.414,0,0,1-2.421-2.067,24.774,24.774,0,0,1-1.83-1.991c-.258-.305-.511-.613-.752-.932-.389-.513-.554-.79-.905-1.328a18.877,18.877,0,0,1-1.22-2.084,23.893,23.893,0,0,1-1.291-2.931,22.34,22.34,0,0,1-.724-2.415q-.244-1.029-.4-2.075-.079-.558-.142-1.118a22.013,22.013,0,0,1-.133-2.554,20.125,20.125,0,0,1,.183-3.273c.1-.835.186-1.428.356-2.253a28.784,28.784,0,0,1,1.024-3.713l.024-.068c.227-.644.483-1.275.753-1.9a20.377,20.377,0,0,1,1.323-2.638c.1-.175.21-.348.315-.522.478-.792.806-1.279,1.35-2.027a31.129,31.129,0,0,1,2.847-3.451l-16.916,15.5c-6.441,6.878,3.877,24.08,8.9,28.869,7.376,7.037,18.539,10.268,28.714,9.133,10.023-1.117,19.45-6.147,27.019-12.881,5.466-4.864,8.849-14.261,14.668-18.293.422-.292.9-.488,1.319-.778,1.434-.984,2.418-3.127,3.874-4.232.5-.522,1.021-1.008,1.522-1.529q-2.112,1.7-4.226,3.405l-1.849,1.442-.44.339.008-.006s-2.244,1.732-2.029,1.567c.071-.055-.5.386-.5.387l.008,0-.255.2v0q-.762.589-1.525,1.178l-.181.139-1.815,1.4-1.863,1.436q-1.226.945-2.455,1.887-.936.717-1.874,1.43-1.042.791-2.092,1.573l-.093.07q-.745.558-1.5,1.109l-.341.248" style="fill:#3f82c4;opacity:0.5"/><path d="M414.59,26.4l.013-.044,0-.014.2-.687.014.005c.038-.1.081-.205.123-.306l.031-.071.022-.053,0-.01a2.805,2.805,0,0,1,.13-.264,1.7,1.7,0,0,1,.119-.184l1.939-2.792c-.377-8.9-6.316-4.262-5.724,1.791.028.285.085.566.112.851.4,4.2-2.378,9.16-1.2,13.629.145.551.492,1,.632,1.556l0,.013a3.066,3.066,0,0,1,.044,1.015c-.534,6.317.471,12.916.362,19.287l.007-.006,2.714-2.172a2.929,2.929,0,0,1,1.271-.545.945.945,0,0,0,.107-.032c-.018-.085-.037-.17-.056-.255q-.06-.275-.119-.55c-.031-.141-.061-.283-.092-.424-.042-.2-.083-.4-.125-.594-.314-1.518-.58-3.043-.83-4.572-.056-.346-.111-.692-.162-1.039-.095-.646-.181-1.293-.264-1.94-.1-.778-.185-1.558-.26-2.338-.017-.17-.033-.34-.049-.511-.046-.488-.089-.977-.123-1.467q-.09-1.272-.142-2.547-.012-.312-.022-.624c-.02-.673-.028-1.347-.028-2.022s.008-1.365.03-2.048q.048-1.419.16-2.833c.024-.309.051-.619.08-.928l.012-.126q.024-.248.051-.495.043-.435.082-.871l.021,0c.088-.686.187-1.369.307-2.05l0-.018c.022-.128.045-.256.068-.384.117-.64.168-.883.319-1.516.033-.136.066-.273.1-.409s.071-.26.108-.389" style="fill:none;stroke:#b2b2b2;stroke-linecap:round;stroke-linejoin:round;stroke-width:0.25px"/><polygon points="458.064 72.424 458.06 72.417 458.061 72.419 458.064 72.424" style="fill:#b2b2b2"/><path d="M469.684,74.368a40.043,40.043,0,0,0-15.709-19.285c-2.966-1.888-13.381-8.59-16.972-6.791l-1.253.627,0,.016c-4.462,1.953-10.528.453-15.259,4.2l-.014.01a24.68,24.68,0,0,1-1.95,2.05l-.848.649-.013-.017c-.449.345-.846.749-1.3,1.093a2.938,2.938,0,0,1-.448.291c-.048.024-.1.046-.144.067a2.326,2.326,0,0,1-.265.095q.166.761.331,1.519l.009.04-.044.018c-.512.23-1.019.472-1.522.722-1.048.524-1.794.919-2.8,1.519l0,0c3.355,22.083,22.572,51.821,49.278,41.045C471.325,97.975,473.439,84.4,469.684,74.368Zm-45.036,7.365,0,0,.007.011ZM460.9,86.527l0,.006h0v0q-.177.731-.353,1.46l-.474.873a9.43,9.43,0,0,1-.7,1.287l-.008.014-.007.012h0l-.75,1.2-.608.569a10.718,10.718,0,0,1-1.225,1.148h0l-1.1.878-.184.012c-.042.026-.079.058-.121.083a11.939,11.939,0,0,1-2.155,1.03,9.887,9.887,0,0,1-1.756.52l-.013,0c-.367.082-.733.164-1.106.216-.3.041-.6.069-.9.092a17.943,17.943,0,0,1-2.3.061h-.024a22.277,22.277,0,0,1-2.4-.235c-.714-.111-1.417-.267-2.117-.441l-.017,0c-.58-.144-.992-.266-1.449-.42l-.193.012-.013,0L440,94.5q-.832-.31-1.664-.621l-.438-.283h0l-.034-.016c-.348-.167-.7-.333-1.038-.514s-.68-.376-1.013-.575c-.787-.469-1.563-.951-2.305-1.491-.665-.483-1.318-.98-1.951-1.506l0,0-.007-.006h0l-1.467-1.218.086-.018c-.707-.66-1.395-1.34-2.043-2.062l0,0q-.379-.42-.75-.848a33.384,33.384,0,0,1-2.7-3.589l.007.01-.01-.014,0,0,0,0c-.18-.268-.359-.537-.534-.807l-.007,0-.546-.811.032-.022c-.334-.555-.646-1.122-.957-1.691q-.335-.614-.651-1.235c-.048-.1-.095-.191-.142-.287-.113-.23-.224-.46-.333-.692-.264-.556-.523-1.114-.772-1.677-.415-.938-.78-1.894-1.147-2.85-.173-.451-.341-.9-.5-1.357-.343-.974-.663-1.954-.97-2.939q-.22-.7-.43-1.412c-.184-.618-.357-1.239-.526-1.861q-.113-.414-.223-.828-.249-.927-.494-1.855c-.148-.564-.291-1.129-.42-1.7q-.093-.392-.181-.784c.321-.14.645-.27.97-.4l.011-.005c.927-.373,1.528-.607,2.478-.917a26.631,26.631,0,0,1,2.9-.788l.014,0c.425-.094.849-.187,1.277-.267.4-.075.8-.139,1.208-.2a27.5,27.5,0,0,1,3.354-.293c.759-.02,1.517-.023,2.277.008a33.694,33.694,0,0,1,10.792,2.277q.535.209,1.066.428c.4.166.794.34,1.183.526.67.32,1.323.668,1.972,1.027l.009.005,1.283.707c-.134-.089.984.629.976.647l.115.076c.915.6,1.8,1.246,2.655,1.927.6.478,1.181.98,1.75,1.495a27.756,27.756,0,0,1,2.707,2.748,20.707,20.707,0,0,1,1.432,1.779c.549.757,1.081,1.523,1.56,2.328q.114.191.225.383l0-.007q.5.87,1,1.742l0,.007-.035.089c.286.587.574,1.174.858,1.762l-.749-1.53a21.84,21.84,0,0,1,1.117,2.822l.029.087a15.367,15.367,0,0,1,.534,2.026,13.924,13.924,0,0,1,.365,2.454v0h0l.117,1.658-.1.688a13.389,13.389,0,0,1-.321,2.285Z" style="fill:none;stroke:#b2b2b2;stroke-linecap:round;stroke-linejoin:round;stroke-width:0.25px"/><polygon points="458.064 72.424 458.06 72.417 458.061 72.419 458.064 72.424" style="fill:none;stroke:#b2b2b2;stroke-linecap:round;stroke-linejoin:round;stroke-width:0.25px"/><path d="M469.684,74.368a40.043,40.043,0,0,0-15.709-19.285c-2.966-1.888-13.381-8.59-16.972-6.791l-1.253.627,0,.016c-4.462,1.953-10.528.453-15.259,4.2l-.014.01a24.68,24.68,0,0,1-1.95,2.05l-.848.649-.013-.017c-.449.345-.846.749-1.3,1.093a2.938,2.938,0,0,1-.448.291c-.048.024-.1.046-.144.067a2.326,2.326,0,0,1-.265.095q.166.761.331,1.519l.009.04-.044.018c-.512.23-1.019.472-1.522.722-1.048.524-1.794.919-2.8,1.519l0,0c3.355,22.083,22.572,51.821,49.278,41.045C471.325,97.975,473.439,84.4,469.684,74.368Zm-45.036,7.365,0,0,.007.011ZM460.9,86.527l0,.006h0v0q-.177.731-.353,1.46l-.474.873a9.43,9.43,0,0,1-.7,1.287l-.008.014-.007.012h0l-.75,1.2-.608.569a10.718,10.718,0,0,1-1.225,1.148h0l-1.1.878-.184.012c-.042.026-.079.058-.121.083a11.939,11.939,0,0,1-2.155,1.03,9.887,9.887,0,0,1-1.756.52l-.013,0c-.367.082-.733.164-1.106.216-.3.041-.6.069-.9.092a17.943,17.943,0,0,1-2.3.061h-.024a22.277,22.277,0,0,1-2.4-.235c-.714-.111-1.417-.267-2.117-.441l-.017,0c-.58-.144-.992-.266-1.449-.42l-.193.012-.013,0L440,94.5q-.832-.31-1.664-.621l-.438-.283h0l-.034-.016c-.348-.167-.7-.333-1.038-.514s-.68-.376-1.013-.575c-.787-.469-1.563-.951-2.305-1.491-.665-.483-1.318-.98-1.951-1.506l0,0-.007-.006h0l-1.467-1.218.086-.018c-.707-.66-1.395-1.34-2.043-2.062l0,0q-.379-.42-.75-.848a33.384,33.384,0,0,1-2.7-3.589l.007.01-.01-.014,0,0,0,0c-.18-.268-.359-.537-.534-.807l-.007,0-.546-.811.032-.022c-.334-.555-.646-1.122-.957-1.691q-.335-.614-.651-1.235c-.048-.1-.095-.191-.142-.287-.113-.23-.224-.46-.333-.692-.264-.556-.523-1.114-.772-1.677-.415-.938-.78-1.894-1.147-2.85-.173-.451-.341-.9-.5-1.357-.343-.974-.663-1.954-.97-2.939q-.22-.7-.43-1.412c-.184-.618-.357-1.239-.526-1.861q-.113-.414-.223-.828-.249-.927-.494-1.855c-.148-.564-.291-1.129-.42-1.7q-.093-.392-.181-.784c.321-.14.645-.27.97-.4l.011-.005c.927-.373,1.528-.607,2.478-.917a26.631,26.631,0,0,1,2.9-.788l.014,0c.425-.094.849-.187,1.277-.267.4-.075.8-.139,1.208-.2a27.5,27.5,0,0,1,3.354-.293c.759-.02,1.517-.023,2.277.008a33.694,33.694,0,0,1,10.792,2.277q.535.209,1.066.428c.4.166.794.34,1.183.526.67.32,1.323.668,1.972,1.027l.009.005,1.283.707c-.134-.089.984.629.976.647l.115.076c.915.6,1.8,1.246,2.655,1.927.6.478,1.181.98,1.75,1.495a27.756,27.756,0,0,1,2.707,2.748,20.707,20.707,0,0,1,1.432,1.779c.549.757,1.081,1.523,1.56,2.328q.114.191.225.383l0-.007q.5.87,1,1.742l0,.007-.035.089c.286.587.574,1.174.858,1.762l-.749-1.53a21.84,21.84,0,0,1,1.117,2.822l.029.087a15.367,15.367,0,0,1,.534,2.026,13.924,13.924,0,0,1,.365,2.454v0h0l.117,1.658-.1.688a13.389,13.389,0,0,1-.321,2.285Z" style="fill:none;stroke:#b2b2b2;stroke-linecap:round;stroke-linejoin:round;stroke-width:0.25px"/><path d="M411.422,60.12l-10.849,8.685-.254.2,3.136-2.233q.978-.747,1.957-1.493l.818-.644c.855-.611,1.713-1.218,2.592-1.793q.471-.307.949-.6.237-.149.476-.3.618-.383,1.24-.756l0,0a6.354,6.354,0,0,1-.067-1.067l-11,8.885-.068.053" style="fill:none;stroke:#b2b2b2;stroke-linecap:round;stroke-linejoin:round;stroke-width:0.25px"/><path d="M377.309,86.8,375.8,87.885l0,0c-.938.663-1.882,1.316-2.847,1.939l-.467.3c-.613.393-1.227.785-1.849,1.163q-.282.171-.567.339c-.97.573-1.6.905-2.591,1.43-.9.474-1.494.766-2.418,1.186-1,.455-1.522.665-2.544,1.06l-.023.009c-1.06.41-1.561.586-2.649.917-1.049.319-1.642.476-2.712.719-1.015.231-1.521.34-2.552.492a32.765,32.765,0,0,1-3.264.344c-.876.043-1.751.065-2.628.044-1.058-.024-2.108-.114-3.158-.243-.948-.118-1.88-.3-2.811-.512a20.915,20.915,0,0,1-2.634-.749,19.9,19.9,0,0,1-2.322-.895,22.442,22.442,0,0,1-2.993-1.552c-.661-.41-1.306-.839-1.929-1.306A27.414,27.414,0,0,1,330.42,90.5a24.774,24.774,0,0,1-1.83-1.991c-.258-.305-.511-.613-.752-.932-.389-.513-.554-.79-.905-1.328a18.877,18.877,0,0,1-1.22-2.084,23.893,23.893,0,0,1-1.291-2.931,22.34,22.34,0,0,1-.724-2.415c-.163-.686-.295-1.376-.4-2.075q-.079-.558-.142-1.118a22.013,22.013,0,0,1-.133-2.554,20.125,20.125,0,0,1,.183-3.273c.1-.835.186-1.428.356-2.253a28.784,28.784,0,0,1,1.024-3.713l.024-.068c.227-.644.483-1.275.753-1.9a20.377,20.377,0,0,1,1.323-2.638c.1-.175.21-.348.315-.522.478-.792.806-1.279,1.35-2.027A31.222,31.222,0,0,1,331.2,53.23L314.286,68.735c-6.441,6.878,3.877,24.08,8.9,28.869,7.376,7.037,18.539,10.268,28.714,9.133,10.023-1.117,19.45-6.147,27.019-12.881,5.466-4.864,8.849-14.261,14.668-18.293.422-.292.9-.488,1.319-.778,1.434-.984,2.418-3.127,3.874-4.232.5-.522,1.021-1.008,1.522-1.529q-2.112,1.7-4.226,3.405l-1.849,1.442-.44.339.008-.006s-2.244,1.732-2.029,1.567c.071-.055-.5.386-.5.387l.008,0-.255.2v0q-.762.59-1.525,1.178l-.181.139-1.815,1.4-1.863,1.436q-1.226.945-2.455,1.887-.936.717-1.874,1.43-1.042.79-2.092,1.573l-.093.07q-.745.558-1.5,1.109l-.341.248" style="fill:none;stroke:#b2b2b2;stroke-linecap:round;stroke-linejoin:round;stroke-width:0.25px"/><polyline points="415.446 57.296 415.327 56.729 415.258 56.456 415.096 55.66 414.869 54.549 414.843 54.386 414.807 54.16 414.637 53.291 414.514 52.664 414.442 52.189 414.335 51.492 414.206 50.8 414.014 49.483 413.938 48.965 413.909 48.686 413.706 47.171 413.559 45.673 413.527 45.408 413.439 44.394 413.378 43.695 413.307 42.399 413.28 42.023 413.267 41.714 413.211 40.411 413.205 39.938 413.19 38.844 413.19 38.825 413.191 38.775 413.194 37.741 413.195 37.353 413.215 36.664 413.237 35.92 413.254 35.596 413.311 34.55 413.314 34.515 413.405 33.268 413.469 32.6 413.522 32.059 413.569 31.668 413.658 30.927 413.783 30.07 413.805 29.914 413.81 29.878 413.934 29.13 413.968 28.928 414.07 28.393 414.133 28.064 414.225 27.65 414.304 27.291 414.358 27.079 414.477 26.611 414.507 26.51 414.649 26.026 414.702 25.871 414.815 25.544 414.94 25.243 414.973 25.164 415.074 24.972 415.123 24.88 415.202 24.773" style="fill:none;stroke:#3f82c4;stroke-linecap:round;stroke-miterlimit:10"/><polyline points="415.805 58.901 415.763 58.734 415.662 58.326 415.551 57.795 415.446 57.296" style="fill:none;stroke:#3f82c4;stroke-miterlimit:10;stroke-width:0.25px"/><polyline points="415.82 58.923 416.521 58.609 417.681 58.172 418.275 57.933 419.388 57.564 420.027 57.352 421.29 57.018 421.821 56.877 422.989 56.644 423.629 56.507 423.874 56.47 425.43 56.238 426.319 56.16 427.26 56.079 427.814 56.064 429.113 56.03 429.331 56.037 430.376 56.071 430.964 56.088 432.381 56.213 432.79 56.249 433.358 56.332 434.62 56.517 435.477 56.693 436.447 56.892 437.754 57.236 438.263 57.37 439.885 57.892 440.063 57.949 441.082 58.338 441.73 58.588 441.82 58.623 443.231 59.257 443.519 59.386 443.864 59.564 445.178 60.239 446.167 60.815 446.789 61.177 447.588 61.699 448.347 62.194 449.234 62.84 449.844 63.285 450.306 63.659 451.274 64.444 452.383 65.439 452.631 65.662 453.81 66.836 453.909 66.935 453.984 67.017 454.819 67.939 455.096 68.252 456.059 69.469 456.166 69.605 456.279 69.765 457.141 70.991 457.795 72.045 458.017 72.402 458.243 72.821 458.79 73.832 459.192 74.699 459.458 75.271 459.716 75.934 460.02 76.712 460.265 77.489 460.473 78.148 460.609 78.709 460.818 79.57 460.895 80.028 461.053 80.97 461.152 82.038 461.18 82.342 461.197 83.487 461.199 83.679 461.189 83.84 461.113 84.972 460.959 85.98 460.917 86.215 460.622 87.303 460.596 87.4 460.555 87.508 460.173 88.526 460.081 88.715 459.654 89.59 459.217 90.3 459.041 90.586 458.802 90.9 458.339 91.509 457.89 91.993 457.553 92.355 457.121 92.738 456.689 93.12 456.289 93.411 455.75 93.802 455.398 94.01 454.743 94.397 454.453 94.534 453.674 94.902 452.688 95.266 452.549 95.317 452.423 95.351 451.373 95.638 451.35 95.642 451.112 95.687 450.131 95.856 449.052 95.96 448.844 95.98 447.864 96.002 447.525 96.009 446.658 95.969 446.179 95.946 445.442 95.861 444.814 95.789 444.219 95.681 443.435 95.539 442.996 95.431 442.049 95.198 441.777 95.113 440.663 94.765 439.945 94.494 439.356 94.271 439.266 94.237 438.144 93.738 437.864 93.614 436.956 93.149 436.48 92.906 435.796 92.508 435.12 92.114 434.667 91.817 433.79 91.243 433.572 91.083 432.595 90.366 432.493 90.292 431.458 89.458 431.199 89.249 430.759 88.855 429.953 88.134 429.098 87.285 428.76 86.949 427.945 86.051 427.611 85.693 426.833 84.769 426.489 84.36 425.795 83.441 425.436 82.967 425.272 82.724 424.85 82.1 424.549 81.675 424.433 81.511 423.858 80.601 423.471 79.989 423.214 79.528 422.662 78.543 422.587 78.416 422.518 78.286 421.725 76.779 421.049 75.307 420.981 75.171 420.944 75.097 420.493 74.061 420.189 73.361 420.041 72.964 419.801 72.321 419.494 71.584 419.202 70.761 418.848 69.767 418.777 69.527 418.448 68.567 418.226 67.917 417.923 66.854 417.652 66.041 417.444 65.287 417.165 64.277 417.14 64.199 417.121 64.141 417.006 63.711 416.61 62.23 416.563 62.024 416.503 61.755 416.279 60.934 416.106 60.302 416.012 59.84 415.892 59.252 415.805 58.901" style="fill:none;stroke:#3f82c4;stroke-miterlimit:10"/><polyline points="333.168 51.379 332.886 51.655 332.474 52.008 331.983 52.48 331.202 53.23 330.635 53.842 329.999 54.528 329.26 55.426 328.87 55.899 328.052 57.02 327.821 57.336 327.656 57.594 326.858 58.834 326.12 60.148 325.992 60.386 325.324 61.818 325.25 61.976 325.175 62.167 324.607 63.605 324.209 64.828 324.066 65.266 323.78 66.373 323.63 66.952 323.497 67.638 323.301 68.655 323.19 69.516 323.08 70.368 323.033 71.101 322.97 72.083 322.971 73.233 322.971 73.795 323.056 75.086 323.083 75.495 323.128 75.838 323.305 77.176 323.615 78.726 323.636 78.832 323.66 78.921 323.952 79.999 324.086 80.455 324.101 80.497 324.663 82.032 325.221 83.287 325.342 83.561 325.51 83.878 326.119 85.035 326.698 85.974 326.992 86.45 327.553 87.237 327.955 87.801 328.482 88.443 329.006 89.081 329.693 89.813 330.139 90.288 330.998 91.089 331.35 91.416 331.665 91.673 332.633 92.463 332.843 92.612 333.984 93.425 334.888 93.985 335.409 94.298 336.714 94.973 336.913 95.076 338.103 95.6 338.464 95.759 338.951 95.939 340.058 96.347 340.783 96.566 341.688 96.838 342.671 97.072 343.348 97.233 344.607 97.455 345.032 97.53 346.586 97.712 346.733 97.73 347.589 97.781 348.47 97.831 349.868 97.834 350.234 97.835 350.78 97.806 351.997 97.744 352.938 97.645 353.754 97.56 355.115 97.346 355.498 97.286 355.76 97.231 356.936 96.985 357.179 96.935 357.233 96.924 358.608 96.571 358.992 96.473 359.658 96.268 360.724 95.94 361.354 95.714 362.422 95.331 363.471 94.899 363.959 94.704 364.107 94.645 364.411 94.508 365.795 93.886 366.476 93.544 367.437 93.063 368.248 92.614 369.069 92.175 369.99 91.638 370.69 91.23 371.951 90.431 372.275 90.234 372.604 90.019 373.876 89.186 374.973 88.418 375.277 88.213 375.449 88.097 376.278 87.507 377.035 86.967 377.243 86.811 377.56 86.572 378.203 86.106 378.627 85.799 379.147 85.405 379.864 84.861 380.22 84.601 381.362 83.735 381.841 83.372 381.977 83.266 382.807 82.634 383.498 82.107 383.694 81.956 383.915 81.784 385.169 80.821 385.853 80.291 386.387 79.88 386.876 79.503 387.283 79.19 387.712 78.86 388.62 78.159 389.52 77.471 390.377 76.803 391.325 76.077 392.176 75.406 393.132 74.682 394.02 73.98 394.477 73.63 394.957 73.263 395.772 72.607 396.816 71.808 397.198 71.498 397.563 71.201 398.727 70.309 399.34 69.807 399.977 69.319 400.714 68.754 400.921 68.583 401.101 68.435 401.864 67.853 402.806 67.133 402.85 67.097 403.789 66.386 404.572 65.793 405.058 65.457 406.276 64.545 406.771 64.209 407.529 63.694 407.803 63.494 407.982 63.362 408.725 62.873 409.678 62.246 410.327 61.866 410.995 61.444 411.37 61.206 412.102 60.799 413.083 60.253 413.254 60.17 413.617 59.994 414.789 59.384 415.723 58.966 415.82 58.923" style="fill:none;stroke:#3f82c4;stroke-miterlimit:10"/><line x1="329.678" y1="89.796" x2="325.197" y2="96.535" style="fill:none;stroke:#c91517;stroke-linecap:round;stroke-linejoin:round;stroke-width:0.5px;opacity:0.4"/><line x1="333.168" y1="51.379" x2="329.839" y2="46.01" style="fill:none;stroke:#c91517;stroke-linecap:round;stroke-linejoin:round;stroke-width:0.5px;opacity:0.4"/><line x1="415.202" y1="24.773" x2="409.221" y2="18.318" style="fill:none;stroke:#c91517;stroke-linecap:round;stroke-linejoin:round;stroke-width:0.5px;opacity:0.4"/><line x1="414.455" y1="52.249" x2="407.674" y2="51.644" style="fill:none;stroke:#c91517;stroke-linecap:round;stroke-linejoin:round;stroke-width:0.5px;opacity:0.4"/><line x1="430.266" y1="88.407" x2="424.661" y2="91.237" style="fill:none;stroke:#c91517;stroke-linecap:round;stroke-linejoin:round;stroke-width:0.5px"/><line x1="459.781" y1="89.328" x2="452.104" y2="93.122" style="fill:none;stroke:#c91517;stroke-linecap:round;stroke-linejoin:round;stroke-width:0.5px;opacity:0.4"/><line x1="440.838" y1="58.246" x2="436.829" y2="67.736" style="fill:none;stroke:#c91517;stroke-linecap:round;stroke-linejoin:round;stroke-width:0.5px;opacity:0.4"/><line x1="401.215" y1="68.348" x2="404.711" y2="76.374" style="fill:none;stroke:#c91517;stroke-linecap:round;stroke-linejoin:round;stroke-width:0.5px;opacity:0.4"/><line x1="368.826" y1="92.306" x2="371.718" y2="100.345" style="fill:none;stroke:#c91517;stroke-linecap:round;stroke-linejoin:round;stroke-width:0.5px;opacity:0.4"/><line x1="329.678" y1="89.796" x2="323.397" y2="92.675" style="fill:none;stroke:#037534;stroke-linecap:round;stroke-linejoin:round;stroke-width:0.5px;opacity:0.4"/><line x1="333.168" y1="51.379" x2="326.925" y2="46.011" style="fill:none;stroke:#037534;stroke-linecap:round;stroke-linejoin:round;stroke-width:0.5px;opacity:0.4"/><line x1="415.202" y1="24.773" x2="421.663" y2="18.809" style="fill:none;stroke:#037534;stroke-linecap:round;stroke-linejoin:round;stroke-width:0.5px;opacity:0.4"/><line x1="414.455" y1="52.249" x2="420.963" y2="49.527" style="fill:none;stroke:#037534;stroke-linecap:round;stroke-linejoin:round;stroke-width:0.5px;opacity:0.4"/><line x1="430.266" y1="88.407" x2="434.351" y2="81.644" style="fill:none;stroke:#037534;stroke-linecap:round;stroke-linejoin:round;stroke-width:0.5px"/><line x1="459.781" y1="89.328" x2="453.251" y2="82.054" style="fill:none;stroke:#037534;stroke-linecap:round;stroke-linejoin:round;stroke-width:0.5px;opacity:0.4"/><line x1="440.838" y1="58.246" x2="440.409" y2="61.575" style="fill:none;stroke:#037534;stroke-linecap:round;stroke-linejoin:round;stroke-width:0.5px;opacity:0.4"/><line x1="401.215" y1="68.348" x2="407.013" y2="71.233" style="fill:none;stroke:#037534;stroke-linecap:round;stroke-linejoin:round;stroke-width:0.5px;opacity:0.4"/><line x1="368.826" y1="92.306" x2="372.906" y2="96.011" style="fill:none;stroke:#037534;stroke-linecap:round;stroke-linejoin:round;stroke-width:0.5px;opacity:0.4"/><line x1="329.678" y1="89.796" x2="336.236" y2="96.762" style="fill:none;stroke:#2a4d9c;stroke-linecap:round;stroke-linejoin:round;stroke-width:0.5px"/><line x1="333.168" y1="51.379" x2="325.668" y2="58.253" style="fill:none;stroke:#2a4d9c;stroke-linecap:round;stroke-linejoin:round;stroke-width:0.5px"/><line x1="415.202" y1="24.773" x2="416.319" y2="23.165" style="fill:none;stroke:#2a4d9c;stroke-linecap:round;stroke-linejoin:round;stroke-width:0.5px"/><line x1="414.455" y1="52.249" x2="413.013" y2="43.374" style="fill:none;stroke:#2a4d9c;stroke-linecap:round;stroke-linejoin:round;stroke-width:0.5px"/><line x1="430.266" y1="88.407" x2="423.551" y2="82.168" style="fill:none;stroke:#2a4d9c;stroke-linecap:round;stroke-linejoin:round;stroke-width:0.5px"/><line x1="459.781" y1="89.328" x2="456.792" y2="95.448" style="fill:none;stroke:#2a4d9c;stroke-linecap:round;stroke-linejoin:round;stroke-width:0.5px"/><line x1="440.838" y1="58.246" x2="450.964" y2="62.12" style="fill:none;stroke:#2a4d9c;stroke-linecap:round;stroke-linejoin:round;stroke-width:0.5px"/><line x1="401.215" y1="68.348" x2="408.931" y2="62.454" style="fill:none;stroke:#2a4d9c;stroke-linecap:round;stroke-linejoin:round;stroke-width:0.5px"/><line x1="368.826" y1="92.306" x2="377.351" y2="87.723" style="fill:none;stroke:#2a4d9c;stroke-linecap:round;stroke-linejoin:round;stroke-width:0.5px"/><text transform="translate(76.923 137.415)" style="font-size:9px;fill:#1d1d1b;font-family:TimesNewRomanPS-ItalicMT, Times New Roman;font-style:italic">(a)</text><text transform="translate(246.58 186.415)" style="font-size:9px;fill:#1d1d1b;font-family:TimesNewRomanPS-ItalicMT, Times New Roman;font-style:italic">(b)</text><text transform="translate(387.091 137.415)" style="font-size:9px;fill:#1d1d1b;font-family:TimesNewRomanPS-ItalicMT, Times New Roman;font-style:italic">(c)</text></svg>