<svg xmlns="http://www.w3.org/2000/svg" xmlns:xlink="http://www.w3.org/1999/xlink" viewBox="0 0 482.087 198.425"><defs><clipPath id="a"><polygon points="261.475 70.311 234.586 43.422 220.612 69.982 235.244 96.542 261.475 70.311" style="fill:none"/></clipPath><radialGradient id="b" cx="261.937" cy="70.803" r="34.599" gradientUnits="userSpaceOnUse"><stop offset="0" stop-color="#c1962b"/><stop offset="0.174" stop-color="#c1962b" stop-opacity="0.985"/><stop offset="0.3" stop-color="#c1962b" stop-opacity="0.937"/><stop offset="0.41" stop-color="#c1962b" stop-opacity="0.855"/><stop offset="0.511" stop-color="#c1962b" stop-opacity="0.74"/><stop offset="0.54" stop-color="#c1962b" stop-opacity="0.7"/><stop offset="0.609" stop-color="#c7a03f" stop-opacity="0.634"/><stop offset="0.735" stop-color="#d6ba74" stop-opacity="0.458"/><stop offset="0.904" stop-color="#efe4c9" stop-opacity="0.177"/><stop offset="1" stop-color="#fff" stop-opacity="0"/></radialGradient></defs><title>Diagram-BestFitGeodesic</title><text transform="translate(223.501 88.832)" style="font-size:9px;fill:#1d1d1b;font-family:TimesNewRomanPS-ItalicMT, Times New Roman;font-style:italic">θ</text><path d="M236.922,94.693a36.38,36.38,0,0,1,.48-48.277" style="fill:none;stroke:#000;stroke-miterlimit:10;stroke-width:0.25px"/><rect x="236.112" y="94.561" width="1.625" height="0.25" transform="matrix(0.786, -0.618, 0.618, 0.786, -7.893, 166.543)"/><rect x="237.282" y="45.607" width="0.25" height="1.625" transform="translate(51.138 200.76) rotate(-50.708)"/><g style="clip-path:url(#a)"><circle cx="261.937" cy="70.803" r="34.599" style="opacity:0.41000000000000003;fill:url(#b)"/></g><polygon points="75.576 159.938 42.633 65.708 76.518 159.603 75.576 159.938" style="fill:#3f82c4"/><polygon points="166.03 136.432 150.344 37.85 167.017 136.27 166.03 136.432" style="fill:#3f82c4"/><polygon points="212.488 131.012 206.362 31.378 213.486 130.946 212.488 131.012" style="fill:#3f82c4"/><polygon points="259.252 130.233 263.368 30.495 260.252 130.269 259.252 130.233" style="fill:#3f82c4"/><polygon points="305.852 134.244 319.932 35.419 306.842 134.38 305.852 134.244" style="fill:#3f82c4"/><polygon points="351.844 142.759 375.159 45.697 352.818 142.988 351.844 142.759" style="fill:#3f82c4"/><polygon points="396.863 155.456 428.769 60.87 397.813 155.77 396.863 155.456" style="fill:#3f82c4"/><polygon points="120.28 146.169 95.69 49.423 121.248 145.918 120.28 146.169" style="fill:#3f82c4"/><g style="opacity:0.61"><path d="M105.615,80.736A20.821,20.821,0,0,1,106.2,84.2a36.376,36.376,0,0,1,0,6.932,20.631,20.631,0,0,1-.586,3.466,20.73,20.73,0,0,1-.585-3.466,33.8,33.8,0,0,1-.164-3.466,34.351,34.351,0,0,1,.166-3.466A21.03,21.03,0,0,1,105.615,80.736Z" style="fill:#b2b2b2"/><path d="M202.053,70.8a20.9,20.9,0,0,1,3.466-.583,34.648,34.648,0,0,1,3.466-.167,34.087,34.087,0,0,1,3.466.165,20.73,20.73,0,0,1,3.466.585,20.628,20.628,0,0,1-3.466.585,34.087,34.087,0,0,1-3.466.165,34.648,34.648,0,0,1-3.466-.167A20.9,20.9,0,0,1,202.053,70.8Z" style="fill:#b2b2b2"/><path d="M55.859,96.009a20.827,20.827,0,0,1,.583,3.466,34.381,34.381,0,0,1,.167,3.466,34.058,34.058,0,0,1-.164,3.466,20.626,20.626,0,0,1-.586,3.467,20.725,20.725,0,0,1-.585-3.467,33.772,33.772,0,0,1-.164-3.466,34.675,34.675,0,0,1,.166-3.466A21.036,21.036,0,0,1,55.859,96.009Z" style="fill:#b2b2b2"/><path d="M48.927,102.941a21.036,21.036,0,0,1,3.466-.583,34.675,34.675,0,0,1,3.466-.166,33.772,33.772,0,0,1,3.466.164,20.7,20.7,0,0,1,3.466.585,20.6,20.6,0,0,1-3.466.586,36.376,36.376,0,0,1-6.932,0A20.827,20.827,0,0,1,48.927,102.941Z" style="fill:#b2b2b2"/><path d="M149.817,76.84a20.793,20.793,0,0,1,3.466-.583,36.376,36.376,0,0,1,6.932,0,20.733,20.733,0,0,1,3.466.586,20.73,20.73,0,0,1-3.466.585,34.087,34.087,0,0,1-3.466.165,34.648,34.648,0,0,1-3.466-.167A21,21,0,0,1,149.817,76.84Z" style="fill:#b2b2b2"/><path d="M156.749,69.908a21,21,0,0,1,.583,3.466,34.647,34.647,0,0,1,.166,3.466,33.8,33.8,0,0,1-.164,3.466,20.73,20.73,0,0,1-.585,3.466,20.631,20.631,0,0,1-.586-3.466,36.376,36.376,0,0,1,0-6.932A20.793,20.793,0,0,1,156.749,69.908Z" style="fill:#b2b2b2"/><path d="M208.985,63.871a21.018,21.018,0,0,1,.583,3.466,34.661,34.661,0,0,1,.166,3.466,33.786,33.786,0,0,1-.164,3.466,20.713,20.713,0,0,1-.585,3.466,20.614,20.614,0,0,1-.586-3.466,36.376,36.376,0,0,1,0-6.932A20.81,20.81,0,0,1,208.985,63.871Z" style="fill:#b2b2b2"/><path d="M307.623,74.564a21,21,0,0,1,3.466-.583,34.351,34.351,0,0,1,3.466-.166,33.8,33.8,0,0,1,3.466.164,20.73,20.73,0,0,1,3.466.585,20.631,20.631,0,0,1-3.466.586,36.376,36.376,0,0,1-6.932,0A20.793,20.793,0,0,1,307.623,74.564Z" style="fill:#b2b2b2"/><path d="M314.555,67.632a21.036,21.036,0,0,1,.583,3.466,34.675,34.675,0,0,1,.166,3.466,33.772,33.772,0,0,1-.164,3.466,20.7,20.7,0,0,1-.585,3.466,20.6,20.6,0,0,1-.586-3.466,36.376,36.376,0,0,1,0-6.932A20.827,20.827,0,0,1,314.555,67.632Z" style="fill:#b2b2b2"/><path d="M359.191,84.163a20.793,20.793,0,0,1,3.466-.583,36.267,36.267,0,0,1,6.932,0,20.628,20.628,0,0,1,3.466.585,20.73,20.73,0,0,1-3.466.585,34.087,34.087,0,0,1-3.466.165,34.648,34.648,0,0,1-3.466-.167A20.9,20.9,0,0,1,359.191,84.163Z" style="fill:#b2b2b2"/><path d="M409.4,98.372a20.9,20.9,0,0,1,3.466-.583,34.648,34.648,0,0,1,3.466-.167,34.087,34.087,0,0,1,3.466.165,20.73,20.73,0,0,1,3.466.585,20.628,20.628,0,0,1-3.466.585,36.267,36.267,0,0,1-6.932,0A20.793,20.793,0,0,1,409.4,98.372Z" style="fill:#b2b2b2"/><path d="M366.123,77.231a20.9,20.9,0,0,1,.583,3.466,34.648,34.648,0,0,1,.167,3.466,34.087,34.087,0,0,1-.165,3.466,20.73,20.73,0,0,1-.585,3.466,20.628,20.628,0,0,1-.585-3.466,36.267,36.267,0,0,1,0-6.932A20.793,20.793,0,0,1,366.123,77.231Z" style="fill:#b2b2b2"/><path d="M98.683,87.669a20.827,20.827,0,0,1,3.466-.583,36.376,36.376,0,0,1,6.932,0,20.6,20.6,0,0,1,3.466.586,20.7,20.7,0,0,1-3.466.585,33.772,33.772,0,0,1-3.466.164,34.675,34.675,0,0,1-3.466-.166A21.036,21.036,0,0,1,98.683,87.669Z" style="fill:#b2b2b2"/><path d="M416.328,91.44a20.914,20.914,0,0,1,.583,3.466,34.677,34.677,0,0,1,.167,3.466,34.059,34.059,0,0,1-.165,3.466,20.7,20.7,0,0,1-.585,3.466,20.594,20.594,0,0,1-.585-3.466,36.267,36.267,0,0,1,0-6.932A20.81,20.81,0,0,1,416.328,91.44Z" style="fill:#b2b2b2"/></g><path d="M261.937,69.982l-102.444-4.51a.495.495,0,1,1,.044-.989h0Z" style="fill:#c91517"/><polygon points="163.026 61.055 163.672 61.819 159.901 64.996 163.344 68.525 162.627 69.224 158.434 64.924 163.026 61.055" style="fill:#c91517"/><path d="M447.788,108.358A667.086,667.086,0,0,0,346.332,80.346,598.968,598.968,0,0,0,241.668,69.61q-26.333-.371-52.632,1.535c-17.513,1.264-34.966,3.313-52.311,6.024s-34.58,6.128-51.657,10.2c-8.545,2.012-17.032,4.259-25.492,6.6-4.214,1.225-8.442,2.4-12.646,3.667l-6.286,1.954a33.09,33.09,0,0,1-6.386,1.646,33.031,33.031,0,0,1,6.2-2.259l6.294-1.95c4.209-1.26,8.442-2.436,12.661-3.659,8.47-2.335,16.967-4.576,25.521-6.582q25.646-6.089,51.712-10.159C154,73.931,171.472,71.9,189,70.648s35.107-1.75,52.675-1.486A599.343,599.343,0,0,1,346.4,80.005a667.406,667.406,0,0,1,101.474,28.121Z" style="fill:#1d1d1b"/><path d="M75.948,159.492a526.29,526.29,0,0,1,87.744-23.083A462.521,462.521,0,0,1,344.2,140.732a527.85,527.85,0,0,1,86.521,27.2,527.492,527.492,0,0,0-86.653-26.593,486.881,486.881,0,0,0-89.924-10.786,478.013,478.013,0,0,0-90.306,6.7,525.513,525.513,0,0,0-87.689,22.8Z" style="fill:#1d1d1b"/><path d="M261.937,63.05a33.143,33.143,0,0,1,.649,6.932c-.011,1.155-.039,2.311-.142,3.466a23.652,23.652,0,0,1-.507,3.466,23.518,23.518,0,0,1-.507-3.466c-.1-1.155-.131-2.311-.143-3.466A33.144,33.144,0,0,1,261.937,63.05Z" style="fill:#c91517"/><path d="M255.005,69.982a33.138,33.138,0,0,1,6.932-.65c1.155.012,2.311.039,3.466.143a23.518,23.518,0,0,1,3.466.507,23.518,23.518,0,0,1-3.466.507c-1.155.1-2.311.131-3.466.143A33.138,33.138,0,0,1,255.005,69.982Z" style="fill:#c91517"/><line x1="60.195" y1="99.89" x2="58.485" y2="95.074" style="fill:none;stroke:#000;stroke-miterlimit:10;stroke-width:0.4px"/><path d="M60.142,99.738a2.95,2.95,0,0,0-1.926.012,5.443,5.443,0,0,1,2.456,1.482,5.74,5.74,0,0,1,.971-2.7A3.042,3.042,0,0,0,60.142,99.738Z"/><path d="M58.539,95.226a2.954,2.954,0,0,1-1.5,1.206,5.459,5.459,0,0,0,.97-2.7,5.75,5.75,0,0,0,2.456,1.483A3.055,3.055,0,0,1,58.539,95.226Z"/><line x1="264.195" y1="128.896" x2="266.276" y2="71.473" style="fill:none;stroke:#000;stroke-miterlimit:10;stroke-width:0.4px"/><path d="M264.2,128.735a2.952,2.952,0,0,0-1.794-.7,5.439,5.439,0,0,1,1.736,2.283,5.765,5.765,0,0,1,1.9-2.152A3.052,3.052,0,0,0,264.2,128.735Z"/><path d="M266.271,71.634a2.951,2.951,0,0,1-1.84.567,5.458,5.458,0,0,0,1.9-2.151,5.766,5.766,0,0,0,1.736,2.283A3.056,3.056,0,0,1,266.271,71.634Z"/><text transform="translate(267.337 98.506)" style="font-size:9px;fill:#1d1d1b;font-family:TimesNewRomanPS-ItalicMT, Times New Roman;font-style:italic">w</text><text transform="translate(62.96 99.412)" style="font-size:9px;fill:#1d1d1b;font-family:TimesNewRomanPS-ItalicMT, Times New Roman;font-style:italic">ε</text><text transform="translate(291.504 68.226)" style="font-size:9px;fill:#1d1d1b;font-family:TimesNewRomanPS-ItalicMT, Times New Roman;font-style:italic">g</text><text transform="translate(296.004 70.557) scale(0.583)" style="font-size:7px;fill:#1d1d1b;font-family:TimesNewRomanPS-ItalicMT, Times New Roman;font-style:italic">+</text><text transform="translate(275.683 140.56)" style="font-size:9px;fill:#1d1d1b;font-family:TimesNewRomanPS-ItalicMT, Times New Roman;font-style:italic">g</text><text transform="translate(252.766 64.644)" style="font-size:9px;fill:#1d1d1b;font-family:TimesNewRomanPS-ItalicMT, Times New Roman;font-style:italic">p</text><text transform="translate(257.266 66.975) scale(0.583)" style="font-size:7px;fill:#1d1d1b;font-family:TimesNewRomanPS-ItalicMT, Times New Roman;font-style:italic">i</text><text transform="translate(166.524 61.458)" style="font-size:9px;fill:#1d1d1b;font-family:TimesNewRomanPS-BoldMT, Times New Roman;font-weight:700">v</text><text transform="translate(171.024 63.789) scale(0.583)" style="font-size:7px;fill:#1d1d1b;font-family:TimesNewRomanPS-ItalicMT, Times New Roman;font-style:italic">i</text><text transform="translate(424.957 96.693)" style="font-size:9px;fill:#1d1d1b;font-family:TimesNewRomanPS-ItalicMT, Times New Roman;font-style:italic">p</text><text transform="translate(429.457 99.024) scale(0.583)" style="font-size:7px;fill:#1d1d1b;font-family:TimesNewRomanPS-ItalicMT, Times New Roman;font-style:italic">0</text><text transform="translate(42.68 91.166)" style="font-size:9px;fill:#1d1d1b;font-family:TimesNewRomanPS-ItalicMT, Times New Roman;font-style:italic">p</text><text transform="translate(47.18 93.497) scale(0.583)" style="font-size:7px;fill:#1d1d1b;font-family:TimesNewRomanPS-ItalicMT, Times New Roman;font-style:italic">N</text><line x1="67.542" y1="97.185" x2="69.727" y2="36.903" style="fill:none"/></svg>