<svg xmlns="http://www.w3.org/2000/svg" viewBox="0 0 482.09 198.43"><defs><style>.cls-1{fill:#3f82c4;}.cls-2{opacity:0.61;}.cls-3{fill:#b2b2b2;}.cls-4{fill:#c91517;}.cls-5,.cls-7,.cls-8,.cls-9{fill:#1d1d1b;}.cls-10,.cls-6{fill:none;}.cls-6{stroke:#000;stroke-miterlimit:10;stroke-width:0.4px;}.cls-7,.cls-9{font-size:9px;}.cls-7,.cls-8{font-family:TimesNewRomanPS-ItalicMT, Times New Roman;font-style:italic;}.cls-8{font-size:7px;}.cls-9{font-family:TimesNewRomanPS-BoldMT, Times New Roman;font-weight:700;}</style></defs><title>Diagram-BestFitGeodesic</title><g id="Best_Fit_Geodesic_Diagram" data-name="Best Fit Geodesic Diagram"><g id="PerpGs"><polygon class="cls-1" points="75.58 159.94 42.63 65.71 76.52 159.6 75.58 159.94"/><polygon class="cls-1" points="166.03 136.43 150.34 37.85 167.02 136.27 166.03 136.43"/><polygon class="cls-1" points="212.49 131.01 206.36 31.38 213.49 130.95 212.49 131.01"/><polygon class="cls-1" points="259.25 130.23 263.37 30.5 260.25 130.27 259.25 130.23"/><polygon class="cls-1" points="305.85 134.24 319.93 35.42 306.84 134.38 305.85 134.24"/><polygon class="cls-1" points="351.84 142.76 375.16 45.7 352.82 142.99 351.84 142.76"/><polygon class="cls-1" points="396.86 155.46 428.77 60.87 397.81 155.77 396.86 155.46"/><polygon class="cls-1" points="120.28 146.17 95.69 49.42 121.25 145.92 120.28 146.17"/></g><g id="RefPts" class="cls-2"><path class="cls-3" d="M105.62,80.74a20.84,20.84,0,0,1,.58,3.46c.12,1.16.16,2.31.17,3.47s-.05,2.31-.17,3.46a20.78,20.78,0,0,1-.58,3.47,19.83,19.83,0,0,1-.59-3.47,37.6,37.6,0,0,1,0-6.93A19.88,19.88,0,0,1,105.62,80.74Z"/><path class="cls-3" d="M202.05,70.8a21,21,0,0,1,3.47-.58c1.15-.12,2.31-.16,3.46-.17a33.45,33.45,0,0,1,3.47.17,21,21,0,0,1,3.47.58,20,20,0,0,1-3.47.59,37.6,37.6,0,0,1-6.93,0A21,21,0,0,1,202.05,70.8Z"/><path class="cls-3" d="M55.86,96a20.78,20.78,0,0,1,.58,3.47,35.4,35.4,0,0,1,0,6.93,20.84,20.84,0,0,1-.58,3.46,20.87,20.87,0,0,1-.59-3.46c-.11-1.16-.16-2.31-.16-3.47a33.4,33.4,0,0,1,.17-3.46A20.78,20.78,0,0,1,55.86,96Z"/><path class="cls-3" d="M48.93,102.94a20.84,20.84,0,0,1,3.46-.58,35.5,35.5,0,0,1,6.94,0,20.84,20.84,0,0,1,3.46.58,20.87,20.87,0,0,1-3.46.59,36.57,36.57,0,0,1-6.94,0A20.84,20.84,0,0,1,48.93,102.94Z"/><path class="cls-3" d="M149.82,76.84a20.84,20.84,0,0,1,3.46-.58,33.59,33.59,0,0,1,3.47-.17c1.15,0,2.31,0,3.46.16a20.8,20.8,0,0,1,3.47.59,19.8,19.8,0,0,1-3.47.58,35.4,35.4,0,0,1-6.93,0A20.84,20.84,0,0,1,149.82,76.84Z"/><path class="cls-3" d="M156.75,69.91a20.84,20.84,0,0,1,.58,3.46,35.5,35.5,0,0,1,0,6.94,20.84,20.84,0,0,1-.58,3.46,20.87,20.87,0,0,1-.59-3.46,36.57,36.57,0,0,1,0-6.94A20.84,20.84,0,0,1,156.75,69.91Z"/><path class="cls-3" d="M209,63.87a20,20,0,0,1,.59,3.47,37.6,37.6,0,0,1,0,6.93,20.15,20.15,0,0,1-.59,3.47,21.13,21.13,0,0,1-.58-3.47c-.12-1.16-.16-2.31-.17-3.47s.05-2.31.17-3.46A21,21,0,0,1,209,63.87Z"/><path class="cls-3" d="M307.62,74.56a21,21,0,0,1,3.47-.58c1.15-.12,2.31-.16,3.46-.17s2.32,0,3.47.17a21,21,0,0,1,3.47.58,20,20,0,0,1-3.47.59,37.6,37.6,0,0,1-6.93,0A21,21,0,0,1,307.62,74.56Z"/><path class="cls-3" d="M314.55,67.63a21,21,0,0,1,.59,3.47,37.6,37.6,0,0,1,0,6.93,20,20,0,0,1-.59,3.47A21,21,0,0,1,314,78c-.12-1.16-.16-2.31-.17-3.47s.05-2.31.17-3.46A21,21,0,0,1,314.55,67.63Z"/><path class="cls-3" d="M359.19,84.16a21,21,0,0,1,3.47-.58c1.15-.12,2.31-.16,3.46-.17a33.59,33.59,0,0,1,3.47.17,20.84,20.84,0,0,1,3.46.58,19.88,19.88,0,0,1-3.46.59,37.6,37.6,0,0,1-6.93,0A21,21,0,0,1,359.19,84.16Z"/><path class="cls-3" d="M409.4,98.37a20.84,20.84,0,0,1,3.46-.58c1.16-.12,2.31-.16,3.47-.17a33.4,33.4,0,0,1,3.46.17,21,21,0,0,1,3.47.58,21,21,0,0,1-3.47.59,33.38,33.38,0,0,1-3.46.16c-1.16,0-2.31-.05-3.47-.16A22,22,0,0,1,409.4,98.37Z"/><path class="cls-3" d="M366.12,77.23a21,21,0,0,1,.59,3.47,37.6,37.6,0,0,1,0,6.93,19.88,19.88,0,0,1-.59,3.46,20.84,20.84,0,0,1-.58-3.46,33.59,33.59,0,0,1-.17-3.47c0-1.15.05-2.31.17-3.46A21,21,0,0,1,366.12,77.23Z"/><path class="cls-3" d="M98.68,87.67a21,21,0,0,1,3.47-.58,36.47,36.47,0,0,1,6.93,0,21,21,0,0,1,3.47.59,21,21,0,0,1-3.47.58,35.4,35.4,0,0,1-6.93,0A21,21,0,0,1,98.68,87.67Z"/><path class="cls-3" d="M416.33,91.44a21,21,0,0,1,.58,3.47c.12,1.15.16,2.31.17,3.46a33.59,33.59,0,0,1-.17,3.47,20.84,20.84,0,0,1-.58,3.46,20.87,20.87,0,0,1-.59-3.46,33.58,33.58,0,0,1-.16-3.47c0-1.15.05-2.31.16-3.46A22.08,22.08,0,0,1,416.33,91.44Z"/></g><g id="StartV"><path class="cls-4" d="M261.94,70,159.49,65.47a.5.5,0,0,1,0-1h0Z"/><polygon class="cls-4" points="163.03 61.05 163.67 61.82 159.9 65 163.34 68.53 162.63 69.22 158.43 64.92 163.03 61.05"/></g><g id="NewG"><path class="cls-5" d="M447.79,108.36a666.63,666.63,0,0,0-101.46-28A598.08,598.08,0,0,0,241.67,69.61q-26.34-.37-52.63,1.53c-17.52,1.27-35,3.32-52.31,6s-34.58,6.13-51.66,10.2c-8.55,2-17,4.26-25.49,6.6-4.22,1.22-8.45,2.4-12.65,3.67l-6.29,2a33,33,0,0,1-6.38,1.65A32.36,32.36,0,0,1,40.45,99l6.3-2c4.21-1.26,8.44-2.44,12.66-3.66,8.47-2.34,17-4.58,25.52-6.58q25.65-6.09,51.71-10.16c17.36-2.7,34.83-4.73,52.36-6s35.11-1.75,52.67-1.49A598.8,598.8,0,0,1,346.4,80a665.66,665.66,0,0,1,101.47,28.12Z"/></g><g id="MainG"><path class="cls-5" d="M76,159.49a527.34,527.34,0,0,1,87.74-23.08,462.73,462.73,0,0,1,180.51,4.32,529,529,0,0,1,86.52,27.2,527.5,527.5,0,0,0-86.65-26.59,487,487,0,0,0-89.93-10.79,478.58,478.58,0,0,0-90.31,6.7,525.63,525.63,0,0,0-87.68,22.8Z"/></g><g id="StartPt"><path class="cls-4" d="M261.94,63.05a33.88,33.88,0,0,1,.65,6.93c0,1.16,0,2.31-.15,3.47a22.9,22.9,0,0,1-.5,3.46,22.93,22.93,0,0,1-.51-3.46c-.1-1.16-.13-2.31-.14-3.47A32.53,32.53,0,0,1,261.94,63.05Z"/><path class="cls-4" d="M255,70a33.35,33.35,0,0,1,6.94-.65c1.15,0,2.31,0,3.46.14a24.41,24.41,0,0,1,3.47.51,24.41,24.41,0,0,1-3.47.51c-1.15.1-2.31.13-3.46.14A33.35,33.35,0,0,1,255,70Z"/></g><g id="Arrows"><line class="cls-6" x1="60.2" y1="99.89" x2="58.48" y2="95.07"/><path d="M60.14,99.74a2.88,2.88,0,0,0-1.92,0,5.44,5.44,0,0,1,2.45,1.48,5.76,5.76,0,0,1,1-2.7A3.09,3.09,0,0,0,60.14,99.74Z"/><path d="M58.54,95.23a3,3,0,0,1-1.5,1.2,5.55,5.55,0,0,0,1-2.7,5.72,5.72,0,0,0,2.45,1.48A3.08,3.08,0,0,1,58.54,95.23Z"/><line class="cls-6" x1="264.19" y1="128.9" x2="266.28" y2="71.47"/><path d="M264.2,128.73a2.91,2.91,0,0,0-1.79-.69,5.35,5.35,0,0,1,1.73,2.28,5.78,5.78,0,0,1,1.9-2.15A3.06,3.06,0,0,0,264.2,128.73Z"/><path d="M266.27,71.63a2.88,2.88,0,0,1-1.84.57,5.41,5.41,0,0,0,1.9-2.15,5.78,5.78,0,0,0,1.73,2.28A3,3,0,0,1,266.27,71.63Z"/></g><g id="Text"><text class="cls-7" transform="translate(267.34 98.51)">w</text><text class="cls-7" transform="translate(62.96 99.41)">ε</text><text class="cls-7" transform="translate(291.5 68.23)">g</text><text class="cls-8" transform="translate(296 70.56) scale(0.58)">+</text><text class="cls-7" transform="translate(275.68 140.56)">g</text><text class="cls-7" transform="translate(252.77 64.64)">p</text><text class="cls-8" transform="translate(257.27 66.97) scale(0.58)">i</text><text class="cls-9" transform="translate(166.52 61.46)">v</text><text class="cls-8" transform="translate(171.02 63.79) scale(0.58)">i</text><text class="cls-7" transform="translate(424.96 96.69)">p</text><text class="cls-8" transform="translate(429.46 99.02) scale(0.58)">0</text><text class="cls-7" transform="translate(42.68 91.17)">p</text><text class="cls-8" transform="translate(47.18 93.5) scale(0.58)">N</text></g></g><g id="CuttyPTwithGeodesics"><line class="cls-10" x1="67.54" y1="97.19" x2="69.73" y2="36.9"/></g></svg>