<svg xmlns="http://www.w3.org/2000/svg" xmlns:xlink="http://www.w3.org/1999/xlink" viewBox="0 0 482.087 198.425"><defs><clipPath id="a"><polygon points="366.306 84.03 353.849 48.101 329.684 65.899 331.257 96.182 366.306 84.03" style="fill:none"/></clipPath><radialGradient id="b" cx="215.245" cy="-118.62" r="34.599" gradientTransform="matrix(0.9, 0.436, -0.436, 0.9, 121.073, 97.457)" gradientUnits="userSpaceOnUse"><stop offset="0" stop-color="#c1962b"/><stop offset="0.174" stop-color="#c1962b" stop-opacity="0.985"/><stop offset="0.3" stop-color="#c1962b" stop-opacity="0.937"/><stop offset="0.41" stop-color="#c1962b" stop-opacity="0.855"/><stop offset="0.511" stop-color="#c1962b" stop-opacity="0.74"/><stop offset="0.54" stop-color="#c1962b" stop-opacity="0.7"/><stop offset="0.609" stop-color="#c7a03f" stop-opacity="0.634"/><stop offset="0.735" stop-color="#d6ba74" stop-opacity="0.458"/><stop offset="0.904" stop-color="#efe4c9" stop-opacity="0.177"/><stop offset="1" stop-color="#fff" stop-opacity="0"/></radialGradient></defs><title>Diagram-PieceWiseGeodesic</title><g style="clip-path:url(#a)"><circle cx="366.507" cy="84.674" r="34.599" style="opacity:0.41000000000000003;fill:url(#b)"/></g><polygon points="75.576 159.938 42.633 65.708 76.518 159.603 75.576 159.938" style="fill:#3f82c4"/><polygon points="166.03 136.432 150.344 37.85 167.017 136.27 166.03 136.432" style="fill:#3f82c4"/><polygon points="212.488 131.012 206.362 31.378 213.486 130.946 212.488 131.012" style="fill:#3f82c4"/><polygon points="259.252 130.233 263.368 30.495 260.252 130.269 259.252 130.233" style="fill:#3f82c4"/><polygon points="305.852 134.244 319.932 35.419 306.842 134.38 305.852 134.244" style="fill:#3f82c4"/><polygon points="351.844 142.759 375.159 45.697 352.818 142.988 351.844 142.759" style="fill:#3f82c4"/><polygon points="396.863 155.456 428.769 60.87 397.813 155.77 396.863 155.456" style="fill:#3f82c4"/><polygon points="120.28 146.169 95.69 49.423 121.248 145.918 120.28 146.169" style="fill:#3f82c4"/><g style="opacity:0.61"><path d="M105.615,80.736A20.821,20.821,0,0,1,106.2,84.2a36.376,36.376,0,0,1,0,6.932,20.631,20.631,0,0,1-.586,3.466,20.73,20.73,0,0,1-.585-3.466,34.087,34.087,0,0,1-.165-3.466,34.648,34.648,0,0,1,.167-3.466A21.03,21.03,0,0,1,105.615,80.736Z" style="fill:#b2b2b2"/><path d="M202.053,70.8a20.9,20.9,0,0,1,3.466-.583,34.648,34.648,0,0,1,3.466-.167,34.087,34.087,0,0,1,3.466.165,20.73,20.73,0,0,1,3.466.585,20.628,20.628,0,0,1-3.466.585,34.087,34.087,0,0,1-3.466.165,34.648,34.648,0,0,1-3.466-.167A20.9,20.9,0,0,1,202.053,70.8Z" style="fill:#b2b2b2"/><path d="M55.859,96.009a20.827,20.827,0,0,1,.583,3.466,36.376,36.376,0,0,1,0,6.932,20.626,20.626,0,0,1-.586,3.467,20.725,20.725,0,0,1-.585-3.467,33.772,33.772,0,0,1-.164-3.466,34.675,34.675,0,0,1,.166-3.466A21.036,21.036,0,0,1,55.859,96.009Z" style="fill:#b2b2b2"/><path d="M48.927,102.941a21.036,21.036,0,0,1,3.466-.583,34.675,34.675,0,0,1,3.466-.166,33.772,33.772,0,0,1,3.466.164,20.7,20.7,0,0,1,3.466.585,20.6,20.6,0,0,1-3.466.586,36.376,36.376,0,0,1-6.932,0A20.827,20.827,0,0,1,48.927,102.941Z" style="fill:#b2b2b2"/><path d="M149.817,76.84a20.793,20.793,0,0,1,3.466-.583,36.376,36.376,0,0,1,6.932,0,20.733,20.733,0,0,1,3.466.586,20.73,20.73,0,0,1-3.466.585,34.087,34.087,0,0,1-3.466.165,34.648,34.648,0,0,1-3.466-.167A21,21,0,0,1,149.817,76.84Z" style="fill:#b2b2b2"/><path d="M156.749,69.908a21,21,0,0,1,.583,3.466,34.647,34.647,0,0,1,.166,3.466,33.8,33.8,0,0,1-.164,3.466,20.73,20.73,0,0,1-.585,3.466,20.631,20.631,0,0,1-.586-3.466,36.376,36.376,0,0,1,0-6.932A20.793,20.793,0,0,1,156.749,69.908Z" style="fill:#b2b2b2"/><path d="M208.985,63.871a21.018,21.018,0,0,1,.583,3.466,34.365,34.365,0,0,1,.166,3.466,33.786,33.786,0,0,1-.164,3.466,20.713,20.713,0,0,1-.585,3.466,20.614,20.614,0,0,1-.586-3.466,36.376,36.376,0,0,1,0-6.932A20.81,20.81,0,0,1,208.985,63.871Z" style="fill:#b2b2b2"/><path d="M307.623,74.564a21,21,0,0,1,3.466-.583,34.351,34.351,0,0,1,3.466-.166,33.8,33.8,0,0,1,3.466.164,20.73,20.73,0,0,1,3.466.585,20.631,20.631,0,0,1-3.466.586,36.376,36.376,0,0,1-6.932,0A20.793,20.793,0,0,1,307.623,74.564Z" style="fill:#b2b2b2"/><path d="M314.555,67.632a21.036,21.036,0,0,1,.583,3.466,34.675,34.675,0,0,1,.166,3.466,33.772,33.772,0,0,1-.164,3.466,20.7,20.7,0,0,1-.585,3.466,20.6,20.6,0,0,1-.586-3.466,36.376,36.376,0,0,1,0-6.932A20.827,20.827,0,0,1,314.555,67.632Z" style="fill:#b2b2b2"/><path d="M359.191,84.163a20.793,20.793,0,0,1,3.466-.583,36.267,36.267,0,0,1,6.932,0,20.628,20.628,0,0,1,3.466.585,20.73,20.73,0,0,1-3.466.585,34.087,34.087,0,0,1-3.466.165,34.648,34.648,0,0,1-3.466-.167A20.9,20.9,0,0,1,359.191,84.163Z" style="fill:#b2b2b2"/><path d="M409.4,98.372a20.914,20.914,0,0,1,3.466-.583,34.648,34.648,0,0,1,3.466-.167,34.073,34.073,0,0,1,3.466.165,20.73,20.73,0,0,1,3.466.585,20.628,20.628,0,0,1-3.466.585,36.267,36.267,0,0,1-6.932,0A20.81,20.81,0,0,1,409.4,98.372Z" style="fill:#b2b2b2"/><path d="M366.123,77.231a20.9,20.9,0,0,1,.583,3.466,34.648,34.648,0,0,1,.167,3.466,34.087,34.087,0,0,1-.165,3.466,20.73,20.73,0,0,1-.585,3.466,20.628,20.628,0,0,1-.585-3.466,36.267,36.267,0,0,1,0-6.932A20.793,20.793,0,0,1,366.123,77.231Z" style="fill:#b2b2b2"/><path d="M98.683,87.669a20.827,20.827,0,0,1,3.466-.583,36.376,36.376,0,0,1,6.932,0,20.6,20.6,0,0,1,3.466.586,20.7,20.7,0,0,1-3.466.585,33.772,33.772,0,0,1-3.466.164,34.675,34.675,0,0,1-3.466-.166A21.036,21.036,0,0,1,98.683,87.669Z" style="fill:#b2b2b2"/><path d="M416.328,91.44a21.018,21.018,0,0,1,.583,3.466,34.677,34.677,0,0,1,.167,3.466,34.059,34.059,0,0,1-.165,3.466,20.7,20.7,0,0,1-.585,3.466,20.594,20.594,0,0,1-.585-3.466,36.267,36.267,0,0,1,0-6.932A20.81,20.81,0,0,1,416.328,91.44Z" style="fill:#b2b2b2"/></g><path d="M366.306,84.03l-78.96-35.616a.494.494,0,1,1,.406-.9l0,0Z" style="fill:#c91517"/><polygon points="292.267 45.626 292.582 46.576 287.901 48.124 289.787 52.68 288.861 53.062 286.566 47.512 292.267 45.626" style="fill:#c91517"/><path d="M467.006,103.855A159.455,159.455,0,0,0,443.047,94a205.594,205.594,0,0,0-25.1-6.485,202.706,202.706,0,0,0-51.63-3.326l-.042,0-.038-.017a191.7,191.7,0,0,0-31.5-10.9,312.575,312.575,0,0,0-32.724-6.556,409.791,409.791,0,0,0-66.582-4.195,356.868,356.868,0,0,0-66.3,7.056,230.949,230.949,0,0,0-32.1,9.043A145.989,145.989,0,0,0,107.17,93.318l-.08.053-.1-.01a225.512,225.512,0,0,0-24.244-1.4c-4.049-.04-8.1.115-12.14.311-4.039.266-8.077.581-12.093,1.093a160.714,160.714,0,0,0-23.8,4.7c-3.893,1.095-7.748,2.337-11.518,3.8-1.889.72-3.75,1.51-5.588,2.346-.921.415-1.829.856-2.73,1.31a13.423,13.423,0,0,1-2.817,1.164,8.519,8.519,0,0,1,2.526-1.739c.91-.458,1.826-.9,2.754-1.318,1.853-.84,3.727-1.632,5.628-2.354,3.793-1.465,7.667-2.709,11.579-3.8a161.362,161.362,0,0,1,23.892-4.688c4.03-.509,8.081-.82,12.132-1.082,4.055-.191,8.115-.342,12.175-.3a226.285,226.285,0,0,1,24.3,1.43l-.175.042a146.518,146.518,0,0,1,29.974-14.726,231.5,231.5,0,0,1,32.172-9.038,357.263,357.263,0,0,1,66.4-7.015,410.122,410.122,0,0,1,66.644,4.25,312.853,312.853,0,0,1,32.758,6.588,192.124,192.124,0,0,1,31.553,10.947l-.08-.015A206.7,206.7,0,0,1,443.13,93.75a159.614,159.614,0,0,1,24,9.89Z" style="fill:#1d1d1b"/><path d="M75.948,159.492a526.29,526.29,0,0,1,87.744-23.083A462.521,462.521,0,0,1,344.2,140.732a527.85,527.85,0,0,1,86.521,27.2,527.492,527.492,0,0,0-86.653-26.593,486.881,486.881,0,0,0-89.924-10.786,478.013,478.013,0,0,0-90.306,6.7,525.513,525.513,0,0,0-87.689,22.8Z" style="fill:#1d1d1b"/><path d="M261.937,63.05a33.143,33.143,0,0,1,.649,6.932c-.011,1.155-.039,2.311-.142,3.466a23.652,23.652,0,0,1-.507,3.466,23.518,23.518,0,0,1-.507-3.466c-.1-1.155-.131-2.311-.143-3.466A33.144,33.144,0,0,1,261.937,63.05Z" style="fill:#c91517"/><path d="M255.005,69.982a33.138,33.138,0,0,1,6.932-.65c1.155.012,2.311.039,3.466.143a23.518,23.518,0,0,1,3.466.507,23.518,23.518,0,0,1-3.466.507c-1.155.1-2.311.131-3.466.143A33.138,33.138,0,0,1,255.005,69.982Z" style="fill:#c91517"/><line x1="60.195" y1="99.89" x2="58.485" y2="95.074" style="fill:none;stroke:#000;stroke-miterlimit:10;stroke-width:0.4px"/><path d="M60.142,99.738a2.95,2.95,0,0,0-1.926.012,5.443,5.443,0,0,1,2.456,1.482,5.74,5.74,0,0,1,.971-2.7A3.042,3.042,0,0,0,60.142,99.738Z"/><path d="M58.539,95.226a2.954,2.954,0,0,1-1.5,1.206,5.459,5.459,0,0,0,.97-2.7,5.75,5.75,0,0,0,2.456,1.483A3.055,3.055,0,0,1,58.539,95.226Z"/><line x1="264.195" y1="128.896" x2="266.276" y2="71.473" style="fill:none;stroke:#000;stroke-miterlimit:10;stroke-width:0.4px"/><path d="M264.2,128.735a2.952,2.952,0,0,0-1.794-.7,5.439,5.439,0,0,1,1.736,2.283,5.765,5.765,0,0,1,1.9-2.152A3.052,3.052,0,0,0,264.2,128.735Z"/><path d="M266.271,71.634a2.951,2.951,0,0,1-1.84.567,5.458,5.458,0,0,0,1.9-2.151,5.766,5.766,0,0,0,1.736,2.283A3.056,3.056,0,0,1,266.271,71.634Z"/><line x1="214.092" y1="64.093" x2="214.42" y2="69.014" style="fill:none;stroke:#000;stroke-miterlimit:10;stroke-width:0.4px"/><path d="M214.1,64.253a2.946,2.946,0,0,0,1.856.512A5.451,5.451,0,0,1,214,62.672a5.744,5.744,0,0,1-1.667,2.334A3.058,3.058,0,0,0,214.1,64.253Z"/><path d="M214.409,68.854a2.947,2.947,0,0,1,1.772-.753,5.453,5.453,0,0,0-1.667,2.334,5.743,5.743,0,0,0-1.961-2.093A3.053,3.053,0,0,1,214.409,68.854Z"/><text transform="translate(267.337 98.506)" style="font-size:9px;fill:#1d1d1b;font-family:TimesNewRomanPS-ItalicMT, Times New Roman;font-style:italic">w</text><text transform="translate(216.902 69.311)" style="font-size:9px;fill:#1d1d1b;font-family:TimesNewRomanPS-ItalicMT, Times New Roman;font-style:italic">ε</text><text transform="translate(283.933 70.35)" style="font-size:9px;fill:#1d1d1b;font-family:TimesNewRomanPS-ItalicMT, Times New Roman;font-style:italic">g</text><text transform="translate(288.433 72.681) scale(0.583)" style="font-size:7px;fill:#1d1d1b;font-family:TimesNewRomanPS-ItalicMT, Times New Roman;font-style:italic">+</text><text transform="translate(275.683 140.56)" style="font-size:9px;fill:#1d1d1b;font-family:TimesNewRomanPS-ItalicMT, Times New Roman;font-style:italic">g</text><text transform="translate(368.911 91.165)" style="font-size:9px;fill:#1d1d1b;font-family:TimesNewRomanPS-ItalicMT, Times New Roman;font-style:italic">p</text><text transform="translate(373.411 93.496) scale(0.583)" style="font-size:7px;fill:#1d1d1b;font-family:TimesNewRomanPS-ItalicMT, Times New Roman;font-style:italic">i</text><text transform="translate(325.711 86.399)" style="font-size:9px;fill:#1d1d1b;font-family:TimesNewRomanPS-ItalicMT, Times New Roman;font-style:italic">θ</text><text transform="translate(289.318 43.625)" style="font-size:9px;fill:#1d1d1b;font-family:TimesNewRomanPS-BoldMT, Times New Roman;font-weight:700">v</text><text transform="translate(293.818 45.956) scale(0.583)" style="font-size:7px;fill:#1d1d1b;font-family:TimesNewRomanPS-ItalicMT, Times New Roman;font-style:italic">i</text><text transform="translate(418.222 105.513)" style="font-size:9px;fill:#1d1d1b;font-family:TimesNewRomanPS-ItalicMT, Times New Roman;font-style:italic">p</text><text transform="translate(422.722 107.844) scale(0.583)" style="font-size:7px;fill:#1d1d1b;font-family:TimesNewRomanPS-ItalicMT, Times New Roman;font-style:italic">0</text><text transform="translate(46.844 109.014)" style="font-size:9px;fill:#1d1d1b;font-family:TimesNewRomanPS-ItalicMT, Times New Roman;font-style:italic">p</text><text transform="translate(51.344 111.346) scale(0.583)" style="font-size:7px;fill:#1d1d1b;font-family:TimesNewRomanPS-ItalicMT, Times New Roman;font-style:italic">N</text><path d="M333.569,95.252a34.59,34.59,0,0,1,21.507-43.234" style="fill:none;stroke:#000;stroke-miterlimit:10;stroke-width:0.25px"/><rect x="332.762" y="95.121" width="1.625" height="0.25" transform="matrix(0.967, -0.256, 0.256, 0.967, -13.265, 88.429)"/><rect x="354.952" y="51.212" width="0.25" height="1.625" transform="translate(6.899 138.963) rotate(-22.355)"/></svg>