<svg xmlns="http://www.w3.org/2000/svg" viewBox="0 0 841.89 201.31"><defs><style>.cls-1{fill:none;stroke:#1d1d1b;stroke-miterlimit:10;stroke-width:5px;}.cls-2{font-size:36px;fill:#1d1d1b;font-family:Futura-Medium, Futura;}.cls-3{letter-spacing:-0.04em;}.cls-4{letter-spacing:0.01em;}.cls-5{letter-spacing:0.03em;}.cls-6{letter-spacing:-0.01em;}.cls-7{letter-spacing:-0.03em;}.cls-8{letter-spacing:0.02em;}.cls-9{letter-spacing:-0.01em;}.cls-10{letter-spacing:0.03em;}</style></defs><title>MPDA-logo</title><g id="Layer_1" data-name="Layer 1"><path class="cls-1" d="M139.15,72.92c0-.5,0-1,0-1.51a80.11,80.11,0,0,1,1.2-11.86,105.52,105.52,0,0,1,3-12.57A97.54,97.54,0,0,1,147.81,35a61.24,61.24,0,0,1,5.6-10,36,36,0,0,1,6.36-7,23.59,23.59,0,0,1,6.62-4,15.93,15.93,0,0,1,6.32-1.12,11.48,11.48,0,0,1,9.54,5.47,15.82,15.82,0,0,1,2.21,6,23.73,23.73,0,0,1-.12,7.68,35.59,35.59,0,0,1-2.87,9,62,62,0,0,1-5.86,9.83,96.09,96.09,0,0,1-8.11,9.82,105.32,105.32,0,0,1-9.37,8.87,78.85,78.85,0,0,1-9.67,7,43.47,43.47,0,0,1-9.2,4.27,29.63,29.63,0,0,1-8.85,1.42,29,29,0,0,1-8.86-1.43,43.68,43.68,0,0,1-9.19-4.27,77.4,77.4,0,0,1-9.66-7,103.87,103.87,0,0,1-9.38-8.86,95.63,95.63,0,0,1-8.08-9.81,61.67,61.67,0,0,1-5.86-9.83,35.94,35.94,0,0,1-2.86-9,23.46,23.46,0,0,1-.09-7.69,16,16,0,0,1,2.22-6,11.92,11.92,0,0,1,4.09-3.94,12.08,12.08,0,0,1,5.49-1.53,16.31,16.31,0,0,1,6.33,1.12,23.82,23.82,0,0,1,6.64,4,35.75,35.75,0,0,1,6.39,7,61.7,61.7,0,0,1,5.61,10A95.75,95.75,0,0,1,117.67,47a104.57,104.57,0,0,1,3,12.56,77.51,77.51,0,0,1,1.2,11.87c0,.49,0,1,0,1.45"/><path class="cls-1" d="M105.21,101.91l-1.38.79A78.39,78.39,0,0,1,93,107.58a104.17,104.17,0,0,1-12.37,3.66A97,97,0,0,1,68,113.33a61.37,61.37,0,0,1-11.46.12,35.63,35.63,0,0,1-9.26-2,23.78,23.78,0,0,1-6.73-3.8,15.93,15.93,0,0,1-4.12-5,11.7,11.7,0,0,1,0-11.08,16.1,16.1,0,0,1,4.09-5,24,24,0,0,1,6.73-3.79,35.46,35.46,0,0,1,9.24-2,61.32,61.32,0,0,1,11.45.13A95.24,95.24,0,0,1,80.49,83a108.22,108.22,0,0,1,12.38,3.66,79.29,79.29,0,0,1,10.86,4.88,43.76,43.76,0,0,1,8.3,5.83,28.15,28.15,0,0,1,8.86,15.35,43.41,43.41,0,0,1,.91,10.11,80,80,0,0,1-1.2,11.86,108.56,108.56,0,0,1-3,12.57,100.47,100.47,0,0,1-4.47,11.95,62.32,62.32,0,0,1-5.6,10,36.08,36.08,0,0,1-6.37,7,23.63,23.63,0,0,1-6.63,4,15.7,15.7,0,0,1-6.32,1.12,11.5,11.5,0,0,1-9.54-5.46,15.78,15.78,0,0,1-2.21-6,23.78,23.78,0,0,1,.11-7.69,35.05,35.05,0,0,1,2.88-9,61.3,61.3,0,0,1,5.86-9.84,96.09,96.09,0,0,1,8.11-9.82,102.45,102.45,0,0,1,9.37-8.86,79,79,0,0,1,9.67-7c.49-.3,1-.58,1.48-.86"/><path class="cls-1" d="M147,116.75l1.55.9a79.08,79.08,0,0,1,9.66,7,103.87,103.87,0,0,1,9.36,8.87,95.85,95.85,0,0,1,8.09,9.82,61.88,61.88,0,0,1,5.85,9.83,35.81,35.81,0,0,1,2.86,9,23.44,23.44,0,0,1,.08,7.69,15.79,15.79,0,0,1-2.22,6,11.61,11.61,0,0,1-9.57,5.47,16.33,16.33,0,0,1-6.34-1.12,23.78,23.78,0,0,1-6.63-4,36.36,36.36,0,0,1-6.39-7,63.34,63.34,0,0,1-5.61-10,98.6,98.6,0,0,1-4.47-11.94,109.55,109.55,0,0,1-3-12.57,79,79,0,0,1-1.2-11.87,43.5,43.5,0,0,1,.91-10.12,28.32,28.32,0,0,1,8.87-15.36,43.72,43.72,0,0,1,8.31-5.83A78.78,78.78,0,0,1,168,86.61,106.08,106.08,0,0,1,180.39,83,95.24,95.24,0,0,1,193,80.88a61.42,61.42,0,0,1,11.46-.13,35.62,35.62,0,0,1,9.25,2.06,23.8,23.8,0,0,1,6.73,3.79,16.06,16.06,0,0,1,4.11,5,11.7,11.7,0,0,1,0,11.08,16,16,0,0,1-4.1,5,24.09,24.09,0,0,1-6.72,3.79,35,35,0,0,1-9.23,2,61.27,61.27,0,0,1-11.45-.12,98.43,98.43,0,0,1-12.56-2.08,104.76,104.76,0,0,1-12.37-3.67,77,77,0,0,1-10.86-4.88c-.51-.28-1-.56-1.5-.85"/><path class="cls-1" d="M120.31,84.15a27.7,27.7,0,0,1-6.16,10.72"/><path class="cls-1" d="M146.76,94.71a27.75,27.75,0,0,1-3.51-4.79,28.49,28.49,0,0,1-2.46-5.64"/><path class="cls-1" d="M124.78,112.56a28.89,28.89,0,0,1,5.75-.61,28,28,0,0,1,5.66.6"/><text class="cls-2" transform="translate(242.23 59.32)">MP<tspan class="cls-3" x="54.05" y="0">D</tspan><tspan x="78.86" y="0">A</tspan></text></g><g id="_Layer_" data-name="&lt;Layer&gt;"><text class="cls-2" transform="translate(242.23 122.33)">Mas<tspan class="cls-4" x="70.8" y="0">t</tspan><tspan x="80.96" y="0">e</tspan><tspan class="cls-5" x="100.88" y="0">r</tspan><tspan x="115.35" y="0">’s deg</tspan><tspan class="cls-6" x="215.88" y="0">r</tspan><tspan x="229.1" y="0">ee </tspan><tspan class="cls-7" x="0" y="43.2">P</tspan><tspan x="18.47" y="43.2">a</tspan><tspan class="cls-6" x="40.06" y="43.2">r</tspan><tspan x="53.28" y="43.2">am</tspan><tspan class="cls-4" x="103.34" y="43.2">e</tspan><tspan x="123.57" y="43.2">t</tspan><tspan class="cls-8" x="133.42" y="43.2">r</tspan><tspan x="147.43" y="43.2">ic Design in A</tspan><tspan class="cls-9" x="373.17" y="43.2">r</tspan><tspan class="cls-10" x="386.31" y="43.2">c</tspan><tspan x="404.4" y="43.2">hi</tspan><tspan class="cls-4" x="433.11" y="43.2">t</tspan><tspan x="443.27" y="43.2">ectu</tspan><tspan class="cls-6" x="509.8" y="43.2">r</tspan><tspan x="523.02" y="43.2">e</tspan></text></g></svg>