<svg xmlns="http://www.w3.org/2000/svg" viewBox="0 0 481.89 198.43"><defs><style>.cls-1{opacity:0.33;}.cls-2{fill:#00a2db;}.cls-3{opacity:0.28;}.cls-4{fill:#1863a8;}.cls-11,.cls-14,.cls-15,.cls-17,.cls-18,.cls-19,.cls-20,.cls-24,.cls-5,.cls-6,.cls-8,.cls-9{fill:none;}.cls-5{stroke:#fff;}.cls-15,.cls-17,.cls-18,.cls-19,.cls-20,.cls-5,.cls-6,.cls-8{stroke-linecap:round;stroke-linejoin:round;}.cls-11,.cls-20,.cls-5{stroke-width:0.5px;}.cls-5,.cls-8{stroke-dasharray:3 3;}.cls-6{stroke:#00afea;stroke-dasharray:0.01 0.6;}.cls-15,.cls-17,.cls-18,.cls-19,.cls-24,.cls-6,.cls-8{stroke-width:0.25px;}.cls-7{opacity:0.23;}.cls-8{stroke:#fcfeff;}.cls-9{stroke:#000;}.cls-11,.cls-14,.cls-24,.cls-9{stroke-miterlimit:10;}.cls-10{opacity:0.38;}.cls-11{stroke:#5b5b5b;}.cls-12{opacity:0.24;}.cls-13{fill:#c1962b;}.cls-14{stroke:#c1962b;stroke-width:0.1px;}.cls-15{stroke:#2a4d9c;}.cls-16{fill:#2a4d9c;}.cls-17{stroke:#037534;}.cls-18{stroke:#c91517;}.cls-19{stroke:#aa1917;stroke-dasharray:5.67 5.67;}.cls-20{stroke:#1d1d1b;}.cls-21{fill:#1d1d1b;}.cls-22,.cls-23{font-size:9px;}.cls-22{font-family:TimesNewRomanPS-ItalicMT, Times New Roman;font-style:italic;}.cls-23{font-family:TimesNewRomanPS-BoldMT, Times New Roman;font-weight:700;}.cls-24{stroke:#050403;}.cls-25{fill:#050403;}</style></defs><title>Mesa de trabajo 1</title><g id="Surface_shading" data-name="Surface shading"><g class="cls-1"><polygon class="cls-2" points="293.05 38.37 308.66 36.28 313.71 35.76 325.34 34.48 340.6 33.45 354.48 33.31 355.11 33.34 355.17 33.34 361.1 33.62 361.69 33.65 367.77 34.23 370.93 34.74 373.78 35.15 374.65 35.33 374.98 35.4 377.95 36.04 378.88 36.24 379.44 36.33 380.38 36.56 380.72 36.66 391.01 39.65 401.37 43.37 404.17 44.54 406.7 45.81 409.1 47.22 411.33 48.74 413.4 50.37 415.28 52.08 416.95 53.87 418.4 55.71 419.62 57.58 420.57 59.48 421.26 61.38 421.68 63.35 421.75 65.45 421.41 67.48 420.56 69.57 419.1 71.64 416.93 73.6 415.58 74.5 414.83 74.93 414.04 75.34 413.22 75.73 412.35 76.1 411.92 76.28 411.49 76.47 411.08 76.66 410.26 77.06 409.85 77.28 409.47 77.5 408.31 78.18 407.5 78.65 405.69 79.66 403.54 80.82 397.84 83.94 390.34 88.24 380.9 93.7 369.51 100.11 357.24 106.71 344 113.41 329.93 120.02 315.11 126.4 299.19 132.57 282.98 138.09 266.01 143.03 248.33 147.24 229.46 150.7 210.44 153.34 191.72 155.29 173.76 156.64 156 157.58 139.85 158.13 125.25 158.45 114.01 158.67 106.82 158.89 104.6 158.97 102.93 159 102.21 159 101.88 159 101.57 158.99 101.14 158.97 101.08 158.97 100.75 158.98 100.43 158.99 99.88 159.03 99.54 159.06 99.21 159.1 98.6 159.18 98.01 159.26 96.81 159.39 95.64 159.48 93.28 159.57 90.97 159.53 86.54 159.08 82.5 158.21 78.88 157.04 75.74 155.66 72.82 154.05 70.33 152.37 68.16 150.61 66.2 148.73 64.46 146.75 62.96 144.68 61.7 142.54 60.7 140.37 59.96 138.17 59.5 135.96 59.33 133.77 59.45 131.62 59.92 129.42 60.66 127.46 61.91 125.3 63.75 123.15 71.83 116.1 80 109.68 84.68 106.36 84.9 106.21 85.47 105.84 90.15 102.72 95.63 99.36 101.54 95.98 105.38 94.05 114.93 89.15 127.75 83.3 136.46 79.72 139.99 78.26 140 78.26 140.46 78.07 141.3 77.72 142.7 77.2 152.46 73.41 166.67 68.33 181.55 63.46 197 58.86 212.34 54.73 227.96 50.93 243.7 47.47 244.87 47.24 245.46 47.1 261.55 43.79 277.31 40.89 293.05 38.37"/></g><g class="cls-3"><polygon class="cls-4" points="379.44 36.31 380.38 36.54 380.72 36.64 388.46 38.88 391.01 39.62 398.69 42.43 395.46 41.59 391.89 40.97 387.94 40.67 383.95 40.79 381.94 41.02 379.94 41.36 378.94 41.58 378.44 41.7 377.94 41.83 377.44 41.97 376.94 42.12 376.45 42.27 375.95 42.43 375.46 42.5 374.97 42.57 374.48 42.64 373.99 42.72 372.97 42.88 371.91 43.05 369.59 43.43 366.89 43.86 359.69 44.85 350.08 45.95 337.93 47.22 323.49 48.75 308.25 50.47 292.27 52.45 275.81 54.73 259.1 57.33 241.87 60.37 225.11 63.74 208.45 67.59 192.08 71.95 175.67 76.99 160.01 82.39 145.28 87.95 131.65 93.46 118.58 99.06 106.95 104.25 96.56 108.98 88.48 112.6 83.06 114.83 81.31 115.48 79.95 115.97 79.37 116.17 79.1 116.27 78.85 116.36 78.61 116.45 78.49 116.49 78.38 116.53 78.27 116.58 78.16 116.62 78.05 116.66 77.95 116.7 77.64 116.76 77.34 116.82 77.04 116.88 76.74 116.94 76.16 117.06 75.58 117.19 74.47 117.47 73.4 117.78 71.38 118.47 69.53 119.24 66.32 121.04 63.75 123.12 71.83 116.08 80 109.66 84.68 106.34 84.9 106.19 85.47 105.82 90.15 102.7 95.63 99.34 101.54 95.96 105.38 94.02 114.93 89.12 127.75 83.28 136.46 79.69 138.99 78.62 140.46 78.05 141.3 77.7 142.7 77.18 152.46 73.38 166.67 68.3 181.55 63.44 197 58.84 212.34 54.71 227.96 50.9 243.7 47.44 244.87 47.21 245.46 47.08 261.55 43.77 277.31 40.87 293.05 38.35 308.66 36.26 313.71 35.74 325.34 34.45 340.6 33.42 354.48 33.28 355.11 33.31 355.17 33.31 361.02 33.59 361.69 33.62 367.77 34.21 370.93 34.71 373.78 35.13 374.65 35.31 374.98 35.38 377.95 36.02 379.44 36.31"/></g></g><g id="Main_Curve" data-name="Main Curve"><polyline class="cls-5" points="60.91 140.86 62.48 139.22 65.22 136.35 70.08 131.33 72.89 128.43 80.56 121.28 84.36 117.76 90.25 113.01 90.63 112.7 91.62 112 97.2 108.06 98.78 107.09 103.92 103.97 108.4 101.65 111.06 100.27 115.7 98.18 118.24 97.05 123.83 94.86 125.77 94.09 136.78 90.47 139.61 89.54 140.46 89.27 141.03 89.11 155.72 85.17 159.16 84.37 170.71 81.68 177.28 80.3 186.19 78.4 196.01 76.41 202.03 75.18 213.99 72.69 213.99 72.69 215.44 72.39 216.99 72.06 232.33 68.66 232.45 68.63 232.55 68.61 233.14 68.47 247.9 65.09 250.72 64.43 263.26 61.51 269.79 60 279.03 57.88 289.83 55.51 294.45 54.49 307.19 51.94 309.9 51.41 311.3 51.18 325.38 48.84 337.14 47.38 340.85 46.91 345.07 46.63 356.64 45.97 364.35 46.11 369.91 46.23 371.4 46.27 375.1 46.64 378.45 46.96 379.25 47.09 380.46 47.28 383.31 47.75 385.13 48.04 387.34 48.55 390.59 49.28 391.33 49.45 391.82 49.56 395.28 50.58 398.16 51.41 399.56 51.93 409.89 55.76 410.5 56.02 420.99 60.65"/></g><g id="Make2D::Visible::Curves::Geodesics"><polyline class="cls-6" points="273.04 41.71 273.74 41.75 275.7 41.74 276.21 41.88 278.15 42.3 278.6 42.49 280.95 43.42 281.27 43.61 283.72 44.97 283.95 45.13 286.59 46.94 286.72 47.04 289.53 49.3 289.58 49.35 291.33 50.95 292.49 52.02 292.52 52.04 292.55 52.07 294.83 54.42"/><polyline class="cls-6" points="420.99 60.65 420.2 59.38 420.14 59.3 418.73 57.3 418.6 57.13 417.14 55.28 416.94 55.05 415.43 53.34 415.18 53.08 413.63 51.49 412.03 50.03 411.75 49.78 410.08 48.41 409.81 48.2 408.07 46.94 407.84 46.78 406.01 45.63 405.85 45.53 403.92 44.5 403.86 44.47 403 44.09"/><polyline class="cls-6" points="380.72 36.7 381.82 37.03 381.91 37.07 383.01 37.47 384.04 37.91 384.16 37.97 385.18 38.47 386.19 39.01 386.33 39.1 387.33 39.7 388.31 40.34 388.47 40.45 389.44 41.14 390.38 41.86 390.56 42.01 391.49 42.77 392.39 43.57 392.58 43.74 393.46 44.58 394.32 45.45 394.51 45.64 395.35 46.54 396.16 47.48 396.35 47.69 397.13 48.65 397.88 49.64 398.06 49.87 398.78 50.88 399.46 51.89 399.47 51.92 399.63 52.16 400.29 53.21 400.91 54.3 401.06 54.54 401.64 55.64 402.21 56.81 402.34 57.07 402.86 58.25 403.37 59.56 403.48 59.82 403.94 61.14 404.33 62.48 404.41 62.73 404.74 64.07 405.03 65.56 405.08 65.78 405.28 67.27 405.3 67.49 405.43 70.63 405.43 70.78 405.11 74.13 405.11 74.14 405.1 74.18 405 74.6 404.27 77.5 404.22 77.69 403.61 79.29 403.43 79.75 402.67 81.33"/><polyline class="cls-6" points="357.04 33.46 357.35 33.5 358.12 33.59 358.52 33.68 359.29 33.83 359.75 33.97 360.45 34.17 360.94 34.34 361.56 34.56 362.09 34.79 362.67 35.04 363.22 35.33 363.76 35.6 364.35 35.93 364.86 36.22 365.46 36.61 365.94 36.92 366.56 37.36 367.02 37.68 367.64 38.17 368.08 38.52 368.71 39.05 369.13 39.41 369.76 39.99 370.16 40.37 370.56 40.76 371.18 41.38 371.56 41.8 372.18 42.45 372.56 42.9 373.15 43.58 373.53 44.06 374.11 44.77 374.49 45.28 375.03 46 375.42 46.55 375.51 46.67 375.94 47.29 376.32 47.88 376.81 48.62 377.2 49.27 377.65 50 378.05 50.71 378.46 51.43 378.87 52.2 379.24 52.9 379.65 53.75 379.97 54.41 380.41 55.4 380.7 56.04 381.14 57.13 381.38 57.71 381.86 59.03 382.06 59.56 382.54 61.04 382.68 61.47 383.15 63.12 383.24 63.42 383.69 65.28 383.72 65.42 384.03 66.97 384.15 67.61 384.17 67.68 384.5 69.95 384.54 70.37 384.92 75 384.91 76.37 384.85 80.54 384.53 83.31 384.15 86.43 383.05 91.25 382.7 92.69"/><polyline class="cls-6" points="330.19 34.19 330.89 34.23 332.42 34.35 333.33 34.57 334.87 34.97 335.86 35.38 337.23 35.96 338.3 36.57 339.6 37.32 340.73 38.12 341.96 39.02 343.13 40.01 344.31 41.04 345.48 42.21 346.62 43.36 347.77 44.69 348.89 45.97 349.21 46.39 349.99 47.42 351.09 48.85 352.13 50.38 353.21 51.98 354.16 53.56 355.23 55.34 356.29 57.34 357.13 58.93 358.23 61.3 358.96 62.9 360.12 65.83 360.74 67.42 361.84 70.83 362.27 72.16 363.34 76.49 363.59 77.51 364.48 82.98 364.55 83.39 364.75 86.23 364.98 89.79 364.96 90.48 364.74 96.46 364.41 98.76 363.74 103.25"/><polyline class="cls-6" points="300.69 37.38 302 37.25 303.25 37.18 304.25 37.35 305.56 37.51 306.56 37.86 308.16 38.35 309.02 38.8 310.7 39.59 311.49 40.11 313.29 41.24 314.02 41.81 315.93 43.27 316.6 43.88 318.58 45.66 320.64 47.76 321.24 48.38 322.12 49.38 323.3 50.73 323.88 51.4 325.91 53.99 326.48 54.72 328.44 57.49 329.02 58.29 330.89 61.2 331.48 62.11 333.21 65.11 333.83 66.16 335.47 69.33 336.14 70.6 337.69 73.99 338.44 75.6 339.72 78.9 340.49 80.81 341.28 83.17 342.37 86.59 343.14 89.67 343.89 92.85 344.51 96.86 344.9 99.5 345.14 104.6 345.21 106.3 344.74 112.66 344.71 113.08"/><polyline class="cls-6" points="295.52 55.13 295.52 55.13 295.6 55.22 298.51 58.52 298.63 58.67 301.47 62.21 301.61 62.4 304.37 66.15 304.51 66.36 307.18 70.32 307.31 70.53 309.88 74.7 309.98 74.89 312.55 79.48 312.61 79.61 315.21 84.81 315.22 84.83 315.36 85.16 317.53 90.14 317.61 90.31 319.66 95.88 319.83 96.34 320 96.88 321.72 102.78 321.93 103.78 323.08 109.5 323.25 111.1 323.74 116.23 323.68 118.53 323.57 122.79"/><polyline class="cls-6" points="213.59 73.53 213.59 73.53 216.24 76.28 216.97 77.05 217.66 77.82 220.37 80.88 220.93 81.57 223.73 84.99 224.18 85.59 227.04 89.36 227.38 89.83 230.27 93.93 230.49 94.27 233.38 98.67 233.51 98.89 236.49 103.79 236.52 103.85 237.63 105.84 239.55 109.28 239.62 109.4 242.32 114.78 242.48 115.09 244.98 120.7 245.22 121.22 247.39 126.88 247.67 127.63 249.41 133.18 249.71 134.14 250.93 139.33 251.2 140.46 251.9 145.14 252.08 146.38"/><polyline class="cls-6" points="189.58 61.11 191.01 60.87 192.23 60.63 193.81 60.84 195.03 60.98 196.57 61.49 197.65 61.83 199.54 62.76 200.7 63.31 202.69 64.56 203.76 65.22 205.93 66.83 206.95 67.58 209.29 69.57 210.24 70.36 212.74 72.73 212.93 72.91"/><polyline class="cls-6" points="183.93 76.98 184.06 77.09 185.61 78.55 187.09 79.93 190.05 83 190.28 83.24 193.12 86.47 193.48 86.88 196.17 90.2 196.66 90.8 199.18 94.17 199.8 94.99 202.13 98.35 202.86 99.39 204.98 102.7 205.82 103.99 207.82 107.35 208.79 108.97 210.67 112.42 211.81 114.48 213.42 117.72 214.61 120.08 216.04 123.28 217.36 126.16 218.55 129.14 219.92 132.53 220.84 135.16 222.22 139.02 223.55 143.34 224.17 145.33 225.42 149.96 225.77 151.25"/><polyline class="cls-6" points="164.63 69.09 166.75 68.56 167.08 68.46 169.35 68.61 169.68 68.62 171.86 69.23 172.13 69.3 174.73 70.46 174.98 70.57 177.67 72.16 177.85 72.27 180.74 74.34 180.84 74.41 183.93 76.97"/><polyline class="cls-6" points="142.66 77.25 142.9 77.26 144.95 77.17 145.18 77.22 147.12 77.6 147.41 77.72 149.65 78.57 149.99 78.76 152.2 79.95 152.63 80.25 154.87 81.76 155.4 82.19 157.63 83.97 158.28 84.57 158.31 84.59 160.47 86.56 161.25 87.36 163.35 89.5 165.27 91.66 166.26 92.76 168.04 94.95 169.17 96.33 170.79 98.49 172.06 100.16 173.51 102.24 174.91 104.24 176.17 106.19 177.7 108.54 178.81 110.39 180.54 113.22 181.5 114.95 183.48 118.45 184.19 119.85 186.27 123.83 186.79 124.92 189.09 129.71 189.37 130.34 191.86 135.94 192.04 136.38 194.5 142.34 194.81 143.14 196.93 148.61 197.56 150.31 199.13 154.55"/><polyline class="cls-6" points="118.94 87.35 119.54 87.31 120.74 87.14 121.31 87.23 122.48 87.39 123.16 87.58 123.85 87.83 124.55 88.09 125.24 88.4 125.98 88.79 126.67 89.16 127.38 89.58 128.22 90.14 128.93 90.61 129.63 91.11 130.59 91.86 131.18 92.31 131.3 92.4 131.98 92.98 133.08 93.94 133.76 94.54 134.42 95.15 135.67 96.36 136.31 96.99 136.91 97.62 138.34 99.12 138.91 99.74 139.46 100.35 141.06 102.18 141.57 102.77 142.04 103.35 143.84 105.54 144.26 106.07 144.65 106.57 146.64 109.17 146.97 109.6 147.26 110.01 149.46 113.06 149.67 113.36 149.88 113.66 152.4 117.36 152.5 117.5 152.67 117.77 154.42 120.48 155.41 122.03 155.52 122.2 158.05 126.43 158.47 127.13 160.74 131.18 161.54 132.58 162.59 134.54 164.67 138.44 166.32 141.64 167.83 144.57 170.18 149.17 170.97 150.71 173.83 156.16 174.1 156.65"/><polyline class="cls-6" points="72.66 115.48 72.68 115.47 73.16 115.47 73.23 115.47 73.32 115.49 73.91 115.71 74.06 115.76 74.22 115.83 74.79 116.12 75 116.22 75.26 116.36 75.91 116.74 76.23 116.93 76.59 117.15 77.2 117.53 77.61 117.8 78.07 118.1 78.64 118.48 79.16 118.83 79.74 119.23 80.25 119.59 80.88 120.03 81.42 120.41 81.58 120.53 82 120.83 82.75 121.37 83.58 121.97 83.89 122.2 84.76 122.83 85.71 123.55 85.89 123.68 86.89 124.42 87.98 125.25 88.01 125.27 88.34 125.52 89.15 126.13 89.22 126.19 90.33 127.05 90.5 127.18 91.53 127.99 91.82 128.21 92.76 128.95 93.16 129.27 94 129.94 94.52 130.36 95.25 130.95 95.9 131.48 96.52 131.98 97.35 132.66 97.86 133.07 98.85 133.89 99.21 134.19 100.48 135.25 100.68 135.42 102.16 136.66 102.17 136.67 102.23 136.72 103.72 137.98 103.98 138.2 105.29 139.33 105.88 139.84 107 140.81 107.96 141.65 108.72 142.31 110.21 143.62 110.57 143.93 111.89 145.09 112.49 145.62 112.73 145.83 114.64 147.49 115.86 148.55 116.88 149.43 117.76 150.16 122.03 153.73 125.41 156.38 128 158.43"/><polyline class="cls-6" points="62.41 141.95 62.41 141.95 64.2 143.25 64.42 143.42 66.19 144.72 66.53 144.97 68.28 146.26 68.71 146.58 70.44 147.86 70.96 148.24 72.68 149.51 73.25 149.93 75.05 151.26 75.67 151.72 77.64 153.17 78.28 153.64 80.32 155.12 80.86 155.52 83.21 157.2 83.57 157.45 85.7 158.94"/><polyline class="cls-6" points="242.78 47.71 242.8 47.7 242.95 47.67 245.41 47.15 245.46 47.14"/><polyline class="cls-6" points="245.49 47.13 248.15 47.39 248.28 47.39 250.65 48.11 250.87 48.17 253.48 49.4 253.84 49.56 256.35 51.09 256.82 51.36 259.32 53.18 259.9 53.6 262.38 55.67 263.07 56.24 265.51 58.52 266.31 59.26 267.15 60.13 267.53 60.52 269.57 62.62 270.5 63.67 272.83 66.29 273.82 67.5 276.07 70.24 277.1 71.6 279.26 74.43 280.3 75.92 282.36 78.84 283.39 80.44 285.34 83.43 286.38 85.2 288.31 88.4 289.36 90.37 291.28 93.9 292.23 95.89 293.99 99.52 294.84 101.63 296.53 105.64 298.03 110.04 298.72 112.11 299.92 116.9 300.38 118.79 301.12 123.88 301.33 125.39 301.43 130.75 301.45 131.73"/><polyline class="cls-6" points="95.21 99.65 95.24 99.64 95.72 99.44 95.77 99.44 96.28 99.36 96.34 99.36 96.91 99.38 96.96 99.39 97.5 99.48 97.55 99.49 98.14 99.65 98.19 99.67 98.89 99.91 98.93 99.93 99.7 100.25 99.72 100.26 100.51 100.65"/><polyline class="cls-6" points="151.32 157.77 149.47 155.43 146.87 152.13 143.23 147.3 142.6 146.47 140.92 144.21 138.8 141.35 138.56 141.02 138.27 140.64 135.4 136.77 134.84 136.02 134.2 135.17 132.17 132.5 131.37 131.45 130.51 130.34 129.15 128.6 128.19 127.4 127.1 126.04 125.81 124.43 125.02 123.48 124.09 122.38 123.58 121.78 122.48 120.5 122.16 120.13 120.95 118.77 120.81 118.6 119.47 117.13 119.47 117.12 118.16 115.72 118.04 115.59 116.87 114.37 116.64 114.13 115.6 113.06 115.27 112.73 114.35 111.81 113.93 111.39 113.12 110.6 112.61 110.12 111.91 109.45 111.33 108.91 110.73 108.35 110.08 107.77 109.57 107.31 108.86 106.69 108.43 106.32 107.67 105.68 107.33 105.39 106.53 104.75 106.25 104.52 105.42 103.88 105.2 103.71 104.85 103.45 104.35 103.08 104.19 102.97 104.05 102.87 103.22 102.29 103.12 102.22 102.28 101.67 102.22 101.64 101.38 101.13 101.35 101.11 100.52 100.65"/><polyline class="cls-6" points="215.8 53.92 216.43 53.81 218.5 53.49 220.52 53.78 221.33 53.88 223.13 54.49 223.98 54.77 225.96 55.77 227.04 56.29 228.93 57.49 230.12 58.23 231.98 59.63 233.32 60.62 235.13 62.16 236.63 63.42 238.37 65.06 240 66.59 240.24 66.84 241.75 68.41 243.4 70.11 245.27 72.2 246.81 73.94 248.77 76.3 250.2 78.03 252.22 80.66 253.54 82.37 255.58 85.24 256.78 86.92 258.83 90.01 259.92 91.63 262.02 95.07 263.03 96.71 265.21 100.61 266.17 102.31 268.2 106.35 269.04 108 269.8 109.7 271.76 114.14 272.42 115.87 274.18 120.57 274.69 122.31 276.12 127.14 276.47 128.85 277.42 133.53 277.59 135.21 278.02 139.57"/></g><g id="Make2D::Hidden::Curves::Geodesics" class="cls-7"><line class="cls-8" x1="379.69" y1="36.44" x2="380.63" y2="36.67"/><polyline class="cls-8" points="363.37 44.4 363.99 43.54 365.21 42.05 365.97 41.12 366.68 40.47 368.45 38.81 368.9 38.51 370.99 37.25 371.52 37.05 373.66 36.35 373.8 36.32 374.92 36.15 375.01 36.14 376.2 36.07 376.24 36.07 377.41 36.1 377.64 36.13 378.62 36.24 379.65 36.43 379.65 36.43"/><polyline class="cls-8" points="73.16 117.92 73.08 117.75 72.88 117.36 72.73 117.01 72.64 116.78 72.55 116.42 72.44 115.93 72.53 115.71 72.64 115.51 72.66 115.48"/><polyline class="cls-8" points="95.39 109.56 95.24 109.04 94.4 105.94 94.12 103.87 94.03 103.17 94.03 102.23 94.04 102.1 94.17 101.26 94.17 101.22 94.35 100.7 94.42 100.52 94.42 100.51 94.78 100 94.8 99.98 95.21 99.65"/><polyline class="cls-8" points="115.23 100.61 115.09 99.15 114.83 96.09 114.95 94.43 115.11 92.56 115.58 91.07 115.97 89.96 116.8 88.85 117.31 88.23"/><line class="cls-8" x1="117.89" y1="87.95" x2="118.94" y2="87.35"/><polyline class="cls-8" points="338.75 47.19 339.02 46.78 341.91 42.43 343.25 40.79 344.9 38.84 346.98 36.98 347.82 36.24 350.47 34.69 350.75 34.52 352.08 34 352.13 33.99 352.58 33.86 353.46 33.64 353.55 33.63 354.71 33.46 354.9 33.46 355.96 33.41 355.96 33.41"/><polyline class="cls-8" points="314.11 49.86 315.4 47.25 316.72 44.61 318.79 41.44 319.39 40.53 322.12 37.55 322.14 37.52 322.27 37.42 324.96 35.55 325.32 35.39 327.64 34.51 328.25 34.42 330.19 34.19 330.19 34.19"/><polyline class="cls-8" points="183.81 74.55 184.04 71.86 184.25 69.31 184.84 67.28 185.41 65.37 186.32 64.02 187.21 62.66 188.44 61.88 189.58 61.11"/><polyline class="cls-8" points="209.1 67.5 209.13 67.27 209.95 62.15 210.08 61.77 211.37 58.17 211.65 57.77 213.33 55.45 213.79 55.16 215.8 53.92"/><polyline class="cls-8" points="288.74 53 290.7 47.7 290.76 47.53 291.11 46.88 293 43.35 293.39 42.85 295.44 40.32 296.25 39.68 298.07 38.35 299.18 37.9 300.69 37.38 300.69 37.38"/><polyline class="cls-8" points="136.62 91.51 136.61 88.02 136.6 86.55 137.16 83.5 137.31 82.7 138.43 80.31 138.64 79.89 138.92 79.65 140.51 78.09 140.77 78.01 142.61 77.27"/><polyline class="cls-8" points="159.9 82.49 159.9 82.45 160.01 77.4 160.08 77.11 160.91 73.51 161.08 73.19 162.48 70.76 164.34 69.34 164.63 69.09"/><polyline class="cls-8" points="235.54 61.7 236.31 57.94 236.65 56.27 237.9 53.06 238.24 52.19 240.02 49.73 240.3 49.36 242.65 47.8 242.78 47.71"/><polyline class="cls-8" points="262.23 56.9 262.57 55.69 263.78 51.43 264.5 49.83 265.67 47.27 266.79 45.73 267.88 44.31 269.44 43.15 270.41 42.48 271.28 42.27 273.04 41.71 273.04 41.71"/></g><g id="Surface_borders" data-name="Surface borders"><line class="cls-9" x1="406.7" y1="45.81" x2="404.17" y2="44.54"/><line class="cls-9" x1="409.1" y1="47.22" x2="406.7" y2="45.81"/><line class="cls-9" x1="248.33" y1="147.24" x2="266.01" y2="143.03"/><line class="cls-9" x1="229.46" y1="150.7" x2="210.44" y2="153.34"/><polyline class="cls-9" points="243.7 47.47 227.96 50.93 212.34 54.73 197 58.86 181.55 63.46 166.67 68.33 152.46 73.41"/><line class="cls-9" x1="413.4" y1="50.37" x2="411.33" y2="48.74"/><line class="cls-9" x1="191.72" y1="155.29" x2="210.44" y2="153.34"/><line class="cls-9" x1="415.28" y1="52.08" x2="413.4" y2="50.37"/><line class="cls-9" x1="138.99" y1="78.64" x2="140.46" y2="78.07"/><line class="cls-9" x1="415.28" y1="52.08" x2="416.95" y2="53.87"/><line class="cls-9" x1="98.01" y1="159.26" x2="96.81" y2="159.39"/><line class="cls-9" x1="416.95" y1="53.87" x2="418.4" y2="55.71"/><line class="cls-9" x1="98.6" y1="159.18" x2="98.01" y2="159.26"/><line class="cls-9" x1="420.57" y1="59.48" x2="419.62" y2="57.58"/><line class="cls-9" x1="101.57" y1="158.99" x2="101.88" y2="159"/><line class="cls-9" x1="421.68" y1="63.35" x2="421.26" y2="61.38"/><line class="cls-9" x1="173.76" y1="156.64" x2="191.72" y2="155.29"/><line class="cls-9" x1="421.41" y1="67.48" x2="421.75" y2="65.45"/><line class="cls-9" x1="140.28" y1="78.16" x2="140.7" y2="77.98"/><line class="cls-9" x1="420.56" y1="69.57" x2="421.41" y2="67.48"/><line class="cls-9" x1="367.77" y1="34.23" x2="373.78" y2="35.15"/><line class="cls-9" x1="420.56" y1="69.57" x2="419.1" y2="71.64"/><line class="cls-9" x1="412.35" y1="76.1" x2="413.22" y2="75.73"/><line class="cls-9" x1="416.93" y1="73.6" x2="415.58" y2="74.5"/><polyline class="cls-9" points="139.99 78.26 138.99 78.64 136.46 79.72"/><line class="cls-9" x1="416.93" y1="73.6" x2="419.1" y2="71.64"/><line class="cls-9" x1="415.58" y1="74.5" x2="414.83" y2="74.93"/><line class="cls-9" x1="414.04" y1="75.34" x2="414.83" y2="74.93"/><line class="cls-9" x1="141.3" y1="77.72" x2="142.7" y2="77.2"/><line class="cls-9" x1="414.04" y1="75.34" x2="413.22" y2="75.73"/><line class="cls-9" x1="140.46" y1="78.07" x2="141.3" y2="77.72"/><line class="cls-9" x1="99.21" y1="159.1" x2="98.6" y2="159.18"/><polyline class="cls-9" points="136.46 79.72 139.99 78.26 140 78.26 140.46 78.07"/><line class="cls-9" x1="114.93" y1="89.15" x2="127.75" y2="83.3"/><line class="cls-9" x1="244.87" y1="47.24" x2="243.7" y2="47.47"/><line class="cls-9" x1="408.31" y1="78.18" x2="407.5" y2="78.65"/><line class="cls-9" x1="102.21" y1="159" x2="101.88" y2="159"/><line class="cls-9" x1="405.69" y1="79.66" x2="407.5" y2="78.65"/><line class="cls-9" x1="139.85" y1="158.13" x2="156" y2="157.58"/><line class="cls-9" x1="125.25" y1="158.45" x2="139.85" y2="158.13"/><line class="cls-9" x1="403.54" y1="80.82" x2="405.69" y2="79.66"/><line class="cls-9" x1="84.9" y1="106.21" x2="84.68" y2="106.36"/><line class="cls-9" x1="244.87" y1="47.24" x2="245.46" y2="47.1"/><polyline class="cls-9" points="84.68 106.36 80 109.68 71.83 116.1 63.75 123.15"/><line class="cls-9" x1="390.34" y1="88.24" x2="397.84" y2="83.94"/><line class="cls-9" x1="411.08" y1="76.66" x2="410.26" y2="77.06"/><line class="cls-9" x1="299.19" y1="132.57" x2="315.11" y2="126.4"/><line class="cls-9" x1="59.96" y1="138.17" x2="59.5" y2="135.96"/><polyline class="cls-9" points="293.05 38.37 277.31 40.89 261.55 43.79 245.46 47.1"/><line class="cls-9" x1="369.51" y1="100.11" x2="380.9" y2="93.7"/><line class="cls-9" x1="60.7" y1="140.37" x2="61.7" y2="142.54"/><line class="cls-9" x1="61.7" y1="142.54" x2="62.96" y2="144.68"/><line class="cls-9" x1="315.11" y1="126.4" x2="329.93" y2="120.02"/><line class="cls-9" x1="86.54" y1="159.08" x2="82.5" y2="158.21"/><line class="cls-9" x1="329.93" y1="120.02" x2="344" y2="113.41"/><line class="cls-9" x1="379.69" y1="36.41" x2="379.44" y2="36.33"/><line class="cls-9" x1="344" y1="113.41" x2="357.24" y2="106.71"/><line class="cls-9" x1="411.08" y1="76.66" x2="411.49" y2="76.47"/><polyline class="cls-9" points="313.71 35.76 308.66 36.28 293.05 38.37"/><line class="cls-9" x1="293.05" y1="38.37" x2="310.06" y2="36.17"/><line class="cls-9" x1="282.98" y1="138.09" x2="299.19" y2="132.57"/><line class="cls-9" x1="90.15" y1="102.72" x2="85.47" y2="105.84"/><line class="cls-9" x1="421.75" y1="65.45" x2="421.68" y2="63.35"/><line class="cls-9" x1="357.24" y1="106.71" x2="369.51" y2="100.11"/><line class="cls-9" x1="105.38" y1="94.05" x2="114.93" y2="89.15"/><line class="cls-9" x1="229.46" y1="150.7" x2="248.33" y2="147.24"/><line class="cls-9" x1="105.38" y1="94.05" x2="101.54" y2="95.98"/><line class="cls-9" x1="325.34" y1="34.48" x2="340.6" y2="33.45"/><line class="cls-9" x1="421.26" y1="61.38" x2="420.57" y2="59.48"/><line class="cls-9" x1="380.9" y1="93.7" x2="390.34" y2="88.24"/><line class="cls-9" x1="142.7" y1="77.2" x2="154.85" y2="72.64"/><line class="cls-9" x1="127.75" y1="83.3" x2="136.46" y2="79.72"/><line class="cls-9" x1="142.7" y1="77.2" x2="152.46" y2="73.41"/><line class="cls-9" x1="361.1" y1="33.62" x2="360.96" y2="33.61"/><polyline class="cls-9" points="366.99 34.17 367.77 34.23 361.69 33.65 361.1 33.62 355.17 33.34 355.11 33.34"/><line class="cls-9" x1="419.62" y1="57.58" x2="418.4" y2="55.71"/><line class="cls-9" x1="397.84" y1="83.94" x2="403.54" y2="80.82"/><line class="cls-9" x1="370.93" y1="34.74" x2="367.77" y2="34.23"/><line class="cls-9" x1="114.01" y1="158.67" x2="125.25" y2="158.45"/><line class="cls-9" x1="377.95" y1="36.04" x2="378.88" y2="36.24"/><polyline class="cls-9" points="372.94 35.04 373.78 35.15 370.93 34.74"/><line class="cls-9" x1="404.17" y1="44.54" x2="401.37" y2="43.37"/><line class="cls-9" x1="106.82" y1="158.89" x2="104.6" y2="158.97"/><line class="cls-9" x1="101.57" y1="158.99" x2="101.14" y2="158.97"/><line class="cls-9" x1="106.82" y1="158.89" x2="114.01" y2="158.67"/><polyline class="cls-9" points="101.54 95.98 95.63 99.36 90.15 102.72"/><polyline class="cls-9" points="381.82 37 391.01 39.65 380.72 36.66"/><polyline class="cls-9" points="412.35 76.1 411.92 76.28 411.49 76.47"/><line class="cls-9" x1="102.93" y1="159" x2="102.21" y2="159"/><polyline class="cls-9" points="410.26 77.06 409.85 77.28 409.47 77.5 408.31 78.18"/><line class="cls-9" x1="102.93" y1="159" x2="104.6" y2="158.97"/><polyline class="cls-9" points="98.97 159.12 99.21 159.1 99.54 159.06"/><line class="cls-9" x1="380.72" y1="36.66" x2="380.38" y2="36.56"/><line class="cls-9" x1="72.82" y1="154.05" x2="75.74" y2="155.66"/><polyline class="cls-9" points="379.89 36.45 380.38 36.56 379.44 36.33 374.98 35.4"/><polyline class="cls-9" points="355.11 33.34 354.48 33.31 340.6 33.45"/><polyline class="cls-9" points="377.95 36.04 374.98 35.4 374.65 35.33 373.78 35.15"/><line class="cls-9" x1="373.38" y1="35.13" x2="374.65" y2="35.33"/><polyline class="cls-9" points="378.88 36.24 379.44 36.33 377.95 36.04"/><line class="cls-9" x1="63.75" y1="123.15" x2="61.91" y2="125.3"/><line class="cls-9" x1="373.25" y1="35.11" x2="373.38" y2="35.13"/><line class="cls-9" x1="60.66" y1="127.46" x2="61.91" y2="125.3"/><line class="cls-9" x1="75.74" y1="155.66" x2="78.88" y2="157.04"/><line class="cls-9" x1="59.92" y1="129.42" x2="60.66" y2="127.46"/><line class="cls-9" x1="78.88" y1="157.04" x2="82.5" y2="158.21"/><line class="cls-9" x1="59.45" y1="131.62" x2="59.92" y2="129.42"/><polyline class="cls-9" points="99.54 159.06 99.88 159.03 100.12 159"/><line class="cls-9" x1="59.45" y1="131.62" x2="59.33" y2="133.77"/><line class="cls-9" x1="140.28" y1="78.16" x2="140" y2="78.26"/><line class="cls-9" x1="59.5" y1="135.96" x2="59.33" y2="133.77"/><line class="cls-9" x1="90.97" y1="159.53" x2="93.28" y2="159.57"/><line class="cls-9" x1="60.7" y1="140.37" x2="59.96" y2="138.17"/><line class="cls-9" x1="90.97" y1="159.53" x2="86.54" y2="159.08"/><line class="cls-9" x1="62.96" y1="144.68" x2="64.46" y2="146.75"/><line class="cls-9" x1="95.64" y1="159.48" x2="96.81" y2="159.39"/><line class="cls-9" x1="66.2" y1="148.73" x2="64.46" y2="146.75"/><polyline class="cls-9" points="101.27 158.97 101.14 158.97 101.08 158.97 100.75 158.98 100.43 158.99 99.88 159.03"/><line class="cls-9" x1="66.2" y1="148.73" x2="68.16" y2="150.61"/><line class="cls-9" x1="95.64" y1="159.48" x2="93.28" y2="159.57"/><line class="cls-9" x1="70.33" y1="152.37" x2="68.16" y2="150.61"/><line class="cls-9" x1="411.33" y1="48.74" x2="409.1" y2="47.22"/><line class="cls-9" x1="70.33" y1="152.37" x2="72.82" y2="154.05"/><line class="cls-9" x1="282.98" y1="138.09" x2="266.01" y2="143.03"/><line class="cls-9" x1="156" y1="157.58" x2="173.76" y2="156.64"/><line class="cls-9" x1="313.71" y1="35.76" x2="325.34" y2="34.48"/><line class="cls-9" x1="391.01" y1="39.65" x2="401.37" y2="43.37"/><line class="cls-9" x1="84.9" y1="106.21" x2="85.47" y2="105.84"/><g class="cls-10"><line class="cls-11" x1="292.27" y1="52.45" x2="308.25" y2="50.47"/><line class="cls-11" x1="308.25" y1="50.47" x2="323.49" y2="48.75"/><line class="cls-11" x1="337.93" y1="47.22" x2="323.49" y2="48.75"/><line class="cls-11" x1="337.93" y1="47.22" x2="350.08" y2="45.95"/><line class="cls-11" x1="350.08" y1="45.95" x2="359.69" y2="44.85"/><line class="cls-11" x1="359.69" y1="44.85" x2="366.89" y2="43.86"/><line class="cls-11" x1="366.89" y1="43.86" x2="369.59" y2="43.43"/><line class="cls-11" x1="371.91" y1="43.05" x2="369.59" y2="43.43"/><line class="cls-11" x1="371.91" y1="43.05" x2="372.97" y2="42.88"/><line class="cls-11" x1="398.69" y1="42.43" x2="395.46" y2="41.59"/><line class="cls-11" x1="395.46" y1="41.59" x2="391.89" y2="40.97"/><line class="cls-11" x1="391.89" y1="40.97" x2="387.94" y2="40.67"/><line class="cls-11" x1="387.94" y1="40.67" x2="383.95" y2="40.79"/><line class="cls-11" x1="383.95" y1="40.79" x2="381.94" y2="41.02"/><line class="cls-11" x1="225.11" y1="63.74" x2="241.87" y2="60.37"/><line class="cls-11" x1="378.94" y1="41.58" x2="379.94" y2="41.36"/><line class="cls-11" x1="375.95" y1="42.43" x2="376.45" y2="42.27"/><line class="cls-11" x1="375.95" y1="42.43" x2="375.46" y2="42.5"/><line class="cls-11" x1="78.85" y1="116.36" x2="79.1" y2="116.27"/><line class="cls-11" x1="78.85" y1="116.36" x2="78.61" y2="116.45"/><line class="cls-11" x1="75.58" y1="117.19" x2="74.47" y2="117.47"/><line class="cls-11" x1="75.58" y1="117.19" x2="76.16" y2="117.06"/><line class="cls-11" x1="377.94" y1="41.83" x2="377.44" y2="41.97"/><line class="cls-11" x1="377.94" y1="41.83" x2="378.44" y2="41.7"/><line class="cls-11" x1="372.97" y1="42.88" x2="373.99" y2="42.72"/><line class="cls-11" x1="374.48" y1="42.64" x2="373.99" y2="42.72"/><line class="cls-11" x1="79.37" y1="116.17" x2="79.1" y2="116.27"/><line class="cls-11" x1="78.38" y1="116.53" x2="78.49" y2="116.49"/><line class="cls-11" x1="78.38" y1="116.53" x2="78.27" y2="116.58"/><line class="cls-11" x1="76.16" y1="117.06" x2="76.74" y2="116.94"/><line class="cls-11" x1="76.74" y1="116.94" x2="77.04" y2="116.88"/><line class="cls-11" x1="78.16" y1="116.62" x2="78.05" y2="116.66"/><line class="cls-11" x1="376.94" y1="42.12" x2="377.44" y2="41.97"/><line class="cls-11" x1="374.97" y1="42.57" x2="375.46" y2="42.5"/><line class="cls-11" x1="275.81" y1="54.73" x2="292.27" y2="52.45"/><line class="cls-11" x1="378.94" y1="41.58" x2="378.44" y2="41.7"/><line class="cls-11" x1="78.61" y1="116.45" x2="78.49" y2="116.49"/><line class="cls-11" x1="78.16" y1="116.62" x2="78.27" y2="116.58"/><line class="cls-11" x1="77.34" y1="116.82" x2="77.64" y2="116.76"/><line class="cls-11" x1="77.34" y1="116.82" x2="77.04" y2="116.88"/><line class="cls-11" x1="208.45" y1="67.59" x2="225.11" y2="63.74"/><line class="cls-11" x1="192.08" y1="71.95" x2="208.45" y2="67.59"/><line class="cls-11" x1="192.08" y1="71.95" x2="175.67" y2="76.99"/><line class="cls-11" x1="160.01" y1="82.39" x2="175.67" y2="76.99"/><line class="cls-11" x1="160.01" y1="82.39" x2="145.28" y2="87.95"/><line class="cls-11" x1="131.65" y1="93.46" x2="145.28" y2="87.95"/><line class="cls-11" x1="118.58" y1="99.06" x2="131.65" y2="93.46"/><line class="cls-11" x1="106.95" y1="104.25" x2="118.58" y2="99.06"/><line class="cls-11" x1="96.56" y1="108.98" x2="106.95" y2="104.25"/><line class="cls-11" x1="88.48" y1="112.6" x2="96.56" y2="108.98"/><line class="cls-11" x1="81.31" y1="115.48" x2="83.06" y2="114.83"/><line class="cls-11" x1="83.06" y1="114.83" x2="88.48" y2="112.6"/><line class="cls-11" x1="79.95" y1="115.97" x2="79.37" y2="116.17"/><line class="cls-11" x1="79.95" y1="115.97" x2="81.31" y2="115.48"/><line class="cls-11" x1="77.95" y1="116.7" x2="77.64" y2="116.76"/><line class="cls-11" x1="77.95" y1="116.7" x2="78.05" y2="116.66"/><line class="cls-11" x1="73.4" y1="117.78" x2="74.47" y2="117.47"/><line class="cls-11" x1="73.4" y1="117.78" x2="71.38" y2="118.47"/><line class="cls-11" x1="69.53" y1="119.24" x2="71.38" y2="118.47"/><line class="cls-11" x1="69.53" y1="119.24" x2="66.32" y2="121.04"/><line class="cls-11" x1="66.32" y1="121.04" x2="63.75" y2="123.12"/><line class="cls-11" x1="259.1" y1="57.33" x2="275.81" y2="54.73"/><line class="cls-11" x1="374.97" y1="42.57" x2="374.48" y2="42.64"/><line class="cls-11" x1="241.87" y1="60.37" x2="259.1" y2="57.33"/><line class="cls-11" x1="379.94" y1="41.36" x2="381.94" y2="41.02"/><line class="cls-11" x1="376.45" y1="42.27" x2="376.94" y2="42.12"/><line class="cls-11" x1="379.69" y1="36.38" x2="379.44" y2="36.31"/><path class="cls-11" d="M379.33,36.29l-.13,0L378,36"/><path class="cls-11" d="M378.88,36.21l.32,0,.13,0h.07"/><path class="cls-11" d="M375,35.38l-1.2-.25"/><path class="cls-11" d="M375.59,35.51l-.29-.06"/><path class="cls-11" d="M377.5,35.92l-.39-.08"/><path class="cls-11" d="M355.11,33.31c-4.83-.05-9.68.07-14.51.11"/><path class="cls-11" d="M379.89,36.43l.06,0c-.06,0-1-.2-2-.43l-.45-.1-.39-.08-1.52-.33-.29-.06-.32-.07"/><line class="cls-11" x1="380.72" y1="36.64" x2="380.38" y2="36.54"/><path class="cls-11" d="M101.54,96c-3.83,2.19-7.65,4.39-11.39,6.74"/><path class="cls-11" d="M381.82,37,391,39.62l-10.29-3"/><path class="cls-11" d="M372.06,34.87l-1.13-.16"/><path class="cls-11" d="M373.68,35.1l-1.11-.16"/><path class="cls-11" d="M373.48,35.08l.2,0h0"/><path class="cls-11" d="M372.94,35l.44,0"/><line class="cls-11" x1="370.93" y1="34.71" x2="367.77" y2="34.21"/><path class="cls-11" d="M361.1,33.6l-.14,0"/><line class="cls-11" x1="127.75" y1="83.28" x2="136.46" y2="79.69"/><line class="cls-11" x1="152.46" y1="73.38" x2="142.7" y2="77.18"/><path class="cls-11" d="M367,34.14c-.66-.08-8.69-.72-11.88-.83"/><line class="cls-11" x1="105.38" y1="94.02" x2="101.54" y2="95.96"/><line class="cls-11" x1="325.34" y1="34.45" x2="340.6" y2="33.42"/><line class="cls-11" x1="105.38" y1="94.02" x2="114.93" y2="89.12"/><line class="cls-11" x1="85.47" y1="105.82" x2="90.15" y2="102.7"/><path class="cls-11" d="M313.71,35.74c-6.91.63-13.79,1.69-20.66,2.61"/><path class="cls-11" d="M293.05,38.35c-15.95,2.55-31.77,5.47-47.59,8.73"/><path class="cls-11" d="M84.68,106.34a223.45,223.45,0,0,0-20.93,16.78"/><path class="cls-11" d="M84.9,106.19l-.22.15"/><line class="cls-11" x1="244.87" y1="47.21" x2="245.46" y2="47.08"/><line class="cls-11" x1="114.93" y1="89.12" x2="127.75" y2="83.28"/><line class="cls-11" x1="244.87" y1="47.21" x2="243.7" y2="47.44"/><line class="cls-11" x1="140.46" y1="78.05" x2="141.3" y2="77.7"/><line class="cls-11" x1="141.3" y1="77.7" x2="142.7" y2="77.18"/><path class="cls-11" d="M140,78.24c-1.19.45-2.37.94-3.54,1.45"/><polyline class="cls-11" points="367.77 34.21 372.06 34.87 372.57 34.94 373.38 35.07 373.48 35.08 373.78 35.13"/><polyline class="cls-11" points="138.99 78.62 140 78.23 140.46 78.05"/><path class="cls-11" d="M243.7,47.44a747.49,747.49,0,0,0-91.24,25.94"/><line class="cls-11" x1="313.71" y1="35.74" x2="325.34" y2="34.45"/><line class="cls-11" x1="391.01" y1="39.62" x2="398.69" y2="42.43"/></g></g><g id="Plane-Square" class="cls-12"><polygon class="cls-13" points="271.47 55.72 259.11 58.58 263.59 65.33 275.95 62.47 271.47 55.72"/><polygon class="cls-13" points="63.01 133.17 54.08 142.74 58.81 148.55 67.75 138.99 63.01 133.17"/><polygon class="cls-13" points="84.11 113.27 74.28 122 78.74 127.56 88.56 118.83 84.11 113.27"/><polygon class="cls-13" points="108.42 97.61 96.95 103.9 101.28 109.29 112.75 103 108.42 97.61"/><polyline class="cls-13" points="126.23 95.84 127.26 97.16 139.45 93.03 135.09 87.47 122.91 91.59 125.06 94.35"/><polygon class="cls-13" points="162.26 80.15 149.92 83.16 154.36 89.03 166.7 86.02 162.26 80.15"/><polygon class="cls-13" points="189.57 74.18 177.2 76.73 181.66 82.92 194.02 80.36 189.57 74.18"/><polygon class="cls-13" points="216.89 68.4 204.52 71.01 208.98 77.42 221.35 74.81 216.89 68.4"/><polygon class="cls-13" points="423.64 58.68 414.17 54.37 418.34 62.63 427.81 66.94 423.64 58.68"/><polygon class="cls-13" points="244.18 62.13 231.82 64.97 236.3 71.56 248.65 68.72 244.18 62.13"/><polygon class="cls-13" points="298.77 49.65 286.41 52.24 290.89 59.18 303.25 56.6 298.77 49.65"/><polygon class="cls-13" points="326.05 44.8 313.71 46.72 318.19 53.97 330.53 52.05 326.05 44.8"/><polyline class="cls-13" points="354.95 45.45 353.09 42.2 340.93 42.89 345.33 50.59 357.49 49.9 355.29 46.05"/><polygon class="cls-13" points="379.1 43.23 367.61 42.03 371.91 50.12 383.4 51.32 379.1 43.23"/><polygon class="cls-13" points="402.4 49.52 392.21 46.14 396.51 54.27 406.7 57.65 402.4 49.52"/></g><g id="Plane-Border"><polygon class="cls-14" points="271.47 55.72 259.11 58.58 263.59 65.33 275.95 62.47 271.47 55.72"/><polygon class="cls-14" points="63.01 133.17 54.08 142.74 58.81 148.55 67.75 138.99 63.01 133.17"/><polygon class="cls-14" points="84.11 113.27 74.28 122 78.74 127.56 88.56 118.83 84.11 113.27"/><polygon class="cls-14" points="108.42 97.61 96.95 103.9 101.28 109.29 112.75 103 108.42 97.61"/><polyline class="cls-14" points="126.23 95.84 127.26 97.16 139.45 93.03 135.09 87.47 122.91 91.59 125.06 94.35"/><polygon class="cls-14" points="162.26 80.15 149.92 83.16 154.36 89.03 166.7 86.02 162.26 80.15"/><polygon class="cls-14" points="189.57 74.18 177.2 76.73 181.66 82.92 194.02 80.36 189.57 74.18"/><polygon class="cls-14" points="216.89 68.4 204.52 71.01 208.98 77.42 221.35 74.81 216.89 68.4"/><polygon class="cls-14" points="423.64 58.68 414.17 54.37 418.34 62.63 427.81 66.94 423.64 58.68"/><polygon class="cls-14" points="244.18 62.13 231.82 64.97 236.3 71.56 248.65 68.72 244.18 62.13"/><polygon class="cls-14" points="298.77 49.65 286.41 52.24 290.89 59.18 303.25 56.6 298.77 49.65"/><polygon class="cls-14" points="326.05 44.8 313.71 46.72 318.19 53.97 330.53 52.05 326.05 44.8"/><polyline class="cls-14" points="354.95 45.45 353.09 42.2 340.93 42.89 345.33 50.59 357.49 49.9 355.29 46.05"/><polygon class="cls-14" points="379.1 43.23 367.61 42.03 371.91 50.12 383.4 51.32 379.1 43.23"/><polygon class="cls-14" points="402.4 49.52 392.21 46.14 396.51 54.27 406.7 57.65 402.4 49.52"/></g><g id="Plane-ZAxis"><line class="cls-15" x1="212.93" y1="72.91" x2="212.78" y2="67.65"/><polygon class="cls-16" points="213.82 68.45 213.65 68.62 212.78 67.75 211.97 68.67 211.78 68.51 212.77 67.38 213.82 68.45"/><line class="cls-15" x1="185.61" y1="78.55" x2="185.44" y2="73.21"/><polygon class="cls-16" points="186.49 74.01 186.31 74.19 185.45 73.31 184.64 74.24 184.45 74.08 185.44 72.94 186.49 74.01"/><line class="cls-15" x1="158.31" y1="84.59" x2="157.85" y2="79.23"/><polygon class="cls-16" points="158.94 79.97 158.77 80.16 157.86 79.33 157.1 80.3 156.9 80.14 157.83 78.96 158.94 79.97"/><line class="cls-15" x1="131.18" y1="92.31" x2="130.08" y2="87.04"/><polygon class="cls-16" points="131.25 87.64 131.1 87.85 130.09 87.14 129.46 88.19 129.24 88.06 130.02 86.78 131.25 87.64"/><line class="cls-15" x1="240.24" y1="66.85" x2="239.99" y2="61.66"/><polygon class="cls-16" points="241.05 62.44 240.88 62.62 240 61.76 239.2 62.7 239.01 62.54 239.98 61.39 241.05 62.44"/><line class="cls-15" x1="81.42" y1="120.41" x2="77.88" y2="116.6"/><polygon class="cls-16" points="79.2 116.51 79.18 116.76 77.95 116.67 77.95 117.9 77.7 117.9 77.7 116.4 79.2 116.51"/><line class="cls-15" x1="60.91" y1="140.86" x2="56.96" y2="137.62"/><polygon class="cls-16" points="58.25 137.35 58.27 137.6 57.03 137.68 57.2 138.9 56.95 138.94 56.75 137.45 58.25 137.35"/><line class="cls-15" x1="420.99" y1="60.65" x2="424.83" y2="56.26"/><polygon class="cls-16" points="425.05 57.56 424.8 57.57 424.76 56.33 423.54 56.46 423.51 56.21 425 56.06 425.05 57.56"/><line class="cls-15" x1="399.46" y1="51.89" x2="402.81" y2="47.28"/><polygon class="cls-16" points="403.15 48.55 402.9 48.58 402.76 47.36 401.55 47.59 401.5 47.35 402.97 47.06 403.15 48.55"/><line class="cls-15" x1="375.51" y1="46.68" x2="377.73" y2="41.83"/><polygon class="cls-16" points="378.32 43.01 378.08 43.08 377.69 41.91 376.55 42.38 376.46 42.15 377.85 41.58 378.32 43.01"/><line class="cls-15" x1="104.85" y1="103.45" x2="102.6" y2="98.64"/><polygon class="cls-16" points="103.88 98.96 103.78 99.19 102.64 98.73 102.27 99.9 102.03 99.83 102.49 98.4 103.88 98.96"/><line class="cls-15" x1="294.83" y1="54.42" x2="294.79" y2="49.31"/><polygon class="cls-16" points="295.82 50.13 295.64 50.3 294.79 49.41 293.96 50.31 293.77 50.15 294.79 49.04 295.82 50.13"/><line class="cls-15" x1="349.21" y1="46.39" x2="350.34" y2="41.39"/><polygon class="cls-16" points="351.15 42.42 350.94 42.55 350.32 41.48 349.3 42.18 349.16 41.97 350.4 41.13 351.15 42.42"/><line class="cls-15" x1="322.12" y1="49.38" x2="322.51" y2="44.31"/><polygon class="cls-16" points="323.46 45.21 323.27 45.37 322.5 44.41 321.59 45.24 321.42 45.06 322.53 44.04 323.46 45.21"/><line class="cls-15" x1="267.53" y1="60.52" x2="267.31" y2="55.39"/><polygon class="cls-16" points="268.37 56.17 268.19 56.35 267.32 55.48 266.51 56.42 266.32 56.26 267.3 55.12 268.37 56.17"/></g><g id="Plane-YAxis"><line class="cls-17" x1="185.61" y1="78.55" x2="187.82" y2="81.61"/><line class="cls-17" x1="158.31" y1="84.59" x2="160.51" y2="87.5"/><line class="cls-17" x1="81.42" y1="120.41" x2="83.63" y2="123.17"/><line class="cls-17" x1="60.91" y1="140.86" x2="63.25" y2="143.74"/><line class="cls-17" x1="212.93" y1="72.91" x2="215.14" y2="76.09"/><line class="cls-17" x1="131.18" y1="92.31" x2="133.33" y2="95.06"/><line class="cls-17" x1="240.24" y1="66.85" x2="242.45" y2="70.11"/><line class="cls-17" x1="104.85" y1="103.45" x2="106.99" y2="106.12"/><line class="cls-17" x1="420.99" y1="60.65" x2="423.06" y2="64.74"/><line class="cls-17" x1="399.46" y1="51.89" x2="401.58" y2="55.92"/><line class="cls-17" x1="375.51" y1="46.68" x2="377.64" y2="50.68"/><line class="cls-17" x1="349.21" y1="46.39" x2="351.39" y2="50.2"/><line class="cls-17" x1="322.12" y1="49.38" x2="324.34" y2="52.98"/><line class="cls-17" x1="294.83" y1="54.42" x2="297.05" y2="57.85"/><line class="cls-17" x1="267.53" y1="60.52" x2="269.75" y2="63.86"/></g><g id="Plane-XAxis"><line class="cls-18" x1="399.46" y1="51.89" x2="404.5" y2="53.57"/><line class="cls-18" x1="81.42" y1="120.41" x2="86.29" y2="116.09"/><line class="cls-18" x1="185.61" y1="78.55" x2="191.74" y2="77.28"/><line class="cls-18" x1="158.31" y1="84.59" x2="164.42" y2="83.1"/><line class="cls-18" x1="104.85" y1="103.45" x2="110.53" y2="100.34"/><line class="cls-18" x1="60.91" y1="140.86" x2="65.34" y2="136.13"/><line class="cls-18" x1="294.83" y1="54.42" x2="300.95" y2="53.14"/><line class="cls-18" x1="420.99" y1="60.65" x2="425.68" y2="62.79"/><line class="cls-18" x1="131.18" y1="92.31" x2="137.21" y2="90.27"/><line class="cls-18" x1="212.93" y1="72.91" x2="219.06" y2="71.62"/><line class="cls-18" x1="267.41" y1="60.52" x2="273.65" y2="59.11"/><line class="cls-18" x1="240.17" y1="66.85" x2="246.4" y2="65.43"/><line class="cls-19" x1="81.42" y1="120.41" x2="85.63" y2="116.68"/><line class="cls-19" x1="375.51" y1="46.68" x2="381.19" y2="47.27"/><line class="cls-19" x1="349.21" y1="46.42" x2="354.9" y2="46.07"/><line class="cls-19" x1="322.12" y1="49.38" x2="328.23" y2="48.43"/></g><g id="TransportedV"><line class="cls-20" x1="212.93" y1="72.91" x2="218.64" y2="78.46"/><polygon class="cls-21" points="216.02 78.77 216.03 78.27 218.5 78.32 218.37 75.86 218.87 75.83 219.02 78.83 216.02 78.77"/><line class="cls-20" x1="158.31" y1="84.59" x2="163.97" y2="89.57"/><polygon class="cls-21" points="161.38 90.01 161.36 89.51 163.83 89.44 163.58 86.99 164.08 86.94 164.38 89.93 161.38 90.01"/><line class="cls-20" x1="375.51" y1="46.68" x2="380.87" y2="54.33"/><polygon class="cls-21" points="378.25 54.15 378.35 53.66 380.76 54.17 381.1 51.73 381.6 51.8 381.19 54.78 378.25 54.15"/><line class="cls-20" x1="240.24" y1="67.11" x2="245.95" y2="72.79"/><polygon class="cls-21" points="243.33 73.08 243.35 72.58 245.81 72.66 245.72 70.2 246.22 70.18 246.34 73.18 243.33 73.08"/><line class="cls-20" x1="267.55" y1="60.52" x2="273.27" y2="66.36"/><polygon class="cls-21" points="270.65 66.61 270.68 66.11 273.14 66.22 273.07 63.76 273.57 63.74 273.65 66.74 270.65 66.61"/><line class="cls-20" x1="185.61" y1="78.55" x2="191.3" y2="83.88"/><polygon class="cls-21" points="188.69 84.24 188.69 83.74 191.16 83.75 190.99 81.29 191.49 81.26 191.69 84.26 188.69 84.24"/><line class="cls-20" x1="322.12" y1="49.43" x2="327.84" y2="55.88"/><polygon class="cls-21" points="325.21 56 325.26 55.5 327.71 55.74 327.77 53.28 328.27 53.29 328.2 56.29 325.21 56"/><line class="cls-20" x1="349.21" y1="46.39" x2="354.83" y2="53.43"/><polygon class="cls-21" points="352.2 53.41 352.27 52.91 354.71 53.28 354.89 50.82 355.39 50.86 355.17 53.85 352.2 53.41"/><line class="cls-20" x1="420.99" y1="60.65" x2="425.97" y2="68.83"/><polygon class="cls-21" points="423.36 68.48 423.5 68 425.87 68.67 426.36 66.25 426.85 66.35 426.25 69.29 423.36 68.48"/><line class="cls-20" x1="131.18" y1="92.31" x2="136.34" y2="96.47"/><polygon class="cls-21" points="133.77 97.03 133.73 96.53 136.19 96.35 135.84 93.91 136.34 93.84 136.76 96.81 133.77 97.03"/><line class="cls-20" x1="104.85" y1="103.45" x2="110.33" y2="107.49"/><polygon class="cls-21" points="107.78 108.15 107.72 107.66 110.17 107.38 109.72 104.95 110.21 104.86 110.77 107.81 107.78 108.15"/><line class="cls-20" x1="81.42" y1="120.41" x2="86.8" y2="124.25"/><polygon class="cls-21" points="84.26 124.95 84.2 124.46 86.64 124.14 86.15 121.73 86.64 121.63 87.24 124.57 84.26 124.95"/><line class="cls-20" x1="60.91" y1="140.86" x2="66.42" y2="144.84"/><polygon class="cls-21" points="63.88 145.53 63.81 145.03 66.26 144.72 65.78 142.31 66.27 142.21 66.86 145.16 63.88 145.53"/><line class="cls-20" x1="399.46" y1="51.89" x2="404.63" y2="59.84"/><polygon class="cls-21" points="402.01 59.57 402.13 59.08 404.52 59.68 404.94 57.25 405.44 57.34 404.92 60.3 402.01 59.57"/><line class="cls-20" x1="294.83" y1="54.42" x2="300.56" y2="60.47"/><polygon class="cls-21" points="297.94 60.67 297.97 60.18 300.43 60.33 300.41 57.87 300.91 57.86 300.94 60.87 297.94 60.67"/></g><g id="Annotations"><text class="cls-22" transform="translate(188.08 42.25)">g</text><text class="cls-22" transform="translate(192.58 45.24) scale(0.58)">0</text><text class="cls-23" transform="translate(240.97 79.83)">v</text><text class="cls-22" transform="translate(245.47 80.83) scale(0.58)">p</text><line class="cls-24" x1="196.26" y1="46.24" x2="225.73" y2="68.54"/><path class="cls-25" d="M225.37,68.27l.11-1h0l.82,1.35,1,1.2-1.43-.66-1.52-.42v0Z"/><text class="cls-22" transform="translate(291.1 151)">h</text><text class="cls-22" transform="translate(295.6 152) scale(0.58)">p</text><line class="cls-24" x1="291.22" y1="143.03" x2="298.52" y2="126.09"/><path class="cls-25" d="M298.34,126.5l-1,.15v0l1.12-1.11.92-1.28-.3,1.54,0,1.58,0,0Z"/><line class="cls-24" x1="291.22" y1="143.03" x2="280.26" y2="134.84"/><path class="cls-25" d="M280.62,135.11l-.1,1h0l-.83-1.35-1-1.18,1.43.64,1.53.41v0Z"/><line class="cls-24" x1="291.22" y1="143.03" x2="255.03" y2="143.03"/><path class="cls-25" d="M255.48,143l.55.9,0,0-1.47-.58L253,143l1.54-.34,1.47-.58h0Z"/></g></svg>