<svg xmlns="http://www.w3.org/2000/svg" viewBox="0 0 481.89 198.43"><defs><style>.Surface-underlying{fill:#e66526;opacity:0.25;}.Surface-visible{fill:#3f82c4;}.Surface-visible,.cls-6{opacity:0.5;}.cls-1,.cls-10,.cls-11,.cls-13,.cls-15,.cls-19,.cls-2,.cls-3,.cls-4,.cls-5,.cls-8{fill:none;}.cls-1,.cls-2{stroke:#b2b2b2;}.cls-1,.cls-10,.cls-11,.cls-13,.cls-15,.cls-3,.cls-4,.cls-5{stroke-linecap:round;stroke-linejoin:round;}.cls-1,.cls-10,.cls-11,.cls-13,.cls-19,.cls-2,.cls-4{stroke-width:0.25px;}.cls-1{stroke-dasharray:3 3;}.cls-19,.cls-2,.cls-8{stroke-miterlimit:10;}.cls-15,.cls-19,.cls-3,.cls-4{stroke:#1d1d1b;}.cls-4{stroke-dasharray:0.01 0.6;}.cls-5{stroke:#fff;}.cls-15,.cls-5{stroke-width:0.5px;}.cls-7{fill:#c1962b;}.cls-8{stroke:#c1962b;stroke-width:0.1px;}.cls-9{fill:#2a4d9c;}.cls-10{stroke:#2a4d9c;}.cls-11{stroke:#037534;}.cls-12{fill:#037534;}.cls-13{stroke:#c91517;stroke-dasharray:5.67 5.67;}.cls-14,.cls-16,.cls-17,.cls-18{fill:#1d1d1b;}.cls-16,.cls-17{font-size:9px;}.cls-16,.cls-18{font-family:TimesNewRomanPS-ItalicMT, Times New Roman;font-style:italic;}.cls-17{font-family:TimesNewRomanPS-BoldMT, Times New Roman;font-weight:700;}.cls-18{font-size:7px;}</style></defs><title>ParallelTransportMethod</title><g id="CuttyPTwithGeodesics"><g id="Surface_shading" data-name="Surface shading"><polyline class="Surface-underlying" points="387.18 23.88 387.18 23.88 387.35 23.9 394.38 24.55 395.31 24.63 388.05 23.93 380.27 23.56 380.2 23.56 380.2 23.56 379.45 23.53 362.88 23.69 344.67 24.92 330.79 26.46 324.76 27.08 306.13 29.57 287.34 32.58 268.54 36.04 249.34 39.99 248.63 40.15 247.24 40.42 247.24 40.42 228.45 44.55 209.81 49.09 191.5 54.03 173.06 59.52 155.31 65.32 138.34 71.38 126.7 75.91 125.03 76.54 124.03 76.95 122.28 77.63 123.47 77.18 122.28 77.63 119.25 78.92 108.86 83.19 93.56 90.17 82.16 96.02 77.58 98.33 70.52 102.36 63.98 106.37 58.4 110.09 57.47 110.71 57.46 110.71 57.46 110.71 51.88 114.67 42.12 122.34 32.48 130.75 35.55 128.25 39.37 126.11 41.58 125.19 43.99 124.37 45.27 124 46.6 123.67 47.28 123.51 47.98 123.36 48.34 123.29 48.69 123.22 49.05 123.15 49.42 123.08 49.54 123.03 49.67 122.98 49.8 122.93 49.93 122.88 50.07 122.83 50.21 122.78 50.49 122.67 50.8 122.56 51.12 122.45 51.81 122.21 53.44 121.63 55.53 120.84 61.99 118.19 71.64 113.87 84.03 108.22 97.91 102.03 113.51 95.35 129.78 88.76 147.36 82.13 166.05 75.69 185.63 69.67 205.17 64.47 225.05 59.88 245.05 55.85 265.61 52.22 285.56 49.12 305.2 46.4 324.28 44.03 342.46 41.98 359.7 40.16 374.19 38.64 385.67 37.33 394.26 36.15 397.48 35.64 400.25 35.18 401.51 34.98 402.73 34.78 403.32 34.7 403.9 34.61 404.49 34.52 405.07 34.44 405.66 34.25 406.25 34.07 406.85 33.89 407.44 33.73 408.04 33.58 408.63 33.43 409.83 33.17 412.22 32.75 414.61 32.48 419.38 32.34 424.09 32.7 428.36 33.44 432.21 34.45 423.04 31.09 412.07 27.93 423.04 31.09 410.76 27.53 410.76 27.53 410.36 27.41 403.92 26.03 409.23 27.14 410.36 27.41 409.77 27.28 409.53 27.23 409.23 27.14 408.56 27.02 409.23 27.14 407.46 26.79 403.52 25.94 402.49 25.73 395.31 24.63 399.08 25.23 402.49 25.73 401.47 25.6"/><polyline class="Surface-visible" points="422.79 31.09 435.16 35.54 438.5 36.94 441.52 38.45 444.38 40.13 447.05 41.95 449.52 43.89 451.76 45.94 453.75 48.07 455.49 50.26 456.93 52.5 458.08 54.76 458.9 57.03 459.39 59.38 459.48 61.88 459.07 64.31 458.06 66.81 456.32 69.28 453.73 71.61 452.11 72.69 451.23 73.2 450.28 73.69 449.3 74.16 448.27 74.6 447.75 74.81 447.24 75.04 446.75 75.26 445.77 75.75 445.28 76.01 444.82 76.26 443.44 77.09 442.48 77.65 440.31 78.85 437.75 80.23 430.94 83.96 422 89.08 410.73 95.6 397.14 103.26 382.49 111.13 366.69 119.12 349.9 127.02 332.21 134.63 313.21 141.99 293.87 148.58 273.61 154.48 252.52 159.5 230 163.63 207.29 166.78 184.95 169.1 163.52 170.72 142.32 171.84 123.05 172.5 105.63 172.88 92.2 173.15 83.63 173.41 80.98 173.5 78.98 173.54 78.13 173.54 77.73 173.53 77.36 173.52 76.77 173.5 77 173.5 76.38 173.51 76 173.53 75.35 173.57 75.63 173.53 75.35 173.57 74.94 173.61 74.26 173.68 74.54 173.65 73.82 173.75 73.11 173.84 71.69 174 70.28 174.11 67.47 174.22 64.72 174.17 59.43 173.63 54.6 172.6 50.29 171.19 46.54 169.56 43.05 167.63 40.09 165.62 37.49 163.53 35.15 161.28 33.08 158.91 31.29 156.44 29.78 153.9 28.59 151.3 27.71 148.67 27.16 146.04 26.95 143.43 27.1 140.86 27.65 138.23 28.54 135.9 30.03 133.32 32.23 130.75 41.87 122.34 51.63 114.67 57.21 110.71 57.21 110.71 57.21 110.71 57.47 110.54 58.15 110.09 63.73 106.38 70.27 102.36 77.33 98.33 81.91 96.02 93.31 90.17 108.61 83.19 119 78.92 122.03 77.63 123.22 77.18 122.03 77.63 123.78 76.95 124.78 76.54 126.45 75.91 138.09 71.38 155.06 65.32 172.81 59.52 191.25 54.03 209.56 49.1 228.2 44.56 246.99 40.43 246.99 40.43 248.38 40.15 249.09 39.99 268.29 36.04 287.1 32.58 305.88 29.57 324.52 27.08 330.54 26.46 344.42 24.92 362.63 23.7 379.2 23.53 379.95 23.56 379.95 23.56 380.02 23.56 387.8 23.93 395.06 24.63 394.13 24.55 398.83 25.23 395.06 24.63 402.24 25.73 403.27 25.94 407.21 26.79 403.67 26.03 408.98 27.14 410.11 27.41 409.52 27.28 409.28 27.23 408.98 27.14 410.11 27.41 410.51 27.54 410.51 27.53 422.79 31.09 411.82 27.93 387.1 23.9 386.93 23.88 386.93 23.88"/></g><g id="Make2D::Hidden::Curves::Geodesics"><line class="cls-1" x1="409.53" y1="27.49" x2="410.65" y2="27.76"/><polyline class="cls-1" points="390.05 36.99 390.8 35.96 392.25 34.18 393.16 33.07 394 32.3 396.12 30.31 396.66 29.96 399.15 28.45 399.79 28.21 402.33 27.38 402.5 27.34 403.84 27.14 403.94 27.13 405.37 27.04 405.42 27.04 406.81 27.08 407.09 27.11 408.25 27.25 409.48 27.47 409.48 27.47"/><polyline class="cls-1" points="43.71 124.72 43.6 124.52 43.37 124.05 43.19 123.64 43.08 123.36 42.98 122.93 42.85 122.35 42.96 122.09 43.09 121.85 43.11 121.82"/><polyline class="cls-1" points="70.24 114.75 70.06 114.12 69.05 110.43 68.72 107.95 68.61 107.13 68.62 106 68.62 105.85 68.77 104.84 68.78 104.8 69 104.17 69.08 103.96 69.08 103.95 69.5 103.33 69.53 103.31 70.02 102.92"/><polyline class="cls-1" points="93.91 104.07 93.75 102.32 93.44 98.67 93.58 96.69 93.77 94.46 94.33 92.68 94.79 91.36 95.78 90.03 96.4 89.29"/><line class="cls-1" x1="97.09" y1="88.96" x2="98.35" y2="88.24"/><polyline class="cls-1" points="360.68 40.31 361 39.83 364.44 34.63 366.05 32.68 368.01 30.34 370.49 28.13 371.5 27.25 374.66 25.39 374.99 25.2 376.58 24.57 376.65 24.55 377.18 24.41 378.23 24.14 378.33 24.13 379.72 23.93 379.95 23.92 381.21 23.87 381.21 23.87"/><polyline class="cls-1" points="331.26 43.5 332.81 40.39 334.39 37.23 336.85 33.45 337.57 32.37 340.82 28.8 340.85 28.77 341.01 28.66 344.21 26.42 344.65 26.23 347.41 25.18 348.14 25.07 350.45 24.79 350.46 24.79"/><polyline class="cls-1" points="175.76 72.96 176.04 69.76 176.29 66.71 176.99 64.29 177.67 62.01 178.75 60.4 179.82 58.78 181.29 57.84 182.65 56.92"/><polyline class="cls-1" points="205.94 64.55 205.98 64.28 206.95 58.17 207.11 57.72 208.65 53.41 208.98 52.95 210.99 50.17 211.54 49.82 213.94 48.35"/><polyline class="cls-1" points="300.99 47.24 303.33 40.92 303.4 40.72 303.81 39.95 306.08 35.73 306.54 35.14 308.99 32.12 309.95 31.35 312.13 29.76 313.45 29.23 315.25 28.61 315.25 28.61"/><polyline class="cls-1" points="119.44 93.2 119.43 89.04 119.42 87.28 120.08 83.64 120.27 82.69 121.6 79.84 121.86 79.34 122.19 79.06 124.09 77.19 124.39 77.09 126.59 76.22"/><polyline class="Dashed-gray-line" points="147.22 82.44 147.22 82.39 147.36 76.36 147.44 76.03 148.43 71.72 148.63 71.34 150.3 68.44 152.53 66.75 152.88 66.45"/><polyline class="cls-1" points="237.5 57.63 238.41 53.15 238.82 51.15 240.31 47.32 240.72 46.28 242.84 43.34 243.18 42.9 245.98 41.03 246.14 40.94"/><polyline class="cls-1" points="269.34 51.9 269.76 50.46 271.2 45.37 272.06 43.47 273.45 40.41 274.79 38.58 276.09 36.88 277.95 35.49 279.12 34.7 280.15 34.44 282.25 33.78 282.25 33.78"/></g><g id="Surface_borders" data-name="Surface borders"><g id="_Grupo_" data-name="&lt;Grupo&gt;"><line class="cls-2" x1="305.2" y1="46.59" x2="324.27" y2="44.21"/><line class="cls-2" x1="324.27" y1="44.21" x2="342.46" y2="42.16"/><line class="cls-2" x1="359.69" y1="40.35" x2="342.46" y2="42.16"/><line class="cls-2" x1="359.69" y1="40.35" x2="374.2" y2="38.83"/><line class="cls-2" x1="374.2" y1="38.83" x2="385.66" y2="37.52"/><line class="cls-2" x1="385.66" y1="37.52" x2="394.26" y2="36.33"/><line class="cls-2" x1="394.26" y1="36.33" x2="397.48" y2="35.82"/><line class="cls-2" x1="400.25" y1="35.37" x2="397.48" y2="35.82"/><line class="cls-2" x1="400.25" y1="35.37" x2="401.51" y2="35.17"/><line class="cls-2" x1="432.21" y1="34.63" x2="428.35" y2="33.63"/><line class="cls-2" x1="428.35" y1="33.63" x2="424.09" y2="32.89"/><line class="cls-2" x1="424.09" y1="32.89" x2="419.38" y2="32.52"/><line class="cls-2" x1="419.38" y1="32.52" x2="414.62" y2="32.66"/><line class="cls-2" x1="414.62" y1="32.66" x2="412.22" y2="32.94"/><line class="cls-2" x1="225.05" y1="60.06" x2="245.05" y2="56.04"/><line class="cls-2" x1="408.64" y1="33.62" x2="409.83" y2="33.35"/><line class="cls-2" x1="405.07" y1="34.63" x2="405.67" y2="34.44"/><line class="cls-2" x1="405.07" y1="34.63" x2="404.48" y2="34.71"/><line class="cls-2" x1="50.5" y1="122.86" x2="50.8" y2="122.75"/><line class="cls-2" x1="50.5" y1="122.86" x2="50.21" y2="122.97"/><line class="cls-2" x1="46.59" y1="123.85" x2="45.27" y2="124.19"/><line class="cls-2" x1="46.59" y1="123.85" x2="47.29" y2="123.7"/><line class="cls-2" x1="407.44" y1="33.91" x2="406.85" y2="34.08"/><line class="cls-2" x1="407.44" y1="33.91" x2="408.04" y2="33.76"/><line class="cls-2" x1="401.51" y1="35.17" x2="402.73" y2="34.98"/><line class="cls-2" x1="403.32" y1="34.88" x2="402.73" y2="34.98"/><line class="cls-2" x1="51.12" y1="122.64" x2="50.8" y2="122.75"/><line class="cls-2" x1="49.94" y1="123.06" x2="50.07" y2="123.02"/><line class="cls-2" x1="49.94" y1="123.06" x2="49.8" y2="123.11"/><line class="cls-2" x1="47.29" y1="123.7" x2="47.98" y2="123.54"/><line class="cls-2" x1="47.98" y1="123.54" x2="48.34" y2="123.47"/><line class="cls-2" x1="49.67" y1="123.17" x2="49.54" y2="123.22"/><line class="cls-2" x1="406.25" y1="34.25" x2="406.85" y2="34.08"/><line class="cls-2" x1="403.9" y1="34.8" x2="404.48" y2="34.71"/><line class="cls-2" x1="285.56" y1="49.3" x2="305.2" y2="46.59"/><line class="cls-2" x1="408.64" y1="33.62" x2="408.04" y2="33.76"/><line class="cls-2" x1="50.21" y1="122.97" x2="50.07" y2="123.02"/><line class="cls-2" x1="49.67" y1="123.17" x2="49.8" y2="123.11"/><line class="cls-2" x1="48.69" y1="123.4" x2="49.05" y2="123.34"/><line class="cls-2" x1="48.69" y1="123.4" x2="48.34" y2="123.47"/><line class="cls-2" x1="205.17" y1="64.66" x2="225.05" y2="60.06"/><line class="cls-2" x1="185.63" y1="69.86" x2="205.17" y2="64.66"/><line class="cls-2" x1="185.63" y1="69.86" x2="166.05" y2="75.88"/><line class="cls-2" x1="147.36" y1="82.32" x2="166.05" y2="75.88"/><line class="cls-2" x1="147.36" y1="82.32" x2="129.78" y2="88.94"/><line class="cls-2" x1="113.51" y1="95.53" x2="129.78" y2="88.94"/><line class="cls-2" x1="97.91" y1="102.22" x2="113.51" y2="95.53"/><line class="cls-2" x1="84.03" y1="108.41" x2="97.91" y2="102.22"/><line class="cls-2" x1="71.63" y1="114.05" x2="84.03" y2="108.41"/><line class="cls-2" x1="61.99" y1="118.37" x2="71.63" y2="114.05"/><line class="cls-2" x1="53.43" y1="121.81" x2="55.52" y2="121.02"/><line class="cls-2" x1="55.52" y1="121.02" x2="61.99" y2="118.37"/><line class="cls-2" x1="51.81" y1="122.4" x2="51.12" y2="122.64"/><line class="cls-2" x1="51.81" y1="122.4" x2="53.43" y2="121.81"/><line class="cls-2" x1="49.42" y1="123.27" x2="49.05" y2="123.34"/><line class="cls-2" x1="49.42" y1="123.27" x2="49.54" y2="123.22"/><line class="cls-2" x1="43.99" y1="124.56" x2="45.27" y2="124.19"/><line class="cls-2" x1="43.99" y1="124.56" x2="41.58" y2="125.37"/><line class="cls-2" x1="39.37" y1="126.3" x2="41.58" y2="125.37"/><line class="cls-2" x1="39.37" y1="126.3" x2="35.54" y2="128.44"/><line class="cls-2" x1="35.54" y1="128.44" x2="32.48" y2="130.93"/><line class="cls-2" x1="265.62" y1="52.41" x2="285.56" y2="49.3"/><line class="cls-2" x1="403.9" y1="34.8" x2="403.32" y2="34.88"/><line class="cls-2" x1="245.05" y1="56.04" x2="265.62" y2="52.41"/><line class="cls-2" x1="409.83" y1="33.35" x2="412.22" y2="32.94"/><line class="cls-2" x1="405.67" y1="34.44" x2="406.25" y2="34.25"/><line class="cls-2" x1="409.53" y1="27.41" x2="409.23" y2="27.33"/><path class="cls-2" d="M409.1,27.3l-.15,0-1.49-.3"/><path class="cls-2" d="M408.57,27.21l.38.06.15,0h.09"/><path class="cls-2" d="M403.91,26.22c-.48-.1-1-.21-1.43-.3"/><path class="cls-2" d="M404.64,26.37l-.35-.07"/><path class="cls-2" d="M407.46,27c-.42-.1-.84-.18-1.26-.26"/><path class="cls-2" d="M380.2,23.75c-5.77-.06-11.55.07-17.32.13"/><path class="cls-2" d="M409.77,27.47l.07,0c-.09,0-2-.41-3.64-.78l-1.56-.34a2.7,2.7,0,0,0-.35-.07l-.38-.08"/><line class="cls-2" x1="410.76" y1="27.72" x2="410.36" y2="27.6"/><path class="cls-2" d="M77.58,98.52c-4.57,2.61-9.13,5.23-13.6,8"/><path class="cls-2" d="M412.08,28.11l11,3.17-12.28-3.57"/><path class="cls-2" d="M400.43,25.61l-1.35-.19"/><path class="cls-2" d="M402.36,25.88,401,25.69l-.51-.07"/><path class="cls-2" d="M402.12,25.86l.24,0h0"/><path class="cls-2" d="M401.48,25.79l.52.06"/><line class="cls-2" x1="399.08" y1="25.42" x2="395.31" y2="24.82"/><path class="cls-2" d="M387.35,24.08h-.17"/><line class="cls-2" x1="108.86" y1="83.38" x2="119.25" y2="79.1"/><line class="cls-2" x1="138.35" y1="71.57" x2="126.7" y2="76.1"/><path class="cls-2" d="M394.38,24.74c-.79-.1-10.37-.86-14.18-1"/><line class="cls-2" x1="82.16" y1="96.2" x2="77.58" y2="98.52"/><line class="cls-2" x1="344.67" y1="25.11" x2="362.88" y2="23.88"/><line class="cls-2" x1="82.16" y1="96.2" x2="93.56" y2="90.35"/><line class="cls-2" x1="58.4" y1="110.27" x2="63.98" y2="106.56"/><path class="cls-2" d="M330.79,26.65c-8.25.75-16.46,2-24.66,3.11"/><path class="cls-2" d="M306.13,29.76c-19,3-37.91,6.53-56.79,10.42"/><path class="cls-2" d="M57.45,110.89c-8.85,6-16.92,13-25,20"/><path class="cls-2" d="M57.72,110.72l-.27.17"/><line class="cls-2" x1="248.63" y1="40.34" x2="249.34" y2="40.18"/><line class="cls-2" x1="93.56" y1="90.35" x2="108.86" y2="83.38"/><line class="cls-2" x1="248.63" y1="40.34" x2="247.24" y2="40.61"/><line class="cls-2" x1="124.03" y1="77.14" x2="125.03" y2="76.72"/><line class="cls-2" x1="125.03" y1="76.72" x2="126.7" y2="76.1"/><path class="cls-2" d="M123.48,77.37c-1.42.53-2.83,1.11-4.23,1.73"/><polyline class="cls-2" points="395.31 24.82 400.43 25.61 400.54 25.62 401.04 25.69 402 25.85 402.12 25.86 402.48 25.92"/><polyline class="cls-2" points="122.27 77.82 123.48 77.36 124.03 77.14"/><path class="cls-2" d="M247.24,40.61a889.46,889.46,0,0,0-108.89,31"/><line class="cls-2" x1="330.79" y1="26.65" x2="344.67" y2="25.11"/><line class="cls-2" x1="423.04" y1="31.28" x2="432.21" y2="34.63"/><line class="cls-1" x1="305.2" y1="46.59" x2="324.27" y2="44.21"/><line class="cls-1" x1="324.27" y1="44.21" x2="342.46" y2="42.16"/><line class="cls-1" x1="359.69" y1="40.35" x2="342.46" y2="42.16"/><line class="cls-1" x1="359.69" y1="40.35" x2="374.2" y2="38.83"/><line class="cls-1" x1="374.2" y1="38.83" x2="385.66" y2="37.52"/><line class="cls-1" x1="385.66" y1="37.52" x2="394.26" y2="36.33"/><line class="cls-1" x1="394.26" y1="36.33" x2="397.48" y2="35.82"/><line class="cls-1" x1="400.25" y1="35.37" x2="397.48" y2="35.82"/><line class="cls-1" x1="400.25" y1="35.37" x2="401.51" y2="35.17"/><line class="cls-1" x1="432.21" y1="34.63" x2="428.35" y2="33.63"/><line class="cls-1" x1="428.35" y1="33.63" x2="424.09" y2="32.89"/><line class="cls-1" x1="424.09" y1="32.89" x2="419.38" y2="32.52"/><line class="cls-1" x1="419.38" y1="32.52" x2="414.62" y2="32.66"/><line class="cls-1" x1="414.62" y1="32.66" x2="412.22" y2="32.94"/><line class="cls-1" x1="225.05" y1="60.06" x2="245.05" y2="56.04"/><line class="cls-1" x1="408.64" y1="33.62" x2="409.83" y2="33.35"/><line class="cls-1" x1="405.07" y1="34.63" x2="405.67" y2="34.44"/><line class="cls-1" x1="405.07" y1="34.63" x2="404.48" y2="34.71"/><line class="cls-1" x1="50.5" y1="122.86" x2="50.8" y2="122.75"/><line class="cls-1" x1="50.5" y1="122.86" x2="50.21" y2="122.97"/><line class="cls-1" x1="46.59" y1="123.85" x2="45.27" y2="124.19"/><line class="cls-1" x1="46.59" y1="123.85" x2="47.29" y2="123.7"/><line class="cls-1" x1="407.44" y1="33.91" x2="406.85" y2="34.08"/><line class="cls-1" x1="407.44" y1="33.91" x2="408.04" y2="33.76"/><line class="cls-1" x1="401.51" y1="35.17" x2="402.73" y2="34.98"/><line class="cls-1" x1="403.32" y1="34.88" x2="402.73" y2="34.98"/><line class="cls-1" x1="51.12" y1="122.64" x2="50.8" y2="122.75"/><line class="cls-1" x1="49.94" y1="123.06" x2="50.07" y2="123.02"/><line class="cls-1" x1="49.94" y1="123.06" x2="49.8" y2="123.11"/><line class="cls-1" x1="47.29" y1="123.7" x2="47.98" y2="123.54"/><line class="cls-1" x1="47.98" y1="123.54" x2="48.34" y2="123.47"/><line class="cls-1" x1="49.67" y1="123.17" x2="49.54" y2="123.22"/><line class="cls-1" x1="406.25" y1="34.25" x2="406.85" y2="34.08"/><line class="cls-1" x1="403.9" y1="34.8" x2="404.48" y2="34.71"/><line class="cls-1" x1="285.56" y1="49.3" x2="305.2" y2="46.59"/><line class="cls-1" x1="408.64" y1="33.62" x2="408.04" y2="33.76"/><line class="cls-1" x1="50.21" y1="122.97" x2="50.07" y2="123.02"/><line class="cls-1" x1="49.67" y1="123.17" x2="49.8" y2="123.11"/><line class="cls-1" x1="48.69" y1="123.4" x2="49.05" y2="123.34"/><line class="cls-1" x1="48.69" y1="123.4" x2="48.34" y2="123.47"/><line class="cls-1" x1="205.17" y1="64.66" x2="225.05" y2="60.06"/><line class="cls-1" x1="185.63" y1="69.86" x2="205.17" y2="64.66"/><line class="cls-1" x1="185.63" y1="69.86" x2="166.05" y2="75.88"/><line class="cls-1" x1="147.36" y1="82.32" x2="166.05" y2="75.88"/><line class="cls-1" x1="147.36" y1="82.32" x2="129.78" y2="88.94"/><line class="cls-1" x1="113.51" y1="95.53" x2="129.78" y2="88.94"/><line class="cls-1" x1="97.91" y1="102.22" x2="113.51" y2="95.53"/><line class="cls-1" x1="84.03" y1="108.41" x2="97.91" y2="102.22"/><line class="cls-1" x1="71.63" y1="114.05" x2="84.03" y2="108.41"/><line class="cls-1" x1="61.99" y1="118.37" x2="71.63" y2="114.05"/><line class="cls-1" x1="53.43" y1="121.81" x2="55.52" y2="121.02"/><line class="cls-1" x1="55.52" y1="121.02" x2="61.99" y2="118.37"/><line class="cls-1" x1="51.81" y1="122.4" x2="51.12" y2="122.64"/><line class="cls-1" x1="51.81" y1="122.4" x2="53.43" y2="121.81"/><line class="cls-1" x1="49.42" y1="123.27" x2="49.05" y2="123.34"/><line class="cls-1" x1="49.42" y1="123.27" x2="49.54" y2="123.22"/><line class="cls-1" x1="43.99" y1="124.56" x2="45.27" y2="124.19"/><line class="cls-1" x1="43.99" y1="124.56" x2="41.58" y2="125.37"/><line class="cls-1" x1="39.37" y1="126.3" x2="41.58" y2="125.37"/><line class="cls-1" x1="39.37" y1="126.3" x2="35.54" y2="128.44"/><line class="cls-1" x1="35.54" y1="128.44" x2="32.48" y2="130.93"/><line class="cls-1" x1="265.62" y1="52.41" x2="285.56" y2="49.3"/><line class="cls-1" x1="403.9" y1="34.8" x2="403.32" y2="34.88"/><line class="cls-1" x1="245.05" y1="56.04" x2="265.62" y2="52.41"/><line class="cls-1" x1="409.83" y1="33.35" x2="412.22" y2="32.94"/><line class="cls-1" x1="405.67" y1="34.44" x2="406.25" y2="34.25"/><line class="cls-1" x1="409.53" y1="27.41" x2="409.23" y2="27.33"/><path class="cls-1" d="M409.1,27.3l-.15,0-1.49-.3"/><path class="cls-1" d="M408.57,27.21l.38.06.15,0h.09"/><path class="cls-1" d="M403.91,26.22c-.48-.1-1-.21-1.43-.3"/><path class="cls-1" d="M404.64,26.37l-.35-.07"/><path class="cls-1" d="M407.46,27c-.42-.1-.84-.18-1.26-.26"/><path class="cls-1" d="M380.2,23.75c-5.77-.06-11.55.07-17.32.13"/><path class="cls-1" d="M409.77,27.47l.07,0c-.09,0-2-.41-3.64-.78l-1.56-.34a2.7,2.7,0,0,0-.35-.07l-.38-.08"/><line class="cls-1" x1="410.76" y1="27.72" x2="410.36" y2="27.6"/><path class="cls-1" d="M77.58,98.52c-4.57,2.61-9.13,5.23-13.6,8"/><path class="cls-1" d="M412.08,28.11l11,3.17-12.28-3.57"/><path class="cls-1" d="M400.43,25.61l-1.35-.19"/><path class="cls-1" d="M402.36,25.88,401,25.69l-.51-.07"/><path class="cls-1" d="M402.12,25.86l.24,0h0"/><path class="cls-1" d="M401.48,25.79l.52.06"/><line class="cls-1" x1="399.08" y1="25.42" x2="395.31" y2="24.82"/><path class="cls-1" d="M387.35,24.08h-.17"/><line class="cls-1" x1="108.86" y1="83.38" x2="119.25" y2="79.1"/><line class="cls-1" x1="138.35" y1="71.57" x2="126.7" y2="76.1"/><path class="cls-1" d="M394.38,24.74c-.79-.1-10.37-.86-14.18-1"/><line class="cls-1" x1="82.16" y1="96.2" x2="77.58" y2="98.52"/><line class="cls-1" x1="344.67" y1="25.11" x2="362.88" y2="23.88"/><line class="cls-1" x1="82.16" y1="96.2" x2="93.56" y2="90.35"/><line class="cls-1" x1="58.4" y1="110.27" x2="63.98" y2="106.56"/><path class="cls-1" d="M330.79,26.65c-8.25.75-16.46,2-24.66,3.11"/><path class="cls-1" d="M306.13,29.76c-19,3-37.91,6.53-56.79,10.42"/><path class="cls-1" d="M57.45,110.89c-8.85,6-16.92,13-25,20"/><path class="cls-1" d="M57.72,110.72l-.27.17"/><line class="cls-1" x1="248.63" y1="40.34" x2="249.34" y2="40.18"/><line class="cls-1" x1="93.56" y1="90.35" x2="108.86" y2="83.38"/><line class="cls-1" x1="248.63" y1="40.34" x2="247.24" y2="40.61"/><line class="cls-1" x1="124.03" y1="77.14" x2="125.03" y2="76.72"/><line class="cls-1" x1="125.03" y1="76.72" x2="126.7" y2="76.1"/><path class="cls-1" d="M123.48,77.37c-1.42.53-2.83,1.11-4.23,1.73"/><polyline class="cls-1" points="395.31 24.82 400.43 25.61 400.54 25.62 401.04 25.69 402 25.85 402.12 25.86 402.48 25.92"/><polyline class="cls-1" points="122.27 77.82 123.48 77.36 124.03 77.14"/><path class="cls-1" d="M247.24,40.61a889.46,889.46,0,0,0-108.89,31"/><line class="cls-1" x1="330.79" y1="26.65" x2="344.67" y2="25.11"/><line class="cls-1" x1="423.04" y1="31.28" x2="432.21" y2="34.63"/></g><line class="cls-3" x1="441.77" y1="38.66" x2="438.75" y2="37.15"/><line class="cls-3" x1="444.63" y1="40.35" x2="441.77" y2="38.66"/><line class="cls-3" x1="252.76" y1="159.7" x2="273.86" y2="154.69"/><line class="cls-3" x1="230.24" y1="163.85" x2="207.54" y2="167"/><polyline class="cls-3" points="247.24 40.63 228.45 44.76 209.81 49.31 191.5 54.24 173.06 59.73 155.31 65.53 138.35 71.59"/><line class="cls-3" x1="449.76" y1="44.11" x2="447.29" y2="42.16"/><line class="cls-3" x1="185.2" y1="169.31" x2="207.54" y2="167"/><line class="cls-3" x1="452.01" y1="46.15" x2="449.76" y2="44.11"/><line class="cls-3" x1="122.27" y1="77.85" x2="124.03" y2="77.17"/><line class="cls-3" x1="452.01" y1="46.15" x2="454" y2="48.28"/><line class="cls-3" x1="73.36" y1="174.06" x2="71.93" y2="174.2"/><line class="cls-3" x1="454" y1="48.28" x2="455.73" y2="50.47"/><line class="cls-3" x1="74.07" y1="173.97" x2="73.36" y2="174.06"/><line class="cls-3" x1="458.32" y1="54.97" x2="457.19" y2="52.71"/><line class="cls-3" x1="77.61" y1="173.73" x2="77.98" y2="173.74"/><line class="cls-3" x1="459.65" y1="59.6" x2="459.14" y2="57.23"/><line class="cls-3" x1="163.77" y1="170.93" x2="185.2" y2="169.31"/><line class="cls-3" x1="459.32" y1="64.53" x2="459.73" y2="62.09"/><line class="cls-3" x1="458.31" y1="67.02" x2="459.32" y2="64.53"/><line class="cls-3" x1="395.31" y1="24.84" x2="402.48" y2="25.94"/><line class="cls-3" x1="458.31" y1="67.02" x2="456.57" y2="69.49"/><line class="cls-3" x1="448.51" y1="74.81" x2="449.55" y2="74.37"/><line class="cls-3" x1="453.98" y1="71.83" x2="452.37" y2="72.9"/><polyline class="cls-3" points="123.43 77.42 122.27 77.85 119.25 79.12"/><line class="cls-3" x1="453.98" y1="71.83" x2="456.57" y2="69.49"/><line class="cls-3" x1="452.37" y1="72.9" x2="451.47" y2="73.42"/><line class="cls-3" x1="450.53" y1="73.91" x2="451.47" y2="73.42"/><line class="cls-3" x1="125.03" y1="76.75" x2="126.7" y2="76.13"/><line class="cls-3" x1="450.53" y1="73.91" x2="449.55" y2="74.37"/><polyline class="cls-3" points="124.03 77.17 124.31 77.05 125.03 76.75"/><line class="cls-3" x1="74.51" y1="173.89" x2="74.07" y2="173.97"/><line class="cls-3" x1="123.81" y1="77.26" x2="124.03" y2="77.17"/><polyline class="cls-3" points="119.25 79.12 123.43 77.42 123.48 77.39"/><line class="cls-3" x1="93.56" y1="90.38" x2="108.86" y2="83.41"/><line class="cls-3" x1="248.63" y1="40.36" x2="247.24" y2="40.63"/><line class="cls-3" x1="443.69" y1="77.3" x2="442.72" y2="77.86"/><line class="cls-3" x1="78.38" y1="173.75" x2="77.98" y2="173.74"/><line class="cls-3" x1="440.56" y1="79.06" x2="442.72" y2="77.86"/><line class="cls-3" x1="123.3" y1="172.71" x2="142.57" y2="172.06"/><line class="cls-3" x1="105.87" y1="173.09" x2="123.3" y2="172.71"/><line class="cls-3" x1="438" y1="80.45" x2="440.56" y2="79.06"/><line class="cls-3" x1="57.72" y1="110.75" x2="57.45" y2="110.93"/><line class="cls-3" x1="248.63" y1="40.36" x2="249.34" y2="40.2"/><polyline class="cls-3" points="57.45 110.93 51.87 114.89 42.12 122.55 32.48 130.95"/><line class="cls-3" x1="422.24" y1="89.29" x2="431.19" y2="84.17"/><line class="cls-3" x1="447" y1="75.48" x2="446.02" y2="75.96"/><line class="cls-3" x1="313.46" y1="142.21" x2="332.46" y2="134.84"/><line class="cls-3" x1="27.95" y1="148.88" x2="27.4" y2="146.25"/><polyline class="cls-3" points="306.13 29.79 287.35 32.79 268.54 36.25 249.34 40.2"/><line class="cls-3" x1="397.38" y1="103.47" x2="410.98" y2="95.82"/><line class="cls-3" x1="28.84" y1="151.52" x2="30.03" y2="154.11"/><line class="cls-3" x1="30.03" y1="154.11" x2="31.53" y2="156.66"/><line class="cls-3" x1="332.46" y1="134.84" x2="350.15" y2="127.23"/><line class="cls-3" x1="59.67" y1="173.85" x2="54.85" y2="172.81"/><line class="cls-3" x1="350.15" y1="127.23" x2="366.94" y2="119.34"/><line class="cls-3" x1="409.53" y1="27.43" x2="409.23" y2="27.35"/><line class="cls-3" x1="366.94" y1="119.34" x2="382.74" y2="111.35"/><line class="cls-3" x1="447" y1="75.48" x2="447.48" y2="75.26"/><polyline class="cls-3" points="330.79 26.67 324.76 27.29 306.13 29.79"/><line class="cls-3" x1="306.13" y1="29.79" x2="326.43" y2="27.16"/><line class="cls-3" x1="294.12" y1="148.8" x2="313.46" y2="142.21"/><line class="cls-3" x1="63.98" y1="106.58" x2="58.4" y2="110.31"/><line class="cls-3" x1="459.73" y1="62.09" x2="459.65" y2="59.6"/><line class="cls-3" x1="382.74" y1="111.35" x2="397.38" y2="103.47"/><line class="cls-3" x1="82.16" y1="96.22" x2="93.56" y2="90.38"/><line class="cls-3" x1="230.24" y1="163.85" x2="252.76" y2="159.7"/><line class="cls-3" x1="82.16" y1="96.22" x2="77.58" y2="98.54"/><line class="cls-3" x1="344.67" y1="25.13" x2="362.88" y2="23.9"/><line class="cls-3" x1="459.14" y1="57.23" x2="458.32" y2="54.97"/><line class="cls-3" x1="410.98" y1="95.82" x2="422.24" y2="89.29"/><line class="cls-3" x1="126.7" y1="76.13" x2="141.2" y2="70.69"/><line class="cls-3" x1="108.86" y1="83.41" x2="119.25" y2="79.12"/><line class="cls-3" x1="126.7" y1="76.13" x2="138.35" y2="71.59"/><polyline class="cls-3" points="387.35 24.12 387.25 24.11 387.18 24.09"/><polyline class="cls-3" points="394.38 24.77 395.31 24.84 388.05 24.14 387.25 24.11 380.27 23.77 380.2 23.77"/><line class="cls-3" x1="457.19" y1="52.71" x2="455.73" y2="50.47"/><line class="cls-3" x1="431.19" y1="84.17" x2="438" y2="80.45"/><line class="cls-3" x1="399.08" y1="25.45" x2="395.31" y2="24.84"/><line class="cls-3" x1="92.46" y1="173.36" x2="105.87" y2="173.09"/><line class="cls-3" x1="407.46" y1="27" x2="408.57" y2="27.24"/><polyline class="cls-3" points="401.48 25.81 402.48 25.94 399.08 25.45"/><line class="cls-3" x1="438.75" y1="37.15" x2="435.41" y2="35.75"/><line class="cls-3" x1="83.88" y1="173.62" x2="81.23" y2="173.7"/><polyline class="cls-3" points="77.61 173.73 77.25 173.72 77.03 173.7"/><line class="cls-3" x1="83.88" y1="173.62" x2="92.46" y2="173.36"/><polyline class="cls-3" points="77.58 98.54 70.52 102.57 63.98 106.58"/><polyline class="cls-3" points="412.07 28.14 423.04 31.31 410.76 27.75"/><polyline class="cls-3" points="448.51 74.81 448 75.02 447.49 75.26"/><line class="cls-3" x1="79.24" y1="173.75" x2="78.38" y2="173.75"/><polyline class="cls-3" points="446.02 75.96 445.53 76.22 445.07 76.47 443.69 77.3"/><line class="cls-3" x1="79.24" y1="173.75" x2="81.23" y2="173.7"/><polyline class="cls-3" points="74.51 173.89 74.8 173.86 75.19 173.82"/><line class="cls-3" x1="410.76" y1="27.74" x2="410.36" y2="27.63"/><line class="cls-3" x1="43.3" y1="167.84" x2="46.79" y2="169.76"/><polyline class="cls-3" points="409.77 27.49 410.36 27.63 409.24 27.35 403.91 26.24"/><polyline class="cls-3" points="380.2 23.77 379.45 23.73 362.88 23.9"/><polyline class="cls-3" points="407.46 27 403.91 26.24 403.52 26.16 402.48 25.94"/><line class="cls-3" x1="402" y1="25.92" x2="403.52" y2="26.16"/><polyline class="cls-3" points="408.57 27.24 409.24 27.35 407.46 27"/><line class="cls-3" x1="32.48" y1="130.95" x2="30.28" y2="133.53"/><line class="cls-3" x1="401.85" y1="25.89" x2="402" y2="25.92"/><line class="cls-3" x1="28.79" y1="136.11" x2="30.28" y2="133.53"/><line class="cls-3" x1="46.79" y1="169.76" x2="50.53" y2="171.4"/><line class="cls-3" x1="27.9" y1="138.45" x2="28.79" y2="136.11"/><line class="cls-3" x1="50.53" y1="171.4" x2="54.85" y2="172.81"/><line class="cls-3" x1="27.34" y1="141.07" x2="27.9" y2="138.45"/><polyline class="cls-3" points="75.19 173.82 75.59 173.78 75.88 173.75"/><line class="cls-3" x1="27.34" y1="141.07" x2="27.2" y2="143.64"/><line class="cls-3" x1="123.81" y1="77.26" x2="123.48" y2="77.39"/><line class="cls-3" x1="27.4" y1="146.25" x2="27.2" y2="143.64"/><line class="cls-3" x1="64.96" y1="174.38" x2="67.72" y2="174.43"/><line class="cls-3" x1="28.84" y1="151.52" x2="27.95" y2="148.88"/><line class="cls-3" x1="64.96" y1="174.38" x2="59.67" y2="173.85"/><line class="cls-3" x1="31.53" y1="156.66" x2="33.32" y2="159.12"/><line class="cls-3" x1="70.53" y1="174.32" x2="71.93" y2="174.2"/><line class="cls-3" x1="35.4" y1="161.49" x2="33.32" y2="159.12"/><polyline class="cls-3" points="77.25 173.72 76.63 173.73 76.25 173.74 75.59 173.78"/><line class="cls-3" x1="35.4" y1="161.49" x2="37.74" y2="163.74"/><line class="cls-3" x1="70.53" y1="174.32" x2="67.72" y2="174.43"/><line class="cls-3" x1="40.33" y1="165.84" x2="37.74" y2="163.74"/><line class="cls-3" x1="447.29" y1="42.16" x2="444.63" y2="40.35"/><line class="cls-3" x1="40.33" y1="165.84" x2="43.3" y2="167.84"/><line class="cls-3" x1="294.12" y1="148.8" x2="273.86" y2="154.69"/><line class="cls-3" x1="142.57" y1="172.06" x2="163.77" y2="170.93"/><line class="cls-3" x1="330.79" y1="26.67" x2="344.67" y2="25.13"/><line class="cls-3" x1="423.04" y1="31.31" x2="435.41" y2="35.75"/><line class="cls-3" x1="57.72" y1="110.75" x2="58.4" y2="110.31"/></g><g id="Make2D::Visible::Curves::Geodesics"><polyline class="cls-4" points="282.25 33.78 283.09 33.82 285.43 33.81 286.04 33.97 288.35 34.48 288.89 34.71 291.69 35.82 292.08 36.05 295 37.66 295.27 37.85 298.42 40.01 298.58 40.14 301.93 42.84 301.99 42.89 304.08 44.8 305.46 46.08 305.5 46.11 305.53 46.14 308.25 48.94"/><polyline class="cls-4" points="458.82 56.38 457.88 54.86 457.81 54.77 456.13 52.38 455.97 52.17 454.23 49.96 453.99 49.69 452.19 47.65 451.89 47.34 450.04 45.45 448.13 43.7 447.8 43.4 445.8 41.77 445.48 41.52 443.4 40.01 443.13 39.82 440.94 38.45 440.75 38.33 438.45 37.1 438.38 37.06 437.35 36.61"/><polyline class="cls-4" points="410.76 27.79 412.07 28.19 412.18 28.23 413.5 28.72 414.72 29.24 414.86 29.31 416.09 29.91 417.29 30.56 417.46 30.66 418.65 31.37 419.81 32.13 420.01 32.27 421.17 33.09 422.29 33.95 422.5 34.13 423.61 35.04 424.69 35.99 424.92 36.2 425.97 37.2 427 38.23 427.22 38.47 428.22 39.54 429.19 40.65 429.41 40.91 430.34 42.05 431.24 43.23 431.45 43.51 432.31 44.72 433.12 45.93 433.14 45.95 433.33 46.24 434.12 47.5 434.86 48.79 435.03 49.09 435.73 50.4 436.4 51.8 436.56 52.1 437.18 53.51 437.8 55.07 437.93 55.39 438.47 56.96 438.94 58.56 439.04 58.85 439.43 60.46 439.77 62.23 439.83 62.5 440.07 64.27 440.1 64.54 440.26 68.29 440.25 68.47 439.87 72.46 439.87 72.48 439.86 72.52 439.73 73.03 438.86 76.49 438.81 76.72 438.08 78.62 437.86 79.17 436.96 81.06"/><polyline class="cls-4" points="382.5 23.93 382.87 23.98 383.79 24.09 384.26 24.19 385.18 24.37 385.73 24.53 386.57 24.77 387.15 24.98 387.9 25.25 388.52 25.52 389.21 25.82 389.88 26.15 390.53 26.48 391.22 26.88 391.83 27.22 392.55 27.69 393.12 28.05 393.86 28.58 394.41 28.97 395.15 29.55 395.67 29.96 396.43 30.6 396.93 31.03 397.68 31.72 398.16 32.17 398.63 32.64 399.37 33.38 399.83 33.88 400.56 34.66 401.02 35.19 401.73 36.01 402.18 36.58 402.87 37.42 403.32 38.03 403.98 38.9 404.43 39.55 404.54 39.7 405.05 40.43 405.51 41.14 406.1 42.02 406.56 42.79 407.1 43.67 407.58 44.51 408.07 45.37 408.55 46.3 408.99 47.13 409.48 48.14 409.87 48.93 410.39 50.11 410.74 50.87 411.27 52.18 411.55 52.87 412.13 54.44 412.36 55.08 412.93 56.84 413.1 57.35 413.66 59.33 413.76 59.68 414.3 61.9 414.34 62.07 414.71 63.92 414.86 64.68 414.87 64.76 415.28 67.48 415.32 67.98 415.78 73.51 415.76 75.14 415.69 80.11 415.31 83.42 414.85 87.15 413.54 92.9 413.13 94.62"/><polyline class="cls-4" points="350.46 24.79 351.29 24.84 353.12 24.99 354.21 25.25 356.05 25.73 357.22 26.21 358.86 26.91 360.14 27.64 361.68 28.53 363.04 29.49 364.5 30.56 365.89 31.75 367.3 32.97 368.7 34.37 370.06 35.74 371.44 37.32 372.77 38.86 373.16 39.36 374.09 40.59 375.4 42.29 376.64 44.12 377.93 46.02 379.06 47.92 380.34 50.04 381.61 52.43 382.6 54.32 383.92 57.15 384.8 59.06 386.18 62.56 386.91 64.45 388.23 68.52 388.74 70.12 390.02 75.28 390.31 76.5 391.38 83.02 391.46 83.52 391.7 86.9 391.98 91.15 391.95 91.98 391.69 99.11 391.29 101.86 390.49 107.22"/><polyline class="cls-4" points="315.25 28.61 316.81 28.45 318.31 28.37 319.5 28.57 321.06 28.76 322.25 29.18 324.16 29.76 325.19 30.29 327.19 31.25 328.13 31.87 330.29 33.22 331.15 33.9 333.44 35.64 334.23 36.36 336.61 38.49 339.05 40.99 339.78 41.73 340.83 42.93 342.23 44.54 342.93 45.34 345.35 48.43 346.03 49.3 348.37 52.6 349.06 53.57 351.29 57.04 352 58.12 354.07 61.7 354.8 62.95 356.76 66.74 357.56 68.25 359.41 72.3 360.31 74.22 361.83 78.15 362.75 80.43 363.69 83.25 364.99 87.34 365.91 91.01 366.81 94.81 367.55 99.6 368.01 102.75 368.3 108.83 368.38 110.86 367.83 118.44 367.79 118.95"/><polyline class="cls-4" points="309.08 49.79 309.08 49.79 309.18 49.9 312.65 53.84 312.79 54.02 316.18 58.23 316.34 58.46 319.64 62.94 319.81 63.19 322.99 67.92 323.14 68.17 326.21 73.15 326.34 73.38 329.4 78.85 329.48 79.01 332.58 85.22 332.59 85.23 332.76 85.62 335.34 91.57 335.44 91.77 337.89 98.43 338.1 98.98 338.29 99.61 340.34 106.66 340.6 107.86 341.97 114.68 342.17 116.59 342.76 122.71 342.69 125.46 342.56 130.54"/><polyline class="cls-4" points="211.3 71.75 211.3 71.75 214.46 75.03 215.34 75.94 216.16 76.87 219.39 80.52 220.06 81.35 223.4 85.43 223.94 86.14 227.35 90.63 227.75 91.2 231.21 96.09 231.47 96.5 234.92 101.75 235.08 102.01 238.63 107.86 238.67 107.94 240 110.31 242.28 114.42 242.36 114.56 245.59 120.98 245.78 121.35 248.77 128.04 249.05 128.67 251.63 135.41 251.98 136.31 254.05 142.93 254.41 144.09 255.87 150.28 256.19 151.63 257.02 157.21 257.24 158.69"/><polyline class="cls-4" points="182.65 56.92 184.35 56.64 185.81 56.36 187.69 56.61 189.15 56.77 190.99 57.38 192.28 57.79 194.53 58.89 195.92 59.56 198.29 61.04 199.58 61.84 202.16 63.76 203.38 64.65 206.18 67.02 207.3 67.97 210.29 70.8 210.52 71.01"/><polyline class="cls-4" points="175.91 75.86 176.06 76 177.91 77.74 179.68 79.39 183.21 83.05 183.49 83.34 186.88 87.19 187.31 87.68 190.52 91.64 191.1 92.36 194.11 96.38 194.84 97.36 197.62 101.37 198.5 102.62 201.03 106.57 202.03 108.11 204.41 112.11 205.57 114.04 207.82 118.17 209.18 120.62 211.09 124.48 212.52 127.31 214.23 131.12 215.8 134.56 217.22 138.12 218.85 142.16 219.96 145.3 221.6 149.91 223.19 155.06 223.92 157.44 225.42 162.96 225.83 164.5"/><polyline class="cls-4" points="152.88 66.45 155.4 65.82 155.79 65.7 158.51 65.88 158.89 65.89 161.5 66.62 161.82 66.7 164.92 68.09 165.22 68.21 168.43 70.12 168.65 70.24 172.1 72.72 172.22 72.8 175.9 75.86"/><polyline class="cls-4" points="126.65 76.19 126.94 76.2 129.38 76.09 129.66 76.16 131.97 76.6 132.32 76.75 134.99 77.76 135.4 77.99 138.03 79.41 138.54 79.77 141.22 81.57 141.85 82.08 144.52 84.21 145.29 84.92 145.33 84.95 147.9 87.3 148.84 88.25 151.34 90.8 153.64 93.38 154.81 94.7 156.94 97.31 158.29 98.96 160.22 101.53 161.74 103.53 163.46 106.02 165.14 108.4 166.64 110.73 168.47 113.53 169.8 115.74 171.86 119.12 173 121.18 175.36 125.36 176.22 127.03 178.69 131.78 179.31 133.08 182.07 138.8 182.4 139.55 185.37 146.24 185.58 146.76 188.52 153.87 188.89 154.82 191.41 161.35 192.16 163.38 194.04 168.44"/><polyline class="cls-4" points="98.34 88.25 99.06 88.19 100.49 87.99 101.17 88.1 102.57 88.28 103.38 88.51 104.2 88.81 105.04 89.13 105.86 89.5 106.74 89.96 107.57 90.41 108.41 90.91 109.42 91.56 110.26 92.13 111.1 92.74 112.25 93.62 112.94 94.16 113.09 94.27 113.91 94.96 115.22 96.1 116.03 96.82 116.81 97.55 118.31 99 119.07 99.75 119.79 100.49 121.49 102.29 122.18 103.03 122.83 103.76 124.75 105.95 125.35 106.65 125.92 107.33 128.06 109.95 128.56 110.58 129.02 111.18 131.4 114.29 131.79 114.8 132.14 115.28 134.76 118.92 135.02 119.28 135.26 119.64 138.28 124.06 138.39 124.23 138.6 124.55 140.68 127.78 141.86 129.63 142 129.84 145.01 134.88 145.52 135.71 148.23 140.55 149.18 142.22 150.44 144.56 152.91 149.21 154.89 153.03 156.69 156.53 159.5 162.02 160.44 163.85 163.85 170.36 164.17 170.95"/><polyline class="cls-4" points="43.11 121.82 43.13 121.81 43.7 121.81 43.79 121.81 43.9 121.83 44.6 122.08 44.78 122.14 44.97 122.23 45.65 122.57 45.9 122.69 46.21 122.87 46.99 123.32 47.37 123.54 47.8 123.8 48.52 124.27 49.01 124.58 49.56 124.94 50.25 125.4 50.86 125.81 51.55 126.29 52.16 126.72 52.91 127.24 53.57 127.7 53.75 127.83 54.26 128.2 55.15 128.84 56.13 129.56 56.51 129.83 57.55 130.59 58.69 131.44 58.9 131.6 60.09 132.49 61.39 133.47 61.42 133.49 61.83 133.8 62.78 134.53 62.87 134.59 64.2 135.62 64.4 135.78 65.63 136.74 65.97 137.01 67.09 137.89 67.57 138.27 68.57 139.07 69.2 139.57 70.07 140.27 70.85 140.91 71.58 141.5 72.58 142.32 73.18 142.81 74.36 143.79 74.8 144.15 76.31 145.4 76.55 145.61 78.32 147.09 78.33 147.1 78.4 147.16 80.18 148.67 80.48 148.93 82.06 150.28 82.76 150.88 84.09 152.04 85.24 153.04 86.15 153.84 87.92 155.39 88.35 155.77 89.92 157.15 90.65 157.78 90.93 158.03 93.2 160.02 94.67 161.28 95.89 162.33 96.94 163.2 102.02 167.46 106.06 170.63 109.15 173.07"/><polyline class="cls-4" points="30.88 153.4 30.88 153.4 33.01 154.96 33.28 155.16 35.39 156.71 35.79 157 37.88 158.54 38.4 158.93 40.46 160.46 41.08 160.91 43.13 162.43 43.81 162.93 45.96 164.52 46.7 165.06 49.05 166.79 49.81 167.35 52.25 169.12 52.9 169.6 55.7 171.6 56.13 171.91 58.68 173.68"/><polyline class="cls-4" points="246.14 40.94 246.16 40.92 246.34 40.89 249.28 40.26 249.34 40.25"/><polyline class="cls-4" points="249.38 40.24 252.54 40.55 252.7 40.55 255.53 41.41 255.79 41.48 258.91 42.95 259.34 43.14 262.33 44.96 262.89 45.29 265.88 47.47 266.57 47.96 269.53 50.44 270.36 51.12 273.26 53.84 274.21 54.72 275.23 55.76 275.67 56.22 278.11 58.73 279.21 59.98 282 63.11 283.18 64.55 285.87 67.82 287.1 69.44 289.67 72.82 290.92 74.61 293.37 78.08 294.6 80 296.93 83.56 298.18 85.68 300.47 89.49 301.73 91.85 304.02 96.06 305.15 98.44 307.25 102.77 308.27 105.28 310.28 110.08 312.07 115.32 312.89 117.79 314.33 123.51 314.88 125.76 315.76 131.84 316.01 133.64 316.13 140.03 316.15 141.21"/><polyline class="cls-4" points="70.02 102.92 70.06 102.91 70.63 102.67 70.69 102.67 71.3 102.57 71.36 102.58 72.04 102.6 72.11 102.61 72.75 102.72 72.81 102.73 73.52 102.92 73.58 102.94 74.42 103.23 74.46 103.25 75.38 103.64 75.4 103.65 76.35 104.11"/><polyline class="cls-4" points="136.99 172.29 134.77 169.49 131.67 165.55 127.33 159.79 126.58 158.79 124.58 156.1 122.04 152.69 121.75 152.3 121.41 151.84 117.98 147.22 117.31 146.32 116.56 145.32 114.13 142.12 113.18 140.87 112.15 139.54 110.53 137.48 109.39 136.03 108.08 134.41 106.54 132.5 105.59 131.36 104.48 130.05 103.88 129.33 102.56 127.81 102.18 127.36 100.75 125.74 100.57 125.54 98.97 123.78 98.97 123.77 97.41 122.1 97.27 121.95 95.88 120.49 95.6 120.2 94.36 118.93 93.96 118.53 92.87 117.43 92.36 116.94 91.4 115.99 90.79 115.42 89.95 114.62 89.25 113.97 88.54 113.31 87.76 112.61 87.15 112.06 86.31 111.32 85.8 110.88 84.89 110.12 84.48 109.77 83.53 109 83.2 108.73 82.2 107.97 81.95 107.77 81.53 107.46 80.93 107.02 80.74 106.88 80.57 106.76 79.58 106.07 79.46 105.99 78.45 105.33 78.38 105.29 77.38 104.68 77.35 104.67 76.36 104.12"/><polyline class="cls-4" points="213.94 48.35 214.68 48.22 217.16 47.83 219.57 48.17 220.54 48.29 222.69 49.03 223.7 49.36 226.07 50.55 227.36 51.18 229.61 52.61 231.03 53.49 233.25 55.16 234.85 56.34 237.01 58.18 238.79 59.68 240.87 61.64 242.81 63.47 243.1 63.77 244.91 65.63 246.88 67.67 249.11 70.17 250.95 72.23 253.28 75.06 255 77.13 257.4 80.26 258.97 82.3 261.42 85.73 262.85 87.73 265.29 91.41 266.59 93.36 269.1 97.45 270.31 99.42 272.91 104.06 274.06 106.1 276.48 110.92 277.48 112.88 278.39 114.92 280.73 120.22 281.51 122.28 283.61 127.89 284.23 129.97 285.92 135.73 286.34 137.77 287.48 143.36 287.68 145.36 288.2 150.56"/></g><g id="Main_Curve" data-name="Main Curve"><polyline class="cls-5" points="29.09 152.1 30.96 150.14 34.23 146.73 40.03 140.73 43.38 137.27 52.53 128.74 57.07 124.53 64.1 118.86 64.55 118.5 65.73 117.66 72.39 112.95 74.29 111.81 80.41 108.08 85.76 105.31 88.93 103.66 94.48 101.17 97.5 99.81 104.17 97.2 106.49 96.29 119.64 91.96 123.01 90.86 124.02 90.53 124.71 90.35 142.23 85.64 146.34 84.69 160.13 81.48 167.96 79.83 178.61 77.56 190.32 75.18 197.5 73.71 211.77 70.75 211.77 70.75 213.51 70.39 215.36 70 233.66 65.94 233.81 65.91 233.92 65.88 234.63 65.72 252.24 61.67 255.62 60.88 270.58 57.4 278.37 55.6 289.4 53.07 302.29 50.24 307.8 49.03 323 45.98 326.24 45.35 327.91 45.07 344.72 42.29 358.75 40.53 363.17 39.98 368.21 39.64 382.02 38.86 391.22 39.02 397.87 39.16 399.64 39.21 404.06 39.65 408.05 40.04 409 40.2 410.45 40.42 413.85 40.98 416.02 41.33 418.66 41.93 422.55 42.81 423.43 43.01 424 43.14 428.13 44.36 431.57 45.35 433.25 45.97 445.57 50.54 446.3 50.85 458.82 56.38"/></g><g id="Plane-Square" class="cls-6"><polygon class="cls-7" points="280.37 50.49 265.63 53.9 270.98 61.96 285.72 58.55 280.37 50.49"/><polygon class="cls-7" points="31.6 142.93 20.93 154.34 26.58 161.28 37.24 149.87 31.6 142.93"/><polygon class="cls-7" points="56.77 119.17 45.05 129.59 50.36 136.23 62.09 125.82 56.77 119.17"/><polygon class="cls-7" points="85.78 100.49 72.1 108 77.27 114.43 90.95 106.92 85.78 100.49"/><polyline class="cls-7" points="107.04 98.38 108.27 99.94 122.82 95.02 117.62 88.38 103.07 93.31 105.65 96.59"/><polygon class="cls-7" points="150.05 79.65 135.32 83.24 140.61 90.25 155.34 86.66 150.05 79.65"/><polygon class="cls-7" points="182.63 72.52 167.87 75.57 173.19 82.95 187.95 79.9 182.63 72.52"/><polygon class="cls-7" points="215.24 65.63 200.48 68.75 205.8 76.39 220.56 73.28 215.24 65.63"/><polygon class="cls-7" points="461.98 54.02 450.68 48.88 455.66 58.74 466.96 63.88 461.98 54.02"/><polygon class="cls-7" points="247.81 58.14 233.06 61.54 238.4 69.4 253.14 66 247.81 58.14"/><polygon class="cls-7" points="312.96 43.25 298.2 46.34 303.55 54.63 318.31 51.54 312.96 43.25"/><polygon class="cls-7" points="345.51 37.46 330.79 39.75 336.14 48.41 350.86 46.12 345.51 37.46"/><polyline class="cls-7" points="380 38.24 377.79 34.36 363.28 35.18 368.53 44.37 383.04 43.55 380.41 38.95"/><polygon class="cls-7" points="408.82 35.58 395.11 34.15 400.25 43.81 413.96 45.24 408.82 35.58"/><polygon class="cls-7" points="436.64 43.09 424.47 39.06 429.6 48.77 441.77 52.8 436.64 43.09"/><polygon class="Surface-visible" points="280.37 50.49 265.63 53.9 270.98 61.96 285.72 58.55 280.37 50.49"/><polygon class="Surface-visible" points="31.6 142.93 20.93 154.34 26.58 161.28 37.24 149.87 31.6 142.93"/><polygon class="Surface-visible" points="56.77 119.17 45.05 129.59 50.36 136.23 62.09 125.82 56.77 119.17"/><polygon class="Surface-visible" points="85.78 100.49 72.1 108 77.27 114.43 90.95 106.92 85.78 100.49"/><polyline class="Surface-visible" points="107.04 98.38 108.27 99.94 122.82 95.02 117.62 88.38 103.07 93.31 105.65 96.59"/><polygon class="Surface-visible" points="150.05 79.65 135.32 83.24 140.61 90.25 155.34 86.66 150.05 79.65"/><polygon class="Surface-visible" points="182.63 72.52 167.87 75.57 173.19 82.95 187.95 79.9 182.63 72.52"/><polygon class="Surface-visible" points="215.24 65.63 200.48 68.75 205.8 76.39 220.56 73.28 215.24 65.63"/><polygon class="Surface-visible" points="461.98 54.02 450.68 48.88 455.66 58.74 466.96 63.88 461.98 54.02"/><polygon class="Surface-visible" points="247.81 58.14 233.06 61.54 238.4 69.4 253.14 66 247.81 58.14"/><polygon class="Surface-visible" points="312.96 43.25 298.2 46.34 303.55 54.63 318.31 51.54 312.96 43.25"/><polygon class="Surface-visible" points="345.51 37.46 330.79 39.75 336.14 48.41 350.86 46.12 345.51 37.46"/><polyline class="Surface-visible" points="380 38.24 377.79 34.36 363.28 35.18 368.53 44.37 383.04 43.55 380.41 38.95"/><polygon class="Surface-visible" points="408.82 35.58 395.11 34.15 400.25 43.81 413.96 45.24 408.82 35.58"/><polygon class="Surface-visible" points="436.64 43.09 424.47 39.06 429.6 48.77 441.77 52.8 436.64 43.09"/></g><g id="Plane-Border"><polygon class="cls-8" points="280.37 50.49 265.63 53.9 270.98 61.96 285.72 58.55 280.37 50.49"/><polygon class="cls-8" points="31.6 142.93 20.93 154.34 26.58 161.28 37.24 149.87 31.6 142.93"/><polygon class="cls-8" points="56.77 119.17 45.05 129.59 50.36 136.23 62.09 125.82 56.77 119.17"/><polygon class="cls-8" points="85.78 100.49 72.1 108 77.27 114.43 90.95 106.92 85.78 100.49"/><polyline class="cls-8" points="107.04 98.38 108.27 99.94 122.82 95.02 117.62 88.38 103.07 93.31 105.65 96.59"/><polygon class="cls-8" points="150.05 79.65 135.32 83.24 140.61 90.25 155.34 86.66 150.05 79.65"/><polygon class="cls-8" points="182.63 72.52 167.87 75.57 173.19 82.95 187.95 79.9 182.63 72.52"/><polygon class="cls-8" points="215.24 65.63 200.48 68.75 205.8 76.39 220.56 73.28 215.24 65.63"/><polygon class="cls-8" points="461.98 54.02 450.68 48.88 455.66 58.74 466.96 63.88 461.98 54.02"/><polygon class="cls-8" points="247.81 58.14 233.06 61.54 238.4 69.4 253.14 66 247.81 58.14"/><polygon class="cls-8" points="312.96 43.25 298.2 46.34 303.55 54.63 318.31 51.54 312.96 43.25"/><polygon class="cls-8" points="345.51 37.46 330.79 39.75 336.14 48.41 350.86 46.12 345.51 37.46"/><polyline class="cls-8" points="380 38.24 377.79 34.36 363.28 35.18 368.53 44.37 383.04 43.55 380.41 38.95"/><polygon class="cls-8" points="408.82 35.58 395.11 34.15 400.25 43.81 413.96 45.24 408.82 35.58"/><polygon class="cls-8" points="436.64 43.09 424.47 39.06 429.6 48.77 441.77 52.8 436.64 43.09"/></g><g id="Plane-ZAxis"><line class="cls-9" x1="210.52" y1="71.01" x2="210.32" y2="64.41"/><line class="cls-10" x1="210.52" y1="71.01" x2="210.33" y2="64.68"/><polygon class="cls-9" points="211.38 65.47 211.2 65.65 210.33 64.77 209.52 65.7 209.33 65.53 210.32 64.41 211.38 65.47"/><line class="cls-9" x1="177.91" y1="77.74" x2="177.7" y2="71.05"/><line class="cls-10" x1="177.91" y1="77.74" x2="177.71" y2="71.32"/><polygon class="cls-9" points="178.76 72.11 178.58 72.29 177.71 71.42 176.9 72.34 176.71 72.18 177.7 71.05 178.76 72.11"/><line class="cls-9" x1="145.33" y1="84.95" x2="144.75" y2="78.23"/><line class="cls-10" x1="145.33" y1="84.95" x2="144.77" y2="78.5"/><polygon class="cls-9" points="145.86 79.24 145.7 79.42 144.78 78.6 144.02 79.57 143.83 79.41 144.75 78.23 145.86 79.24"/><line class="cls-9" x1="112.94" y1="94.16" x2="111.56" y2="87.56"/><line class="cls-10" x1="112.94" y1="94.16" x2="111.62" y2="87.82"/><polygon class="cls-9" points="112.79 88.42 112.65 88.63 111.64 87.92 111 88.97 110.79 88.84 111.56 87.56 112.79 88.42"/><line class="cls-9" x1="243.1" y1="63.77" x2="242.8" y2="57.26"/><line class="cls-10" x1="243.1" y1="63.77" x2="242.81" y2="57.53"/><polygon class="cls-9" points="243.87 58.31 243.7 58.49 242.81 57.63 242.02 58.57 241.83 58.41 242.8 57.26 243.87 58.31"/><line class="cls-9" x1="53.57" y1="127.7" x2="49.12" y2="122.91"/><line class="cls-10" x1="53.57" y1="127.7" x2="49.31" y2="123.11"/><polygon class="cls-9" points="50.62 123.02 50.6 123.27 49.37 123.18 49.37 124.41 49.12 124.41 49.12 122.91 50.62 123.02"/><line class="cls-9" x1="29.09" y1="152.11" x2="24.12" y2="148.03"/><line class="cls-10" x1="29.09" y1="152.1" x2="24.33" y2="148.2"/><polygon class="cls-9" points="25.62 147.94 25.64 148.19 24.41 148.26 24.57 149.49 24.32 149.52 24.12 148.03 25.62 147.94"/><line class="cls-9" x1="458.82" y1="56.38" x2="463.61" y2="50.9"/><line class="cls-10" x1="458.82" y1="56.38" x2="463.43" y2="51.1"/><polygon class="cls-9" points="463.66 52.4 463.41 52.4 463.37 51.17 462.14 51.3 462.12 51.05 463.61 50.9 463.66 52.4"/><line class="cls-9" x1="433.12" y1="45.93" x2="437.32" y2="40.16"/><line class="cls-10" x1="433.12" y1="45.93" x2="437.16" y2="40.38"/><polygon class="cls-9" points="437.5 41.65 437.25 41.68 437.1 40.45 435.89 40.69 435.85 40.45 437.32 40.16 437.5 41.65"/><line class="cls-9" x1="404.54" y1="39.7" x2="407.33" y2="33.62"/><line class="cls-10" x1="404.54" y1="39.7" x2="407.22" y2="33.86"/><polygon class="cls-9" points="407.8 35.04 407.56 35.12 407.18 33.95 406.04 34.42 405.94 34.19 407.33 33.62 407.8 35.04"/><line class="cls-9" x1="81.53" y1="107.46" x2="78.71" y2="101.43"/><line class="cls-10" x1="81.53" y1="107.46" x2="78.82" y2="101.67"/><polygon class="cls-9" points="80.1 101.99 80 102.22 78.86 101.76 78.48 102.93 78.25 102.86 78.71 101.42 80.1 101.99"/><line class="cls-9" x1="308.25" y1="48.94" x2="308.21" y2="42.52"/><line class="cls-10" x1="308.25" y1="48.94" x2="308.21" y2="42.79"/><polygon class="cls-9" points="309.24 43.61 309.06 43.78 308.21 42.89 307.38 43.8 307.19 43.63 308.21 42.52 309.24 43.61"/><line class="cls-9" x1="373.16" y1="39.36" x2="374.57" y2="33.08"/><line class="cls-10" x1="373.16" y1="39.36" x2="374.51" y2="33.34"/><polygon class="cls-9" points="375.33 34.37 375.11 34.5 374.49 33.44 373.48 34.13 373.33 33.92 374.57 33.08 375.33 34.37"/><line class="cls-9" x1="340.83" y1="42.93" x2="341.31" y2="36.55"/><line class="cls-10" x1="340.83" y1="42.93" x2="341.29" y2="36.82"/><polygon class="cls-9" points="342.25 37.73 342.05 37.88 341.28 36.92 340.38 37.76 340.21 37.57 341.31 36.55 342.25 37.73"/><line class="cls-9" x1="275.67" y1="56.22" x2="275.4" y2="49.77"/><line class="cls-10" x1="275.67" y1="56.22" x2="275.41" y2="50.04"/><polygon class="cls-9" points="276.47 50.83 276.29 51.01 275.42 50.14 274.62 51.08 274.43 50.92 275.4 49.77 276.47 50.83"/></g><g id="Plane-YAxis"><line class="cls-11" x1="177.91" y1="77.74" x2="180.54" y2="81.39"/><line class="cls-11" x1="145.33" y1="84.95" x2="147.95" y2="88.42"/><line class="cls-11" x1="53.57" y1="127.7" x2="56.2" y2="130.99"/><line class="cls-11" x1="29.09" y1="152.11" x2="31.88" y2="155.54"/><line class="cls-11" x1="210.52" y1="71.01" x2="213.15" y2="74.8"/><line class="cls-11" x1="112.94" y1="94.16" x2="115.52" y2="97.45"/><line class="cls-11" x1="243.1" y1="63.77" x2="245.75" y2="67.66"/><line class="cls-11" x1="81.53" y1="107.46" x2="84.09" y2="110.64"/><line class="cls-11" x1="458.82" y1="56.38" x2="461.29" y2="61.26"/><line class="cls-11" x1="433.12" y1="45.93" x2="435.66" y2="50.73"/><line class="cls-11" x1="404.54" y1="39.7" x2="407.08" y2="44.48"/><line class="cls-11" x1="373.16" y1="39.36" x2="375.76" y2="43.91"/><line class="cls-11" x1="340.83" y1="42.93" x2="343.33" y2="46.99"/><polygon class="cls-12" points="342.02 46.82 342.09 46.58 343.28 46.91 343.52 45.7 343.76 45.75 343.47 47.22 342.02 46.82"/><line class="cls-11" x1="308.25" y1="48.94" x2="310.9" y2="53.04"/><line class="cls-11" x1="275.67" y1="56.22" x2="278.32" y2="60.21"/></g><g id="Plane-XAxis"><line class="cls-13" x1="433.12" y1="45.93" x2="439.15" y2="47.92"/><line class="cls-13" x1="53.57" y1="127.7" x2="59.37" y2="122.55"/><line class="cls-13" x1="177.91" y1="77.74" x2="185.22" y2="76.23"/><line class="cls-13" x1="145.33" y1="84.95" x2="152.62" y2="83.17"/><line class="cls-13" x1="81.53" y1="107.46" x2="88.3" y2="103.74"/><line class="cls-13" x1="29.09" y1="152.11" x2="34.37" y2="146.45"/><line class="cls-13" x1="308.25" y1="48.94" x2="315.56" y2="47.41"/><line class="cls-13" x1="458.82" y1="56.38" x2="464.42" y2="58.93"/><line class="cls-13" x1="112.94" y1="94.16" x2="120.14" y2="91.72"/><line class="cls-13" x1="210.52" y1="71.01" x2="217.82" y2="69.47"/><line class="cls-13" x1="275.54" y1="56.22" x2="282.97" y2="54.54"/><line class="cls-13" x1="243.02" y1="63.77" x2="250.46" y2="62.08"/><line class="cls-13" x1="404.54" y1="39.7" x2="411.33" y2="40.41"/><line class="cls-13" x1="373.16" y1="39.39" x2="379.94" y2="38.98"/><line class="cls-13" x1="340.83" y1="42.93" x2="348.23" y2="41.85"/></g><g id="TransportedV"><line class="cls-14" x1="210.52" y1="71.01" x2="217.79" y2="78.08"/><line class="cls-15" x1="210.52" y1="71.01" x2="217.4" y2="77.7"/><polygon class="cls-14" points="214.78 78.01 214.79 77.51 217.26 77.57 217.13 75.1 217.63 75.08 217.79 78.08 214.78 78.01"/><line class="cls-14" x1="145.33" y1="84.95" x2="152.57" y2="91.32"/><line class="cls-15" x1="145.33" y1="84.95" x2="152.16" y2="90.96"/><polygon class="cls-14" points="149.57 91.4 149.55 90.9 152.02 90.83 151.77 88.38 152.27 88.33 152.57 91.32 149.57 91.4"/><line class="cls-14" x1="404.54" y1="39.7" x2="411.32" y2="49.37"/><line class="cls-15" x1="404.54" y1="39.7" x2="411.01" y2="48.92"/><polygon class="cls-14" points="408.38 48.74 408.49 48.25 410.9 48.77 411.23 46.32 411.73 46.39 411.32 49.37 408.38 48.74"/><line class="cls-14" x1="243.1" y1="64.09" x2="250.38" y2="71.33"/><line class="cls-15" x1="243.1" y1="64.09" x2="250" y2="70.94"/><polygon class="cls-14" points="247.38 71.23 247.4 70.73 249.86 70.81 249.76 68.35 250.26 68.33 250.38 71.33 247.38 71.23"/><line class="cls-14" x1="275.7" y1="56.22" x2="282.98" y2="63.65"/><line class="cls-15" x1="275.7" y1="56.22" x2="282.6" y2="63.26"/><polygon class="cls-14" points="279.98 63.51 280.01 63.01 282.47 63.13 282.4 60.66 282.9 60.65 282.98 63.65 279.98 63.51"/><line class="cls-14" x1="177.91" y1="77.74" x2="185.17" y2="84.55"/><line class="cls-15" x1="177.91" y1="77.74" x2="184.78" y2="84.18"/><polygon class="cls-14" points="182.17 84.54 182.17 84.03 184.64 84.05 184.47 81.59 184.97 81.55 185.17 84.55 182.17 84.54"/><line class="cls-14" x1="340.83" y1="42.99" x2="348.08" y2="51.17"/><line class="cls-15" x1="340.83" y1="42.99" x2="347.72" y2="50.77"/><polygon class="cls-14" points="345.1 50.88 345.14 50.39 347.6 50.62 347.65 48.16 348.15 48.17 348.08 51.17 345.1 50.88"/><line class="cls-14" x1="373.16" y1="39.36" x2="380.27" y2="48.26"/><line class="cls-15" x1="373.16" y1="39.36" x2="379.93" y2="47.84"/><polygon class="cls-14" points="377.3 47.82 377.37 47.33 379.81 47.69 379.99 45.23 380.49 45.27 380.27 48.26 377.3 47.82"/><line class="cls-14" x1="458.82" y1="56.38" x2="465.1" y2="66.69"/><line class="cls-15" x1="458.82" y1="56.38" x2="464.82" y2="66.23"/><polygon class="cls-14" points="462.21 65.88 462.35 65.4 464.72 66.06 465.21 63.65 465.7 63.75 465.1 66.69 462.21 65.88"/><line class="cls-14" x1="112.94" y1="94.16" x2="119.62" y2="99.54"/><line class="cls-15" x1="112.94" y1="94.16" x2="119.19" y2="99.2"/><polygon class="cls-14" points="116.62 99.75 116.58 99.25 119.04 99.08 118.69 96.64 119.19 96.56 119.61 99.54 116.62 99.75"/><line class="cls-14" x1="81.53" y1="107.46" x2="88.59" y2="112.66"/><line class="cls-15" x1="81.53" y1="107.46" x2="88.15" y2="112.34"/><polygon class="cls-14" points="85.6 113 85.55 112.51 87.99 112.23 87.54 109.8 88.03 109.71 88.58 112.66 85.6 113"/><line class="cls-14" x1="53.57" y1="127.7" x2="60.51" y2="132.66"/><line class="cls-15" x1="53.57" y1="127.7" x2="60.07" y2="132.35"/><polygon class="cls-14" points="57.53 133.05 57.47 132.55 59.91 132.23 59.42 129.82 59.91 129.72 60.51 132.66 57.53 133.05"/><line class="cls-14" x1="29.09" y1="152.11" x2="36.18" y2="157.23"/><line class="cls-15" x1="29.09" y1="152.1" x2="35.74" y2="156.91"/><polygon class="cls-14" points="33.2 157.6 33.14 157.1 35.59 156.8 35.11 154.38 35.6 154.28 36.18 157.23 33.2 157.6"/><line class="cls-14" x1="433.12" y1="45.93" x2="439.65" y2="55.96"/><line class="cls-15" x1="433.12" y1="45.93" x2="439.35" y2="55.5"/><polygon class="cls-14" points="436.73 55.23 436.85 54.74 439.25 55.34 439.67 52.91 440.16 53 439.64 55.96 436.73 55.23"/><line class="cls-14" x1="308.25" y1="48.94" x2="315.54" y2="56.63"/><line class="cls-15" x1="308.25" y1="48.94" x2="315.17" y2="56.24"/><polygon class="cls-14" points="312.55 56.44 312.58 55.95 315.04 56.1 315.01 53.64 315.52 53.63 315.54 56.63 312.55 56.44"/></g><g id="Annotations-3" data-name="Annotations"><text class="cls-16" transform="translate(182.57 37.93)">g</text><text class="cls-16" transform="translate(265.7 166.19)">S</text><text class="cls-17" transform="translate(243.97 77.71)">v</text><text class="cls-18" transform="translate(248.47 80.04) scale(0.58)">i</text><text class="cls-17" transform="translate(17.78 160.65)">v</text><text class="cls-18" transform="translate(22.28 162.98) scale(0.58)">N</text><text class="cls-17" transform="translate(468.88 69.22)">v</text><text class="cls-18" transform="translate(473.38 71.55) scale(0.58)">0</text><line class="cls-19" x1="190.62" y1="39.18" x2="226.1" y2="66.03"/><path class="cls-14" d="M225.74,65.76l.11-1.05h0l.82,1.35,1,1.2-1.43-.66-1.53-.42v0Z"/><text class="cls-16" transform="translate(273.15 121.7)">h</text><text class="cls-18" transform="translate(277.65 124.04) scale(0.58)">i</text></g></g></svg>