<svg version="1.1" xmlns="http://www.w3.org/2000/svg" xmlns:xlink="http://www.w3.org/1999/xlink" width="400" height="400" style="width: 400px; height: 400px;"><defs><clipPath id="dTHrmZQHSrNA"><path fill="none" stroke="none" d=" M 39 32 L 370 32 L 370 354 L 39 354 L 39 32 Z"/></clipPath><clipPath id="wAXyVsgFMLfV"><path fill="none" stroke="none" d=" M 39 32 L 370 32 L 370 354 L 39 354 L 39 32 Z"/></clipPath></defs><g><g transform="scale(1,1) translate(0.5,0.5)"><rect fill="#FFFFFF" stroke="none" x="0" y="0" width="400" height="400"/><rect fill="#ffffff" stroke="none" x="0" y="0" width="400" height="400"/><rect fill="#FFFFFF" stroke="none" x="39" y="32" width="331" height="322"/><rect fill="#ffffff" stroke="none" x="39" y="32" width="331" height="322"/><g><rect fill="none" stroke="#e5e5e5" x="39" y="32" width="331" height="322" stroke-miterlimit="10"/></g><g clip-path="url(#dTHrmZQHSrNA)"><g><g><path fill="none" stroke="#e5e5e5" paint-order="fill stroke markers" d=" M 92 354 L 92 32" stroke-miterlimit="10"/><path fill="none" stroke="#e5e5e5" paint-order="fill stroke markers" d=" M 167 354 L 167 32" stroke-miterlimit="10"/><path fill="none" stroke="#e5e5e5" paint-order="fill stroke markers" d=" M 242 354 L 242 32" stroke-miterlimit="10"/><path fill="none" stroke="#e5e5e5" paint-order="fill stroke markers" d=" M 317 354 L 317 32" stroke-miterlimit="10"/></g><g><path fill="none" stroke="#e5e5e5" paint-order="fill stroke markers" d=" M 39 339 L 370 339" stroke-miterlimit="10"/><path fill="none" stroke="#e5e5e5" paint-order="fill stroke markers" d=" M 39 291 L 370 291" stroke-miterlimit="10"/><path fill="none" stroke="#e5e5e5" paint-order="fill stroke markers" d=" M 39 242 L 370 242" stroke-miterlimit="10"/><path fill="none" stroke="#e5e5e5" paint-order="fill stroke markers" d=" M 39 193 L 370 193" stroke-miterlimit="10"/><path fill="none" stroke="#e5e5e5" paint-order="fill stroke markers" d=" M 39 144 L 370 144" stroke-miterlimit="10"/><path fill="none" stroke="#e5e5e5" paint-order="fill stroke markers" d=" M 39 95 L 370 95" stroke-miterlimit="10"/><path fill="none" stroke="#e5e5e5" paint-order="fill stroke markers" d=" M 39 47 L 370 47" stroke-miterlimit="10"/></g><g><path fill="none" stroke="none"/><path fill="none" stroke="#5e4fa2" paint-order="fill stroke markers" d=" M 54.04545454545456 290.57575757575756 L 91.65909090909092 241.7878787878788 L 242.11363636363635 144.21212121212125 L 317.34090909090907 46.63636363636368" stroke-miterlimit="10" stroke-width="3"/></g><g fill="#5e4fa2" fill-opacity="0.5" stroke="#5e4fa2" stroke-miterlimit="10"><path fill="none" stroke="none"/><path fill="" stroke="" d=""/><g transform="translate(54.04545454545456,290.57575757575756)" fill=""><path fill="" stroke="" paint-order="fill stroke markers" d=" M 0 5 L 0 -5 M -5 0 L 5 0"/><g transform="translate(-54.04545454545456,-290.57575757575756)"><path fill="" stroke="" d=""/><g transform="translate(91.65909090909092,241.7878787878788)" fill=""><path fill="" stroke="" paint-order="fill stroke markers" d=" M 0 5 L 0 -5 M -5 0 L 5 0"/><g transform="translate(-91.65909090909092,-241.7878787878788)"><path fill="" stroke="" d=""/><g transform="translate(242.11363636363635,144.21212121212125)" fill=""><path fill="" stroke="" paint-order="fill stroke markers" d=" M 0 5 L 0 -5 M -5 0 L 5 0"/><g transform="translate(-242.11363636363635,-144.21212121212125)"><path fill="" stroke="" d=""/><g transform="translate(317.34090909090907,46.63636363636368)" fill=""><path fill="none" stroke="" paint-order="fill stroke markers" d=" M 0 5 L 0 -5 M -5 0 L 5 0"/><g transform="translate(-317.34090909090907,-46.63636363636368)"/></g></g></g></g></g></g></g></g><g><path fill="none" stroke="none"/><path fill="none" stroke="#66c2a5" paint-order="fill stroke markers" d=" M 129.27272727272728 193.00000000000003 L 166.88636363636363 144.21212121212125 L 166.88636363636363 241.7878787878788 L 242.11363636363635 144.21212121212125" stroke-miterlimit="10" stroke-width="3"/></g><g fill="#66c2a5" fill-opacity="0.5" stroke="#66c2a5" stroke-miterlimit="10"><path fill="none" stroke="none"/><path fill="" stroke="" d=""/><g transform="translate(129.27272727272728,193.00000000000003)" fill=""><path fill="" stroke="" paint-order="fill stroke markers" d=" M 0 5 L 0 -5 M -5 0 L 5 0"/><g transform="translate(-129.27272727272728,-193.00000000000003)"><path fill="" stroke="" d=""/><g transform="translate(166.88636363636363,144.21212121212125)" fill=""><path fill="" stroke="" paint-order="fill stroke markers" d=" M 0 5 L 0 -5 M -5 0 L 5 0"/><g transform="translate(-166.88636363636363,-144.21212121212125)"><path fill="" stroke="" d=""/><g transform="translate(166.88636363636363,241.7878787878788)" fill=""><path fill="" stroke="" paint-order="fill stroke markers" d=" M 0 5 L 0 -5 M -5 0 L 5 0"/><g transform="translate(-166.88636363636363,-241.7878787878788)"><path fill="" stroke="" d=""/><g transform="translate(242.11363636363635,144.21212121212125)" fill=""><path fill="none" stroke="" paint-order="fill stroke markers" d=" M 0 5 L 0 -5 M -5 0 L 5 0"/><g transform="translate(-242.11363636363635,-144.21212121212125)"/></g></g></g></g></g></g></g></g><g><path fill="none" stroke="none"/><path fill="none" stroke="#e6f598" paint-order="fill stroke markers" d=" M 204.5 95.4242424242425 L 242.11363636363635 46.63636363636368 L 91.65909090909092 339.3636363636364 L 166.88636363636363 241.7878787878788" stroke-miterlimit="10" stroke-width="3"/></g><g fill="#e6f598" fill-opacity="0.5" stroke="#e6f598" stroke-miterlimit="10"><path fill="none" stroke="none"/><path fill="" stroke="" d=""/><g transform="translate(204.5,95.4242424242425)" fill=""><path fill="" stroke="" paint-order="fill stroke markers" d=" M 0 5 L 0 -5 M -5 0 L 5 0"/><g transform="translate(-204.5,-95.4242424242425)"><path fill="" stroke="" d=""/><g transform="translate(242.11363636363635,46.63636363636368)" fill=""><path fill="" stroke="" paint-order="fill stroke markers" d=" M 0 5 L 0 -5 M -5 0 L 5 0"/><g transform="translate(-242.11363636363635,-46.63636363636368)"><path fill="" stroke="" d=""/><g transform="translate(91.65909090909092,339.3636363636364)" fill=""><path fill="" stroke="" paint-order="fill stroke markers" d=" M 0 5 L 0 -5 M -5 0 L 5 0"/><g transform="translate(-91.65909090909092,-339.3636363636364)"><path fill="" stroke="" d=""/><g transform="translate(166.88636363636363,241.7878787878788)" fill=""><path fill="none" stroke="" paint-order="fill stroke markers" d=" M 0 5 L 0 -5 M -5 0 L 5 0"/><g transform="translate(-166.88636363636363,-241.7878787878788)"/></g></g></g></g></g></g></g></g><g><path fill="none" stroke="none"/><path fill="none" stroke="#fdae61" paint-order="fill stroke markers" d=" M 129.27272727272728 144.21212121212125 L 91.65909090909092 144.21212121212125 L 354.95454545454544 241.7878787878788 L 166.88636363636363 290.57575757575756" stroke-miterlimit="10" stroke-width="3"/></g><g fill="#fdae61" fill-opacity="0.5" stroke="#fdae61" stroke-miterlimit="10"><path fill="none" stroke="none"/><path fill="" stroke="" d=""/><g transform="translate(129.27272727272728,144.21212121212125)" fill=""><path fill="" stroke="" paint-order="fill stroke markers" d=" M 0 5 L 0 -5 M -5 0 L 5 0"/><g transform="translate(-129.27272727272728,-144.21212121212125)"><path fill="" stroke="" d=""/><g transform="translate(91.65909090909092,144.21212121212125)" fill=""><path fill="" stroke="" paint-order="fill stroke markers" d=" M 0 5 L 0 -5 M -5 0 L 5 0"/><g transform="translate(-91.65909090909092,-144.21212121212125)"><path fill="" stroke="" d=""/><g transform="translate(354.95454545454544,241.7878787878788)" fill=""><path fill="" stroke="" paint-order="fill stroke markers" d=" M 0 5 L 0 -5 M -5 0 L 5 0"/><g transform="translate(-354.95454545454544,-241.7878787878788)"><path fill="" stroke="" d=""/><g transform="translate(166.88636363636363,290.57575757575756)" fill=""><path fill="none" stroke="" paint-order="fill stroke markers" d=" M 0 5 L 0 -5 M -5 0 L 5 0"/><g transform="translate(-166.88636363636363,-290.57575757575756)"/></g></g></g></g></g></g></g></g><g><path fill="none" stroke="none"/><path fill="none" stroke="#d53e4f" paint-order="fill stroke markers" d=" M 242.11363636363635 46.63636363636368 L 317.34090909090907 339.3636363636364 L 242.11363636363635 339.3636363636364 L 317.34090909090907 144.21212121212125" stroke-miterlimit="10" stroke-width="3"/></g><g fill="#d53e4f" fill-opacity="0.5" stroke="#d53e4f" stroke-miterlimit="10"><path fill="none" stroke="none"/><path fill="" stroke="" d=""/><g transform="translate(242.11363636363635,46.63636363636368)" fill=""><path fill="" stroke="" paint-order="fill stroke markers" d=" M 0 5 L 0 -5 M -5 0 L 5 0"/><g transform="translate(-242.11363636363635,-46.63636363636368)"><path fill="" stroke="" d=""/><g transform="translate(317.34090909090907,339.3636363636364)" fill=""><path fill="" stroke="" paint-order="fill stroke markers" d=" M 0 5 L 0 -5 M -5 0 L 5 0"/><g transform="translate(-317.34090909090907,-339.3636363636364)"><path fill="" stroke="" d=""/><g transform="translate(242.11363636363635,339.3636363636364)" fill=""><path fill="" stroke="" paint-order="fill stroke markers" d=" M 0 5 L 0 -5 M -5 0 L 5 0"/><g transform="translate(-242.11363636363635,-339.3636363636364)"><path fill="" stroke="" d=""/><g transform="translate(317.34090909090907,144.21212121212125)" fill=""><path fill="none" stroke="" paint-order="fill stroke markers" d=" M 0 5 L 0 -5 M -5 0 L 5 0"/><g transform="translate(-317.34090909090907,-144.21212121212125)"/></g></g></g></g></g></g></g></g></g></g><g clip-path="url(#wAXyVsgFMLfV)"><g><g/><g><path fill="#ffffff" stroke="#e5e5e5" paint-order="fill stroke markers" d=" M 295 42 L 360 42 L 360 174 L 295 174 L 295 42 Z" fill-opacity="0.95" stroke-miterlimit="10" stroke-opacity="0.5"/><text fill="#444444" stroke="none" font-family="helvetica" font-size="10pt" font-style="normal" font-weight="normal" text-decoration="normal" x="330" y="62" text-anchor="start" dominant-baseline="central"> x1</text><g><path fill="none" stroke="#5e4fa2" paint-order="fill stroke markers" d=" M 305 62 L 325 62" stroke-miterlimit="10" stroke-width="3"/></g><text fill="#444444" stroke="none" font-family="helvetica" font-size="10pt" font-style="normal" font-weight="normal" text-decoration="normal" x="330" y="85" text-anchor="start" dominant-baseline="central"> x2</text><g><path fill="none" stroke="#66c2a5" paint-order="fill stroke markers" d=" M 305 85 L 325 85" stroke-miterlimit="10" stroke-width="3"/></g><text fill="#444444" stroke="none" font-family="helvetica" font-size="10pt" font-style="normal" font-weight="normal" text-decoration="normal" x="330" y="108" text-anchor="start" dominant-baseline="central"> x3</text><g><path fill="none" stroke="#e6f598" paint-order="fill stroke markers" d=" M 305 108 L 325 108" stroke-miterlimit="10" stroke-width="3"/></g><text fill="#444444" stroke="none" font-family="helvetica" font-size="10pt" font-style="normal" font-weight="normal" text-decoration="normal" x="330" y="131" text-anchor="start" dominant-baseline="central"> x4</text><g><path fill="none" stroke="#fdae61" paint-order="fill stroke markers" d=" M 305 131 L 325 131" stroke-miterlimit="10" stroke-width="3"/></g><text fill="#444444" stroke="none" font-family="helvetica" font-size="10pt" font-style="normal" font-weight="normal" text-decoration="normal" x="330" y="154" text-anchor="start" dominant-baseline="central"> x5</text><g><path fill="none" stroke="#d53e4f" paint-order="fill stroke markers" d=" M 305 154 L 325 154" stroke-miterlimit="10" stroke-width="3"/></g></g></g></g><g><g fill="#444444"><path fill="none" stroke="black" paint-order="fill stroke markers" d=" M 39 354 L 370 354" stroke-miterlimit="10"/><path fill="none" stroke="black" paint-order="fill stroke markers" d=" M 92 360 L 92 352" stroke-miterlimit="10"/><path fill="none" stroke="black" paint-order="fill stroke markers" d=" M 167 360 L 167 352" stroke-miterlimit="10"/><path fill="none" stroke="black" paint-order="fill stroke markers" d=" M 242 360 L 242 352" stroke-miterlimit="10"/><path fill="none" stroke="black" paint-order="fill stroke markers" d=" M 317 360 L 317 352" stroke-miterlimit="10"/><path fill="none" stroke="black" paint-order="fill stroke markers" d=" M 77 358 L 77 354" stroke-miterlimit="10"/><path fill="none" stroke="black" paint-order="fill stroke markers" d=" M 62 358 L 62 354" stroke-miterlimit="10"/><path fill="none" stroke="black" paint-order="fill stroke markers" d=" M 47 358 L 47 354" stroke-miterlimit="10"/><path fill="none" stroke="black" paint-order="fill stroke markers" d=" M 92 358 L 92 354" stroke-miterlimit="10"/><path fill="none" stroke="black" paint-order="fill stroke markers" d=" M 107 358 L 107 354" stroke-miterlimit="10"/><path fill="none" stroke="black" paint-order="fill stroke markers" d=" M 122 358 L 122 354" stroke-miterlimit="10"/><path fill="none" stroke="black" paint-order="fill stroke markers" d=" M 137 358 L 137 354" stroke-miterlimit="10"/><path fill="none" stroke="black" paint-order="fill stroke markers" d=" M 152 358 L 152 354" stroke-miterlimit="10"/><path fill="none" stroke="black" paint-order="fill stroke markers" d=" M 167 358 L 167 354" stroke-miterlimit="10"/><path fill="none" stroke="black" paint-order="fill stroke markers" d=" M 182 358 L 182 354" stroke-miterlimit="10"/><path fill="none" stroke="black" paint-order="fill stroke markers" d=" M 197 358 L 197 354" stroke-miterlimit="10"/><path fill="none" stroke="black" paint-order="fill stroke markers" d=" M 212 358 L 212 354" stroke-miterlimit="10"/><path fill="none" stroke="black" paint-order="fill stroke markers" d=" M 227 358 L 227 354" stroke-miterlimit="10"/><path fill="none" stroke="black" paint-order="fill stroke markers" d=" M 242 358 L 242 354" stroke-miterlimit="10"/><path fill="none" stroke="black" paint-order="fill stroke markers" d=" M 257 358 L 257 354" stroke-miterlimit="10"/><path fill="none" stroke="black" paint-order="fill stroke markers" d=" M 272 358 L 272 354" stroke-miterlimit="10"/><path fill="none" stroke="black" paint-order="fill stroke markers" d=" M 287 358 L 287 354" stroke-miterlimit="10"/><path fill="none" stroke="black" paint-order="fill stroke markers" d=" M 302 358 L 302 354" stroke-miterlimit="10"/><path fill="none" stroke="black" paint-order="fill stroke markers" d=" M 317 358 L 317 354" stroke-miterlimit="10"/><path fill="none" stroke="black" paint-order="fill stroke markers" d=" M 332 358 L 332 354" stroke-miterlimit="10"/><path fill="none" stroke="black" paint-order="fill stroke markers" d=" M 347 358 L 347 354" stroke-miterlimit="10"/><path fill="" stroke="black" paint-order="fill stroke markers" d=" M 362 358 L 362 354" stroke-miterlimit="10"/><g transform="translate(92,365) rotate(0,0,0)"><text fill="" stroke="none" font-family="helvetica" font-size="8pt" font-style="normal" font-weight="normal" text-decoration="normal" x="0" y="0" text-anchor="middle" dominant-baseline="hanging">2</text><g transform="rotate(0,0,0) translate(-92,-365) translate(167,365) rotate(0,0,0)"><text fill="" stroke="none" font-family="helvetica" font-size="8pt" font-style="normal" font-weight="normal" text-decoration="normal" x="0" y="0" text-anchor="middle" dominant-baseline="hanging">4</text><g transform="rotate(0,0,0) translate(-167,-365) translate(242,365) rotate(0,0,0)"><text fill="" stroke="none" font-family="helvetica" font-size="8pt" font-style="normal" font-weight="normal" text-decoration="normal" x="0" y="0" text-anchor="middle" dominant-baseline="hanging">6</text><g transform="rotate(0,0,0) translate(-242,-365) translate(317,365) rotate(0,0,0)"><text fill="" stroke="none" font-family="helvetica" font-size="8pt" font-style="normal" font-weight="normal" text-decoration="normal" x="0" y="0" text-anchor="middle" dominant-baseline="hanging">8</text><g transform="rotate(0,0,0) translate(-317,-365) translate(205,383) rotate(0,0,0)"><text fill="" stroke="none" font-family="times" font-size="12pt" font-style="italic" font-weight="normal" text-decoration="normal" x="0" y="0" text-anchor="middle" dominant-baseline="hanging">Horizontal Title</text><g transform="rotate(0,0,0) translate(-205,-383)"/></g></g></g></g></g></g><g fill="#444444"><path fill="none" stroke="black" paint-order="fill stroke markers" d=" M 39 354 L 39 32" stroke-miterlimit="10"/><path fill="none" stroke="black" paint-order="fill stroke markers" d=" M 33 339 L 41 339" stroke-miterlimit="10"/><path fill="none" stroke="black" paint-order="fill stroke markers" d=" M 33 291 L 41 291" stroke-miterlimit="10"/><path fill="none" stroke="black" paint-order="fill stroke markers" d=" M 33 242 L 41 242" stroke-miterlimit="10"/><path fill="none" stroke="black" paint-order="fill stroke markers" d=" M 33 193 L 41 193" stroke-miterlimit="10"/><path fill="none" stroke="black" paint-order="fill stroke markers" d=" M 33 144 L 41 144" stroke-miterlimit="10"/><path fill="none" stroke="black" paint-order="fill stroke markers" d=" M 33 95 L 41 95" stroke-miterlimit="10"/><path fill="none" stroke="black" paint-order="fill stroke markers" d=" M 33 47 L 41 47" stroke-miterlimit="10"/><path fill="none" stroke="black" paint-order="fill stroke markers" d=" M 35 349 L 39 349" stroke-miterlimit="10"/><path fill="none" stroke="black" paint-order="fill stroke markers" d=" M 35 339 L 39 339" stroke-miterlimit="10"/><path fill="none" stroke="black" paint-order="fill stroke markers" d=" M 35 330 L 39 330" stroke-miterlimit="10"/><path fill="none" stroke="black" paint-order="fill stroke markers" d=" M 35 320 L 39 320" stroke-miterlimit="10"/><path fill="none" stroke="black" paint-order="fill stroke markers" d=" M 35 310 L 39 310" stroke-miterlimit="10"/><path fill="none" stroke="black" paint-order="fill stroke markers" d=" M 35 300 L 39 300" stroke-miterlimit="10"/><path fill="none" stroke="black" paint-order="fill stroke markers" d=" M 35 291 L 39 291" stroke-miterlimit="10"/><path fill="none" stroke="black" paint-order="fill stroke markers" d=" M 35 281 L 39 281" stroke-miterlimit="10"/><path fill="none" stroke="black" paint-order="fill stroke markers" d=" M 35 271 L 39 271" stroke-miterlimit="10"/><path fill="none" stroke="black" paint-order="fill stroke markers" d=" M 35 261 L 39 261" stroke-miterlimit="10"/><path fill="none" stroke="black" paint-order="fill stroke markers" d=" M 35 252 L 39 252" stroke-miterlimit="10"/><path fill="none" stroke="black" paint-order="fill stroke markers" d=" M 35 242 L 39 242" stroke-miterlimit="10"/><path fill="none" stroke="black" paint-order="fill stroke markers" d=" M 35 232 L 39 232" stroke-miterlimit="10"/><path fill="none" stroke="black" paint-order="fill stroke markers" d=" M 35 222 L 39 222" stroke-miterlimit="10"/><path fill="none" stroke="black" paint-order="fill stroke markers" d=" M 35 213 L 39 213" stroke-miterlimit="10"/><path fill="none" stroke="black" paint-order="fill stroke markers" d=" M 35 203 L 39 203" stroke-miterlimit="10"/><path fill="none" stroke="black" paint-order="fill stroke markers" d=" M 35 193 L 39 193" stroke-miterlimit="10"/><path fill="none" stroke="black" paint-order="fill stroke markers" d=" M 35 183 L 39 183" stroke-miterlimit="10"/><path fill="none" stroke="black" paint-order="fill stroke markers" d=" M 35 173 L 39 173" stroke-miterlimit="10"/><path fill="none" stroke="black" paint-order="fill stroke markers" d=" M 35 164 L 39 164" stroke-miterlimit="10"/><path fill="none" stroke="black" paint-order="fill stroke markers" d=" M 35 154 L 39 154" stroke-miterlimit="10"/><path fill="none" stroke="black" paint-order="fill stroke markers" d=" M 35 144 L 39 144" stroke-miterlimit="10"/><path fill="none" stroke="black" paint-order="fill stroke markers" d=" M 35 134 L 39 134" stroke-miterlimit="10"/><path fill="none" stroke="black" paint-order="fill stroke markers" d=" M 35 125 L 39 125" stroke-miterlimit="10"/><path fill="none" stroke="black" paint-order="fill stroke markers" d=" M 35 115 L 39 115" stroke-miterlimit="10"/><path fill="none" stroke="black" paint-order="fill stroke markers" d=" M 35 105 L 39 105" stroke-miterlimit="10"/><path fill="none" stroke="black" paint-order="fill stroke markers" d=" M 35 95 L 39 95" stroke-miterlimit="10"/><path fill="none" stroke="black" paint-order="fill stroke markers" d=" M 35 86 L 39 86" stroke-miterlimit="10"/><path fill="none" stroke="black" paint-order="fill stroke markers" d=" M 35 76 L 39 76" stroke-miterlimit="10"/><path fill="none" stroke="black" paint-order="fill stroke markers" d=" M 35 66 L 39 66" stroke-miterlimit="10"/><path fill="none" stroke="black" paint-order="fill stroke markers" d=" M 35 56 L 39 56" stroke-miterlimit="10"/><path fill="none" stroke="black" paint-order="fill stroke markers" d=" M 35 47 L 39 47" stroke-miterlimit="10"/><path fill="" stroke="black" paint-order="fill stroke markers" d=" M 35 37 L 39 37" stroke-miterlimit="10"/><g transform="translate(28,339) rotate(0,0,0)"><text fill="" stroke="none" font-family="helvetica" font-size="8pt" font-style="normal" font-weight="normal" text-decoration="normal" x="0" y="0" text-anchor="end" dominant-baseline="central">1</text><g transform="rotate(0,0,0) translate(-28,-339) translate(28,291) rotate(0,0,0)"><text fill="" stroke="none" font-family="helvetica" font-size="8pt" font-style="normal" font-weight="normal" text-decoration="normal" x="0" y="0" text-anchor="end" dominant-baseline="central">2</text><g transform="rotate(0,0,0) translate(-28,-291) translate(28,242) rotate(0,0,0)"><text fill="" stroke="none" font-family="helvetica" font-size="8pt" font-style="normal" font-weight="normal" text-decoration="normal" x="0" y="0" text-anchor="end" dominant-baseline="central">3</text><g transform="rotate(0,0,0) translate(-28,-242) translate(28,193) rotate(0,0,0)"><text fill="" stroke="none" font-family="helvetica" font-size="8pt" font-style="normal" font-weight="normal" text-decoration="normal" x="0" y="0" text-anchor="end" dominant-baseline="central">4</text><g transform="rotate(0,0,0) translate(-28,-193) translate(28,144) rotate(0,0,0)"><text fill="" stroke="none" font-family="helvetica" font-size="8pt" font-style="normal" font-weight="normal" text-decoration="normal" x="0" y="0" text-anchor="end" dominant-baseline="central">5</text><g transform="rotate(0,0,0) translate(-28,-144) translate(28,95) rotate(0,0,0)"><text fill="" stroke="none" font-family="helvetica" font-size="8pt" font-style="normal" font-weight="normal" text-decoration="normal" x="0" y="0" text-anchor="end" dominant-baseline="central">6</text><g transform="rotate(0,0,0) translate(-28,-95) translate(28,47) rotate(0,0,0)"><text fill="" stroke="none" font-family="helvetica" font-size="8pt" font-style="normal" font-weight="normal" text-decoration="normal" x="0" y="0" text-anchor="end" dominant-baseline="central">7</text><g transform="rotate(0,0,0) translate(-28,-47) translate(16,193) rotate(-90,0,0)"><text fill="" stroke="none" font-family="times" font-size="12pt" font-style="italic" font-weight="normal" text-decoration="normal" x="0" y="0" text-anchor="middle" dominant-baseline="alphabetic">Vertical Title</text><g transform="rotate(90,0,0) translate(-16,-193)"/></g></g></g></g></g></g></g></g></g><g fill="#444444"><path fill="" stroke="none" d=""/><g transform="translate(39,27)"><path fill="none" stroke="none"/><text fill="" stroke="none" font-family="times" font-size="14pt" font-style="italic" font-weight="normal" text-decoration="normal" x="0" y="0" text-anchor="start" dominant-baseline="text-after-edge">First Bokeh Plot</text></g></g></g></g></g></svg>