<svg xmlns="http://www.w3.org/2000/svg" viewBox="0 0 198.43 198.43"><title>ShortestGeodesics</title><g id="SpherePT"><g id="Annotation"><text transform="translate(60.27 23.49)" font-size="6.89" fill="#1d1d1b" font-family="TimesNewRomanPS-ItalicMT, Times New Roman" font-style="italic">p</text><text transform="translate(63.72 25.28) scale(0.58)" font-size="5.36" fill="#1d1d1b" font-family="TimesNewRomanPS-ItalicMT, Times New Roman" font-style="italic">1</text><text transform="translate(60.27 77.41)" font-size="6.89" fill="#1d1d1b" font-family="TimesNewRomanPS-ItalicMT, Times New Roman" font-style="italic">g</text><text transform="translate(63.72 79.2) scale(0.58)" font-size="5.36" fill="#1d1d1b" font-family="TimesNewRomanPS-ItalicMT, Times New Roman" font-style="italic">0</text><text transform="translate(83.7 55.97)" font-size="6.89" fill="#1d1d1b" font-family="TimesNewRomanPS-ItalicMT, Times New Roman" font-style="italic">g</text><text transform="translate(87.14 57.75) scale(0.58)" font-size="5.36" fill="#1d1d1b" font-family="TimesNewRomanPS-ItalicMT, Times New Roman" font-style="italic">1</text><text transform="translate(85.95 98.13)" font-size="6.89" fill="#1d1d1b" font-family="TimesNewRomanPS-ItalicMT, Times New Roman" font-style="italic">p</text><text transform="translate(89.39 99.91) scale(0.58)" font-size="5.36" fill="#1d1d1b" font-family="TimesNewRomanPS-ItalicMT, Times New Roman" font-style="italic">0</text></g></g><g id="ShortestGeodesics"><g id="SurfaceFill"><path d="M100.51,30.61c56.07,0,91.2,32.49,91.2,65.63s-31.5,67.26-91.2,67.26S6.71,131.79,6.71,96.24,43.68,30.61,100.51,30.61Z" fill="#3f82c4" opacity="0.5"/></g><g id="Hidden-Surf-Isocurve"><polyline points="129.99 98.33 129.75 99.59 129.36 100.84 128.82 102.07 128.12 103.28 127.28 104.45 126.3 105.59 125.17 106.68 123.92 107.73 122.53 108.71 121.05 109.66 119.38 110.53 117.71 111.31 115.9 112.04 114.01 112.69 112.04 113.25 110 113.74 107.91 114.14 105.78 114.46 103.61 114.68 101.42 114.82 99.22 114.86 97.02 114.82 94.74 114.67 92.6 114.45 90.49 114.14 88.43 113.74 86.42 113.26 84.47 112.69 82.59 112.06 80.8 111.34 79.11 110.55 77.41 109.65 75.91 108.72 74.53 107.73 73.28 106.68 72.15 105.59 71.17 104.45 70.32 103.28 69.63 102.07 69.08 100.84 68.69 99.59 68.46 98.33" fill="none" stroke="#b2b2b2" stroke-linecap="round" stroke-linejoin="round" stroke-width="0.25" stroke-dasharray="3 3"/><path d="M126.58,96.1c-4.08,3.3-5.34,8.14-5.52,13.21-.17,4.87,1.14,9.8,2.81,14.32A50.43,50.43,0,0,0,131,136.5a42.15,42.15,0,0,0,10.81,10.29c4,2.51,9.05,4.49,13.79,3.26a11.92,11.92,0,0,0,1.74-.6" fill="none" stroke="#b2b2b2" stroke-linecap="round" stroke-linejoin="round" stroke-width="0.25" stroke-dasharray="3 3"/></g><g id="Hidden-G2"><polyline points="130.99 92.89 130.88 93.21 130.43 94.31 130.04 95.26 129.71 96.21 128.99 97.95 128.78 98.51 128.57 99.1 127.92 100.68 127.46 101.93 127.15 102.66 126.86 103.35 126.34 104.72 125.7 106.17 125.21 107.48 124.58 108.94 124.06 110.26 123.44 111.65 122.88 113.05 122.59 113.72 122.31 114.35 122.01 115.11 121.68 115.93 121.19 117.02 120.38 118.97 120.22 119.32 120.09 119.63 119.65 120.7 119.12 122 119.02 122.22 118.71 122.96 117.98 124.74 117.78 125.28 117.32 126.4 116.99 127.22 116.75 127.86 116.38 128.83 116.18 129.32 116.05 129.65 115.62 130.78 115.15 132.03 115.06 132.28 114.9 132.72 114.3 134.35 113.65 136.16 113.48 136.63 113.33 137.07 112.71 138.83 112.39 139.76 111.97 140.98 111.61 142.02 111.26 143.06 110.85 144.23 110.57 145.06 110.02 146.66 109.9 147.01 109.84 147.17 109.65 147.7 109.25 148.86 108.85 149.96 108.61 150.61 108.23 151.65 107.99 152.29 107.85 152.64 107.36 153.88 107.34 153.92 107.26 154.13 106.85 155.12 106.75 155.34 106.62 155.64 106.15 156.69 105.87 157.27 105.55 157.94 105.13 158.73 104.94 159.08 104.81 159.29 104.33 160.1 104.02 160.55 103.72 160.98 103.67 161.05 103.12 161.73 102.97 161.88 102.52 162.34 102.27 162.54 101.91 162.83 101.58 163.03 101.3 163.19 100.88 163.34 100.69 163.41 100.55 163.43 100.07 163.5 99.99 163.49" fill="none" stroke="#037534" stroke-linecap="round" stroke-linejoin="round" stroke-width="0.75" stroke-dasharray="3 3"/><polyline points="124.36 97.03 124.66 97.17 125.28 97.41 126.48 97.89 127.06 98.07 128.36 98.48 128.9 98.61 130.23 98.96 130.77 99.06 132.14 99.33 133.4 99.48 134.08 99.57 134.48 99.59 136.06 99.69 136.22 99.69 137.69 99.7 138.01 99.7 139.32 99.63 139.99 99.59 140.98 99.48 141.98 99.37 142.68 99.25 143.99 99.03 144.39 98.94 146 98.58 146.13 98.55 146.97 98.31 147.99 98.03 149.56 97.5 149.95 97.38 151.27 96.86 151.89 96.62 152.98 96.14 153.81 95.77 154.68 95.34 155.7 94.83 156.36 94.46 157.56 93.8 158.03 93.52 159.37 92.69 159.66 92.5 161.14 91.51 162.49 90.53 162.82 90.28 162.85 90.26 164.29 89.09 164.46 88.95 164.66 88.78 166.01 87.59 167.08 86.56 167.48 86.17 168.39 85.23 168.87 84.72 169.63 83.86 170.18 83.22 170.79 82.46 171.4 81.7 171.88 81.04 172.53 80.16 173.21 79.13 173.56 78.6 173.82 78.15 174.49 77.04 175.16 75.76 175.31 75.49 175.96 74.09 176.03 73.94 176.08 73.81 176.65 72.41 176.74 72.12 177.13 70.92 177.44 69.63 177.49 69.45 177.52 69.25 177.73 68.03 177.76 67.72 177.86 66.64 177.87 65.75 177.88 65.31 177.82 64.54 177.78 64.03 177.68 63.48 177.57 62.83 177.4 62.21 177.25 61.69 177.08 61.26 176.82 60.62 176.44 59.93 176.28 59.64 176.12 59.42 175.65 58.75 175 58.05" fill="none" stroke="#037534" stroke-linecap="round" stroke-linejoin="round" stroke-width="0.75" stroke-dasharray="3 3"/></g><g id="Visible-Surf-Isocurve"><polyline points="129.62 94.08 129.36 93.27 128.82 92.04 128.12 90.83 127.28 89.66 126.3 88.52 125.17 87.43 123.92 86.38 122.53 85.39 121.03 84.46 119.42 83.6 117.71 82.8 115.9 82.08 114.01 81.43 112.04 80.86 110 80.37 107.91 79.97 105.78 79.66 103.61 79.43 101.42 79.29 99.22 79.25 97.02 79.29 94.83 79.43 92.67 79.66 90.53 79.97 88.44 80.37 86.41 80.86 84.35 81.45 82.48 82.1 80.7 82.82 79.01 83.61 77.41 84.46 75.93 85.38 74.56 86.36 73.31 87.39 72.2 88.47 71.16 89.66 70.33 90.82 69.64 92.02 69.1 93.23 68.83 94.09" fill="none" stroke="#b2b2b2" stroke-linecap="round" stroke-linejoin="round" stroke-width="0.25"/><path d="M158.67,148.74a13,13,0,0,0,4.58-5.74,21.17,21.17,0,0,0,1.42-7.22,38.28,38.28,0,0,0-2.61-14.42A51.2,51.2,0,0,0,155,108.3a42.18,42.18,0,0,0-10.5-10.23c-4.06-2.64-9.12-4.81-14.05-3.67a18.31,18.31,0,0,0-1.78.55" fill="none" stroke="#b2b2b2" stroke-linecap="round" stroke-linejoin="round" stroke-width="0.25"/></g><g id="Visible-G1"><path d="M84.21,118.51l-1.29-2.82c-.43-.92-.85-1.8-1.27-2.66s-.83-1.69-1.24-2.49-.82-1.56-1.23-2.29-.81-1.44-1.21-2.11-.81-1.31-1.22-1.91-.81-1.18-1.21-1.73-.82-1.07-1.23-1.56-.82-1-1.24-1.41-.83-.88-1.25-1.29S71,97.43,70.54,97L69.25,95.9,68,94.78q-.64-.56-1.29-1.14c-.42-.38-.85-.78-1.26-1.18s-.82-.84-1.22-1.28-.78-.9-1.15-1.38-.73-1-1.06-1.5-.66-1.07-1-1.65-.57-1.17-.82-1.79-.48-1.26-.68-1.93-.39-1.36-.54-2.08-.29-1.45-.39-2.2-.2-1.54-.26-2.33-.11-1.6-.14-2.43,0-1.66,0-2.52,0-1.71,0-2.58.06-1.75.1-2.64.08-1.77.12-2.67.09-1.78.13-2.67.09-1.78.12-2.67.08-1.76.11-2.63,0-1.72.08-2.56,0-1.67,0-2.48,0-1.59,0-2.35,0-1.5,0-2.21v-2c0-.65,0-1.26,0-1.83" fill="none" stroke="#c91517" stroke-linecap="round" stroke-linejoin="round" stroke-width="0.75"/></g><g id="Visible-G2"><polyline points="82.6 58.02 82.55 57.97 81.42 56.84 81 56.42 80.2 55.65 79.33 54.83 78.93 54.47 77.64 53.29 77.59 53.25 75.97 51.83 75.03 51.06 74.27 50.43 73.67 49.97 72.54 49.1 71.11 48.08 70.85 47.9 70.79 47.86 69.44 46.95 69.07 46.71 67.99 46.06 67.32 45.66 66.38 45.14 65.57 44.7 65.02 44.43 63.8 43.84 63.5 43.71 62.04 43.09 61.48 42.89 60.3 42.46 58.95 42.06" fill="none" stroke="#037534" stroke-linecap="round" stroke-linejoin="round" stroke-width="0.75"/><polyline points="132.15 90.03 132.72 88.65 133.19 87.5 133.51 86.82 134.26 85.05 134.59 84.37 135.09 83.32 135.26 82.93 135.37 82.67 135.87 81.67 136.51 80.38 136.97 79.55 137.43 78.67 137.69 78.17 138.22 77.27 138.93 76.05 139.06 75.85 139.34 75.43 140.21 74.02 140.93 72.98 141.54 72.08 142.46 70.87 142.93 70.24 143.82 69.13 144.34 68.5 145.37 67.33 145.81 66.84 146.79 65.85 147.32 65.29 147.52 65.1 148.84 63.86 149.59 63.21 150.39 62.52 150.87 62.15 151.98 61.29 152.17 61.15 153.08 60.52 153.58 60.16 154.81 59.39 155.16 59.17 155.66 58.89 156.75 58.28 157.5 57.91 158.34 57.5 159.47 57.02 159.91 56.84 161.32 56.34 161.47 56.29 162.35 56.04 162.91 55.88 162.99 55.86 164.2 55.62 164.45 55.56 164.75 55.53 165.87 55.38 166.71 55.34 167.25 55.32 167.92 55.34 168.56 55.36 169.31 55.46 169.82 55.52 170.2 55.61 171.01 55.8 171.92 56.11 172.12 56.17 173.07 56.62 173.15 56.66 173.21 56.7 173.87 57.11 174.09 57.25 174.84 57.88 174.92 57.95 175 58.05" fill="none" stroke="#037534" stroke-linecap="round" stroke-linejoin="round" stroke-width="0.75"/><polyline points="92.83 154.28 93.4 155.65 93.89 156.73 93.99 156.97 94.12 157.23 94.59 158.17 94.98 158.9 95.18 159.26 95.53 159.83 95.78 160.24 96.09 160.67 96.39 161.1 96.76 161.54 97 161.83 97.43 162.26 97.6 162.43 97.75 162.55 98.22 162.91 98.31 162.96 98.83 163.25 99.22 163.38 99.45 163.45 99.99 163.49" fill="none" stroke="#037534" stroke-linecap="round" stroke-linejoin="round" stroke-width="0.75"/><polyline points="130.99 92.89 131.09 92.62 131.55 91.49 132.12 90.09" fill="none" stroke="#037534" stroke-linecap="round" stroke-linejoin="round" stroke-width="0.75"/><polyline points="124.36 97.03 123.6 96.67 123.06 96.43 122.86 96.34 121.79 95.78 121.07 95.4 120.56 95.09 119.48 94.43 119.33 94.35 119.2 94.26 117.58 93.2 116.1 92.1 115.96 92 115.88 91.95 114.85 91.15 114.16 90.61 113.79 90.29 113.19 89.77 112.47 89.19 111.7 88.5 110.78 87.68 110.56 87.47 109.68 86.66 109.08 86.12 108.15 85.18 107.4 84.49 106.74 83.82 105.85 82.92 105.78 82.85 105.72 82.8 105.34 82.42 104.03 81.09 103.86 80.9 103.62 80.65 102.9 79.92 102.34 79.35 101.94 78.92 101.43 78.36 100.97 77.89 100.61 77.52 99.22 76.02 98.98 75.77 98.29 75.01 97.31 73.96 97.17 73.81 96.97 73.58 96.21 72.76 95.66 72.16 95.24 71.69 94.63 71.01 94.02 70.35 92.84 69.05 92.38 68.54 92.13 68.25 90.77 66.74 89.38 65.22 89.14 64.95 88.19 63.91 87.53 63.19 86.26 61.83 85.9 61.44 85.59 61.11 84.28 59.73 83.78 59.22 82.63 58.04" fill="none" stroke="#037534" stroke-linecap="round" stroke-linejoin="round" stroke-width="0.75"/><polyline points="84.21 118.5 84.29 118.94 84.4 119.53 84.53 120.28 84.75 121.48 84.92 122.42 85.12 123.47 85.37 124.81 85.5 125.51 85.81 127.12 85.89 127.57 85.96 127.93 86.3 129.65 86.67 131.43 86.73 131.74 87.13 133.61 87.17 133.81 87.22 134.05 87.62 135.88 87.96 137.38 88.08 137.92 88.39 139.25 88.56 139.95 88.75 140.75 89.04 141.94 89.29 142.92 89.54 143.88 89.76 144.7 90.05 145.78 90.41 147.02 90.58 147.62 90.99 148.97 91.12 149.4 91.23 149.74 91.67 151.1 92.2 152.61 92.23 152.72 92.26 152.8 92.65 153.82 92.81 154.24" fill="none" stroke="#037534" stroke-linecap="round" stroke-linejoin="round" stroke-width="0.75"/></g><g id="Visible-Surf"><path d="M124.43,97A27.2,27.2,0,0,0,131,93" fill="none" stroke="#1d1d1b" stroke-linecap="round" stroke-linejoin="round"/><path d="M124.43,97c-5.72,2.6-14.19,4.83-25.21,4.83A65.2,65.2,0,0,1,74,97.06l1-.47c1.09-.48,10.13-4.33,24.19-4.33a67.59,67.59,0,0,1,24.23,4.34Z" fill="#fff" stroke="#1d1d1b" stroke-linecap="round" stroke-linejoin="round"/><path d="M67.33,92.76c.94,1.25,3.27,2.81,6.67,4.3" fill="none" stroke="#1d1d1b" stroke-linecap="round" stroke-linejoin="round"/><path d="M100.52,30.6c56.07,0,91.2,32.49,91.2,65.62s-31.5,67.27-91.2,67.27S6.72,131.78,6.72,96.22,43.69,30.6,100.52,30.6Z" fill="none" stroke="#1d1d1b" stroke-miterlimit="10"/></g><g id="Points"><line x1="58.94" y1="21.47" x2="58.94" y2="35.93" fill="none" stroke="#1d1d1b" stroke-miterlimit="10" stroke-width="0.75"/><path d="M58.94,34.59l2.71-1.65.06.1L60,37.44l-1,4.61c-.33-1.54-.67-3.07-1-4.61L56.18,33l0-.1Z" fill="#1d1d1b"/><line x1="84.21" y1="97.48" x2="84.21" y2="111.94" fill="none" stroke="#1d1d1b" stroke-miterlimit="10" stroke-width="0.75"/><path d="M84.21,110.59l2.7-1.64L87,109l-1.75,4.41c-.33,1.53-.67,3.07-1,4.61-.34-1.54-.67-3.08-1-4.61L81.45,109l0-.09Z" fill="#1d1d1b"/></g></g></svg>