<svg xmlns="http://www.w3.org/2000/svg" viewBox="0 0 198.43 198.43"><defs><style>.Surface-underlying{fill:#e66526;opacity:0.25;}.Surface-visible{fill:#3f82c4;opacity:0.5;}.Dashed-gray-line,.Solid-white-line,.cls-1,.cls-13,.cls-2,.cls-4,.cls-6{fill:none;}.cls-1,.cls-13,.cls-2{stroke:#1d1d1b;}.Dashed-gray-line,.Solid-white-line,.cls-1,.cls-2,.cls-4,.cls-6{stroke-linecap:round;stroke-linejoin:round;}.Dashed-gray-line{stroke:#b2b2b2;stroke-dasharray:3 3;}.Dashed-gray-line,.cls-13{stroke-width:0.25px;}.Solid-white-line{stroke:#fff;stroke-width:0.75px;}.cls-2,.cls-4,.cls-6{stroke-width:0.5px;}.cls-10,.cls-11,.cls-12,.cls-3,.cls-8,.cls-9{fill:#1d1d1b;}.cls-4{stroke:#c91517;}.cls-5{fill:#c91517;}.cls-6{stroke:#2a4d9c;}.cls-7{fill:#2a4d9c;}.cls-11,.cls-8,.cls-9{font-size:6.9px;}.cls-10,.cls-12,.cls-8{font-family:TimesNewRomanPS-ItalicMT, Times New Roman;font-style:italic;}.cls-10,.cls-9{opacity:0.93;}.cls-11,.cls-9{font-family:TimesNewRomanPS-BoldMT, Times New Roman;font-weight:700;}.cls-10,.cls-12{font-size:5.37px;}.cls-13{stroke-miterlimit:10;}</style></defs><title>SpherePT</title><g id="SpherePT"><g id="SurfaceFills"><path class="Surface-underlying" d="M178.06,150.72c0-.06.07-.13.11-.2a87.92,87.92,0,1,0-156.95,0l.1.2a28.49,28.49,0,0,1,.75-27.95,43.77,43.77,0,0,1,8.66-10.59,64.77,64.77,0,0,1,12.62-8.87c16.75-9.22,37.64-13,56.34-13s39.59,3.8,56.35,13a65.08,65.08,0,0,1,12.62,8.87,43.77,43.77,0,0,1,8.66,10.59A28.47,28.47,0,0,1,178.06,150.72Z"/><path class="Surface-visible" d="M41.94,170.79c10.66,6.15,23.12,10,35.13,12a139.54,139.54,0,0,0,37.19,1.09,117.42,117.42,0,0,0,36-9.34c10.66-4.85,22.19-12.65,27.84-23.78,0-.06.07-.13.11-.2a87.92,87.92,0,1,0-156.95,0l.1.2C25.75,159.43,33.82,166.1,41.94,170.79Z"/></g><g id="Surface"><path class="cls-1" d="M41.94,170.79c10.66,6.15,23.12,10,35.13,12a139.54,139.54,0,0,0,37.19,1.09,117.42,117.42,0,0,0,36-9.34c10.66-4.85,22.19-12.65,27.84-23.78"/><path class="cls-1" d="M21.32,150.72c4.43,8.71,12.5,15.38,20.62,20.07"/><path class="Dashed-gray-line" d="M178.06,150.72a28.47,28.47,0,0,0-.74-27.95,43.77,43.77,0,0,0-8.66-10.59A65.08,65.08,0,0,0,156,103.31c-16.76-9.22-37.64-13-56.35-13s-39.59,3.8-56.34,13a64.77,64.77,0,0,0-12.62,8.87,43.77,43.77,0,0,0-8.66,10.59,28.49,28.49,0,0,0-.75,28"/><path class="cls-1" d="M21.32,150.72l-.1-.2a87.92,87.92,0,1,1,157,0c0,.07-.07.14-.11.2"/></g><g id="Curve"><path class="Solid-white-line" d="M99.69,39.1A100.75,100.75,0,0,0,82,52.32,133.91,133.91,0,0,0,64.54,72,149.09,149.09,0,0,0,42.73,115a113.8,113.8,0,0,0-4.94,25.08c-.14,1.84-.23,3.69-.25,5.54,0,.23,0,.45,0,.67v.42s0,.05,0,.06l.14.09,1.17.65c.8.45,1.61.88,2.42,1.29a98,98,0,0,0,10.87,4.76c15,5.58,31.6,8.06,47.53,8.06s32.52-2.48,47.55-8.06a99.78,99.78,0,0,0,10.86-4.76c.82-.42,1.62-.85,2.42-1.29l1.17-.66.14-.08s0,0,0-.07v-.41c0-.23,0-.45,0-.67,0-1.86-.11-3.7-.25-5.55A113.93,113.93,0,0,0,156.65,115a148.79,148.79,0,0,0-21.81-43,133.41,133.41,0,0,0-17.42-19.66A100.89,100.89,0,0,0,99.69,39.1Z"/></g><g id="VectorLines"><line class="cls-2" x1="37.53" y1="146.78" x2="37.53" y2="160.59"/><polygon class="cls-3" points="35.48 158.93 35.85 158.59 37.53 160.4 39.21 158.59 39.57 158.93 37.53 161.13 35.48 158.93"/><line class="cls-2" x1="59.78" y1="156.11" x2="59.78" y2="169.92"/><polygon class="cls-3" points="57.74 168.27 58.1 167.93 59.78 169.73 61.46 167.93 61.83 168.27 59.78 170.47 57.74 168.27"/><line class="cls-2" x1="85.94" y1="161.02" x2="85.94" y2="174.83"/><polygon class="cls-3" points="83.9 173.18 84.26 172.83 85.94 174.64 87.62 172.83 87.99 173.18 85.94 175.37 83.9 173.18"/><line class="cls-2" x1="113.45" y1="161.02" x2="113.45" y2="174.83"/><polygon class="cls-3" points="111.4 173.18 111.77 172.83 113.45 174.64 115.13 172.83 115.49 173.18 113.45 175.37 111.4 173.18"/><line class="cls-2" x1="139.61" y1="156.11" x2="139.61" y2="169.92"/><polygon class="cls-3" points="137.56 168.27 137.93 167.93 139.61 169.73 141.28 167.93 141.65 168.27 139.61 170.47 137.56 168.27"/><line class="cls-2" x1="49.4" y1="97.73" x2="42.32" y2="113.07"/><polygon class="cls-3" points="41.16 110.71 41.63 110.55 42.4 112.89 44.68 111.96 44.87 112.42 42.09 113.56 41.16 110.71"/><line class="cls-2" x1="158.82" y1="122.84" x2="162.53" y2="138.18"/><polygon class="cls-3" points="160.15 137.05 160.43 136.63 162.49 138 163.69 135.84 164.13 136.09 162.66 138.71 160.15 137.05"/><line class="cls-2" x1="149.99" y1="97.73" x2="157.07" y2="113.07"/><polygon class="cls-3" points="154.52 112.42 154.71 111.96 156.99 112.9 157.75 110.55 158.23 110.71 157.29 113.56 154.52 112.42"/><line class="cls-2" x1="136.23" y1="73.91" x2="145.98" y2="87.71"/><polygon class="cls-3" points="143.35 87.54 143.46 87.05 145.87 87.55 146.2 85.11 146.69 85.18 146.29 88.15 143.35 87.54"/><line class="cls-2" x1="118.9" y1="53.71" x2="130.34" y2="64.6"/><polygon class="cls-3" points="127.73 64.93 127.73 64.43 130.2 64.46 130.05 62 130.55 61.97 130.73 64.97 127.73 64.93"/><line class="cls-2" x1="40.57" y1="122.84" x2="36.86" y2="138.18"/><polygon class="cls-3" points="35.26 136.09 35.7 135.84 36.9 138 38.96 136.63 39.23 137.05 36.73 138.71 35.26 136.09"/><line class="cls-2" x1="63.15" y1="73.91" x2="53.41" y2="87.71"/><polygon class="cls-3" points="52.69 85.18 53.19 85.11 53.52 87.55 55.93 87.05 56.03 87.54 53.09 88.15 52.69 85.18"/><line class="cls-2" x1="80.48" y1="53.71" x2="69.05" y2="64.6"/><polygon class="cls-3" points="68.84 61.97 69.34 62 69.19 64.46 71.66 64.43 71.66 64.93 68.66 64.97 68.84 61.97"/><line class="cls-2" x1="161.86" y1="146.78" x2="161.86" y2="160.59"/><polygon class="cls-3" points="159.81 158.93 160.18 158.59 161.86 160.4 163.54 158.59 163.9 158.93 161.86 161.13 159.81 158.93"/></g><g id="InitialV"><line class="cls-4" x1="99.69" y1="39.1" x2="87.73" y2="46.01"/><polygon class="cls-5" points="88.14 43.41 88.62 43.56 87.9 45.91 90.3 46.46 90.19 46.95 87.26 46.28 88.14 43.41"/></g><g id="FinalV"><line class="cls-6" x1="99.69" y1="39.1" x2="111.66" y2="46.01"/><polygon class="cls-7" points="109.2 46.95 109.09 46.46 111.49 45.91 110.77 43.56 111.25 43.41 112.13 46.28 109.2 46.95"/></g><g id="Annotation"><text class="cls-8" transform="translate(96.25 192.33)">S</text><text class="cls-9" transform="translate(57.99 13.03)">v</text><text class="cls-10" transform="translate(61.44 14.81) scale(0.58)">0</text><text class="cls-11" transform="translate(130.73 10.75)">v</text><text class="cls-12" transform="translate(134.18 12.54) scale(0.58)">F</text><line class="cls-13" x1="69.64" y1="17.58" x2="91.96" y2="37.74"/><path class="cls-3" d="M91.63,37.44l.2-1h0l.7,1.41c.31.43.61.86.92,1.28l-1.37-.78-1.48-.55v0Z"/><line class="cls-13" x1="130.73" y1="17.58" x2="107.46" y2="37.47"/><path class="cls-3" d="M107.8,37.18l1,.33v0l-1.49.51-1.39.74,1-1.25.74-1.4h0Z"/></g></g></svg>