<svg xmlns="http://www.w3.org/2000/svg" viewBox="0 0 481.89 481.89"><defs><style>.cls-1{fill:#e66526;opacity:0.25;}.cls-2{fill:#3f82c4;opacity:0.5;}.cls-3,.cls-6{font-size:12px;}.cls-3{font-family:TimesNewRomanPS-ItalicMT, Times New Roman;font-style:italic;}.cls-10,.cls-11,.cls-13,.cls-4,.cls-7,.cls-8,.cls-9{fill:none;}.cls-10,.cls-4,.cls-7{stroke:#1d1d1b;}.cls-4{stroke-miterlimit:10;}.cls-4,.cls-8{stroke-width:0.5px;}.cls-5{fill:#1d1d1b;}.cls-6{font-family:TimesNewRomanPS-BoldMT, Times New Roman;font-weight:700;}.cls-10,.cls-11,.cls-13,.cls-7,.cls-8,.cls-9{stroke-linecap:round;stroke-linejoin:round;}.cls-8,.cls-9{stroke:#fff;}.cls-8{opacity:0.65;}.cls-10,.cls-11,.cls-13,.cls-9{stroke-width:0.75px;}.cls-11{stroke:#e41713;}.cls-12{fill:#e41713;}.cls-13{stroke:#0460aa;}.cls-14{fill:#0460aa;}</style></defs><title>SpherePT</title><g id="SurfaceFills"><path class="cls-1" d="M385.85,325l.18-.35a152.21,152.21,0,1,0-271.73,0l.18.35c-8.13-16-7.51-32.86,1.29-48.38a75.2,75.2,0,0,1,15-18.35,112.4,112.4,0,0,1,21.84-15.36c29-16,65.16-22.54,97.55-22.54s68.55,6.58,97.56,22.54a112.83,112.83,0,0,1,21.84,15.36,75.57,75.57,0,0,1,15,18.34C393.36,292.16,394,309,385.85,325Z"/><path class="cls-2" d="M150.17,359.76c18.46,10.66,40,17.26,60.83,20.72a242.29,242.29,0,0,0,64.38,1.89c21.07-2.21,42.83-7.36,62.25-16.19,18.46-8.39,38.43-21.89,48.22-41.16l.18-.35a152.21,152.21,0,1,0-271.73,0l.18.35C122.15,340.1,136.11,351.64,150.17,359.76Z"/><text class="cls-3" transform="translate(96.03 128.13)">S</text><line class="cls-4" x1="106.03" y1="131.23" x2="129.95" y2="153.46"/><path class="cls-5" d="M129.29,152.85l.42-2.07.08,0,1.35,2.85,1.79,2.58-2.71-1.59-2.94-1.15,0-.06Z"/><text class="cls-6" transform="translate(184.12 91.41)">V</text><text class="cls-3" transform="translate(192.79 93.41) scale(0.58)">0</text><text class="cls-6" transform="translate(303.9 91.41)">V</text><text class="cls-3" transform="translate(312.56 93.41) scale(0.58)">F</text><line class="cls-4" x1="198.12" y1="94.51" x2="236.38" y2="129.04"/><path class="cls-5" d="M235.71,128.44l.39-2.07h.08l1.4,2.83c.6.86,1.21,1.71,1.82,2.56l-2.73-1.55-3-1.11,0-.06Z"/><line class="cls-4" x1="303.9" y1="94.51" x2="264.03" y2="128.59"/><path class="cls-5" d="M264.71,128l2,.66,0,.07-3,1-2.77,1.49,1.89-2.51,1.48-2.8.06,0Z"/></g><g id="Surface"><path class="cls-7" d="M150.17,359.76c18.46,10.66,40,17.26,60.83,20.72a242.29,242.29,0,0,0,64.38,1.89c21.07-2.21,42.83-7.36,62.25-16.19,18.46-8.39,38.43-21.89,48.22-41.16"/><path class="cls-7" d="M114.48,325c7.67,15.08,21.63,26.62,35.69,34.74"/><path class="cls-8" d="M385.85,325c8.13-16,7.51-32.86-1.29-48.39a75.57,75.57,0,0,0-15-18.34,112.83,112.83,0,0,0-21.84-15.36c-29-16-65.16-22.54-97.56-22.54s-68.54,6.58-97.55,22.54a112.4,112.4,0,0,0-21.84,15.36,75.2,75.2,0,0,0-15,18.35C107,292.16,106.35,309,114.48,325"/><path class="cls-7" d="M114.48,325l-.18-.35a152.21,152.21,0,1,1,271.73,0l-.18.35"/></g><g id="Curve"><path class="cls-9" d="M250.16,131.77a174.53,174.53,0,0,0-30.68,22.88,230.59,230.59,0,0,0-30.17,34,257.75,257.75,0,0,0-37.76,74.53A197.42,197.42,0,0,0,143,306.62c-.24,3.2-.39,6.4-.43,9.61,0,.38,0,.77,0,1.15v.72s0,.09.05.12l.25.14c.67.39,1.34.76,2,1.14q2.07,1.15,4.19,2.23A171.71,171.71,0,0,0,167.86,330c26,9.66,54.72,14,82.29,14s56.3-4.3,82.33-14a172.55,172.55,0,0,0,18.81-8.24c1.41-.72,2.8-1.47,4.19-2.24.68-.37,1.35-.75,2-1.13l.25-.15c.05,0,0-.07,0-.11v-.72c0-.39,0-.78,0-1.16,0-3.21-.19-6.41-.43-9.61a198,198,0,0,0-8.57-43.41A258,258,0,0,0,311,188.67a231.61,231.61,0,0,0-30.16-34A174.55,174.55,0,0,0,250.16,131.77Z"/></g><g id="VectorLines"><line class="cls-10" x1="142.54" y1="318.19" x2="142.54" y2="336.93"/><path class="cls-5" d="M142.54,335.58l2.7-1.64.06.09-1.75,4.41c-.34,1.53-.68,3.07-1,4.6l-1-4.6L139.77,334l0-.09Z"/><line class="cls-10" x1="181.06" y1="334.35" x2="181.06" y2="353.09"/><path class="cls-5" d="M181.06,351.74l2.71-1.64.06.09-1.75,4.41-1,4.6c-.33-1.53-.67-3.07-1-4.6l-1.75-4.41,0-.09Z"/><line class="cls-10" x1="226.35" y1="342.84" x2="226.35" y2="361.59"/><path class="cls-5" d="M226.35,360.24l2.71-1.64.06.09-1.75,4.41-1,4.6c-.33-1.53-.67-3.07-1-4.6l-1.75-4.41,0-.09Z"/><line class="cls-10" x1="273.98" y1="342.84" x2="273.98" y2="361.59"/><path class="cls-5" d="M274,360.24l2.7-1.64.06.09L275,363.1c-.34,1.53-.68,3.07-1,4.6l-1-4.6-1.75-4.41.05-.09Z"/><line class="cls-10" x1="319.27" y1="334.35" x2="319.27" y2="353.09"/><path class="cls-5" d="M319.27,351.74l2.7-1.64.06.09-1.75,4.41c-.34,1.53-.68,3.07-1,4.6l-1-4.6-1.75-4.41.05-.09Z"/><line class="cls-10" x1="163.09" y1="233.27" x2="153" y2="255.13"/><path class="cls-5" d="M153.57,253.91l3.14-.36,0,.11-3.44,3.27-2.85,3.76c.34-1.54.67-3.08,1-4.61l.26-4.74.08-.06Z"/><line class="cls-10" x1="352.52" y1="276.74" x2="357.74" y2="298.28"/><path class="cls-5" d="M357.42,297l2.24-2.23.08.07-.66,4.7c0,1.57.06,3.14.1,4.71L357.11,300l-2.74-3.87,0-.1Z"/><line class="cls-10" x1="337.24" y1="233.27" x2="347.33" y2="255.13"/><path class="cls-5" d="M346.76,253.91l1.77-2.62.09.05.26,4.74c.34,1.53.67,3.07,1,4.61L347,256.93l-3.44-3.27v-.1Z"/><line class="cls-10" x1="313.43" y1="192.03" x2="327.31" y2="211.7"/><path class="cls-5" d="M326.54,210.6l1.26-2.9.1,0,1.11,4.61,1.83,4.34-3.48-3.17-4-2.59,0-.11Z"/><line class="cls-10" x1="283.42" y1="157.06" x2="299.47" y2="172.34"/><path class="cls-5" d="M298.49,171.41l.68-3.09.11,0,2,4.31,2.64,3.91-4-2.45-4.4-1.77,0-.1Z"/><line class="cls-10" x1="147.8" y1="276.74" x2="142.59" y2="298.28"/><path class="cls-5" d="M142.91,297l3-1,0,.1L143.22,300l-2.07,4.24c0-1.57.07-3.14.1-4.71l-.66-4.7.06-.08Z"/><line class="cls-10" x1="186.9" y1="192.03" x2="173.01" y2="211.7"/><path class="cls-5" d="M173.79,210.6l3.16.22v.11l-4,2.59-3.48,3.17,1.83-4.34,1.11-4.61.09-.05Z"/><line class="cls-10" x1="216.91" y1="157.06" x2="200.86" y2="172.34"/><path class="cls-5" d="M201.84,171.41l3,.82,0,.11-4.39,1.77-4,2.45,2.64-3.91,2-4.31.1,0Z"/><line class="cls-10" x1="357.79" y1="318.19" x2="357.79" y2="336.93"/><path class="cls-5" d="M357.79,335.58l2.7-1.64.07.09-1.75,4.41-1,4.6c-.34-1.53-.67-3.07-1-4.6L355,334l.05-.09Z"/></g><g id="InitialV"><line class="cls-11" x1="250.16" y1="131.77" x2="233.93" y2="141.14"/><path class="cls-12" d="M235.1,140.47l2.77,1.52,0,.1-4.7.68-4.49,1.43,3.48-3.18,2.94-3.72h.1Z"/></g><g id="FinalV"><line class="cls-13" x1="250.16" y1="131.77" x2="266.4" y2="141.14"/><path class="cls-14" d="M265.23,140.47l-.07-3.16h.11l2.94,3.72,3.48,3.18-4.49-1.43-4.7-.68-.05-.09Z"/></g></svg>