<svg xmlns="http://www.w3.org/2000/svg" xmlns:xlink="http://www.w3.org/1999/xlink" viewBox="0 0 759.29 202.48"><defs><style>.cls-1{fill:none;}.cls-2{clip-path:url(#clip-path);}.cls-3{font-size:25px;font-family:FuturaLT-Book, FuturaLT Book;}.cls-3,.cls-4{fill:#1d1d1b;}</style><clipPath id="clip-path"><rect class="cls-1" width="759.29" height="202.48"/></clipPath></defs><title>UPC-logo</title><g id="_Layer_" data-name="&lt;Layer&gt;"><g class="cls-2"><text class="cls-3" transform="translate(174.34 142.46)">School of Professional &amp; Executive Development</text><g class="cls-2"><path class="cls-4" d="M86.74,123.57H84.3v5.09h2.51c1.63,0,2.29-1.28,2.26-2.63s-.57-2.46-2.33-2.46M85.19,28.48A65.75,65.75,0,1,0,151,94.22,65.74,65.74,0,0,0,85.19,28.48M85.46,47a9.39,9.39,0,1,1-9.38,9.39A9.39,9.39,0,0,1,85.46,47m0,22.24a9.39,9.39,0,1,1-9.38,9.39,9.38,9.38,0,0,1,9.38-9.39M62.65,47a9.39,9.39,0,1,1-9.38,9.39A9.4,9.4,0,0,1,62.65,47m0,22.24a9.39,9.39,0,1,1-9.38,9.39,9.39,9.39,0,0,1,9.38-9.39m0,22.83a9.39,9.39,0,1,1-9.38,9.39,9.39,9.39,0,0,1,9.38-9.39M73.71,132c0,2.3-.07,5.15-3.1,7.28a10.92,10.92,0,0,1-6.44,1.7,10.9,10.9,0,0,1-6.43-1.7c-3-2.13-3.12-5-3.12-7.28v-13.2H61V132a3.48,3.48,0,0,0,1.1,3,3,3,0,0,0,2.13.75,3,3,0,0,0,2.11-.75,3.57,3.57,0,0,0,1.11-3V118.83h6.31ZM85.46,92.11a9.39,9.39,0,1,1-9.38,9.39,9.38,9.38,0,0,1,9.38-9.39m6.69,40.18c-1.2.86-2.58,1.18-6.09,1.18l-1.83,0v7.11h-5.5V118.83h9.09c4.43,0,7.17,2.67,7.17,7.48a7,7,0,0,1-2.84,6m22.67-6.89c-2.15-1.81-3-1.67-4.69-1.67-3.29,0-5.58,2.49-5.58,6.06s2.32,6.06,5.61,6.06c1.78,0,2.67-.24,4.66-1.72v5.62a10.3,10.3,0,0,1-5.25,1.31c-6.55,0-11.17-4.66-11.17-11.27s4.72-11.41,11.11-11.41a10.66,10.66,0,0,1,5.31,1.33Zm-7.08-14.52a9.39,9.39,0,1,1,9.39-9.38,9.38,9.38,0,0,1-9.39,9.38m0-22.83a9.39,9.39,0,1,1,9.39-9.38,9.39,9.39,0,0,1-9.39,9.38m0-22.24a9.39,9.39,0,1,1,9.39-9.38,9.39,9.39,0,0,1-9.39,9.38"/><path class="cls-4" d="M186.64,58.56c0,2.6-1,3.62-3.45,3.62-3,0-3.43-1.83-3.43-3.62V47.93h-3.87V58.56c0,4.51,2.53,6.9,7.3,6.9s7.32-2.45,7.32-6.9V47.93h-3.87Z"/><polygon class="cls-4" points="206.05 59.23 199.04 47.95 199.02 47.93 195.2 47.93 195.2 65.05 198.84 65.05 198.84 53.77 205.82 65.02 205.85 65.05 209.69 65.05 209.69 47.93 206.05 47.93 206.05 59.23"/><rect class="cls-4" x="215.66" y="47.93" width="3.87" height="17.13"/><polygon class="cls-4" points="229.2 65.05 233.51 65.05 239.16 48.02 239.2 47.93 235.2 47.93 231.39 59.79 227.63 47.93 223.63 47.93 229.18 65.01 229.2 65.05"/><polygon class="cls-4" points="256.13 61.77 246.96 61.77 246.96 57.74 255.19 57.74 255.19 54.71 246.96 54.71 246.96 51.21 255.93 51.21 255.93 47.93 243.09 47.93 243.09 65.05 256.13 65.05 256.13 61.77"/><path class="cls-4" d="M274.84,61.54a5.28,5.28,0,0,0,0-.59c-.15-2.24-.94-3.56-2.39-4A4.23,4.23,0,0,0,275,52.68a4.74,4.74,0,0,0-5-4.75h-9.23V65.05h3.87V58.41h3.67c1.77,0,2.49.66,2.77,2.52.05.44.09.91.13,1.37a9.46,9.46,0,0,0,.46,2.71l0,0h3.91l-.07-.1a7.51,7.51,0,0,1-.68-3.41M264.63,51h4c1.68,0,2.5.75,2.5,2.29s-.8,2.36-2.5,2.36h-4Z"/><path class="cls-4" d="M288.06,55l-.52-.13c-3.94-1-4.65-1.19-4.65-2.41,0-1.37,1.35-1.86,2.51-1.86,2.14,0,3.18.8,3.28,2.51v.06h3.75v-.06c0-3.47-2.57-5.55-6.88-5.55-3.18,0-6.42,1.79-6.42,5.21s2.65,4.24,5.12,4.9l1.1.28c2.09.5,3.9,1,3.9,2.46,0,1.9-2.49,2.05-3.24,2.05-2.32,0-3.7-1.15-3.7-3.07v-.07h-3.75v.07a5.46,5.46,0,0,0,1.54,4.06,8,8,0,0,0,5.76,2c4.4,0,7.13-2.12,7.13-5.52,0-3.76-3.59-4.65-4.94-5"/><rect class="cls-4" x="297.69" y="47.93" width="3.87" height="17.13"/><polygon class="cls-4" points="310.14 65.05 314.01 65.05 314.01 51.21 319.11 51.21 319.11 47.93 305.05 47.93 305.05 51.21 310.14 51.21 310.14 65.05"/><path class="cls-4" d="M335.8,65.05,329.42,48l0,0h-3.92L319,65l0,.09h3.92l1.34-3.78h6.25l1.29,3.78Zm-6.32-6.7h-4.22l2.14-6Z"/><polygon class="cls-4" points="349.92 47.93 335.86 47.93 335.86 51.21 340.95 51.21 340.95 65.05 344.82 65.05 344.82 51.21 349.92 51.21 349.92 47.93"/><path class="cls-4" d="M366,59h3.86c4.38,0,5.95-2.85,5.95-5.52s-1.57-5.51-5.95-5.51h-7.73V65.05H366Zm0-8h2.84c1.59,0,3.21.3,3.21,2.48s-1.62,2.48-3.21,2.48H366Z"/><path class="cls-4" d="M394.52,56.56c0-5.4-3.39-9-8.42-9s-8.42,3.64-8.42,9c0,5.24,3.46,8.9,8.42,8.9s8.42-3.66,8.42-8.9m-8.42,5.62c-3.35,0-4.55-2.9-4.55-5.62,0-1.35.33-5.76,4.55-5.76s4.55,4.41,4.55,5.76c0,2.72-1.2,5.62-4.55,5.62"/><polygon class="cls-4" points="401.77 47.93 397.9 47.93 397.9 65.05 410.05 65.05 410.05 61.77 401.77 61.77 401.77 47.93"/><rect class="cls-4" x="413.4" y="47.93" width="3.87" height="17.13"/><polygon class="cls-4" points="420.97 51.21 426.06 51.21 426.06 65.05 429.93 65.05 429.93 51.21 435.03 51.21 435.03 47.93 420.97 47.93 420.97 51.21"/><polygon class="cls-4" points="442.34 57.74 450.57 57.74 450.57 54.71 442.34 54.71 442.34 51.21 451.31 51.21 451.31 47.93 438.47 47.93 438.47 65.05 451.5 65.05 451.5 61.77 442.34 61.77 442.34 57.74"/><polygon class="cls-4" points="446.54 46.54 444.17 43.02 440.23 43.02 444.02 46.52 446.54 46.54"/><path class="cls-4" d="M466.52,58.44c-.31,2.37-1.69,3.74-3.79,3.74-3.36,0-4.55-2.9-4.55-5.62,0-1.35.33-5.76,4.55-5.76a3.57,3.57,0,0,1,3.64,2.92v.05h3.75V53.7c-.43-3.75-3.34-6.18-7.4-6.18-5,0-8.42,3.64-8.42,9,0,5.24,3.46,8.9,8.42,8.9a7.26,7.26,0,0,0,7.54-7v-.08h-3.75Z"/><polygon class="cls-4" points="484.47 59.23 477.45 47.95 477.44 47.93 473.62 47.93 473.62 65.05 477.25 65.05 477.25 53.78 484.25 65.02 484.26 65.05 488.1 65.05 488.1 47.93 484.47 47.93 484.47 59.23"/><rect class="cls-4" x="493.6" y="47.93" width="3.87" height="17.13"/><path class="cls-4" d="M513.71,58.44c-.3,2.37-1.68,3.74-3.79,3.74-3.35,0-4.54-2.9-4.54-5.62,0-1.35.33-5.76,4.54-5.76a3.58,3.58,0,0,1,3.65,2.92v.05h3.75V53.7c-.43-3.75-3.33-6.18-7.4-6.18-5,0-8.41,3.64-8.41,9,0,5.24,3.46,8.9,8.41,8.9a7.27,7.27,0,0,0,7.55-7v-.08h-3.75Z"/><path class="cls-4" d="M529.21,47.93h-3.92l-6.47,17,0,.09h3.93l1.33-3.78h6.26l1.28,3.78h4L529.23,48Zm.07,10.42h-4.21l2.14-6Z"/><path class="cls-4" d="M553.34,47.93h-7.4V65.05h7.4c4.87,0,7.77-3.24,7.77-8.66s-2.9-8.46-7.77-8.46m-3.53,3.28h2.6c3.34,0,4.83,1.71,4.83,5.54,0,4.54-2.91,5-4.16,5h-3.27Z"/><polygon class="cls-4" points="568.38 57.74 576.62 57.74 576.62 54.71 568.38 54.71 568.38 51.21 577.35 51.21 577.35 47.93 564.51 47.93 564.51 65.05 577.54 65.05 577.54 61.77 568.38 61.77 568.38 57.74"/><path class="cls-4" d="M599.84,58.44c-.3,2.37-1.68,3.74-3.79,3.74-3.35,0-4.54-2.9-4.54-5.62,0-1.35.33-5.76,4.54-5.76a3.58,3.58,0,0,1,3.65,2.92v.05h3.75V53.7c-.43-3.75-3.33-6.18-7.4-6.18-5,0-8.41,3.64-8.41,9,0,5.24,3.46,8.9,8.41,8.9a7.27,7.27,0,0,0,7.55-7v-.08h-3.75Z"/><path class="cls-4" d="M615.11,47.93h-3.93l-6.47,17,0,.09h3.93l1.33-3.78h6.26l1.28,3.78h4L615.12,48Zm.07,10.42H611l2.14-6Z"/><polygon class="cls-4" points="635.62 47.93 621.57 47.93 621.57 51.21 626.66 51.21 626.66 65.05 630.53 65.05 630.53 51.21 635.62 51.21 635.62 47.93"/><path class="cls-4" d="M645.73,47.93h-3.92l-6.47,17,0,.09h3.93l1.34-3.78h6.25l1.29,3.78h4L645.74,48Zm.07,10.42h-4.21l2.14-6Z"/><polygon class="cls-4" points="658.68 47.93 654.81 47.93 654.81 65.05 666.97 65.05 666.97 61.77 658.68 61.77 658.68 47.93"/><path class="cls-4" d="M679.4,58.56c0,2.6-1,3.62-3.45,3.62-3,0-3.43-1.83-3.43-3.62V47.93h-3.88V58.56c0,4.51,2.53,6.9,7.31,6.9s7.32-2.45,7.32-6.9V47.93H679.4Z"/><polygon class="cls-4" points="699.19 59.23 692.17 47.95 692.15 47.93 688.34 47.93 688.34 65.05 691.98 65.05 691.98 53.78 698.96 65.02 698.98 65.05 702.82 65.05 702.82 47.93 699.19 47.93 699.19 59.23"/><polygon class="cls-4" points="721.83 47.93 717.5 47.93 713.6 54.57 709.66 47.93 705.29 47.93 711.6 58.37 711.6 65.05 715.47 65.05 715.46 58.5 721.83 47.93"/><path class="cls-4" d="M731.33,48l0,0h-3.92l-6.47,17,0,.09h3.93l1.32-3.78h6.26l1.29,3.78h4Zm0,10.38h-4.21l2.14-6Z"/><path class="cls-4" d="M186.55,84.93a3.93,3.93,0,0,0,1.76-1.44,4.26,4.26,0,0,0,.67-2.38,3.9,3.9,0,0,0-.6-2.21A4.54,4.54,0,0,0,187,77.5a3,3,0,0,0-.94-.37,11.49,11.49,0,0,0-1.16-.17c-.42,0-.84-.07-1.26-.08h-7.41V94h8.28a5.76,5.76,0,0,0,2.26-.42,5.22,5.22,0,0,0,1.63-1.11,4.9,4.9,0,0,0,1-1.58,5.29,5.29,0,0,0,.33-1.84,4.37,4.37,0,0,0-.84-2.71,4,4,0,0,0-2.3-1.42m-8,1.29h5.1a8.73,8.73,0,0,1,1.37.12,3.52,3.52,0,0,1,1.16.46,2.39,2.39,0,0,1,.8.84,2.7,2.7,0,0,1,.29,1.35,2.93,2.93,0,0,1-.81,2.19,3.22,3.22,0,0,1-2.31.79h-5.6Zm7.19-2.7a4.43,4.43,0,0,1-2.73.66h-4.46V78.91H183a12.52,12.52,0,0,1,1.39.08,3.14,3.14,0,0,1,1.13.37,1.88,1.88,0,0,1,.75.78,2.88,2.88,0,0,1,.28,1.39,2.35,2.35,0,0,1-.82,2"/><path class="cls-4" d="M198.1,76.87,191.44,94h2.45l1.9-5.12h7.1L204.73,94l0,0h2.65l-6.71-17.14Zm4,10h-5.57l2.81-7.73Z"/><path class="cls-4" d="M223.83,92.93a7.4,7.4,0,0,1-.28-1.17c-.06-.4-.09-.83-.12-1.25s0-.85-.07-1.27a9.69,9.69,0,0,0-.2-1.2,4,4,0,0,0-.41-1.05,2.69,2.69,0,0,0-.76-.82,3,3,0,0,0-1.06-.45,3.65,3.65,0,0,0,2.13-1.58,5.29,5.29,0,0,0,.71-2.75,4.17,4.17,0,0,0-1.39-3.31,5.69,5.69,0,0,0-3.85-1.21h-8.07V94h2.41V86.74h5.45a2.92,2.92,0,0,1,1.3.25,2.11,2.11,0,0,1,.79.65,2.53,2.53,0,0,1,.44,1,10.52,10.52,0,0,1,.24,1.17,9,9,0,0,1,.14,1.26l0,.45q0,.39,0,.75a6.13,6.13,0,0,0,.11,1,1.45,1.45,0,0,0,.34.75l2.71,0-.09-.11a2.84,2.84,0,0,1-.52-1m-11-14h5.55a2.92,2.92,0,0,1,2.25.78,3,3,0,0,1,.7,2.06,3.13,3.13,0,0,1-.31,1.48,2.59,2.59,0,0,1-.84.9,3.13,3.13,0,0,1-1.22.46,8.9,8.9,0,0,1-1.49.12h-4.64Z"/><path class="cls-4" d="M240.85,87.53a6.33,6.33,0,0,1-.43,1.93,4.59,4.59,0,0,1-1,1.54A4.42,4.42,0,0,1,238,92a5,5,0,0,1-2,.37,5.62,5.62,0,0,1-2.59-.57,5.12,5.12,0,0,1-1.77-1.52,6.54,6.54,0,0,1-1-2.23,11.55,11.55,0,0,1-.33-2.74,10.32,10.32,0,0,1,.33-2.56,6.69,6.69,0,0,1,1-2.17,5.18,5.18,0,0,1,1.76-1.52,5.46,5.46,0,0,1,2.58-.56,5.21,5.21,0,0,1,3,.89,4.16,4.16,0,0,1,1.66,2.67v.06h2.39v-.08a6.46,6.46,0,0,0-.81-2.43,6.24,6.24,0,0,0-1.57-1.74,7.06,7.06,0,0,0-2.15-1,8.76,8.76,0,0,0-2.54-.37,8.21,8.21,0,0,0-3.49.72A7.19,7.19,0,0,0,230,79.11,8.5,8.5,0,0,0,228.42,82a11.46,11.46,0,0,0-.52,3.51,12.11,12.11,0,0,0,.49,3.51,8,8,0,0,0,1.48,2.83,7,7,0,0,0,2.47,1.89,8.39,8.39,0,0,0,3.49.68A7.23,7.23,0,0,0,241,92.58a7.79,7.79,0,0,0,2.24-5v-.08h-2.4Z"/><polygon class="cls-4" points="249.7 86.22 258.54 86.22 258.54 84.18 249.7 84.18 249.7 78.91 259.18 78.91 259.18 76.87 247.3 76.87 247.3 94.01 259.25 94.01 259.25 91.97 249.7 91.97 249.7 86.22"/><polygon class="cls-4" points="266.22 76.87 263.83 76.87 263.83 94.01 275.23 94.01 275.23 91.97 266.22 91.97 266.22 76.87"/><path class="cls-4" d="M290.4,79.2a7.62,7.62,0,0,0-2.57-2,8.9,8.9,0,0,0-7.15,0,7.82,7.82,0,0,0-2.57,2,8.58,8.58,0,0,0-1.55,2.87,11.39,11.39,0,0,0,0,6.74,8.48,8.48,0,0,0,1.55,2.87,7.69,7.69,0,0,0,2.57,2,9.12,9.12,0,0,0,7.15,0,7.6,7.6,0,0,0,2.57-2A8.68,8.68,0,0,0,292,88.81a11.39,11.39,0,0,0,0-6.74,8.68,8.68,0,0,0-1.56-2.87m-6.14,13.18a5.56,5.56,0,0,1-2.64-.6,5.26,5.26,0,0,1-1.81-1.6,7,7,0,0,1-1-2.22,10.08,10.08,0,0,1,0-5,7.13,7.13,0,0,1,1-2.23,5.31,5.31,0,0,1,1.81-1.58,6.09,6.09,0,0,1,5.27,0,5.21,5.21,0,0,1,1.81,1.58,6.82,6.82,0,0,1,1,2.23,9.79,9.79,0,0,1,0,5,6.58,6.58,0,0,1-1,2.22,5.26,5.26,0,0,1-1.81,1.6,5.49,5.49,0,0,1-2.63.6"/><polygon class="cls-4" points="308.17 90.57 299.27 76.87 296.76 76.87 296.76 94.01 299.04 94.01 299.04 80.45 307.87 94.01 310.45 94.01 310.45 76.87 308.17 76.87 308.17 90.57"/><path class="cls-4" d="M320.46,76.87,313.78,94h2.46l1.9-5.12h7.1L327.08,94l0,0h2.64l-6.69-17.14Zm4,10H318.9l2.81-7.73Z"/><polygon class="cls-4" points="330.54 80.17 335.63 80.17 335.63 94.02 339.51 94.02 339.51 80.17 344.59 80.17 344.59 76.89 330.54 76.89 330.54 80.17"/><polygon class="cls-4" points="351.58 86.72 359.81 86.72 359.81 83.67 351.58 83.67 351.58 80.17 360.55 80.17 360.55 76.89 347.71 76.89 347.71 94.02 360.74 94.02 360.74 90.74 351.58 90.74 351.58 86.72"/><path class="cls-4" d="M375.83,87.41c-.31,2.37-1.69,3.74-3.79,3.74-3.36,0-4.55-2.9-4.55-5.62,0-1.35.33-5.77,4.55-5.77a3.58,3.58,0,0,1,3.64,2.92v.06h3.75v-.07c-.43-3.75-3.33-6.18-7.39-6.18-5,0-8.42,3.63-8.42,9,0,5.24,3.46,8.9,8.42,8.9a7.27,7.27,0,0,0,7.54-7v-.08h-3.75Z"/><polygon class="cls-4" points="392.93 83.41 386.18 83.41 386.18 76.89 382.31 76.89 382.31 94.02 386.18 94.02 386.18 86.69 392.93 86.69 392.93 94.02 396.79 94.02 396.79 76.89 392.93 76.89 392.93 83.41"/><rect class="cls-4" x="174.39" y="107.01" width="564.65" height="1.82"/></g></g></g></svg>