<svg xmlns="http://www.w3.org/2000/svg" xmlns:xlink="http://www.w3.org/1999/xlink" viewBox="0 0 3628.35 2889.23"><defs><style>.cls-1,.cls-2{fill:none;}.cls-2{stroke:#1d1d1b;stroke-miterlimit:10;stroke-width:5px;}.cls-3{font-size:36px;font-family:Futura-Medium, Futura;}.cls-13,.cls-14,.cls-3{fill:#1d1d1b;}.cls-4{letter-spacing:-0.04em;}.cls-5{letter-spacing:0.01em;}.cls-6{letter-spacing:0.03em;}.cls-7{letter-spacing:-0.01em;}.cls-8{letter-spacing:-0.03em;}.cls-9{letter-spacing:0.02em;}.cls-10{letter-spacing:-0.01em;}.cls-11{letter-spacing:0.03em;}.cls-12{clip-path:url(#clip-path);}.cls-13{font-size:25px;font-family:FuturaLT-Book, FuturaLT Book;}</style><clipPath id="clip-path"><rect class="cls-1" x="2740.54" y="2644.89" width="759.29" height="202.48"/></clipPath></defs><title>MPDA-logo</title><g id="Layer_1" data-name="Layer 1"><path class="cls-2" d="M166.68,2706.49V2705a78.86,78.86,0,0,1,1.21-11.86,105,105,0,0,1,3-12.57,97.54,97.54,0,0,1,4.46-11.94,62,62,0,0,1,5.6-10,36.34,36.34,0,0,1,6.36-7,24.07,24.07,0,0,1,6.62-4,16.09,16.09,0,0,1,6.32-1.11,11.5,11.5,0,0,1,9.54,5.46,16,16,0,0,1,2.21,6,23.77,23.77,0,0,1-.11,7.69,35.64,35.64,0,0,1-2.88,9,62,62,0,0,1-5.86,9.83,96.09,96.09,0,0,1-8.11,9.82,104,104,0,0,1-9.37,8.87,80.65,80.65,0,0,1-9.66,7,43.7,43.7,0,0,1-9.21,4.26,28.13,28.13,0,0,1-17.71,0,43.68,43.68,0,0,1-9.19-4.27,77.4,77.4,0,0,1-9.66-7,103.85,103.85,0,0,1-9.37-8.86,95.52,95.52,0,0,1-8.09-9.81,61.74,61.74,0,0,1-5.86-9.84,35.88,35.88,0,0,1-2.86-9A23.73,23.73,0,0,1,104,2658a15.8,15.8,0,0,1,2.23-6,11.81,11.81,0,0,1,4.08-3.94,12.08,12.08,0,0,1,5.49-1.53,16.31,16.31,0,0,1,6.33,1.12,24,24,0,0,1,6.64,4,35.83,35.83,0,0,1,6.39,7,61.26,61.26,0,0,1,5.61,10,98.15,98.15,0,0,1,4.48,11.95,104.36,104.36,0,0,1,3,12.55,77.76,77.76,0,0,1,1.2,11.87c0,.5,0,1,0,1.46"/><path class="cls-2" d="M132.75,2735.48l-1.39.79a78.39,78.39,0,0,1-10.88,4.88,103.62,103.62,0,0,1-12.37,3.66,95.44,95.44,0,0,1-12.57,2.08,60.68,60.68,0,0,1-11.47.13,35.45,35.45,0,0,1-9.25-2,23.84,23.84,0,0,1-6.74-3.8,15.93,15.93,0,0,1-4.12-5,11.7,11.7,0,0,1,0-11.08,15.88,15.88,0,0,1,4.1-5,24,24,0,0,1,6.72-3.79,35.46,35.46,0,0,1,9.24-2.05,61.27,61.27,0,0,1,11.45.12,96.7,96.7,0,0,1,12.56,2.08,106.24,106.24,0,0,1,12.38,3.66,77.61,77.61,0,0,1,10.87,4.88,42.79,42.79,0,0,1,8.29,5.83,28.84,28.84,0,0,1,5.67,7,29.16,29.16,0,0,1,3.2,8.39,43.88,43.88,0,0,1,.9,10.11,77.51,77.51,0,0,1-1.2,11.86,108.56,108.56,0,0,1-3,12.57,97.72,97.72,0,0,1-4.47,11.95,61.57,61.57,0,0,1-5.6,10,36.37,36.37,0,0,1-6.37,7,23.63,23.63,0,0,1-6.63,4,15.67,15.67,0,0,1-6.32,1.12,11.52,11.52,0,0,1-9.54-5.47,15.82,15.82,0,0,1-2.21-6,23.71,23.71,0,0,1,.11-7.68,35.64,35.64,0,0,1,2.88-9,61.53,61.53,0,0,1,5.86-9.83,96.09,96.09,0,0,1,8.11-9.82,102.58,102.58,0,0,1,9.37-8.87,78.85,78.85,0,0,1,9.67-7c.49-.3,1-.59,1.48-.86"/><path class="cls-2" d="M174.57,2750.32l1.55.9a78.85,78.85,0,0,1,9.67,7,103.69,103.69,0,0,1,9.35,8.87,96,96,0,0,1,8.1,9.82,60.62,60.62,0,0,1,5.84,9.83,35.41,35.41,0,0,1,2.86,9,23.44,23.44,0,0,1,.08,7.69,15.79,15.79,0,0,1-2.22,6,11.92,11.92,0,0,1-4.09,3.94,12.13,12.13,0,0,1-5.48,1.53,16.33,16.33,0,0,1-6.34-1.12,24.17,24.17,0,0,1-6.63-4,36.36,36.36,0,0,1-6.39-7,62.54,62.54,0,0,1-5.6-10,97.13,97.13,0,0,1-4.48-11.95,108.9,108.9,0,0,1-3-12.56,80.51,80.51,0,0,1-1.2-11.87,44,44,0,0,1,.91-10.12,28.32,28.32,0,0,1,8.87-15.36,43.72,43.72,0,0,1,8.31-5.83,78.78,78.78,0,0,1,10.87-4.87,106.66,106.66,0,0,1,12.37-3.66,95.44,95.44,0,0,1,12.57-2.08,61.27,61.27,0,0,1,11.45-.12,35.62,35.62,0,0,1,9.25,2.06,23.66,23.66,0,0,1,6.73,3.79,16,16,0,0,1,4.11,5,11.72,11.72,0,0,1,0,11.09,16.14,16.14,0,0,1-4.1,5,23.69,23.69,0,0,1-6.72,3.78A35.38,35.38,0,0,1,232,2747a60.47,60.47,0,0,1-11.45-.13,96.64,96.64,0,0,1-12.56-2.07,104,104,0,0,1-12.36-3.67,77.61,77.61,0,0,1-10.87-4.88c-.51-.28-1-.57-1.49-.85"/><path class="cls-2" d="M147.84,2717.71a27.32,27.32,0,0,1-6.16,10.73"/><path class="cls-2" d="M174.29,2728.28a27.76,27.76,0,0,1-3.5-4.8,27.46,27.46,0,0,1-2.47-5.64"/><path class="cls-2" d="M152.31,2746.13a29,29,0,0,1,5.75-.61,28.15,28.15,0,0,1,5.67.59"/><text class="cls-3" transform="translate(269.76 2692.89)">MP<tspan class="cls-4" x="54.05" y="0">D</tspan><tspan x="78.86" y="0">A</tspan></text></g><g id="_Layer_" data-name="&lt;Layer&gt;"><text class="cls-3" transform="translate(269.76 2755.9)">Mas<tspan class="cls-5" x="70.8" y="0">t</tspan><tspan x="80.96" y="0">e</tspan><tspan class="cls-6" x="100.88" y="0">r</tspan><tspan x="115.35" y="0">’s deg</tspan><tspan class="cls-7" x="215.88" y="0">r</tspan><tspan x="229.1" y="0">ee </tspan><tspan class="cls-8" x="0" y="43.2">P</tspan><tspan x="18.47" y="43.2">a</tspan><tspan class="cls-7" x="40.06" y="43.2">r</tspan><tspan x="53.28" y="43.2">am</tspan><tspan class="cls-5" x="103.34" y="43.2">e</tspan><tspan x="123.57" y="43.2">t</tspan><tspan class="cls-9" x="133.42" y="43.2">r</tspan><tspan x="147.43" y="43.2">ic Design in A</tspan><tspan class="cls-10" x="373.17" y="43.2">r</tspan><tspan class="cls-11" x="386.31" y="43.2">c</tspan><tspan x="404.4" y="43.2">hi</tspan><tspan class="cls-5" x="433.11" y="43.2">t</tspan><tspan x="443.27" y="43.2">ectu</tspan><tspan class="cls-7" x="509.8" y="43.2">r</tspan><tspan x="523.02" y="43.2">e</tspan></text><g class="cls-12"><text class="cls-13" transform="translate(2914.88 2787.35)">School of Professional &amp; Executive Development</text><g class="cls-12"><path class="cls-14" d="M2827.28,2768.46h-2.44v5.09h2.51c1.63,0,2.29-1.28,2.26-2.63s-.57-2.46-2.33-2.46m-1.55-95.1a65.75,65.75,0,1,0,65.76,65.75,65.74,65.74,0,0,0-65.76-65.75m.27,18.57a9.39,9.39,0,1,1-9.38,9.38,9.39,9.39,0,0,1,9.38-9.38m0,22.24a9.39,9.39,0,1,1-9.38,9.38,9.38,9.38,0,0,1,9.38-9.38m-22.81-22.24a9.39,9.39,0,1,1-9.38,9.38,9.39,9.39,0,0,1,9.38-9.38m0,22.24a9.39,9.39,0,1,1-9.38,9.38,9.38,9.38,0,0,1,9.38-9.38m0,22.83a9.38,9.38,0,1,1-9.38,9.39,9.38,9.38,0,0,1,9.38-9.39m11.06,39.92c0,2.3-.07,5.15-3.1,7.28a13.1,13.1,0,0,1-12.87,0c-3-2.13-3.11-5-3.11-7.28v-13.21h6.32v13.18a3.48,3.48,0,0,0,1.11,3,2.94,2.94,0,0,0,2.12.74,2.9,2.9,0,0,0,2.11-.74,3.6,3.6,0,0,0,1.12-3v-13.18h6.3ZM2826,2737a9.38,9.38,0,1,1-9.38,9.39A9.38,9.38,0,0,1,2826,2737m6.7,40.18c-1.21.85-2.59,1.18-6.1,1.18l-1.83,0v7.11h-5.5v-21.72h9.09c4.43,0,7.17,2.68,7.17,7.48a7,7,0,0,1-2.83,6m22.67-6.89c-2.15-1.81-3-1.68-4.7-1.68-3.29,0-5.58,2.5-5.58,6.06s2.32,6.06,5.61,6.06c1.78,0,2.67-.24,4.67-1.72v5.63a10.31,10.31,0,0,1-5.25,1.3c-6.56,0-11.18-4.66-11.18-11.27s4.72-11.41,11.11-11.41a10.61,10.61,0,0,1,5.32,1.34Zm-7.08-14.53a9.38,9.38,0,1,1,9.38-9.37,9.38,9.38,0,0,1-9.38,9.37m0-22.82a9.39,9.39,0,1,1,9.38-9.39,9.39,9.39,0,0,1-9.38,9.39m0-22.24a9.39,9.39,0,1,1,9.38-9.39,9.39,9.39,0,0,1-9.38,9.39"/><path class="cls-14" d="M2927.18,2703.45c0,2.6-1,3.62-3.45,3.62-3,0-3.43-1.83-3.43-3.62v-10.64h-3.87v10.64c0,4.51,2.53,6.9,7.3,6.9s7.33-2.46,7.33-6.9v-10.64h-3.88Z"/><polygon class="cls-14" points="2946.6 2704.12 2939.58 2692.84 2939.56 2692.82 2935.74 2692.82 2935.74 2709.94 2939.38 2709.94 2939.38 2698.66 2946.37 2709.91 2946.39 2709.94 2950.23 2709.94 2950.23 2692.82 2946.6 2692.82 2946.6 2704.12"/><rect class="cls-14" x="2956.2" y="2692.82" width="3.87" height="17.13"/><polygon class="cls-14" points="2969.74 2709.94 2974.05 2709.94 2979.71 2692.91 2979.74 2692.81 2975.74 2692.81 2971.93 2704.68 2968.17 2692.81 2964.18 2692.81 2969.72 2709.89 2969.74 2709.94"/><polygon class="cls-14" points="2996.67 2706.66 2987.51 2706.66 2987.51 2702.63 2995.74 2702.63 2995.74 2699.59 2987.51 2699.59 2987.51 2696.1 2996.47 2696.1 2996.47 2692.82 2983.63 2692.82 2983.63 2709.94 2996.67 2709.94 2996.67 2706.66"/><path class="cls-14" d="M3015.39,2706.42c0-.21,0-.4,0-.58-.15-2.25-.94-3.56-2.39-4a4.24,4.24,0,0,0,2.61-4.27,4.74,4.74,0,0,0-5-4.76h-9.23v17.13h3.87v-6.64h3.67c1.77,0,2.49.66,2.77,2.51.06.44.09.91.13,1.38a9.51,9.51,0,0,0,.47,2.71v0h3.91l-.07-.1a7.42,7.42,0,0,1-.67-3.42m-10.22-10.57h4c1.68,0,2.5.75,2.5,2.29s-.8,2.36-2.5,2.36h-4Z"/><path class="cls-14" d="M3028.61,2699.85l-.53-.13c-3.94-1-4.65-1.2-4.65-2.41,0-1.38,1.35-1.87,2.51-1.87,2.14,0,3.19.8,3.29,2.52v.06H3033V2698c0-3.48-2.57-5.55-6.87-5.55-3.19,0-6.42,1.79-6.42,5.21,0,3.27,2.64,4.24,5.11,4.89l1.1.28c2.09.51,3.9.95,3.9,2.47,0,1.9-2.49,2-3.24,2-2.32,0-3.7-1.14-3.7-3.07v-.07h-3.75v.07a5.52,5.52,0,0,0,1.54,4.07,8,8,0,0,0,5.76,2c4.4,0,7.14-2.12,7.14-5.53,0-3.76-3.59-4.64-4.94-5"/><rect class="cls-14" x="3038.23" y="2692.82" width="3.87" height="17.13"/><polygon class="cls-14" points="3050.68 2709.94 3054.55 2709.94 3054.55 2696.09 3059.65 2696.09 3059.65 2692.81 3045.59 2692.81 3045.59 2696.09 3050.68 2696.09 3050.68 2709.94"/><path class="cls-14" d="M3076.34,2709.94l-6.38-17.08,0-.05H3066l-6.47,17,0,.09h3.93l1.33-3.78H3071l1.29,3.78Zm-6.32-6.71h-4.22l2.14-6Z"/><polygon class="cls-14" points="3090.46 2692.82 3076.4 2692.82 3076.4 2696.1 3081.5 2696.1 3081.5 2709.94 3085.37 2709.94 3085.37 2696.1 3090.46 2696.1 3090.46 2692.82"/><path class="cls-14" d="M3106.49,2703.85h3.86c4.38,0,6-2.85,6-5.52s-1.57-5.52-6-5.52h-7.73v17.13h3.87Zm0-8h2.84c1.59,0,3.21.29,3.21,2.48s-1.62,2.48-3.21,2.48h-2.84Z"/><path class="cls-14" d="M3135.06,2701.45c0-5.41-3.38-9-8.42-9s-8.42,3.63-8.42,9c0,5.23,3.46,8.9,8.42,8.9s8.42-3.67,8.42-8.9m-8.42,5.62c-3.35,0-4.55-2.91-4.55-5.62,0-1.35.33-5.76,4.55-5.76s4.55,4.41,4.55,5.76c0,2.71-1.2,5.62-4.55,5.62"/><polygon class="cls-14" points="3142.31 2692.82 3138.44 2692.82 3138.44 2709.94 3150.59 2709.94 3150.59 2706.66 3142.31 2706.66 3142.31 2692.82"/><rect class="cls-14" x="3153.94" y="2692.81" width="3.87" height="17.13"/><polygon class="cls-14" points="3161.51 2696.1 3166.61 2696.1 3166.61 2709.94 3170.48 2709.94 3170.48 2696.1 3175.57 2696.1 3175.57 2692.82 3161.51 2692.82 3161.51 2696.1"/><polygon class="cls-14" points="3182.89 2702.63 3191.12 2702.63 3191.12 2699.59 3182.89 2699.59 3182.89 2696.1 3191.85 2696.1 3191.85 2692.82 3179.01 2692.82 3179.01 2709.94 3192.05 2709.94 3192.05 2706.66 3182.89 2706.66 3182.89 2702.63"/><polygon class="cls-14" points="3187.09 2691.42 3184.71 2687.91 3180.77 2687.91 3184.56 2691.41 3187.09 2691.42"/><path class="cls-14" d="M3207.06,2703.32c-.31,2.38-1.69,3.75-3.79,3.75-3.35,0-4.55-2.91-4.55-5.62,0-1.36.33-5.76,4.55-5.76a3.57,3.57,0,0,1,3.64,2.91l0,.06h3.74v-.08c-.43-3.74-3.34-6.17-7.4-6.17-5,0-8.42,3.63-8.42,9,0,5.23,3.46,8.9,8.42,8.9a7.25,7.25,0,0,0,7.54-7v-.08h-3.75Z"/><polygon class="cls-14" points="3225.02 2704.12 3218 2692.84 3217.98 2692.82 3214.16 2692.82 3214.16 2709.94 3217.8 2709.94 3217.8 2698.66 3224.79 2709.91 3224.81 2709.94 3228.65 2709.94 3228.65 2692.82 3225.02 2692.82 3225.02 2704.12"/><rect class="cls-14" x="3234.14" y="2692.81" width="3.87" height="17.13"/><path class="cls-14" d="M3254.26,2703.32c-.31,2.38-1.69,3.75-3.8,3.75-3.35,0-4.54-2.91-4.54-5.62,0-1.36.33-5.76,4.54-5.76a3.58,3.58,0,0,1,3.65,2.91v.06h3.75v-.08c-.43-3.74-3.33-6.17-7.4-6.17-5,0-8.41,3.63-8.41,9,0,5.23,3.46,8.9,8.41,8.9a7.27,7.27,0,0,0,7.55-7v-.08h-3.75Z"/><path class="cls-14" d="M3269.75,2692.81h-3.92l-6.47,17,0,.09h3.93l1.33-3.78h6.26l1.28,3.78h4l-6.39-17.08Zm.07,10.42h-4.21l2.15-6Z"/><path class="cls-14" d="M3293.88,2692.81h-7.4v17.13h7.4c4.87,0,7.77-3.24,7.77-8.66s-2.9-8.47-7.77-8.47m-3.53,3.29h2.6c3.34,0,4.83,1.7,4.83,5.54,0,4.53-2.91,5-4.16,5h-3.27Z"/><polygon class="cls-14" points="3308.93 2702.63 3317.16 2702.63 3317.16 2699.59 3308.93 2699.59 3308.93 2696.1 3317.9 2696.1 3317.9 2692.82 3305.05 2692.82 3305.05 2709.94 3318.08 2709.94 3318.08 2706.66 3308.93 2706.66 3308.93 2702.63"/><path class="cls-14" d="M3340.39,2703.32c-.31,2.38-1.69,3.75-3.8,3.75-3.35,0-4.54-2.91-4.54-5.62,0-1.36.33-5.76,4.54-5.76a3.58,3.58,0,0,1,3.65,2.91v.06H3344v-.08c-.44-3.74-3.34-6.17-7.41-6.17-5,0-8.41,3.63-8.41,9,0,5.23,3.46,8.9,8.41,8.9a7.27,7.27,0,0,0,7.55-7v-.08h-3.75Z"/><path class="cls-14" d="M3355.65,2692.81h-3.93l-6.47,17,0,.09h3.93l1.33-3.78h6.26l1.29,3.78h4l-6.39-17.08Zm.07,10.42h-4.21l2.14-6Z"/><polygon class="cls-14" points="3376.16 2692.82 3362.11 2692.82 3362.11 2696.1 3367.2 2696.1 3367.2 2709.94 3371.07 2709.94 3371.07 2696.1 3376.16 2696.1 3376.16 2692.82"/><path class="cls-14" d="M3386.27,2692.81h-3.92l-6.47,17,0,.09h3.93l1.34-3.78h6.25l1.29,3.78h4l-6.39-17.08Zm.07,10.42h-4.21l2.14-6Z"/><polygon class="cls-14" points="3399.22 2692.82 3395.35 2692.82 3395.35 2709.94 3407.51 2709.94 3407.51 2706.66 3399.22 2706.66 3399.22 2692.82"/><path class="cls-14" d="M3419.94,2703.45c0,2.6-1,3.62-3.45,3.62-3,0-3.43-1.83-3.43-3.62v-10.64h-3.88v10.64c0,4.51,2.53,6.9,7.31,6.9s7.32-2.46,7.32-6.9v-10.64h-3.87Z"/><polygon class="cls-14" points="3439.73 2704.12 3432.72 2692.84 3432.7 2692.82 3428.88 2692.82 3428.88 2709.94 3432.52 2709.94 3432.52 2698.66 3439.5 2709.91 3439.52 2709.94 3443.36 2709.94 3443.36 2692.82 3439.73 2692.82 3439.73 2704.12"/><polygon class="cls-14" points="3462.37 2692.82 3458.05 2692.82 3454.14 2699.46 3450.2 2692.82 3445.83 2692.82 3452.14 2703.26 3452.14 2709.94 3456.01 2709.94 3456 2703.39 3462.37 2692.82"/><path class="cls-14" d="M3471.87,2692.86l0-.05h-3.92l-6.47,17,0,.09h3.93l1.33-3.78h6.25l1.29,3.78h4Zm.05,10.37h-4.21l2.14-6Z"/><path class="cls-14" d="M2927.09,2729.81a3.81,3.81,0,0,0,1.76-1.44,4.12,4.12,0,0,0,.67-2.37,4,4,0,0,0-.59-2.21,4.56,4.56,0,0,0-1.44-1.4,2.88,2.88,0,0,0-.94-.37,8.86,8.86,0,0,0-1.16-.18c-.42,0-.84-.06-1.26-.07h-7.41v17.14H2925a5.76,5.76,0,0,0,2.26-.42,5.08,5.08,0,0,0,1.63-1.12,4.54,4.54,0,0,0,1-1.58,5.21,5.21,0,0,0,.34-1.83,4.38,4.38,0,0,0-.85-2.71,4,4,0,0,0-2.3-1.43m-8,1.3h5.11a7.84,7.84,0,0,1,1.37.12,3.46,3.46,0,0,1,1.15.45,2.34,2.34,0,0,1,.8.85,2.68,2.68,0,0,1,.29,1.35,2.94,2.94,0,0,1-.81,2.19,3.26,3.26,0,0,1-2.3.79h-5.61Zm7.2-2.7a4.54,4.54,0,0,1-2.73.66h-4.47v-5.27h4.47a12.34,12.34,0,0,1,1.38.08,3.33,3.33,0,0,1,1.13.36,1.94,1.94,0,0,1,.75.78,2.9,2.9,0,0,1,.28,1.4,2.38,2.38,0,0,1-.81,2"/><path class="cls-14" d="M2938.65,2721.76,2932,2738.9h2.45l1.9-5.13h7.1l1.84,5.08,0,.05h2.65l-6.7-17.14Zm4,10h-5.57l2.81-7.73Z"/><path class="cls-14" d="M2964.37,2737.82a8.68,8.68,0,0,1-.28-1.17c-.06-.41-.09-.83-.11-1.26s0-.84-.07-1.26a11.55,11.55,0,0,0-.21-1.2,3.33,3.33,0,0,0-.41-1,2.48,2.48,0,0,0-.76-.82,3,3,0,0,0-1.05-.46,3.62,3.62,0,0,0,2.12-1.58,5.23,5.23,0,0,0,.71-2.74,4.17,4.17,0,0,0-1.39-3.31,5.63,5.63,0,0,0-3.84-1.21H2951v17.14h2.4v-7.27h5.45a2.78,2.78,0,0,1,1.3.25,2.11,2.11,0,0,1,.79.64,2.65,2.65,0,0,1,.44,1,10.07,10.07,0,0,1,.24,1.17,7.47,7.47,0,0,1,.14,1.25l0,.45c0,.27,0,.52,0,.76a6.13,6.13,0,0,0,.11,1,1.45,1.45,0,0,0,.34.75l2.71,0-.09-.11a3,3,0,0,1-.52-1m-11-14H2959a2.9,2.9,0,0,1,2.25.78,3,3,0,0,1,.7,2.05,3.06,3.06,0,0,1-.31,1.49,2.56,2.56,0,0,1-.83.9,3.17,3.17,0,0,1-1.23.45,8.82,8.82,0,0,1-1.49.12h-4.64Z"/><path class="cls-14" d="M2981.39,2732.42a6,6,0,0,1-.43,1.93,4.44,4.44,0,0,1-2.45,2.55,5,5,0,0,1-2,.36,5.44,5.44,0,0,1-2.59-.57,4.94,4.94,0,0,1-1.78-1.51,6.39,6.39,0,0,1-1-2.24,10.92,10.92,0,0,1-.33-2.73,9.87,9.87,0,0,1,.33-2.56,6.62,6.62,0,0,1,1-2.18A5.18,5.18,0,0,1,2974,2724a5.58,5.58,0,0,1,2.58-.56,5.2,5.2,0,0,1,3,.9,4.15,4.15,0,0,1,1.65,2.67v.05h2.4l0-.07a6.4,6.4,0,0,0-.81-2.43,6.11,6.11,0,0,0-1.57-1.74,7,7,0,0,0-2.15-1.06,8.74,8.74,0,0,0-2.53-.36,8.14,8.14,0,0,0-3.49.72,7.14,7.14,0,0,0-2.56,1.93,8.38,8.38,0,0,0-1.54,2.86,11.46,11.46,0,0,0-.53,3.51,12,12,0,0,0,.49,3.5,8.21,8.21,0,0,0,1.48,2.83,6.74,6.74,0,0,0,2.47,1.89,8.39,8.39,0,0,0,3.49.68,7.25,7.25,0,0,0,5.19-1.8,7.86,7.86,0,0,0,2.23-5v-.08h-2.4Z"/><polygon class="cls-14" points="2990.24 2731.11 2999.08 2731.11 2999.08 2729.07 2990.24 2729.07 2990.24 2723.8 2999.72 2723.8 2999.72 2721.76 2987.84 2721.76 2987.84 2738.89 2999.79 2738.89 2999.79 2736.86 2990.24 2736.86 2990.24 2731.11"/><polygon class="cls-14" points="3006.76 2721.76 3004.37 2721.76 3004.37 2738.9 3015.77 2738.9 3015.77 2736.86 3006.76 2736.86 3006.76 2721.76"/><path class="cls-14" d="M3031,2724.09a7.75,7.75,0,0,0-2.57-2,9,9,0,0,0-7.16,0,7.85,7.85,0,0,0-2.57,2,8.66,8.66,0,0,0-1.55,2.87,11.36,11.36,0,0,0,0,6.73,8.56,8.56,0,0,0,1.55,2.87,7.59,7.59,0,0,0,2.57,2,9.26,9.26,0,0,0,7.16,0,7.59,7.59,0,0,0,2.57-2,8.64,8.64,0,0,0,1.55-2.87,11.36,11.36,0,0,0,0-6.73,8.74,8.74,0,0,0-1.55-2.87m-6.15,13.17a5.38,5.38,0,0,1-2.63-.6,5.18,5.18,0,0,1-1.82-1.59,6.91,6.91,0,0,1-1-2.23,9.75,9.75,0,0,1,0-5,6.91,6.91,0,0,1,1-2.23,5.26,5.26,0,0,1,1.82-1.58,5.41,5.41,0,0,1,2.63-.61,5.48,5.48,0,0,1,2.64.61,5.27,5.27,0,0,1,1.8,1.58,6.72,6.72,0,0,1,1,2.23,9.75,9.75,0,0,1,0,5,6.72,6.72,0,0,1-1,2.23,5.2,5.2,0,0,1-1.8,1.59,5.45,5.45,0,0,1-2.64.6"/><polygon class="cls-14" points="3048.71 2735.45 3039.82 2721.76 3037.3 2721.76 3037.3 2738.9 3039.58 2738.9 3039.58 2725.33 3048.41 2738.9 3050.99 2738.9 3050.99 2721.76 3048.71 2721.76 3048.71 2735.45"/><path class="cls-14" d="M3061,2721.76l-6.68,17.14h2.46l1.9-5.13h7.11l1.83,5.08,0,.05h2.64l-6.69-17.14Zm4,10h-5.57l2.8-7.73Z"/><polygon class="cls-14" points="3071.08 2725.06 3076.17 2725.06 3076.17 2738.91 3080.05 2738.91 3080.05 2725.06 3085.13 2725.06 3085.13 2721.78 3071.08 2721.78 3071.08 2725.06"/><polygon class="cls-14" points="3092.12 2731.6 3100.35 2731.6 3100.35 2728.56 3092.12 2728.56 3092.12 2725.06 3101.09 2725.06 3101.09 2721.78 3088.25 2721.78 3088.25 2738.91 3101.28 2738.91 3101.28 2735.63 3092.12 2735.63 3092.12 2731.6"/><path class="cls-14" d="M3116.37,2732.29c-.31,2.38-1.69,3.75-3.79,3.75-3.36,0-4.55-2.91-4.55-5.62,0-1.36.33-5.77,4.55-5.77a3.57,3.57,0,0,1,3.64,2.92v.06H3120v-.08c-.43-3.75-3.33-6.18-7.39-6.18-5,0-8.42,3.64-8.42,9.05,0,5.23,3.46,8.89,8.42,8.89a7.26,7.26,0,0,0,7.54-7v-.08h-3.75Z"/><polygon class="cls-14" points="3133.47 2728.3 3126.72 2728.3 3126.72 2721.78 3122.85 2721.78 3122.85 2738.9 3126.72 2738.9 3126.72 2731.58 3133.47 2731.58 3133.47 2738.9 3137.33 2738.9 3137.33 2721.78 3133.47 2721.78 3133.47 2728.3"/><rect class="cls-14" x="2914.93" y="2751.9" width="564.65" height="1.82"/></g></g></g></svg>