<svg xmlns="http://www.w3.org/2000/svg" xmlns:xlink="http://www.w3.org/1999/xlink" viewBox="0 0 3628.35 2721.26"><defs><style>.cls-1,.cls-2{fill:none;}.cls-2{stroke:#1d1d1b;stroke-miterlimit:10;stroke-width:5px;}.cls-3{font-size:36px;font-family:Futura-Medium, Futura;}.cls-13,.cls-14,.cls-3{fill:#1d1d1b;}.cls-4{letter-spacing:-0.04em;}.cls-5{letter-spacing:0.01em;}.cls-6{letter-spacing:0.03em;}.cls-7{letter-spacing:-0.01em;}.cls-8{letter-spacing:-0.03em;}.cls-9{letter-spacing:0.02em;}.cls-10{letter-spacing:-0.01em;}.cls-11{letter-spacing:0.03em;}.cls-12{clip-path:url(#clip-path);}.cls-13{font-size:25px;font-family:FuturaLT-Book, FuturaLT Book;}</style><clipPath id="clip-path"><rect class="cls-1" x="2806.49" y="95.22" width="759.29" height="202.48"/></clipPath></defs><title>MPDA-logo2</title><g id="Layer_1" data-name="Layer 1"><path class="cls-2" d="M1918.3,167.07c0-.5,0-1,0-1.51a77.51,77.51,0,0,1,1.2-11.86,105.52,105.52,0,0,1,3-12.57,97.54,97.54,0,0,1,4.46-11.94,61.24,61.24,0,0,1,5.6-10,36,36,0,0,1,6.36-7,24.07,24.07,0,0,1,6.62-4,16.06,16.06,0,0,1,6.32-1.11,11.54,11.54,0,0,1,9.54,5.46,16.12,16.12,0,0,1,2.21,6,24.08,24.08,0,0,1-.12,7.69,35.59,35.59,0,0,1-2.87,9,62.74,62.74,0,0,1-5.86,9.83,96.09,96.09,0,0,1-8.11,9.82,104.07,104.07,0,0,1-9.38,8.87,79.08,79.08,0,0,1-9.66,7,44,44,0,0,1-9.2,4.27,28.23,28.23,0,0,1-17.71,0,44,44,0,0,1-9.2-4.27,78.14,78.14,0,0,1-9.66-7,106.58,106.58,0,0,1-9.37-8.86,98.2,98.2,0,0,1-8.09-9.81,62.4,62.4,0,0,1-5.85-9.84,35.88,35.88,0,0,1-2.86-9,23.46,23.46,0,0,1-.09-7.69,16,16,0,0,1,2.22-6,11.61,11.61,0,0,1,9.57-5.47,16.33,16.33,0,0,1,6.34,1.12,24.16,24.16,0,0,1,6.64,4,35.49,35.49,0,0,1,6.38,7,62,62,0,0,1,5.62,10,96.5,96.5,0,0,1,4.47,11.95,104.42,104.42,0,0,1,3,12.55,79,79,0,0,1,1.2,11.87c0,.5,0,1,0,1.46"/><path class="cls-2" d="M1884.36,196.06l-1.38.79a78.39,78.39,0,0,1-10.88,4.88,104.17,104.17,0,0,1-12.37,3.66,95.58,95.58,0,0,1-12.58,2.08,60.68,60.68,0,0,1-11.47.13,35.64,35.64,0,0,1-9.25-2,23.78,23.78,0,0,1-6.73-3.8,15.93,15.93,0,0,1-4.12-5,11.66,11.66,0,0,1,0-11.08,16.16,16.16,0,0,1,4.1-5,24,24,0,0,1,6.73-3.79,35.46,35.46,0,0,1,9.24-2.05,61.32,61.32,0,0,1,11.45.13,95.24,95.24,0,0,1,12.56,2.07,106.08,106.08,0,0,1,12.37,3.66,77.09,77.09,0,0,1,10.87,4.88,42.88,42.88,0,0,1,8.3,5.83,28.56,28.56,0,0,1,5.66,7,28.87,28.87,0,0,1,3.2,8.39,43.85,43.85,0,0,1,.91,10.11,78.86,78.86,0,0,1-1.21,11.86,104.6,104.6,0,0,1-3,12.57,97.72,97.72,0,0,1-4.47,11.95,62.31,62.31,0,0,1-5.59,10,36.37,36.37,0,0,1-6.37,7,23.63,23.63,0,0,1-6.63,4,15.7,15.7,0,0,1-6.32,1.12,11.92,11.92,0,0,1-5.47-1.52,11.81,11.81,0,0,1-4.07-4,15.66,15.66,0,0,1-2.21-6,23.71,23.71,0,0,1,.11-7.68,35.59,35.59,0,0,1,2.87-9,60.89,60.89,0,0,1,5.87-9.83,96.09,96.09,0,0,1,8.11-9.82,102.58,102.58,0,0,1,9.37-8.87,79.55,79.55,0,0,1,9.66-7c.5-.3,1-.59,1.49-.86"/><path class="cls-2" d="M1926.18,210.9c.52.29,1,.59,1.55.9a78.1,78.1,0,0,1,9.67,7,103.79,103.79,0,0,1,9.36,8.87,95.85,95.85,0,0,1,8.09,9.82,60.62,60.62,0,0,1,5.84,9.83,35,35,0,0,1,2.86,9,23.19,23.19,0,0,1,.09,7.69,16,16,0,0,1-2.22,6,11.92,11.92,0,0,1-4.09,3.94,12.21,12.21,0,0,1-5.49,1.53,16.31,16.31,0,0,1-6.33-1.12,24.21,24.21,0,0,1-6.64-4,36.65,36.65,0,0,1-6.38-7,63.34,63.34,0,0,1-5.61-10,98.13,98.13,0,0,1-4.47-11.95,104.91,104.91,0,0,1-3-12.56,79.18,79.18,0,0,1-1.2-11.87,43.52,43.52,0,0,1,.9-10.12,28.42,28.42,0,0,1,8.88-15.36,43.4,43.4,0,0,1,8.31-5.83,78.78,78.78,0,0,1,10.87-4.87,106.08,106.08,0,0,1,12.37-3.66A95.3,95.3,0,0,1,1972.1,175a61.37,61.37,0,0,1,11.46-.12,35.54,35.54,0,0,1,9.24,2.06,23.53,23.53,0,0,1,6.73,3.79,16.07,16.07,0,0,1,4.12,5,12.1,12.1,0,0,1,1.39,5.55,11.9,11.9,0,0,1-1.38,5.54,16.14,16.14,0,0,1-4.1,5,24.09,24.09,0,0,1-6.72,3.79,36,36,0,0,1-9.24,2,60.48,60.48,0,0,1-11.45-.13,96.78,96.78,0,0,1-12.55-2.07,104.76,104.76,0,0,1-12.37-3.67,77,77,0,0,1-10.86-4.88l-1.5-.85"/><path class="cls-2" d="M1899.46,178.3A27.7,27.7,0,0,1,1893.3,189"/><path class="cls-2" d="M1925.9,188.86a28.3,28.3,0,0,1-3.5-4.8,28,28,0,0,1-2.46-5.64"/><path class="cls-2" d="M1903.92,206.71a29.06,29.06,0,0,1,5.76-.61,28,28,0,0,1,5.66.59"/><text class="cls-3" transform="translate(2021.37 153.47)">MP<tspan class="cls-4" x="54.05" y="0">D</tspan><tspan x="78.86" y="0">A</tspan></text></g><g id="_Layer_" data-name="&lt;Layer&gt;"><text class="cls-3" transform="translate(2021.38 216.48)">Mas<tspan class="cls-5" x="70.8" y="0">t</tspan><tspan x="80.96" y="0">e</tspan><tspan class="cls-6" x="100.88" y="0">r</tspan><tspan x="115.35" y="0">’s deg</tspan><tspan class="cls-7" x="215.88" y="0">r</tspan><tspan x="229.1" y="0">ee </tspan><tspan class="cls-8" x="0" y="43.2">P</tspan><tspan x="18.47" y="43.2">a</tspan><tspan class="cls-7" x="40.06" y="43.2">r</tspan><tspan x="53.28" y="43.2">am</tspan><tspan class="cls-5" x="103.34" y="43.2">e</tspan><tspan x="123.57" y="43.2">t</tspan><tspan class="cls-9" x="133.42" y="43.2">r</tspan><tspan x="147.43" y="43.2">ic Design in A</tspan><tspan class="cls-10" x="373.17" y="43.2">r</tspan><tspan class="cls-11" x="386.31" y="43.2">c</tspan><tspan x="404.4" y="43.2">hi</tspan><tspan class="cls-5" x="433.11" y="43.2">t</tspan><tspan x="443.27" y="43.2">ectu</tspan><tspan class="cls-7" x="509.8" y="43.2">r</tspan><tspan x="523.02" y="43.2">e</tspan></text><g class="cls-12"><text class="cls-13" transform="translate(2980.84 237.68)">School of Professional &amp; Executive Development</text><g class="cls-12"><path class="cls-14" d="M2893.24,218.79h-2.44v5.09h2.51c1.62,0,2.28-1.28,2.25-2.63s-.56-2.46-2.32-2.46m-1.55-95.09a65.75,65.75,0,1,0,65.75,65.74,65.74,65.74,0,0,0-65.75-65.74m.26,18.56a9.39,9.39,0,1,1-9.38,9.38,9.39,9.39,0,0,1,9.38-9.38m0,22.24a9.39,9.39,0,1,1-9.38,9.39,9.38,9.38,0,0,1,9.38-9.39m-22.8-22.24a9.39,9.39,0,1,1-9.39,9.38,9.4,9.4,0,0,1,9.39-9.38m0,22.24a9.39,9.39,0,1,1-9.39,9.39,9.39,9.39,0,0,1,9.39-9.39m0,22.83a9.38,9.38,0,1,1-9.39,9.39,9.39,9.39,0,0,1,9.39-9.39m11.06,39.92c0,2.3-.08,5.15-3.1,7.28a13.12,13.12,0,0,1-12.88,0c-3-2.13-3.11-5-3.11-7.28v-13.2h6.32v13.17a3.51,3.51,0,0,0,1.11,3,2.94,2.94,0,0,0,2.12.74,2.88,2.88,0,0,0,2.11-.74,3.55,3.55,0,0,0,1.12-3V214.05h6.31ZM2892,187.33a9.38,9.38,0,1,1-9.38,9.39,9.38,9.38,0,0,1,9.38-9.39m6.7,40.18c-1.21.85-2.58,1.18-6.09,1.18l-1.84,0v7.11h-5.5V214.05h9.1c4.43,0,7.17,2.67,7.17,7.47a7,7,0,0,1-2.84,6m22.67-6.89c-2.15-1.81-3-1.68-4.7-1.68-3.29,0-5.58,2.5-5.58,6.06s2.33,6.07,5.62,6.07c1.78,0,2.67-.25,4.66-1.73V235a10.28,10.28,0,0,1-5.25,1.3c-6.56,0-11.18-4.65-11.18-11.27s4.72-11.41,11.12-11.41a10.6,10.6,0,0,1,5.31,1.34Zm-7.08-14.53a9.38,9.38,0,1,1,9.38-9.37,9.37,9.37,0,0,1-9.38,9.37m0-22.82a9.39,9.39,0,1,1,9.38-9.38,9.38,9.38,0,0,1-9.38,9.38m0-22.24a9.39,9.39,0,1,1,9.38-9.39,9.38,9.38,0,0,1-9.38,9.39"/><path class="cls-14" d="M2993.14,153.78c0,2.6-1,3.62-3.45,3.62-3,0-3.44-1.83-3.44-3.62V143.15h-3.87v10.63c0,4.51,2.53,6.9,7.31,6.9s7.32-2.46,7.32-6.9V143.15h-3.87Z"/><polygon class="cls-14" points="3012.55 154.45 3005.54 143.17 3005.51 143.15 3001.69 143.15 3001.69 160.27 3005.33 160.27 3005.33 148.99 3012.32 160.24 3012.34 160.27 3016.19 160.27 3016.19 143.15 3012.55 143.15 3012.55 154.45"/><rect class="cls-14" x="3022.15" y="143.15" width="3.87" height="17.13"/><polygon class="cls-14" points="3035.7 160.27 3040 160.27 3045.66 143.24 3045.69 143.15 3041.69 143.15 3037.89 155.01 3034.13 143.15 3030.13 143.15 3035.68 160.22 3035.7 160.27"/><polygon class="cls-14" points="3062.62 156.99 3053.46 156.99 3053.46 152.96 3061.69 152.96 3061.69 149.93 3053.46 149.93 3053.46 146.43 3062.43 146.43 3062.43 143.15 3049.58 143.15 3049.58 160.27 3062.62 160.27 3062.62 156.99"/><path class="cls-14" d="M3081.34,156.75c0-.21,0-.4,0-.58-.16-2.25-.95-3.56-2.4-4a4.23,4.23,0,0,0,2.61-4.27,4.74,4.74,0,0,0-5-4.75h-9.23v17.12h3.87v-6.64h3.67c1.77,0,2.49.66,2.77,2.51.06.45.1.92.13,1.38a9.51,9.51,0,0,0,.47,2.71l0,0h3.9l-.07-.1a7.42,7.42,0,0,1-.67-3.42m-10.22-10.57h4c1.68,0,2.5.75,2.5,2.29s-.79,2.36-2.5,2.36h-4Z"/><path class="cls-14" d="M3094.56,150.18l-.53-.13c-3.93-1-4.65-1.2-4.65-2.41,0-1.38,1.35-1.86,2.51-1.86,2.15,0,3.19.8,3.29,2.51v.06h3.74v-.06c0-3.47-2.57-5.55-6.87-5.55-3.19,0-6.42,1.79-6.42,5.21s2.64,4.24,5.11,4.89l1.1.28c2.09.51,3.9.95,3.9,2.47,0,1.9-2.48,2-3.24,2-2.31,0-3.69-1.14-3.69-3.07v-.06h-3.76v.06a5.49,5.49,0,0,0,1.55,4.07,8,8,0,0,0,5.76,2.05c4.4,0,7.13-2.12,7.13-5.52,0-3.76-3.59-4.65-4.94-5"/><rect class="cls-14" x="3104.19" y="143.15" width="3.87" height="17.13"/><polygon class="cls-14" points="3116.63 160.27 3120.51 160.27 3120.51 146.43 3125.6 146.43 3125.6 143.15 3111.54 143.15 3111.54 146.43 3116.63 146.43 3116.63 160.27"/><path class="cls-14" d="M3142.3,160.27l-6.39-17.08,0,0H3132l-6.46,17,0,.09h3.93l1.33-3.78H3137l1.28,3.78Zm-6.33-6.7h-4.22l2.14-6Z"/><polygon class="cls-14" points="3156.41 143.15 3142.36 143.15 3142.36 146.43 3147.45 146.43 3147.45 160.27 3151.32 160.27 3151.32 146.43 3156.41 146.43 3156.41 143.15"/><path class="cls-14" d="M3172.44,154.18h3.87c4.38,0,5.94-2.85,5.94-5.52s-1.56-5.51-5.94-5.51h-7.74v17.12h3.87Zm0-8h2.84c1.59,0,3.22.3,3.22,2.48s-1.63,2.48-3.22,2.48h-2.84Z"/><path class="cls-14" d="M3201,151.78c0-5.41-3.39-9-8.43-9s-8.42,3.63-8.42,9c0,5.24,3.47,8.9,8.42,8.9s8.43-3.66,8.43-8.9m-8.43,5.62c-3.35,0-4.55-2.9-4.55-5.62,0-1.35.33-5.76,4.55-5.76s4.55,4.41,4.55,5.76c0,2.72-1.19,5.62-4.55,5.62"/><polygon class="cls-14" points="3208.26 143.15 3204.39 143.15 3204.39 160.27 3216.54 160.27 3216.54 156.99 3208.26 156.99 3208.26 143.15"/><rect class="cls-14" x="3219.89" y="143.15" width="3.87" height="17.13"/><polygon class="cls-14" points="3227.46 146.43 3232.56 146.43 3232.56 160.27 3236.43 160.27 3236.43 146.43 3241.52 146.43 3241.52 143.15 3227.46 143.15 3227.46 146.43"/><polygon class="cls-14" points="3248.84 152.96 3257.07 152.96 3257.07 149.92 3248.84 149.92 3248.84 146.43 3257.8 146.43 3257.8 143.15 3244.97 143.15 3244.97 160.27 3258 160.27 3258 156.99 3248.84 156.99 3248.84 152.96"/><polygon class="cls-14" points="3253.04 141.76 3250.66 138.24 3246.72 138.24 3250.51 141.74 3253.04 141.76"/><path class="cls-14" d="M3273,153.66c-.31,2.37-1.69,3.74-3.79,3.74-3.35,0-4.55-2.9-4.55-5.62,0-1.35.34-5.76,4.55-5.76a3.58,3.58,0,0,1,3.65,2.92V149h3.74v-.07c-.43-3.75-3.34-6.18-7.4-6.18-5,0-8.42,3.63-8.42,9,0,5.24,3.46,8.9,8.42,8.9a7.25,7.25,0,0,0,7.54-7v-.08H3273Z"/><polygon class="cls-14" points="3290.97 154.45 3283.95 143.17 3283.93 143.15 3280.11 143.15 3280.11 160.27 3283.75 160.27 3283.75 148.99 3290.74 160.24 3290.76 160.27 3294.6 160.27 3294.6 143.15 3290.97 143.15 3290.97 154.45"/><rect class="cls-14" x="3300.09" y="143.15" width="3.87" height="17.13"/><path class="cls-14" d="M3320.21,153.66c-.31,2.37-1.69,3.74-3.79,3.74-3.35,0-4.55-2.9-4.55-5.62,0-1.35.33-5.76,4.55-5.76a3.58,3.58,0,0,1,3.65,2.92V149h3.76v-.07c-.44-3.75-3.34-6.18-7.4-6.18-5,0-8.42,3.63-8.42,9,0,5.24,3.46,8.9,8.42,8.9a7.25,7.25,0,0,0,7.54-7v-.08h-3.76Z"/><path class="cls-14" d="M3335.71,143.15h-3.92l-6.48,17,0,.09h3.93l1.33-3.78h6.26l1.29,3.78h4l-6.39-17.08Zm.07,10.42h-4.21l2.14-6Z"/><path class="cls-14" d="M3359.83,143.15h-7.4v17.12h7.4c4.87,0,7.78-3.24,7.78-8.66s-2.91-8.46-7.78-8.46m-3.53,3.28h2.6c3.35,0,4.84,1.7,4.84,5.54,0,4.53-2.92,5-4.17,5h-3.27Z"/><polygon class="cls-14" points="3374.88 152.96 3383.11 152.96 3383.11 149.92 3374.88 149.92 3374.88 146.43 3383.85 146.43 3383.85 143.15 3371.01 143.15 3371.01 160.27 3384.03 160.27 3384.03 156.99 3374.88 156.99 3374.88 152.96"/><path class="cls-14" d="M3406.34,153.66c-.31,2.37-1.68,3.74-3.79,3.74-3.35,0-4.55-2.9-4.55-5.62,0-1.35.33-5.76,4.55-5.76a3.57,3.57,0,0,1,3.64,2.92l0,.05H3410v-.07c-.43-3.75-3.34-6.18-7.4-6.18-5,0-8.42,3.63-8.42,9,0,5.24,3.46,8.9,8.42,8.9a7.26,7.26,0,0,0,7.54-7v-.08h-3.75Z"/><path class="cls-14" d="M3421.6,143.15h-3.92l-6.47,17,0,.09h3.92l1.34-3.78h6.25l1.29,3.78h4l-6.39-17.08Zm.07,10.42h-4.21l2.14-6Z"/><polygon class="cls-14" points="3442.12 143.15 3428.06 143.15 3428.06 146.43 3433.16 146.43 3433.16 160.27 3437.03 160.27 3437.03 146.43 3442.12 146.43 3442.12 143.15"/><path class="cls-14" d="M3452.22,143.15h-3.92l-6.47,17,0,.09h3.93l1.33-3.78h6.26l1.28,3.78h4l-6.39-17.08Zm.07,10.42h-4.21l2.14-6Z"/><polygon class="cls-14" points="3465.18 143.15 3461.3 143.15 3461.3 160.27 3473.46 160.27 3473.46 156.99 3465.18 156.99 3465.18 143.15"/><path class="cls-14" d="M3485.89,153.78c0,2.6-1,3.62-3.45,3.62-3,0-3.43-1.83-3.43-3.62V143.15h-3.87v10.63c0,4.51,2.52,6.9,7.3,6.9s7.33-2.46,7.33-6.9V143.15h-3.88Z"/><polygon class="cls-14" points="3505.69 154.45 3498.67 143.17 3498.65 143.15 3494.83 143.15 3494.83 160.27 3498.47 160.27 3498.47 148.99 3505.46 160.24 3505.48 160.27 3509.32 160.27 3509.32 143.15 3505.69 143.15 3505.69 154.45"/><polygon class="cls-14" points="3528.32 143.15 3524 143.15 3520.09 149.79 3516.15 143.15 3511.78 143.15 3518.09 153.59 3518.09 160.27 3521.97 160.27 3521.96 153.72 3528.32 143.15"/><path class="cls-14" d="M3537.82,143.19l0,0h-3.92l-6.47,17,0,.09h3.93l1.33-3.78h6.26l1.28,3.78h4Zm0,10.38h-4.21l2.15-6Z"/><path class="cls-14" d="M2993,180.14a3.84,3.84,0,0,0,1.77-1.44,4.2,4.2,0,0,0,.66-2.37,4,4,0,0,0-.59-2.21,4.46,4.46,0,0,0-1.44-1.4,2.92,2.92,0,0,0-.93-.37,9.38,9.38,0,0,0-1.17-.17c-.41,0-.83-.07-1.25-.08h-7.42v17.14H2991a5.71,5.71,0,0,0,2.25-.42,5.27,5.27,0,0,0,1.64-1.11,4.87,4.87,0,0,0,1-1.58,5.3,5.3,0,0,0,.34-1.84,4.38,4.38,0,0,0-.85-2.71,4,4,0,0,0-2.3-1.43m-8,1.3h5.1a7.84,7.84,0,0,1,1.37.12,3.46,3.46,0,0,1,1.15.45,2.34,2.34,0,0,1,.8.85,2.7,2.7,0,0,1,.3,1.35,2.91,2.91,0,0,1-.82,2.19,3.24,3.24,0,0,1-2.3.79h-5.6Zm7.19-2.7a4.5,4.5,0,0,1-2.73.66h-4.46v-5.27h4.46a12.34,12.34,0,0,1,1.38.08,3.2,3.2,0,0,1,1.13.36,2,2,0,0,1,.76.78,3,3,0,0,1,.28,1.4,2.39,2.39,0,0,1-.82,2"/><path class="cls-14" d="M3004.6,172.09l-6.67,17.14h2.45l1.91-5.13h7.1l1.84,5.09,0,0h2.64l-6.7-17.14Zm4,10h-5.57l2.81-7.73Z"/><path class="cls-14" d="M3030.32,188.15a7.38,7.38,0,0,1-.27-1.17,12.52,12.52,0,0,1-.12-1.26c0-.42,0-.84-.07-1.26a11.55,11.55,0,0,0-.21-1.2,3.33,3.33,0,0,0-.41-1,2.67,2.67,0,0,0-.75-.82,3,3,0,0,0-1.06-.45,3.69,3.69,0,0,0,2.13-1.59,5.32,5.32,0,0,0,.71-2.74,4.15,4.15,0,0,0-1.4-3.31,5.63,5.63,0,0,0-3.84-1.21H3017v17.14h2.4V182h5.45a3,3,0,0,1,1.31.25,2.08,2.08,0,0,1,.78.65,2.7,2.7,0,0,1,.45.95c.09.37.17.77.23,1.17a7.59,7.59,0,0,1,.14,1.25l0,.46,0,.75a7.41,7.41,0,0,0,.11,1,1.53,1.53,0,0,0,.34.75l2.71,0-.08-.11a3,3,0,0,1-.53-1m-11-14h5.55a2.94,2.94,0,0,1,2.26.78,3,3,0,0,1,.69,2.06,3.16,3.16,0,0,1-.3,1.48,2.59,2.59,0,0,1-.84.9,3,3,0,0,1-1.23.45,8.7,8.7,0,0,1-1.49.13h-4.64Z"/><path class="cls-14" d="M3047.35,182.75a6.33,6.33,0,0,1-.43,1.93,4.86,4.86,0,0,1-1,1.54,4.52,4.52,0,0,1-1.48,1,5,5,0,0,1-2,.36,5.62,5.62,0,0,1-2.59-.56,5.15,5.15,0,0,1-1.78-1.52,6.49,6.49,0,0,1-1-2.24,10.92,10.92,0,0,1-.33-2.73,9.87,9.87,0,0,1,.33-2.56,6.82,6.82,0,0,1,1-2.18,5.25,5.25,0,0,1,1.76-1.51,5.5,5.5,0,0,1,2.59-.57,5.17,5.17,0,0,1,3,.9,4.15,4.15,0,0,1,1.65,2.67v.06h2.4v-.08a6.59,6.59,0,0,0-.82-2.43,6,6,0,0,0-1.57-1.74,7.14,7.14,0,0,0-2.14-1.06,8.81,8.81,0,0,0-2.54-.36,8.18,8.18,0,0,0-3.49.72,7.14,7.14,0,0,0-2.56,1.93,8.66,8.66,0,0,0-1.54,2.86,11.46,11.46,0,0,0-.53,3.51,12.33,12.33,0,0,0,.49,3.5,8.21,8.21,0,0,0,1.48,2.83,6.78,6.78,0,0,0,2.48,1.89,8.22,8.22,0,0,0,3.48.69,7.26,7.26,0,0,0,5.19-1.81,7.78,7.78,0,0,0,2.23-5v-.07h-2.4Z"/><polygon class="cls-14" points="3056.2 181.44 3065.03 181.44 3065.03 179.4 3056.2 179.4 3056.2 174.13 3065.67 174.13 3065.67 172.09 3053.8 172.09 3053.8 189.23 3065.74 189.23 3065.74 187.19 3056.2 187.19 3056.2 181.44"/><polygon class="cls-14" points="3072.72 172.09 3070.32 172.09 3070.32 189.23 3081.72 189.23 3081.72 187.19 3072.72 187.19 3072.72 172.09"/><path class="cls-14" d="M3096.9,174.42a7.59,7.59,0,0,0-2.57-2,8.9,8.9,0,0,0-7.15,0,7.5,7.5,0,0,0-2.57,2,8.48,8.48,0,0,0-1.55,2.87,11.18,11.18,0,0,0,0,6.74,8.44,8.44,0,0,0,1.55,2.86,7.4,7.4,0,0,0,2.57,2,9.12,9.12,0,0,0,7.15,0,7.59,7.59,0,0,0,2.57-2,8.69,8.69,0,0,0,1.55-2.86,11.39,11.39,0,0,0,0-6.74,8.74,8.74,0,0,0-1.55-2.87m-6.15,13.17a5.41,5.41,0,0,1-2.63-.6,5.24,5.24,0,0,1-1.81-1.59,6.72,6.72,0,0,1-1-2.23,9.66,9.66,0,0,1-.33-2.51,9.8,9.8,0,0,1,.33-2.52,6.72,6.72,0,0,1,1-2.23,5.31,5.31,0,0,1,1.81-1.58,6.09,6.09,0,0,1,5.27,0,5.3,5.3,0,0,1,1.81,1.58,7.14,7.14,0,0,1,1,2.23,10.25,10.25,0,0,1,.33,2.52,10.11,10.11,0,0,1-.33,2.51,7,7,0,0,1-1,2.23,5.33,5.33,0,0,1-1.81,1.59,5.45,5.45,0,0,1-2.64.6"/><polygon class="cls-14" points="3114.66 185.78 3105.77 172.09 3103.26 172.09 3103.26 189.23 3105.53 189.23 3105.53 175.66 3114.36 189.23 3116.94 189.23 3116.94 172.09 3114.66 172.09 3114.66 185.78"/><path class="cls-14" d="M3127,172.09l-6.67,17.14h2.45l1.91-5.13h7.1l1.84,5.09v0h2.65l-6.7-17.14Zm4,10h-5.57l2.81-7.73Z"/><polygon class="cls-14" points="3137.03 175.39 3142.12 175.39 3142.12 189.24 3146 189.24 3146 175.39 3151.09 175.39 3151.09 172.11 3137.03 172.11 3137.03 175.39"/><polygon class="cls-14" points="3158.07 181.93 3166.3 181.93 3166.3 178.89 3158.07 178.89 3158.07 175.39 3167.04 175.39 3167.04 172.11 3154.2 172.11 3154.2 189.24 3167.23 189.24 3167.23 185.96 3158.07 185.96 3158.07 181.93"/><path class="cls-14" d="M3182.32,182.62c-.31,2.38-1.68,3.75-3.79,3.75-3.35,0-4.55-2.91-4.55-5.62,0-1.35.33-5.77,4.55-5.77a3.58,3.58,0,0,1,3.64,2.92V178h3.75v-.07c-.43-3.75-3.34-6.19-7.4-6.19-5,0-8.42,3.64-8.42,9.05,0,5.24,3.46,8.89,8.42,8.89a7.26,7.26,0,0,0,7.54-7v-.08h-3.76Z"/><polygon class="cls-14" points="3199.42 178.63 3192.68 178.63 3192.68 172.11 3188.8 172.11 3188.8 189.24 3192.68 189.24 3192.68 181.91 3199.42 181.91 3199.42 189.24 3203.29 189.24 3203.29 172.11 3199.42 172.11 3199.42 178.63"/><rect class="cls-14" x="2980.88" y="202.23" width="564.65" height="1.82"/></g></g></g></svg>