<svg xmlns="http://www.w3.org/2000/svg" xmlns:xlink="http://www.w3.org/1999/xlink" viewBox="0 0 3628.35 2721.26"><defs><style>.cls-1,.cls-2{fill:none;}.cls-2{stroke:#1d1d1b;stroke-miterlimit:10;stroke-width:5px;}.cls-3{font-size:36px;font-family:Futura-Medium, Futura;}.cls-13,.cls-14,.cls-3{fill:#1d1d1b;}.cls-4{letter-spacing:-0.04em;}.cls-5{letter-spacing:0.01em;}.cls-6{letter-spacing:0.03em;}.cls-7{letter-spacing:-0.01em;}.cls-8{letter-spacing:-0.03em;}.cls-9{letter-spacing:0.02em;}.cls-10{letter-spacing:-0.01em;}.cls-11{letter-spacing:0.03em;}.cls-12{clip-path:url(#clip-path);}.cls-13{font-size:25px;font-family:FuturaLT-Book, FuturaLT Book;}</style><clipPath id="clip-path"><rect class="cls-1" x="2744.4" y="2518.78" width="759.29" height="202.48"/></clipPath></defs><title>MPDA-logo3</title><g id="Layer_1" data-name="Layer 1"><path class="cls-2" d="M1856.2,2590.63c0-.5,0-1,0-1.5a77.51,77.51,0,0,1,1.2-11.87,106.8,106.8,0,0,1,3-12.56,98.74,98.74,0,0,1,4.46-11.95,62,62,0,0,1,5.6-10,35.69,35.69,0,0,1,6.37-7,23.45,23.45,0,0,1,6.62-4,15.89,15.89,0,0,1,6.31-1.12,12,12,0,0,1,5.47,1.52,11.81,11.81,0,0,1,4.07,3.95,15.78,15.78,0,0,1,2.21,6,23.71,23.71,0,0,1-.11,7.68,35,35,0,0,1-2.88,9,62.64,62.64,0,0,1-5.85,9.83,97.42,97.42,0,0,1-8.11,9.82,105.43,105.43,0,0,1-9.38,8.87,78,78,0,0,1-9.66,7,43.31,43.31,0,0,1-9.21,4.27,28.19,28.19,0,0,1-17.7,0,44,44,0,0,1-9.2-4.27,78.14,78.14,0,0,1-9.66-7,103.77,103.77,0,0,1-9.37-8.86,95.76,95.76,0,0,1-8.09-9.81,62.33,62.33,0,0,1-5.85-9.83,35.94,35.94,0,0,1-2.86-9,23.75,23.75,0,0,1-.1-7.69,16,16,0,0,1,2.23-6,11.92,11.92,0,0,1,4.09-3.94,12.13,12.13,0,0,1,5.48-1.53,16.33,16.33,0,0,1,6.34,1.12,24,24,0,0,1,6.64,4,35.72,35.72,0,0,1,6.38,7,61.71,61.71,0,0,1,5.62,10,95.75,95.75,0,0,1,4.47,11.94,105,105,0,0,1,3,12.56,77.7,77.7,0,0,1,1.21,11.87c0,.49,0,1,0,1.45"/><path class="cls-2" d="M1822.27,2619.62l-1.39.8a77.71,77.71,0,0,1-10.87,4.87,102.87,102.87,0,0,1-12.37,3.66,97.33,97.33,0,0,1-12.58,2.09,62.4,62.4,0,0,1-11.47.13,36,36,0,0,1-9.25-2.05,24,24,0,0,1-6.74-3.8,15.78,15.78,0,0,1-4.11-5,11.66,11.66,0,0,1,0-11.08,15.85,15.85,0,0,1,4.1-5,23.86,23.86,0,0,1,6.72-3.8,35.64,35.64,0,0,1,9.24-2.05,61.31,61.31,0,0,1,11.45.13,96.79,96.79,0,0,1,12.57,2.07,108.65,108.65,0,0,1,12.37,3.66,80,80,0,0,1,10.87,4.88,43.76,43.76,0,0,1,8.3,5.83,28.8,28.8,0,0,1,5.66,7,29.16,29.16,0,0,1,3.2,8.39,43.43,43.43,0,0,1,.9,10.11,77.64,77.64,0,0,1-1.2,11.87,107.5,107.5,0,0,1-3,12.57,97,97,0,0,1-4.47,11.94,61.57,61.57,0,0,1-5.6,10,36.08,36.08,0,0,1-6.37,7,23.88,23.88,0,0,1-6.62,4,15.88,15.88,0,0,1-6.32,1.11,11.5,11.5,0,0,1-9.54-5.46,15.62,15.62,0,0,1-2.21-6,23.48,23.48,0,0,1,.1-7.69,35.45,35.45,0,0,1,2.88-9,62,62,0,0,1,5.86-9.84,97.42,97.42,0,0,1,8.11-9.82,105.12,105.12,0,0,1,9.37-8.86,79,79,0,0,1,9.67-7l1.49-.86"/><path class="cls-2" d="M1864.09,2634.46c.51.29,1,.59,1.55.9a79.15,79.15,0,0,1,9.67,7,105.22,105.22,0,0,1,9.36,8.87,97.18,97.18,0,0,1,8.09,9.82,61,61,0,0,1,5.84,9.83,35.41,35.41,0,0,1,2.86,9,23.73,23.73,0,0,1,.09,7.69,15.9,15.9,0,0,1-2.23,6,11.83,11.83,0,0,1-4.09,3.94,12,12,0,0,1-5.48,1.53,16.25,16.25,0,0,1-6.33-1.12,23.82,23.82,0,0,1-6.64-4,36,36,0,0,1-6.38-7,62.45,62.45,0,0,1-5.61-10,98.6,98.6,0,0,1-4.47-11.94,105.52,105.52,0,0,1-3-12.57,79.12,79.12,0,0,1-1.21-11.87,43.91,43.91,0,0,1,.91-10.11,29,29,0,0,1,3.21-8.4,29.67,29.67,0,0,1,5.66-7,43.94,43.94,0,0,1,8.32-5.83,77.71,77.71,0,0,1,10.87-4.87,106.08,106.08,0,0,1,12.37-3.66,95,95,0,0,1,12.56-2.07,60.43,60.43,0,0,1,11.45-.12,35.13,35.13,0,0,1,9.25,2.05,23.53,23.53,0,0,1,6.73,3.79,16.06,16.06,0,0,1,4.11,5,11.74,11.74,0,0,1,0,11.08,15.92,15.92,0,0,1-4.11,5,24,24,0,0,1-6.71,3.79,35.16,35.16,0,0,1-9.24,2,61.27,61.27,0,0,1-11.45-.12,96.84,96.84,0,0,1-12.55-2.08,103.64,103.64,0,0,1-12.37-3.67,78.78,78.78,0,0,1-10.87-4.87l-1.49-.86"/><path class="cls-2" d="M1837.36,2601.86a28,28,0,0,1-2.5,5.77,28.69,28.69,0,0,1-3.65,4.95"/><path class="cls-2" d="M1863.81,2612.42a27.69,27.69,0,0,1-3.5-4.79,27.37,27.37,0,0,1-2.46-5.64"/><path class="cls-2" d="M1841.83,2630.27a28.22,28.22,0,0,1,5.75-.6,27.37,27.37,0,0,1,5.67.59"/><text class="cls-3" transform="translate(1959.28 2577.03)">MP<tspan class="cls-4" x="54.05" y="0">D</tspan><tspan x="78.86" y="0">A</tspan></text></g><g id="_Layer_" data-name="&lt;Layer&gt;"><text class="cls-3" transform="translate(1959.28 2640.04)">Mas<tspan class="cls-5" x="70.8" y="0">t</tspan><tspan x="80.96" y="0">e</tspan><tspan class="cls-6" x="100.88" y="0">r</tspan><tspan x="115.35" y="0">’s deg</tspan><tspan class="cls-7" x="215.88" y="0">r</tspan><tspan x="229.1" y="0">ee </tspan><tspan class="cls-8" x="0" y="43.2">P</tspan><tspan x="18.47" y="43.2">a</tspan><tspan class="cls-7" x="40.06" y="43.2">r</tspan><tspan x="53.28" y="43.2">am</tspan><tspan class="cls-5" x="103.34" y="43.2">e</tspan><tspan x="123.57" y="43.2">t</tspan><tspan class="cls-9" x="133.42" y="43.2">r</tspan><tspan x="147.43" y="43.2">ic Design in A</tspan><tspan class="cls-10" x="373.17" y="43.2">r</tspan><tspan class="cls-11" x="386.31" y="43.2">c</tspan><tspan x="404.4" y="43.2">hi</tspan><tspan class="cls-5" x="433.11" y="43.2">t</tspan><tspan x="443.27" y="43.2">ectu</tspan><tspan class="cls-7" x="509.8" y="43.2">r</tspan><tspan x="523.02" y="43.2">e</tspan></text><g class="cls-12"><text class="cls-13" transform="translate(2918.74 2661.24)">School of Professional &amp; Executive Development</text><g class="cls-12"><path class="cls-14" d="M2831.14,2642.35h-2.44v5.09h2.51c1.63,0,2.29-1.27,2.26-2.63s-.57-2.46-2.33-2.46m-1.54-95.09a65.75,65.75,0,1,0,65.75,65.74,65.74,65.74,0,0,0-65.75-65.74m.26,18.56a9.39,9.39,0,1,1-9.38,9.39,9.38,9.38,0,0,1,9.38-9.39m0,22.25a9.38,9.38,0,1,1-9.38,9.38,9.37,9.37,0,0,1,9.38-9.38m-22.81-22.25a9.39,9.39,0,1,1-9.38,9.39,9.39,9.39,0,0,1,9.38-9.39m0,22.25a9.38,9.38,0,1,1-9.38,9.38,9.38,9.38,0,0,1,9.38-9.38m0,22.82a9.39,9.39,0,1,1-9.38,9.39,9.38,9.38,0,0,1,9.38-9.39m11.07,39.92c0,2.31-.08,5.15-3.11,7.28a13,13,0,0,1-12.87,0c-3-2.13-3.11-5-3.11-7.28v-13.2h6.32v13.17a3.47,3.47,0,0,0,1.11,3,3,3,0,0,0,2.12.75,2.91,2.91,0,0,0,2.11-.75,3.59,3.59,0,0,0,1.12-3v-13.17h6.31Zm11.74-39.92a9.39,9.39,0,1,1-9.38,9.39,9.38,9.38,0,0,1,9.38-9.39m6.7,40.18c-1.21.86-2.59,1.19-6.1,1.19l-1.83-.05v7.11h-5.5v-21.71h9.09c4.43,0,7.17,2.67,7.17,7.48a7,7,0,0,1-2.83,6m22.67-6.89c-2.15-1.81-3-1.67-4.7-1.67-3.29,0-5.58,2.49-5.58,6.06s2.32,6.06,5.61,6.06c1.78,0,2.67-.24,4.67-1.72v5.62a10.3,10.3,0,0,1-5.25,1.31c-6.56,0-11.18-4.66-11.18-11.27s4.72-11.41,11.11-11.41a10.7,10.7,0,0,1,5.32,1.33Zm-7.08-14.52a9.39,9.39,0,1,1,9.38-9.38,9.38,9.38,0,0,1-9.38,9.38m0-22.83a9.38,9.38,0,1,1,9.38-9.38,9.39,9.39,0,0,1-9.38,9.38m0-22.24a9.39,9.39,0,1,1,9.38-9.38,9.39,9.39,0,0,1-9.38,9.38"/><path class="cls-14" d="M2931,2577.34c0,2.6-1,3.62-3.45,3.62-3,0-3.43-1.83-3.43-3.62v-10.63h-3.87v10.63c0,4.51,2.53,6.9,7.3,6.9s7.33-2.45,7.33-6.9v-10.63H2931Z"/><polygon class="cls-14" points="2950.46 2578.01 2943.44 2566.74 2943.42 2566.71 2939.6 2566.71 2939.6 2583.83 2943.24 2583.83 2943.24 2572.55 2950.23 2583.8 2950.25 2583.83 2954.09 2583.83 2954.09 2566.71 2950.46 2566.71 2950.46 2578.01"/><rect class="cls-14" x="2960.06" y="2566.71" width="3.87" height="17.13"/><polygon class="cls-14" points="2973.6 2583.83 2977.91 2583.83 2983.57 2566.8 2983.6 2566.71 2979.6 2566.71 2975.79 2578.57 2972.03 2566.71 2968.04 2566.71 2973.58 2583.79 2973.6 2583.83"/><polygon class="cls-14" points="3000.53 2580.55 2991.37 2580.55 2991.37 2576.53 2999.6 2576.53 2999.6 2573.49 2991.37 2573.49 2991.37 2569.99 3000.33 2569.99 3000.33 2566.71 2987.49 2566.71 2987.49 2583.83 3000.53 2583.83 3000.53 2580.55"/><path class="cls-14" d="M3019.25,2580.32c0-.22,0-.41,0-.58-.15-2.25-.94-3.57-2.39-4a4.26,4.26,0,0,0,2.61-4.28,4.74,4.74,0,0,0-5-4.75h-9.23v17.12H3009v-6.63h3.67c1.77,0,2.49.65,2.77,2.51.06.44.09.91.13,1.37a9.38,9.38,0,0,0,.47,2.71v0H3020l-.07-.1a7.38,7.38,0,0,1-.67-3.41M3009,2569.74h4c1.68,0,2.5.75,2.5,2.29s-.8,2.36-2.5,2.36h-4Z"/><path class="cls-14" d="M3032.47,2573.74l-.53-.13c-3.94-1-4.65-1.19-4.65-2.41s1.35-1.86,2.51-1.86c2.14,0,3.19.8,3.29,2.51v.06h3.75v-.06c0-3.47-2.57-5.55-6.87-5.55-3.19,0-6.42,1.79-6.42,5.21,0,3.27,2.64,4.24,5.11,4.9l1.1.28c2.09.51,3.9.95,3.9,2.46,0,1.91-2.49,2-3.24,2-2.32,0-3.7-1.15-3.7-3.07v-.07H3023v.07a5.5,5.5,0,0,0,1.54,4.06,8,8,0,0,0,5.76,2c4.4,0,7.14-2.12,7.14-5.52,0-3.76-3.59-4.65-4.94-5"/><rect class="cls-14" x="3042.09" y="2566.71" width="3.87" height="17.13"/><polygon class="cls-14" points="3054.54 2583.83 3058.41 2583.83 3058.41 2569.99 3063.51 2569.99 3063.51 2566.71 3049.45 2566.71 3049.45 2569.99 3054.54 2569.99 3054.54 2583.83"/><path class="cls-14" d="M3080.2,2583.83l-6.38-17.07,0-.05h-3.92l-6.47,17,0,.09h3.93l1.33-3.78h6.25l1.29,3.78Zm-6.32-6.7h-4.22l2.14-6Z"/><polygon class="cls-14" points="3094.32 2566.71 3080.26 2566.71 3080.26 2569.99 3085.36 2569.99 3085.36 2583.83 3089.23 2583.83 3089.23 2569.99 3094.32 2569.99 3094.32 2566.71"/><path class="cls-14" d="M3110.35,2577.74h3.86c4.38,0,5.95-2.85,5.95-5.52s-1.57-5.51-5.95-5.51h-7.73v17.12h3.87Zm0-8h2.84c1.59,0,3.21.3,3.21,2.48s-1.62,2.49-3.21,2.49h-2.84Z"/><path class="cls-14" d="M3138.92,2575.34c0-5.4-3.38-9-8.42-9s-8.42,3.64-8.42,9c0,5.24,3.46,8.9,8.42,8.9s8.42-3.66,8.42-8.9m-8.42,5.62c-3.35,0-4.55-2.9-4.55-5.62,0-1.35.33-5.76,4.55-5.76s4.55,4.41,4.55,5.76c0,2.72-1.2,5.62-4.55,5.62"/><polygon class="cls-14" points="3146.17 2566.71 3142.3 2566.71 3142.3 2583.83 3154.45 2583.83 3154.45 2580.56 3146.17 2580.56 3146.17 2566.71"/><rect class="cls-14" x="3157.8" y="2566.71" width="3.87" height="17.13"/><polygon class="cls-14" points="3165.37 2569.99 3170.47 2569.99 3170.47 2583.83 3174.34 2583.83 3174.34 2569.99 3179.43 2569.99 3179.43 2566.71 3165.37 2566.71 3165.37 2569.99"/><polygon class="cls-14" points="3186.75 2576.53 3194.98 2576.53 3194.98 2573.49 3186.75 2573.49 3186.75 2569.99 3195.71 2569.99 3195.71 2566.71 3182.87 2566.71 3182.87 2583.83 3195.91 2583.83 3195.91 2580.56 3186.75 2580.56 3186.75 2576.53"/><polygon class="cls-14" points="3190.95 2565.32 3188.57 2561.8 3184.63 2561.8 3188.42 2565.3 3190.95 2565.32"/><path class="cls-14" d="M3210.92,2577.22c-.31,2.37-1.69,3.74-3.79,3.74-3.35,0-4.55-2.9-4.55-5.62,0-1.35.33-5.76,4.55-5.76a3.57,3.57,0,0,1,3.64,2.92l0,.05h3.74v-.07c-.43-3.75-3.34-6.18-7.4-6.18-5,0-8.42,3.64-8.42,9,0,5.24,3.46,8.9,8.42,8.9a7.25,7.25,0,0,0,7.54-7v-.08h-3.75Z"/><polygon class="cls-14" points="3228.88 2578.01 3221.86 2566.74 3221.84 2566.71 3218.02 2566.71 3218.02 2583.83 3221.66 2583.83 3221.66 2572.56 3228.65 2583.8 3228.67 2583.83 3232.51 2583.83 3232.51 2566.71 3228.88 2566.71 3228.88 2578.01"/><rect class="cls-14" x="3238" y="2566.71" width="3.87" height="17.13"/><path class="cls-14" d="M3258.12,2577.22c-.31,2.37-1.69,3.74-3.79,3.74-3.36,0-4.55-2.9-4.55-5.62,0-1.35.33-5.76,4.55-5.76a3.57,3.57,0,0,1,3.64,2.92v.05h3.75v-.07c-.43-3.75-3.33-6.18-7.39-6.18-5,0-8.42,3.64-8.42,9,0,5.24,3.46,8.9,8.42,8.9a7.25,7.25,0,0,0,7.54-7v-.08h-3.75Z"/><path class="cls-14" d="M3273.61,2566.71h-3.92l-6.47,17,0,.09h3.93l1.33-3.78h6.26l1.28,3.78h4l-6.39-17.07Zm.08,10.42h-4.22l2.15-6Z"/><path class="cls-14" d="M3297.74,2566.71h-7.4v17.12h7.4c4.87,0,7.77-3.24,7.77-8.66s-2.9-8.46-7.77-8.46m-3.53,3.28h2.6c3.34,0,4.83,1.71,4.83,5.54,0,4.54-2.91,5-4.16,5h-3.27Z"/><polygon class="cls-14" points="3312.79 2576.53 3321.02 2576.53 3321.02 2573.49 3312.79 2573.49 3312.79 2569.99 3321.76 2569.99 3321.76 2566.71 3308.91 2566.71 3308.91 2583.83 3321.94 2583.83 3321.94 2580.56 3312.79 2580.56 3312.79 2576.53"/><path class="cls-14" d="M3344.25,2577.22c-.31,2.37-1.69,3.74-3.8,3.74-3.35,0-4.54-2.9-4.54-5.62,0-1.35.33-5.76,4.54-5.76a3.58,3.58,0,0,1,3.65,2.92v.05h3.75v-.07c-.44-3.75-3.34-6.18-7.41-6.18-5,0-8.41,3.64-8.41,9,0,5.24,3.46,8.9,8.41,8.9a7.26,7.26,0,0,0,7.55-7v-.08h-3.76Z"/><path class="cls-14" d="M3359.51,2566.71h-3.93l-6.47,17,0,.09H3353l1.33-3.78h6.26l1.29,3.78h4l-6.39-17.07Zm.07,10.42h-4.21l2.14-6Z"/><polygon class="cls-14" points="3380.03 2566.71 3365.97 2566.71 3365.97 2569.99 3371.07 2569.99 3371.07 2583.83 3374.93 2583.83 3374.93 2569.99 3380.03 2569.99 3380.03 2566.71"/><path class="cls-14" d="M3390.13,2566.71h-3.92l-6.47,17,0,.09h3.92l1.34-3.78h6.25l1.29,3.78h4l-6.39-17.07Zm.07,10.42H3386l2.14-6Z"/><polygon class="cls-14" points="3403.08 2566.71 3399.21 2566.71 3399.21 2583.83 3411.37 2583.83 3411.37 2580.56 3403.08 2580.56 3403.08 2566.71"/><path class="cls-14" d="M3423.8,2577.34c0,2.6-1,3.62-3.45,3.62-3,0-3.43-1.83-3.43-3.62v-10.63H3413v10.63c0,4.51,2.53,6.9,7.31,6.9s7.32-2.45,7.32-6.9v-10.63h-3.87Z"/><polygon class="cls-14" points="3443.59 2578.01 3436.57 2566.74 3436.56 2566.71 3432.74 2566.71 3432.74 2583.83 3436.38 2583.83 3436.38 2572.56 3443.36 2583.8 3443.38 2583.83 3447.22 2583.83 3447.22 2566.71 3443.59 2566.71 3443.59 2578.01"/><polygon class="cls-14" points="3466.23 2566.71 3461.91 2566.71 3458 2573.35 3454.06 2566.71 3449.69 2566.71 3456 2577.15 3456 2583.83 3459.87 2583.83 3459.86 2577.28 3466.23 2566.71"/><path class="cls-14" d="M3475.73,2566.76l0-.05h-3.92l-6.47,17,0,.09h3.93l1.33-3.78h6.25l1.29,3.78h4Zm.05,10.37h-4.21l2.14-6Z"/><path class="cls-14" d="M2931,2603.71a4,4,0,0,0,1.77-1.44,4.23,4.23,0,0,0,.66-2.38,4,4,0,0,0-.59-2.21,4.67,4.67,0,0,0-1.44-1.4,2.67,2.67,0,0,0-.94-.36,8.86,8.86,0,0,0-1.16-.18c-.42,0-.84-.07-1.26-.08h-7.41v17.14h8.28a5.76,5.76,0,0,0,2.26-.42,5.05,5.05,0,0,0,1.63-1.11,4.74,4.74,0,0,0,1-1.58,5.26,5.26,0,0,0,.34-1.84,4.38,4.38,0,0,0-.85-2.71,4,4,0,0,0-2.3-1.42m-8,1.3h5.11a7.84,7.84,0,0,1,1.37.12,3.25,3.25,0,0,1,1.15.45,2.31,2.31,0,0,1,.8.84,2.7,2.7,0,0,1,.29,1.35,2.93,2.93,0,0,1-.81,2.19,3.21,3.21,0,0,1-2.3.79H2923Zm7.2-2.71a4.47,4.47,0,0,1-2.73.66H2923v-5.27h4.47a10.32,10.32,0,0,1,1.38.09,3.13,3.13,0,0,1,1.13.36,1.88,1.88,0,0,1,.75.78,2.88,2.88,0,0,1,.28,1.39,2.37,2.37,0,0,1-.81,2"/><path class="cls-14" d="M2942.51,2595.65l-6.67,17.14h2.45l1.91-5.12h7.09l1.84,5.08,0,0h2.65l-6.7-17.14Zm4,10H2941l2.81-7.73Z"/><path class="cls-14" d="M2968.23,2611.71a8.34,8.34,0,0,1-.28-1.17c0-.4-.09-.83-.11-1.25s0-.85-.07-1.27a12,12,0,0,0-.21-1.2,3.43,3.43,0,0,0-.41-1.05,2.69,2.69,0,0,0-.76-.82,3,3,0,0,0-1-.45,3.62,3.62,0,0,0,2.12-1.58,5.29,5.29,0,0,0,.71-2.75,4.19,4.19,0,0,0-1.39-3.31,5.68,5.68,0,0,0-3.84-1.21h-8.07v17.14h2.4v-7.27h5.45a2.92,2.92,0,0,1,1.3.25,2.13,2.13,0,0,1,.79.65,2.53,2.53,0,0,1,.44.95,10.52,10.52,0,0,1,.24,1.17,7.71,7.71,0,0,1,.14,1.26l0,.45q0,.39,0,.75a7.41,7.41,0,0,0,.11,1,1.41,1.41,0,0,0,.34.75l2.71,0-.09-.11a2.92,2.92,0,0,1-.52-1m-11-14h5.55a2.87,2.87,0,0,1,2.25.79,3,3,0,0,1,.7,2.05,3,3,0,0,1-.31,1.48,2.56,2.56,0,0,1-.83.9,3.18,3.18,0,0,1-1.23.46,8.82,8.82,0,0,1-1.49.12h-4.64Z"/><path class="cls-14" d="M2985.25,2606.31a6,6,0,0,1-.43,1.93,4.35,4.35,0,0,1-1,1.54,4.6,4.6,0,0,1-1.48,1,5.14,5.14,0,0,1-1.95.36,5.57,5.57,0,0,1-2.59-.57,5,5,0,0,1-1.78-1.52,6.34,6.34,0,0,1-1-2.23,11.06,11.06,0,0,1-.33-2.74,9.87,9.87,0,0,1,.33-2.56,6.57,6.57,0,0,1,1-2.17,5.18,5.18,0,0,1,1.76-1.52,5.58,5.58,0,0,1,2.58-.56,5.27,5.27,0,0,1,3.05.89,4.17,4.17,0,0,1,1.65,2.67v.06h2.4l0-.08a6.35,6.35,0,0,0-.81-2.42,6.28,6.28,0,0,0-1.57-1.75,7,7,0,0,0-2.15-1,8.74,8.74,0,0,0-2.53-.37,8.14,8.14,0,0,0-3.49.72,7.25,7.25,0,0,0-2.56,1.93,8.48,8.48,0,0,0-1.54,2.86,11.48,11.48,0,0,0-.53,3.52,12.09,12.09,0,0,0,.49,3.5,8.3,8.3,0,0,0,1.48,2.83,7,7,0,0,0,2.47,1.89,8.39,8.39,0,0,0,3.49.68,7.26,7.26,0,0,0,5.19-1.81,7.83,7.83,0,0,0,2.23-5v-.08h-2.4Z"/><polygon class="cls-14" points="2994.1 2605.01 3002.94 2605.01 3002.94 2602.96 2994.1 2602.96 2994.1 2597.69 3003.58 2597.69 3003.58 2595.65 2991.7 2595.65 2991.7 2612.79 3003.65 2612.79 3003.65 2610.75 2994.1 2610.75 2994.1 2605.01"/><polygon class="cls-14" points="3010.63 2595.65 3008.23 2595.65 3008.23 2612.79 3019.63 2612.79 3019.63 2610.75 3010.63 2610.75 3010.63 2595.65"/><path class="cls-14" d="M3034.81,2598a7.62,7.62,0,0,0-2.57-2,8.92,8.92,0,0,0-7.16,0,7.72,7.72,0,0,0-2.57,2,8.61,8.61,0,0,0-1.55,2.86,11.39,11.39,0,0,0,0,6.74,8.66,8.66,0,0,0,1.55,2.87,7.57,7.57,0,0,0,2.57,2,9.14,9.14,0,0,0,7.16,0,7.57,7.57,0,0,0,2.57-2,8.84,8.84,0,0,0,1.55-2.87,11.39,11.39,0,0,0,0-6.74,8.8,8.8,0,0,0-1.55-2.86m-6.15,13.17a5.49,5.49,0,0,1-2.63-.6,5.3,5.3,0,0,1-1.82-1.6,7,7,0,0,1-1-2.22,9.79,9.79,0,0,1,0-5,7.11,7.11,0,0,1,1-2.23,5.35,5.35,0,0,1,1.82-1.58,5.41,5.41,0,0,1,2.63-.6,5.48,5.48,0,0,1,2.64.6,5.37,5.37,0,0,1,1.8,1.58,6.82,6.82,0,0,1,1,2.23,9.79,9.79,0,0,1,0,5,6.58,6.58,0,0,1-1,2.22,5.23,5.23,0,0,1-1.8,1.6,5.56,5.56,0,0,1-2.64.6"/><polygon class="cls-14" points="3052.57 2609.35 3043.68 2595.65 3041.16 2595.65 3041.16 2612.79 3043.44 2612.79 3043.44 2599.23 3052.27 2612.79 3054.85 2612.79 3054.85 2595.65 3052.57 2595.65 3052.57 2609.35"/><path class="cls-14" d="M3064.86,2595.65l-6.68,17.14h2.46l1.9-5.12h7.11l1.83,5.08,0,0h2.64l-6.69-17.14Zm4,10h-5.57l2.8-7.73Z"/><polygon class="cls-14" points="3074.94 2598.95 3080.03 2598.95 3080.03 2612.8 3083.91 2612.8 3083.91 2598.95 3088.99 2598.95 3088.99 2595.68 3074.94 2595.68 3074.94 2598.95"/><polygon class="cls-14" points="3095.98 2605.49 3104.21 2605.49 3104.21 2602.45 3095.98 2602.45 3095.98 2598.95 3104.95 2598.95 3104.95 2595.68 3092.11 2595.68 3092.11 2612.8 3105.14 2612.8 3105.14 2609.52 3095.98 2609.52 3095.98 2605.49"/><path class="cls-14" d="M3120.23,2606.19c-.31,2.37-1.69,3.74-3.79,3.74-3.36,0-4.55-2.9-4.55-5.62,0-1.35.33-5.76,4.55-5.76a3.57,3.57,0,0,1,3.64,2.92v.05h3.75v-.07c-.43-3.75-3.33-6.18-7.39-6.18-5,0-8.42,3.63-8.42,9,0,5.24,3.46,8.9,8.42,8.9a7.27,7.27,0,0,0,7.54-7v-.08h-3.75Z"/><polygon class="cls-14" points="3137.33 2602.19 3130.58 2602.19 3130.58 2595.68 3126.71 2595.68 3126.71 2612.8 3130.58 2612.8 3130.58 2605.47 3137.33 2605.47 3137.33 2612.8 3141.19 2612.8 3141.19 2595.68 3137.33 2595.68 3137.33 2602.19"/><rect class="cls-14" x="2918.79" y="2625.79" width="564.65" height="1.82"/></g></g></g></svg>